%TF.GenerationSoftware,KiCad,Pcbnew,7.0.9*%
%TF.CreationDate,2024-01-11T16:53:17+08:00*%
%TF.ProjectId,UINIO-DAP-Link,55494e49-4f2d-4444-9150-2d4c696e6b2e,Version 3.3.1*%
%TF.SameCoordinates,PX6318a70PY5c9a0e0*%
%TF.FileFunction,Copper,L2,Bot*%
%TF.FilePolarity,Positive*%
%FSLAX46Y46*%
G04 Gerber Fmt 4.6, Leading zero omitted, Abs format (unit mm)*
G04 Created by KiCad (PCBNEW 7.0.9) date 2024-01-11 16:53:17*
%MOMM*%
%LPD*%
G01*
G04 APERTURE LIST*
G04 Aperture macros list*
%AMRoundRect*
0 Rectangle with rounded corners*
0 $1 Rounding radius*
0 $2 $3 $4 $5 $6 $7 $8 $9 X,Y pos of 4 corners*
0 Add a 4 corners polygon primitive as box body*
4,1,4,$2,$3,$4,$5,$6,$7,$8,$9,$2,$3,0*
0 Add four circle primitives for the rounded corners*
1,1,$1+$1,$2,$3*
1,1,$1+$1,$4,$5*
1,1,$1+$1,$6,$7*
1,1,$1+$1,$8,$9*
0 Add four rect primitives between the rounded corners*
20,1,$1+$1,$2,$3,$4,$5,0*
20,1,$1+$1,$4,$5,$6,$7,0*
20,1,$1+$1,$6,$7,$8,$9,0*
20,1,$1+$1,$8,$9,$2,$3,0*%
G04 Aperture macros list end*
%TA.AperFunction,ComponentPad*%
%ADD10R,1.700000X1.700000*%
%TD*%
%TA.AperFunction,ComponentPad*%
%ADD11O,1.700000X1.700000*%
%TD*%
%TA.AperFunction,ComponentPad*%
%ADD12C,1.200000*%
%TD*%
%TA.AperFunction,ComponentPad*%
%ADD13RoundRect,0.250000X-0.600000X-0.600000X0.600000X-0.600000X0.600000X0.600000X-0.600000X0.600000X0*%
%TD*%
%TA.AperFunction,ComponentPad*%
%ADD14C,1.700000*%
%TD*%
%TA.AperFunction,ComponentPad*%
%ADD15C,2.200000*%
%TD*%
%TA.AperFunction,ComponentPad*%
%ADD16RoundRect,0.250000X0.600000X0.600000X-0.600000X0.600000X-0.600000X-0.600000X0.600000X-0.600000X0*%
%TD*%
%TA.AperFunction,ComponentPad*%
%ADD17O,2.100000X1.000000*%
%TD*%
%TA.AperFunction,ComponentPad*%
%ADD18O,1.900000X1.000000*%
%TD*%
%TA.AperFunction,ViaPad*%
%ADD19C,0.500000*%
%TD*%
%TA.AperFunction,ViaPad*%
%ADD20C,0.700000*%
%TD*%
%TA.AperFunction,ViaPad*%
%ADD21C,0.900000*%
%TD*%
%TA.AperFunction,Conductor*%
%ADD22C,0.300000*%
%TD*%
%TA.AperFunction,Conductor*%
%ADD23C,0.500000*%
%TD*%
%TA.AperFunction,Conductor*%
%ADD24C,0.200000*%
%TD*%
G04 APERTURE END LIST*
D10*
%TO.P,J6,1,Pin_1*%
%TO.N,GND*%
X3040000Y-19150000D03*
D11*
%TO.P,J6,2,Pin_2*%
%TO.N,/Download_SWCLK*%
X5580000Y-19150000D03*
%TO.P,J6,3,Pin_3*%
%TO.N,/Download_SWDIO*%
X8120000Y-19150000D03*
%TO.P,J6,4,Pin_4*%
%TO.N,/VDD_3.3V*%
X10660000Y-19150000D03*
%TD*%
D12*
%TO.P,HOLE2,*%
%TO.N,*%
X260000Y-18550000D03*
%TD*%
D13*
%TO.P,J7,1,Pin_1*%
%TO.N,/JTAG_TDI*%
X29330000Y-5220000D03*
D14*
%TO.P,J7,2,Pin_2*%
%TO.N,/VDD_5V*%
X31870000Y-5220000D03*
%TO.P,J7,3,Pin_3*%
%TO.N,/JTAG_TDO*%
X29330000Y-7760000D03*
%TO.P,J7,4,Pin_4*%
%TO.N,/VDD_3.3V*%
X31870000Y-7760000D03*
%TO.P,J7,5,Pin_5*%
%TO.N,/JTAG_nTRST*%
X29330000Y-10300000D03*
%TO.P,J7,6,Pin_6*%
%TO.N,/JTAG_TMS{slash}SWDIO*%
X31870000Y-10300000D03*
%TO.P,J7,7,Pin_7*%
%TO.N,/USART2_RX*%
X29330000Y-12840000D03*
%TO.P,J7,8,Pin_8*%
%TO.N,/JTAG_TCK{slash}SWCLK*%
X31870000Y-12840000D03*
%TO.P,J7,9,Pin_9*%
%TO.N,/USART2_TX*%
X29330000Y-15380000D03*
%TO.P,J7,10,Pin_10*%
%TO.N,GND*%
X31870000Y-15380000D03*
%TD*%
D15*
%TO.P,HOLE8,*%
%TO.N,*%
X74504000Y2290000D03*
%TD*%
%TO.P,HOLE7,*%
%TO.N,*%
X74524000Y-22850000D03*
%TD*%
D13*
%TO.P,J2,1,Pin_1*%
%TO.N,/3.3V_Output*%
X77898500Y1130000D03*
D14*
%TO.P,J2,2,Pin_2*%
X80438500Y1130000D03*
%TO.P,J2,3,Pin_3*%
%TO.N,/nTRST*%
X77898500Y-1410000D03*
%TO.P,J2,4,Pin_4*%
%TO.N,GND*%
X80438500Y-1410000D03*
%TO.P,J2,5,Pin_5*%
%TO.N,/_JTAG_TDI*%
X77898500Y-3950000D03*
%TO.P,J2,6,Pin_6*%
%TO.N,GND*%
X80438500Y-3950000D03*
%TO.P,J2,7,Pin_7*%
%TO.N,/_JTAG_TMS{slash}SWDIO*%
X77898500Y-6490000D03*
%TO.P,J2,8,Pin_8*%
%TO.N,GND*%
X80438500Y-6490000D03*
%TO.P,J2,9,Pin_9*%
%TO.N,/_JTAG_TCK{slash}SWCLK*%
X77898500Y-9030000D03*
%TO.P,J2,10,Pin_10*%
%TO.N,GND*%
X80438500Y-9030000D03*
%TO.P,J2,11,Pin_11*%
%TO.N,/RTCK*%
X77898500Y-11570000D03*
%TO.P,J2,12,Pin_12*%
%TO.N,GND*%
X80438500Y-11570000D03*
%TO.P,J2,13,Pin_13*%
%TO.N,/_JTAG_TDO*%
X77898500Y-14110000D03*
%TO.P,J2,14,Pin_14*%
%TO.N,GND*%
X80438500Y-14110000D03*
%TO.P,J2,15,Pin_15*%
%TO.N,/_JTAG_nSRST_Output*%
X77898500Y-16650000D03*
%TO.P,J2,16,Pin_16*%
%TO.N,GND*%
X80438500Y-16650000D03*
%TO.P,J2,17,Pin_17*%
%TO.N,unconnected-(J2-Pin_17-Pad17)*%
X77898500Y-19190000D03*
%TO.P,J2,18,Pin_18*%
%TO.N,GND*%
X80438500Y-19190000D03*
%TO.P,J2,19,Pin_19*%
%TO.N,unconnected-(J2-Pin_19-Pad19)*%
X77898500Y-21730000D03*
%TO.P,J2,20,Pin_20*%
%TO.N,GND*%
X80438500Y-21730000D03*
%TD*%
D10*
%TO.P,J4,1,Pin_1*%
%TO.N,/3.3V_Input*%
X60505000Y-22764000D03*
D11*
%TO.P,J4,2,Pin_2*%
%TO.N,/3.3V_Output*%
X63045000Y-22764000D03*
%TD*%
D12*
%TO.P,HOLE1,*%
%TO.N,*%
X260000Y-2050000D03*
%TD*%
D16*
%TO.P,J5,1,Pin_1*%
%TO.N,/_USART2_TX*%
X58991500Y-15380000D03*
D14*
%TO.P,J5,2,Pin_2*%
%TO.N,GND*%
X56451500Y-15380000D03*
%TO.P,J5,3,Pin_3*%
%TO.N,/_USART2_RX*%
X58991500Y-12840000D03*
%TO.P,J5,4,Pin_4*%
%TO.N,/_JTAG_TCK{slash}SWCLK*%
X56451500Y-12840000D03*
%TO.P,J5,5,Pin_5*%
%TO.N,/_JTAG_nSRST_Input*%
X58991500Y-10300000D03*
%TO.P,J5,6,Pin_6*%
%TO.N,/_JTAG_TMS{slash}SWDIO*%
X56451500Y-10300000D03*
%TO.P,J5,7,Pin_7*%
%TO.N,Net-(J5-Pin_7)*%
X58991500Y-7760000D03*
%TO.P,J5,8,Pin_8*%
%TO.N,/3.3V_Input*%
X56451500Y-7760000D03*
%TO.P,J5,9,Pin_9*%
%TO.N,Net-(J5-Pin_9)*%
X58991500Y-5220000D03*
%TO.P,J5,10,Pin_10*%
%TO.N,/_VDD_5V*%
X56451500Y-5220000D03*
%TD*%
D15*
%TO.P,HOLE6,*%
%TO.N,*%
X56644000Y-22820000D03*
%TD*%
D17*
%TO.P,USB1,13,GND*%
%TO.N,GND*%
X4879000Y-6015000D03*
%TO.P,USB1,14,GND*%
X4879000Y-14665000D03*
D18*
%TO.P,USB1,15,GND*%
X679000Y-6015000D03*
%TO.P,USB1,16,GND*%
X679000Y-14665000D03*
%TD*%
D10*
%TO.P,J1,1,Pin_1*%
%TO.N,/_USART2_RX*%
X60495000Y2206000D03*
D11*
%TO.P,J1,2,Pin_2*%
%TO.N,/_USART2_TX*%
X63035000Y2206000D03*
%TO.P,J1,3,Pin_3*%
%TO.N,/3.3V_Input*%
X65575000Y2206000D03*
%TO.P,J1,4,Pin_4*%
%TO.N,GND*%
X68115000Y2206000D03*
%TO.P,J1,5,Pin_5*%
%TO.N,/_VDD_5V*%
X70655000Y2206000D03*
%TD*%
D15*
%TO.P,HOLE4,*%
%TO.N,*%
X30800000Y-2050000D03*
%TD*%
%TO.P,HOLE5,*%
%TO.N,*%
X56604000Y2290000D03*
%TD*%
%TO.P,HOLE3,*%
%TO.N,*%
X30760000Y-18550000D03*
%TD*%
D10*
%TO.P,J3,1,Pin_1*%
%TO.N,/_JTAG_nSRST_Input*%
X68065000Y-22764000D03*
D11*
%TO.P,J3,2,Pin_2*%
%TO.N,/_JTAG_nSRST_Output*%
X70605000Y-22764000D03*
%TD*%
D19*
%TO.N,GND*%
X25250000Y-9030000D03*
D20*
X64330000Y-14850000D03*
D19*
X25240000Y-6510000D03*
D20*
X60580000Y-8390000D03*
D21*
X17900000Y-10180000D03*
D19*
X55040000Y-11550000D03*
X16340000Y-10240000D03*
X25230000Y-13590000D03*
X11500000Y-3290000D03*
D20*
X62820000Y-12920000D03*
X62870000Y-8390000D03*
X11500000Y-1080000D03*
X12890000Y-16690000D03*
X11607500Y-11997500D03*
D19*
X17430000Y-16250000D03*
D20*
X71820000Y-2740000D03*
D19*
X12920000Y-10170000D03*
X9960000Y-16040000D03*
D20*
X62820000Y-10620000D03*
D19*
X17910000Y-11580000D03*
D20*
X25230000Y-2510000D03*
D19*
X30550000Y-9020000D03*
X19480000Y-10240000D03*
D20*
X12220000Y-6010000D03*
D19*
X22430000Y-17040000D03*
X17910000Y-8900000D03*
D20*
X18290000Y-6620000D03*
X76100000Y-11750000D03*
D21*
X8690000Y-6010000D03*
D20*
X69510000Y-1810000D03*
D19*
X55040000Y-8990000D03*
D20*
X69340000Y-14070000D03*
X73640000Y-10410000D03*
D21*
%TO.N,/VDD_3.3V*%
X22420000Y-19510000D03*
X5770000Y-2230000D03*
D20*
X18590000Y-4060000D03*
X17905000Y-13245000D03*
D19*
%TO.N,Net-(U2-NRST)*%
X22420000Y-14270000D03*
X21105000Y-15585000D03*
D20*
%TO.N,/3.3V_Input*%
X64130000Y-8390000D03*
X65570000Y-16860000D03*
X64130000Y-13320000D03*
X64130000Y-9710000D03*
D19*
%TO.N,/_USART2_RX*%
X60490000Y-2680000D03*
X69834000Y-2674000D03*
%TO.N,/_USART2_TX*%
X69840000Y-980000D03*
%TO.N,/_JTAG_TMS{slash}SWDIO*%
X73640000Y-9010000D03*
%TO.N,/_JTAG_TCK{slash}SWCLK*%
X63490000Y-11570000D03*
%TO.N,/Download_SWDIO*%
X11980000Y-15290000D03*
D20*
X15410000Y-9530000D03*
D19*
%TO.N,/JTAG_nTRST*%
X20150000Y-8290000D03*
D20*
%TO.N,/JTAG_TCK{slash}SWCLK*%
X20300000Y-9400000D03*
D21*
%TO.N,/VDD_5V*%
X7090000Y-12750000D03*
X7120000Y-7930000D03*
X9760000Y-4810000D03*
X12210000Y-4800000D03*
%TD*%
D22*
%TO.N,GND*%
X69300000Y-14110000D02*
X58040000Y-14110000D01*
X17910000Y-9000000D02*
X17910000Y-7010000D01*
D23*
X13680000Y-6010000D02*
X12220000Y-6010000D01*
D22*
X17910000Y-7010000D02*
X18290000Y-6630000D01*
D23*
X17910000Y-10240000D02*
X13680000Y-6010000D01*
X8675000Y-6025000D02*
X8690000Y-6010000D01*
D22*
X69340000Y-14070000D02*
X69300000Y-14110000D01*
D24*
X62870000Y-8390000D02*
X60580000Y-8390000D01*
D22*
X58040000Y-14110000D02*
X56800000Y-15350000D01*
D23*
X4889000Y-6025000D02*
X8675000Y-6025000D01*
D22*
X17910000Y-10240000D02*
X17910000Y-9000000D01*
X18290000Y-6630000D02*
X18290000Y-6620000D01*
%TO.N,/VDD_3.3V*%
X31870000Y-7760000D02*
X33060000Y-6570000D01*
X17905000Y-14995000D02*
X22420000Y-19510000D01*
X17905000Y-13245000D02*
X17905000Y-14995000D01*
X10970000Y-18180000D02*
X11130000Y-18340000D01*
X33060000Y-6570000D02*
X33060000Y-4640000D01*
X16790000Y-2230000D02*
X5770000Y-2230000D01*
X32480000Y-4060000D02*
X18620000Y-4060000D01*
X9830000Y-3410000D02*
X10970000Y-4550000D01*
X10970000Y-4550000D02*
X10970000Y-18180000D01*
X33060000Y-4640000D02*
X32480000Y-4060000D01*
X6960000Y-3410000D02*
X9830000Y-3410000D01*
X5770000Y-2230000D02*
X5780000Y-2230000D01*
X5780000Y-2230000D02*
X6960000Y-3410000D01*
X17905000Y-13245000D02*
X12000000Y-19150000D01*
X18620000Y-4060000D02*
X16790000Y-2230000D01*
X12000000Y-19150000D02*
X10660000Y-19150000D01*
D24*
%TO.N,Net-(U2-NRST)*%
X22420000Y-14270000D02*
X21105000Y-15585000D01*
D22*
%TO.N,/3.3V_Input*%
X65570000Y-16860000D02*
X60505000Y-21925000D01*
X60505000Y-21925000D02*
X60505000Y-22229000D01*
X62210000Y-6470000D02*
X57711500Y-6470000D01*
X64130000Y-8390000D02*
X62210000Y-6470000D01*
X64130000Y-13320000D02*
X64130000Y-9710000D01*
X57711500Y-6470000D02*
X56451500Y-7730000D01*
D24*
%TO.N,/_USART2_RX*%
X69828000Y-2680000D02*
X60490000Y-2680000D01*
X54590000Y-2680000D02*
X53530000Y-3740000D01*
X53530000Y-13524000D02*
X54080000Y-14074000D01*
X57220000Y-14074000D02*
X58484000Y-12810000D01*
X69834000Y-2674000D02*
X69828000Y-2680000D01*
X54080000Y-14074000D02*
X57220000Y-14074000D01*
X60490000Y-2680000D02*
X54590000Y-2680000D01*
X53530000Y-3740000D02*
X53530000Y-13524000D01*
%TO.N,/_USART2_TX*%
X63035000Y-935000D02*
X62990000Y-980000D01*
X51150000Y-16294000D02*
X51150000Y-2800000D01*
X58991500Y-16372500D02*
X58310000Y-17054000D01*
X58991500Y-15350000D02*
X58991500Y-16372500D01*
X63035000Y2206000D02*
X63035000Y-935000D01*
X51150000Y-2800000D02*
X52970000Y-980000D01*
X62990000Y-980000D02*
X69840000Y-980000D01*
X52970000Y-980000D02*
X62990000Y-980000D01*
X58310000Y-17054000D02*
X51910000Y-17054000D01*
X51910000Y-17054000D02*
X51150000Y-16294000D01*
D22*
%TO.N,/3.3V_Output*%
X74830000Y-10980000D02*
X74830000Y-1760500D01*
X63046000Y-22764000D02*
X74830000Y-10980000D01*
X74830000Y-1760500D02*
X77898500Y1308000D01*
D23*
%TO.N,/_VDD_5V*%
X57320000Y-3574000D02*
X56451500Y-4442500D01*
X56451500Y-4442500D02*
X56451500Y-5190000D01*
X70655000Y-2925000D02*
X70006000Y-3574000D01*
X70006000Y-3574000D02*
X57320000Y-3574000D01*
X70655000Y2206000D02*
X70655000Y-2925000D01*
D24*
%TO.N,/_JTAG_TMS{slash}SWDIO*%
X57711500Y-9010000D02*
X56451500Y-10270000D01*
X73640000Y-9010000D02*
X57711500Y-9010000D01*
%TO.N,/_JTAG_TCK{slash}SWCLK*%
X63490000Y-11570000D02*
X57691500Y-11570000D01*
X57691500Y-11570000D02*
X56451500Y-12810000D01*
%TO.N,/Download_SWDIO*%
X11980000Y-15280000D02*
X15410000Y-11850000D01*
X15410000Y-11850000D02*
X15410000Y-9530000D01*
X11980000Y-15290000D02*
X11980000Y-15280000D01*
%TO.N,/JTAG_nTRST*%
X20150000Y-8290000D02*
X27320000Y-8290000D01*
X27320000Y-8290000D02*
X29330000Y-10300000D01*
%TO.N,/JTAG_TCK{slash}SWCLK*%
X30580000Y-11550000D02*
X31870000Y-12840000D01*
X22450000Y-11550000D02*
X30580000Y-11550000D01*
X20300000Y-9400000D02*
X22450000Y-11550000D01*
D23*
%TO.N,/VDD_5V*%
X7120000Y-7930000D02*
X7110000Y-7940000D01*
X7110000Y-12730000D02*
X7090000Y-12750000D01*
X26120000Y-4800000D02*
X12210000Y-4800000D01*
X27830000Y-6510000D02*
X26120000Y-4800000D01*
X30580000Y-6510000D02*
X27830000Y-6510000D01*
X8160000Y-7930000D02*
X7120000Y-7930000D01*
X31870000Y-5220000D02*
X30580000Y-6510000D01*
X9760000Y-6330000D02*
X8160000Y-7930000D01*
X7110000Y-7940000D02*
X7110000Y-12730000D01*
X9760000Y-4810000D02*
X9760000Y-6330000D01*
%TD*%
%TA.AperFunction,Conductor*%
%TO.N,GND*%
G36*
X79979007Y-19399844D02*
G01*
X80056739Y-19520798D01*
X80165400Y-19614952D01*
X80296185Y-19674680D01*
X80305966Y-19676086D01*
X79677125Y-20304925D01*
X79753531Y-20358425D01*
X79797155Y-20413002D01*
X79804348Y-20482501D01*
X79772826Y-20544855D01*
X79753529Y-20561576D01*
X79677125Y-20615072D01*
X80305966Y-21243913D01*
X80296185Y-21245320D01*
X80165400Y-21305048D01*
X80056739Y-21399202D01*
X79979007Y-21520156D01*
X79955423Y-21600475D01*
X79323573Y-20968625D01*
X79323572Y-20968626D01*
X79273631Y-21039950D01*
X79219055Y-21083575D01*
X79149556Y-21090769D01*
X79087201Y-21059246D01*
X79068248Y-21036649D01*
X78974223Y-20892734D01*
X78974215Y-20892723D01*
X78821743Y-20727097D01*
X78821738Y-20727092D01*
X78644077Y-20588812D01*
X78644078Y-20588812D01*
X78644076Y-20588811D01*
X78607570Y-20569055D01*
X78557979Y-20519836D01*
X78542871Y-20451619D01*
X78567041Y-20386064D01*
X78607570Y-20350945D01*
X78607584Y-20350936D01*
X78644076Y-20331189D01*
X78821740Y-20192906D01*
X78942301Y-20061943D01*
X78974215Y-20027276D01*
X78974215Y-20027275D01*
X78974222Y-20027268D01*
X79068249Y-19883347D01*
X79121394Y-19837994D01*
X79190625Y-19828570D01*
X79253961Y-19858072D01*
X79273631Y-19880049D01*
X79323572Y-19951373D01*
X79323573Y-19951373D01*
X79955423Y-19319523D01*
X79979007Y-19399844D01*
G37*
%TD.AperFunction*%
%TA.AperFunction,Conductor*%
G36*
X79979007Y-16859844D02*
G01*
X80056739Y-16980798D01*
X80165400Y-17074952D01*
X80296185Y-17134680D01*
X80305966Y-17136086D01*
X79677125Y-17764925D01*
X79753531Y-17818425D01*
X79797155Y-17873002D01*
X79804348Y-17942501D01*
X79772826Y-18004855D01*
X79753529Y-18021576D01*
X79677125Y-18075072D01*
X80305966Y-18703913D01*
X80296185Y-18705320D01*
X80165400Y-18765048D01*
X80056739Y-18859202D01*
X79979007Y-18980156D01*
X79955423Y-19060475D01*
X79323573Y-18428625D01*
X79323572Y-18428626D01*
X79273631Y-18499950D01*
X79219055Y-18543575D01*
X79149556Y-18550769D01*
X79087201Y-18519246D01*
X79068248Y-18496649D01*
X78974223Y-18352734D01*
X78974215Y-18352723D01*
X78821743Y-18187097D01*
X78821738Y-18187092D01*
X78644077Y-18048812D01*
X78644078Y-18048812D01*
X78644076Y-18048811D01*
X78607570Y-18029055D01*
X78557979Y-17979836D01*
X78542871Y-17911619D01*
X78567041Y-17846064D01*
X78607570Y-17810945D01*
X78609331Y-17809992D01*
X78644076Y-17791189D01*
X78821740Y-17652906D01*
X78927818Y-17537676D01*
X78974215Y-17487276D01*
X78974215Y-17487275D01*
X78974222Y-17487268D01*
X79068249Y-17343347D01*
X79121394Y-17297994D01*
X79190625Y-17288570D01*
X79253961Y-17318072D01*
X79273631Y-17340049D01*
X79323572Y-17411373D01*
X79323573Y-17411373D01*
X79955423Y-16779523D01*
X79979007Y-16859844D01*
G37*
%TD.AperFunction*%
%TA.AperFunction,Conductor*%
G36*
X79979007Y-14319844D02*
G01*
X80056739Y-14440798D01*
X80165400Y-14534952D01*
X80296185Y-14594680D01*
X80305966Y-14596086D01*
X79677125Y-15224925D01*
X79753531Y-15278425D01*
X79797155Y-15333002D01*
X79804348Y-15402501D01*
X79772826Y-15464855D01*
X79753529Y-15481576D01*
X79677125Y-15535072D01*
X80305966Y-16163913D01*
X80296185Y-16165320D01*
X80165400Y-16225048D01*
X80056739Y-16319202D01*
X79979007Y-16440156D01*
X79955423Y-16520475D01*
X79323573Y-15888625D01*
X79323572Y-15888626D01*
X79273631Y-15959950D01*
X79219055Y-16003575D01*
X79149556Y-16010769D01*
X79087201Y-15979246D01*
X79068248Y-15956649D01*
X78994318Y-15843492D01*
X78974222Y-15812732D01*
X78974219Y-15812729D01*
X78974215Y-15812723D01*
X78821743Y-15647097D01*
X78821738Y-15647092D01*
X78644077Y-15508812D01*
X78644078Y-15508812D01*
X78644076Y-15508811D01*
X78607570Y-15489055D01*
X78557979Y-15439836D01*
X78542871Y-15371619D01*
X78567041Y-15306064D01*
X78607570Y-15270945D01*
X78607584Y-15270936D01*
X78644076Y-15251189D01*
X78821740Y-15112906D01*
X78921114Y-15004957D01*
X78974215Y-14947276D01*
X78974215Y-14947275D01*
X78974222Y-14947268D01*
X79068249Y-14803347D01*
X79121394Y-14757994D01*
X79190625Y-14748570D01*
X79253961Y-14778072D01*
X79273631Y-14800049D01*
X79323572Y-14871373D01*
X79323573Y-14871373D01*
X79955423Y-14239523D01*
X79979007Y-14319844D01*
G37*
%TD.AperFunction*%
%TA.AperFunction,Conductor*%
G36*
X62954151Y-1589030D02*
G01*
X62971648Y-1591334D01*
X62989999Y-1593750D01*
X62990000Y-1593750D01*
X62990001Y-1593750D01*
X63008352Y-1591334D01*
X63025848Y-1589030D01*
X63033946Y-1588500D01*
X69223889Y-1588500D01*
X69262100Y-1594534D01*
X69575849Y-1696163D01*
X69613429Y-1706988D01*
X69613002Y-1708469D01*
X69668686Y-1737328D01*
X69703490Y-1797912D01*
X69700015Y-1867696D01*
X69659365Y-1924522D01*
X69623880Y-1943928D01*
X69602139Y-1951536D01*
X69583963Y-1956384D01*
X69562804Y-1960338D01*
X69562785Y-1960343D01*
X69255027Y-2064908D01*
X69215136Y-2071500D01*
X61106112Y-2071500D01*
X61067901Y-2065466D01*
X60856344Y-1996939D01*
X60754149Y-1963836D01*
X60743419Y-1960745D01*
X60721808Y-1954519D01*
X60716465Y-1953477D01*
X60716540Y-1953090D01*
X60695933Y-1948463D01*
X60675515Y-1941319D01*
X60659850Y-1935838D01*
X60659848Y-1935837D01*
X60659843Y-1935836D01*
X60490004Y-1916701D01*
X60489996Y-1916701D01*
X60320151Y-1935837D01*
X60320150Y-1935837D01*
X60263709Y-1955586D01*
X60243800Y-1960745D01*
X60225857Y-1963834D01*
X60225850Y-1963836D01*
X59912098Y-2065466D01*
X59873887Y-2071500D01*
X54633945Y-2071500D01*
X54625846Y-2070969D01*
X54590000Y-2066250D01*
X54589996Y-2066250D01*
X54553307Y-2071080D01*
X54553292Y-2071082D01*
X54550117Y-2071500D01*
X54550115Y-2071500D01*
X54431150Y-2087162D01*
X54431149Y-2087162D01*
X54283124Y-2148476D01*
X54281426Y-2149611D01*
X54279894Y-2150955D01*
X54189890Y-2220017D01*
X54189884Y-2220021D01*
X54187928Y-2221523D01*
X54187925Y-2221525D01*
X54176881Y-2230000D01*
X54156010Y-2246015D01*
X54133996Y-2274703D01*
X54128645Y-2280805D01*
X53130801Y-3278649D01*
X53124698Y-3284000D01*
X53096013Y-3306012D01*
X53071522Y-3337929D01*
X52998476Y-3433123D01*
X52998474Y-3433125D01*
X52948985Y-3552606D01*
X52937163Y-3581146D01*
X52937162Y-3581150D01*
X52920957Y-3704241D01*
X52920955Y-3704254D01*
X52916250Y-3740000D01*
X52920969Y-3775843D01*
X52921500Y-3783945D01*
X52921500Y-13480054D01*
X52920969Y-13488151D01*
X52918688Y-13505480D01*
X52916250Y-13523999D01*
X52916250Y-13524001D01*
X52921210Y-13561678D01*
X52921212Y-13561699D01*
X52931714Y-13641469D01*
X52937161Y-13682849D01*
X52937163Y-13682854D01*
X52998473Y-13830871D01*
X52998476Y-13830877D01*
X53032083Y-13874673D01*
X53071523Y-13926072D01*
X53071525Y-13926074D01*
X53096013Y-13957987D01*
X53114898Y-13972478D01*
X53124698Y-13979998D01*
X53130794Y-13985343D01*
X53618655Y-14473204D01*
X53623996Y-14479294D01*
X53625365Y-14481078D01*
X53646010Y-14507984D01*
X53646011Y-14507985D01*
X53646013Y-14507987D01*
X53657805Y-14517035D01*
X53676284Y-14531215D01*
X53676309Y-14531235D01*
X53691291Y-14542731D01*
X53704171Y-14552614D01*
X53773125Y-14605524D01*
X53773128Y-14605525D01*
X53773129Y-14605526D01*
X53804756Y-14618626D01*
X53921150Y-14666838D01*
X54040115Y-14682500D01*
X54040120Y-14682500D01*
X54041905Y-14682735D01*
X54041923Y-14682737D01*
X54065369Y-14685823D01*
X54079999Y-14687750D01*
X54080000Y-14687750D01*
X54080001Y-14687750D01*
X54090472Y-14686371D01*
X54115848Y-14683030D01*
X54123946Y-14682500D01*
X55092548Y-14682500D01*
X55159587Y-14702185D01*
X55205342Y-14754989D01*
X55215286Y-14824147D01*
X55204930Y-14858904D01*
X55178071Y-14916502D01*
X55178066Y-14916516D01*
X55116932Y-15144673D01*
X55116930Y-15144684D01*
X55096343Y-15379998D01*
X55096343Y-15380001D01*
X55116930Y-15615315D01*
X55116932Y-15615326D01*
X55178066Y-15843483D01*
X55178070Y-15843492D01*
X55277900Y-16057579D01*
X55277904Y-16057585D01*
X55412899Y-16250376D01*
X55435227Y-16316582D01*
X55418217Y-16384349D01*
X55367270Y-16432163D01*
X55311325Y-16445500D01*
X52213411Y-16445500D01*
X52146372Y-16425815D01*
X52125730Y-16409181D01*
X51794819Y-16078270D01*
X51761334Y-16016947D01*
X51758500Y-15990589D01*
X51758500Y-3103411D01*
X51778185Y-3036372D01*
X51794819Y-3015730D01*
X53185730Y-1624819D01*
X53247053Y-1591334D01*
X53273411Y-1588500D01*
X62946054Y-1588500D01*
X62954151Y-1589030D01*
G37*
%TD.AperFunction*%
%TA.AperFunction,Conductor*%
G36*
X79979007Y-11779844D02*
G01*
X80056739Y-11900798D01*
X80165400Y-11994952D01*
X80296185Y-12054680D01*
X80305966Y-12056086D01*
X79677125Y-12684925D01*
X79753531Y-12738425D01*
X79797155Y-12793002D01*
X79804348Y-12862501D01*
X79772826Y-12924855D01*
X79753529Y-12941576D01*
X79677125Y-12995072D01*
X80305966Y-13623913D01*
X80296185Y-13625320D01*
X80165400Y-13685048D01*
X80056739Y-13779202D01*
X79979007Y-13900156D01*
X79955423Y-13980475D01*
X79323573Y-13348625D01*
X79323572Y-13348626D01*
X79273631Y-13419950D01*
X79219055Y-13463575D01*
X79149556Y-13470769D01*
X79087201Y-13439246D01*
X79068248Y-13416649D01*
X78982297Y-13285092D01*
X78974222Y-13272732D01*
X78974219Y-13272729D01*
X78974215Y-13272723D01*
X78821743Y-13107097D01*
X78821738Y-13107092D01*
X78677816Y-12995072D01*
X78644076Y-12968811D01*
X78607570Y-12949055D01*
X78557979Y-12899836D01*
X78542871Y-12831619D01*
X78567041Y-12766064D01*
X78607570Y-12730945D01*
X78607584Y-12730936D01*
X78644076Y-12711189D01*
X78821740Y-12572906D01*
X78958801Y-12424020D01*
X78974215Y-12407276D01*
X78974215Y-12407275D01*
X78974222Y-12407268D01*
X79068249Y-12263347D01*
X79121394Y-12217994D01*
X79190625Y-12208570D01*
X79253961Y-12238072D01*
X79273631Y-12260049D01*
X79323572Y-12331373D01*
X79323573Y-12331373D01*
X79955423Y-11699523D01*
X79979007Y-11779844D01*
G37*
%TD.AperFunction*%
%TA.AperFunction,Conductor*%
G36*
X56274756Y-3308185D02*
G01*
X56320511Y-3360989D01*
X56330455Y-3430147D01*
X56301430Y-3493703D01*
X56292385Y-3503094D01*
X55531207Y-4214477D01*
X55529736Y-4215733D01*
X55527656Y-4217649D01*
X55525641Y-4219679D01*
X55504950Y-4239017D01*
X55501063Y-4242796D01*
X55501061Y-4242798D01*
X55459576Y-4288276D01*
X55455830Y-4293328D01*
X55455683Y-4293219D01*
X55445079Y-4307450D01*
X55375773Y-4382737D01*
X55252639Y-4571209D01*
X55162203Y-4777385D01*
X55106936Y-4995628D01*
X55106934Y-4995640D01*
X55088344Y-5219994D01*
X55088344Y-5220005D01*
X55106934Y-5444359D01*
X55106936Y-5444371D01*
X55162203Y-5662614D01*
X55252640Y-5868792D01*
X55375776Y-6057265D01*
X55375784Y-6057276D01*
X55528256Y-6222902D01*
X55528260Y-6222906D01*
X55705924Y-6361189D01*
X55705929Y-6361191D01*
X55705931Y-6361193D01*
X55742430Y-6380946D01*
X55792020Y-6430165D01*
X55807128Y-6498382D01*
X55782957Y-6563937D01*
X55742430Y-6599054D01*
X55705931Y-6618806D01*
X55705922Y-6618812D01*
X55528261Y-6757092D01*
X55528256Y-6757097D01*
X55375784Y-6922723D01*
X55375776Y-6922734D01*
X55252640Y-7111207D01*
X55162203Y-7317385D01*
X55106936Y-7535628D01*
X55106934Y-7535640D01*
X55088344Y-7759994D01*
X55088344Y-7760005D01*
X55106934Y-7984359D01*
X55106936Y-7984371D01*
X55162203Y-8202614D01*
X55252640Y-8408792D01*
X55375776Y-8597265D01*
X55375784Y-8597276D01*
X55528256Y-8762902D01*
X55528261Y-8762907D01*
X55553334Y-8782422D01*
X55705924Y-8901189D01*
X55705929Y-8901191D01*
X55705931Y-8901193D01*
X55742430Y-8920946D01*
X55792020Y-8970165D01*
X55807128Y-9038382D01*
X55782957Y-9103937D01*
X55742430Y-9139054D01*
X55705931Y-9158806D01*
X55705922Y-9158812D01*
X55528261Y-9297092D01*
X55528256Y-9297097D01*
X55375784Y-9462723D01*
X55375776Y-9462734D01*
X55252640Y-9651207D01*
X55162203Y-9857385D01*
X55106936Y-10075628D01*
X55106934Y-10075640D01*
X55088344Y-10299994D01*
X55088344Y-10300005D01*
X55106934Y-10524359D01*
X55106936Y-10524371D01*
X55162203Y-10742614D01*
X55252640Y-10948792D01*
X55375776Y-11137265D01*
X55375784Y-11137276D01*
X55528256Y-11302902D01*
X55528260Y-11302906D01*
X55705924Y-11441189D01*
X55705929Y-11441191D01*
X55705931Y-11441193D01*
X55742430Y-11460946D01*
X55792020Y-11510165D01*
X55807128Y-11578382D01*
X55782957Y-11643937D01*
X55742430Y-11679054D01*
X55705931Y-11698806D01*
X55705922Y-11698812D01*
X55528261Y-11837092D01*
X55528256Y-11837097D01*
X55375784Y-12002723D01*
X55375776Y-12002734D01*
X55252640Y-12191207D01*
X55162203Y-12397385D01*
X55106936Y-12615628D01*
X55106934Y-12615640D01*
X55088344Y-12839994D01*
X55088344Y-12840005D01*
X55106934Y-13064359D01*
X55106936Y-13064371D01*
X55162203Y-13282614D01*
X55162205Y-13282618D01*
X55166185Y-13291693D01*
X55175086Y-13360994D01*
X55145107Y-13424105D01*
X55085767Y-13460990D01*
X55052628Y-13465500D01*
X54383411Y-13465500D01*
X54316372Y-13445815D01*
X54295730Y-13429181D01*
X54174819Y-13308270D01*
X54141334Y-13246947D01*
X54138500Y-13220589D01*
X54138500Y-4043411D01*
X54158185Y-3976372D01*
X54174819Y-3955730D01*
X54805730Y-3324819D01*
X54867053Y-3291334D01*
X54893411Y-3288500D01*
X56207717Y-3288500D01*
X56274756Y-3308185D01*
G37*
%TD.AperFunction*%
%TA.AperFunction,Conductor*%
G36*
X79979007Y-9239844D02*
G01*
X80056739Y-9360798D01*
X80165400Y-9454952D01*
X80296185Y-9514680D01*
X80305966Y-9516086D01*
X79677125Y-10144925D01*
X79753531Y-10198425D01*
X79797155Y-10253002D01*
X79804348Y-10322501D01*
X79772826Y-10384855D01*
X79753529Y-10401576D01*
X79677125Y-10455072D01*
X80305966Y-11083913D01*
X80296185Y-11085320D01*
X80165400Y-11145048D01*
X80056739Y-11239202D01*
X79979007Y-11360156D01*
X79955423Y-11440475D01*
X79323573Y-10808625D01*
X79323572Y-10808626D01*
X79273631Y-10879950D01*
X79219055Y-10923575D01*
X79149556Y-10930769D01*
X79087201Y-10899246D01*
X79068248Y-10876649D01*
X78993550Y-10762316D01*
X78974222Y-10732732D01*
X78974219Y-10732729D01*
X78974215Y-10732723D01*
X78821743Y-10567097D01*
X78821738Y-10567092D01*
X78644077Y-10428812D01*
X78644078Y-10428812D01*
X78644076Y-10428811D01*
X78607570Y-10409055D01*
X78557979Y-10359836D01*
X78542871Y-10291619D01*
X78567041Y-10226064D01*
X78607570Y-10190945D01*
X78607584Y-10190936D01*
X78644076Y-10171189D01*
X78821740Y-10032906D01*
X78974222Y-9867268D01*
X79068249Y-9723347D01*
X79121394Y-9677994D01*
X79190625Y-9668570D01*
X79253961Y-9698072D01*
X79273631Y-9720049D01*
X79323572Y-9791373D01*
X79323573Y-9791373D01*
X79955423Y-9159523D01*
X79979007Y-9239844D01*
G37*
%TD.AperFunction*%
%TA.AperFunction,Conductor*%
G36*
X63212543Y-9638185D02*
G01*
X63258298Y-9690989D01*
X63268824Y-9729535D01*
X63285635Y-9889475D01*
X63309679Y-9963478D01*
X63311794Y-9969985D01*
X63316386Y-9989227D01*
X63318755Y-10004445D01*
X63466064Y-10485446D01*
X63471500Y-10521757D01*
X63471500Y-10697971D01*
X63451815Y-10765010D01*
X63399011Y-10810765D01*
X63361385Y-10821191D01*
X63320150Y-10825837D01*
X63263709Y-10845586D01*
X63243800Y-10850745D01*
X63225857Y-10853834D01*
X63225850Y-10853836D01*
X62912098Y-10955466D01*
X62873887Y-10961500D01*
X60374581Y-10961500D01*
X60307542Y-10941815D01*
X60261787Y-10889011D01*
X60251843Y-10819853D01*
X60261025Y-10787691D01*
X60270973Y-10765010D01*
X60280796Y-10742616D01*
X60336064Y-10524368D01*
X60336065Y-10524359D01*
X60354656Y-10300005D01*
X60354656Y-10299994D01*
X60336065Y-10075640D01*
X60336063Y-10075628D01*
X60311702Y-9979429D01*
X60280796Y-9857384D01*
X60252251Y-9792309D01*
X60243349Y-9723009D01*
X60273327Y-9659897D01*
X60332666Y-9623011D01*
X60365808Y-9618500D01*
X63145504Y-9618500D01*
X63212543Y-9638185D01*
G37*
%TD.AperFunction*%
%TA.AperFunction,Conductor*%
G36*
X79979007Y-6699844D02*
G01*
X80056739Y-6820798D01*
X80165400Y-6914952D01*
X80296185Y-6974680D01*
X80305966Y-6976086D01*
X79677125Y-7604925D01*
X79753531Y-7658425D01*
X79797155Y-7713002D01*
X79804348Y-7782501D01*
X79772826Y-7844855D01*
X79753529Y-7861576D01*
X79677125Y-7915072D01*
X80305966Y-8543913D01*
X80296185Y-8545320D01*
X80165400Y-8605048D01*
X80056739Y-8699202D01*
X79979007Y-8820156D01*
X79955423Y-8900475D01*
X79323573Y-8268625D01*
X79323572Y-8268626D01*
X79273631Y-8339950D01*
X79219055Y-8383575D01*
X79149556Y-8390769D01*
X79087201Y-8359246D01*
X79068248Y-8336649D01*
X79009420Y-8246606D01*
X78974222Y-8192732D01*
X78974219Y-8192729D01*
X78974215Y-8192723D01*
X78821743Y-8027097D01*
X78821738Y-8027092D01*
X78662586Y-7903218D01*
X78644076Y-7888811D01*
X78607570Y-7869055D01*
X78557979Y-7819836D01*
X78542871Y-7751619D01*
X78567041Y-7686064D01*
X78607570Y-7650945D01*
X78607584Y-7650936D01*
X78644076Y-7631189D01*
X78821740Y-7492906D01*
X78952954Y-7350371D01*
X78974215Y-7327276D01*
X78974215Y-7327275D01*
X78974222Y-7327268D01*
X79068249Y-7183347D01*
X79121394Y-7137994D01*
X79190625Y-7128570D01*
X79253961Y-7158072D01*
X79273631Y-7180049D01*
X79323572Y-7251373D01*
X79323573Y-7251373D01*
X79955423Y-6619523D01*
X79979007Y-6699844D01*
G37*
%TD.AperFunction*%
%TA.AperFunction,Conductor*%
G36*
X61952917Y-7148185D02*
G01*
X61973559Y-7164819D01*
X62998559Y-8189819D01*
X63032044Y-8251142D01*
X63027060Y-8320834D01*
X62985188Y-8376767D01*
X62919724Y-8401184D01*
X62910878Y-8401500D01*
X60383353Y-8401500D01*
X60316314Y-8381815D01*
X60270559Y-8329011D01*
X60260615Y-8259853D01*
X60269795Y-8227695D01*
X60280796Y-8202616D01*
X60336064Y-7984368D01*
X60336799Y-7975500D01*
X60354656Y-7760005D01*
X60354656Y-7759994D01*
X60336065Y-7535640D01*
X60336063Y-7535628D01*
X60333802Y-7526701D01*
X60280796Y-7317384D01*
X60274182Y-7302307D01*
X60265282Y-7233008D01*
X60295259Y-7169896D01*
X60354599Y-7133011D01*
X60387740Y-7128500D01*
X61885878Y-7128500D01*
X61952917Y-7148185D01*
G37*
%TD.AperFunction*%
%TA.AperFunction,Conductor*%
G36*
X79979007Y-4159844D02*
G01*
X80056739Y-4280798D01*
X80165400Y-4374952D01*
X80296185Y-4434680D01*
X80305966Y-4436086D01*
X79677125Y-5064925D01*
X79753531Y-5118425D01*
X79797155Y-5173002D01*
X79804348Y-5242501D01*
X79772826Y-5304855D01*
X79753529Y-5321576D01*
X79677125Y-5375072D01*
X80305966Y-6003913D01*
X80296185Y-6005320D01*
X80165400Y-6065048D01*
X80056739Y-6159202D01*
X79979007Y-6280156D01*
X79955423Y-6360475D01*
X79323573Y-5728625D01*
X79323572Y-5728626D01*
X79273631Y-5799950D01*
X79219055Y-5843575D01*
X79149556Y-5850769D01*
X79087201Y-5819246D01*
X79068248Y-5796649D01*
X78998454Y-5689822D01*
X78974222Y-5652732D01*
X78974219Y-5652729D01*
X78974215Y-5652723D01*
X78821743Y-5487097D01*
X78821738Y-5487092D01*
X78644077Y-5348812D01*
X78644078Y-5348812D01*
X78644076Y-5348811D01*
X78607570Y-5329055D01*
X78557979Y-5279836D01*
X78542871Y-5211619D01*
X78567041Y-5146064D01*
X78607570Y-5110945D01*
X78607584Y-5110936D01*
X78644076Y-5091189D01*
X78821740Y-4952906D01*
X78974222Y-4787268D01*
X79068249Y-4643347D01*
X79121394Y-4597994D01*
X79190625Y-4588570D01*
X79253961Y-4618072D01*
X79273631Y-4640049D01*
X79323572Y-4711373D01*
X79323573Y-4711373D01*
X79955423Y-4079523D01*
X79979007Y-4159844D01*
G37*
%TD.AperFunction*%
%TA.AperFunction,Conductor*%
G36*
X79979007Y-1619844D02*
G01*
X80056739Y-1740798D01*
X80165400Y-1834952D01*
X80296185Y-1894680D01*
X80305966Y-1896086D01*
X79677125Y-2524925D01*
X79753531Y-2578425D01*
X79797155Y-2633002D01*
X79804348Y-2702501D01*
X79772826Y-2764855D01*
X79753529Y-2781576D01*
X79677125Y-2835072D01*
X80305966Y-3463913D01*
X80296185Y-3465320D01*
X80165400Y-3525048D01*
X80056739Y-3619202D01*
X79979007Y-3740156D01*
X79955423Y-3820475D01*
X79323573Y-3188625D01*
X79323572Y-3188626D01*
X79273631Y-3259950D01*
X79219055Y-3303575D01*
X79149556Y-3310769D01*
X79087201Y-3279246D01*
X79068248Y-3256649D01*
X78979461Y-3120751D01*
X78974222Y-3112732D01*
X78974219Y-3112729D01*
X78974215Y-3112723D01*
X78821743Y-2947097D01*
X78821738Y-2947092D01*
X78644077Y-2808812D01*
X78644078Y-2808812D01*
X78644076Y-2808811D01*
X78607570Y-2789055D01*
X78557979Y-2739836D01*
X78542871Y-2671619D01*
X78567041Y-2606064D01*
X78607570Y-2570945D01*
X78607584Y-2570936D01*
X78644076Y-2551189D01*
X78821740Y-2412906D01*
X78974222Y-2247268D01*
X79068249Y-2103347D01*
X79121394Y-2057994D01*
X79190625Y-2048570D01*
X79253961Y-2078072D01*
X79273631Y-2100049D01*
X79323572Y-2171373D01*
X79323573Y-2171373D01*
X79955423Y-1539523D01*
X79979007Y-1619844D01*
G37*
%TD.AperFunction*%
%TA.AperFunction,Conductor*%
G36*
X79363801Y279622D02*
G01*
X79399681Y252645D01*
X79515260Y127094D01*
X79692924Y-11189D01*
X79736195Y-34606D01*
X79785786Y-83825D01*
X79800894Y-152042D01*
X79776724Y-217597D01*
X79748301Y-245236D01*
X79677126Y-295072D01*
X79677125Y-295072D01*
X80305966Y-923913D01*
X80296185Y-925320D01*
X80165400Y-985048D01*
X80056739Y-1079202D01*
X79979007Y-1200156D01*
X79955423Y-1280475D01*
X79323573Y-648625D01*
X79323572Y-648626D01*
X79273631Y-719950D01*
X79219055Y-763575D01*
X79149556Y-770769D01*
X79087201Y-739246D01*
X79068248Y-716649D01*
X78977615Y-577926D01*
X78974222Y-572732D01*
X78974219Y-572729D01*
X78974215Y-572723D01*
X78821743Y-407097D01*
X78821741Y-407096D01*
X78821740Y-407094D01*
X78796132Y-387162D01*
X78783981Y-377704D01*
X78743169Y-320994D01*
X78739496Y-251220D01*
X78774128Y-190538D01*
X78815013Y-165848D01*
X78814695Y-165165D01*
X78821065Y-162194D01*
X78821147Y-162144D01*
X78821238Y-162115D01*
X78972152Y-69030D01*
X79097530Y56348D01*
X79190615Y207262D01*
X79190746Y207658D01*
X79190906Y207890D01*
X79193665Y213805D01*
X79194675Y213334D01*
X79230511Y265102D01*
X79295024Y291931D01*
X79363801Y279622D01*
G37*
%TD.AperFunction*%
%TA.AperFunction,Conductor*%
G36*
X68365000Y875367D02*
G01*
X68578483Y932567D01*
X68578492Y932571D01*
X68792578Y1032400D01*
X68986082Y1167895D01*
X69153108Y1334921D01*
X69263072Y1491965D01*
X69317649Y1535590D01*
X69387147Y1542784D01*
X69449502Y1511261D01*
X69480196Y1465835D01*
X69888049Y418415D01*
X69896500Y373422D01*
X69896500Y-99521D01*
X69876815Y-166560D01*
X69824011Y-212315D01*
X69786384Y-222741D01*
X69670150Y-235837D01*
X69613709Y-255586D01*
X69593800Y-260745D01*
X69575857Y-263834D01*
X69575850Y-263836D01*
X69262098Y-365466D01*
X69223887Y-371500D01*
X63767500Y-371500D01*
X63700461Y-351815D01*
X63654706Y-299011D01*
X63643500Y-247500D01*
X63643500Y345881D01*
X63656524Y401202D01*
X64198341Y1488101D01*
X64245866Y1539314D01*
X64313537Y1556705D01*
X64379868Y1534750D01*
X64413124Y1500599D01*
X64499276Y1368735D01*
X64499284Y1368724D01*
X64644373Y1211118D01*
X64651760Y1203094D01*
X64829424Y1064811D01*
X64829425Y1064811D01*
X64829427Y1064809D01*
X64889314Y1032400D01*
X65027426Y957658D01*
X65240365Y884556D01*
X65462431Y847500D01*
X65687569Y847500D01*
X65909635Y884556D01*
X66122574Y957658D01*
X66320576Y1064811D01*
X66498240Y1203094D01*
X66597614Y1311043D01*
X66650715Y1368724D01*
X66650715Y1368725D01*
X66650722Y1368732D01*
X66744749Y1512653D01*
X66797894Y1558006D01*
X66867125Y1567430D01*
X66930461Y1537928D01*
X66950130Y1515952D01*
X67076890Y1334922D01*
X67243917Y1167895D01*
X67437421Y1032400D01*
X67651507Y932571D01*
X67651516Y932567D01*
X67865000Y875366D01*
X67865000Y1770499D01*
X67972685Y1721320D01*
X68079237Y1706000D01*
X68150763Y1706000D01*
X68257315Y1721320D01*
X68365000Y1770499D01*
X68365000Y875367D01*
G37*
%TD.AperFunction*%
%TA.AperFunction,Conductor*%
G36*
X49531420Y5014001D02*
G01*
X49531420Y5014002D01*
X49531423Y5014001D01*
X49531425Y5014002D01*
X49531584Y5014026D01*
X49550646Y5015500D01*
X87449164Y5015500D01*
X87466694Y5014255D01*
X87471092Y5013628D01*
X87471097Y5013626D01*
X87503769Y5015409D01*
X87507146Y5015500D01*
X87525207Y5015500D01*
X87710350Y5011645D01*
X87728919Y5009855D01*
X87916253Y4977419D01*
X87934344Y4972862D01*
X88114688Y4912684D01*
X88131882Y4905468D01*
X88260248Y4839828D01*
X88301159Y4818908D01*
X88317086Y4809187D01*
X88471452Y4698211D01*
X88485739Y4686211D01*
X88621706Y4553329D01*
X88634032Y4539319D01*
X88748517Y4387542D01*
X88758601Y4371842D01*
X88849016Y4204604D01*
X88856630Y4187569D01*
X88920927Y4008657D01*
X88925899Y3990673D01*
X88962624Y3804132D01*
X88964840Y3785603D01*
X88973500Y3587833D01*
X88973500Y3583155D01*
X88972268Y3544159D01*
X88973500Y3529255D01*
X88973500Y-24146813D01*
X88971848Y-24166986D01*
X88939222Y-24364860D01*
X88934895Y-24382726D01*
X88871584Y-24579155D01*
X88864664Y-24596185D01*
X88773010Y-24781097D01*
X88763648Y-24796916D01*
X88645667Y-24966244D01*
X88634069Y-24980506D01*
X88492342Y-25130541D01*
X88478764Y-25142931D01*
X88316426Y-25270356D01*
X88301165Y-25280603D01*
X88121766Y-25382633D01*
X88105158Y-25390511D01*
X87912654Y-25464896D01*
X87895064Y-25470233D01*
X87693667Y-25515345D01*
X87675480Y-25518022D01*
X87463089Y-25533334D01*
X87458493Y-25533495D01*
X87409210Y-25533386D01*
X87408049Y-25533500D01*
X49510714Y-25533500D01*
X49492554Y-25532163D01*
X49489937Y-25531775D01*
X49456572Y-25533424D01*
X49453512Y-25533500D01*
X49439028Y-25533500D01*
X49249424Y-25529323D01*
X49231811Y-25527673D01*
X49042548Y-25496195D01*
X49025348Y-25492055D01*
X48842493Y-25433965D01*
X48826058Y-25427419D01*
X48653326Y-25343897D01*
X48637989Y-25335080D01*
X48478903Y-25227829D01*
X48464978Y-25216919D01*
X48322773Y-25088122D01*
X48310544Y-25075344D01*
X48188111Y-24927616D01*
X48177829Y-24913233D01*
X48106634Y-24796916D01*
X48077661Y-24749579D01*
X48069528Y-24733874D01*
X48006707Y-24587927D01*
X47993672Y-24557644D01*
X47987856Y-24540938D01*
X47937850Y-24355703D01*
X47934472Y-24338357D01*
X47911366Y-24148143D01*
X47910953Y-24144742D01*
X47910500Y-24137258D01*
X47910500Y-22820000D01*
X55030526Y-22820000D01*
X55050391Y-23072406D01*
X55109495Y-23318593D01*
X55206383Y-23552502D01*
X55338668Y-23768370D01*
X55338669Y-23768372D01*
X55338670Y-23768374D01*
X55338672Y-23768376D01*
X55503102Y-23960898D01*
X55695624Y-24125328D01*
X55695626Y-24125329D01*
X55695627Y-24125330D01*
X55695629Y-24125331D01*
X55911497Y-24257616D01*
X56145406Y-24354504D01*
X56145407Y-24354504D01*
X56145409Y-24354505D01*
X56391597Y-24413609D01*
X56644000Y-24433474D01*
X56896403Y-24413609D01*
X57142591Y-24354505D01*
X57376502Y-24257616D01*
X57592376Y-24125328D01*
X57784898Y-23960898D01*
X57949328Y-23768376D01*
X58081616Y-23552502D01*
X58178505Y-23318591D01*
X58237609Y-23072403D01*
X58257474Y-22820000D01*
X58237609Y-22567597D01*
X58178505Y-22321409D01*
X58178495Y-22321384D01*
X58081616Y-22087497D01*
X57949331Y-21871629D01*
X57949330Y-21871627D01*
X57949329Y-21871626D01*
X57949328Y-21871624D01*
X57784898Y-21679102D01*
X57592376Y-21514672D01*
X57592374Y-21514670D01*
X57592372Y-21514669D01*
X57592370Y-21514668D01*
X57376502Y-21382383D01*
X57142593Y-21285495D01*
X56896406Y-21226391D01*
X56644000Y-21206526D01*
X56391593Y-21226391D01*
X56145406Y-21285495D01*
X55911497Y-21382383D01*
X55695629Y-21514668D01*
X55695627Y-21514669D01*
X55503102Y-21679102D01*
X55338669Y-21871627D01*
X55338668Y-21871629D01*
X55206383Y-22087497D01*
X55109495Y-22321406D01*
X55050391Y-22567593D01*
X55030526Y-22820000D01*
X47910500Y-22820000D01*
X47910500Y-16293998D01*
X50536250Y-16293998D01*
X50541021Y-16330248D01*
X50541023Y-16330263D01*
X50553579Y-16425633D01*
X50557161Y-16452847D01*
X50557163Y-16452854D01*
X50618473Y-16600871D01*
X50618476Y-16600877D01*
X50639552Y-16628343D01*
X50691523Y-16696072D01*
X50691525Y-16696074D01*
X50691526Y-16696075D01*
X50716012Y-16727986D01*
X50744698Y-16749998D01*
X50750794Y-16755343D01*
X51448655Y-17453204D01*
X51453996Y-17459294D01*
X51462022Y-17469754D01*
X51476012Y-17487987D01*
X51507925Y-17512475D01*
X51570180Y-17560244D01*
X51603125Y-17585524D01*
X51603127Y-17585524D01*
X51603129Y-17585526D01*
X51670011Y-17613229D01*
X51751150Y-17646838D01*
X51870115Y-17662500D01*
X51870120Y-17662500D01*
X51871905Y-17662735D01*
X51871923Y-17662737D01*
X51895369Y-17665823D01*
X51909999Y-17667750D01*
X51910000Y-17667750D01*
X51910001Y-17667750D01*
X51920472Y-17666371D01*
X51945848Y-17663030D01*
X51953946Y-17662500D01*
X58266054Y-17662500D01*
X58274151Y-17663030D01*
X58299527Y-17666371D01*
X58309999Y-17667750D01*
X58310000Y-17667750D01*
X58310001Y-17667750D01*
X58345846Y-17663031D01*
X58347961Y-17662752D01*
X58347974Y-17662751D01*
X58349881Y-17662500D01*
X58349885Y-17662500D01*
X58431002Y-17651820D01*
X58449457Y-17649391D01*
X58468851Y-17646838D01*
X58489961Y-17638094D01*
X58616876Y-17585524D01*
X58712072Y-17512477D01*
X58712073Y-17512475D01*
X58720164Y-17506267D01*
X58720171Y-17506261D01*
X58743983Y-17487990D01*
X58743982Y-17487990D01*
X58743987Y-17487987D01*
X58766010Y-17459285D01*
X58771338Y-17453209D01*
X58860982Y-17363565D01*
X58878439Y-17349049D01*
X59802394Y-16714330D01*
X59833589Y-16698838D01*
X59914238Y-16672115D01*
X60065152Y-16579030D01*
X60190530Y-16453652D01*
X60283615Y-16302738D01*
X60339387Y-16134426D01*
X60350000Y-16030545D01*
X60349999Y-14729456D01*
X60339387Y-14625574D01*
X60283615Y-14457262D01*
X60190530Y-14306348D01*
X60065152Y-14180970D01*
X59934123Y-14100150D01*
X59914240Y-14087886D01*
X59914230Y-14087882D01*
X59914136Y-14087851D01*
X59914079Y-14087812D01*
X59907695Y-14084835D01*
X59908203Y-14083743D01*
X59856693Y-14048076D01*
X59829872Y-13983559D01*
X59842190Y-13914784D01*
X59876981Y-13872295D01*
X59914740Y-13842906D01*
X60062080Y-13682854D01*
X60067215Y-13677276D01*
X60067217Y-13677273D01*
X60067222Y-13677268D01*
X60190360Y-13488791D01*
X60280796Y-13282616D01*
X60336064Y-13064368D01*
X60336469Y-13059484D01*
X60354656Y-12840005D01*
X60354656Y-12839994D01*
X60336065Y-12615640D01*
X60336063Y-12615628D01*
X60322103Y-12560500D01*
X60280796Y-12397384D01*
X60269979Y-12372723D01*
X60261025Y-12352309D01*
X60252122Y-12283009D01*
X60282100Y-12219897D01*
X60341440Y-12183011D01*
X60374581Y-12178500D01*
X62873889Y-12178500D01*
X62912100Y-12184534D01*
X63141334Y-12258787D01*
X63225849Y-12286163D01*
X63258194Y-12295480D01*
X63258207Y-12295481D01*
X63263540Y-12296522D01*
X63263463Y-12296913D01*
X63284064Y-12301534D01*
X63320150Y-12314162D01*
X63320154Y-12314162D01*
X63320156Y-12314163D01*
X63320153Y-12314163D01*
X63361382Y-12318808D01*
X63425796Y-12345874D01*
X63465352Y-12403468D01*
X63471500Y-12442028D01*
X63471500Y-12508241D01*
X63466064Y-12544552D01*
X63318756Y-13025553D01*
X63310862Y-13054282D01*
X63309895Y-13059532D01*
X63309639Y-13059484D01*
X63305489Y-13079419D01*
X63285635Y-13140523D01*
X63285635Y-13140524D01*
X63266771Y-13320000D01*
X63285635Y-13499476D01*
X63340191Y-13667385D01*
X63341401Y-13671107D01*
X63431633Y-13827393D01*
X63445601Y-13842906D01*
X63552381Y-13961499D01*
X63552384Y-13961501D01*
X63552387Y-13961504D01*
X63698385Y-14067578D01*
X63863242Y-14140978D01*
X63863248Y-14140980D01*
X64039768Y-14178500D01*
X64039769Y-14178500D01*
X64220231Y-14178500D01*
X64220232Y-14178500D01*
X64396752Y-14140980D01*
X64396754Y-14140978D01*
X64396757Y-14140978D01*
X64488457Y-14100150D01*
X64561615Y-14067578D01*
X64707613Y-13961504D01*
X64721252Y-13946357D01*
X64749680Y-13914784D01*
X64828367Y-13827393D01*
X64918599Y-13671107D01*
X64974365Y-13499475D01*
X64993229Y-13320000D01*
X64974365Y-13140525D01*
X64949996Y-13065525D01*
X64948202Y-13060003D01*
X64943608Y-13040751D01*
X64941244Y-13025562D01*
X64941243Y-13025553D01*
X64793936Y-12544554D01*
X64788500Y-12508243D01*
X64788500Y-10521755D01*
X64793936Y-10485444D01*
X64814001Y-10419928D01*
X64941243Y-10004446D01*
X64949137Y-9975719D01*
X64949138Y-9975707D01*
X64950102Y-9970480D01*
X64950358Y-9970527D01*
X64954507Y-9950590D01*
X64974365Y-9889475D01*
X64991175Y-9729536D01*
X65017760Y-9664923D01*
X65075057Y-9624939D01*
X65114496Y-9618500D01*
X73023889Y-9618500D01*
X73062100Y-9624534D01*
X73318473Y-9707578D01*
X73375849Y-9726163D01*
X73408194Y-9735480D01*
X73408207Y-9735481D01*
X73413540Y-9736522D01*
X73413463Y-9736913D01*
X73434064Y-9741534D01*
X73470150Y-9754162D01*
X73470154Y-9754162D01*
X73470156Y-9754163D01*
X73639996Y-9773299D01*
X73640000Y-9773299D01*
X73640004Y-9773299D01*
X73809844Y-9754163D01*
X73809847Y-9754162D01*
X73809850Y-9754162D01*
X73971183Y-9697709D01*
X73971185Y-9697707D01*
X73971187Y-9697707D01*
X73981528Y-9691210D01*
X74048764Y-9672209D01*
X74115599Y-9692576D01*
X74160814Y-9745844D01*
X74171500Y-9796203D01*
X74171500Y-10655877D01*
X74151815Y-10722916D01*
X74135181Y-10743558D01*
X63888725Y-20990013D01*
X63843801Y-21018727D01*
X63112448Y-21287385D01*
X62549364Y-21494230D01*
X62544353Y-21496182D01*
X62519566Y-21507700D01*
X62513581Y-21510110D01*
X62500309Y-21514668D01*
X62497426Y-21515658D01*
X62299427Y-21622809D01*
X62299422Y-21622812D01*
X62121761Y-21761092D01*
X62121755Y-21761098D01*
X62060562Y-21827570D01*
X62000675Y-21863560D01*
X61930837Y-21861459D01*
X61873221Y-21821934D01*
X61849515Y-21775514D01*
X61812421Y-21636308D01*
X61814180Y-21566460D01*
X61844557Y-21516701D01*
X65461635Y-17899623D01*
X65491142Y-17877799D01*
X65935430Y-17641840D01*
X65942015Y-17638094D01*
X65965935Y-17624487D01*
X65966112Y-17624798D01*
X65978316Y-17617950D01*
X66001615Y-17607578D01*
X66147613Y-17501504D01*
X66151300Y-17497410D01*
X66184127Y-17460951D01*
X66268367Y-17367393D01*
X66358599Y-17211107D01*
X66414365Y-17039475D01*
X66433229Y-16860000D01*
X66414365Y-16680525D01*
X66358599Y-16508893D01*
X66268367Y-16352607D01*
X66196426Y-16272708D01*
X66147618Y-16218500D01*
X66147615Y-16218498D01*
X66147614Y-16218497D01*
X66147613Y-16218496D01*
X66001615Y-16112422D01*
X66001614Y-16112421D01*
X65836757Y-16039021D01*
X65836751Y-16039019D01*
X65697751Y-16009474D01*
X65660232Y-16001500D01*
X65479768Y-16001500D01*
X65470006Y-16003575D01*
X65303248Y-16039019D01*
X65303242Y-16039021D01*
X65138386Y-16112421D01*
X65138381Y-16112424D01*
X64992388Y-16218494D01*
X64992381Y-16218500D01*
X64871631Y-16352608D01*
X64871629Y-16352611D01*
X64797032Y-16481815D01*
X64793401Y-16487390D01*
X64788165Y-16494558D01*
X64788154Y-16494575D01*
X64552201Y-16938850D01*
X64530369Y-16968369D01*
X60714296Y-20784442D01*
X60694970Y-20800219D01*
X59809951Y-21384958D01*
X59743167Y-21405490D01*
X59741596Y-21405500D01*
X59606345Y-21405500D01*
X59545797Y-21412011D01*
X59545795Y-21412011D01*
X59408795Y-21463111D01*
X59291739Y-21550739D01*
X59204111Y-21667795D01*
X59153011Y-21804795D01*
X59153011Y-21804797D01*
X59146500Y-21865345D01*
X59146500Y-23662654D01*
X59153011Y-23723202D01*
X59153011Y-23723204D01*
X59181050Y-23798376D01*
X59204111Y-23860204D01*
X59291739Y-23977261D01*
X59408796Y-24064889D01*
X59463906Y-24085444D01*
X59541144Y-24114253D01*
X59545799Y-24115989D01*
X59573050Y-24118918D01*
X59606345Y-24122499D01*
X59606362Y-24122500D01*
X61403638Y-24122500D01*
X61403654Y-24122499D01*
X61430692Y-24119591D01*
X61464201Y-24115989D01*
X61468856Y-24114253D01*
X61478768Y-24110555D01*
X61601204Y-24064889D01*
X61718261Y-23977261D01*
X61805889Y-23860204D01*
X61851138Y-23738887D01*
X61893009Y-23682956D01*
X61958474Y-23658539D01*
X62026746Y-23673391D01*
X62058545Y-23698236D01*
X62121760Y-23766906D01*
X62299424Y-23905189D01*
X62299425Y-23905189D01*
X62299427Y-23905191D01*
X62426135Y-23973761D01*
X62497426Y-24012342D01*
X62710365Y-24085444D01*
X62932431Y-24122500D01*
X63157569Y-24122500D01*
X63379635Y-24085444D01*
X63592574Y-24012342D01*
X63790576Y-23905189D01*
X63968240Y-23766906D01*
X64064212Y-23662654D01*
X66706500Y-23662654D01*
X66713011Y-23723202D01*
X66713011Y-23723204D01*
X66741050Y-23798376D01*
X66764111Y-23860204D01*
X66851739Y-23977261D01*
X66968796Y-24064889D01*
X67023906Y-24085444D01*
X67101144Y-24114253D01*
X67105799Y-24115989D01*
X67133050Y-24118918D01*
X67166345Y-24122499D01*
X67166362Y-24122500D01*
X68963638Y-24122500D01*
X68963654Y-24122499D01*
X68990692Y-24119591D01*
X69024201Y-24115989D01*
X69028856Y-24114253D01*
X69038768Y-24110555D01*
X69161204Y-24064889D01*
X69278261Y-23977261D01*
X69365889Y-23860204D01*
X69411138Y-23738887D01*
X69453009Y-23682956D01*
X69518474Y-23658539D01*
X69586746Y-23673391D01*
X69618545Y-23698236D01*
X69681760Y-23766906D01*
X69859424Y-23905189D01*
X69859425Y-23905189D01*
X69859427Y-23905191D01*
X69986135Y-23973761D01*
X70057426Y-24012342D01*
X70270365Y-24085444D01*
X70492431Y-24122500D01*
X70717569Y-24122500D01*
X70939635Y-24085444D01*
X71152574Y-24012342D01*
X71350576Y-23905189D01*
X71528240Y-23766906D01*
X71680722Y-23601268D01*
X71803860Y-23412791D01*
X71894296Y-23206616D01*
X71949564Y-22988368D01*
X71950395Y-22978338D01*
X71961030Y-22850000D01*
X72910526Y-22850000D01*
X72930391Y-23102406D01*
X72989495Y-23348593D01*
X73086383Y-23582502D01*
X73218668Y-23798370D01*
X73218669Y-23798372D01*
X73218670Y-23798374D01*
X73218672Y-23798376D01*
X73383102Y-23990898D01*
X73575624Y-24155328D01*
X73575626Y-24155329D01*
X73575627Y-24155330D01*
X73575629Y-24155331D01*
X73791497Y-24287616D01*
X74025406Y-24384504D01*
X74025407Y-24384504D01*
X74025409Y-24384505D01*
X74271597Y-24443609D01*
X74524000Y-24463474D01*
X74776403Y-24443609D01*
X75022591Y-24384505D01*
X75256502Y-24287616D01*
X75472376Y-24155328D01*
X75664898Y-23990898D01*
X75829328Y-23798376D01*
X75961616Y-23582502D01*
X76058505Y-23348591D01*
X76117609Y-23102403D01*
X76137474Y-22850000D01*
X76117609Y-22597597D01*
X76058505Y-22351409D01*
X76046079Y-22321409D01*
X75961616Y-22117497D01*
X75829331Y-21901629D01*
X75829330Y-21901627D01*
X75829329Y-21901626D01*
X75829328Y-21901624D01*
X75664898Y-21709102D01*
X75472376Y-21544672D01*
X75472374Y-21544670D01*
X75472372Y-21544669D01*
X75472370Y-21544668D01*
X75256502Y-21412383D01*
X75022593Y-21315495D01*
X74776406Y-21256391D01*
X74524000Y-21236526D01*
X74271593Y-21256391D01*
X74025406Y-21315495D01*
X73791497Y-21412383D01*
X73575629Y-21544668D01*
X73575627Y-21544669D01*
X73383102Y-21709102D01*
X73218669Y-21901627D01*
X73218668Y-21901629D01*
X73086383Y-22117497D01*
X72989495Y-22351406D01*
X72930391Y-22597593D01*
X72910526Y-22850000D01*
X71961030Y-22850000D01*
X71968156Y-22764005D01*
X71968156Y-22763994D01*
X71949565Y-22539640D01*
X71949563Y-22539628D01*
X71908833Y-22378791D01*
X71894296Y-22321384D01*
X71803860Y-22115209D01*
X71680722Y-21926732D01*
X71680719Y-21926729D01*
X71680715Y-21926723D01*
X71528243Y-21761097D01*
X71528238Y-21761092D01*
X71350577Y-21622812D01*
X71350572Y-21622808D01*
X71152580Y-21515661D01*
X71152577Y-21515659D01*
X71152574Y-21515658D01*
X71152571Y-21515657D01*
X71152569Y-21515656D01*
X70939637Y-21442556D01*
X70717569Y-21405500D01*
X70492431Y-21405500D01*
X70270362Y-21442556D01*
X70057430Y-21515656D01*
X70057419Y-21515661D01*
X69859427Y-21622808D01*
X69859422Y-21622812D01*
X69681761Y-21761092D01*
X69618548Y-21829760D01*
X69558661Y-21865750D01*
X69488823Y-21863649D01*
X69431207Y-21824124D01*
X69411138Y-21789110D01*
X69365889Y-21667796D01*
X69332214Y-21622812D01*
X69278261Y-21550739D01*
X69161204Y-21463111D01*
X69024203Y-21412011D01*
X68963654Y-21405500D01*
X68963638Y-21405500D01*
X67166362Y-21405500D01*
X67166345Y-21405500D01*
X67105797Y-21412011D01*
X67105795Y-21412011D01*
X66968795Y-21463111D01*
X66851739Y-21550739D01*
X66764111Y-21667795D01*
X66713011Y-21804795D01*
X66713011Y-21804797D01*
X66706500Y-21865345D01*
X66706500Y-23662654D01*
X64064212Y-23662654D01*
X64120722Y-23601268D01*
X64243860Y-23412791D01*
X64297160Y-23291274D01*
X64299363Y-23286767D01*
X64316358Y-23255339D01*
X64791124Y-21966279D01*
X64819799Y-21921459D01*
X75234543Y-11506715D01*
X75247214Y-11496566D01*
X75247068Y-11496389D01*
X75253074Y-11491419D01*
X75253080Y-11491416D01*
X75302945Y-11438314D01*
X75324927Y-11416333D01*
X75329495Y-11410442D01*
X75333282Y-11406008D01*
X75366972Y-11370133D01*
X75377380Y-11351200D01*
X75388059Y-11334942D01*
X75401304Y-11317868D01*
X75420852Y-11272691D01*
X75423409Y-11267472D01*
X75447124Y-11224337D01*
X75452495Y-11203413D01*
X75458796Y-11185009D01*
X75467380Y-11165176D01*
X75473365Y-11127384D01*
X75475078Y-11116569D01*
X75476263Y-11110844D01*
X75488500Y-11063188D01*
X75488500Y-11041580D01*
X75490027Y-11022180D01*
X75493406Y-11000848D01*
X75488775Y-10951854D01*
X75488500Y-10946017D01*
X75488500Y-2084620D01*
X75508185Y-2017581D01*
X75524814Y-1996943D01*
X76334423Y-1187334D01*
X76395746Y-1153850D01*
X76465438Y-1158834D01*
X76521371Y-1200706D01*
X76545788Y-1266170D01*
X76545680Y-1285256D01*
X76535344Y-1409994D01*
X76535344Y-1410005D01*
X76553934Y-1634359D01*
X76553936Y-1634371D01*
X76609203Y-1852614D01*
X76699640Y-2058792D01*
X76822776Y-2247265D01*
X76822784Y-2247276D01*
X76975256Y-2412902D01*
X76975261Y-2412907D01*
X77002501Y-2434109D01*
X77152924Y-2551189D01*
X77152929Y-2551191D01*
X77152931Y-2551193D01*
X77189430Y-2570946D01*
X77239020Y-2620165D01*
X77254128Y-2688382D01*
X77229957Y-2753937D01*
X77189430Y-2789054D01*
X77152931Y-2808806D01*
X77152922Y-2808812D01*
X76975261Y-2947092D01*
X76975256Y-2947097D01*
X76822784Y-3112723D01*
X76822776Y-3112734D01*
X76699640Y-3301207D01*
X76609203Y-3507385D01*
X76553936Y-3725628D01*
X76553934Y-3725640D01*
X76535344Y-3949994D01*
X76535344Y-3950005D01*
X76553934Y-4174359D01*
X76553936Y-4174371D01*
X76609203Y-4392614D01*
X76699640Y-4598792D01*
X76822776Y-4787265D01*
X76822784Y-4787276D01*
X76975256Y-4952902D01*
X76975260Y-4952906D01*
X77152924Y-5091189D01*
X77152929Y-5091191D01*
X77152931Y-5091193D01*
X77189430Y-5110946D01*
X77239020Y-5160165D01*
X77254128Y-5228382D01*
X77229957Y-5293937D01*
X77189430Y-5329054D01*
X77152931Y-5348806D01*
X77152922Y-5348812D01*
X76975261Y-5487092D01*
X76975256Y-5487097D01*
X76822784Y-5652723D01*
X76822776Y-5652734D01*
X76699640Y-5841207D01*
X76609203Y-6047385D01*
X76553936Y-6265628D01*
X76553934Y-6265640D01*
X76535344Y-6489994D01*
X76535344Y-6490005D01*
X76553934Y-6714359D01*
X76553936Y-6714371D01*
X76609203Y-6932614D01*
X76699640Y-7138792D01*
X76822776Y-7327265D01*
X76822784Y-7327276D01*
X76975256Y-7492902D01*
X76975260Y-7492906D01*
X77152924Y-7631189D01*
X77152929Y-7631191D01*
X77152931Y-7631193D01*
X77189430Y-7650946D01*
X77239020Y-7700165D01*
X77254128Y-7768382D01*
X77229957Y-7833937D01*
X77189430Y-7869054D01*
X77152931Y-7888806D01*
X77152922Y-7888812D01*
X76975261Y-8027092D01*
X76975256Y-8027097D01*
X76822784Y-8192723D01*
X76822776Y-8192734D01*
X76699640Y-8381207D01*
X76609203Y-8587385D01*
X76553936Y-8805628D01*
X76553934Y-8805640D01*
X76535344Y-9029994D01*
X76535344Y-9030005D01*
X76553934Y-9254359D01*
X76553936Y-9254371D01*
X76609203Y-9472614D01*
X76699640Y-9678792D01*
X76822776Y-9867265D01*
X76822784Y-9867276D01*
X76975256Y-10032902D01*
X76975261Y-10032907D01*
X77030149Y-10075628D01*
X77152924Y-10171189D01*
X77152929Y-10171191D01*
X77152931Y-10171193D01*
X77189430Y-10190946D01*
X77239020Y-10240165D01*
X77254128Y-10308382D01*
X77229957Y-10373937D01*
X77189430Y-10409054D01*
X77152931Y-10428806D01*
X77152922Y-10428812D01*
X76975261Y-10567092D01*
X76975256Y-10567097D01*
X76822784Y-10732723D01*
X76822776Y-10732734D01*
X76699640Y-10921207D01*
X76609203Y-11127385D01*
X76553936Y-11345628D01*
X76553934Y-11345640D01*
X76535344Y-11569994D01*
X76535344Y-11570005D01*
X76553934Y-11794359D01*
X76553936Y-11794371D01*
X76609203Y-12012614D01*
X76699640Y-12218792D01*
X76822776Y-12407265D01*
X76822784Y-12407276D01*
X76975256Y-12572902D01*
X76975261Y-12572907D01*
X77014564Y-12603498D01*
X77152924Y-12711189D01*
X77152929Y-12711191D01*
X77152931Y-12711193D01*
X77189430Y-12730946D01*
X77239020Y-12780165D01*
X77254128Y-12848382D01*
X77229957Y-12913937D01*
X77189430Y-12949054D01*
X77152931Y-12968806D01*
X77152922Y-12968812D01*
X76975261Y-13107092D01*
X76975256Y-13107097D01*
X76822784Y-13272723D01*
X76822776Y-13272734D01*
X76699640Y-13461207D01*
X76609203Y-13667385D01*
X76553936Y-13885628D01*
X76553934Y-13885640D01*
X76535344Y-14109994D01*
X76535344Y-14110005D01*
X76553934Y-14334359D01*
X76553936Y-14334371D01*
X76609203Y-14552614D01*
X76699640Y-14758792D01*
X76822776Y-14947265D01*
X76822784Y-14947276D01*
X76975256Y-15112902D01*
X76975261Y-15112907D01*
X76983828Y-15119575D01*
X77152924Y-15251189D01*
X77152929Y-15251191D01*
X77152931Y-15251193D01*
X77189430Y-15270946D01*
X77239020Y-15320165D01*
X77254128Y-15388382D01*
X77229957Y-15453937D01*
X77189430Y-15489054D01*
X77152931Y-15508806D01*
X77152922Y-15508812D01*
X76975261Y-15647092D01*
X76975256Y-15647097D01*
X76822784Y-15812723D01*
X76822776Y-15812734D01*
X76699640Y-16001207D01*
X76609203Y-16207385D01*
X76553936Y-16425628D01*
X76553934Y-16425640D01*
X76535344Y-16649994D01*
X76535344Y-16650005D01*
X76553934Y-16874359D01*
X76553936Y-16874371D01*
X76609203Y-17092614D01*
X76699640Y-17298792D01*
X76822776Y-17487265D01*
X76822784Y-17487276D01*
X76975256Y-17652902D01*
X76975261Y-17652907D01*
X76988268Y-17663031D01*
X77152924Y-17791189D01*
X77152929Y-17791191D01*
X77152931Y-17791193D01*
X77189430Y-17810946D01*
X77239020Y-17860165D01*
X77254128Y-17928382D01*
X77229957Y-17993937D01*
X77189430Y-18029054D01*
X77152931Y-18048806D01*
X77152922Y-18048812D01*
X76975261Y-18187092D01*
X76975256Y-18187097D01*
X76822784Y-18352723D01*
X76822776Y-18352734D01*
X76699640Y-18541207D01*
X76609203Y-18747385D01*
X76553936Y-18965628D01*
X76553934Y-18965640D01*
X76535344Y-19189994D01*
X76535344Y-19190005D01*
X76553934Y-19414359D01*
X76553936Y-19414371D01*
X76609203Y-19632614D01*
X76699640Y-19838792D01*
X76822776Y-20027265D01*
X76822784Y-20027276D01*
X76975256Y-20192902D01*
X76975261Y-20192907D01*
X76983973Y-20199688D01*
X77152924Y-20331189D01*
X77152929Y-20331191D01*
X77152931Y-20331193D01*
X77189430Y-20350946D01*
X77239020Y-20400165D01*
X77254128Y-20468382D01*
X77229957Y-20533937D01*
X77189430Y-20569054D01*
X77152931Y-20588806D01*
X77152922Y-20588812D01*
X76975261Y-20727092D01*
X76975256Y-20727097D01*
X76822784Y-20892723D01*
X76822776Y-20892734D01*
X76699640Y-21081207D01*
X76609203Y-21287385D01*
X76553936Y-21505628D01*
X76553934Y-21505640D01*
X76535344Y-21729994D01*
X76535344Y-21730005D01*
X76553934Y-21954359D01*
X76553936Y-21954371D01*
X76609203Y-22172614D01*
X76699640Y-22378792D01*
X76822776Y-22567265D01*
X76822784Y-22567276D01*
X76975256Y-22732902D01*
X76975261Y-22732907D01*
X77034481Y-22779000D01*
X77152924Y-22871189D01*
X77152925Y-22871189D01*
X77152927Y-22871191D01*
X77212814Y-22903600D01*
X77350926Y-22978342D01*
X77563865Y-23051444D01*
X77785931Y-23088500D01*
X78011069Y-23088500D01*
X78233135Y-23051444D01*
X78446074Y-22978342D01*
X78644076Y-22871189D01*
X78821740Y-22732906D01*
X78974222Y-22567268D01*
X79068249Y-22423347D01*
X79121394Y-22377994D01*
X79190625Y-22368570D01*
X79253961Y-22398072D01*
X79273631Y-22420049D01*
X79323572Y-22491373D01*
X79323573Y-22491373D01*
X79955423Y-21859523D01*
X79979007Y-21939844D01*
X80056739Y-22060798D01*
X80165400Y-22154952D01*
X80296185Y-22214680D01*
X80305966Y-22216086D01*
X79677125Y-22844925D01*
X79760921Y-22903599D01*
X79975007Y-23003429D01*
X79975016Y-23003433D01*
X80203173Y-23064567D01*
X80203184Y-23064569D01*
X80438498Y-23085157D01*
X80438502Y-23085157D01*
X80673815Y-23064569D01*
X80673826Y-23064567D01*
X80901983Y-23003433D01*
X80901992Y-23003429D01*
X81116078Y-22903600D01*
X81116082Y-22903598D01*
X81199873Y-22844926D01*
X81199873Y-22844925D01*
X80571033Y-22216086D01*
X80580815Y-22214680D01*
X80711600Y-22154952D01*
X80820261Y-22060798D01*
X80897993Y-21939844D01*
X80921576Y-21859524D01*
X81553425Y-22491373D01*
X81553426Y-22491373D01*
X81612098Y-22407582D01*
X81612100Y-22407578D01*
X81711929Y-22193492D01*
X81711933Y-22193483D01*
X81773067Y-21965326D01*
X81773069Y-21965315D01*
X81793657Y-21730001D01*
X81793657Y-21729998D01*
X81773069Y-21494684D01*
X81773067Y-21494673D01*
X81711933Y-21266516D01*
X81711929Y-21266507D01*
X81612100Y-21052423D01*
X81612099Y-21052421D01*
X81553425Y-20968626D01*
X81553425Y-20968625D01*
X80921576Y-21600475D01*
X80897993Y-21520156D01*
X80820261Y-21399202D01*
X80711600Y-21305048D01*
X80580815Y-21245320D01*
X80571033Y-21243913D01*
X81199873Y-20615073D01*
X81123469Y-20561576D01*
X81079844Y-20506999D01*
X81072650Y-20437501D01*
X81104172Y-20375146D01*
X81123468Y-20358425D01*
X81199873Y-20304925D01*
X80571033Y-19676086D01*
X80580815Y-19674680D01*
X80711600Y-19614952D01*
X80820261Y-19520798D01*
X80897993Y-19399844D01*
X80921576Y-19319524D01*
X81553425Y-19951373D01*
X81553426Y-19951373D01*
X81612098Y-19867582D01*
X81612100Y-19867578D01*
X81711929Y-19653492D01*
X81711933Y-19653483D01*
X81773067Y-19425326D01*
X81773069Y-19425315D01*
X81793657Y-19190001D01*
X81793657Y-19189998D01*
X81773069Y-18954684D01*
X81773067Y-18954673D01*
X81711933Y-18726516D01*
X81711929Y-18726507D01*
X81612100Y-18512423D01*
X81612099Y-18512421D01*
X81553425Y-18428626D01*
X81553425Y-18428625D01*
X80921576Y-19060475D01*
X80897993Y-18980156D01*
X80820261Y-18859202D01*
X80711600Y-18765048D01*
X80580815Y-18705320D01*
X80571033Y-18703913D01*
X81199873Y-18075073D01*
X81123469Y-18021576D01*
X81079844Y-17966999D01*
X81072650Y-17897501D01*
X81104172Y-17835146D01*
X81123468Y-17818425D01*
X81199873Y-17764925D01*
X80571033Y-17136086D01*
X80580815Y-17134680D01*
X80711600Y-17074952D01*
X80820261Y-16980798D01*
X80897993Y-16859844D01*
X80921576Y-16779524D01*
X81553425Y-17411373D01*
X81553426Y-17411373D01*
X81612098Y-17327582D01*
X81612100Y-17327578D01*
X81711929Y-17113492D01*
X81711933Y-17113483D01*
X81773067Y-16885326D01*
X81773069Y-16885315D01*
X81793657Y-16650001D01*
X81793657Y-16649998D01*
X81773069Y-16414684D01*
X81773067Y-16414673D01*
X81711933Y-16186516D01*
X81711929Y-16186507D01*
X81612100Y-15972423D01*
X81612099Y-15972421D01*
X81553425Y-15888626D01*
X81553425Y-15888625D01*
X80921576Y-16520475D01*
X80897993Y-16440156D01*
X80820261Y-16319202D01*
X80711600Y-16225048D01*
X80580815Y-16165320D01*
X80571033Y-16163913D01*
X81199873Y-15535073D01*
X81123469Y-15481576D01*
X81079844Y-15426999D01*
X81072650Y-15357501D01*
X81104172Y-15295146D01*
X81123468Y-15278425D01*
X81199873Y-15224925D01*
X80571033Y-14596086D01*
X80580815Y-14594680D01*
X80711600Y-14534952D01*
X80820261Y-14440798D01*
X80897993Y-14319844D01*
X80921576Y-14239524D01*
X81553425Y-14871373D01*
X81553426Y-14871373D01*
X81612098Y-14787582D01*
X81612100Y-14787578D01*
X81711929Y-14573492D01*
X81711933Y-14573483D01*
X81773067Y-14345326D01*
X81773069Y-14345315D01*
X81793657Y-14110001D01*
X81793657Y-14109998D01*
X81773069Y-13874684D01*
X81773067Y-13874673D01*
X81711933Y-13646516D01*
X81711929Y-13646507D01*
X81612100Y-13432423D01*
X81612099Y-13432421D01*
X81553425Y-13348626D01*
X81553425Y-13348625D01*
X80921576Y-13980475D01*
X80897993Y-13900156D01*
X80820261Y-13779202D01*
X80711600Y-13685048D01*
X80580815Y-13625320D01*
X80571033Y-13623913D01*
X81199873Y-12995073D01*
X81123469Y-12941576D01*
X81079844Y-12886999D01*
X81072650Y-12817501D01*
X81104172Y-12755146D01*
X81123468Y-12738425D01*
X81199873Y-12684925D01*
X80571033Y-12056086D01*
X80580815Y-12054680D01*
X80711600Y-11994952D01*
X80820261Y-11900798D01*
X80897993Y-11779844D01*
X80921576Y-11699524D01*
X81553425Y-12331373D01*
X81553426Y-12331373D01*
X81612098Y-12247582D01*
X81612100Y-12247578D01*
X81711929Y-12033492D01*
X81711933Y-12033483D01*
X81773067Y-11805326D01*
X81773069Y-11805315D01*
X81793657Y-11570001D01*
X81793657Y-11569998D01*
X81773069Y-11334684D01*
X81773067Y-11334673D01*
X81711933Y-11106516D01*
X81711929Y-11106507D01*
X81612100Y-10892423D01*
X81612099Y-10892421D01*
X81553425Y-10808626D01*
X81553425Y-10808625D01*
X80921576Y-11440475D01*
X80897993Y-11360156D01*
X80820261Y-11239202D01*
X80711600Y-11145048D01*
X80580815Y-11085320D01*
X80571033Y-11083913D01*
X81199873Y-10455073D01*
X81123469Y-10401576D01*
X81079844Y-10346999D01*
X81072650Y-10277501D01*
X81104172Y-10215146D01*
X81123468Y-10198425D01*
X81199873Y-10144925D01*
X80571033Y-9516086D01*
X80580815Y-9514680D01*
X80711600Y-9454952D01*
X80820261Y-9360798D01*
X80897993Y-9239844D01*
X80921576Y-9159524D01*
X81553425Y-9791373D01*
X81553426Y-9791373D01*
X81612098Y-9707582D01*
X81612100Y-9707578D01*
X81711929Y-9493492D01*
X81711933Y-9493483D01*
X81773067Y-9265326D01*
X81773069Y-9265315D01*
X81793657Y-9030001D01*
X81793657Y-9029998D01*
X81773069Y-8794684D01*
X81773067Y-8794673D01*
X81711933Y-8566516D01*
X81711929Y-8566507D01*
X81612100Y-8352423D01*
X81612099Y-8352421D01*
X81553425Y-8268626D01*
X81553425Y-8268625D01*
X80921576Y-8900475D01*
X80897993Y-8820156D01*
X80820261Y-8699202D01*
X80711600Y-8605048D01*
X80580815Y-8545320D01*
X80571033Y-8543913D01*
X81199873Y-7915073D01*
X81123469Y-7861576D01*
X81079844Y-7806999D01*
X81072650Y-7737501D01*
X81104172Y-7675146D01*
X81123468Y-7658425D01*
X81199873Y-7604925D01*
X80571033Y-6976086D01*
X80580815Y-6974680D01*
X80711600Y-6914952D01*
X80820261Y-6820798D01*
X80897993Y-6699844D01*
X80921576Y-6619524D01*
X81553425Y-7251373D01*
X81553426Y-7251373D01*
X81612098Y-7167582D01*
X81612100Y-7167578D01*
X81711929Y-6953492D01*
X81711933Y-6953483D01*
X81773067Y-6725326D01*
X81773069Y-6725315D01*
X81793657Y-6490001D01*
X81793657Y-6489998D01*
X81773069Y-6254684D01*
X81773067Y-6254673D01*
X81711933Y-6026516D01*
X81711929Y-6026507D01*
X81612100Y-5812423D01*
X81612099Y-5812421D01*
X81553425Y-5728626D01*
X81553425Y-5728625D01*
X80921576Y-6360475D01*
X80897993Y-6280156D01*
X80820261Y-6159202D01*
X80711600Y-6065048D01*
X80580815Y-6005320D01*
X80571033Y-6003913D01*
X81199873Y-5375073D01*
X81123469Y-5321576D01*
X81079844Y-5266999D01*
X81072650Y-5197501D01*
X81104172Y-5135146D01*
X81123468Y-5118425D01*
X81199873Y-5064925D01*
X80571033Y-4436086D01*
X80580815Y-4434680D01*
X80711600Y-4374952D01*
X80820261Y-4280798D01*
X80897993Y-4159844D01*
X80921576Y-4079524D01*
X81553425Y-4711373D01*
X81553426Y-4711373D01*
X81612098Y-4627582D01*
X81612100Y-4627578D01*
X81711929Y-4413492D01*
X81711933Y-4413483D01*
X81773067Y-4185326D01*
X81773069Y-4185315D01*
X81793657Y-3950001D01*
X81793657Y-3949998D01*
X81773069Y-3714684D01*
X81773067Y-3714673D01*
X81711933Y-3486516D01*
X81711929Y-3486507D01*
X81612100Y-3272423D01*
X81612099Y-3272421D01*
X81553425Y-3188626D01*
X81553425Y-3188625D01*
X80921576Y-3820475D01*
X80897993Y-3740156D01*
X80820261Y-3619202D01*
X80711600Y-3525048D01*
X80580815Y-3465320D01*
X80571033Y-3463913D01*
X81199873Y-2835073D01*
X81123469Y-2781576D01*
X81079844Y-2726999D01*
X81072650Y-2657501D01*
X81104172Y-2595146D01*
X81123468Y-2578425D01*
X81199873Y-2524925D01*
X80571033Y-1896086D01*
X80580815Y-1894680D01*
X80711600Y-1834952D01*
X80820261Y-1740798D01*
X80897993Y-1619844D01*
X80921576Y-1539524D01*
X81553425Y-2171373D01*
X81553426Y-2171373D01*
X81612098Y-2087582D01*
X81612100Y-2087578D01*
X81711929Y-1873492D01*
X81711933Y-1873483D01*
X81773067Y-1645326D01*
X81773069Y-1645315D01*
X81793657Y-1410001D01*
X81793657Y-1409998D01*
X81773069Y-1174684D01*
X81773067Y-1174673D01*
X81711933Y-946516D01*
X81711929Y-946507D01*
X81612100Y-732423D01*
X81612099Y-732421D01*
X81553425Y-648626D01*
X81553425Y-648625D01*
X80921576Y-1280475D01*
X80897993Y-1200156D01*
X80820261Y-1079202D01*
X80711600Y-985048D01*
X80580815Y-925320D01*
X80571033Y-923913D01*
X81199873Y-295073D01*
X81199873Y-295072D01*
X81128699Y-245236D01*
X81085074Y-190659D01*
X81077880Y-121161D01*
X81109403Y-58806D01*
X81140805Y-34606D01*
X81184076Y-11189D01*
X81361740Y127094D01*
X81477318Y252644D01*
X81514215Y292724D01*
X81514216Y292726D01*
X81514222Y292732D01*
X81637360Y481209D01*
X81727796Y687384D01*
X81783064Y905632D01*
X81785296Y932567D01*
X81801656Y1129995D01*
X81801656Y1130006D01*
X81783065Y1354360D01*
X81783063Y1354372D01*
X81749199Y1488098D01*
X81727796Y1572616D01*
X81637360Y1778791D01*
X81635885Y1781048D01*
X81514223Y1967266D01*
X81514215Y1967277D01*
X81361743Y2132903D01*
X81361738Y2132908D01*
X81184077Y2271188D01*
X81184072Y2271192D01*
X80986080Y2378339D01*
X80986077Y2378341D01*
X80986074Y2378342D01*
X80986071Y2378343D01*
X80986069Y2378344D01*
X80773137Y2451444D01*
X80551069Y2488500D01*
X80325931Y2488500D01*
X80103862Y2451444D01*
X79890930Y2378344D01*
X79890919Y2378339D01*
X79692927Y2271192D01*
X79692922Y2271188D01*
X79515261Y2132908D01*
X79399682Y2007357D01*
X79339794Y1971367D01*
X79269956Y1973468D01*
X79212341Y2012993D01*
X79194026Y2046364D01*
X79193665Y2046195D01*
X79191099Y2051697D01*
X79190747Y2052339D01*
X79190615Y2052738D01*
X79097530Y2203652D01*
X78972152Y2329030D01*
X78821238Y2422115D01*
X78796320Y2430372D01*
X78652927Y2477887D01*
X78549045Y2488500D01*
X77247962Y2488500D01*
X77247946Y2488499D01*
X77144072Y2477887D01*
X76975764Y2422116D01*
X76975759Y2422114D01*
X76824846Y2329029D01*
X76699471Y2203654D01*
X76606386Y2052741D01*
X76606384Y2052736D01*
X76550613Y1884428D01*
X76540000Y1780553D01*
X76540000Y1663659D01*
X76529024Y1612654D01*
X75927393Y279487D01*
X75902050Y242811D01*
X74425453Y-1233785D01*
X74412785Y-1243935D01*
X74412931Y-1244111D01*
X74406920Y-1249083D01*
X74357053Y-1302186D01*
X74335072Y-1324167D01*
X74330492Y-1330069D01*
X74326708Y-1334498D01*
X74293029Y-1370365D01*
X74293024Y-1370372D01*
X74282618Y-1389300D01*
X74271942Y-1405554D01*
X74258695Y-1422633D01*
X74239150Y-1467797D01*
X74236580Y-1473043D01*
X74212876Y-1516161D01*
X74207502Y-1537089D01*
X74201203Y-1555487D01*
X74192619Y-1575325D01*
X74184923Y-1623920D01*
X74183738Y-1629643D01*
X74171500Y-1677309D01*
X74171500Y-1698913D01*
X74169974Y-1718308D01*
X74166594Y-1739651D01*
X74171225Y-1788643D01*
X74171500Y-1794481D01*
X74171500Y-8223796D01*
X74151815Y-8290835D01*
X74099011Y-8336590D01*
X74029853Y-8346534D01*
X73981532Y-8328792D01*
X73971187Y-8322292D01*
X73809849Y-8265837D01*
X73809844Y-8265836D01*
X73640004Y-8246701D01*
X73639996Y-8246701D01*
X73470151Y-8265837D01*
X73470150Y-8265837D01*
X73413709Y-8285586D01*
X73393800Y-8290745D01*
X73375857Y-8293834D01*
X73375850Y-8293836D01*
X73062098Y-8395466D01*
X73023887Y-8401500D01*
X65106087Y-8401500D01*
X65039048Y-8381815D01*
X64993293Y-8329011D01*
X64982767Y-8290467D01*
X64974365Y-8210525D01*
X64918599Y-8038893D01*
X64828367Y-7882607D01*
X64764838Y-7812051D01*
X64707618Y-7748500D01*
X64707615Y-7748498D01*
X64707614Y-7748497D01*
X64707613Y-7748496D01*
X64606656Y-7675146D01*
X64561613Y-7642420D01*
X64524292Y-7625804D01*
X64501575Y-7612648D01*
X64495433Y-7608160D01*
X64051150Y-7372203D01*
X64021631Y-7350371D01*
X62736717Y-6065457D01*
X62726564Y-6052785D01*
X62726388Y-6052931D01*
X62721419Y-6046926D01*
X62721416Y-6046920D01*
X62688297Y-6015819D01*
X62668315Y-5997054D01*
X62646333Y-5975072D01*
X62640439Y-5970501D01*
X62636002Y-5966711D01*
X62600133Y-5933028D01*
X62600131Y-5933026D01*
X62581200Y-5922619D01*
X62564948Y-5911944D01*
X62547868Y-5898696D01*
X62547864Y-5898694D01*
X62502702Y-5879150D01*
X62497455Y-5876580D01*
X62454337Y-5852875D01*
X62454338Y-5852875D01*
X62433411Y-5847502D01*
X62415006Y-5841201D01*
X62395174Y-5832619D01*
X62346569Y-5824921D01*
X62340847Y-5823736D01*
X62307188Y-5815094D01*
X62293188Y-5811500D01*
X62293187Y-5811500D01*
X62271581Y-5811500D01*
X62252183Y-5809973D01*
X62243603Y-5808614D01*
X62230849Y-5806594D01*
X62230848Y-5806594D01*
X62181855Y-5811225D01*
X62176019Y-5811500D01*
X60402409Y-5811500D01*
X60335370Y-5791815D01*
X60289615Y-5739011D01*
X60279671Y-5669853D01*
X60282203Y-5657060D01*
X60302177Y-5578185D01*
X60336064Y-5444368D01*
X60343982Y-5348812D01*
X60354656Y-5220005D01*
X60354656Y-5219994D01*
X60336065Y-4995640D01*
X60336063Y-4995628D01*
X60325243Y-4952902D01*
X60280796Y-4777384D01*
X60190360Y-4571209D01*
X60174227Y-4546515D01*
X60159727Y-4524321D01*
X60139539Y-4457432D01*
X60158720Y-4390246D01*
X60211179Y-4344096D01*
X60263536Y-4332500D01*
X69941706Y-4332500D01*
X69959676Y-4333809D01*
X69962174Y-4334174D01*
X69983789Y-4337341D01*
X70036426Y-4332735D01*
X70041828Y-4332500D01*
X70050175Y-4332500D01*
X70050180Y-4332500D01*
X70073835Y-4329734D01*
X70083096Y-4328652D01*
X70160419Y-4321888D01*
X70160422Y-4321887D01*
X70160426Y-4321887D01*
X70160429Y-4321885D01*
X70167493Y-4320427D01*
X70167502Y-4320474D01*
X70175097Y-4318790D01*
X70175087Y-4318744D01*
X70182107Y-4317079D01*
X70182113Y-4317079D01*
X70255065Y-4290526D01*
X70328738Y-4266114D01*
X70328746Y-4266108D01*
X70335284Y-4263061D01*
X70335305Y-4263106D01*
X70342302Y-4259719D01*
X70342280Y-4259675D01*
X70348729Y-4256436D01*
X70348728Y-4256436D01*
X70348732Y-4256435D01*
X70413605Y-4213766D01*
X70479651Y-4173030D01*
X70479655Y-4173025D01*
X70485319Y-4168548D01*
X70485350Y-4168587D01*
X70491374Y-4163680D01*
X70491342Y-4163642D01*
X70496864Y-4159007D01*
X70496874Y-4159001D01*
X70532709Y-4121018D01*
X70550163Y-4102518D01*
X70952565Y-3700115D01*
X71145880Y-3506799D01*
X71159506Y-3495023D01*
X71179058Y-3480469D01*
X71179060Y-3480467D01*
X71213015Y-3440000D01*
X71216675Y-3436005D01*
X71217603Y-3435077D01*
X71222581Y-3430100D01*
X71243135Y-3404104D01*
X71293032Y-3344640D01*
X71293033Y-3344637D01*
X71297004Y-3338601D01*
X71297045Y-3338628D01*
X71301219Y-3332076D01*
X71301176Y-3332050D01*
X71304962Y-3325911D01*
X71304967Y-3325905D01*
X71337775Y-3255547D01*
X71372609Y-3186188D01*
X71372610Y-3186182D01*
X71375077Y-3179405D01*
X71375124Y-3179422D01*
X71377675Y-3172083D01*
X71377629Y-3172068D01*
X71379900Y-3165210D01*
X71379903Y-3165206D01*
X71395607Y-3089149D01*
X71413500Y-3013656D01*
X71413500Y-3013653D01*
X71414339Y-3006483D01*
X71414386Y-3006488D01*
X71415177Y-2998757D01*
X71415130Y-2998753D01*
X71415759Y-2991562D01*
X71413500Y-2913920D01*
X71413500Y373422D01*
X71421951Y418415D01*
X71522457Y676527D01*
X71914650Y1683736D01*
X71930298Y1730431D01*
X71930298Y1730436D01*
X71930891Y1732203D01*
X71932894Y1737392D01*
X71944296Y1763384D01*
X71999564Y1981632D01*
X72002163Y2012993D01*
X72018156Y2205995D01*
X72018156Y2206006D01*
X72011196Y2290000D01*
X72890526Y2290000D01*
X72910391Y2037594D01*
X72969495Y1791407D01*
X73066383Y1557498D01*
X73198668Y1341630D01*
X73198669Y1341628D01*
X73198670Y1341626D01*
X73198672Y1341624D01*
X73363102Y1149102D01*
X73555624Y984672D01*
X73555626Y984671D01*
X73555627Y984670D01*
X73555629Y984669D01*
X73771497Y852384D01*
X74005406Y755496D01*
X74005407Y755496D01*
X74005409Y755495D01*
X74251597Y696391D01*
X74504000Y676526D01*
X74756403Y696391D01*
X75002591Y755495D01*
X75236502Y852384D01*
X75452376Y984672D01*
X75644898Y1149102D01*
X75809328Y1341624D01*
X75941616Y1557498D01*
X76038505Y1791409D01*
X76097609Y2037597D01*
X76117474Y2290000D01*
X76097609Y2542403D01*
X76038505Y2788591D01*
X76011084Y2854791D01*
X75941616Y3022503D01*
X75809331Y3238371D01*
X75809330Y3238373D01*
X75809329Y3238374D01*
X75809328Y3238376D01*
X75644898Y3430898D01*
X75452376Y3595328D01*
X75452374Y3595330D01*
X75452372Y3595331D01*
X75452370Y3595332D01*
X75236502Y3727617D01*
X75002593Y3824505D01*
X74756406Y3883609D01*
X74504000Y3903474D01*
X74251593Y3883609D01*
X74005406Y3824505D01*
X73771497Y3727617D01*
X73555629Y3595332D01*
X73555627Y3595331D01*
X73363102Y3430898D01*
X73198669Y3238373D01*
X73198668Y3238371D01*
X73066383Y3022503D01*
X72969495Y2788594D01*
X72910391Y2542407D01*
X72890526Y2290000D01*
X72011196Y2290000D01*
X71999565Y2430360D01*
X71999563Y2430372D01*
X71994227Y2451444D01*
X71944296Y2648616D01*
X71853860Y2854791D01*
X71837706Y2879516D01*
X71730723Y3043266D01*
X71730715Y3043277D01*
X71578243Y3208903D01*
X71578238Y3208908D01*
X71400577Y3347188D01*
X71400572Y3347192D01*
X71202580Y3454339D01*
X71202577Y3454341D01*
X71202574Y3454342D01*
X71202571Y3454343D01*
X71202569Y3454344D01*
X70989637Y3527444D01*
X70767569Y3564500D01*
X70542431Y3564500D01*
X70320362Y3527444D01*
X70107430Y3454344D01*
X70107419Y3454339D01*
X69909427Y3347192D01*
X69909422Y3347188D01*
X69731761Y3208908D01*
X69731756Y3208903D01*
X69579284Y3043277D01*
X69579276Y3043266D01*
X69485251Y2899350D01*
X69432105Y2853993D01*
X69362873Y2844570D01*
X69299538Y2874072D01*
X69279868Y2896049D01*
X69153113Y3077074D01*
X69153108Y3077080D01*
X68986082Y3244106D01*
X68792578Y3379601D01*
X68578492Y3479430D01*
X68578486Y3479433D01*
X68365000Y3536636D01*
X68365000Y2641502D01*
X68257315Y2690680D01*
X68150763Y2706000D01*
X68079237Y2706000D01*
X67972685Y2690680D01*
X67865000Y2641502D01*
X67865000Y3536636D01*
X67864999Y3536636D01*
X67651513Y3479433D01*
X67651507Y3479430D01*
X67437422Y3379601D01*
X67437420Y3379600D01*
X67243926Y3244114D01*
X67243920Y3244109D01*
X67076891Y3077080D01*
X67076890Y3077078D01*
X66950131Y2896048D01*
X66895554Y2852423D01*
X66826055Y2845231D01*
X66763701Y2876753D01*
X66744752Y2899344D01*
X66650722Y3043268D01*
X66650715Y3043275D01*
X66650715Y3043277D01*
X66498243Y3208903D01*
X66498238Y3208908D01*
X66320577Y3347188D01*
X66320572Y3347192D01*
X66122580Y3454339D01*
X66122577Y3454341D01*
X66122574Y3454342D01*
X66122571Y3454343D01*
X66122569Y3454344D01*
X65909637Y3527444D01*
X65687569Y3564500D01*
X65462431Y3564500D01*
X65240362Y3527444D01*
X65027430Y3454344D01*
X65027419Y3454339D01*
X64829427Y3347192D01*
X64829422Y3347188D01*
X64651761Y3208908D01*
X64651756Y3208903D01*
X64499284Y3043277D01*
X64499276Y3043266D01*
X64408808Y2904794D01*
X64355662Y2859438D01*
X64286431Y2850014D01*
X64223095Y2879516D01*
X64201192Y2904794D01*
X64110723Y3043266D01*
X64110715Y3043277D01*
X63958243Y3208903D01*
X63958238Y3208908D01*
X63780577Y3347188D01*
X63780572Y3347192D01*
X63582580Y3454339D01*
X63582577Y3454341D01*
X63582574Y3454342D01*
X63582571Y3454343D01*
X63582569Y3454344D01*
X63369637Y3527444D01*
X63147569Y3564500D01*
X62922431Y3564500D01*
X62700362Y3527444D01*
X62487430Y3454344D01*
X62487419Y3454339D01*
X62289427Y3347192D01*
X62289422Y3347188D01*
X62111761Y3208908D01*
X62048548Y3140240D01*
X61988661Y3104250D01*
X61918823Y3106351D01*
X61861207Y3145876D01*
X61841138Y3180890D01*
X61795889Y3302204D01*
X61762214Y3347188D01*
X61708261Y3419261D01*
X61591204Y3506889D01*
X61454203Y3557989D01*
X61393654Y3564500D01*
X61393638Y3564500D01*
X59596362Y3564500D01*
X59596345Y3564500D01*
X59535797Y3557989D01*
X59535795Y3557989D01*
X59398795Y3506889D01*
X59281739Y3419261D01*
X59194111Y3302205D01*
X59143011Y3165205D01*
X59143011Y3165203D01*
X59136500Y3104655D01*
X59136500Y1307346D01*
X59143011Y1246798D01*
X59143011Y1246796D01*
X59174747Y1161712D01*
X59194111Y1109796D01*
X59281739Y992739D01*
X59398796Y905111D01*
X59535799Y854011D01*
X59563050Y851082D01*
X59596345Y847501D01*
X59596362Y847500D01*
X61393638Y847500D01*
X61393654Y847501D01*
X61420692Y850409D01*
X61454201Y854011D01*
X61591204Y905111D01*
X61708261Y992739D01*
X61795889Y1109796D01*
X61809251Y1145623D01*
X61851122Y1201553D01*
X61916587Y1225970D01*
X61984859Y1211118D01*
X62034264Y1161712D01*
X62036403Y1157614D01*
X62404894Y418415D01*
X62413475Y401203D01*
X62426500Y345882D01*
X62426500Y-247500D01*
X62406815Y-314539D01*
X62354011Y-360294D01*
X62302500Y-371500D01*
X53013953Y-371500D01*
X53005854Y-370969D01*
X52983873Y-368075D01*
X52970001Y-366249D01*
X52969999Y-366249D01*
X52811150Y-387161D01*
X52811145Y-387163D01*
X52663128Y-448473D01*
X52663123Y-448476D01*
X52569465Y-520343D01*
X52567929Y-521522D01*
X52567925Y-521525D01*
X52565836Y-523128D01*
X52536010Y-546015D01*
X52513996Y-574703D01*
X52508645Y-580805D01*
X50750801Y-2338649D01*
X50744698Y-2344000D01*
X50716013Y-2366012D01*
X50691522Y-2397929D01*
X50618476Y-2493123D01*
X50618475Y-2493125D01*
X50594423Y-2551193D01*
X50560538Y-2633002D01*
X50559336Y-2635903D01*
X50557161Y-2641151D01*
X50540957Y-2764241D01*
X50540955Y-2764254D01*
X50536506Y-2798057D01*
X50536250Y-2800000D01*
X50540867Y-2835073D01*
X50540969Y-2835843D01*
X50541500Y-2843945D01*
X50541500Y-16250054D01*
X50540969Y-16258156D01*
X50536250Y-16293998D01*
X47910500Y-16293998D01*
X47910500Y-12302522D01*
X47910000Y-12298081D01*
X47910000Y-8301928D01*
X47910500Y-8297492D01*
X47910500Y2290000D01*
X54990526Y2290000D01*
X55010391Y2037594D01*
X55069495Y1791407D01*
X55166383Y1557498D01*
X55298668Y1341630D01*
X55298669Y1341628D01*
X55298670Y1341626D01*
X55298672Y1341624D01*
X55463102Y1149102D01*
X55655624Y984672D01*
X55655626Y984671D01*
X55655627Y984670D01*
X55655629Y984669D01*
X55871497Y852384D01*
X56105406Y755496D01*
X56105407Y755496D01*
X56105409Y755495D01*
X56351597Y696391D01*
X56604000Y676526D01*
X56856403Y696391D01*
X57102591Y755495D01*
X57336502Y852384D01*
X57552376Y984672D01*
X57744898Y1149102D01*
X57909328Y1341624D01*
X58041616Y1557498D01*
X58138505Y1791409D01*
X58197609Y2037597D01*
X58217474Y2290000D01*
X58197609Y2542403D01*
X58138505Y2788591D01*
X58111084Y2854791D01*
X58041616Y3022503D01*
X57909331Y3238371D01*
X57909330Y3238373D01*
X57909329Y3238374D01*
X57909328Y3238376D01*
X57744898Y3430898D01*
X57552376Y3595328D01*
X57552374Y3595330D01*
X57552372Y3595331D01*
X57552370Y3595332D01*
X57336502Y3727617D01*
X57102593Y3824505D01*
X56856406Y3883609D01*
X56604000Y3903474D01*
X56351593Y3883609D01*
X56105406Y3824505D01*
X55871497Y3727617D01*
X55655629Y3595332D01*
X55655627Y3595331D01*
X55463102Y3430898D01*
X55298669Y3238373D01*
X55298668Y3238371D01*
X55166383Y3022503D01*
X55069495Y2788594D01*
X55010391Y2542407D01*
X54990526Y2290000D01*
X47910500Y2290000D01*
X47910500Y3587563D01*
X47911032Y3595671D01*
X47937602Y3797026D01*
X47939352Y3805579D01*
X47994648Y4003601D01*
X47997584Y4011826D01*
X48080186Y4200116D01*
X48084247Y4207840D01*
X48192501Y4382629D01*
X48197617Y4389716D01*
X48329371Y4547536D01*
X48335439Y4553842D01*
X48416820Y4627269D01*
X48488084Y4691568D01*
X48494958Y4696942D01*
X48665471Y4811841D01*
X48673029Y4816192D01*
X48805195Y4880338D01*
X48857997Y4905963D01*
X48866117Y4909219D01*
X49061861Y4972081D01*
X49070345Y4974159D01*
X49272985Y5008867D01*
X49281690Y5009732D01*
X49483867Y5015500D01*
X49495784Y5015500D01*
X49531420Y5014001D01*
G37*
%TD.AperFunction*%
%TA.AperFunction,Conductor*%
G36*
X116306Y-200588D02*
G01*
X131509Y-201396D01*
X149161Y-202337D01*
X149166Y-202335D01*
X153108Y-201768D01*
X170796Y-200500D01*
X30642991Y-200500D01*
X30710030Y-220185D01*
X30755785Y-272989D01*
X30765729Y-342147D01*
X30736704Y-405703D01*
X30677926Y-443477D01*
X30652725Y-448117D01*
X30585940Y-453373D01*
X30547593Y-456391D01*
X30301406Y-515495D01*
X30067497Y-612383D01*
X29851629Y-744668D01*
X29851627Y-744669D01*
X29659102Y-909102D01*
X29494669Y-1101627D01*
X29494668Y-1101629D01*
X29362383Y-1317497D01*
X29265495Y-1551406D01*
X29206391Y-1797593D01*
X29186526Y-2050000D01*
X29206391Y-2302406D01*
X29265495Y-2548593D01*
X29362383Y-2782502D01*
X29494668Y-2998370D01*
X29494669Y-2998372D01*
X29494670Y-2998374D01*
X29494672Y-2998376D01*
X29655080Y-3186189D01*
X29662266Y-3194602D01*
X29661153Y-3195552D01*
X29691508Y-3251142D01*
X29686524Y-3320834D01*
X29644652Y-3376767D01*
X29579188Y-3401184D01*
X29570342Y-3401500D01*
X19401756Y-3401500D01*
X19365445Y-3396064D01*
X18942788Y-3266623D01*
X18917384Y-3255610D01*
X18531595Y-3034239D01*
X18505629Y-3014369D01*
X17316717Y-1825457D01*
X17306564Y-1812785D01*
X17306388Y-1812931D01*
X17301419Y-1806926D01*
X17301416Y-1806920D01*
X17275754Y-1782822D01*
X17248315Y-1757054D01*
X17226333Y-1735072D01*
X17220439Y-1730501D01*
X17216002Y-1726711D01*
X17185891Y-1698435D01*
X17180131Y-1693026D01*
X17161200Y-1682619D01*
X17144948Y-1671944D01*
X17127868Y-1658696D01*
X17127864Y-1658694D01*
X17082702Y-1639150D01*
X17077455Y-1636580D01*
X17034337Y-1612875D01*
X17034338Y-1612875D01*
X17013411Y-1607502D01*
X16995006Y-1601201D01*
X16975174Y-1592619D01*
X16926569Y-1584921D01*
X16920847Y-1583736D01*
X16887188Y-1575094D01*
X16873188Y-1571500D01*
X16873187Y-1571500D01*
X16851581Y-1571500D01*
X16832183Y-1569973D01*
X16823603Y-1568614D01*
X16810849Y-1566594D01*
X16810848Y-1566594D01*
X16761855Y-1571225D01*
X16756019Y-1571500D01*
X6796443Y-1571500D01*
X6753912Y-1563978D01*
X6128841Y-1335740D01*
X6087407Y-1322570D01*
X6087406Y-1322569D01*
X6086434Y-1322450D01*
X6065609Y-1318042D01*
X6063812Y-1317497D01*
X6013340Y-1302186D01*
X5957900Y-1285368D01*
X5770000Y-1266862D01*
X5582098Y-1285368D01*
X5401421Y-1340177D01*
X5234914Y-1429176D01*
X5234907Y-1429180D01*
X5088958Y-1548958D01*
X4969180Y-1694907D01*
X4969176Y-1694914D01*
X4880177Y-1861421D01*
X4825368Y-2042098D01*
X4806862Y-2230000D01*
X4825368Y-2417901D01*
X4880177Y-2598578D01*
X4969176Y-2765085D01*
X4969180Y-2765092D01*
X5088958Y-2911041D01*
X5234907Y-3030819D01*
X5234910Y-3030821D01*
X5296676Y-3063835D01*
X5363856Y-3099743D01*
X5382603Y-3109763D01*
X5386778Y-3112209D01*
X5395825Y-3117995D01*
X5999618Y-3392074D01*
X6036045Y-3417305D01*
X6433280Y-3814540D01*
X6443430Y-3827208D01*
X6443606Y-3827064D01*
X6448580Y-3833076D01*
X6448583Y-3833079D01*
X6448584Y-3833080D01*
X6458987Y-3842849D01*
X6501685Y-3882946D01*
X6523661Y-3904922D01*
X6529551Y-3909491D01*
X6533994Y-3913286D01*
X6569864Y-3946970D01*
X6569866Y-3946971D01*
X6569867Y-3946972D01*
X6588803Y-3957382D01*
X6605049Y-3968053D01*
X6622132Y-3981304D01*
X6663432Y-3999176D01*
X6667296Y-4000848D01*
X6672544Y-4003420D01*
X6704234Y-4020840D01*
X6715663Y-4027124D01*
X6731823Y-4031272D01*
X6736583Y-4032495D01*
X6754986Y-4038795D01*
X6774824Y-4047380D01*
X6811960Y-4053261D01*
X6823431Y-4055078D01*
X6829146Y-4056261D01*
X6876812Y-4068500D01*
X6898419Y-4068500D01*
X6917816Y-4070026D01*
X6939152Y-4073406D01*
X6988144Y-4068774D01*
X6993981Y-4068500D01*
X8866399Y-4068500D01*
X8933438Y-4088185D01*
X8979193Y-4140989D01*
X8989137Y-4210147D01*
X8962253Y-4271163D01*
X8959184Y-4274902D01*
X8959176Y-4274914D01*
X8870177Y-4441421D01*
X8815368Y-4622098D01*
X8796862Y-4810000D01*
X8815367Y-4997897D01*
X8841046Y-5082549D01*
X8844655Y-5101522D01*
X8845088Y-5101456D01*
X8845762Y-5105842D01*
X8931725Y-5483304D01*
X8991239Y-5744632D01*
X8998404Y-5776091D01*
X9001500Y-5803626D01*
X9001500Y-5964456D01*
X8981815Y-6031495D01*
X8965181Y-6052137D01*
X7941341Y-7075976D01*
X7880018Y-7109461D01*
X7826126Y-7109199D01*
X7415840Y-7015762D01*
X7400326Y-7012404D01*
X7400349Y-7012295D01*
X7387119Y-7009398D01*
X7307899Y-6985368D01*
X7120000Y-6966862D01*
X6932098Y-6985368D01*
X6751421Y-7040177D01*
X6584914Y-7129176D01*
X6584907Y-7129180D01*
X6438958Y-7248958D01*
X6319180Y-7394907D01*
X6319176Y-7394914D01*
X6230177Y-7561421D01*
X6175368Y-7742098D01*
X6156862Y-7930000D01*
X6175367Y-8117897D01*
X6199745Y-8198259D01*
X6203871Y-8216955D01*
X6204223Y-8219456D01*
X6301931Y-8674790D01*
X6347789Y-8888496D01*
X6348740Y-8892925D01*
X6351500Y-8918941D01*
X6351500Y-11754000D01*
X6347608Y-11784822D01*
X6179388Y-12440338D01*
X6175192Y-12457976D01*
X6174031Y-12465484D01*
X6172088Y-12474011D01*
X6145368Y-12562100D01*
X6126862Y-12750000D01*
X6145368Y-12937901D01*
X6200177Y-13118578D01*
X6289176Y-13285085D01*
X6289180Y-13285092D01*
X6408958Y-13431041D01*
X6554907Y-13550819D01*
X6554914Y-13550823D01*
X6721421Y-13639822D01*
X6721423Y-13639823D01*
X6902101Y-13694632D01*
X7090000Y-13713138D01*
X7277899Y-13694632D01*
X7458577Y-13639823D01*
X7625091Y-13550820D01*
X7771041Y-13431041D01*
X7890820Y-13285091D01*
X7979823Y-13118577D01*
X8034632Y-12937899D01*
X8053138Y-12750000D01*
X8034632Y-12562101D01*
X8011323Y-12485267D01*
X8008339Y-12471314D01*
X8008120Y-12471359D01*
X8005424Y-12457972D01*
X7915749Y-12012614D01*
X7870940Y-11790079D01*
X7868500Y-11765602D01*
X7868500Y-8924740D01*
X7871983Y-8895558D01*
X7873692Y-8888500D01*
X7893678Y-8805959D01*
X7928586Y-8745436D01*
X7986658Y-8714239D01*
X8079079Y-8693191D01*
X8124580Y-8691406D01*
X8137789Y-8693341D01*
X8190426Y-8688735D01*
X8195828Y-8688500D01*
X8204175Y-8688500D01*
X8204180Y-8688500D01*
X8227835Y-8685734D01*
X8237096Y-8684652D01*
X8314419Y-8677888D01*
X8314422Y-8677887D01*
X8314426Y-8677887D01*
X8314429Y-8677885D01*
X8321493Y-8676427D01*
X8321502Y-8676474D01*
X8329097Y-8674790D01*
X8329087Y-8674744D01*
X8336107Y-8673079D01*
X8336113Y-8673079D01*
X8409065Y-8646526D01*
X8482738Y-8622114D01*
X8482746Y-8622108D01*
X8489284Y-8619061D01*
X8489305Y-8619106D01*
X8496302Y-8615719D01*
X8496280Y-8615675D01*
X8502729Y-8612436D01*
X8502728Y-8612436D01*
X8502732Y-8612435D01*
X8567605Y-8569766D01*
X8633651Y-8529030D01*
X8633655Y-8529025D01*
X8639319Y-8524548D01*
X8639350Y-8524587D01*
X8645374Y-8519680D01*
X8645342Y-8519642D01*
X8650864Y-8515007D01*
X8650874Y-8515001D01*
X8694443Y-8468820D01*
X8704163Y-8458518D01*
X10099819Y-7062861D01*
X10161142Y-7029376D01*
X10230834Y-7034360D01*
X10286767Y-7076232D01*
X10311184Y-7141696D01*
X10311500Y-7150542D01*
X10311500Y-17744781D01*
X10291815Y-17811820D01*
X10239011Y-17857575D01*
X10227763Y-17862062D01*
X10112433Y-17901655D01*
X10112419Y-17901661D01*
X9914427Y-18008808D01*
X9914422Y-18008812D01*
X9736761Y-18147092D01*
X9736756Y-18147097D01*
X9584284Y-18312723D01*
X9584276Y-18312734D01*
X9493808Y-18451206D01*
X9440662Y-18496562D01*
X9371431Y-18505986D01*
X9308095Y-18476484D01*
X9286192Y-18451206D01*
X9217092Y-18345441D01*
X9195722Y-18312732D01*
X9195719Y-18312729D01*
X9195715Y-18312723D01*
X9043243Y-18147097D01*
X9043238Y-18147092D01*
X8865577Y-18008812D01*
X8865572Y-18008808D01*
X8667580Y-17901661D01*
X8667577Y-17901659D01*
X8667574Y-17901658D01*
X8667571Y-17901657D01*
X8667569Y-17901656D01*
X8454637Y-17828556D01*
X8232569Y-17791500D01*
X8007431Y-17791500D01*
X7785362Y-17828556D01*
X7572430Y-17901656D01*
X7572419Y-17901661D01*
X7374427Y-18008808D01*
X7374422Y-18008812D01*
X7196761Y-18147092D01*
X7196756Y-18147097D01*
X7044284Y-18312723D01*
X7044276Y-18312734D01*
X6953808Y-18451206D01*
X6900662Y-18496562D01*
X6831431Y-18505986D01*
X6768095Y-18476484D01*
X6746192Y-18451206D01*
X6677092Y-18345441D01*
X6655722Y-18312732D01*
X6655719Y-18312729D01*
X6655715Y-18312723D01*
X6503243Y-18147097D01*
X6503238Y-18147092D01*
X6325577Y-18008812D01*
X6325572Y-18008808D01*
X6127580Y-17901661D01*
X6127577Y-17901659D01*
X6127574Y-17901658D01*
X6127571Y-17901657D01*
X6127569Y-17901656D01*
X5914637Y-17828556D01*
X5692569Y-17791500D01*
X5467431Y-17791500D01*
X5245362Y-17828556D01*
X5032430Y-17901656D01*
X5032419Y-17901661D01*
X4834427Y-18008808D01*
X4834422Y-18008812D01*
X4656761Y-18147092D01*
X4587092Y-18222773D01*
X4527205Y-18258763D01*
X4457367Y-18256662D01*
X4399751Y-18217137D01*
X4379681Y-18182122D01*
X4333354Y-18057913D01*
X4333350Y-18057906D01*
X4247190Y-17942812D01*
X4247187Y-17942809D01*
X4132093Y-17856649D01*
X4132086Y-17856645D01*
X3997379Y-17806403D01*
X3997372Y-17806401D01*
X3937844Y-17800000D01*
X3290000Y-17800000D01*
X3290000Y-18714498D01*
X3182315Y-18665320D01*
X3075763Y-18650000D01*
X3004237Y-18650000D01*
X2897685Y-18665320D01*
X2790000Y-18714498D01*
X2790000Y-17800000D01*
X2142155Y-17800000D01*
X2082627Y-17806401D01*
X2082620Y-17806403D01*
X1947913Y-17856645D01*
X1947906Y-17856649D01*
X1832812Y-17942809D01*
X1832809Y-17942812D01*
X1746649Y-18057906D01*
X1746645Y-18057913D01*
X1696403Y-18192620D01*
X1696401Y-18192627D01*
X1690000Y-18252155D01*
X1690000Y-18900000D01*
X2606314Y-18900000D01*
X2580507Y-18940156D01*
X2540000Y-19078111D01*
X2540000Y-19221889D01*
X2580507Y-19359844D01*
X2606314Y-19400000D01*
X1690000Y-19400000D01*
X1690000Y-20047844D01*
X1696401Y-20107372D01*
X1696403Y-20107379D01*
X1742946Y-20232167D01*
X1747930Y-20301858D01*
X1714445Y-20363182D01*
X1653122Y-20396666D01*
X1626764Y-20399500D01*
X170712Y-20399500D01*
X152567Y-20398165D01*
X149916Y-20397772D01*
X121922Y-20399158D01*
X116563Y-20399424D01*
X113505Y-20399500D01*
X102881Y-20399500D01*
X-60796Y-20393931D01*
X-81334Y-20391507D01*
X-238703Y-20359446D01*
X-258553Y-20353642D01*
X-408404Y-20295872D01*
X-427013Y-20286850D01*
X-565184Y-20204975D01*
X-582035Y-20192984D01*
X-704668Y-20089290D01*
X-719291Y-20074667D01*
X-822985Y-19952034D01*
X-834976Y-19935183D01*
X-868518Y-19878578D01*
X-916854Y-19797006D01*
X-925870Y-19778409D01*
X-983644Y-19628549D01*
X-989447Y-19608702D01*
X-992509Y-19593674D01*
X-1021509Y-19451331D01*
X-1023932Y-19430795D01*
X-1024784Y-19405762D01*
X-1029500Y-19267118D01*
X-1029500Y-19256495D01*
X-1029424Y-19253429D01*
X-1029005Y-19244978D01*
X-1027773Y-19220084D01*
X-1027773Y-19220083D01*
X-1028165Y-19217433D01*
X-1029500Y-19199288D01*
X-1029500Y-18964823D01*
X-1009815Y-18897784D01*
X-957011Y-18852029D01*
X-887853Y-18842085D01*
X-824297Y-18871110D01*
X-792703Y-18913317D01*
X-787108Y-18925570D01*
X-780641Y-18943134D01*
X-778078Y-18952141D01*
X-778072Y-18952157D01*
X-740589Y-19027431D01*
X-704361Y-19106762D01*
X-704353Y-19106776D01*
X-699121Y-19114123D01*
X-689132Y-19130771D01*
X-686504Y-19136048D01*
X-686502Y-19136052D01*
X-668118Y-19160396D01*
X-633957Y-19205632D01*
X-590173Y-19267118D01*
X-581555Y-19279220D01*
X-577541Y-19283047D01*
X-564163Y-19298057D01*
X-562708Y-19299983D01*
X-562700Y-19299993D01*
X-495961Y-19360833D01*
X-428353Y-19425297D01*
X-428352Y-19425298D01*
X-428350Y-19425299D01*
X-428346Y-19425303D01*
X-426602Y-19426424D01*
X-415481Y-19434970D01*
X-415456Y-19434938D01*
X-410881Y-19438393D01*
X-389982Y-19451333D01*
X-331446Y-19487577D01*
X-250254Y-19539756D01*
X-250252Y-19539757D01*
X-245000Y-19542465D01*
X-245034Y-19542529D01*
X-241512Y-19544308D01*
X-241350Y-19543984D01*
X-236227Y-19546534D01*
X-236218Y-19546540D01*
X-146218Y-19581405D01*
X-53721Y-19618436D01*
X-53483Y-19618482D01*
X-48248Y-19619729D01*
X-44664Y-19620748D01*
X-44662Y-19620748D01*
X-44655Y-19620751D01*
X53229Y-19639048D01*
X102222Y-19648491D01*
X154145Y-19658499D01*
X154146Y-19658499D01*
X154151Y-19658500D01*
X154156Y-19658500D01*
X362716Y-19658500D01*
X362718Y-19658500D01*
X412132Y-19649262D01*
X417575Y-19648494D01*
X470739Y-19643419D01*
X515668Y-19630225D01*
X521720Y-19628776D01*
X564655Y-19620751D01*
X614560Y-19601417D01*
X619487Y-19599743D01*
X657603Y-19588550D01*
X673862Y-19583777D01*
X712544Y-19563834D01*
X718550Y-19561131D01*
X756218Y-19546540D01*
X804526Y-19516627D01*
X808748Y-19514236D01*
X862026Y-19486771D01*
X893656Y-19461896D01*
X899336Y-19457923D01*
X930882Y-19438392D01*
X975310Y-19397889D01*
X978721Y-19395000D01*
X1028432Y-19355908D01*
X1052627Y-19327984D01*
X1057708Y-19322774D01*
X1082701Y-19299991D01*
X1120893Y-19249414D01*
X1123514Y-19246177D01*
X1124553Y-19244978D01*
X1167065Y-19195918D01*
X1183897Y-19166761D01*
X1188111Y-19160403D01*
X1206503Y-19136050D01*
X1236221Y-19076366D01*
X1238022Y-19073014D01*
X1272913Y-19012582D01*
X1282846Y-18983881D01*
X1285925Y-18976547D01*
X1298074Y-18952152D01*
X1317224Y-18884842D01*
X1318248Y-18881593D01*
X1342153Y-18812527D01*
X1346006Y-18785722D01*
X1347738Y-18777597D01*
X1354294Y-18754559D01*
X1361051Y-18681636D01*
X1361416Y-18678550D01*
X1365521Y-18650000D01*
X1372281Y-18602984D01*
X1371149Y-18579236D01*
X1371342Y-18570564D01*
X1373249Y-18550000D01*
X1366191Y-18473839D01*
X1365996Y-18471067D01*
X1363559Y-18419905D01*
X1362208Y-18391526D01*
X1358441Y-18376002D01*
X1355478Y-18358229D01*
X1354294Y-18345441D01*
X1332127Y-18267534D01*
X1312298Y-18185796D01*
X1307107Y-18174430D01*
X1300636Y-18156853D01*
X1300460Y-18156235D01*
X1298074Y-18147848D01*
X1267981Y-18087415D01*
X1260588Y-18072567D01*
X1231472Y-18008811D01*
X1224356Y-17993229D01*
X1224355Y-17993228D01*
X1224354Y-17993225D01*
X1219121Y-17985877D01*
X1209129Y-17969224D01*
X1206503Y-17963950D01*
X1153956Y-17894367D01*
X1101559Y-17820785D01*
X1098111Y-17817497D01*
X1097546Y-17816958D01*
X1084153Y-17801931D01*
X1082708Y-17800018D01*
X1082706Y-17800016D01*
X1082701Y-17800009D01*
X1051983Y-17772006D01*
X1015959Y-17739165D01*
X948343Y-17674694D01*
X946601Y-17673575D01*
X935480Y-17665029D01*
X935456Y-17665062D01*
X930880Y-17661606D01*
X892906Y-17638094D01*
X851445Y-17612422D01*
X806239Y-17583370D01*
X770260Y-17560247D01*
X764999Y-17557535D01*
X765032Y-17557470D01*
X761512Y-17555692D01*
X761351Y-17556016D01*
X756222Y-17553462D01*
X756219Y-17553461D01*
X756218Y-17553460D01*
X666217Y-17518594D01*
X613302Y-17497410D01*
X573727Y-17481566D01*
X573714Y-17481562D01*
X573470Y-17481515D01*
X568257Y-17480273D01*
X564667Y-17479252D01*
X564658Y-17479250D01*
X564655Y-17479249D01*
X466770Y-17460951D01*
X413749Y-17450732D01*
X365850Y-17441500D01*
X365849Y-17441500D01*
X362718Y-17441500D01*
X157282Y-17441500D01*
X157276Y-17441500D01*
X107885Y-17450732D01*
X102386Y-17451507D01*
X49265Y-17456580D01*
X49261Y-17456580D01*
X49261Y-17456581D01*
X40001Y-17459300D01*
X4348Y-17469768D01*
X-1729Y-17471224D01*
X-44649Y-17479247D01*
X-44662Y-17479250D01*
X-94562Y-17498582D01*
X-99491Y-17500257D01*
X-153860Y-17516222D01*
X-192541Y-17536162D01*
X-198555Y-17538868D01*
X-236219Y-17553460D01*
X-236220Y-17553460D01*
X-284526Y-17583370D01*
X-288755Y-17585764D01*
X-342023Y-17613226D01*
X-373646Y-17638094D01*
X-379335Y-17642073D01*
X-410884Y-17661609D01*
X-455292Y-17702091D01*
X-458734Y-17705006D01*
X-508435Y-17744093D01*
X-532623Y-17772006D01*
X-537710Y-17777224D01*
X-562699Y-17800006D01*
X-600889Y-17850576D01*
X-603509Y-17853813D01*
X-647064Y-17904079D01*
X-663896Y-17933233D01*
X-668116Y-17939601D01*
X-686504Y-17963951D01*
X-686509Y-17963960D01*
X-716219Y-18023622D01*
X-718024Y-18026985D01*
X-752912Y-18087415D01*
X-762842Y-18116103D01*
X-765933Y-18123463D01*
X-778072Y-18147842D01*
X-778074Y-18147846D01*
X-778074Y-18147848D01*
X-785560Y-18174160D01*
X-786234Y-18176528D01*
X-823514Y-18235621D01*
X-886824Y-18265178D01*
X-956064Y-18255814D01*
X-1009250Y-18210504D01*
X-1029496Y-18143632D01*
X-1029500Y-18142592D01*
X-1029500Y-14915000D01*
X-744366Y-14915000D01*
X-744069Y-14916946D01*
X-744067Y-14916952D01*
X-673438Y-15107657D01*
X-673435Y-15107664D01*
X-565851Y-15280267D01*
X-425736Y-15427668D01*
X-425734Y-15427669D01*
X-258805Y-15543856D01*
X-71908Y-15624059D01*
X127310Y-15665000D01*
X429000Y-15665000D01*
X429000Y-14965000D01*
X929000Y-14965000D01*
X929000Y-15665000D01*
X1179713Y-15665000D01*
X1331338Y-15649581D01*
X1525381Y-15588700D01*
X1525391Y-15588695D01*
X1703215Y-15489994D01*
X1703216Y-15489994D01*
X1857530Y-15357521D01*
X1857531Y-15357520D01*
X1982018Y-15196695D01*
X2071588Y-15014093D01*
X2097246Y-14915000D01*
X3355634Y-14915000D01*
X3355931Y-14916946D01*
X3355933Y-14916952D01*
X3426562Y-15107657D01*
X3426565Y-15107664D01*
X3534149Y-15280267D01*
X3674264Y-15427668D01*
X3674266Y-15427669D01*
X3841195Y-15543856D01*
X4028092Y-15624059D01*
X4227310Y-15665000D01*
X4629000Y-15665000D01*
X4629000Y-14965000D01*
X5129000Y-14965000D01*
X5129000Y-15665000D01*
X5479713Y-15665000D01*
X5631338Y-15649581D01*
X5825381Y-15588700D01*
X5825391Y-15588695D01*
X6003215Y-15489994D01*
X6003216Y-15489994D01*
X6157530Y-15357521D01*
X6157531Y-15357520D01*
X6282018Y-15196695D01*
X6371588Y-15014093D01*
X6397246Y-14915000D01*
X5645111Y-14915000D01*
X5684610Y-14890543D01*
X5752201Y-14801038D01*
X5782895Y-14693160D01*
X5772546Y-14581479D01*
X5722552Y-14481078D01*
X5650069Y-14415000D01*
X6402366Y-14415000D01*
X6402068Y-14413053D01*
X6402066Y-14413047D01*
X6331437Y-14222342D01*
X6331434Y-14222335D01*
X6223850Y-14049732D01*
X6083735Y-13902331D01*
X6083733Y-13902330D01*
X5916804Y-13786143D01*
X5729907Y-13705940D01*
X5530690Y-13665000D01*
X5129000Y-13665000D01*
X5129000Y-14365000D01*
X4629000Y-14365000D01*
X4629000Y-13763024D01*
X4648685Y-13695985D01*
X4674742Y-13666839D01*
X4766665Y-13592054D01*
X4849971Y-13474037D01*
X4892856Y-13353369D01*
X4898345Y-13337925D01*
X4898345Y-13337923D01*
X4898346Y-13337921D01*
X4908204Y-13193801D01*
X4878814Y-13052366D01*
X4812354Y-12924105D01*
X4812351Y-12924102D01*
X4812350Y-12924100D01*
X4713754Y-12818530D01*
X4590330Y-12743475D01*
X4590329Y-12743474D01*
X4590328Y-12743474D01*
X4451228Y-12704500D01*
X4343051Y-12704500D01*
X4343050Y-12704500D01*
X4235889Y-12719229D01*
X4103389Y-12776781D01*
X4103389Y-12776782D01*
X3991338Y-12867943D01*
X3991333Y-12867948D01*
X3908028Y-12985963D01*
X3859654Y-13122074D01*
X3859654Y-13122077D01*
X3858393Y-13140520D01*
X3849796Y-13266199D01*
X3866924Y-13348625D01*
X3879186Y-13407634D01*
X3879187Y-13407636D01*
X3945645Y-13535893D01*
X3945649Y-13535899D01*
X3959188Y-13550396D01*
X3990559Y-13612827D01*
X3983197Y-13682308D01*
X3939439Y-13736778D01*
X3928741Y-13743450D01*
X3754784Y-13840004D01*
X3754783Y-13840005D01*
X3600469Y-13972478D01*
X3600468Y-13972479D01*
X3475981Y-14133304D01*
X3386411Y-14315906D01*
X3360754Y-14415000D01*
X4112889Y-14415000D01*
X4073390Y-14439457D01*
X4005799Y-14528962D01*
X3975105Y-14636840D01*
X3985454Y-14748521D01*
X4035448Y-14848922D01*
X4107931Y-14915000D01*
X3355634Y-14915000D01*
X2097246Y-14915000D01*
X1295111Y-14915000D01*
X1334610Y-14890543D01*
X1402201Y-14801038D01*
X1432895Y-14693160D01*
X1422546Y-14581479D01*
X1372552Y-14481078D01*
X1300069Y-14415000D01*
X2102366Y-14415000D01*
X2102068Y-14413053D01*
X2102066Y-14413047D01*
X2031437Y-14222342D01*
X2031434Y-14222335D01*
X1923850Y-14049732D01*
X1783735Y-13902331D01*
X1783733Y-13902330D01*
X1616804Y-13786143D01*
X1429907Y-13705940D01*
X1230690Y-13665000D01*
X929000Y-13665000D01*
X929000Y-14365000D01*
X429000Y-14365000D01*
X429000Y-13665000D01*
X178287Y-13665000D01*
X26661Y-13680418D01*
X-167382Y-13741299D01*
X-167392Y-13741304D01*
X-345216Y-13840005D01*
X-345217Y-13840005D01*
X-499531Y-13972478D01*
X-499532Y-13972479D01*
X-624019Y-14133304D01*
X-713589Y-14315906D01*
X-739246Y-14415000D01*
X62889Y-14415000D01*
X23390Y-14439457D01*
X-44201Y-14528962D01*
X-74895Y-14636840D01*
X-64546Y-14748521D01*
X-14552Y-14848922D01*
X57931Y-14915000D01*
X-744366Y-14915000D01*
X-1029500Y-14915000D01*
X-1029500Y-6265000D01*
X-744366Y-6265000D01*
X-744069Y-6266946D01*
X-744067Y-6266952D01*
X-673438Y-6457657D01*
X-673435Y-6457664D01*
X-565851Y-6630267D01*
X-425736Y-6777668D01*
X-425734Y-6777669D01*
X-258805Y-6893856D01*
X-71908Y-6974059D01*
X127310Y-7015000D01*
X429000Y-7015000D01*
X429000Y-6315000D01*
X929000Y-6315000D01*
X929000Y-7015000D01*
X1179713Y-7015000D01*
X1331338Y-6999581D01*
X1525381Y-6938700D01*
X1525391Y-6938695D01*
X1703215Y-6839994D01*
X1703216Y-6839994D01*
X1857530Y-6707521D01*
X1857531Y-6707520D01*
X1982018Y-6546695D01*
X2071588Y-6364093D01*
X2097246Y-6265000D01*
X3355634Y-6265000D01*
X3355931Y-6266946D01*
X3355933Y-6266952D01*
X3426562Y-6457657D01*
X3426565Y-6457664D01*
X3534149Y-6630267D01*
X3674264Y-6777668D01*
X3674266Y-6777669D01*
X3841196Y-6893857D01*
X3920882Y-6928052D01*
X3974726Y-6972578D01*
X3995950Y-7039146D01*
X3977815Y-7106621D01*
X3973288Y-7113511D01*
X3908028Y-7205963D01*
X3859654Y-7342074D01*
X3859654Y-7342077D01*
X3859654Y-7342079D01*
X3849796Y-7486199D01*
X3866071Y-7564518D01*
X3879186Y-7627634D01*
X3879187Y-7627636D01*
X3945645Y-7755893D01*
X3945649Y-7755899D01*
X4013093Y-7828113D01*
X4044245Y-7861469D01*
X4167672Y-7936526D01*
X4306772Y-7975500D01*
X4306773Y-7975500D01*
X4414950Y-7975500D01*
X4426502Y-7973911D01*
X4522111Y-7960771D01*
X4654609Y-7903219D01*
X4766665Y-7812054D01*
X4849971Y-7694037D01*
X4896001Y-7564519D01*
X4898345Y-7557925D01*
X4898345Y-7557923D01*
X4898346Y-7557921D01*
X4908204Y-7413801D01*
X4878814Y-7272366D01*
X4812354Y-7144105D01*
X4812351Y-7144102D01*
X4812350Y-7144100D01*
X4713755Y-7038531D01*
X4688571Y-7023216D01*
X4641519Y-6971564D01*
X4629000Y-6917268D01*
X4629000Y-6315000D01*
X5129000Y-6315000D01*
X5129000Y-7015000D01*
X5479713Y-7015000D01*
X5631338Y-6999581D01*
X5825381Y-6938700D01*
X5825391Y-6938695D01*
X6003215Y-6839994D01*
X6003216Y-6839994D01*
X6157530Y-6707521D01*
X6157531Y-6707520D01*
X6282018Y-6546695D01*
X6371588Y-6364093D01*
X6397246Y-6265000D01*
X5645111Y-6265000D01*
X5684610Y-6240543D01*
X5752201Y-6151038D01*
X5782895Y-6043160D01*
X5772546Y-5931479D01*
X5722552Y-5831078D01*
X5650069Y-5765000D01*
X6402366Y-5765000D01*
X6402068Y-5763053D01*
X6402066Y-5763047D01*
X6331437Y-5572342D01*
X6331434Y-5572335D01*
X6223850Y-5399732D01*
X6083735Y-5252331D01*
X6083733Y-5252330D01*
X5916804Y-5136143D01*
X5729907Y-5055940D01*
X5530690Y-5015000D01*
X5129000Y-5015000D01*
X5129000Y-5715000D01*
X4629000Y-5715000D01*
X4629000Y-5015000D01*
X4278287Y-5015000D01*
X4126661Y-5030418D01*
X3932618Y-5091299D01*
X3932608Y-5091304D01*
X3754784Y-5190005D01*
X3754783Y-5190005D01*
X3600469Y-5322478D01*
X3600468Y-5322479D01*
X3475981Y-5483304D01*
X3386411Y-5665906D01*
X3360754Y-5765000D01*
X4112889Y-5765000D01*
X4073390Y-5789457D01*
X4005799Y-5878962D01*
X3975105Y-5986840D01*
X3985454Y-6098521D01*
X4035448Y-6198922D01*
X4107931Y-6265000D01*
X3355634Y-6265000D01*
X2097246Y-6265000D01*
X1295111Y-6265000D01*
X1334610Y-6240543D01*
X1402201Y-6151038D01*
X1432895Y-6043160D01*
X1422546Y-5931479D01*
X1372552Y-5831078D01*
X1300069Y-5765000D01*
X2102366Y-5765000D01*
X2102068Y-5763053D01*
X2102066Y-5763047D01*
X2031437Y-5572342D01*
X2031434Y-5572335D01*
X1923850Y-5399732D01*
X1783735Y-5252331D01*
X1783733Y-5252330D01*
X1616804Y-5136143D01*
X1429907Y-5055940D01*
X1230690Y-5015000D01*
X929000Y-5015000D01*
X929000Y-5715000D01*
X429000Y-5715000D01*
X429000Y-5015000D01*
X178287Y-5015000D01*
X26661Y-5030418D01*
X-167382Y-5091299D01*
X-167392Y-5091304D01*
X-345216Y-5190005D01*
X-345217Y-5190005D01*
X-499531Y-5322478D01*
X-499532Y-5322479D01*
X-624019Y-5483304D01*
X-713589Y-5665906D01*
X-739246Y-5765000D01*
X62889Y-5765000D01*
X23390Y-5789457D01*
X-44201Y-5878962D01*
X-74895Y-5986840D01*
X-64546Y-6098521D01*
X-14552Y-6198922D01*
X57931Y-6265000D01*
X-744366Y-6265000D01*
X-1029500Y-6265000D01*
X-1029500Y-2464823D01*
X-1009815Y-2397784D01*
X-957011Y-2352029D01*
X-887853Y-2342085D01*
X-824297Y-2371110D01*
X-792703Y-2413317D01*
X-787108Y-2425570D01*
X-780641Y-2443134D01*
X-778078Y-2452141D01*
X-778072Y-2452157D01*
X-740589Y-2527431D01*
X-704361Y-2606762D01*
X-704353Y-2606776D01*
X-699121Y-2614123D01*
X-689132Y-2630771D01*
X-686577Y-2635902D01*
X-686502Y-2636052D01*
X-682652Y-2641150D01*
X-633957Y-2705632D01*
X-581559Y-2779215D01*
X-581555Y-2779220D01*
X-577541Y-2783047D01*
X-564163Y-2798057D01*
X-562708Y-2799983D01*
X-562700Y-2799993D01*
X-495961Y-2860833D01*
X-428353Y-2925297D01*
X-428352Y-2925298D01*
X-428350Y-2925299D01*
X-428346Y-2925303D01*
X-426602Y-2926424D01*
X-415481Y-2934970D01*
X-415456Y-2934938D01*
X-410881Y-2938393D01*
X-396831Y-2947092D01*
X-331446Y-2987577D01*
X-251651Y-3038858D01*
X-250252Y-3039757D01*
X-245000Y-3042465D01*
X-245034Y-3042529D01*
X-241512Y-3044308D01*
X-241350Y-3043984D01*
X-236227Y-3046534D01*
X-236218Y-3046540D01*
X-146218Y-3081405D01*
X-53721Y-3118436D01*
X-53483Y-3118482D01*
X-48248Y-3119729D01*
X-44664Y-3120748D01*
X-44662Y-3120748D01*
X-44655Y-3120751D01*
X53229Y-3139048D01*
X75902Y-3143418D01*
X154145Y-3158499D01*
X154146Y-3158499D01*
X154151Y-3158500D01*
X154156Y-3158500D01*
X362716Y-3158500D01*
X362718Y-3158500D01*
X412132Y-3149262D01*
X417575Y-3148494D01*
X470739Y-3143419D01*
X515668Y-3130225D01*
X521720Y-3128776D01*
X564655Y-3120751D01*
X614560Y-3101417D01*
X619487Y-3099743D01*
X657603Y-3088550D01*
X673862Y-3083777D01*
X712544Y-3063834D01*
X718550Y-3061131D01*
X756218Y-3046540D01*
X804526Y-3016627D01*
X808748Y-3014236D01*
X862026Y-2986771D01*
X893656Y-2961896D01*
X899336Y-2957923D01*
X930882Y-2938392D01*
X975310Y-2897889D01*
X978721Y-2895000D01*
X1028432Y-2855908D01*
X1052627Y-2827984D01*
X1057708Y-2822774D01*
X1073024Y-2808812D01*
X1082701Y-2799991D01*
X1120893Y-2749414D01*
X1123514Y-2746177D01*
X1129009Y-2739836D01*
X1167065Y-2695918D01*
X1183897Y-2666761D01*
X1188111Y-2660403D01*
X1206503Y-2636050D01*
X1236221Y-2576366D01*
X1238022Y-2573014D01*
X1239217Y-2570945D01*
X1272913Y-2512582D01*
X1282846Y-2483881D01*
X1285925Y-2476547D01*
X1298074Y-2452152D01*
X1317224Y-2384842D01*
X1318248Y-2381593D01*
X1342153Y-2312527D01*
X1346006Y-2285722D01*
X1347738Y-2277597D01*
X1354294Y-2254559D01*
X1361051Y-2181636D01*
X1361416Y-2178550D01*
X1365740Y-2148476D01*
X1372281Y-2102984D01*
X1371149Y-2079236D01*
X1371342Y-2070564D01*
X1373249Y-2050000D01*
X1366191Y-1973839D01*
X1365996Y-1971067D01*
X1365504Y-1960745D01*
X1362208Y-1891526D01*
X1358441Y-1876002D01*
X1355478Y-1858229D01*
X1354294Y-1845441D01*
X1332127Y-1767534D01*
X1312298Y-1685796D01*
X1307107Y-1674430D01*
X1300636Y-1656853D01*
X1300460Y-1656235D01*
X1298074Y-1647848D01*
X1270573Y-1592620D01*
X1260588Y-1572567D01*
X1224354Y-1493225D01*
X1219121Y-1485877D01*
X1209129Y-1469224D01*
X1206503Y-1463950D01*
X1153956Y-1394367D01*
X1101559Y-1320785D01*
X1101554Y-1320780D01*
X1097546Y-1316958D01*
X1084153Y-1301931D01*
X1082708Y-1300018D01*
X1082706Y-1300016D01*
X1082701Y-1300009D01*
X1036346Y-1257751D01*
X1015959Y-1239165D01*
X948343Y-1174694D01*
X946601Y-1173575D01*
X935480Y-1165029D01*
X935456Y-1165062D01*
X930880Y-1161606D01*
X892906Y-1138094D01*
X851445Y-1112422D01*
X806239Y-1083370D01*
X770260Y-1060247D01*
X764999Y-1057535D01*
X765032Y-1057470D01*
X761512Y-1055692D01*
X761351Y-1056016D01*
X756222Y-1053462D01*
X756219Y-1053461D01*
X756218Y-1053460D01*
X666217Y-1018594D01*
X582424Y-985048D01*
X573727Y-981566D01*
X573714Y-981562D01*
X573470Y-981515D01*
X568257Y-980273D01*
X564667Y-979252D01*
X564658Y-979250D01*
X564655Y-979249D01*
X466770Y-960951D01*
X413749Y-950732D01*
X365850Y-941500D01*
X365849Y-941500D01*
X362718Y-941500D01*
X157282Y-941500D01*
X157276Y-941500D01*
X107885Y-950732D01*
X102386Y-951507D01*
X49265Y-956580D01*
X49261Y-956580D01*
X49261Y-956581D01*
X34378Y-960951D01*
X4348Y-969768D01*
X-1729Y-971224D01*
X-44649Y-979247D01*
X-44662Y-979250D01*
X-94562Y-998582D01*
X-99491Y-1000257D01*
X-153860Y-1016222D01*
X-192541Y-1036162D01*
X-198555Y-1038868D01*
X-236219Y-1053460D01*
X-236220Y-1053460D01*
X-284526Y-1083370D01*
X-288755Y-1085764D01*
X-342023Y-1113226D01*
X-373646Y-1138094D01*
X-379335Y-1142073D01*
X-410884Y-1161609D01*
X-455292Y-1202091D01*
X-458734Y-1205006D01*
X-508435Y-1244093D01*
X-532623Y-1272006D01*
X-537710Y-1277224D01*
X-562699Y-1300006D01*
X-600889Y-1350576D01*
X-603509Y-1353813D01*
X-647064Y-1404079D01*
X-663896Y-1433233D01*
X-668116Y-1439601D01*
X-686504Y-1463951D01*
X-686509Y-1463960D01*
X-716219Y-1523622D01*
X-718024Y-1526985D01*
X-752912Y-1587415D01*
X-762842Y-1616103D01*
X-765933Y-1623463D01*
X-778072Y-1647842D01*
X-778074Y-1647846D01*
X-778074Y-1647848D01*
X-784928Y-1671939D01*
X-786234Y-1676528D01*
X-823514Y-1735621D01*
X-886824Y-1765178D01*
X-956064Y-1755814D01*
X-1009250Y-1710504D01*
X-1029496Y-1643632D01*
X-1029500Y-1642592D01*
X-1029500Y-1257751D01*
X-1029108Y-1250788D01*
X-1009211Y-1074862D01*
X-1004808Y-1053310D01*
X-956131Y-890446D01*
X-947977Y-869994D01*
X-897794Y-770769D01*
X-871265Y-718314D01*
X-859631Y-699638D01*
X-757290Y-563906D01*
X-742537Y-547584D01*
X-617803Y-432095D01*
X-600393Y-418638D01*
X-457208Y-327037D01*
X-437687Y-316868D01*
X-280553Y-252036D01*
X-259545Y-245482D01*
X-93418Y-209465D01*
X-71579Y-206730D01*
X102920Y-200500D01*
X113009Y-200500D01*
X116306Y-200588D01*
G37*
%TD.AperFunction*%
%TA.AperFunction,Conductor*%
G36*
X17172082Y-15011691D02*
G01*
X17228015Y-15053563D01*
X17247825Y-15093282D01*
X17255463Y-15119575D01*
X17259407Y-15138618D01*
X17262116Y-15160053D01*
X17262117Y-15160057D01*
X17262118Y-15160064D01*
X17266114Y-15170156D01*
X17280234Y-15205822D01*
X17282125Y-15211348D01*
X17294465Y-15253816D01*
X17295855Y-15258600D01*
X17303156Y-15270946D01*
X17306850Y-15277191D01*
X17315410Y-15294665D01*
X17323363Y-15314754D01*
X17352289Y-15354565D01*
X17355490Y-15359437D01*
X17380547Y-15401807D01*
X17380551Y-15401811D01*
X17395821Y-15417081D01*
X17408459Y-15431877D01*
X17421159Y-15449357D01*
X17421163Y-15449361D01*
X17459078Y-15480727D01*
X17463389Y-15484649D01*
X19346131Y-17367391D01*
X21228563Y-19249823D01*
X21253318Y-19285215D01*
X21533923Y-19888597D01*
X21553930Y-19927245D01*
X21553935Y-19927253D01*
X21554520Y-19928002D01*
X21566139Y-19945858D01*
X21619178Y-20045089D01*
X21619180Y-20045092D01*
X21742823Y-20195750D01*
X21740919Y-20197312D01*
X21769221Y-20249142D01*
X21764237Y-20318834D01*
X21722365Y-20374767D01*
X21656901Y-20399184D01*
X21648055Y-20399500D01*
X11627616Y-20399500D01*
X11560577Y-20379815D01*
X11514822Y-20327011D01*
X11504878Y-20257853D01*
X11533903Y-20194297D01*
X11551447Y-20177651D01*
X11582152Y-20153752D01*
X11585285Y-20151468D01*
X12068201Y-19822288D01*
X12103441Y-19805675D01*
X12103829Y-19805562D01*
X12103831Y-19805562D01*
X12124578Y-19799534D01*
X12143621Y-19795590D01*
X12165064Y-19792882D01*
X12210834Y-19774760D01*
X12216348Y-19772873D01*
X12242875Y-19765165D01*
X12263600Y-19759145D01*
X12282196Y-19748146D01*
X12299664Y-19739589D01*
X12319756Y-19731635D01*
X12359582Y-19702698D01*
X12364441Y-19699506D01*
X12406807Y-19674453D01*
X12422090Y-19659168D01*
X12436873Y-19646542D01*
X12454357Y-19633841D01*
X12485731Y-19595914D01*
X12489645Y-19591613D01*
X12673477Y-19407781D01*
X12677739Y-19403904D01*
X12678331Y-19403414D01*
X12713244Y-19368015D01*
X17041069Y-15040190D01*
X17102390Y-15006707D01*
X17172082Y-15011691D01*
G37*
%TD.AperFunction*%
%TA.AperFunction,Conductor*%
G36*
X39477753Y-201877D02*
G01*
X39479622Y-202158D01*
X39479622Y-202157D01*
X39479623Y-202158D01*
X39513277Y-200568D01*
X39516200Y-200500D01*
X39522173Y-200500D01*
X39525340Y-200581D01*
X39674701Y-208286D01*
X39698859Y-211943D01*
X39837623Y-247233D01*
X39860591Y-255560D01*
X39989721Y-317384D01*
X40010623Y-330064D01*
X40125106Y-416019D01*
X40143116Y-432554D01*
X40238508Y-539301D01*
X40252922Y-559049D01*
X40325518Y-682442D01*
X40335777Y-704632D01*
X40382749Y-839866D01*
X40388454Y-863636D01*
X40407262Y-1000257D01*
X40408920Y-1012294D01*
X40409500Y-1020759D01*
X40409500Y-8297492D01*
X40410000Y-8301928D01*
X40410000Y-12298081D01*
X40409500Y-12302522D01*
X40409500Y-19463024D01*
X40408939Y-19471350D01*
X40407420Y-19482570D01*
X40407420Y-19482571D01*
X40407420Y-19482572D01*
X40409382Y-19514306D01*
X40409500Y-19518109D01*
X40409500Y-19534984D01*
X40409218Y-19544308D01*
X40405628Y-19662802D01*
X40402847Y-19685427D01*
X40375393Y-19811523D01*
X40368516Y-19833257D01*
X40318445Y-19952190D01*
X40307706Y-19972298D01*
X40236709Y-20080055D01*
X40222470Y-20097858D01*
X40132943Y-20190800D01*
X40115685Y-20205695D01*
X40010666Y-20280670D01*
X39990974Y-20292154D01*
X39873986Y-20346646D01*
X39852524Y-20354331D01*
X39727558Y-20386481D01*
X39705052Y-20390108D01*
X39568314Y-20399380D01*
X39562793Y-20399500D01*
X39562456Y-20399500D01*
X39530682Y-20398726D01*
X39520822Y-20398487D01*
X39509076Y-20399500D01*
X30917009Y-20399500D01*
X30849970Y-20379815D01*
X30804215Y-20327011D01*
X30794271Y-20257853D01*
X30823296Y-20194297D01*
X30882074Y-20156523D01*
X30907274Y-20151882D01*
X31012403Y-20143609D01*
X31258591Y-20084505D01*
X31492502Y-19987616D01*
X31708376Y-19855328D01*
X31900898Y-19690898D01*
X32065328Y-19498376D01*
X32197616Y-19282502D01*
X32294505Y-19048591D01*
X32353609Y-18802403D01*
X32373474Y-18550000D01*
X32353609Y-18297597D01*
X32294505Y-18051409D01*
X32294504Y-18051406D01*
X32197616Y-17817497D01*
X32065331Y-17601629D01*
X32065330Y-17601627D01*
X32065329Y-17601626D01*
X32065328Y-17601624D01*
X31900898Y-17409102D01*
X31708376Y-17244672D01*
X31708374Y-17244670D01*
X31708372Y-17244669D01*
X31708370Y-17244668D01*
X31492502Y-17112383D01*
X31258593Y-17015495D01*
X31012406Y-16956391D01*
X30760000Y-16936526D01*
X30507593Y-16956391D01*
X30261406Y-17015495D01*
X30027497Y-17112383D01*
X29811629Y-17244668D01*
X29811627Y-17244669D01*
X29619102Y-17409102D01*
X29454669Y-17601627D01*
X29454668Y-17601629D01*
X29322383Y-17817497D01*
X29225495Y-18051406D01*
X29166391Y-18297593D01*
X29146526Y-18550000D01*
X29166391Y-18802406D01*
X29225495Y-19048593D01*
X29322383Y-19282502D01*
X29454668Y-19498370D01*
X29454669Y-19498372D01*
X29454670Y-19498374D01*
X29454672Y-19498376D01*
X29619102Y-19690898D01*
X29811624Y-19855328D01*
X29811626Y-19855329D01*
X29811627Y-19855330D01*
X29811629Y-19855331D01*
X30027497Y-19987616D01*
X30261406Y-20084504D01*
X30261407Y-20084504D01*
X30261409Y-20084505D01*
X30507597Y-20143609D01*
X30612721Y-20151882D01*
X30678009Y-20176766D01*
X30719479Y-20232997D01*
X30723966Y-20302723D01*
X30690044Y-20363805D01*
X30628483Y-20396851D01*
X30602991Y-20399500D01*
X23191945Y-20399500D01*
X23124906Y-20379815D01*
X23079151Y-20327011D01*
X23069207Y-20257853D01*
X23097461Y-20195983D01*
X23097177Y-20195750D01*
X23098059Y-20194674D01*
X23098232Y-20194297D01*
X23099390Y-20193052D01*
X23101039Y-20191042D01*
X23101041Y-20191041D01*
X23220820Y-20045091D01*
X23309823Y-19878577D01*
X23364632Y-19697899D01*
X23383138Y-19510000D01*
X23364632Y-19322101D01*
X23309823Y-19141423D01*
X23291301Y-19106771D01*
X23220823Y-18974914D01*
X23220819Y-18974907D01*
X23101041Y-18828958D01*
X22955092Y-18709181D01*
X22955091Y-18709180D01*
X22814625Y-18634100D01*
X22809978Y-18631348D01*
X22798595Y-18623922D01*
X22195215Y-18343319D01*
X22159823Y-18318564D01*
X19426263Y-15585003D01*
X20341701Y-15585003D01*
X20360836Y-15754844D01*
X20360837Y-15754849D01*
X20417291Y-15916183D01*
X20506136Y-16057579D01*
X20508229Y-16060909D01*
X20629091Y-16181771D01*
X20773817Y-16272709D01*
X20899199Y-16316582D01*
X20935150Y-16329162D01*
X20935155Y-16329163D01*
X21104996Y-16348299D01*
X21105000Y-16348299D01*
X21105004Y-16348299D01*
X21274844Y-16329163D01*
X21274847Y-16329162D01*
X21274850Y-16329162D01*
X21436183Y-16272709D01*
X21580909Y-16181771D01*
X21701771Y-16060909D01*
X21792709Y-15916183D01*
X21792712Y-15916172D01*
X21793635Y-15914258D01*
X21795550Y-15909782D01*
X21798183Y-15904624D01*
X21798187Y-15904620D01*
X21948176Y-15610903D01*
X21970925Y-15579622D01*
X22414622Y-15135925D01*
X22445903Y-15113176D01*
X22739620Y-14963187D01*
X22739637Y-14963177D01*
X22744802Y-14960540D01*
X22749251Y-14958637D01*
X22751171Y-14957712D01*
X22751183Y-14957709D01*
X22761807Y-14951032D01*
X22764737Y-14949304D01*
X22769065Y-14946913D01*
X22769069Y-14946909D01*
X22770125Y-14946198D01*
X22774615Y-14942984D01*
X22895909Y-14866771D01*
X23016771Y-14745909D01*
X23107709Y-14601183D01*
X23164162Y-14439850D01*
X23164163Y-14439844D01*
X23183299Y-14270003D01*
X23183299Y-14269996D01*
X23164163Y-14100155D01*
X23164162Y-14100150D01*
X23158421Y-14083743D01*
X23107709Y-13938817D01*
X23016771Y-13794091D01*
X22895909Y-13673229D01*
X22895908Y-13673228D01*
X22751183Y-13582291D01*
X22589849Y-13525837D01*
X22589844Y-13525836D01*
X22420004Y-13506701D01*
X22419996Y-13506701D01*
X22250155Y-13525836D01*
X22250150Y-13525837D01*
X22088816Y-13582291D01*
X21944091Y-13673228D01*
X21823228Y-13794091D01*
X21732289Y-13938820D01*
X21731359Y-13940750D01*
X21729437Y-13945238D01*
X21576820Y-14244096D01*
X21554067Y-14275382D01*
X21110384Y-14719065D01*
X21079098Y-14741818D01*
X20780217Y-14894448D01*
X20775746Y-14896361D01*
X20773813Y-14897292D01*
X20763229Y-14903942D01*
X20760254Y-14905697D01*
X20755888Y-14908111D01*
X20754906Y-14908773D01*
X20750272Y-14912083D01*
X20629089Y-14988230D01*
X20508228Y-15109091D01*
X20417291Y-15253816D01*
X20360837Y-15415150D01*
X20360836Y-15415155D01*
X20341701Y-15584996D01*
X20341701Y-15585003D01*
X19426263Y-15585003D01*
X18599819Y-14758559D01*
X18566334Y-14697236D01*
X18563500Y-14670878D01*
X18563500Y-14056755D01*
X18568936Y-14020444D01*
X18573787Y-14004606D01*
X18716243Y-13539446D01*
X18724137Y-13510719D01*
X18724138Y-13510707D01*
X18725102Y-13505480D01*
X18725358Y-13505527D01*
X18729507Y-13485590D01*
X18749365Y-13424475D01*
X18768229Y-13245000D01*
X18749365Y-13065525D01*
X18693599Y-12893893D01*
X18603367Y-12737607D01*
X18555932Y-12684925D01*
X18482618Y-12603500D01*
X18482615Y-12603498D01*
X18482614Y-12603497D01*
X18482613Y-12603496D01*
X18336615Y-12497422D01*
X18336614Y-12497421D01*
X18171757Y-12424021D01*
X18171751Y-12424019D01*
X18032751Y-12394474D01*
X17995232Y-12386500D01*
X17814768Y-12386500D01*
X17783825Y-12393076D01*
X17638248Y-12424019D01*
X17638242Y-12424021D01*
X17473386Y-12497421D01*
X17473381Y-12497424D01*
X17327388Y-12603494D01*
X17327381Y-12603500D01*
X17206631Y-12737608D01*
X17206629Y-12737611D01*
X17132032Y-12866815D01*
X17128401Y-12872390D01*
X17123165Y-12879558D01*
X17123154Y-12879575D01*
X16887201Y-13323850D01*
X16865369Y-13353369D01*
X12078063Y-18140675D01*
X12016740Y-18174160D01*
X11947857Y-18169474D01*
X11821830Y-18123463D01*
X11793514Y-18113125D01*
X11737291Y-18071643D01*
X11729308Y-18059767D01*
X11728212Y-18057913D01*
X11654452Y-17933193D01*
X11654451Y-17933192D01*
X11650481Y-17926479D01*
X11651590Y-17925823D01*
X11628985Y-17868234D01*
X11628500Y-17857280D01*
X11628500Y-16145362D01*
X11648185Y-16078323D01*
X11700989Y-16032568D01*
X11770147Y-16022624D01*
X11793455Y-16028321D01*
X11810142Y-16034160D01*
X11810148Y-16034161D01*
X11810150Y-16034162D01*
X11810151Y-16034162D01*
X11810155Y-16034163D01*
X11979996Y-16053299D01*
X11980000Y-16053299D01*
X11980004Y-16053299D01*
X12149844Y-16034163D01*
X12149847Y-16034162D01*
X12149850Y-16034162D01*
X12311183Y-15977709D01*
X12455909Y-15886771D01*
X12576771Y-15765909D01*
X12667709Y-15621183D01*
X12667712Y-15621171D01*
X12670730Y-15614909D01*
X12670812Y-15614948D01*
X12675087Y-15605666D01*
X12675018Y-15605632D01*
X12676457Y-15602692D01*
X12676820Y-15601905D01*
X12676965Y-15601655D01*
X12676966Y-15601654D01*
X12819543Y-15310468D01*
X12843224Y-15277323D01*
X15809202Y-12311345D01*
X15815293Y-12306003D01*
X15843987Y-12283987D01*
X15863318Y-12258792D01*
X15863324Y-12258787D01*
X15868476Y-12252072D01*
X15868478Y-12252071D01*
X15941524Y-12156876D01*
X16002838Y-12008850D01*
X16023751Y-11850000D01*
X16022052Y-11837097D01*
X16019031Y-11814147D01*
X16018500Y-11806046D01*
X16018500Y-10363894D01*
X16027155Y-10318381D01*
X16206806Y-9863088D01*
X16206806Y-9863087D01*
X16206807Y-9863087D01*
X16222858Y-9815786D01*
X16222859Y-9815784D01*
X16223558Y-9810659D01*
X16228484Y-9789125D01*
X16254365Y-9709475D01*
X16273229Y-9530000D01*
X16254365Y-9350525D01*
X16198599Y-9178893D01*
X16108367Y-9022607D01*
X16050295Y-8958111D01*
X15987618Y-8888500D01*
X15987615Y-8888498D01*
X15987614Y-8888497D01*
X15987613Y-8888496D01*
X15841615Y-8782422D01*
X15841614Y-8782421D01*
X15676757Y-8709021D01*
X15676751Y-8709019D01*
X15537751Y-8679474D01*
X15500232Y-8671500D01*
X15319768Y-8671500D01*
X15304506Y-8674744D01*
X15143248Y-8709019D01*
X15143242Y-8709021D01*
X14978386Y-8782421D01*
X14978381Y-8782424D01*
X14832388Y-8888494D01*
X14832381Y-8888500D01*
X14711632Y-9022608D01*
X14621400Y-9178894D01*
X14565635Y-9350523D01*
X14554659Y-9454952D01*
X14546771Y-9530000D01*
X14548997Y-9551180D01*
X14565635Y-9709475D01*
X14565637Y-9709481D01*
X14606034Y-9833814D01*
X14607392Y-9838654D01*
X14613193Y-9863087D01*
X14613195Y-9863096D01*
X14697059Y-10075632D01*
X14792845Y-10318384D01*
X14801500Y-10363896D01*
X14801500Y-11546588D01*
X14781815Y-11613627D01*
X14765181Y-11634269D01*
X11976525Y-14422924D01*
X11946881Y-14444822D01*
X11810537Y-14517035D01*
X11742081Y-14531018D01*
X11676933Y-14505770D01*
X11635776Y-14449308D01*
X11628500Y-14407456D01*
X11628500Y-5782895D01*
X11648185Y-5715856D01*
X11700989Y-5670101D01*
X11770147Y-5660157D01*
X11810953Y-5673537D01*
X11841421Y-5689822D01*
X11841423Y-5689823D01*
X12022101Y-5744632D01*
X12210000Y-5763138D01*
X12397899Y-5744632D01*
X12482556Y-5718950D01*
X12501526Y-5715350D01*
X12501459Y-5714911D01*
X12505837Y-5714237D01*
X12505840Y-5714237D01*
X13176087Y-5561595D01*
X13203622Y-5558500D01*
X25754457Y-5558500D01*
X25821496Y-5578185D01*
X25842138Y-5594819D01*
X27248196Y-7000877D01*
X27259977Y-7014509D01*
X27274531Y-7034058D01*
X27304807Y-7059463D01*
X27315005Y-7068020D01*
X27318995Y-7071676D01*
X27324899Y-7077580D01*
X27350896Y-7098136D01*
X27410360Y-7148032D01*
X27410362Y-7148033D01*
X27416396Y-7152002D01*
X27416369Y-7152042D01*
X27422921Y-7156216D01*
X27422947Y-7156175D01*
X27429099Y-7159970D01*
X27472160Y-7180049D01*
X27499447Y-7192773D01*
X27568812Y-7227609D01*
X27568813Y-7227609D01*
X27568815Y-7227610D01*
X27575594Y-7230077D01*
X27575577Y-7230122D01*
X27582925Y-7232676D01*
X27582941Y-7232631D01*
X27589790Y-7234901D01*
X27589793Y-7234901D01*
X27589794Y-7234902D01*
X27665818Y-7250599D01*
X27741344Y-7268500D01*
X27741345Y-7268500D01*
X27741349Y-7268501D01*
X27748517Y-7269339D01*
X27748511Y-7269386D01*
X27756242Y-7270176D01*
X27756247Y-7270129D01*
X27763437Y-7270758D01*
X27763441Y-7270757D01*
X27763442Y-7270758D01*
X27841045Y-7268500D01*
X27893767Y-7268500D01*
X27960806Y-7288185D01*
X28006561Y-7340989D01*
X28016505Y-7410147D01*
X28013973Y-7422940D01*
X27985436Y-7535627D01*
X27985434Y-7535640D01*
X27966844Y-7759994D01*
X27966844Y-7765129D01*
X27965695Y-7765129D01*
X27952727Y-7828113D01*
X27903876Y-7878066D01*
X27835773Y-7893678D01*
X27770040Y-7869993D01*
X27755552Y-7857578D01*
X27753986Y-7856011D01*
X27722075Y-7831526D01*
X27722074Y-7831525D01*
X27722072Y-7831523D01*
X27658186Y-7782501D01*
X27626877Y-7758476D01*
X27626871Y-7758473D01*
X27478851Y-7697162D01*
X27478854Y-7697162D01*
X27461047Y-7694818D01*
X27455113Y-7694037D01*
X27394552Y-7686064D01*
X27356263Y-7681023D01*
X27356248Y-7681021D01*
X27328452Y-7677362D01*
X27320000Y-7676250D01*
X27319999Y-7676250D01*
X27319998Y-7676250D01*
X27303790Y-7678383D01*
X27284151Y-7680969D01*
X27276054Y-7681500D01*
X20766112Y-7681500D01*
X20727901Y-7675466D01*
X20652200Y-7650945D01*
X20414149Y-7573836D01*
X20404982Y-7571195D01*
X20381808Y-7564519D01*
X20376465Y-7563477D01*
X20376540Y-7563090D01*
X20355933Y-7558463D01*
X20335515Y-7551319D01*
X20319850Y-7545838D01*
X20319848Y-7545837D01*
X20319843Y-7545836D01*
X20150004Y-7526701D01*
X20149996Y-7526701D01*
X19980155Y-7545836D01*
X19980150Y-7545837D01*
X19818816Y-7602291D01*
X19674091Y-7693228D01*
X19553228Y-7814091D01*
X19462291Y-7958816D01*
X19405837Y-8120150D01*
X19405836Y-8120155D01*
X19386701Y-8289996D01*
X19386701Y-8290003D01*
X19405836Y-8459844D01*
X19405837Y-8459849D01*
X19462291Y-8621183D01*
X19553228Y-8765908D01*
X19563010Y-8775690D01*
X19596495Y-8837013D01*
X19591511Y-8906705D01*
X19582716Y-8925371D01*
X19511400Y-9048894D01*
X19455635Y-9220523D01*
X19436771Y-9400000D01*
X19455635Y-9579476D01*
X19506323Y-9735480D01*
X19511401Y-9751107D01*
X19601633Y-9907393D01*
X19640521Y-9950583D01*
X19722381Y-10041499D01*
X19722384Y-10041501D01*
X19722387Y-10041504D01*
X19868385Y-10147578D01*
X19937922Y-10178538D01*
X19945239Y-10182400D01*
X19959104Y-10190945D01*
X19972101Y-10198956D01*
X19972105Y-10198957D01*
X19972111Y-10198961D01*
X20421076Y-10393865D01*
X20459379Y-10419928D01*
X21988655Y-11949204D01*
X21993996Y-11955294D01*
X22002022Y-11965754D01*
X22016012Y-11983987D01*
X22047921Y-12008472D01*
X22047925Y-12008474D01*
X22047928Y-12008477D01*
X22080528Y-12033492D01*
X22143122Y-12081523D01*
X22143128Y-12081526D01*
X22217136Y-12112181D01*
X22291149Y-12142838D01*
X22306664Y-12144880D01*
X22310542Y-12145391D01*
X22358009Y-12151640D01*
X22410115Y-12158500D01*
X22410116Y-12158500D01*
X22412129Y-12158765D01*
X22412148Y-12158766D01*
X22450000Y-12163750D01*
X22450001Y-12163750D01*
X22460472Y-12162371D01*
X22485848Y-12159030D01*
X22493946Y-12158500D01*
X27955692Y-12158500D01*
X28022731Y-12178185D01*
X28068486Y-12230989D01*
X28078430Y-12300147D01*
X28069248Y-12332310D01*
X28040703Y-12397385D01*
X27985436Y-12615628D01*
X27985434Y-12615640D01*
X27966844Y-12839994D01*
X27966844Y-12840005D01*
X27985434Y-13064359D01*
X27985436Y-13064371D01*
X28040703Y-13282614D01*
X28131140Y-13488792D01*
X28254276Y-13677265D01*
X28254284Y-13677276D01*
X28354505Y-13786143D01*
X28406760Y-13842906D01*
X28584424Y-13981189D01*
X28584429Y-13981191D01*
X28584431Y-13981193D01*
X28620930Y-14000946D01*
X28670520Y-14050165D01*
X28685628Y-14118382D01*
X28661457Y-14183937D01*
X28620930Y-14219054D01*
X28584431Y-14238806D01*
X28584422Y-14238812D01*
X28406761Y-14377092D01*
X28406756Y-14377097D01*
X28254284Y-14542723D01*
X28254279Y-14542730D01*
X28254278Y-14542732D01*
X28234187Y-14573483D01*
X28131140Y-14731207D01*
X28040703Y-14937385D01*
X27985436Y-15155628D01*
X27985434Y-15155640D01*
X27966844Y-15379994D01*
X27966844Y-15380005D01*
X27985434Y-15604359D01*
X27985436Y-15604371D01*
X28040703Y-15822614D01*
X28131140Y-16028792D01*
X28254276Y-16217265D01*
X28254284Y-16217276D01*
X28378868Y-16352608D01*
X28406760Y-16382906D01*
X28584424Y-16521189D01*
X28584425Y-16521189D01*
X28584427Y-16521191D01*
X28644314Y-16553600D01*
X28782426Y-16628342D01*
X28995365Y-16701444D01*
X29217431Y-16738500D01*
X29442569Y-16738500D01*
X29664635Y-16701444D01*
X29877574Y-16628342D01*
X30075576Y-16521189D01*
X30253240Y-16382906D01*
X30404592Y-16218496D01*
X30405715Y-16217276D01*
X30405715Y-16217275D01*
X30405722Y-16217268D01*
X30499749Y-16073347D01*
X30552894Y-16027994D01*
X30622125Y-16018570D01*
X30685461Y-16048072D01*
X30705131Y-16070049D01*
X30755072Y-16141373D01*
X30755073Y-16141373D01*
X31386923Y-15509523D01*
X31410507Y-15589844D01*
X31488239Y-15710798D01*
X31596900Y-15804952D01*
X31727685Y-15864680D01*
X31737466Y-15866086D01*
X31108625Y-16494925D01*
X31192421Y-16553599D01*
X31406507Y-16653429D01*
X31406516Y-16653433D01*
X31634673Y-16714567D01*
X31634684Y-16714569D01*
X31869998Y-16735157D01*
X31870002Y-16735157D01*
X32105315Y-16714569D01*
X32105326Y-16714567D01*
X32333483Y-16653433D01*
X32333492Y-16653429D01*
X32547578Y-16553600D01*
X32547582Y-16553598D01*
X32631373Y-16494926D01*
X32631373Y-16494925D01*
X32002533Y-15866086D01*
X32012315Y-15864680D01*
X32143100Y-15804952D01*
X32251761Y-15710798D01*
X32329493Y-15589844D01*
X32353076Y-15509524D01*
X32984925Y-16141373D01*
X32984926Y-16141373D01*
X33043598Y-16057582D01*
X33043600Y-16057578D01*
X33143429Y-15843492D01*
X33143433Y-15843483D01*
X33204567Y-15615326D01*
X33204569Y-15615315D01*
X33225157Y-15380001D01*
X33225157Y-15379998D01*
X33204569Y-15144684D01*
X33204567Y-15144673D01*
X33143433Y-14916516D01*
X33143429Y-14916507D01*
X33043600Y-14702423D01*
X33043599Y-14702421D01*
X32984925Y-14618626D01*
X32984925Y-14618625D01*
X32353076Y-15250475D01*
X32329493Y-15170156D01*
X32251761Y-15049202D01*
X32143100Y-14955048D01*
X32012315Y-14895320D01*
X32002533Y-14893913D01*
X32631373Y-14265073D01*
X32631373Y-14265072D01*
X32560199Y-14215236D01*
X32516574Y-14160659D01*
X32509380Y-14091161D01*
X32540903Y-14028806D01*
X32572305Y-14004606D01*
X32579070Y-14000945D01*
X32615576Y-13981189D01*
X32793240Y-13842906D01*
X32940580Y-13682854D01*
X32945715Y-13677276D01*
X32945717Y-13677273D01*
X32945722Y-13677268D01*
X33068860Y-13488791D01*
X33159296Y-13282616D01*
X33214564Y-13064368D01*
X33214969Y-13059484D01*
X33233156Y-12840005D01*
X33233156Y-12839994D01*
X33214565Y-12615640D01*
X33214563Y-12615628D01*
X33200603Y-12560500D01*
X33159296Y-12397384D01*
X33068860Y-12191209D01*
X33047663Y-12158765D01*
X32965818Y-12033492D01*
X32945722Y-12002732D01*
X32945719Y-12002729D01*
X32945715Y-12002723D01*
X32793243Y-11837097D01*
X32793238Y-11837092D01*
X32615577Y-11698812D01*
X32615572Y-11698808D01*
X32579068Y-11679053D01*
X32529478Y-11629833D01*
X32514371Y-11561616D01*
X32538542Y-11496061D01*
X32579069Y-11460945D01*
X32615576Y-11441189D01*
X32793240Y-11302906D01*
X32945722Y-11137268D01*
X33068860Y-10948791D01*
X33159296Y-10742616D01*
X33214564Y-10524368D01*
X33214565Y-10524359D01*
X33233156Y-10300005D01*
X33233156Y-10299994D01*
X33214565Y-10075640D01*
X33214563Y-10075628D01*
X33190202Y-9979429D01*
X33159296Y-9857384D01*
X33068860Y-9651209D01*
X33052706Y-9626484D01*
X32965818Y-9493492D01*
X32945722Y-9462732D01*
X32945719Y-9462729D01*
X32945715Y-9462723D01*
X32793243Y-9297097D01*
X32793238Y-9297092D01*
X32615577Y-9158812D01*
X32615578Y-9158812D01*
X32615576Y-9158811D01*
X32579070Y-9139055D01*
X32529479Y-9089836D01*
X32514371Y-9021619D01*
X32538541Y-8956064D01*
X32579070Y-8920945D01*
X32584170Y-8918185D01*
X32615576Y-8901189D01*
X32793240Y-8762906D01*
X32922849Y-8622115D01*
X32945715Y-8597276D01*
X32945717Y-8597273D01*
X32945722Y-8597268D01*
X33068860Y-8408791D01*
X33123603Y-8283987D01*
X33125653Y-8279760D01*
X33142299Y-8248564D01*
X33156514Y-8209293D01*
X33158026Y-8205510D01*
X33159296Y-8202616D01*
X33159388Y-8202250D01*
X33161191Y-8196374D01*
X33470439Y-7342074D01*
X33617847Y-6934854D01*
X33627714Y-6913938D01*
X33631299Y-6907873D01*
X33631304Y-6907868D01*
X33650853Y-6862691D01*
X33653410Y-6857470D01*
X33677124Y-6814337D01*
X33682497Y-6793409D01*
X33688796Y-6775010D01*
X33697380Y-6755177D01*
X33702108Y-6725326D01*
X33705080Y-6706561D01*
X33706265Y-6700838D01*
X33718500Y-6653188D01*
X33718500Y-6631580D01*
X33720027Y-6612180D01*
X33723406Y-6590848D01*
X33718775Y-6541854D01*
X33718500Y-6536017D01*
X33718500Y-4726391D01*
X33720282Y-4710248D01*
X33720055Y-4710227D01*
X33720787Y-4702469D01*
X33720789Y-4702463D01*
X33718500Y-4629639D01*
X33718500Y-4598568D01*
X33717564Y-4591166D01*
X33717107Y-4585353D01*
X33715562Y-4536169D01*
X33709535Y-4515426D01*
X33705590Y-4496377D01*
X33702882Y-4474936D01*
X33684763Y-4429172D01*
X33682872Y-4423648D01*
X33673856Y-4392616D01*
X33669145Y-4376400D01*
X33658149Y-4357808D01*
X33649589Y-4340335D01*
X33648404Y-4337341D01*
X33641635Y-4320244D01*
X33640579Y-4318790D01*
X33612711Y-4280434D01*
X33609502Y-4275549D01*
X33587897Y-4239017D01*
X33584453Y-4233193D01*
X33584449Y-4233189D01*
X33584446Y-4233185D01*
X33569175Y-4217914D01*
X33556537Y-4203118D01*
X33543839Y-4185640D01*
X33505921Y-4154272D01*
X33501598Y-4150338D01*
X33006717Y-3655457D01*
X32996564Y-3642785D01*
X32996388Y-3642931D01*
X32991419Y-3636926D01*
X32991416Y-3636920D01*
X32948317Y-3596447D01*
X32938315Y-3587054D01*
X32916333Y-3565072D01*
X32910439Y-3560501D01*
X32906002Y-3556711D01*
X32870133Y-3523028D01*
X32870131Y-3523026D01*
X32851200Y-3512619D01*
X32834948Y-3501944D01*
X32817868Y-3488696D01*
X32817864Y-3488694D01*
X32772702Y-3469150D01*
X32767455Y-3466580D01*
X32724337Y-3442875D01*
X32724338Y-3442875D01*
X32703411Y-3437502D01*
X32685006Y-3431201D01*
X32665174Y-3422619D01*
X32616569Y-3414921D01*
X32610847Y-3413736D01*
X32573330Y-3404104D01*
X32563188Y-3401500D01*
X32563187Y-3401500D01*
X32541581Y-3401500D01*
X32522183Y-3399973D01*
X32513603Y-3398614D01*
X32500849Y-3396594D01*
X32500848Y-3396594D01*
X32451855Y-3401225D01*
X32446019Y-3401500D01*
X32029658Y-3401500D01*
X31962619Y-3381815D01*
X31916864Y-3329011D01*
X31906920Y-3259853D01*
X31935945Y-3196297D01*
X31940069Y-3191868D01*
X31940895Y-3190899D01*
X31940898Y-3190898D01*
X32105328Y-2998376D01*
X32237616Y-2782502D01*
X32334505Y-2548591D01*
X32393609Y-2302403D01*
X32413474Y-2050000D01*
X32393609Y-1797597D01*
X32334505Y-1551409D01*
X32332487Y-1546537D01*
X32237616Y-1317497D01*
X32105331Y-1101629D01*
X32105330Y-1101627D01*
X32105329Y-1101626D01*
X32105328Y-1101624D01*
X31940898Y-909102D01*
X31748376Y-744672D01*
X31748374Y-744670D01*
X31748372Y-744669D01*
X31748370Y-744668D01*
X31532502Y-612383D01*
X31298593Y-515495D01*
X31052406Y-456391D01*
X31020760Y-453900D01*
X30947278Y-448117D01*
X30881991Y-423234D01*
X30840521Y-367003D01*
X30836034Y-297277D01*
X30869956Y-236195D01*
X30931517Y-203149D01*
X30957009Y-200500D01*
X39459325Y-200500D01*
X39477753Y-201877D01*
G37*
%TD.AperFunction*%
%TA.AperFunction,Conductor*%
G36*
X30681905Y-13513515D02*
G01*
X30703804Y-13538787D01*
X30794278Y-13677268D01*
X30794283Y-13677273D01*
X30794284Y-13677276D01*
X30894505Y-13786143D01*
X30946760Y-13842906D01*
X31124424Y-13981189D01*
X31160930Y-14000945D01*
X31167695Y-14004606D01*
X31217286Y-14053825D01*
X31232394Y-14122042D01*
X31208224Y-14187597D01*
X31179801Y-14215236D01*
X31108626Y-14265072D01*
X31108625Y-14265072D01*
X31737466Y-14893913D01*
X31727685Y-14895320D01*
X31596900Y-14955048D01*
X31488239Y-15049202D01*
X31410507Y-15170156D01*
X31386923Y-15250476D01*
X30755072Y-14618625D01*
X30755072Y-14618626D01*
X30705131Y-14689950D01*
X30650555Y-14733575D01*
X30581056Y-14740769D01*
X30518701Y-14709246D01*
X30499748Y-14686649D01*
X30425818Y-14573492D01*
X30405722Y-14542732D01*
X30405720Y-14542730D01*
X30405715Y-14542723D01*
X30253243Y-14377097D01*
X30253238Y-14377092D01*
X30075577Y-14238812D01*
X30075578Y-14238812D01*
X30075576Y-14238811D01*
X30039070Y-14219055D01*
X29989479Y-14169836D01*
X29974371Y-14101619D01*
X29998541Y-14036064D01*
X30039070Y-14000945D01*
X30039084Y-14000936D01*
X30075576Y-13981189D01*
X30253240Y-13842906D01*
X30400580Y-13682854D01*
X30405715Y-13677276D01*
X30405715Y-13677275D01*
X30405722Y-13677268D01*
X30496193Y-13538790D01*
X30549338Y-13493437D01*
X30618569Y-13484013D01*
X30681905Y-13513515D01*
G37*
%TD.AperFunction*%
%TA.AperFunction,Conductor*%
G36*
X27083628Y-8918185D02*
G01*
X27104270Y-8934819D01*
X27584420Y-9414969D01*
X27614329Y-9463297D01*
X28034452Y-10718645D01*
X28035759Y-10723098D01*
X28040702Y-10742610D01*
X28040703Y-10742615D01*
X28041117Y-10743558D01*
X28047057Y-10757100D01*
X28049069Y-10762316D01*
X28054366Y-10778146D01*
X28056976Y-10847967D01*
X28021423Y-10908115D01*
X27958996Y-10939493D01*
X27936777Y-10941500D01*
X22753411Y-10941500D01*
X22686372Y-10921815D01*
X22665730Y-10905181D01*
X21319928Y-9559379D01*
X21293865Y-9521076D01*
X21098861Y-9071878D01*
X21090221Y-9002545D01*
X21120438Y-8939547D01*
X21179917Y-8902886D01*
X21212605Y-8898500D01*
X27016589Y-8898500D01*
X27083628Y-8918185D01*
G37*
%TD.AperFunction*%
%TA.AperFunction,Conductor*%
G36*
X30681905Y-8433515D02*
G01*
X30703804Y-8458787D01*
X30794278Y-8597268D01*
X30794283Y-8597273D01*
X30794284Y-8597276D01*
X30946756Y-8762902D01*
X30946761Y-8762907D01*
X30971834Y-8782422D01*
X31124424Y-8901189D01*
X31124429Y-8901191D01*
X31124431Y-8901193D01*
X31160930Y-8920946D01*
X31210520Y-8970165D01*
X31225628Y-9038382D01*
X31201457Y-9103937D01*
X31160930Y-9139054D01*
X31124431Y-9158806D01*
X31124422Y-9158812D01*
X30946761Y-9297092D01*
X30946756Y-9297097D01*
X30794284Y-9462723D01*
X30794276Y-9462734D01*
X30703808Y-9601206D01*
X30650662Y-9646562D01*
X30581431Y-9655986D01*
X30518095Y-9626484D01*
X30496192Y-9601206D01*
X30425818Y-9493492D01*
X30405722Y-9462732D01*
X30405719Y-9462729D01*
X30405715Y-9462723D01*
X30253243Y-9297097D01*
X30253238Y-9297092D01*
X30075577Y-9158812D01*
X30075572Y-9158808D01*
X30039068Y-9139053D01*
X29989478Y-9089833D01*
X29974371Y-9021616D01*
X29998542Y-8956061D01*
X30039069Y-8920945D01*
X30075576Y-8901189D01*
X30253240Y-8762906D01*
X30382849Y-8622115D01*
X30405715Y-8597276D01*
X30405715Y-8597275D01*
X30405722Y-8597268D01*
X30496193Y-8458790D01*
X30549338Y-8413437D01*
X30618569Y-8404013D01*
X30681905Y-8433515D01*
G37*
%TD.AperFunction*%
%TA.AperFunction,Conductor*%
G36*
X16532917Y-2908185D02*
G01*
X16553559Y-2924819D01*
X17458559Y-3829819D01*
X17492044Y-3891142D01*
X17487060Y-3960834D01*
X17445188Y-4016767D01*
X17379724Y-4041184D01*
X17370878Y-4041500D01*
X13203627Y-4041500D01*
X13176092Y-4038404D01*
X13126561Y-4027124D01*
X12505840Y-3885762D01*
X12490326Y-3882404D01*
X12490349Y-3882295D01*
X12477119Y-3879398D01*
X12397899Y-3855368D01*
X12210000Y-3836862D01*
X12022098Y-3855368D01*
X11841421Y-3910177D01*
X11674914Y-3999176D01*
X11674908Y-3999180D01*
X11584377Y-4073477D01*
X11520067Y-4100789D01*
X11451200Y-4088998D01*
X11426671Y-4073165D01*
X11415914Y-4064266D01*
X11411592Y-4060333D01*
X10451441Y-3100181D01*
X10417956Y-3038858D01*
X10422940Y-2969166D01*
X10464812Y-2913233D01*
X10530276Y-2888816D01*
X10539122Y-2888500D01*
X16465878Y-2888500D01*
X16532917Y-2908185D01*
G37*
%TD.AperFunction*%
%TD*%
%TA.AperFunction,Conductor*%
%TO.N,/VDD_3.3V*%
G36*
X33201595Y-6556340D02*
G01*
X33205022Y-6564613D01*
X33204323Y-6568595D01*
X32659460Y-8073781D01*
X32653422Y-8080394D01*
X32644477Y-8080800D01*
X32644003Y-8080617D01*
X32250782Y-7918240D01*
X31874488Y-7762853D01*
X31868150Y-7756529D01*
X31549626Y-6986563D01*
X31549630Y-6977609D01*
X31555964Y-6971280D01*
X31556960Y-6970920D01*
X32859239Y-6568595D01*
X32908314Y-6553434D01*
X32911768Y-6552913D01*
X33193322Y-6552913D01*
X33201595Y-6556340D01*
G37*
%TD.AperFunction*%
%TD*%
%TA.AperFunction,Conductor*%
%TO.N,/VDD_3.3V*%
G36*
X21897087Y-18770987D02*
G01*
X22582062Y-19089536D01*
X22588118Y-19096131D01*
X22587947Y-19104599D01*
X22422563Y-19506199D01*
X22416244Y-19512544D01*
X22416199Y-19512563D01*
X22014599Y-19677947D01*
X22005644Y-19677928D01*
X21999536Y-19672063D01*
X21680987Y-18987088D01*
X21680607Y-18978143D01*
X21683322Y-18973885D01*
X21883884Y-18773323D01*
X21892156Y-18769897D01*
X21897087Y-18770987D01*
G37*
%TD.AperFunction*%
%TD*%
%TA.AperFunction,Conductor*%
%TO.N,/VDD_3.3V*%
G36*
X17909478Y-13245868D02*
G01*
X18123891Y-13335344D01*
X18218571Y-13374855D01*
X18224886Y-13381204D01*
X18225252Y-13389079D01*
X18057534Y-13936726D01*
X18051835Y-13943633D01*
X18046347Y-13945000D01*
X17763653Y-13945000D01*
X17755380Y-13941573D01*
X17752466Y-13936726D01*
X17584747Y-13389079D01*
X17585601Y-13380165D01*
X17591427Y-13374855D01*
X17900494Y-13245879D01*
X17909449Y-13245857D01*
X17909478Y-13245868D01*
G37*
%TD.AperFunction*%
%TD*%
%TA.AperFunction,Conductor*%
%TO.N,/VDD_3.3V*%
G36*
X6662313Y-2077193D02*
G01*
X6668909Y-2083249D01*
X6670000Y-2088183D01*
X6670000Y-2371816D01*
X6666573Y-2380089D01*
X6662313Y-2382806D01*
X5952718Y-2641908D01*
X5943771Y-2641527D01*
X5937905Y-2635418D01*
X5770873Y-2234498D01*
X5770855Y-2225547D01*
X5937905Y-1824580D01*
X5944250Y-1818262D01*
X5952716Y-1818091D01*
X6662313Y-2077193D01*
G37*
%TD.AperFunction*%
%TD*%
%TA.AperFunction,Conductor*%
%TO.N,/VDD_3.3V*%
G36*
X19281726Y-3907466D02*
G01*
X19288633Y-3913165D01*
X19290000Y-3918653D01*
X19290000Y-4201346D01*
X19286573Y-4209619D01*
X19281726Y-4212533D01*
X18734079Y-4380252D01*
X18725165Y-4379398D01*
X18719855Y-4373571D01*
X18590880Y-4064506D01*
X18590857Y-4055551D01*
X18590880Y-4055494D01*
X18651596Y-3910000D01*
X18719855Y-3746427D01*
X18726204Y-3740113D01*
X18734077Y-3739747D01*
X19281726Y-3907466D01*
G37*
%TD.AperFunction*%
%TD*%
%TA.AperFunction,Conductor*%
%TO.N,/VDD_3.3V*%
G36*
X6184438Y-2062037D02*
G01*
X6190506Y-2067818D01*
X6512927Y-2746879D01*
X6513380Y-2755822D01*
X6510631Y-2760170D01*
X6310065Y-2960736D01*
X6301792Y-2964163D01*
X6296956Y-2963117D01*
X5608074Y-2650413D01*
X5601957Y-2643873D01*
X5602090Y-2635306D01*
X5767437Y-2233798D01*
X5773754Y-2227455D01*
X6175484Y-2062018D01*
X6184438Y-2062037D01*
G37*
%TD.AperFunction*%
%TD*%
%TA.AperFunction,Conductor*%
%TO.N,/VDD_3.3V*%
G36*
X17591449Y-13115092D02*
G01*
X17901191Y-13242436D01*
X17907540Y-13248751D01*
X17907563Y-13248808D01*
X18034906Y-13558549D01*
X18034883Y-13567504D01*
X18029573Y-13573331D01*
X17523734Y-13841981D01*
X17514820Y-13842835D01*
X17509973Y-13839921D01*
X17310078Y-13640026D01*
X17306651Y-13631753D01*
X17308016Y-13626269D01*
X17576668Y-13120425D01*
X17583575Y-13114727D01*
X17591449Y-13115092D01*
G37*
%TD.AperFunction*%
%TD*%
%TA.AperFunction,Conductor*%
%TO.N,/VDD_3.3V*%
G36*
X18226838Y-3451398D02*
G01*
X18588763Y-3659076D01*
X18715039Y-3731535D01*
X18720509Y-3738625D01*
X18720037Y-3746132D01*
X18592563Y-4056191D01*
X18586248Y-4062540D01*
X18586191Y-4062563D01*
X18276812Y-4189757D01*
X18267857Y-4189734D01*
X18261839Y-4184046D01*
X18049213Y-3746132D01*
X18010582Y-3666568D01*
X18010051Y-3657629D01*
X18012832Y-3653187D01*
X18212746Y-3453273D01*
X18221018Y-3449847D01*
X18226838Y-3451398D01*
G37*
%TD.AperFunction*%
%TD*%
%TA.AperFunction,Conductor*%
%TO.N,/VDD_3.3V*%
G36*
X12146060Y-18788488D02*
G01*
X12150321Y-18791205D01*
X12350637Y-18991521D01*
X12354064Y-18999794D01*
X12350637Y-19008067D01*
X12348954Y-19009462D01*
X11269040Y-19745588D01*
X11260274Y-19747416D01*
X11254187Y-19744203D01*
X10664837Y-19156238D01*
X10661400Y-19147969D01*
X10662293Y-19143473D01*
X10717873Y-19009462D01*
X10980988Y-18375051D01*
X10987322Y-18368723D01*
X10995804Y-18368544D01*
X12146060Y-18788488D01*
G37*
%TD.AperFunction*%
%TD*%
%TA.AperFunction,Conductor*%
%TO.N,Net-(U2-NRST)*%
G36*
X22198988Y-14178410D02*
G01*
X22416177Y-14267436D01*
X22422531Y-14273744D01*
X22422564Y-14273823D01*
X22511588Y-14491008D01*
X22511555Y-14499963D01*
X22506083Y-14505866D01*
X22144734Y-14690394D01*
X22135808Y-14691105D01*
X22131140Y-14688247D01*
X22001752Y-14558859D01*
X21998325Y-14550586D01*
X21999604Y-14545268D01*
X22184135Y-14183914D01*
X22190948Y-14178106D01*
X22198988Y-14178410D01*
G37*
%TD.AperFunction*%
%TD*%
%TA.AperFunction,Conductor*%
%TO.N,Net-(U2-NRST)*%
G36*
X21393859Y-15166752D02*
G01*
X21523247Y-15296140D01*
X21526674Y-15304413D01*
X21525394Y-15309734D01*
X21340866Y-15671083D01*
X21334051Y-15676893D01*
X21326009Y-15676588D01*
X21108822Y-15587563D01*
X21102468Y-15581255D01*
X21013411Y-15363988D01*
X21013444Y-15355036D01*
X21018913Y-15349135D01*
X21380266Y-15164604D01*
X21389191Y-15163894D01*
X21393859Y-15166752D01*
G37*
%TD.AperFunction*%
%TD*%
%TA.AperFunction,Conductor*%
%TO.N,/3.3V_Input*%
G36*
X65256449Y-16730092D02*
G01*
X65566191Y-16857436D01*
X65572540Y-16863751D01*
X65572563Y-16863808D01*
X65699906Y-17173549D01*
X65699883Y-17182504D01*
X65694573Y-17188331D01*
X65188734Y-17456981D01*
X65179820Y-17457835D01*
X65174973Y-17454921D01*
X64975078Y-17255026D01*
X64971651Y-17246753D01*
X64973016Y-17241269D01*
X65241668Y-16735425D01*
X65248575Y-16729727D01*
X65256449Y-16730092D01*
G37*
%TD.AperFunction*%
%TD*%
%TA.AperFunction,Conductor*%
%TO.N,/3.3V_Input*%
G36*
X61017728Y-21213648D02*
G01*
X61220881Y-21416801D01*
X61223914Y-21422061D01*
X61353263Y-21907483D01*
X61352081Y-21916360D01*
X61350230Y-21918769D01*
X60514414Y-22754585D01*
X60506141Y-22758012D01*
X60497868Y-22754585D01*
X60496387Y-22752773D01*
X59947213Y-21923765D01*
X59945501Y-21914976D01*
X59950506Y-21907550D01*
X61003005Y-21212158D01*
X61011797Y-21210458D01*
X61017728Y-21213648D01*
G37*
%TD.AperFunction*%
%TD*%
%TA.AperFunction,Conductor*%
%TO.N,/3.3V_Input*%
G36*
X63748731Y-7793017D02*
G01*
X64113535Y-7986763D01*
X64254573Y-8061668D01*
X64260272Y-8068575D01*
X64259906Y-8076450D01*
X64132563Y-8386191D01*
X64126248Y-8392540D01*
X64126191Y-8392563D01*
X63816450Y-8519906D01*
X63807495Y-8519883D01*
X63801668Y-8514573D01*
X63568982Y-8076450D01*
X63533017Y-8008732D01*
X63532164Y-7999820D01*
X63535076Y-7994975D01*
X63734974Y-7795077D01*
X63743246Y-7791651D01*
X63748731Y-7793017D01*
G37*
%TD.AperFunction*%
%TD*%
%TA.AperFunction,Conductor*%
%TO.N,/3.3V_Input*%
G36*
X64279620Y-12623427D02*
G01*
X64282534Y-12628274D01*
X64450252Y-13175920D01*
X64449398Y-13184834D01*
X64443571Y-13190144D01*
X64134506Y-13319119D01*
X64125551Y-13319142D01*
X64125494Y-13319119D01*
X63816428Y-13190144D01*
X63810113Y-13183795D01*
X63809747Y-13175922D01*
X63977466Y-12628273D01*
X63983165Y-12621367D01*
X63988653Y-12620000D01*
X64271347Y-12620000D01*
X64279620Y-12623427D01*
G37*
%TD.AperFunction*%
%TD*%
%TA.AperFunction,Conductor*%
%TO.N,/3.3V_Input*%
G36*
X64134478Y-9710868D02*
G01*
X64348891Y-9800344D01*
X64443571Y-9839855D01*
X64449886Y-9846204D01*
X64450252Y-9854079D01*
X64282534Y-10401726D01*
X64276835Y-10408633D01*
X64271347Y-10410000D01*
X63988653Y-10410000D01*
X63980380Y-10406573D01*
X63977466Y-10401726D01*
X63809747Y-9854079D01*
X63810601Y-9845165D01*
X63816427Y-9839855D01*
X64125494Y-9710879D01*
X64134449Y-9710857D01*
X64134478Y-9710868D01*
G37*
%TD.AperFunction*%
%TD*%
%TA.AperFunction,Conductor*%
%TO.N,/3.3V_Input*%
G36*
X57531400Y-6442791D02*
G01*
X57534889Y-6445195D01*
X57736452Y-6646758D01*
X57739879Y-6655031D01*
X57739214Y-6658918D01*
X57240896Y-8073645D01*
X57234916Y-8080310D01*
X57225974Y-8080793D01*
X57225395Y-8080572D01*
X56455285Y-7762562D01*
X56448947Y-7756238D01*
X56130809Y-6985817D01*
X56130818Y-6976862D01*
X56137157Y-6970537D01*
X56137392Y-6970443D01*
X57522452Y-6442535D01*
X57531400Y-6442791D01*
G37*
%TD.AperFunction*%
%TD*%
%TA.AperFunction,Conductor*%
%TO.N,/_USART2_RX*%
G36*
X60981906Y-2577378D02*
G01*
X60988720Y-2583187D01*
X60990000Y-2588508D01*
X60990000Y-2771491D01*
X60986573Y-2779764D01*
X60981905Y-2782622D01*
X60595912Y-2907652D01*
X60586986Y-2906941D01*
X60581514Y-2901038D01*
X60490889Y-2684515D01*
X60490857Y-2675563D01*
X60581514Y-2458960D01*
X60587870Y-2452652D01*
X60595911Y-2452347D01*
X60981906Y-2577378D01*
G37*
%TD.AperFunction*%
%TD*%
%TA.AperFunction,Conductor*%
%TO.N,/_USART2_RX*%
G36*
X69736924Y-2447126D02*
G01*
X69742545Y-2453104D01*
X69833109Y-2669483D01*
X69833142Y-2678437D01*
X69833109Y-2678517D01*
X69742432Y-2895164D01*
X69736076Y-2901473D01*
X69728175Y-2901822D01*
X69343429Y-2782553D01*
X69336541Y-2776831D01*
X69335193Y-2771378D01*
X69335193Y-2588381D01*
X69338620Y-2580108D01*
X69343126Y-2577304D01*
X69727989Y-2446543D01*
X69736924Y-2447126D01*
G37*
%TD.AperFunction*%
%TD*%
%TA.AperFunction,Conductor*%
%TO.N,/_USART2_RX*%
G36*
X58215423Y-12518526D02*
G01*
X58859654Y-12784556D01*
X58984966Y-12836303D01*
X58991305Y-12842628D01*
X58992200Y-12847127D01*
X58991509Y-13679012D01*
X58988075Y-13687282D01*
X58980533Y-13690680D01*
X57668282Y-13772077D01*
X57659813Y-13769168D01*
X57659285Y-13768672D01*
X57528120Y-13637507D01*
X57524693Y-13629234D01*
X57526417Y-13623120D01*
X58200986Y-12523222D01*
X58208232Y-12517963D01*
X58215423Y-12518526D01*
G37*
%TD.AperFunction*%
%TD*%
%TA.AperFunction,Conductor*%
%TO.N,/_USART2_RX*%
G36*
X60393013Y-2453058D02*
G01*
X60398485Y-2458961D01*
X60489109Y-2675483D01*
X60489142Y-2684437D01*
X60489109Y-2684517D01*
X60398485Y-2901038D01*
X60392129Y-2907347D01*
X60384087Y-2907652D01*
X59998095Y-2782622D01*
X59991280Y-2776812D01*
X59990000Y-2771491D01*
X59990000Y-2588508D01*
X59993427Y-2580235D01*
X59998091Y-2577378D01*
X60384088Y-2452347D01*
X60393013Y-2453058D01*
G37*
%TD.AperFunction*%
%TD*%
%TA.AperFunction,Conductor*%
%TO.N,/_USART2_TX*%
G36*
X58999048Y-15388825D02*
G01*
X58999565Y-15389490D01*
X59597231Y-16217756D01*
X59599293Y-16226470D01*
X59594589Y-16234090D01*
X59594368Y-16234246D01*
X58569951Y-16937979D01*
X58561191Y-16939839D01*
X58555053Y-16936608D01*
X58422370Y-16803925D01*
X58419627Y-16799595D01*
X58163278Y-16083349D01*
X58163717Y-16074405D01*
X58166783Y-16070435D01*
X58982567Y-15387364D01*
X58991109Y-15384682D01*
X58999048Y-15388825D01*
G37*
%TD.AperFunction*%
%TD*%
%TA.AperFunction,Conductor*%
%TO.N,/_USART2_TX*%
G36*
X63039489Y2205135D02*
G01*
X63808724Y1885528D01*
X63815049Y1879189D01*
X63815040Y1870234D01*
X63814706Y1869503D01*
X63138230Y512480D01*
X63131472Y506605D01*
X63127759Y506000D01*
X62942241Y506000D01*
X62933968Y509427D01*
X62931770Y512480D01*
X62255293Y1869503D01*
X62254669Y1878436D01*
X62260544Y1885194D01*
X62261261Y1885522D01*
X63030511Y2205136D01*
X63039466Y2205144D01*
X63039489Y2205135D01*
G37*
%TD.AperFunction*%
%TD*%
%TA.AperFunction,Conductor*%
%TO.N,/_USART2_TX*%
G36*
X69743013Y-753058D02*
G01*
X69748485Y-758961D01*
X69839109Y-975483D01*
X69839142Y-984437D01*
X69839109Y-984517D01*
X69748485Y-1201038D01*
X69742129Y-1207347D01*
X69734087Y-1207652D01*
X69348095Y-1082622D01*
X69341280Y-1076812D01*
X69340000Y-1071491D01*
X69340000Y-888508D01*
X69343427Y-880235D01*
X69348091Y-877378D01*
X69734088Y-752347D01*
X69743013Y-753058D01*
G37*
%TD.AperFunction*%
%TD*%
%TA.AperFunction,Conductor*%
%TO.N,/3.3V_Output*%
G36*
X64143343Y-21459394D02*
G01*
X64146703Y-21461739D01*
X64348255Y-21663291D01*
X64351682Y-21671564D01*
X64350961Y-21675608D01*
X63834501Y-23077868D01*
X63828426Y-23084447D01*
X63819478Y-23084803D01*
X63819056Y-23084638D01*
X63048785Y-22766562D01*
X63042447Y-22760238D01*
X62724364Y-21989950D01*
X62724373Y-21980997D01*
X62730712Y-21974672D01*
X62731092Y-21974524D01*
X64134397Y-21459030D01*
X64143343Y-21459394D01*
G37*
%TD.AperFunction*%
%TD*%
%TA.AperFunction,Conductor*%
%TO.N,/3.3V_Output*%
G36*
X77059160Y1510572D02*
G01*
X77059167Y1510570D01*
X77894780Y1132709D01*
X77900905Y1126178D01*
X77900913Y1126156D01*
X78213810Y291580D01*
X78213506Y282631D01*
X78206962Y276518D01*
X78206349Y276307D01*
X76572229Y-235045D01*
X76563310Y-234245D01*
X76560462Y-232152D01*
X76359055Y-30745D01*
X76355628Y-22472D01*
X76356663Y-17662D01*
X77043684Y1504723D01*
X77050209Y1510852D01*
X77059160Y1510572D01*
G37*
%TD.AperFunction*%
%TD*%
%TA.AperFunction,Conductor*%
%TO.N,/_VDD_5V*%
G36*
X56944234Y-3612209D02*
G01*
X57286407Y-3954382D01*
X57289833Y-3962546D01*
X57301390Y-5208200D01*
X57298041Y-5216505D01*
X57289800Y-5220008D01*
X57289701Y-5220009D01*
X56455653Y-5220702D01*
X56447377Y-5217282D01*
X56447360Y-5217265D01*
X55858996Y-4627516D01*
X55855579Y-4619239D01*
X55859016Y-4610970D01*
X55859268Y-4610725D01*
X56927972Y-3611933D01*
X56936356Y-3608789D01*
X56944234Y-3612209D01*
G37*
%TD.AperFunction*%
%TD*%
%TA.AperFunction,Conductor*%
%TO.N,/_VDD_5V*%
G36*
X70659489Y2205135D02*
G01*
X71429732Y1885109D01*
X71436057Y1878770D01*
X71436146Y1870059D01*
X70907903Y513455D01*
X70901707Y506989D01*
X70897000Y506000D01*
X70413000Y506000D01*
X70404727Y509427D01*
X70402097Y513455D01*
X69873853Y1870059D01*
X69874045Y1879011D01*
X69880266Y1885109D01*
X70650511Y2205136D01*
X70659466Y2205144D01*
X70659489Y2205135D01*
G37*
%TD.AperFunction*%
%TD*%
%TA.AperFunction,Conductor*%
%TO.N,/_JTAG_TMS{slash}SWDIO*%
G36*
X57566900Y-9018120D02*
G01*
X57570071Y-9020376D01*
X57701265Y-9151570D01*
X57704692Y-9159843D01*
X57704136Y-9163406D01*
X57240666Y-10613181D01*
X57234883Y-10620017D01*
X57225959Y-10620762D01*
X57225056Y-10620432D01*
X56455285Y-10302562D01*
X56448947Y-10296238D01*
X56130949Y-9526156D01*
X56130958Y-9517201D01*
X56137297Y-9510876D01*
X56137905Y-9510644D01*
X57557962Y-9017596D01*
X57566900Y-9018120D01*
G37*
%TD.AperFunction*%
%TD*%
%TA.AperFunction,Conductor*%
%TO.N,/_JTAG_TMS{slash}SWDIO*%
G36*
X73543013Y-8783058D02*
G01*
X73548485Y-8788961D01*
X73639109Y-9005483D01*
X73639142Y-9014437D01*
X73639109Y-9014517D01*
X73548485Y-9231038D01*
X73542129Y-9237347D01*
X73534087Y-9237652D01*
X73148095Y-9112622D01*
X73141280Y-9106812D01*
X73140000Y-9101491D01*
X73140000Y-8918508D01*
X73143427Y-8910235D01*
X73148091Y-8907378D01*
X73534088Y-8782347D01*
X73543013Y-8783058D01*
G37*
%TD.AperFunction*%
%TD*%
%TA.AperFunction,Conductor*%
%TO.N,/_JTAG_TCK{slash}SWCLK*%
G36*
X63393013Y-11343058D02*
G01*
X63398485Y-11348961D01*
X63489109Y-11565483D01*
X63489142Y-11574437D01*
X63489109Y-11574517D01*
X63398485Y-11791038D01*
X63392129Y-11797347D01*
X63384087Y-11797652D01*
X62998095Y-11672622D01*
X62991280Y-11666812D01*
X62990000Y-11661491D01*
X62990000Y-11478508D01*
X62993427Y-11470235D01*
X62998091Y-11467378D01*
X63384088Y-11342347D01*
X63393013Y-11343058D01*
G37*
%TD.AperFunction*%
%TD*%
%TA.AperFunction,Conductor*%
%TO.N,/_JTAG_TCK{slash}SWCLK*%
G36*
X57566900Y-11558120D02*
G01*
X57570071Y-11560376D01*
X57701265Y-11691570D01*
X57704692Y-11699843D01*
X57704136Y-11703406D01*
X57240666Y-13153181D01*
X57234883Y-13160017D01*
X57225959Y-13160762D01*
X57225056Y-13160432D01*
X56455285Y-12842562D01*
X56448947Y-12836238D01*
X56130949Y-12066156D01*
X56130958Y-12057201D01*
X56137297Y-12050876D01*
X56137905Y-12050644D01*
X57557962Y-11557596D01*
X57566900Y-11558120D01*
G37*
%TD.AperFunction*%
%TD*%
%TA.AperFunction,Conductor*%
%TO.N,/Download_SWDIO*%
G36*
X12262959Y-14867842D02*
G01*
X12392358Y-14997241D01*
X12395785Y-15005514D01*
X12394593Y-15010659D01*
X12215784Y-15375837D01*
X12209068Y-15381760D01*
X12200839Y-15381518D01*
X11983824Y-15292564D01*
X11977468Y-15286255D01*
X11977435Y-15286175D01*
X11888351Y-15068842D01*
X11888384Y-15059888D01*
X11893701Y-15054066D01*
X12249210Y-14865775D01*
X12258125Y-14864932D01*
X12262959Y-14867842D01*
G37*
%TD.AperFunction*%
%TD*%
%TA.AperFunction,Conductor*%
%TO.N,/Download_SWDIO*%
G36*
X15414478Y-9530868D02*
G01*
X15722769Y-9659520D01*
X15729084Y-9665869D01*
X15729146Y-9674612D01*
X15512922Y-10222594D01*
X15506698Y-10229032D01*
X15502039Y-10230000D01*
X15317961Y-10230000D01*
X15309688Y-10226573D01*
X15307078Y-10222594D01*
X15090853Y-9674612D01*
X15091004Y-9665659D01*
X15097228Y-9659520D01*
X15405494Y-9530879D01*
X15414449Y-9530857D01*
X15414478Y-9530868D01*
G37*
%TD.AperFunction*%
%TD*%
%TA.AperFunction,Conductor*%
%TO.N,/JTAG_nTRST*%
G36*
X20641906Y-8187378D02*
G01*
X20648720Y-8193187D01*
X20650000Y-8198508D01*
X20650000Y-8381491D01*
X20646573Y-8389764D01*
X20641905Y-8392622D01*
X20255912Y-8517652D01*
X20246986Y-8516941D01*
X20241514Y-8511038D01*
X20150889Y-8294515D01*
X20150857Y-8285563D01*
X20241514Y-8068960D01*
X20247870Y-8062652D01*
X20255911Y-8062347D01*
X20641906Y-8187378D01*
G37*
%TD.AperFunction*%
%TD*%
%TA.AperFunction,Conductor*%
%TO.N,/JTAG_nTRST*%
G36*
X28205490Y-9029504D02*
G01*
X29643396Y-9510724D01*
X29650154Y-9516599D01*
X29650778Y-9525532D01*
X29650497Y-9526285D01*
X29332562Y-10296214D01*
X29326237Y-10302553D01*
X29326214Y-10302562D01*
X28556285Y-10620497D01*
X28547330Y-10620488D01*
X28541005Y-10614149D01*
X28540724Y-10613396D01*
X28436695Y-10302553D01*
X28059505Y-9175492D01*
X28060129Y-9166562D01*
X28062324Y-9163512D01*
X28193510Y-9032326D01*
X28201782Y-9028900D01*
X28205490Y-9029504D01*
G37*
%TD.AperFunction*%
%TD*%
%TA.AperFunction,Conductor*%
%TO.N,/JTAG_TCK{slash}SWCLK*%
G36*
X30745490Y-11569504D02*
G01*
X32183396Y-12050724D01*
X32190154Y-12056599D01*
X32190778Y-12065532D01*
X32190497Y-12066285D01*
X31872562Y-12836214D01*
X31866237Y-12842553D01*
X31866214Y-12842562D01*
X31096285Y-13160497D01*
X31087330Y-13160488D01*
X31081005Y-13154149D01*
X31080724Y-13153396D01*
X30976695Y-12842553D01*
X30599505Y-11715492D01*
X30600129Y-11706562D01*
X30602324Y-11703512D01*
X30733510Y-11572326D01*
X30741782Y-11568900D01*
X30745490Y-11569504D01*
G37*
%TD.AperFunction*%
%TD*%
%TA.AperFunction,Conductor*%
%TO.N,/JTAG_TCK{slash}SWCLK*%
G36*
X20621701Y-9270446D02*
G01*
X20627927Y-9276585D01*
X20862514Y-9816960D01*
X20862665Y-9825913D01*
X20860055Y-9829892D01*
X20729892Y-9960055D01*
X20721619Y-9963482D01*
X20716960Y-9962514D01*
X20359037Y-9807132D01*
X20176584Y-9727926D01*
X20170361Y-9721489D01*
X20170422Y-9712748D01*
X20297437Y-9403806D01*
X20303748Y-9397461D01*
X20612748Y-9270423D01*
X20621701Y-9270446D01*
G37*
%TD.AperFunction*%
%TD*%
%TA.AperFunction,Conductor*%
%TO.N,/VDD_5V*%
G36*
X13100898Y-4547927D02*
G01*
X13108204Y-4553105D01*
X13110000Y-4559335D01*
X13110000Y-5040664D01*
X13106573Y-5048937D01*
X13100898Y-5052072D01*
X12391816Y-5213557D01*
X12382988Y-5212053D01*
X12378418Y-5206649D01*
X12309265Y-5040664D01*
X12210873Y-4804498D01*
X12210855Y-4795547D01*
X12378418Y-4393349D01*
X12384763Y-4387031D01*
X12391816Y-4386442D01*
X13100898Y-4547927D01*
G37*
%TD.AperFunction*%
%TD*%
%TA.AperFunction,Conductor*%
%TO.N,/VDD_5V*%
G36*
X8010898Y-7677927D02*
G01*
X8018204Y-7683105D01*
X8020000Y-7689335D01*
X8020000Y-8170664D01*
X8016573Y-8178937D01*
X8010898Y-8182072D01*
X7301816Y-8343557D01*
X7292988Y-8342053D01*
X7288418Y-8336649D01*
X7219265Y-8170664D01*
X7120873Y-7934498D01*
X7120855Y-7925547D01*
X7288418Y-7523349D01*
X7294763Y-7517031D01*
X7301816Y-7516442D01*
X8010898Y-7677927D01*
G37*
%TD.AperFunction*%
%TD*%
%TA.AperFunction,Conductor*%
%TO.N,/VDD_5V*%
G36*
X31095274Y-4899084D02*
G01*
X31866215Y-5217438D01*
X31872552Y-5223761D01*
X31872562Y-5223785D01*
X32190914Y-5994723D01*
X32190905Y-6003678D01*
X32184807Y-6009900D01*
X30852018Y-6595639D01*
X30843066Y-6595831D01*
X30839038Y-6593201D01*
X30496798Y-6250961D01*
X30493371Y-6242688D01*
X30494359Y-6237984D01*
X31080099Y-4905191D01*
X31086565Y-4898996D01*
X31095274Y-4899084D01*
G37*
%TD.AperFunction*%
%TD*%
%TA.AperFunction,Conductor*%
%TO.N,/VDD_5V*%
G36*
X7358694Y-11857405D02*
G01*
X7361891Y-11863368D01*
X7503849Y-12568375D01*
X7502122Y-12577162D01*
X7496879Y-12581485D01*
X7094500Y-12749125D01*
X7085545Y-12749144D01*
X7085500Y-12749125D01*
X6683605Y-12581687D01*
X6677286Y-12575342D01*
X6676772Y-12567979D01*
X6857744Y-11862770D01*
X6863120Y-11855608D01*
X6869077Y-11853978D01*
X7350421Y-11853978D01*
X7358694Y-11857405D01*
G37*
%TD.AperFunction*%
%TD*%
%TA.AperFunction,Conductor*%
%TO.N,/VDD_5V*%
G36*
X7526523Y-8098365D02*
G01*
X7532842Y-8104710D01*
X7533394Y-8111918D01*
X7362166Y-8819064D01*
X7356889Y-8826299D01*
X7350795Y-8828011D01*
X6869456Y-8828011D01*
X6861183Y-8824584D01*
X6858016Y-8818766D01*
X6706295Y-8111720D01*
X6707910Y-8102913D01*
X6713234Y-8098466D01*
X7115501Y-7930873D01*
X7124452Y-7930855D01*
X7526523Y-8098365D01*
G37*
%TD.AperFunction*%
%TD*%
%TA.AperFunction,Conductor*%
%TO.N,/VDD_5V*%
G36*
X10166649Y-4978418D02*
G01*
X10172968Y-4984763D01*
X10173557Y-4991816D01*
X10012073Y-5700898D01*
X10006895Y-5708204D01*
X10000665Y-5710000D01*
X9519335Y-5710000D01*
X9511062Y-5706573D01*
X9507927Y-5700898D01*
X9346442Y-4991816D01*
X9347946Y-4982988D01*
X9353349Y-4978418D01*
X9755501Y-4810873D01*
X9764452Y-4810855D01*
X10166649Y-4978418D01*
G37*
%TD.AperFunction*%
%TD*%
M02*
