M48
; DRILL file {KiCad 7.0.5} date Fri Jun 30 14:06:19 2023
; FORMAT={-:-/ absolute / metric / decimal}
; #@! TF.CreationDate,2023-06-30T14:06:19+08:00
; #@! TF.GenerationSoftware,Kicad,Pcbnew,7.0.5
; #@! TF.FileFunction,MixedPlating,1,2
FMAT,2
METRIC
; #@! TA.AperFunction,Plated,PTH,ViaDrill
T1C0.300
; #@! TA.AperFunction,Plated,PTH,ViaDrill
T2C0.400
; #@! TA.AperFunction,Plated,PTH,ComponentDrill
T3C0.600
; #@! TA.AperFunction,Plated,PTH,ComponentDrill
T4C1.000
; #@! TA.AperFunction,Plated,PTH,ComponentDrill
T5C1.200
; #@! TA.AperFunction,Plated,PTH,ComponentDrill
T6C2.200
; #@! TA.AperFunction,NonPlated,NPTH,ComponentDrill
T7C0.650
%
G90
G05
T1
X113.87Y-113.14
X115.41Y-98.18
X115.41Y-100.39
X115.517Y-109.097
X115.89Y-112.39
X116.13Y-103.11
X116.8Y-113.79
X116.83Y-107.27
X119.32Y-106.63
X120.25Y-107.34
X121.34Y-113.35
X121.815Y-110.345
X121.82Y-106.0
X121.82Y-108.68
X122.2Y-103.72
X122.5Y-101.16
X123.39Y-107.34
X124.06Y-105.39
X124.21Y-106.5
X125.015Y-112.685
X126.33Y-111.37
X126.34Y-114.14
X129.14Y-99.61
X129.14Y-110.69
X129.15Y-103.61
X129.16Y-106.13
X134.46Y-106.12
X158.95Y-106.09
X158.95Y-108.65
X164.4Y-99.78
X164.49Y-105.49
X166.73Y-107.72
X166.73Y-110.02
X166.78Y-105.49
X167.4Y-108.67
X168.04Y-105.49
X168.04Y-106.81
X168.04Y-110.42
X168.24Y-111.95
X169.48Y-113.96
X173.25Y-111.17
X173.42Y-98.91
X173.744Y-99.774
X173.75Y-98.08
X175.73Y-99.84
X177.55Y-106.11
X177.55Y-107.51
X180.01Y-108.85
T2
X109.68Y-99.33
X111.0Y-109.85
X111.03Y-105.03
X112.6Y-103.11
X113.67Y-101.91
X116.12Y-101.9
X121.81Y-107.28
X126.33Y-116.61
T4
X106.95Y-116.25
X109.49Y-116.25
X112.03Y-116.25
X114.57Y-116.25
X133.24Y-102.32
X133.24Y-104.86
X133.24Y-107.4
X133.24Y-109.94
X133.24Y-112.48
X135.78Y-102.32
X135.78Y-104.86
X135.78Y-107.4
X135.78Y-109.94
X135.78Y-112.48
X160.362Y-102.32
X160.362Y-104.86
X160.362Y-107.4
X160.362Y-109.94
X160.362Y-112.48
X162.901Y-102.32
X162.901Y-104.86
X162.901Y-107.4
X162.901Y-109.94
X162.901Y-112.48
X164.405Y-94.894
X164.415Y-119.864
X166.945Y-94.894
X166.955Y-119.864
X169.485Y-94.894
X171.975Y-119.864
X172.025Y-94.894
X174.515Y-119.864
X174.565Y-94.894
X181.808Y-95.97
X181.808Y-98.51
X181.808Y-101.05
X181.808Y-103.59
X181.808Y-106.13
X181.808Y-108.67
X181.808Y-111.21
X181.808Y-113.75
X181.808Y-116.29
X181.808Y-118.83
X184.349Y-95.97
X184.349Y-98.51
X184.349Y-101.05
X184.349Y-103.59
X184.349Y-106.13
X184.349Y-108.67
X184.349Y-111.21
X184.349Y-113.75
X184.349Y-116.29
X184.349Y-118.83
T5
X104.17Y-99.15
X104.17Y-115.65
T6
X134.67Y-115.65
X134.71Y-99.15
X160.514Y-94.81
X160.554Y-119.92
X178.414Y-94.81
X178.434Y-119.95
T7
X108.289Y-104.55
X108.289Y-110.33
T3
G00X105.039Y-103.115
M15
G01X104.139Y-103.115
M16
G05
G00X105.039Y-111.765
M15
G01X104.139Y-111.765
M16
G05
G00X109.389Y-103.115
M15
G01X108.189Y-103.115
M16
G05
G00X109.389Y-111.765
M15
G01X108.189Y-111.765
M16
G05
T0
M30
