M48
; DRILL file {KiCad (6.0.8)} date Mon Nov  7 19:54:14 2022
; FORMAT={-:-/ absolute / metric / decimal}
; #@! TF.CreationDate,2022-11-07T19:54:14+08:00
; #@! TF.GenerationSoftware,Kicad,Pcbnew,(6.0.8)
; #@! TF.FileFunction,MixedPlating,1,2
FMAT,2
METRIC
; #@! TA.AperFunction,Plated,PTH,ViaDrill
T1C0.300
; #@! TA.AperFunction,Plated,PTH,ViaDrill
T2C0.400
; #@! TA.AperFunction,Plated,PTH,ViaDrill
T3C0.500
; #@! TA.AperFunction,Plated,PTH,ComponentDrill
T4C0.600
; #@! TA.AperFunction,Plated,PTH,ComponentDrill
T5C1.000
; #@! TA.AperFunction,Plated,PTH,ComponentDrill
T6C1.200
; #@! TA.AperFunction,Plated,PTH,ComponentDrill
T7C2.200
; #@! TA.AperFunction,NonPlated,NPTH,ComponentDrill
T8C0.650
%
G90
G05
T1
X109.67Y-99.49
X112.65Y-108.8
X113.57Y-108.04
X113.77Y-110.09
X113.77Y-113.36
X114.79Y-98.56
X114.8Y-112.72
X114.81Y-111.155
X116.04Y-112.76
X116.11Y-114.38
X118.22Y-102.11
X119.21Y-101.1
X119.49Y-101.94
X119.95Y-107.19
X121.12Y-113.46
X123.15Y-113.27
X126.88Y-109.35
X129.9Y-105.68
X129.91Y-108.721
X129.91Y-110.67
X132.252Y-116.497
X164.4Y-99.78
X167.4Y-108.67
X169.49Y-114.26
X173.41Y-98.08
X173.42Y-98.91
X173.43Y-99.774
X175.73Y-99.84
X177.66Y-106.0
T2
X112.6Y-103.11
X116.61Y-106.79
X117.0Y-113.221
X118.18Y-109.08
X119.98Y-109.07
X120.1Y-105.16
X121.65Y-101.73
X123.04Y-100.14
X125.06Y-105.18
X126.78Y-113.27
X128.01Y-108.13
X128.94Y-106.7
X128.95Y-109.35
X130.16Y-101.03
X130.88Y-109.35
X130.88Y-113.24
X130.89Y-111.84
X131.48Y-105.28
X164.49Y-105.49
X166.73Y-107.72
X166.74Y-110.02
X168.04Y-106.81
X168.04Y-110.42
X168.24Y-111.95
X174.79Y-111.17
X177.67Y-107.56
X179.69Y-108.39
T3
X111.0Y-109.85
X111.03Y-105.03
T5
X106.94Y-115.94
X109.48Y-115.94
X112.02Y-115.94
X114.56Y-115.94
X133.24Y-102.32
X133.24Y-104.86
X133.24Y-107.4
X133.24Y-109.94
X133.24Y-112.48
X135.78Y-102.32
X135.78Y-104.86
X135.78Y-107.4
X135.78Y-109.94
X135.78Y-112.48
X160.362Y-102.29
X160.362Y-104.83
X160.362Y-107.37
X160.362Y-109.91
X160.362Y-112.45
X162.901Y-102.29
X162.901Y-104.83
X162.901Y-107.37
X162.901Y-109.91
X162.901Y-112.45
X164.405Y-94.894
X164.415Y-119.864
X166.945Y-94.894
X166.955Y-119.864
X169.485Y-94.894
X171.975Y-119.864
X172.025Y-94.894
X174.515Y-119.864
X174.565Y-94.894
X181.808Y-95.792
X181.808Y-98.332
X181.808Y-100.872
X181.808Y-103.412
X181.808Y-105.952
X181.808Y-108.492
X181.808Y-111.032
X181.808Y-113.572
X181.808Y-116.112
X181.808Y-118.652
X184.349Y-95.792
X184.349Y-98.332
X184.349Y-100.872
X184.349Y-103.412
X184.349Y-105.952
X184.349Y-108.492
X184.349Y-111.032
X184.349Y-113.572
X184.349Y-116.112
X184.349Y-118.652
T6
X104.17Y-98.86
X104.17Y-115.86
T7
X134.67Y-115.51
X134.71Y-99.26
X160.514Y-94.81
X160.554Y-119.92
X178.414Y-94.81
X178.434Y-119.95
T8
X108.489Y-104.56
X108.489Y-110.34
T4
G00X105.239Y-103.125
M15
G01X104.339Y-103.125
M16
G05
G00X105.239Y-111.775
M15
G01X104.339Y-111.775
M16
G05
G00X109.589Y-103.125
M15
G01X108.389Y-103.125
M16
G05
G00X109.589Y-111.775
M15
G01X108.389Y-111.775
M16
G05
T0
M30
