%TF.GenerationSoftware,KiCad,Pcbnew,(6.0.8)*%
%TF.CreationDate,2022-11-07T22:55:53+08:00*%
%TF.ProjectId,UINIO-DAP-Link,55494e49-4f2d-4444-9150-2d4c696e6b2e,Version 1.0.0*%
%TF.SameCoordinates,Original*%
%TF.FileFunction,Legend,Bot*%
%TF.FilePolarity,Positive*%
%FSLAX46Y46*%
G04 Gerber Fmt 4.6, Leading zero omitted, Abs format (unit mm)*
G04 Created by KiCad (PCBNEW (6.0.8)) date 2022-11-07 22:55:53*
%MOMM*%
%LPD*%
G01*
G04 APERTURE LIST*
G04 Aperture macros list*
%AMRoundRect*
0 Rectangle with rounded corners*
0 $1 Rounding radius*
0 $2 $3 $4 $5 $6 $7 $8 $9 X,Y pos of 4 corners*
0 Add a 4 corners polygon primitive as box body*
4,1,4,$2,$3,$4,$5,$6,$7,$8,$9,$2,$3,0*
0 Add four circle primitives for the rounded corners*
1,1,$1+$1,$2,$3*
1,1,$1+$1,$4,$5*
1,1,$1+$1,$6,$7*
1,1,$1+$1,$8,$9*
0 Add four rect primitives between the rounded corners*
20,1,$1+$1,$2,$3,$4,$5,0*
20,1,$1+$1,$4,$5,$6,$7,0*
20,1,$1+$1,$6,$7,$8,$9,0*
20,1,$1+$1,$8,$9,$2,$3,0*%
G04 Aperture macros list end*
%ADD10C,0.100000*%
%ADD11C,0.150000*%
%ADD12C,0.200000*%
%ADD13C,0.300000*%
%ADD14R,1.700000X1.700000*%
%ADD15O,1.700000X1.700000*%
%ADD16C,1.200000*%
%ADD17RoundRect,0.250000X-0.600000X-0.600000X0.600000X-0.600000X0.600000X0.600000X-0.600000X0.600000X0*%
%ADD18C,1.700000*%
%ADD19C,2.200000*%
%ADD20RoundRect,0.250000X0.600000X0.600000X-0.600000X0.600000X-0.600000X-0.600000X0.600000X-0.600000X0*%
%ADD21C,0.650000*%
%ADD22O,2.100000X1.000000*%
%ADD23O,1.900000X1.000000*%
G04 APERTURE END LIST*
D10*
X186320000Y-104974517D02*
X191520000Y-104974517D01*
X186320000Y-112674517D02*
X191520000Y-112674517D01*
X153205000Y-104796668D02*
X158255000Y-104796668D01*
X137905000Y-109343332D02*
X142955000Y-109343332D01*
X137900000Y-97810000D02*
X142960000Y-97810000D01*
X142960000Y-97810000D02*
X142960000Y-117010000D01*
X142960000Y-117010000D02*
X137900000Y-117010000D01*
X137900000Y-117010000D02*
X137900000Y-97810000D01*
X153200000Y-100986668D02*
X158235000Y-100986668D01*
X153200000Y-97786668D02*
X158260000Y-97786668D01*
X158260000Y-97786668D02*
X158260000Y-116986668D01*
X158260000Y-116986668D02*
X153200000Y-116986668D01*
X153200000Y-116986668D02*
X153200000Y-97786668D01*
X186320000Y-119274517D02*
X191520000Y-119274517D01*
X155740000Y-97776668D02*
X155740000Y-116976668D01*
X186320000Y-101974517D02*
X191520000Y-101974517D01*
X186320000Y-96674517D02*
X191520000Y-96674517D01*
X137905000Y-104820000D02*
X142955000Y-104820000D01*
X186320000Y-110174517D02*
X191520000Y-110174517D01*
X186320000Y-116724517D02*
X191520000Y-116724517D01*
X142955000Y-105340000D02*
X144515000Y-105340000D01*
X144515000Y-105340000D02*
X144515000Y-109460000D01*
X144515000Y-109460000D02*
X142955000Y-109460000D01*
X142955000Y-109460000D02*
X142955000Y-105340000D01*
G36*
X142955000Y-105340000D02*
G01*
X144515000Y-105340000D01*
X144515000Y-109460000D01*
X142955000Y-109460000D01*
X142955000Y-105340000D01*
G37*
X186320000Y-92874517D02*
X191520000Y-92874517D01*
X191520000Y-92874517D02*
X191520000Y-121774517D01*
X191520000Y-121774517D02*
X186320000Y-121774517D01*
X186320000Y-121774517D02*
X186320000Y-92874517D01*
X186320000Y-107674517D02*
X191520000Y-107674517D01*
X191560000Y-105150000D02*
X193090000Y-105150000D01*
X193090000Y-105150000D02*
X193090000Y-109270000D01*
X193090000Y-109270000D02*
X191560000Y-109270000D01*
X191560000Y-109270000D02*
X191560000Y-105150000D01*
G36*
X191560000Y-105150000D02*
G01*
X193090000Y-105150000D01*
X193090000Y-109270000D01*
X191560000Y-109270000D01*
X191560000Y-105150000D01*
G37*
X186320000Y-99274517D02*
X191520000Y-99274517D01*
X137885000Y-101010000D02*
X142935000Y-101010000D01*
X151620000Y-105316668D02*
X153200000Y-105316668D01*
X153200000Y-105316668D02*
X153200000Y-109436668D01*
X153200000Y-109436668D02*
X151620000Y-109436668D01*
X151620000Y-109436668D02*
X151620000Y-105316668D01*
G36*
X151620000Y-105316668D02*
G01*
X153200000Y-105316668D01*
X153200000Y-109436668D01*
X151620000Y-109436668D01*
X151620000Y-105316668D01*
G37*
X153195000Y-113836668D02*
X158245000Y-113836668D01*
X153205000Y-109320000D02*
X158255000Y-109320000D01*
X140440000Y-97800000D02*
X140440000Y-117000000D01*
X137895000Y-113860000D02*
X142945000Y-113860000D01*
X188920000Y-92874517D02*
X188920000Y-121774517D01*
D11*
X189727142Y-117824517D02*
X190627142Y-118424517D01*
X189727142Y-118424517D02*
X190627142Y-117824517D01*
D10*
X187970000Y-101233333D02*
X188003333Y-101300000D01*
X188003333Y-101400000D01*
X187970000Y-101500000D01*
X187903333Y-101566666D01*
X187836666Y-101600000D01*
X187703333Y-101633333D01*
X187603333Y-101633333D01*
X187470000Y-101600000D01*
X187403333Y-101566666D01*
X187336666Y-101500000D01*
X187303333Y-101400000D01*
X187303333Y-101333333D01*
X187336666Y-101233333D01*
X187370000Y-101200000D01*
X187603333Y-101200000D01*
X187603333Y-101333333D01*
X187303333Y-100900000D02*
X188003333Y-100900000D01*
X187303333Y-100500000D01*
X188003333Y-100500000D01*
X187303333Y-100166666D02*
X188003333Y-100166666D01*
X188003333Y-100000000D01*
X187970000Y-99900000D01*
X187903333Y-99833333D01*
X187836666Y-99800000D01*
X187703333Y-99766666D01*
X187603333Y-99766666D01*
X187470000Y-99800000D01*
X187403333Y-99833333D01*
X187336666Y-99900000D01*
X187303333Y-100000000D01*
X187303333Y-100166666D01*
X187970000Y-118483333D02*
X188003333Y-118550000D01*
X188003333Y-118650000D01*
X187970000Y-118750000D01*
X187903333Y-118816666D01*
X187836666Y-118850000D01*
X187703333Y-118883333D01*
X187603333Y-118883333D01*
X187470000Y-118850000D01*
X187403333Y-118816666D01*
X187336666Y-118750000D01*
X187303333Y-118650000D01*
X187303333Y-118583333D01*
X187336666Y-118483333D01*
X187370000Y-118450000D01*
X187603333Y-118450000D01*
X187603333Y-118583333D01*
X187303333Y-118150000D02*
X188003333Y-118150000D01*
X187303333Y-117750000D01*
X188003333Y-117750000D01*
X187303333Y-117416666D02*
X188003333Y-117416666D01*
X188003333Y-117250000D01*
X187970000Y-117150000D01*
X187903333Y-117083333D01*
X187836666Y-117050000D01*
X187703333Y-117016666D01*
X187603333Y-117016666D01*
X187470000Y-117050000D01*
X187403333Y-117083333D01*
X187336666Y-117150000D01*
X187303333Y-117250000D01*
X187303333Y-117416666D01*
D11*
X154773809Y-105321429D02*
X154811904Y-105435715D01*
X154811904Y-105626191D01*
X154773809Y-105702382D01*
X154735714Y-105740477D01*
X154659523Y-105778572D01*
X154583333Y-105778572D01*
X154507142Y-105740477D01*
X154469047Y-105702382D01*
X154430952Y-105626191D01*
X154392857Y-105473810D01*
X154354761Y-105397620D01*
X154316666Y-105359525D01*
X154240476Y-105321429D01*
X154164285Y-105321429D01*
X154088095Y-105359525D01*
X154050000Y-105397620D01*
X154011904Y-105473810D01*
X154011904Y-105664287D01*
X154050000Y-105778572D01*
X154011904Y-106045239D02*
X154811904Y-106235715D01*
X154240476Y-106388096D01*
X154811904Y-106540477D01*
X154011904Y-106730953D01*
X154811904Y-107035715D02*
X154011904Y-107035715D01*
X154011904Y-107226191D01*
X154050000Y-107340477D01*
X154126190Y-107416668D01*
X154202380Y-107454763D01*
X154354761Y-107492858D01*
X154469047Y-107492858D01*
X154621428Y-107454763D01*
X154697619Y-107416668D01*
X154773809Y-107340477D01*
X154811904Y-107226191D01*
X154811904Y-107035715D01*
X154811904Y-107835715D02*
X154011904Y-107835715D01*
X154011904Y-108369048D02*
X154011904Y-108521429D01*
X154050000Y-108597620D01*
X154126190Y-108673810D01*
X154278571Y-108711906D01*
X154545238Y-108711906D01*
X154697619Y-108673810D01*
X154773809Y-108597620D01*
X154811904Y-108521429D01*
X154811904Y-108369048D01*
X154773809Y-108292858D01*
X154697619Y-108216668D01*
X154545238Y-108178572D01*
X154278571Y-108178572D01*
X154126190Y-108216668D01*
X154050000Y-108292858D01*
X154011904Y-108369048D01*
X142252857Y-99561428D02*
X142252857Y-99990000D01*
X141824285Y-100032857D01*
X141867142Y-99990000D01*
X141910000Y-99904285D01*
X141910000Y-99690000D01*
X141867142Y-99604285D01*
X141824285Y-99561428D01*
X141738571Y-99518571D01*
X141524285Y-99518571D01*
X141438571Y-99561428D01*
X141395714Y-99604285D01*
X141352857Y-99690000D01*
X141352857Y-99904285D01*
X141395714Y-99990000D01*
X141438571Y-100032857D01*
X142252857Y-99261428D02*
X141352857Y-98961428D01*
X142252857Y-98661428D01*
D10*
X187970000Y-106883333D02*
X188003333Y-106950000D01*
X188003333Y-107050000D01*
X187970000Y-107150000D01*
X187903333Y-107216666D01*
X187836666Y-107250000D01*
X187703333Y-107283333D01*
X187603333Y-107283333D01*
X187470000Y-107250000D01*
X187403333Y-107216666D01*
X187336666Y-107150000D01*
X187303333Y-107050000D01*
X187303333Y-106983333D01*
X187336666Y-106883333D01*
X187370000Y-106850000D01*
X187603333Y-106850000D01*
X187603333Y-106983333D01*
X187303333Y-106550000D02*
X188003333Y-106550000D01*
X187303333Y-106150000D01*
X188003333Y-106150000D01*
X187303333Y-105816666D02*
X188003333Y-105816666D01*
X188003333Y-105650000D01*
X187970000Y-105550000D01*
X187903333Y-105483333D01*
X187836666Y-105450000D01*
X187703333Y-105416666D01*
X187603333Y-105416666D01*
X187470000Y-105450000D01*
X187403333Y-105483333D01*
X187336666Y-105550000D01*
X187303333Y-105650000D01*
X187303333Y-105816666D01*
D11*
X157377142Y-111366668D02*
X156948571Y-111066668D01*
X157377142Y-110852382D02*
X156477142Y-110852382D01*
X156477142Y-111195239D01*
X156520000Y-111280953D01*
X156562857Y-111323810D01*
X156648571Y-111366668D01*
X156777142Y-111366668D01*
X156862857Y-111323810D01*
X156905714Y-111280953D01*
X156948571Y-111195239D01*
X156948571Y-110852382D01*
X156477142Y-111666668D02*
X157377142Y-112266668D01*
X156477142Y-112266668D02*
X157377142Y-111666668D01*
D10*
X190708095Y-107414989D02*
X190708095Y-106957846D01*
X189908095Y-107186418D02*
X190708095Y-107186418D01*
X189984285Y-106234037D02*
X189946190Y-106272132D01*
X189908095Y-106386418D01*
X189908095Y-106462608D01*
X189946190Y-106576894D01*
X190022380Y-106653084D01*
X190098571Y-106691179D01*
X190250952Y-106729275D01*
X190365238Y-106729275D01*
X190517619Y-106691179D01*
X190593809Y-106653084D01*
X190670000Y-106576894D01*
X190708095Y-106462608D01*
X190708095Y-106386418D01*
X190670000Y-106272132D01*
X190631904Y-106234037D01*
X189908095Y-105891179D02*
X190708095Y-105891179D01*
X189908095Y-105434037D02*
X190365238Y-105776894D01*
X190708095Y-105434037D02*
X190250952Y-105891179D01*
X188058095Y-95980952D02*
X188058095Y-95485714D01*
X187753333Y-95752380D01*
X187753333Y-95638095D01*
X187715238Y-95561904D01*
X187677142Y-95523809D01*
X187600952Y-95485714D01*
X187410476Y-95485714D01*
X187334285Y-95523809D01*
X187296190Y-95561904D01*
X187258095Y-95638095D01*
X187258095Y-95866666D01*
X187296190Y-95942857D01*
X187334285Y-95980952D01*
X187334285Y-95142857D02*
X187296190Y-95104761D01*
X187258095Y-95142857D01*
X187296190Y-95180952D01*
X187334285Y-95142857D01*
X187258095Y-95142857D01*
X188058095Y-94838095D02*
X188058095Y-94342857D01*
X187753333Y-94609523D01*
X187753333Y-94495238D01*
X187715238Y-94419047D01*
X187677142Y-94380952D01*
X187600952Y-94342857D01*
X187410476Y-94342857D01*
X187334285Y-94380952D01*
X187296190Y-94419047D01*
X187258095Y-94495238D01*
X187258095Y-94723809D01*
X187296190Y-94800000D01*
X187334285Y-94838095D01*
X188058095Y-94114285D02*
X187258095Y-93847619D01*
X188058095Y-93580952D01*
D11*
X141456190Y-108775238D02*
X141418095Y-108660952D01*
X141418095Y-108470476D01*
X141456190Y-108394285D01*
X141494285Y-108356190D01*
X141570476Y-108318095D01*
X141646666Y-108318095D01*
X141722857Y-108356190D01*
X141760952Y-108394285D01*
X141799047Y-108470476D01*
X141837142Y-108622857D01*
X141875238Y-108699047D01*
X141913333Y-108737142D01*
X141989523Y-108775238D01*
X142065714Y-108775238D01*
X142141904Y-108737142D01*
X142180000Y-108699047D01*
X142218095Y-108622857D01*
X142218095Y-108432380D01*
X142180000Y-108318095D01*
X142218095Y-108051428D02*
X141418095Y-107860952D01*
X141989523Y-107708571D01*
X141418095Y-107556190D01*
X142218095Y-107365714D01*
X141418095Y-107060952D02*
X142218095Y-107060952D01*
X142218095Y-106870476D01*
X142180000Y-106756190D01*
X142103809Y-106680000D01*
X142027619Y-106641904D01*
X141875238Y-106603809D01*
X141760952Y-106603809D01*
X141608571Y-106641904D01*
X141532380Y-106680000D01*
X141456190Y-106756190D01*
X141418095Y-106870476D01*
X141418095Y-107060952D01*
X141418095Y-106260952D02*
X142218095Y-106260952D01*
X142218095Y-105727619D02*
X142218095Y-105575238D01*
X142180000Y-105499047D01*
X142103809Y-105422857D01*
X141951428Y-105384761D01*
X141684761Y-105384761D01*
X141532380Y-105422857D01*
X141456190Y-105499047D01*
X141418095Y-105575238D01*
X141418095Y-105727619D01*
X141456190Y-105803809D01*
X141532380Y-105880000D01*
X141684761Y-105918095D01*
X141951428Y-105918095D01*
X142103809Y-105880000D01*
X142180000Y-105803809D01*
X142218095Y-105727619D01*
D10*
X190708095Y-101493564D02*
X190708095Y-101036421D01*
X189908095Y-101264993D02*
X190708095Y-101264993D01*
X189908095Y-100769755D02*
X190708095Y-100769755D01*
X190708095Y-100579278D01*
X190670000Y-100464993D01*
X190593809Y-100388802D01*
X190517619Y-100350707D01*
X190365238Y-100312612D01*
X190250952Y-100312612D01*
X190098571Y-100350707D01*
X190022380Y-100388802D01*
X189946190Y-100464993D01*
X189908095Y-100579278D01*
X189908095Y-100769755D01*
X189908095Y-99969755D02*
X190708095Y-99969755D01*
X187970000Y-104083333D02*
X188003333Y-104150000D01*
X188003333Y-104250000D01*
X187970000Y-104350000D01*
X187903333Y-104416666D01*
X187836666Y-104450000D01*
X187703333Y-104483333D01*
X187603333Y-104483333D01*
X187470000Y-104450000D01*
X187403333Y-104416666D01*
X187336666Y-104350000D01*
X187303333Y-104250000D01*
X187303333Y-104183333D01*
X187336666Y-104083333D01*
X187370000Y-104050000D01*
X187603333Y-104050000D01*
X187603333Y-104183333D01*
X187303333Y-103750000D02*
X188003333Y-103750000D01*
X187303333Y-103350000D01*
X188003333Y-103350000D01*
X187303333Y-103016666D02*
X188003333Y-103016666D01*
X188003333Y-102850000D01*
X187970000Y-102750000D01*
X187903333Y-102683333D01*
X187836666Y-102650000D01*
X187703333Y-102616666D01*
X187603333Y-102616666D01*
X187470000Y-102650000D01*
X187403333Y-102683333D01*
X187336666Y-102750000D01*
X187303333Y-102850000D01*
X187303333Y-103016666D01*
D11*
X142220000Y-116125714D02*
X142262857Y-116211428D01*
X142262857Y-116340000D01*
X142220000Y-116468571D01*
X142134285Y-116554285D01*
X142048571Y-116597142D01*
X141877142Y-116640000D01*
X141748571Y-116640000D01*
X141577142Y-116597142D01*
X141491428Y-116554285D01*
X141405714Y-116468571D01*
X141362857Y-116340000D01*
X141362857Y-116254285D01*
X141405714Y-116125714D01*
X141448571Y-116082857D01*
X141748571Y-116082857D01*
X141748571Y-116254285D01*
X141362857Y-115697142D02*
X142262857Y-115697142D01*
X141362857Y-115182857D01*
X142262857Y-115182857D01*
X141362857Y-114754285D02*
X142262857Y-114754285D01*
X142262857Y-114540000D01*
X142220000Y-114411428D01*
X142134285Y-114325714D01*
X142048571Y-114282857D01*
X141877142Y-114240000D01*
X141748571Y-114240000D01*
X141577142Y-114282857D01*
X141491428Y-114325714D01*
X141405714Y-114411428D01*
X141362857Y-114540000D01*
X141362857Y-114754285D01*
X156808571Y-105404763D02*
X157341904Y-105404763D01*
X156884761Y-105404763D02*
X156846666Y-105442858D01*
X156808571Y-105519048D01*
X156808571Y-105633334D01*
X156846666Y-105709525D01*
X156922857Y-105747620D01*
X157341904Y-105747620D01*
X156541904Y-106014287D02*
X156541904Y-106471429D01*
X157341904Y-106242858D02*
X156541904Y-106242858D01*
X157341904Y-107195239D02*
X156960952Y-106928572D01*
X157341904Y-106738096D02*
X156541904Y-106738096D01*
X156541904Y-107042858D01*
X156580000Y-107119048D01*
X156618095Y-107157144D01*
X156694285Y-107195239D01*
X156808571Y-107195239D01*
X156884761Y-107157144D01*
X156922857Y-107119048D01*
X156960952Y-107042858D01*
X156960952Y-106738096D01*
X157303809Y-107500001D02*
X157341904Y-107614287D01*
X157341904Y-107804763D01*
X157303809Y-107880953D01*
X157265714Y-107919048D01*
X157189523Y-107957144D01*
X157113333Y-107957144D01*
X157037142Y-107919048D01*
X156999047Y-107880953D01*
X156960952Y-107804763D01*
X156922857Y-107652382D01*
X156884761Y-107576191D01*
X156846666Y-107538096D01*
X156770476Y-107500001D01*
X156694285Y-107500001D01*
X156618095Y-107538096D01*
X156580000Y-107576191D01*
X156541904Y-107652382D01*
X156541904Y-107842858D01*
X156580000Y-107957144D01*
X156541904Y-108185715D02*
X156541904Y-108642858D01*
X157341904Y-108414287D02*
X156541904Y-108414287D01*
D10*
X187970000Y-98533333D02*
X188003333Y-98600000D01*
X188003333Y-98700000D01*
X187970000Y-98800000D01*
X187903333Y-98866666D01*
X187836666Y-98900000D01*
X187703333Y-98933333D01*
X187603333Y-98933333D01*
X187470000Y-98900000D01*
X187403333Y-98866666D01*
X187336666Y-98800000D01*
X187303333Y-98700000D01*
X187303333Y-98633333D01*
X187336666Y-98533333D01*
X187370000Y-98500000D01*
X187603333Y-98500000D01*
X187603333Y-98633333D01*
X187303333Y-98200000D02*
X188003333Y-98200000D01*
X187303333Y-97800000D01*
X188003333Y-97800000D01*
X187303333Y-97466666D02*
X188003333Y-97466666D01*
X188003333Y-97300000D01*
X187970000Y-97200000D01*
X187903333Y-97133333D01*
X187836666Y-97100000D01*
X187703333Y-97066666D01*
X187603333Y-97066666D01*
X187470000Y-97100000D01*
X187403333Y-97133333D01*
X187336666Y-97200000D01*
X187303333Y-97300000D01*
X187303333Y-97466666D01*
D11*
X153937142Y-99155239D02*
X153937142Y-98726668D01*
X154365714Y-98683810D01*
X154322857Y-98726668D01*
X154280000Y-98812382D01*
X154280000Y-99026668D01*
X154322857Y-99112382D01*
X154365714Y-99155239D01*
X154451428Y-99198096D01*
X154665714Y-99198096D01*
X154751428Y-99155239D01*
X154794285Y-99112382D01*
X154837142Y-99026668D01*
X154837142Y-98812382D01*
X154794285Y-98726668D01*
X154751428Y-98683810D01*
X153937142Y-99455239D02*
X154837142Y-99755239D01*
X153937142Y-100055239D01*
X142252857Y-104228571D02*
X142252857Y-103671428D01*
X141910000Y-103971428D01*
X141910000Y-103842857D01*
X141867142Y-103757142D01*
X141824285Y-103714285D01*
X141738571Y-103671428D01*
X141524285Y-103671428D01*
X141438571Y-103714285D01*
X141395714Y-103757142D01*
X141352857Y-103842857D01*
X141352857Y-104100000D01*
X141395714Y-104185714D01*
X141438571Y-104228571D01*
X141438571Y-103285714D02*
X141395714Y-103242857D01*
X141352857Y-103285714D01*
X141395714Y-103328571D01*
X141438571Y-103285714D01*
X141352857Y-103285714D01*
X142252857Y-102942857D02*
X142252857Y-102385714D01*
X141910000Y-102685714D01*
X141910000Y-102557142D01*
X141867142Y-102471428D01*
X141824285Y-102428571D01*
X141738571Y-102385714D01*
X141524285Y-102385714D01*
X141438571Y-102428571D01*
X141395714Y-102471428D01*
X141352857Y-102557142D01*
X141352857Y-102814285D01*
X141395714Y-102900000D01*
X141438571Y-102942857D01*
X142252857Y-102128571D02*
X141352857Y-101828571D01*
X142252857Y-101528571D01*
X189777142Y-108626894D02*
X190677142Y-109226894D01*
X189777142Y-109226894D02*
X190677142Y-108626894D01*
D12*
X106262380Y-101493809D02*
X107071904Y-101493809D01*
X107167142Y-101541428D01*
X107214761Y-101589047D01*
X107262380Y-101684285D01*
X107262380Y-101874761D01*
X107214761Y-101970000D01*
X107167142Y-102017619D01*
X107071904Y-102065238D01*
X106262380Y-102065238D01*
X107262380Y-102541428D02*
X106262380Y-102541428D01*
X107262380Y-103017619D02*
X106262380Y-103017619D01*
X107262380Y-103589047D01*
X106262380Y-103589047D01*
X107262380Y-104065238D02*
X106262380Y-104065238D01*
X106262380Y-104731904D02*
X106262380Y-104922380D01*
X106310000Y-105017619D01*
X106405238Y-105112857D01*
X106595714Y-105160476D01*
X106929047Y-105160476D01*
X107119523Y-105112857D01*
X107214761Y-105017619D01*
X107262380Y-104922380D01*
X107262380Y-104731904D01*
X107214761Y-104636666D01*
X107119523Y-104541428D01*
X106929047Y-104493809D01*
X106595714Y-104493809D01*
X106405238Y-104541428D01*
X106310000Y-104636666D01*
X106262380Y-104731904D01*
X106881428Y-105589047D02*
X106881428Y-106350952D01*
X107262380Y-106827142D02*
X106262380Y-106827142D01*
X106262380Y-107065238D01*
X106310000Y-107208095D01*
X106405238Y-107303333D01*
X106500476Y-107350952D01*
X106690952Y-107398571D01*
X106833809Y-107398571D01*
X107024285Y-107350952D01*
X107119523Y-107303333D01*
X107214761Y-107208095D01*
X107262380Y-107065238D01*
X107262380Y-106827142D01*
X106976666Y-107779523D02*
X106976666Y-108255714D01*
X107262380Y-107684285D02*
X106262380Y-108017619D01*
X107262380Y-108350952D01*
X107262380Y-108684285D02*
X106262380Y-108684285D01*
X106262380Y-109065238D01*
X106310000Y-109160476D01*
X106357619Y-109208095D01*
X106452857Y-109255714D01*
X106595714Y-109255714D01*
X106690952Y-109208095D01*
X106738571Y-109160476D01*
X106786190Y-109065238D01*
X106786190Y-108684285D01*
X106881428Y-109684285D02*
X106881428Y-110446190D01*
X107262380Y-111398571D02*
X107262380Y-110922380D01*
X106262380Y-110922380D01*
X107262380Y-111731904D02*
X106595714Y-111731904D01*
X106262380Y-111731904D02*
X106310000Y-111684285D01*
X106357619Y-111731904D01*
X106310000Y-111779523D01*
X106262380Y-111731904D01*
X106357619Y-111731904D01*
X106595714Y-112208095D02*
X107262380Y-112208095D01*
X106690952Y-112208095D02*
X106643333Y-112255714D01*
X106595714Y-112350952D01*
X106595714Y-112493809D01*
X106643333Y-112589047D01*
X106738571Y-112636666D01*
X107262380Y-112636666D01*
X107262380Y-113112857D02*
X106262380Y-113112857D01*
X106881428Y-113208095D02*
X107262380Y-113493809D01*
X106595714Y-113493809D02*
X106976666Y-113112857D01*
D10*
X190491428Y-116362612D02*
X189958095Y-116362612D01*
X190415238Y-116362612D02*
X190453333Y-116324517D01*
X190491428Y-116248326D01*
X190491428Y-116134040D01*
X190453333Y-116057850D01*
X190377142Y-116019755D01*
X189958095Y-116019755D01*
X189996190Y-115676897D02*
X189958095Y-115562612D01*
X189958095Y-115372136D01*
X189996190Y-115295945D01*
X190034285Y-115257850D01*
X190110476Y-115219755D01*
X190186666Y-115219755D01*
X190262857Y-115257850D01*
X190300952Y-115295945D01*
X190339047Y-115372136D01*
X190377142Y-115524517D01*
X190415238Y-115600707D01*
X190453333Y-115638802D01*
X190529523Y-115676897D01*
X190605714Y-115676897D01*
X190681904Y-115638802D01*
X190720000Y-115600707D01*
X190758095Y-115524517D01*
X190758095Y-115334040D01*
X190720000Y-115219755D01*
X189958095Y-114419755D02*
X190339047Y-114686421D01*
X189958095Y-114876897D02*
X190758095Y-114876897D01*
X190758095Y-114572136D01*
X190720000Y-114495945D01*
X190681904Y-114457850D01*
X190605714Y-114419755D01*
X190491428Y-114419755D01*
X190415238Y-114457850D01*
X190377142Y-114495945D01*
X190339047Y-114572136D01*
X190339047Y-114876897D01*
X189996190Y-114114993D02*
X189958095Y-114000707D01*
X189958095Y-113810231D01*
X189996190Y-113734040D01*
X190034285Y-113695945D01*
X190110476Y-113657850D01*
X190186666Y-113657850D01*
X190262857Y-113695945D01*
X190300952Y-113734040D01*
X190339047Y-113810231D01*
X190377142Y-113962612D01*
X190415238Y-114038802D01*
X190453333Y-114076897D01*
X190529523Y-114114993D01*
X190605714Y-114114993D01*
X190681904Y-114076897D01*
X190720000Y-114038802D01*
X190758095Y-113962612D01*
X190758095Y-113772136D01*
X190720000Y-113657850D01*
X190758095Y-113429278D02*
X190758095Y-112972136D01*
X189958095Y-113200707D02*
X190758095Y-113200707D01*
X190708095Y-95955469D02*
X190708095Y-95460231D01*
X190403333Y-95726897D01*
X190403333Y-95612612D01*
X190365238Y-95536421D01*
X190327142Y-95498326D01*
X190250952Y-95460231D01*
X190060476Y-95460231D01*
X189984285Y-95498326D01*
X189946190Y-95536421D01*
X189908095Y-95612612D01*
X189908095Y-95841183D01*
X189946190Y-95917374D01*
X189984285Y-95955469D01*
X189984285Y-95117374D02*
X189946190Y-95079278D01*
X189908095Y-95117374D01*
X189946190Y-95155469D01*
X189984285Y-95117374D01*
X189908095Y-95117374D01*
X190708095Y-94812612D02*
X190708095Y-94317374D01*
X190403333Y-94584040D01*
X190403333Y-94469755D01*
X190365238Y-94393564D01*
X190327142Y-94355469D01*
X190250952Y-94317374D01*
X190060476Y-94317374D01*
X189984285Y-94355469D01*
X189946190Y-94393564D01*
X189908095Y-94469755D01*
X189908095Y-94698326D01*
X189946190Y-94774517D01*
X189984285Y-94812612D01*
X190708095Y-94088802D02*
X189908095Y-93822136D01*
X190708095Y-93555469D01*
D11*
X156447142Y-98208096D02*
X156447142Y-98722382D01*
X157347142Y-98465239D02*
X156447142Y-98465239D01*
X157347142Y-99022382D02*
X156447142Y-99022382D01*
X156447142Y-99236668D01*
X156490000Y-99365239D01*
X156575714Y-99450953D01*
X156661428Y-99493810D01*
X156832857Y-99536668D01*
X156961428Y-99536668D01*
X157132857Y-99493810D01*
X157218571Y-99450953D01*
X157304285Y-99365239D01*
X157347142Y-99236668D01*
X157347142Y-99022382D01*
X156447142Y-100093810D02*
X156447142Y-100265239D01*
X156490000Y-100350953D01*
X156575714Y-100436668D01*
X156747142Y-100479525D01*
X157047142Y-100479525D01*
X157218571Y-100436668D01*
X157304285Y-100350953D01*
X157347142Y-100265239D01*
X157347142Y-100093810D01*
X157304285Y-100008096D01*
X157218571Y-99922382D01*
X157047142Y-99879525D01*
X156747142Y-99879525D01*
X156575714Y-99922382D01*
X156490000Y-100008096D01*
X156447142Y-100093810D01*
X139692857Y-116165714D02*
X139692857Y-115651428D01*
X138792857Y-115908571D02*
X139692857Y-115908571D01*
X139692857Y-115437142D02*
X138792857Y-114837142D01*
X139692857Y-114837142D02*
X138792857Y-115437142D01*
D10*
X104456666Y-104036666D02*
X105156666Y-104270000D01*
X104456666Y-104503333D01*
X105123333Y-105003333D02*
X105156666Y-104936666D01*
X105156666Y-104803333D01*
X105123333Y-104736666D01*
X105056666Y-104703333D01*
X104790000Y-104703333D01*
X104723333Y-104736666D01*
X104690000Y-104803333D01*
X104690000Y-104936666D01*
X104723333Y-105003333D01*
X104790000Y-105036666D01*
X104856666Y-105036666D01*
X104923333Y-104703333D01*
X105156666Y-105336666D02*
X104690000Y-105336666D01*
X104823333Y-105336666D02*
X104756666Y-105370000D01*
X104723333Y-105403333D01*
X104690000Y-105470000D01*
X104690000Y-105536666D01*
X105123333Y-105736666D02*
X105156666Y-105803333D01*
X105156666Y-105936666D01*
X105123333Y-106003333D01*
X105056666Y-106036666D01*
X105023333Y-106036666D01*
X104956666Y-106003333D01*
X104923333Y-105936666D01*
X104923333Y-105836666D01*
X104890000Y-105770000D01*
X104823333Y-105736666D01*
X104790000Y-105736666D01*
X104723333Y-105770000D01*
X104690000Y-105836666D01*
X104690000Y-105936666D01*
X104723333Y-106003333D01*
X105156666Y-106336666D02*
X104690000Y-106336666D01*
X104456666Y-106336666D02*
X104490000Y-106303333D01*
X104523333Y-106336666D01*
X104490000Y-106370000D01*
X104456666Y-106336666D01*
X104523333Y-106336666D01*
X105156666Y-106770000D02*
X105123333Y-106703333D01*
X105090000Y-106670000D01*
X105023333Y-106636666D01*
X104823333Y-106636666D01*
X104756666Y-106670000D01*
X104723333Y-106703333D01*
X104690000Y-106770000D01*
X104690000Y-106870000D01*
X104723333Y-106936666D01*
X104756666Y-106970000D01*
X104823333Y-107003333D01*
X105023333Y-107003333D01*
X105090000Y-106970000D01*
X105123333Y-106936666D01*
X105156666Y-106870000D01*
X105156666Y-106770000D01*
X104690000Y-107303333D02*
X105156666Y-107303333D01*
X104756666Y-107303333D02*
X104723333Y-107336666D01*
X104690000Y-107403333D01*
X104690000Y-107503333D01*
X104723333Y-107570000D01*
X104790000Y-107603333D01*
X105156666Y-107603333D01*
X105156666Y-108836666D02*
X105156666Y-108436666D01*
X105156666Y-108636666D02*
X104456666Y-108636666D01*
X104556666Y-108570000D01*
X104623333Y-108503333D01*
X104656666Y-108436666D01*
X105090000Y-109136666D02*
X105123333Y-109170000D01*
X105156666Y-109136666D01*
X105123333Y-109103333D01*
X105090000Y-109136666D01*
X105156666Y-109136666D01*
X104456666Y-109603333D02*
X104456666Y-109670000D01*
X104490000Y-109736666D01*
X104523333Y-109770000D01*
X104590000Y-109803333D01*
X104723333Y-109836666D01*
X104890000Y-109836666D01*
X105023333Y-109803333D01*
X105090000Y-109770000D01*
X105123333Y-109736666D01*
X105156666Y-109670000D01*
X105156666Y-109603333D01*
X105123333Y-109536666D01*
X105090000Y-109503333D01*
X105023333Y-109470000D01*
X104890000Y-109436666D01*
X104723333Y-109436666D01*
X104590000Y-109470000D01*
X104523333Y-109503333D01*
X104490000Y-109536666D01*
X104456666Y-109603333D01*
X105090000Y-110136666D02*
X105123333Y-110170000D01*
X105156666Y-110136666D01*
X105123333Y-110103333D01*
X105090000Y-110136666D01*
X105156666Y-110136666D01*
X104456666Y-110603333D02*
X104456666Y-110670000D01*
X104490000Y-110736666D01*
X104523333Y-110770000D01*
X104590000Y-110803333D01*
X104723333Y-110836666D01*
X104890000Y-110836666D01*
X105023333Y-110803333D01*
X105090000Y-110770000D01*
X105123333Y-110736666D01*
X105156666Y-110670000D01*
X105156666Y-110603333D01*
X105123333Y-110536666D01*
X105090000Y-110503333D01*
X105023333Y-110470000D01*
X104890000Y-110436666D01*
X104723333Y-110436666D01*
X104590000Y-110470000D01*
X104523333Y-110503333D01*
X104490000Y-110536666D01*
X104456666Y-110603333D01*
D11*
X138822857Y-111720000D02*
X139251428Y-112020000D01*
X138822857Y-112234285D02*
X139722857Y-112234285D01*
X139722857Y-111891428D01*
X139680000Y-111805714D01*
X139637142Y-111762857D01*
X139551428Y-111720000D01*
X139422857Y-111720000D01*
X139337142Y-111762857D01*
X139294285Y-111805714D01*
X139251428Y-111891428D01*
X139251428Y-112234285D01*
X139722857Y-111420000D02*
X138822857Y-110820000D01*
X139722857Y-110820000D02*
X138822857Y-111420000D01*
D10*
X190708095Y-104591183D02*
X190708095Y-104134040D01*
X189908095Y-104362612D02*
X190708095Y-104362612D01*
X189908095Y-103867374D02*
X190708095Y-103867374D01*
X190136666Y-103600707D01*
X190708095Y-103334040D01*
X189908095Y-103334040D01*
X189946190Y-102991183D02*
X189908095Y-102876897D01*
X189908095Y-102686421D01*
X189946190Y-102610231D01*
X189984285Y-102572136D01*
X190060476Y-102534040D01*
X190136666Y-102534040D01*
X190212857Y-102572136D01*
X190250952Y-102610231D01*
X190289047Y-102686421D01*
X190327142Y-102838802D01*
X190365238Y-102914993D01*
X190403333Y-102953088D01*
X190479523Y-102991183D01*
X190555714Y-102991183D01*
X190631904Y-102953088D01*
X190670000Y-102914993D01*
X190708095Y-102838802D01*
X190708095Y-102648326D01*
X190670000Y-102534040D01*
X190708095Y-112472136D02*
X190708095Y-112014993D01*
X189908095Y-112243564D02*
X190708095Y-112243564D01*
X189908095Y-111748326D02*
X190708095Y-111748326D01*
X190708095Y-111557850D01*
X190670000Y-111443564D01*
X190593809Y-111367374D01*
X190517619Y-111329278D01*
X190365238Y-111291183D01*
X190250952Y-111291183D01*
X190098571Y-111329278D01*
X190022380Y-111367374D01*
X189946190Y-111443564D01*
X189908095Y-111557850D01*
X189908095Y-111748326D01*
X190708095Y-110795945D02*
X190708095Y-110643564D01*
X190670000Y-110567374D01*
X190593809Y-110491183D01*
X190441428Y-110453088D01*
X190174761Y-110453088D01*
X190022380Y-110491183D01*
X189946190Y-110567374D01*
X189908095Y-110643564D01*
X189908095Y-110795945D01*
X189946190Y-110872136D01*
X190022380Y-110948326D01*
X190174761Y-110986421D01*
X190441428Y-110986421D01*
X190593809Y-110948326D01*
X190670000Y-110872136D01*
X190708095Y-110795945D01*
D11*
X189777142Y-120324517D02*
X190677142Y-120924517D01*
X189777142Y-120924517D02*
X190677142Y-120324517D01*
X189777142Y-97774517D02*
X190677142Y-98374517D01*
X189777142Y-98374517D02*
X190677142Y-97774517D01*
D10*
X187970000Y-121107850D02*
X188003333Y-121174517D01*
X188003333Y-121274517D01*
X187970000Y-121374517D01*
X187903333Y-121441183D01*
X187836666Y-121474517D01*
X187703333Y-121507850D01*
X187603333Y-121507850D01*
X187470000Y-121474517D01*
X187403333Y-121441183D01*
X187336666Y-121374517D01*
X187303333Y-121274517D01*
X187303333Y-121207850D01*
X187336666Y-121107850D01*
X187370000Y-121074517D01*
X187603333Y-121074517D01*
X187603333Y-121207850D01*
X187303333Y-120774517D02*
X188003333Y-120774517D01*
X187303333Y-120374517D01*
X188003333Y-120374517D01*
X187303333Y-120041183D02*
X188003333Y-120041183D01*
X188003333Y-119874517D01*
X187970000Y-119774517D01*
X187903333Y-119707850D01*
X187836666Y-119674517D01*
X187703333Y-119641183D01*
X187603333Y-119641183D01*
X187470000Y-119674517D01*
X187403333Y-119707850D01*
X187336666Y-119774517D01*
X187303333Y-119874517D01*
X187303333Y-120041183D01*
D11*
X156447142Y-114740953D02*
X156447142Y-115255239D01*
X157347142Y-114998096D02*
X156447142Y-114998096D01*
X156447142Y-115469525D02*
X157347142Y-116069525D01*
X156447142Y-116069525D02*
X157347142Y-115469525D01*
D10*
X187970000Y-115193333D02*
X188003333Y-115260000D01*
X188003333Y-115360000D01*
X187970000Y-115460000D01*
X187903333Y-115526666D01*
X187836666Y-115560000D01*
X187703333Y-115593333D01*
X187603333Y-115593333D01*
X187470000Y-115560000D01*
X187403333Y-115526666D01*
X187336666Y-115460000D01*
X187303333Y-115360000D01*
X187303333Y-115293333D01*
X187336666Y-115193333D01*
X187370000Y-115160000D01*
X187603333Y-115160000D01*
X187603333Y-115293333D01*
X187303333Y-114860000D02*
X188003333Y-114860000D01*
X187303333Y-114460000D01*
X188003333Y-114460000D01*
X187303333Y-114126666D02*
X188003333Y-114126666D01*
X188003333Y-113960000D01*
X187970000Y-113860000D01*
X187903333Y-113793333D01*
X187836666Y-113760000D01*
X187703333Y-113726666D01*
X187603333Y-113726666D01*
X187470000Y-113760000D01*
X187403333Y-113793333D01*
X187336666Y-113860000D01*
X187303333Y-113960000D01*
X187303333Y-114126666D01*
X187970000Y-109483333D02*
X188003333Y-109550000D01*
X188003333Y-109650000D01*
X187970000Y-109750000D01*
X187903333Y-109816666D01*
X187836666Y-109850000D01*
X187703333Y-109883333D01*
X187603333Y-109883333D01*
X187470000Y-109850000D01*
X187403333Y-109816666D01*
X187336666Y-109750000D01*
X187303333Y-109650000D01*
X187303333Y-109583333D01*
X187336666Y-109483333D01*
X187370000Y-109450000D01*
X187603333Y-109450000D01*
X187603333Y-109583333D01*
X187303333Y-109150000D02*
X188003333Y-109150000D01*
X187303333Y-108750000D01*
X188003333Y-108750000D01*
X187303333Y-108416666D02*
X188003333Y-108416666D01*
X188003333Y-108250000D01*
X187970000Y-108150000D01*
X187903333Y-108083333D01*
X187836666Y-108050000D01*
X187703333Y-108016666D01*
X187603333Y-108016666D01*
X187470000Y-108050000D01*
X187403333Y-108083333D01*
X187336666Y-108150000D01*
X187303333Y-108250000D01*
X187303333Y-108416666D01*
D11*
X153937142Y-101508096D02*
X153937142Y-102065239D01*
X154280000Y-101765239D01*
X154280000Y-101893810D01*
X154322857Y-101979525D01*
X154365714Y-102022382D01*
X154451428Y-102065239D01*
X154665714Y-102065239D01*
X154751428Y-102022382D01*
X154794285Y-101979525D01*
X154837142Y-101893810D01*
X154837142Y-101636668D01*
X154794285Y-101550953D01*
X154751428Y-101508096D01*
X154751428Y-102450953D02*
X154794285Y-102493810D01*
X154837142Y-102450953D01*
X154794285Y-102408096D01*
X154751428Y-102450953D01*
X154837142Y-102450953D01*
X153937142Y-102793810D02*
X153937142Y-103350953D01*
X154280000Y-103050953D01*
X154280000Y-103179525D01*
X154322857Y-103265239D01*
X154365714Y-103308096D01*
X154451428Y-103350953D01*
X154665714Y-103350953D01*
X154751428Y-103308096D01*
X154794285Y-103265239D01*
X154837142Y-103179525D01*
X154837142Y-102922382D01*
X154794285Y-102836668D01*
X154751428Y-102793810D01*
X153937142Y-103608096D02*
X154837142Y-103908096D01*
X153937142Y-104208096D01*
X154803809Y-109777144D02*
X154841904Y-109891429D01*
X154841904Y-110081906D01*
X154803809Y-110158096D01*
X154765714Y-110196191D01*
X154689523Y-110234287D01*
X154613333Y-110234287D01*
X154537142Y-110196191D01*
X154499047Y-110158096D01*
X154460952Y-110081906D01*
X154422857Y-109929525D01*
X154384761Y-109853334D01*
X154346666Y-109815239D01*
X154270476Y-109777144D01*
X154194285Y-109777144D01*
X154118095Y-109815239D01*
X154080000Y-109853334D01*
X154041904Y-109929525D01*
X154041904Y-110120001D01*
X154080000Y-110234287D01*
X154041904Y-110500953D02*
X154841904Y-110691429D01*
X154270476Y-110843810D01*
X154841904Y-110996191D01*
X154041904Y-111186668D01*
X154765714Y-111948572D02*
X154803809Y-111910477D01*
X154841904Y-111796191D01*
X154841904Y-111720001D01*
X154803809Y-111605715D01*
X154727619Y-111529525D01*
X154651428Y-111491429D01*
X154499047Y-111453334D01*
X154384761Y-111453334D01*
X154232380Y-111491429D01*
X154156190Y-111529525D01*
X154080000Y-111605715D01*
X154041904Y-111720001D01*
X154041904Y-111796191D01*
X154080000Y-111910477D01*
X154118095Y-111948572D01*
X154841904Y-112672382D02*
X154841904Y-112291429D01*
X154041904Y-112291429D01*
X154841904Y-112939048D02*
X154041904Y-112939048D01*
X154841904Y-113396191D02*
X154384761Y-113053334D01*
X154041904Y-113396191D02*
X154499047Y-112939048D01*
X141486190Y-113459523D02*
X141448095Y-113345238D01*
X141448095Y-113154761D01*
X141486190Y-113078571D01*
X141524285Y-113040476D01*
X141600476Y-113002380D01*
X141676666Y-113002380D01*
X141752857Y-113040476D01*
X141790952Y-113078571D01*
X141829047Y-113154761D01*
X141867142Y-113307142D01*
X141905238Y-113383333D01*
X141943333Y-113421428D01*
X142019523Y-113459523D01*
X142095714Y-113459523D01*
X142171904Y-113421428D01*
X142210000Y-113383333D01*
X142248095Y-113307142D01*
X142248095Y-113116666D01*
X142210000Y-113002380D01*
X142248095Y-112735714D02*
X141448095Y-112545238D01*
X142019523Y-112392857D01*
X141448095Y-112240476D01*
X142248095Y-112050000D01*
X141524285Y-111288095D02*
X141486190Y-111326190D01*
X141448095Y-111440476D01*
X141448095Y-111516666D01*
X141486190Y-111630952D01*
X141562380Y-111707142D01*
X141638571Y-111745238D01*
X141790952Y-111783333D01*
X141905238Y-111783333D01*
X142057619Y-111745238D01*
X142133809Y-111707142D01*
X142210000Y-111630952D01*
X142248095Y-111516666D01*
X142248095Y-111440476D01*
X142210000Y-111326190D01*
X142171904Y-111288095D01*
X141448095Y-110564285D02*
X141448095Y-110945238D01*
X142248095Y-110945238D01*
X141448095Y-110297619D02*
X142248095Y-110297619D01*
X141448095Y-109840476D02*
X141905238Y-110183333D01*
X142248095Y-109840476D02*
X141790952Y-110297619D01*
X139712857Y-103901428D02*
X139712857Y-103387142D01*
X138812857Y-103644285D02*
X139712857Y-103644285D01*
X138812857Y-103087142D02*
X139712857Y-103087142D01*
X139712857Y-102872857D01*
X139670000Y-102744285D01*
X139584285Y-102658571D01*
X139498571Y-102615714D01*
X139327142Y-102572857D01*
X139198571Y-102572857D01*
X139027142Y-102615714D01*
X138941428Y-102658571D01*
X138855714Y-102744285D01*
X138812857Y-102872857D01*
X138812857Y-103087142D01*
X138812857Y-102187142D02*
X139712857Y-102187142D01*
X139411428Y-108581904D02*
X138878095Y-108581904D01*
X139335238Y-108581904D02*
X139373333Y-108543809D01*
X139411428Y-108467619D01*
X139411428Y-108353333D01*
X139373333Y-108277142D01*
X139297142Y-108239047D01*
X138878095Y-108239047D01*
X139678095Y-107972380D02*
X139678095Y-107515238D01*
X138878095Y-107743809D02*
X139678095Y-107743809D01*
X138878095Y-106791428D02*
X139259047Y-107058095D01*
X138878095Y-107248571D02*
X139678095Y-107248571D01*
X139678095Y-106943809D01*
X139640000Y-106867619D01*
X139601904Y-106829523D01*
X139525714Y-106791428D01*
X139411428Y-106791428D01*
X139335238Y-106829523D01*
X139297142Y-106867619D01*
X139259047Y-106943809D01*
X139259047Y-107248571D01*
X138916190Y-106486666D02*
X138878095Y-106372380D01*
X138878095Y-106181904D01*
X138916190Y-106105714D01*
X138954285Y-106067619D01*
X139030476Y-106029523D01*
X139106666Y-106029523D01*
X139182857Y-106067619D01*
X139220952Y-106105714D01*
X139259047Y-106181904D01*
X139297142Y-106334285D01*
X139335238Y-106410476D01*
X139373333Y-106448571D01*
X139449523Y-106486666D01*
X139525714Y-106486666D01*
X139601904Y-106448571D01*
X139640000Y-106410476D01*
X139678095Y-106334285D01*
X139678095Y-106143809D01*
X139640000Y-106029523D01*
X139678095Y-105800952D02*
X139678095Y-105343809D01*
X138878095Y-105572380D02*
X139678095Y-105572380D01*
X156467142Y-102005239D02*
X156467142Y-102519525D01*
X157367142Y-102262382D02*
X156467142Y-102262382D01*
X157367142Y-102819525D02*
X156467142Y-102819525D01*
X156467142Y-103033810D01*
X156510000Y-103162382D01*
X156595714Y-103248096D01*
X156681428Y-103290953D01*
X156852857Y-103333810D01*
X156981428Y-103333810D01*
X157152857Y-103290953D01*
X157238571Y-103248096D01*
X157324285Y-103162382D01*
X157367142Y-103033810D01*
X157367142Y-102819525D01*
X157367142Y-103719525D02*
X156467142Y-103719525D01*
X139692857Y-100588571D02*
X139692857Y-100074285D01*
X138792857Y-100331428D02*
X139692857Y-100331428D01*
X138792857Y-99774285D02*
X139692857Y-99774285D01*
X139692857Y-99560000D01*
X139650000Y-99431428D01*
X139564285Y-99345714D01*
X139478571Y-99302857D01*
X139307142Y-99260000D01*
X139178571Y-99260000D01*
X139007142Y-99302857D01*
X138921428Y-99345714D01*
X138835714Y-99431428D01*
X138792857Y-99560000D01*
X138792857Y-99774285D01*
X139692857Y-98702857D02*
X139692857Y-98531428D01*
X139650000Y-98445714D01*
X139564285Y-98360000D01*
X139392857Y-98317142D01*
X139092857Y-98317142D01*
X138921428Y-98360000D01*
X138835714Y-98445714D01*
X138792857Y-98531428D01*
X138792857Y-98702857D01*
X138835714Y-98788571D01*
X138921428Y-98874285D01*
X139092857Y-98917142D01*
X139392857Y-98917142D01*
X139564285Y-98874285D01*
X139650000Y-98788571D01*
X139692857Y-98702857D01*
D10*
X187970000Y-111983333D02*
X188003333Y-112050000D01*
X188003333Y-112150000D01*
X187970000Y-112250000D01*
X187903333Y-112316666D01*
X187836666Y-112350000D01*
X187703333Y-112383333D01*
X187603333Y-112383333D01*
X187470000Y-112350000D01*
X187403333Y-112316666D01*
X187336666Y-112250000D01*
X187303333Y-112150000D01*
X187303333Y-112083333D01*
X187336666Y-111983333D01*
X187370000Y-111950000D01*
X187603333Y-111950000D01*
X187603333Y-112083333D01*
X187303333Y-111650000D02*
X188003333Y-111650000D01*
X187303333Y-111250000D01*
X188003333Y-111250000D01*
X187303333Y-110916666D02*
X188003333Y-110916666D01*
X188003333Y-110750000D01*
X187970000Y-110650000D01*
X187903333Y-110583333D01*
X187836666Y-110550000D01*
X187703333Y-110516666D01*
X187603333Y-110516666D01*
X187470000Y-110550000D01*
X187403333Y-110583333D01*
X187336666Y-110650000D01*
X187303333Y-110750000D01*
X187303333Y-110916666D01*
D11*
X153990000Y-114690953D02*
X153947142Y-114605239D01*
X153947142Y-114476668D01*
X153990000Y-114348096D01*
X154075714Y-114262382D01*
X154161428Y-114219525D01*
X154332857Y-114176668D01*
X154461428Y-114176668D01*
X154632857Y-114219525D01*
X154718571Y-114262382D01*
X154804285Y-114348096D01*
X154847142Y-114476668D01*
X154847142Y-114562382D01*
X154804285Y-114690953D01*
X154761428Y-114733810D01*
X154461428Y-114733810D01*
X154461428Y-114562382D01*
X154847142Y-115119525D02*
X153947142Y-115119525D01*
X154847142Y-115633810D01*
X153947142Y-115633810D01*
X154847142Y-116062382D02*
X153947142Y-116062382D01*
X153947142Y-116276668D01*
X153990000Y-116405239D01*
X154075714Y-116490953D01*
X154161428Y-116533810D01*
X154332857Y-116576668D01*
X154461428Y-116576668D01*
X154632857Y-116533810D01*
X154718571Y-116490953D01*
X154804285Y-116405239D01*
X154847142Y-116276668D01*
X154847142Y-116062382D01*
D13*
%TO.C,*%
D10*
%TO.C,HOLE2*%
X105070000Y-115860000D02*
G75*
G03*
X105070000Y-115860000I-900000J0D01*
G01*
%TO.C,HOLE8*%
X180214000Y-94810000D02*
G75*
G03*
X180214000Y-94810000I-1800000J0D01*
G01*
%TO.C,HOLE7*%
X180234000Y-119950000D02*
G75*
G03*
X180234000Y-119950000I-1800000J0D01*
G01*
%TO.C,HOLE1*%
X105070000Y-98860000D02*
G75*
G03*
X105070000Y-98860000I-900000J0D01*
G01*
%TO.C,HOLE6*%
X162354000Y-119920000D02*
G75*
G03*
X162354000Y-119920000I-1800000J0D01*
G01*
%TO.C,HOLE4*%
X136510000Y-99260000D02*
G75*
G03*
X136510000Y-99260000I-1800000J0D01*
G01*
%TO.C,HOLE5*%
X162314000Y-94810000D02*
G75*
G03*
X162314000Y-94810000I-1800000J0D01*
G01*
%TO.C,HOLE3*%
X136470000Y-115510000D02*
G75*
G03*
X136470000Y-115510000I-1800000J0D01*
G01*
%TO.C,*%
G36*
X110614695Y-106964651D02*
G01*
X110648264Y-106870479D01*
X110694304Y-106790565D01*
X110765651Y-106705142D01*
X110850610Y-106640586D01*
X110950205Y-106596160D01*
X111065464Y-106571128D01*
X111102159Y-106566286D01*
X111143892Y-106559284D01*
X111169112Y-106551608D01*
X111183050Y-106541411D01*
X111190933Y-106526850D01*
X111193987Y-106519250D01*
X111217535Y-106471425D01*
X111251885Y-106411930D01*
X111292907Y-106347326D01*
X111336467Y-106284177D01*
X111378435Y-106229044D01*
X111400580Y-106202380D01*
X111465518Y-106131371D01*
X111534395Y-106067923D01*
X111612166Y-106008110D01*
X111703782Y-105948005D01*
X111814199Y-105883682D01*
X111943001Y-105811852D01*
X111874162Y-105778172D01*
X111845808Y-105762296D01*
X111799502Y-105729409D01*
X111763745Y-105695918D01*
X111759868Y-105691300D01*
X111747804Y-105674142D01*
X112119166Y-105674142D01*
X112123626Y-105699126D01*
X112143677Y-105708356D01*
X112149485Y-105708087D01*
X112161855Y-105702012D01*
X112162839Y-105698719D01*
X112354901Y-105698719D01*
X112366798Y-105699784D01*
X112399689Y-105700706D01*
X112449978Y-105701432D01*
X112514065Y-105701908D01*
X112588355Y-105702078D01*
X112598326Y-105702075D01*
X112672167Y-105701869D01*
X112735875Y-105701374D01*
X112785704Y-105700644D01*
X112817911Y-105699730D01*
X112828751Y-105698686D01*
X112827596Y-105698127D01*
X112809426Y-105693427D01*
X112774253Y-105685839D01*
X112728248Y-105676714D01*
X112724677Y-105676038D01*
X112669656Y-105667140D01*
X112617437Y-105661078D01*
X112578880Y-105659132D01*
X112548904Y-105661514D01*
X112499137Y-105668424D01*
X112443538Y-105678085D01*
X112392179Y-105688720D01*
X112355130Y-105698557D01*
X112354901Y-105698719D01*
X112162839Y-105698719D01*
X112167466Y-105683232D01*
X112168127Y-105664411D01*
X112181344Y-105664411D01*
X112182867Y-105674153D01*
X112197806Y-105682566D01*
X112228598Y-105671606D01*
X112241566Y-105665286D01*
X112273731Y-105652645D01*
X112282170Y-105648983D01*
X112292433Y-105633336D01*
X112291947Y-105601506D01*
X112291746Y-105599719D01*
X112292092Y-105568923D01*
X112300969Y-105557689D01*
X112309594Y-105567342D01*
X112309578Y-105595355D01*
X112307798Y-105612249D01*
X112312362Y-105629040D01*
X112330586Y-105633022D01*
X112331209Y-105633020D01*
X112351460Y-105626015D01*
X112357123Y-105601633D01*
X112353222Y-105580933D01*
X112341428Y-105570052D01*
X112332737Y-105568180D01*
X112342243Y-105559391D01*
X112342552Y-105559189D01*
X112353442Y-105537878D01*
X112353801Y-105527220D01*
X112369678Y-105527220D01*
X112369711Y-105542739D01*
X112370769Y-105584586D01*
X112374362Y-105608005D01*
X112381900Y-105618222D01*
X112394789Y-105620467D01*
X112410664Y-105616553D01*
X112419901Y-105596096D01*
X112421739Y-105581724D01*
X112431285Y-105564690D01*
X112436926Y-105565790D01*
X112436099Y-105582782D01*
X112436073Y-105582883D01*
X112436575Y-105602600D01*
X112456103Y-105607911D01*
X112472076Y-105604380D01*
X112482679Y-105589078D01*
X112480893Y-105580357D01*
X112466984Y-105570052D01*
X112459558Y-105567952D01*
X112469543Y-105558313D01*
X112472367Y-105556410D01*
X112481327Y-105541954D01*
X112473907Y-105519045D01*
X112547703Y-105519045D01*
X112558958Y-105553732D01*
X112572460Y-105589078D01*
X112573529Y-105587155D01*
X112647590Y-105587155D01*
X112651828Y-105594886D01*
X112671013Y-105591717D01*
X112686089Y-105589782D01*
X112696124Y-105595105D01*
X112698310Y-105598218D01*
X112717706Y-105606261D01*
X112750644Y-105613236D01*
X112761410Y-105614869D01*
X112804427Y-105621677D01*
X112838534Y-105627462D01*
X112843666Y-105628313D01*
X112866148Y-105626930D01*
X112873154Y-105611295D01*
X112873236Y-105610032D01*
X112876490Y-105603048D01*
X112883137Y-105620467D01*
X112893082Y-105640446D01*
X112916413Y-105651856D01*
X112930973Y-105653484D01*
X112948362Y-105661895D01*
X112953499Y-105665864D01*
X112977719Y-105677018D01*
X113013068Y-105689180D01*
X113039357Y-105696860D01*
X113060486Y-105700683D01*
X113067814Y-105695145D01*
X113067318Y-105679141D01*
X113066748Y-105675325D01*
X113057361Y-105643946D01*
X113041516Y-105607994D01*
X113039198Y-105603548D01*
X113025172Y-105579566D01*
X113016811Y-105575609D01*
X113009889Y-105589161D01*
X113004417Y-105601573D01*
X112998856Y-105599219D01*
X112992191Y-105574432D01*
X112991934Y-105573303D01*
X112980401Y-105543882D01*
X112965303Y-105527743D01*
X112957691Y-105526046D01*
X112948626Y-105533138D01*
X112945427Y-105556992D01*
X112947104Y-105601633D01*
X112947222Y-105603522D01*
X112946508Y-105626480D01*
X112941828Y-105631647D01*
X112939085Y-105625635D01*
X112934324Y-105599830D01*
X112931213Y-105562591D01*
X112929929Y-105540275D01*
X112925360Y-105513794D01*
X112914605Y-105501756D01*
X112893662Y-105497195D01*
X112871392Y-105491092D01*
X112866033Y-105481694D01*
X112864840Y-105473012D01*
X112848160Y-105456461D01*
X112820646Y-105439033D01*
X112789790Y-105425248D01*
X112763087Y-105419624D01*
X112745911Y-105416761D01*
X112731131Y-105405319D01*
X112727826Y-105403407D01*
X112719708Y-105416109D01*
X112709965Y-105441365D01*
X112700926Y-105471931D01*
X112694917Y-105500565D01*
X112694268Y-105520022D01*
X112695095Y-105528487D01*
X112689137Y-105529628D01*
X112689028Y-105529524D01*
X112677443Y-105532788D01*
X112662832Y-105553036D01*
X112657308Y-105563838D01*
X112647590Y-105587155D01*
X112573529Y-105587155D01*
X112589903Y-105557689D01*
X112601714Y-105532565D01*
X112607790Y-105510605D01*
X112600244Y-105500257D01*
X112576846Y-105494911D01*
X112565715Y-105495299D01*
X112549407Y-105501369D01*
X112547703Y-105519045D01*
X112473907Y-105519045D01*
X112473471Y-105517699D01*
X112463436Y-105495000D01*
X112451601Y-105461543D01*
X112447330Y-105449776D01*
X112426534Y-105429307D01*
X112391651Y-105429093D01*
X112381190Y-105434293D01*
X112374004Y-105449018D01*
X112370562Y-105478229D01*
X112369678Y-105527220D01*
X112353801Y-105527220D01*
X112354798Y-105497596D01*
X112354521Y-105494086D01*
X112350522Y-105464120D01*
X112343063Y-105453949D01*
X112328873Y-105458658D01*
X112315883Y-105470963D01*
X112305444Y-105498673D01*
X112305230Y-105502331D01*
X112302845Y-105515582D01*
X112298326Y-105504745D01*
X112296935Y-105500001D01*
X112287857Y-105489903D01*
X112268393Y-105498349D01*
X112254683Y-105511494D01*
X112246405Y-105536700D01*
X112244122Y-105579542D01*
X112243716Y-105609629D01*
X112240348Y-105633784D01*
X112231014Y-105643675D01*
X112212733Y-105645578D01*
X112192259Y-105649264D01*
X112181344Y-105664411D01*
X112168127Y-105664411D01*
X112168788Y-105645578D01*
X112168548Y-105622996D01*
X112167440Y-105598231D01*
X112181261Y-105598231D01*
X112186676Y-105623358D01*
X112206365Y-105633022D01*
X112221301Y-105630000D01*
X112228760Y-105615488D01*
X112229418Y-105582800D01*
X112228284Y-105565888D01*
X112221726Y-105538607D01*
X112210275Y-105535497D01*
X112194341Y-105556863D01*
X112191038Y-105563442D01*
X112181261Y-105598231D01*
X112167440Y-105598231D01*
X112167255Y-105594102D01*
X112165218Y-105582800D01*
X112164780Y-105582965D01*
X112155559Y-105594693D01*
X112140107Y-105619265D01*
X112130459Y-105637465D01*
X112119166Y-105674142D01*
X111747804Y-105674142D01*
X111718072Y-105631858D01*
X111672099Y-105550751D01*
X111623089Y-105450574D01*
X111572179Y-105333923D01*
X111520509Y-105203392D01*
X111469217Y-105061578D01*
X111419441Y-104911075D01*
X111411102Y-104884685D01*
X111391849Y-104823849D01*
X111375658Y-104772807D01*
X111364026Y-104736278D01*
X111358451Y-104718980D01*
X111361495Y-104709609D01*
X111381545Y-104705667D01*
X111422503Y-104706424D01*
X111492022Y-104710185D01*
X111522666Y-104798074D01*
X111524056Y-104802057D01*
X111540143Y-104847329D01*
X111553686Y-104884120D01*
X111561880Y-104904797D01*
X111567562Y-104921492D01*
X111573922Y-104953332D01*
X111577520Y-104973257D01*
X111583961Y-104989602D01*
X111588694Y-104990355D01*
X111597923Y-104976974D01*
X111606020Y-104951993D01*
X111610540Y-104923996D01*
X111609038Y-104901566D01*
X111606391Y-104884917D01*
X111616452Y-104886031D01*
X111621372Y-104887297D01*
X111626827Y-104877463D01*
X111628557Y-104849385D01*
X111626969Y-104799714D01*
X111622131Y-104703907D01*
X113575017Y-104703907D01*
X113575017Y-104729759D01*
X113573058Y-104744286D01*
X113565600Y-104749798D01*
X113560285Y-104749799D01*
X113554473Y-104765768D01*
X113553057Y-104797040D01*
X113555792Y-104837642D01*
X113562432Y-104881598D01*
X113572729Y-104922933D01*
X113596178Y-104996971D01*
X113610179Y-104956808D01*
X113610689Y-104955314D01*
X113617824Y-104921671D01*
X113616298Y-104896106D01*
X113613797Y-104885288D01*
X113620866Y-104883261D01*
X113622481Y-104883568D01*
X113633189Y-104871588D01*
X113647764Y-104841292D01*
X113663806Y-104797470D01*
X113694295Y-104703985D01*
X113742225Y-104703946D01*
X113768733Y-104705094D01*
X113783777Y-104711414D01*
X113783808Y-104725879D01*
X113782866Y-104729205D01*
X113775799Y-104754843D01*
X113763984Y-104798163D01*
X113748818Y-104854040D01*
X113731694Y-104917352D01*
X113686789Y-105076979D01*
X113640165Y-105226982D01*
X113594807Y-105355508D01*
X113550023Y-105464372D01*
X113505118Y-105555392D01*
X113459399Y-105630385D01*
X113428229Y-105667140D01*
X113373407Y-105714197D01*
X113309937Y-105755470D01*
X113246686Y-105784532D01*
X113200856Y-105800383D01*
X113296908Y-105849497D01*
X113345653Y-105874820D01*
X113441279Y-105927975D01*
X113521782Y-105979068D01*
X113593120Y-106032387D01*
X113661247Y-106092219D01*
X113732120Y-106162855D01*
X113775333Y-106208749D01*
X113824722Y-106264917D01*
X113864089Y-106316064D01*
X113898588Y-106369048D01*
X113933372Y-106430728D01*
X113960947Y-106481778D01*
X113983231Y-106520622D01*
X113999978Y-106544380D01*
X114014485Y-106556774D01*
X114030049Y-106561526D01*
X114049967Y-106562355D01*
X114081629Y-106564588D01*
X114130315Y-106571236D01*
X114181726Y-106580722D01*
X114243085Y-106597367D01*
X114339271Y-106642159D01*
X114421510Y-106707521D01*
X114491199Y-106794416D01*
X114539755Y-106879858D01*
X114573209Y-106971579D01*
X114585878Y-107064575D01*
X114579094Y-107164456D01*
X114566022Y-107221556D01*
X114540256Y-107293577D01*
X114506781Y-107363676D01*
X114469321Y-107424203D01*
X114431599Y-107467510D01*
X114422293Y-107475800D01*
X114401079Y-107498150D01*
X114395504Y-107515777D01*
X114402123Y-107536778D01*
X114411982Y-107570672D01*
X114416243Y-107610651D01*
X114417749Y-107629832D01*
X114426349Y-107673882D01*
X114440032Y-107719921D01*
X114443843Y-107730764D01*
X114475997Y-107840019D01*
X114504344Y-107967819D01*
X114528151Y-108108424D01*
X114546683Y-108256090D01*
X114559205Y-108405076D01*
X114564985Y-108549638D01*
X114563288Y-108684036D01*
X114562133Y-108706794D01*
X114547503Y-108858195D01*
X114521736Y-109005132D01*
X114486087Y-109142633D01*
X114441813Y-109265725D01*
X114390168Y-109369434D01*
X114374311Y-109394244D01*
X114320634Y-109463967D01*
X114253468Y-109537170D01*
X114179031Y-109607797D01*
X114103543Y-109669790D01*
X114033221Y-109717093D01*
X113990113Y-109743622D01*
X113938169Y-109782706D01*
X113908367Y-109816577D01*
X113899579Y-109830818D01*
X113839687Y-109906499D01*
X113760193Y-109981121D01*
X113665609Y-110051599D01*
X113560449Y-110114849D01*
X113449228Y-110167786D01*
X113336460Y-110207326D01*
X113262689Y-110224774D01*
X113153832Y-110242497D01*
X113030346Y-110255841D01*
X112897845Y-110264562D01*
X112761943Y-110268419D01*
X112628253Y-110267166D01*
X112502388Y-110260562D01*
X112389962Y-110248361D01*
X112312379Y-110235923D01*
X112071466Y-110181384D01*
X111840742Y-110104048D01*
X111619113Y-110003506D01*
X111405486Y-109879347D01*
X111404798Y-109878901D01*
X111328365Y-109827378D01*
X111260306Y-109776609D01*
X111195947Y-109722416D01*
X111130613Y-109660619D01*
X111059629Y-109587040D01*
X110978321Y-109497500D01*
X110974141Y-109492806D01*
X110897451Y-109408192D01*
X110833326Y-109340918D01*
X110779120Y-109288564D01*
X110732188Y-109248711D01*
X110689883Y-109218939D01*
X110649560Y-109196829D01*
X110632233Y-109187910D01*
X110595756Y-109164849D01*
X110571366Y-109143609D01*
X110552702Y-109105385D01*
X110552888Y-109059828D01*
X110572467Y-109016272D01*
X110609824Y-108981520D01*
X110637166Y-108964481D01*
X110658432Y-108950791D01*
X110662896Y-108944867D01*
X110666305Y-108926749D01*
X110666252Y-108894114D01*
X110662683Y-108843519D01*
X110655543Y-108771520D01*
X110655345Y-108769662D01*
X110648373Y-108689224D01*
X110642605Y-108595485D01*
X110638635Y-108499941D01*
X110637057Y-108414090D01*
X110636707Y-108373834D01*
X110633557Y-108280463D01*
X110627376Y-108204775D01*
X110618422Y-108150422D01*
X110610618Y-108115470D01*
X110602934Y-108073713D01*
X110599784Y-108045873D01*
X110599885Y-108042671D01*
X110611899Y-108011021D01*
X110638325Y-107978637D01*
X110671240Y-107953416D01*
X110702723Y-107943255D01*
X110708202Y-107943046D01*
X110718823Y-107939795D01*
X110728093Y-107929813D01*
X110737446Y-107909559D01*
X110748317Y-107875496D01*
X110762140Y-107824083D01*
X110780351Y-107751782D01*
X110790018Y-107713083D01*
X110805726Y-107650873D01*
X110818890Y-107599582D01*
X110828354Y-107563698D01*
X110832960Y-107547707D01*
X110830078Y-107538544D01*
X110812270Y-107517278D01*
X110783121Y-107491223D01*
X110729271Y-107439334D01*
X110668938Y-107353105D01*
X110623434Y-107250265D01*
X110604746Y-107171102D01*
X110603859Y-107151739D01*
X110713188Y-107151739D01*
X110716851Y-107188085D01*
X110725771Y-107220321D01*
X110741154Y-107256883D01*
X110766168Y-107302512D01*
X110800342Y-107351557D01*
X110837764Y-107396062D01*
X110873455Y-107430131D01*
X110902437Y-107447868D01*
X110917486Y-107448527D01*
X110944747Y-107435582D01*
X110982610Y-107404402D01*
X111008592Y-107381686D01*
X111024684Y-107369411D01*
X111177100Y-107369411D01*
X111177515Y-107424304D01*
X111179334Y-107500190D01*
X111180334Y-107535300D01*
X111182714Y-107601900D01*
X111185772Y-107650600D01*
X111190281Y-107686455D01*
X111197015Y-107714517D01*
X111206747Y-107739840D01*
X111220251Y-107767476D01*
X111261758Y-107842991D01*
X111335116Y-107951653D01*
X111414561Y-108038371D01*
X111502337Y-108105054D01*
X111600686Y-108153611D01*
X111711851Y-108185952D01*
X111712427Y-108186073D01*
X111758380Y-108195036D01*
X111786081Y-108197910D01*
X111801585Y-108194650D01*
X111810954Y-108185210D01*
X111831180Y-108156415D01*
X111857443Y-108129089D01*
X111887795Y-108114095D01*
X111931330Y-108105405D01*
X111935905Y-108104780D01*
X111998714Y-108099211D01*
X112079519Y-108096039D01*
X112171910Y-108095180D01*
X112269476Y-108096551D01*
X112365807Y-108100068D01*
X112454492Y-108105647D01*
X112529119Y-108113205D01*
X112638488Y-108130611D01*
X112789145Y-108163025D01*
X112943850Y-108204637D01*
X113095315Y-108253256D01*
X113236250Y-108306690D01*
X113359367Y-108362750D01*
X113380255Y-108373288D01*
X113412364Y-108388509D01*
X113429254Y-108393304D01*
X113435806Y-108388420D01*
X113436905Y-108374602D01*
X113443352Y-108347143D01*
X113460908Y-108304798D01*
X113486338Y-108253886D01*
X113516409Y-108200482D01*
X113547883Y-108150663D01*
X113577527Y-108110505D01*
X113579398Y-108108273D01*
X113618143Y-108067161D01*
X113666912Y-108021899D01*
X113715613Y-107981884D01*
X113726426Y-107973573D01*
X113792238Y-107915151D01*
X113846178Y-107850393D01*
X113891098Y-107774607D01*
X113929850Y-107683100D01*
X113965288Y-107571179D01*
X113968196Y-107560641D01*
X113985910Y-107486491D01*
X113997655Y-107418718D01*
X114001908Y-107365854D01*
X114001457Y-107335717D01*
X113997783Y-107304196D01*
X113988204Y-107284933D01*
X113970127Y-107270118D01*
X113969556Y-107269745D01*
X113946559Y-107256739D01*
X113935226Y-107254134D01*
X113934039Y-107256307D01*
X113924960Y-107275164D01*
X113910981Y-107305490D01*
X113905381Y-107316841D01*
X113881348Y-107349084D01*
X113846457Y-107372335D01*
X113795974Y-107389043D01*
X113725166Y-107401657D01*
X113653946Y-107410222D01*
X113533590Y-107419777D01*
X113410530Y-107424169D01*
X113288701Y-107423611D01*
X113172037Y-107418312D01*
X113064474Y-107408485D01*
X112969945Y-107394340D01*
X112892387Y-107376089D01*
X112835733Y-107353942D01*
X112835364Y-107353742D01*
X112810370Y-107331158D01*
X112790393Y-107298769D01*
X112773788Y-107258974D01*
X112394784Y-107266510D01*
X112375823Y-107303175D01*
X112367456Y-107317083D01*
X112342484Y-107343244D01*
X112305949Y-107364590D01*
X112255144Y-107381924D01*
X112187362Y-107396054D01*
X112099895Y-107407783D01*
X111990036Y-107417917D01*
X111983475Y-107418419D01*
X111893963Y-107422873D01*
X111795774Y-107424032D01*
X111694529Y-107422157D01*
X111595850Y-107417504D01*
X111505358Y-107410333D01*
X111428674Y-107400901D01*
X111371420Y-107389468D01*
X111356280Y-107384640D01*
X111306850Y-107358460D01*
X111267919Y-107322416D01*
X111246728Y-107282709D01*
X111246686Y-107282542D01*
X111236022Y-107257878D01*
X111220227Y-107256251D01*
X111196162Y-107277328D01*
X111195670Y-107277876D01*
X111187375Y-107289743D01*
X111181721Y-107306225D01*
X111178399Y-107331416D01*
X111177100Y-107369411D01*
X111024684Y-107369411D01*
X111035600Y-107361084D01*
X111051059Y-107353141D01*
X111051668Y-107353056D01*
X111058090Y-107339355D01*
X111062351Y-107305207D01*
X111063895Y-107254877D01*
X111064468Y-107228552D01*
X111173592Y-107228552D01*
X111205008Y-107214238D01*
X111208585Y-107212533D01*
X111226663Y-107198615D01*
X111232218Y-107185882D01*
X111289915Y-107185882D01*
X111290891Y-107234966D01*
X111296404Y-107278381D01*
X111309284Y-107306536D01*
X111332307Y-107324855D01*
X111368254Y-107338760D01*
X111410913Y-107349254D01*
X111487267Y-107360883D01*
X111579603Y-107369312D01*
X111682810Y-107374543D01*
X111791777Y-107376575D01*
X111901393Y-107375408D01*
X112006547Y-107371042D01*
X112102127Y-107363478D01*
X112183022Y-107352714D01*
X112244122Y-107338752D01*
X112288643Y-107319267D01*
X112326347Y-107284263D01*
X112343785Y-107236545D01*
X112341324Y-107174943D01*
X112319327Y-107098290D01*
X112298226Y-107052489D01*
X112255426Y-106996783D01*
X112197268Y-106955999D01*
X112121211Y-106928535D01*
X112024714Y-106912792D01*
X111988972Y-106909557D01*
X111913586Y-106904816D01*
X111840817Y-106903909D01*
X111761523Y-106906858D01*
X111666564Y-106913687D01*
X111558944Y-106924483D01*
X111472618Y-106938393D01*
X111406413Y-106957110D01*
X111357835Y-106982436D01*
X111324390Y-107016174D01*
X111303585Y-107060127D01*
X111292924Y-107116095D01*
X111289915Y-107185882D01*
X111232218Y-107185882D01*
X111237006Y-107174905D01*
X111243254Y-107133745D01*
X111244692Y-107121764D01*
X111264761Y-107044242D01*
X111300645Y-106979795D01*
X111349783Y-106933245D01*
X111375458Y-106918709D01*
X111417807Y-106902316D01*
X111470969Y-106889710D01*
X111537787Y-106880532D01*
X111621105Y-106874420D01*
X111723769Y-106871014D01*
X111848620Y-106869952D01*
X111913858Y-106869999D01*
X111989612Y-106870413D01*
X112046823Y-106871537D01*
X112089374Y-106873708D01*
X112121150Y-106877263D01*
X112146033Y-106882537D01*
X112167907Y-106889868D01*
X112190656Y-106899592D01*
X112214716Y-106912000D01*
X112261720Y-106943239D01*
X112299001Y-106976331D01*
X112317933Y-107000968D01*
X112345703Y-107048036D01*
X112370371Y-107100797D01*
X112388034Y-107150593D01*
X112394789Y-107188767D01*
X112395517Y-107195290D01*
X112404599Y-107206575D01*
X112428272Y-107214255D01*
X112471791Y-107220497D01*
X112479132Y-107221243D01*
X112532675Y-107223863D01*
X112596733Y-107223646D01*
X112659015Y-107220586D01*
X112769238Y-107211964D01*
X112769445Y-107210852D01*
X112821293Y-107210852D01*
X112827020Y-107261727D01*
X112852115Y-107299521D01*
X112898253Y-107327161D01*
X112967109Y-107347574D01*
X112970010Y-107348203D01*
X113043343Y-107359965D01*
X113133809Y-107368342D01*
X113236150Y-107373397D01*
X113345104Y-107375193D01*
X113455413Y-107373793D01*
X113561816Y-107369261D01*
X113659054Y-107361660D01*
X113741865Y-107351053D01*
X113804991Y-107337503D01*
X113808826Y-107336343D01*
X113849151Y-107315797D01*
X113874412Y-107282349D01*
X113886148Y-107232689D01*
X113885900Y-107163505D01*
X113883987Y-107142526D01*
X113868362Y-107070147D01*
X113838246Y-107014703D01*
X113791324Y-106973996D01*
X113725279Y-106945827D01*
X113637795Y-106927998D01*
X113614174Y-106925061D01*
X113536370Y-106917837D01*
X113447852Y-106912377D01*
X113355753Y-106908898D01*
X113267205Y-106907616D01*
X113189340Y-106908750D01*
X113129293Y-106912515D01*
X113084296Y-106918986D01*
X112995391Y-106945273D01*
X112925242Y-106987898D01*
X112873299Y-107047263D01*
X112839011Y-107123767D01*
X112833260Y-107143969D01*
X112821293Y-107210852D01*
X112769445Y-107210852D01*
X112777711Y-107166413D01*
X112797299Y-107094326D01*
X112840017Y-107012684D01*
X112902019Y-106947047D01*
X112983611Y-106897012D01*
X112992448Y-106893030D01*
X113012984Y-106885159D01*
X113035825Y-106879335D01*
X113064771Y-106875253D01*
X113103623Y-106872609D01*
X113156182Y-106871098D01*
X113226250Y-106870417D01*
X113317627Y-106870259D01*
X113370965Y-106870403D01*
X113483988Y-106872072D01*
X113576186Y-106875959D01*
X113650557Y-106882493D01*
X113710101Y-106892103D01*
X113757816Y-106905222D01*
X113796701Y-106922277D01*
X113829755Y-106943699D01*
X113832073Y-106945493D01*
X113881807Y-106999843D01*
X113913913Y-107068809D01*
X113925891Y-107147097D01*
X113927933Y-107176486D01*
X113937593Y-107199022D01*
X113959585Y-107213484D01*
X113984062Y-107222402D01*
X113998026Y-107223096D01*
X113999035Y-107220017D01*
X113999487Y-107196896D01*
X113997253Y-107155933D01*
X113992853Y-107102202D01*
X113986809Y-107040773D01*
X113979641Y-106976719D01*
X113971869Y-106915112D01*
X113964015Y-106861024D01*
X113956598Y-106819527D01*
X113922033Y-106683523D01*
X114043943Y-106683523D01*
X114045307Y-106698531D01*
X114055305Y-106735991D01*
X114069278Y-106807993D01*
X114082450Y-106898385D01*
X114094269Y-107003223D01*
X114104181Y-107118559D01*
X114119715Y-107329701D01*
X114158117Y-107345754D01*
X114190086Y-107363160D01*
X114214439Y-107383413D01*
X114236123Y-107403028D01*
X114267587Y-107423237D01*
X114287951Y-107432349D01*
X114304518Y-107432200D01*
X114323671Y-107419488D01*
X114352823Y-107391449D01*
X114371541Y-107370900D01*
X114407942Y-107323072D01*
X114437489Y-107275097D01*
X114447037Y-107256179D01*
X114460269Y-107223972D01*
X114467845Y-107190816D01*
X114471262Y-107148664D01*
X114472017Y-107089473D01*
X114471695Y-107048883D01*
X114469432Y-107002537D01*
X114463634Y-106968097D01*
X114452722Y-106937589D01*
X114435118Y-106903043D01*
X114413137Y-106867653D01*
X114353901Y-106798023D01*
X114283078Y-106740273D01*
X114207997Y-106700924D01*
X114179491Y-106691558D01*
X114129611Y-106679753D01*
X114088480Y-106675138D01*
X114088163Y-106675138D01*
X114056362Y-106676736D01*
X114043943Y-106683523D01*
X113922033Y-106683523D01*
X113920993Y-106679431D01*
X113871094Y-106545680D01*
X113806596Y-106425284D01*
X113724673Y-106313034D01*
X113622499Y-106203719D01*
X113535853Y-106127289D01*
X113390323Y-106024838D01*
X113230318Y-105939485D01*
X113059753Y-105873215D01*
X112882543Y-105828018D01*
X112861241Y-105824401D01*
X112806368Y-105817256D01*
X112741440Y-105810813D01*
X112672290Y-105805438D01*
X112604750Y-105801500D01*
X112544654Y-105799368D01*
X112497834Y-105799408D01*
X112470123Y-105801990D01*
X112464086Y-105803223D01*
X112435185Y-105808004D01*
X112391163Y-105814591D01*
X112338873Y-105821941D01*
X112232268Y-105842104D01*
X112092014Y-105882850D01*
X111950937Y-105937967D01*
X111816948Y-106004288D01*
X111697953Y-106078645D01*
X111688230Y-106085707D01*
X111620389Y-106141791D01*
X111547485Y-106211760D01*
X111475927Y-106288775D01*
X111412127Y-106365995D01*
X111362494Y-106436581D01*
X111351139Y-106455392D01*
X111287955Y-106585526D01*
X111238766Y-106736349D01*
X111203617Y-106907688D01*
X111182555Y-107099373D01*
X111173592Y-107228552D01*
X111064468Y-107228552D01*
X111065285Y-107191046D01*
X111071762Y-107085968D01*
X111082580Y-106975435D01*
X111096687Y-106869627D01*
X111113033Y-106778722D01*
X111135177Y-106675138D01*
X111083841Y-106675148D01*
X111062281Y-106676819D01*
X111003779Y-106692101D01*
X110939677Y-106720175D01*
X110878025Y-106757157D01*
X110826871Y-106799162D01*
X110813423Y-106812966D01*
X110769004Y-106867476D01*
X110739810Y-106923941D01*
X110722777Y-106989834D01*
X110714844Y-107072628D01*
X110713579Y-107102846D01*
X110713188Y-107151739D01*
X110603859Y-107151739D01*
X110600008Y-107067630D01*
X110614695Y-106964651D01*
G37*
G36*
X113597446Y-104910822D02*
G01*
X113595943Y-104925723D01*
X113592166Y-104927687D01*
X113587572Y-104917352D01*
X113588479Y-104910706D01*
X113595943Y-104908982D01*
X113597446Y-104910822D01*
G37*
G36*
X112693840Y-106252522D02*
G01*
X112826449Y-106256820D01*
X112951681Y-106264145D01*
X113063667Y-106274330D01*
X113156538Y-106287207D01*
X113211988Y-106301362D01*
X113256059Y-106326478D01*
X113279399Y-106362407D01*
X113283710Y-106410801D01*
X113280224Y-106435659D01*
X113270147Y-106451686D01*
X113248571Y-106455415D01*
X113247408Y-106455409D01*
X113222696Y-106448462D01*
X113212840Y-106424026D01*
X113207607Y-106401404D01*
X113196928Y-106378533D01*
X113187793Y-106371304D01*
X113152227Y-106357972D01*
X113096211Y-106346300D01*
X113022829Y-106336416D01*
X112935163Y-106328445D01*
X112836295Y-106322514D01*
X112729308Y-106318750D01*
X112617283Y-106317278D01*
X112503304Y-106318225D01*
X112390452Y-106321718D01*
X112281810Y-106327882D01*
X112180460Y-106336846D01*
X112115119Y-106344964D01*
X112058648Y-106355602D01*
X112020860Y-106368621D01*
X111998283Y-106385278D01*
X111987442Y-106406833D01*
X111987365Y-106407139D01*
X111975125Y-106430522D01*
X111951760Y-106434258D01*
X111940349Y-106431534D01*
X111927293Y-106418097D01*
X111923954Y-106387714D01*
X111924260Y-106378716D01*
X111930856Y-106350852D01*
X111947909Y-106328176D01*
X111977861Y-106309816D01*
X112023155Y-106294899D01*
X112086233Y-106282552D01*
X112169538Y-106271902D01*
X112275511Y-106262076D01*
X112310437Y-106259468D01*
X112429965Y-106253679D01*
X112559722Y-106251420D01*
X112693840Y-106252522D01*
G37*
G36*
X111856281Y-107133239D02*
G01*
X111886751Y-107145358D01*
X111887066Y-107145490D01*
X111925585Y-107171210D01*
X111956644Y-107208136D01*
X111970144Y-107228657D01*
X111992339Y-107247724D01*
X112021691Y-107252696D01*
X112052657Y-107246898D01*
X112089139Y-107225742D01*
X112101236Y-107215137D01*
X112119974Y-107206480D01*
X112137031Y-107214724D01*
X112142486Y-107219588D01*
X112154679Y-107240487D01*
X112147229Y-107264417D01*
X112119086Y-107296143D01*
X112081938Y-107331732D01*
X111783223Y-107324985D01*
X111695563Y-107322645D01*
X111598413Y-107318804D01*
X111525450Y-107314154D01*
X111476147Y-107308660D01*
X111449980Y-107302285D01*
X111429057Y-107288365D01*
X111415849Y-107259809D01*
X111425578Y-107223969D01*
X111458141Y-107182385D01*
X111481242Y-107160398D01*
X111505787Y-107143430D01*
X111523963Y-107143451D01*
X111541313Y-107158897D01*
X111547808Y-107168797D01*
X111546714Y-107185505D01*
X111528107Y-107209119D01*
X111498964Y-107240140D01*
X111541958Y-107240279D01*
X111585672Y-107242592D01*
X111630765Y-107247993D01*
X111639326Y-107249351D01*
X111666020Y-107250350D01*
X111682322Y-107239144D01*
X111698113Y-107210188D01*
X111702906Y-107200172D01*
X111715484Y-107174852D01*
X111721356Y-107164618D01*
X111723508Y-107163953D01*
X111742151Y-107157462D01*
X111773287Y-107146335D01*
X111776052Y-107145339D01*
X111811613Y-107133138D01*
X111834795Y-107129135D01*
X111856281Y-107133239D01*
G37*
G36*
X124372842Y-105206131D02*
G01*
X123920840Y-105206131D01*
X123920840Y-104716463D01*
X124372842Y-104716463D01*
X124372842Y-105206131D01*
G37*
G36*
X113419946Y-107146740D02*
G01*
X113463696Y-107175456D01*
X113491861Y-107217478D01*
X113505961Y-107254926D01*
X113587572Y-107246295D01*
X113628048Y-107241449D01*
X113660138Y-107236463D01*
X113674338Y-107232701D01*
X113672611Y-107223831D01*
X113658644Y-107204701D01*
X113645005Y-107186888D01*
X113639600Y-107162852D01*
X113657538Y-107147362D01*
X113680399Y-107145537D01*
X113714783Y-107162809D01*
X113749922Y-107201247D01*
X113756129Y-107210295D01*
X113773314Y-107246446D01*
X113769468Y-107274083D01*
X113744319Y-107297925D01*
X113731942Y-107304135D01*
X113712070Y-107309624D01*
X113682587Y-107313985D01*
X113640393Y-107317465D01*
X113582388Y-107320316D01*
X113505472Y-107322785D01*
X113406546Y-107325124D01*
X113100359Y-107331626D01*
X113067742Y-107299010D01*
X113043849Y-107269697D01*
X113036539Y-107240675D01*
X113052184Y-107216502D01*
X113056335Y-107213496D01*
X113074923Y-107211426D01*
X113101248Y-107227520D01*
X113119659Y-107240024D01*
X113161920Y-107253321D01*
X113199015Y-107243360D01*
X113227890Y-107210552D01*
X113229336Y-107207964D01*
X113256869Y-107173591D01*
X113290384Y-107148154D01*
X113313875Y-107138918D01*
X113367657Y-107133752D01*
X113419946Y-107146740D01*
G37*
G36*
X121334384Y-105055464D02*
G01*
X121033049Y-105055464D01*
X121033049Y-106248247D01*
X121334384Y-106248247D01*
X121334384Y-106587249D01*
X120254602Y-106587249D01*
X120254602Y-106248247D01*
X120555936Y-106248247D01*
X120555936Y-105055464D01*
X120254602Y-105055464D01*
X120254602Y-104716463D01*
X121334384Y-104716463D01*
X121334384Y-105055464D01*
G37*
G36*
X112909569Y-105563966D02*
G01*
X112903292Y-105570244D01*
X112897014Y-105563966D01*
X112903292Y-105557689D01*
X112909569Y-105563966D01*
G37*
G36*
X128553860Y-107491253D02*
G01*
X128553860Y-107604488D01*
X129178502Y-107601231D01*
X129803143Y-107597975D01*
X129810865Y-107491253D01*
X129985200Y-107491253D01*
X129985200Y-108282256D01*
X128378082Y-108282256D01*
X128378082Y-108131823D01*
X128553860Y-108131823D01*
X129178502Y-108128567D01*
X129803143Y-108125311D01*
X129806618Y-107940116D01*
X129810092Y-107754920D01*
X128553860Y-107754920D01*
X128553860Y-108131823D01*
X128378082Y-108131823D01*
X128378082Y-107491253D01*
X128553860Y-107491253D01*
G37*
G36*
X124879847Y-109413434D02*
G01*
X124896118Y-109426038D01*
X124921567Y-109450534D01*
X124950782Y-109481117D01*
X124978350Y-109511984D01*
X124998861Y-109537332D01*
X125006900Y-109551358D01*
X124998939Y-109561805D01*
X124974265Y-109584816D01*
X124936533Y-109617025D01*
X124889472Y-109655441D01*
X124836813Y-109697074D01*
X124782287Y-109738933D01*
X124729623Y-109778028D01*
X124682552Y-109811370D01*
X124596760Y-109870118D01*
X124541301Y-109811421D01*
X124514809Y-109782083D01*
X124493867Y-109756078D01*
X124485842Y-109742094D01*
X124486184Y-109741047D01*
X124498774Y-109727171D01*
X124526818Y-109701721D01*
X124566634Y-109667932D01*
X124614537Y-109629038D01*
X124667707Y-109586228D01*
X124722776Y-109540979D01*
X124771037Y-109500441D01*
X124806010Y-109470000D01*
X124838593Y-109441624D01*
X124864522Y-109420930D01*
X124877702Y-109412824D01*
X124879847Y-109413434D01*
G37*
G36*
X111588855Y-104834424D02*
G01*
X111589345Y-104836717D01*
X111595518Y-104850260D01*
X111606013Y-104840702D01*
X111606776Y-104839614D01*
X111615255Y-104829567D01*
X111613478Y-104840922D01*
X111609168Y-104849259D01*
X111588935Y-104861559D01*
X111575368Y-104858023D01*
X111576553Y-104837545D01*
X111579723Y-104826529D01*
X111584438Y-104818940D01*
X111588855Y-104834424D01*
G37*
G36*
X113199315Y-107537290D02*
G01*
X113268578Y-107554754D01*
X113321044Y-107571889D01*
X113401399Y-107595229D01*
X113487256Y-107617608D01*
X113571296Y-107637241D01*
X113646203Y-107652344D01*
X113704659Y-107661132D01*
X113712321Y-107661962D01*
X113755773Y-107668292D01*
X113776541Y-107675331D01*
X113776766Y-107683750D01*
X113758686Y-107689429D01*
X113717859Y-107693839D01*
X113656834Y-107696714D01*
X113578068Y-107697880D01*
X113574109Y-107697889D01*
X113462931Y-107695553D01*
X113369062Y-107687246D01*
X113285359Y-107671651D01*
X113204679Y-107647448D01*
X113119876Y-107613320D01*
X113117798Y-107612395D01*
X113067838Y-107586911D01*
X113040725Y-107565532D01*
X113036973Y-107548879D01*
X113057098Y-107537574D01*
X113066063Y-107535498D01*
X113128197Y-107530578D01*
X113199315Y-107537290D01*
G37*
G36*
X118606558Y-107516728D02*
G01*
X118674187Y-107517301D01*
X118751067Y-107518387D01*
X118768033Y-107518674D01*
X118851225Y-107520319D01*
X118914077Y-107522284D01*
X118960648Y-107525004D01*
X118994996Y-107528917D01*
X119021181Y-107534459D01*
X119043262Y-107542067D01*
X119065299Y-107552177D01*
X119104269Y-107575363D01*
X119160772Y-107630733D01*
X119200749Y-107704698D01*
X119200980Y-107705313D01*
X119205886Y-107725606D01*
X119210018Y-107758914D01*
X119213465Y-107807252D01*
X119216315Y-107872637D01*
X119218659Y-107957083D01*
X119220583Y-108062609D01*
X119222178Y-108191228D01*
X119226764Y-108633813D01*
X120304824Y-108633813D01*
X120304824Y-108809592D01*
X119225042Y-108809592D01*
X119225042Y-108982641D01*
X119633099Y-109282065D01*
X120041156Y-109581488D01*
X120041156Y-109776374D01*
X118132703Y-109776374D01*
X118132703Y-109600595D01*
X118923707Y-109600595D01*
X118955024Y-109600588D01*
X119091874Y-109600380D01*
X119220556Y-109599903D01*
X119338950Y-109599184D01*
X119444939Y-109598247D01*
X119536406Y-109597117D01*
X119611233Y-109595820D01*
X119667302Y-109594382D01*
X119702496Y-109592826D01*
X119714696Y-109591178D01*
X119707879Y-109584358D01*
X119682941Y-109564090D01*
X119641908Y-109532302D01*
X119587097Y-109490747D01*
X119520821Y-109441176D01*
X119445396Y-109385343D01*
X119363138Y-109325002D01*
X119011596Y-109068242D01*
X119011596Y-108809592D01*
X117869036Y-108809592D01*
X117869036Y-108633813D01*
X119011596Y-108633813D01*
X119011596Y-108231410D01*
X119011594Y-108209928D01*
X119011409Y-108094660D01*
X119010627Y-108001441D01*
X119008833Y-107927646D01*
X119005613Y-107870652D01*
X119000553Y-107827831D01*
X118993237Y-107796560D01*
X118983252Y-107774214D01*
X118970184Y-107758167D01*
X118953616Y-107745794D01*
X118933137Y-107734470D01*
X118921234Y-107729004D01*
X118899906Y-107722737D01*
X118871378Y-107719048D01*
X118831183Y-107717679D01*
X118774856Y-107718371D01*
X118697931Y-107720865D01*
X118661086Y-107722361D01*
X118596030Y-107725622D01*
X118541510Y-107729154D01*
X118502379Y-107732619D01*
X118483493Y-107735683D01*
X118477331Y-107737295D01*
X118471220Y-107733316D01*
X118469659Y-107717466D01*
X118472483Y-107685440D01*
X118479527Y-107632937D01*
X118482793Y-107609932D01*
X118489297Y-107564351D01*
X118493977Y-107531876D01*
X118495989Y-107518387D01*
X118496689Y-107518095D01*
X118514059Y-107517125D01*
X118551932Y-107516670D01*
X118606558Y-107516728D01*
G37*
G36*
X112597499Y-106636945D02*
G01*
X112607561Y-106656376D01*
X112603436Y-106680160D01*
X112586263Y-106696274D01*
X112570941Y-106703411D01*
X112543260Y-106722084D01*
X112538277Y-106726550D01*
X112529257Y-106739980D01*
X112530466Y-106759002D01*
X112541710Y-106792370D01*
X112545072Y-106802827D01*
X112554268Y-106850691D01*
X112560100Y-106911589D01*
X112562188Y-106976362D01*
X112560154Y-107035850D01*
X112553622Y-107080891D01*
X112542489Y-107105619D01*
X112523036Y-107112149D01*
X112514256Y-107107820D01*
X112507108Y-107094875D01*
X112501903Y-107069335D01*
X112497825Y-107027029D01*
X112494061Y-106963786D01*
X112490571Y-106913028D01*
X112484456Y-106855052D01*
X112477182Y-106808259D01*
X112469670Y-106779607D01*
X112465357Y-106768009D01*
X112462231Y-106723208D01*
X112483372Y-106684607D01*
X112528850Y-106652050D01*
X112540056Y-106646683D01*
X112571702Y-106635478D01*
X112592158Y-106633989D01*
X112597499Y-106636945D01*
G37*
G36*
X112801980Y-105559568D02*
G01*
X112805724Y-105565274D01*
X112801282Y-105567762D01*
X112781659Y-105566265D01*
X112775848Y-105561746D01*
X112789245Y-105558680D01*
X112801980Y-105559568D01*
G37*
G36*
X112306900Y-105538855D02*
G01*
X112300622Y-105545133D01*
X112294345Y-105538855D01*
X112300622Y-105532577D01*
X112306900Y-105538855D01*
G37*
G36*
X112141052Y-107536967D02*
G01*
X112161805Y-107546788D01*
X112162106Y-107561402D01*
X112139343Y-107581097D01*
X112092948Y-107606692D01*
X112042059Y-107629031D01*
X111943518Y-107661752D01*
X111836943Y-107686454D01*
X111732844Y-107700404D01*
X111730504Y-107700580D01*
X111678420Y-107702791D01*
X111619945Y-107702730D01*
X111560328Y-107700734D01*
X111504820Y-107697137D01*
X111458671Y-107692275D01*
X111427132Y-107686485D01*
X111415452Y-107680102D01*
X111418241Y-107677577D01*
X111439822Y-107670902D01*
X111478105Y-107663290D01*
X111527513Y-107655945D01*
X111536365Y-107654722D01*
X111594608Y-107644124D01*
X111666751Y-107627930D01*
X111744468Y-107608116D01*
X111819431Y-107586659D01*
X111894544Y-107564727D01*
X111978195Y-107543960D01*
X112044911Y-107532759D01*
X112098070Y-107530602D01*
X112141052Y-107536967D01*
G37*
G36*
X128566416Y-105729750D02*
G01*
X128652168Y-105769275D01*
X128692396Y-105785808D01*
X128774984Y-105807076D01*
X128851406Y-105810100D01*
X128918422Y-105795372D01*
X128972793Y-105763386D01*
X129011278Y-105714634D01*
X129011794Y-105713632D01*
X129018395Y-105699611D01*
X129023783Y-105684068D01*
X129028109Y-105664384D01*
X129031522Y-105637935D01*
X129034171Y-105602103D01*
X129036207Y-105554265D01*
X129037779Y-105491801D01*
X129039036Y-105412088D01*
X129040128Y-105312508D01*
X129041205Y-105190437D01*
X129045159Y-104716463D01*
X129495531Y-104716463D01*
X129495531Y-105731620D01*
X129567726Y-105767041D01*
X129615815Y-105787465D01*
X129669034Y-105800553D01*
X129734088Y-105806269D01*
X129741752Y-105806541D01*
X129815203Y-105803626D01*
X129870189Y-105788553D01*
X129910832Y-105759496D01*
X129941255Y-105714634D01*
X129947237Y-105701628D01*
X129952635Y-105685881D01*
X129956989Y-105665985D01*
X129960442Y-105639319D01*
X129963142Y-105603264D01*
X129965234Y-105555199D01*
X129966863Y-105492504D01*
X129968176Y-105412559D01*
X129969319Y-105312743D01*
X129970437Y-105190437D01*
X129974508Y-104716463D01*
X130427298Y-104716463D01*
X130421242Y-105246937D01*
X130420782Y-105286749D01*
X130419118Y-105417517D01*
X130417294Y-105526488D01*
X130415050Y-105616266D01*
X130412131Y-105689455D01*
X130408278Y-105748659D01*
X130403234Y-105796481D01*
X130396742Y-105835525D01*
X130388544Y-105868395D01*
X130378383Y-105897694D01*
X130366002Y-105926027D01*
X130351142Y-105955996D01*
X130318447Y-106007923D01*
X130254095Y-106073545D01*
X130174464Y-106123343D01*
X130083218Y-106155715D01*
X129984020Y-106169059D01*
X129880532Y-106161774D01*
X129845500Y-106153786D01*
X129768326Y-106126953D01*
X129683855Y-106087856D01*
X129599135Y-106039930D01*
X129521209Y-105986610D01*
X129440164Y-105924997D01*
X129406863Y-105977507D01*
X129383907Y-106009565D01*
X129316462Y-106074936D01*
X129233803Y-106124453D01*
X129140104Y-106156484D01*
X129039540Y-106169396D01*
X128936283Y-106161556D01*
X128926828Y-106159688D01*
X128854348Y-106138147D01*
X128773957Y-106104201D01*
X128694666Y-106062071D01*
X128625488Y-106015979D01*
X128566416Y-105970873D01*
X128566416Y-106122691D01*
X128114414Y-106122691D01*
X128114414Y-104716463D01*
X128566416Y-104716463D01*
X128566416Y-105729750D01*
G37*
G36*
X126256674Y-105263145D02*
G01*
X126289332Y-105131302D01*
X126341709Y-105013898D01*
X126412979Y-104911913D01*
X126502315Y-104826325D01*
X126608891Y-104758114D01*
X126731882Y-104708259D01*
X126870462Y-104677739D01*
X126872131Y-104677508D01*
X126938722Y-104672594D01*
X127020153Y-104672729D01*
X127107058Y-104677416D01*
X127190069Y-104686157D01*
X127259821Y-104698453D01*
X127358646Y-104728900D01*
X127471323Y-104785767D01*
X127568801Y-104861951D01*
X127649884Y-104956260D01*
X127713374Y-105067502D01*
X127758071Y-105194483D01*
X127765477Y-105229489D01*
X127774902Y-105308214D01*
X127778849Y-105397885D01*
X127777322Y-105489712D01*
X127770325Y-105574904D01*
X127757862Y-105644671D01*
X127724881Y-105745328D01*
X127665602Y-105860288D01*
X127588052Y-105958301D01*
X127493008Y-106038603D01*
X127381246Y-106100423D01*
X127253543Y-106142996D01*
X127215039Y-106150640D01*
X127131167Y-106160262D01*
X127036842Y-106164357D01*
X126940799Y-106162918D01*
X126851774Y-106155937D01*
X126778502Y-106143405D01*
X126720296Y-106126899D01*
X126598737Y-106075421D01*
X126493744Y-106005661D01*
X126406094Y-105918675D01*
X126336566Y-105815518D01*
X126285940Y-105697246D01*
X126254993Y-105564914D01*
X126244504Y-105419577D01*
X126714491Y-105419577D01*
X126714880Y-105463885D01*
X126719231Y-105552777D01*
X126729397Y-105623600D01*
X126746607Y-105681064D01*
X126772088Y-105729881D01*
X126807068Y-105774762D01*
X126834752Y-105802598D01*
X126883541Y-105836090D01*
X126940137Y-105853754D01*
X127012256Y-105858747D01*
X127060399Y-105856080D01*
X127135995Y-105837618D01*
X127197389Y-105800158D01*
X127246938Y-105742006D01*
X127287001Y-105661468D01*
X127288691Y-105657104D01*
X127300202Y-105623231D01*
X127307969Y-105588636D01*
X127312726Y-105547224D01*
X127315209Y-105492903D01*
X127316150Y-105419577D01*
X127316201Y-105392587D01*
X127315030Y-105319826D01*
X127311435Y-105264942D01*
X127304920Y-105222459D01*
X127294986Y-105186900D01*
X127289114Y-105171264D01*
X127250884Y-105100456D01*
X127200261Y-105042671D01*
X127142242Y-105003896D01*
X127118756Y-104994570D01*
X127043034Y-104979593D01*
X126965502Y-104983690D01*
X126891954Y-105005394D01*
X126828183Y-105043236D01*
X126779980Y-105095747D01*
X126764937Y-105120210D01*
X126743808Y-105162929D01*
X126729308Y-105208746D01*
X126720326Y-105263140D01*
X126715757Y-105331591D01*
X126714491Y-105419577D01*
X126244504Y-105419577D01*
X126244561Y-105408449D01*
X126256674Y-105263145D01*
G37*
G36*
X126656023Y-107712012D02*
G01*
X126678810Y-107732412D01*
X126708710Y-107761836D01*
X126764686Y-107818974D01*
X126733297Y-107843221D01*
X126709871Y-107860802D01*
X126667538Y-107891212D01*
X126618705Y-107925227D01*
X126567871Y-107959827D01*
X126519535Y-107991993D01*
X126478196Y-108018706D01*
X126448355Y-108036948D01*
X126434509Y-108043699D01*
X126425219Y-108038979D01*
X126402768Y-108019836D01*
X126374715Y-107990998D01*
X126327102Y-107938296D01*
X126362497Y-107912525D01*
X126383260Y-107897235D01*
X126420624Y-107869485D01*
X126467557Y-107834482D01*
X126518510Y-107796359D01*
X126518933Y-107796042D01*
X126566163Y-107761003D01*
X126605843Y-107732226D01*
X126633817Y-107712679D01*
X126645932Y-107705330D01*
X126656023Y-107712012D01*
G37*
G36*
X112840883Y-105558595D02*
G01*
X112842606Y-105566059D01*
X112840766Y-105567562D01*
X112825865Y-105566059D01*
X112823901Y-105562282D01*
X112834236Y-105557689D01*
X112840883Y-105558595D01*
G37*
G36*
X127072979Y-107528921D02*
G01*
X127149815Y-107529103D01*
X127206693Y-107529976D01*
X127248108Y-107532074D01*
X127278553Y-107535936D01*
X127302521Y-107542097D01*
X127324508Y-107551095D01*
X127349005Y-107563466D01*
X127383717Y-107583351D01*
X127415028Y-107608031D01*
X127437715Y-107637994D01*
X127453268Y-107677202D01*
X127463183Y-107729615D01*
X127468951Y-107799192D01*
X127472066Y-107889893D01*
X127476331Y-108081366D01*
X127875857Y-108081366D01*
X127875857Y-108232034D01*
X127474078Y-108232034D01*
X127474078Y-108382701D01*
X127298299Y-108382701D01*
X127298299Y-108232034D01*
X126030182Y-108232034D01*
X126030182Y-108081366D01*
X127298299Y-108081366D01*
X127298299Y-107765544D01*
X127260520Y-107727765D01*
X127222740Y-107689986D01*
X127015099Y-107694203D01*
X126947712Y-107695495D01*
X126890173Y-107696136D01*
X126851302Y-107695519D01*
X126827644Y-107693285D01*
X126815748Y-107689078D01*
X126812158Y-107682538D01*
X126813421Y-107673309D01*
X126815406Y-107664036D01*
X126821553Y-107629833D01*
X126827988Y-107588559D01*
X126836593Y-107528919D01*
X127059734Y-107528919D01*
X127072979Y-107528921D01*
G37*
G36*
X113647668Y-104760155D02*
G01*
X113646165Y-104775056D01*
X113642389Y-104777020D01*
X113637795Y-104766685D01*
X113638701Y-104760038D01*
X113646165Y-104758315D01*
X113647668Y-104760155D01*
G37*
G36*
X118044814Y-106122691D02*
G01*
X117592812Y-106122691D01*
X117592812Y-104716463D01*
X118044814Y-104716463D01*
X118044814Y-106122691D01*
G37*
G36*
X112156233Y-105639300D02*
G01*
X112149955Y-105645578D01*
X112143677Y-105639300D01*
X112149955Y-105633022D01*
X112156233Y-105639300D01*
G37*
G36*
X112275880Y-105633928D02*
G01*
X112277604Y-105641393D01*
X112275764Y-105642895D01*
X112260863Y-105641393D01*
X112258899Y-105637616D01*
X112269233Y-105633022D01*
X112275880Y-105633928D01*
G37*
G36*
X121478461Y-108719347D02*
G01*
X121502588Y-108647274D01*
X121533933Y-108564465D01*
X121568943Y-108479634D01*
X121604065Y-108401493D01*
X121635747Y-108338756D01*
X121661855Y-108293884D01*
X121713172Y-108213550D01*
X121773213Y-108126745D01*
X121837004Y-108040832D01*
X121863418Y-108006576D01*
X121758985Y-107938729D01*
X121720908Y-107914761D01*
X121611826Y-107852193D01*
X121491271Y-107790164D01*
X121368501Y-107733292D01*
X121252773Y-107686195D01*
X121211780Y-107670802D01*
X121167163Y-107653730D01*
X121136058Y-107641440D01*
X121123489Y-107635886D01*
X121123574Y-107634555D01*
X121132559Y-107618776D01*
X121152474Y-107589447D01*
X121179989Y-107551541D01*
X121240217Y-107470710D01*
X121337999Y-107512098D01*
X121413233Y-107545391D01*
X121564154Y-107619632D01*
X121714021Y-107702273D01*
X121850990Y-107786967D01*
X121865046Y-107796234D01*
X121915615Y-107829277D01*
X121957258Y-107856027D01*
X121985982Y-107873940D01*
X121997797Y-107880477D01*
X121999588Y-107879753D01*
X122016705Y-107868859D01*
X122047270Y-107847600D01*
X122086185Y-107819494D01*
X122112586Y-107800394D01*
X122263070Y-107701215D01*
X122425980Y-107610173D01*
X122607650Y-107523673D01*
X122674500Y-107494109D01*
X122749734Y-107584262D01*
X122824968Y-107674414D01*
X122704318Y-107715616D01*
X122684006Y-107722713D01*
X122613933Y-107748944D01*
X122542439Y-107777822D01*
X122482217Y-107804278D01*
X122447779Y-107821219D01*
X122391578Y-107851284D01*
X122332198Y-107885232D01*
X122274728Y-107919963D01*
X122224253Y-107952375D01*
X122185863Y-107979367D01*
X122164645Y-107997838D01*
X122162213Y-108007989D01*
X122170937Y-108028474D01*
X122194179Y-108060597D01*
X122233746Y-108107223D01*
X122253686Y-108130295D01*
X122328723Y-108225143D01*
X122399931Y-108327198D01*
X122465406Y-108432810D01*
X122523245Y-108538331D01*
X122571543Y-108640110D01*
X122608399Y-108734498D01*
X122631908Y-108817846D01*
X122640168Y-108886503D01*
X122640168Y-108960259D01*
X122112832Y-108960259D01*
X122112832Y-109336927D01*
X122778279Y-109336927D01*
X122778279Y-109512706D01*
X122112832Y-109512706D01*
X122112832Y-109914485D01*
X121924498Y-109914485D01*
X121924498Y-109512706D01*
X121284162Y-109512706D01*
X121284162Y-109336927D01*
X121924498Y-109336927D01*
X121924498Y-108960259D01*
X121284162Y-108960259D01*
X121284162Y-108797036D01*
X121456677Y-108797036D01*
X121636920Y-108797036D01*
X122428414Y-108797036D01*
X122420064Y-108768786D01*
X122416264Y-108756693D01*
X122393094Y-108696229D01*
X122360536Y-108624058D01*
X122322245Y-108547568D01*
X122281878Y-108474146D01*
X122243090Y-108411180D01*
X122228696Y-108390150D01*
X122182797Y-108328077D01*
X122132857Y-108266011D01*
X122087388Y-108214695D01*
X122004789Y-108128076D01*
X121941657Y-108208305D01*
X121938436Y-108212406D01*
X121843695Y-108342615D01*
X121767363Y-108469556D01*
X121705404Y-108600740D01*
X121653778Y-108743675D01*
X121636920Y-108797036D01*
X121456677Y-108797036D01*
X121473210Y-108737397D01*
X121478461Y-108719347D01*
G37*
G36*
X116532763Y-104695181D02*
G01*
X116694769Y-104730514D01*
X116752547Y-104749260D01*
X116834391Y-104784148D01*
X116905254Y-104827646D01*
X116973972Y-104884632D01*
X117012356Y-104922964D01*
X117067900Y-104994940D01*
X117109415Y-105076792D01*
X117141085Y-105175815D01*
X117144542Y-105189762D01*
X117149525Y-105212711D01*
X117153672Y-105237571D01*
X117157058Y-105266661D01*
X117159759Y-105302302D01*
X117161852Y-105346813D01*
X117163414Y-105402515D01*
X117164520Y-105471727D01*
X117165248Y-105556771D01*
X117165673Y-105659966D01*
X117165872Y-105783631D01*
X117165921Y-105930088D01*
X117165921Y-106587249D01*
X116689851Y-106587249D01*
X116686191Y-105924940D01*
X116682530Y-105262632D01*
X116649116Y-105191352D01*
X116617709Y-105138145D01*
X116565884Y-105086613D01*
X116499140Y-105052451D01*
X116415702Y-105034819D01*
X116313791Y-105032877D01*
X116268680Y-105036555D01*
X116181453Y-105055023D01*
X116112865Y-105088928D01*
X116060962Y-105139931D01*
X116023789Y-105209689D01*
X115999393Y-105299864D01*
X115996033Y-105330396D01*
X115992974Y-105385824D01*
X115990418Y-105464024D01*
X115988387Y-105563799D01*
X115986907Y-105683952D01*
X115986001Y-105823287D01*
X115985694Y-105980607D01*
X115985694Y-106587249D01*
X115508581Y-106587249D01*
X115509019Y-105956329D01*
X115509186Y-105841310D01*
X115509713Y-105703343D01*
X115510629Y-105586932D01*
X115511986Y-105490022D01*
X115513835Y-105410554D01*
X115516228Y-105346473D01*
X115519214Y-105295722D01*
X115522846Y-105256243D01*
X115527175Y-105225979D01*
X115527366Y-105224912D01*
X115560993Y-105102073D01*
X115614720Y-104993907D01*
X115687880Y-104900975D01*
X115779803Y-104823841D01*
X115889822Y-104763065D01*
X116017268Y-104719210D01*
X116161473Y-104692836D01*
X116174301Y-104691414D01*
X116359255Y-104682146D01*
X116532763Y-104695181D01*
G37*
G36*
X111588548Y-104885711D02*
G01*
X111587045Y-104900612D01*
X111583269Y-104902576D01*
X111578675Y-104892241D01*
X111579581Y-104885594D01*
X111587045Y-104883871D01*
X111588548Y-104885711D01*
G37*
G36*
X112394789Y-105563966D02*
G01*
X112388512Y-105570244D01*
X112382234Y-105563966D01*
X112388512Y-105557689D01*
X112394789Y-105563966D01*
G37*
G36*
X112815772Y-105483261D02*
G01*
X112817495Y-105490725D01*
X112815655Y-105492228D01*
X112800754Y-105490725D01*
X112798790Y-105486949D01*
X112809125Y-105482355D01*
X112815772Y-105483261D01*
G37*
G36*
X111541008Y-104760407D02*
G01*
X111534730Y-104766685D01*
X111528452Y-104760407D01*
X111534730Y-104754130D01*
X111541008Y-104760407D01*
G37*
G36*
X126394295Y-108332478D02*
G01*
X126394295Y-108533368D01*
X126846297Y-108533368D01*
X126846297Y-108370145D01*
X127020877Y-108370145D01*
X127024615Y-108448618D01*
X127028353Y-108527090D01*
X127257493Y-108530513D01*
X127486633Y-108533935D01*
X127486633Y-108382701D01*
X127662412Y-108382701D01*
X127662412Y-109311816D01*
X127022076Y-109311816D01*
X127022076Y-109475039D01*
X127813079Y-109475039D01*
X127813079Y-109625706D01*
X127022076Y-109625706D01*
X127022076Y-109914485D01*
X126846297Y-109914485D01*
X126846297Y-109625706D01*
X126092960Y-109625706D01*
X126092960Y-109475039D01*
X126846297Y-109475039D01*
X126846297Y-109311816D01*
X126218517Y-109311816D01*
X126218517Y-109161149D01*
X126394295Y-109161149D01*
X126846297Y-109161149D01*
X127022076Y-109161149D01*
X127486633Y-109161149D01*
X127486633Y-108985370D01*
X127022076Y-108985370D01*
X127022076Y-109161149D01*
X126846297Y-109161149D01*
X126846297Y-108985370D01*
X126394295Y-108985370D01*
X126394295Y-109161149D01*
X126218517Y-109161149D01*
X126218517Y-108847259D01*
X126394295Y-108847259D01*
X126846297Y-108847259D01*
X126846297Y-108671480D01*
X127020928Y-108671480D01*
X127024641Y-108756230D01*
X127028353Y-108840981D01*
X127486633Y-108847825D01*
X127486633Y-108671480D01*
X127020928Y-108671480D01*
X126846297Y-108671480D01*
X126394295Y-108671480D01*
X126394295Y-108847259D01*
X126218517Y-108847259D01*
X126218517Y-108332478D01*
X126394295Y-108332478D01*
G37*
G36*
X124225216Y-108241450D02*
G01*
X124228452Y-109004204D01*
X124312572Y-108843981D01*
X124392232Y-108700391D01*
X124538043Y-108472615D01*
X124697650Y-108263366D01*
X124869552Y-108074717D01*
X124906178Y-108039134D01*
X124958104Y-107991222D01*
X125013139Y-107942635D01*
X125067701Y-107896337D01*
X125118210Y-107855292D01*
X125161082Y-107822463D01*
X125192738Y-107800816D01*
X125209594Y-107793314D01*
X125213762Y-107795707D01*
X125231799Y-107813222D01*
X125259138Y-107843963D01*
X125291697Y-107883448D01*
X125363048Y-107972857D01*
X125291697Y-108016803D01*
X125157317Y-108107058D01*
X124981887Y-108248411D01*
X124815273Y-108410107D01*
X124660006Y-108589635D01*
X124518617Y-108784480D01*
X124515921Y-108788558D01*
X124479062Y-108845846D01*
X124441277Y-108907010D01*
X124404971Y-108967874D01*
X124372549Y-109024263D01*
X124346413Y-109072003D01*
X124328968Y-109106919D01*
X124322619Y-109124836D01*
X124322748Y-109125108D01*
X124337316Y-109127678D01*
X124374346Y-109130003D01*
X124431434Y-109132029D01*
X124506177Y-109133700D01*
X124596169Y-109134962D01*
X124699008Y-109135760D01*
X124812288Y-109136038D01*
X125301957Y-109136038D01*
X125301957Y-109311816D01*
X124222175Y-109311816D01*
X124222175Y-109914485D01*
X124033840Y-109914485D01*
X124033840Y-109311816D01*
X122966613Y-109311816D01*
X122966613Y-109136038D01*
X123451348Y-109136038D01*
X123467179Y-109136037D01*
X123587493Y-109135966D01*
X123685241Y-109135702D01*
X123762700Y-109135141D01*
X123822144Y-109134177D01*
X123865851Y-109132706D01*
X123896095Y-109130622D01*
X123915154Y-109127821D01*
X123925303Y-109124198D01*
X123928818Y-109119648D01*
X123927976Y-109114065D01*
X123923589Y-109103642D01*
X123903232Y-109064568D01*
X123871894Y-109011013D01*
X123832276Y-108947183D01*
X123787078Y-108877287D01*
X123739002Y-108805530D01*
X123690747Y-108736120D01*
X123645015Y-108673264D01*
X123604813Y-108621497D01*
X123525373Y-108526524D01*
X123435011Y-108425583D01*
X123338802Y-108323974D01*
X123241819Y-108227000D01*
X123149137Y-108139961D01*
X123065830Y-108068158D01*
X123023242Y-108033571D01*
X122977856Y-107996640D01*
X122941345Y-107966854D01*
X122919026Y-107948544D01*
X122887476Y-107922445D01*
X122953302Y-107838683D01*
X122965054Y-107823866D01*
X122994010Y-107788628D01*
X123015655Y-107764114D01*
X123026001Y-107754920D01*
X123038822Y-107760546D01*
X123068235Y-107782029D01*
X123110007Y-107817148D01*
X123161450Y-107863306D01*
X123219880Y-107917908D01*
X123282610Y-107978358D01*
X123346955Y-108042062D01*
X123410229Y-108106423D01*
X123469747Y-108168846D01*
X123522821Y-108226737D01*
X123566767Y-108277498D01*
X123646231Y-108377901D01*
X123762115Y-108540812D01*
X123870848Y-108712939D01*
X123966278Y-108884925D01*
X124027563Y-109004204D01*
X124030799Y-108241450D01*
X124034035Y-107478697D01*
X124221980Y-107478697D01*
X124225216Y-108241450D01*
G37*
G36*
X118057370Y-106675138D02*
G01*
X117580257Y-106675138D01*
X117580257Y-106336136D01*
X118057370Y-106336136D01*
X118057370Y-106675138D01*
G37*
G36*
X113007332Y-105651603D02*
G01*
X113005829Y-105666504D01*
X113002053Y-105668468D01*
X112997459Y-105658133D01*
X112998365Y-105651487D01*
X113005829Y-105649763D01*
X113007332Y-105651603D01*
G37*
G36*
X128265081Y-109462483D02*
G01*
X130110756Y-109462483D01*
X130110756Y-109161149D01*
X130286534Y-109161149D01*
X130286534Y-109625706D01*
X129238590Y-109625706D01*
X129288588Y-109659031D01*
X129304889Y-109669936D01*
X129331020Y-109687622D01*
X129343498Y-109696378D01*
X129339645Y-109706328D01*
X129322997Y-109731417D01*
X129296719Y-109767058D01*
X129264212Y-109808781D01*
X129228880Y-109852117D01*
X129194125Y-109892596D01*
X129148134Y-109944421D01*
X129092693Y-109911571D01*
X129054781Y-109889187D01*
X129020792Y-109866942D01*
X129005212Y-109848600D01*
X129006598Y-109828425D01*
X129023510Y-109800680D01*
X129054504Y-109759629D01*
X129069516Y-109740248D01*
X129093220Y-109710728D01*
X129111819Y-109686695D01*
X129123495Y-109667593D01*
X129126431Y-109652865D01*
X129118807Y-109641954D01*
X129098807Y-109634304D01*
X129064612Y-109629357D01*
X129014404Y-109626559D01*
X128946364Y-109625351D01*
X128858676Y-109625177D01*
X128749521Y-109625481D01*
X128617080Y-109625706D01*
X128089303Y-109625706D01*
X128089303Y-109161149D01*
X128265081Y-109161149D01*
X128265081Y-109462483D01*
G37*
G36*
X127514294Y-109654995D02*
G01*
X127531632Y-109672807D01*
X127551196Y-109701467D01*
X127568554Y-109733326D01*
X127579273Y-109760732D01*
X127578923Y-109776034D01*
X127565387Y-109784252D01*
X127533571Y-109800172D01*
X127489817Y-109820639D01*
X127439897Y-109843103D01*
X127389582Y-109865015D01*
X127344644Y-109883823D01*
X127310856Y-109896978D01*
X127293988Y-109901930D01*
X127286974Y-109898707D01*
X127268265Y-109879439D01*
X127246760Y-109848568D01*
X127214338Y-109795207D01*
X127353625Y-109724777D01*
X127356815Y-109723166D01*
X127411019Y-109696231D01*
X127457413Y-109673975D01*
X127491157Y-109658668D01*
X127507413Y-109652582D01*
X127514294Y-109654995D01*
G37*
G36*
X121638234Y-105587359D02*
G01*
X121644954Y-105485796D01*
X121656567Y-105393956D01*
X121672830Y-105319337D01*
X121676221Y-105307965D01*
X121730841Y-105169819D01*
X121805186Y-105046118D01*
X121897582Y-104938275D01*
X122006353Y-104847704D01*
X122129824Y-104775819D01*
X122266320Y-104724033D01*
X122414167Y-104693761D01*
X122501156Y-104684612D01*
X122580260Y-104681082D01*
X122658213Y-104683777D01*
X122746890Y-104692657D01*
X122822668Y-104704305D01*
X122972410Y-104743485D01*
X123106361Y-104801918D01*
X123224009Y-104879159D01*
X123324844Y-104974761D01*
X123408353Y-105088280D01*
X123474026Y-105219270D01*
X123521351Y-105367285D01*
X123525593Y-105385954D01*
X123541326Y-105489070D01*
X123548692Y-105604983D01*
X123547702Y-105724661D01*
X123538366Y-105839073D01*
X123520695Y-105939189D01*
X123514689Y-105962777D01*
X123464771Y-106106209D01*
X123396118Y-106233988D01*
X123309655Y-106345092D01*
X123206307Y-106438495D01*
X123086998Y-106513175D01*
X122952653Y-106568108D01*
X122873476Y-106589620D01*
X122729224Y-106613283D01*
X122580721Y-106619918D01*
X122432875Y-106609970D01*
X122290596Y-106583888D01*
X122158792Y-106542120D01*
X122042372Y-106485112D01*
X122028951Y-106476830D01*
X121922205Y-106394779D01*
X121829824Y-106293603D01*
X121753318Y-106175582D01*
X121694198Y-106042998D01*
X121653972Y-105898132D01*
X121649881Y-105875383D01*
X121640453Y-105789652D01*
X121637064Y-105701832D01*
X122129054Y-105701832D01*
X122130935Y-105731942D01*
X122149313Y-105868734D01*
X122182733Y-105985842D01*
X122231071Y-106083106D01*
X122294203Y-106160364D01*
X122372003Y-106217459D01*
X122464347Y-106254228D01*
X122571112Y-106270513D01*
X122603050Y-106271805D01*
X122655030Y-106270610D01*
X122698913Y-106263083D01*
X122745871Y-106247769D01*
X122747482Y-106247158D01*
X122834775Y-106201295D01*
X122908596Y-106135185D01*
X122969517Y-106048179D01*
X123018110Y-105939631D01*
X123021773Y-105928462D01*
X123035509Y-105867132D01*
X123045642Y-105789706D01*
X123051804Y-105703341D01*
X123053624Y-105615194D01*
X123050734Y-105532421D01*
X123042762Y-105462178D01*
X123040813Y-105451423D01*
X123010539Y-105343834D01*
X122963857Y-105247381D01*
X122903124Y-105165311D01*
X122830694Y-105100870D01*
X122748923Y-105057303D01*
X122689705Y-105040335D01*
X122594771Y-105030830D01*
X122499213Y-105040005D01*
X122409658Y-105067006D01*
X122332732Y-105110978D01*
X122295894Y-105142860D01*
X122231629Y-105222363D01*
X122182141Y-105319957D01*
X122148103Y-105433697D01*
X122130183Y-105561637D01*
X122129054Y-105701832D01*
X121637064Y-105701832D01*
X121636652Y-105691144D01*
X121638234Y-105587359D01*
G37*
G36*
X115659248Y-108043699D02*
G01*
X115659248Y-108219478D01*
X116358612Y-108219478D01*
X116366192Y-108021727D01*
X116367760Y-107986229D01*
X116372043Y-107916209D01*
X116377338Y-107854279D01*
X116383118Y-107806112D01*
X116388858Y-107777379D01*
X116412190Y-107725182D01*
X116461903Y-107664829D01*
X116530496Y-107620079D01*
X116616830Y-107591861D01*
X116626047Y-107590565D01*
X116662265Y-107588110D01*
X116718400Y-107586076D01*
X116790935Y-107584527D01*
X116876351Y-107583529D01*
X116971130Y-107583146D01*
X117071754Y-107583444D01*
X117104720Y-107583661D01*
X117218090Y-107584612D01*
X117310001Y-107586106D01*
X117383360Y-107588637D01*
X117441071Y-107592698D01*
X117486041Y-107598784D01*
X117521175Y-107607389D01*
X117549379Y-107619005D01*
X117573559Y-107634128D01*
X117596619Y-107653250D01*
X117621467Y-107676865D01*
X117647521Y-107707279D01*
X117673845Y-107753100D01*
X117696674Y-107813134D01*
X117717346Y-107891014D01*
X117737203Y-107990368D01*
X117740754Y-108010154D01*
X117750070Y-108061287D01*
X117757802Y-108102695D01*
X117762557Y-108126877D01*
X117763242Y-108130701D01*
X117761374Y-108144253D01*
X117748639Y-108156241D01*
X117720652Y-108169625D01*
X117673028Y-108187369D01*
X117659431Y-108192142D01*
X117617139Y-108206220D01*
X117586732Y-108215157D01*
X117574051Y-108217192D01*
X117571149Y-108205181D01*
X117565513Y-108173041D01*
X117558054Y-108125895D01*
X117549609Y-108068811D01*
X117535812Y-107986897D01*
X117516743Y-107910822D01*
X117493507Y-107854477D01*
X117464868Y-107814985D01*
X117429589Y-107789468D01*
X117429442Y-107789394D01*
X117413993Y-107782913D01*
X117394687Y-107777837D01*
X117368486Y-107774002D01*
X117332355Y-107771244D01*
X117283258Y-107769397D01*
X117218158Y-107768297D01*
X117134021Y-107767780D01*
X117027810Y-107767681D01*
X116961492Y-107767746D01*
X116862932Y-107768217D01*
X116785091Y-107769548D01*
X116725168Y-107772216D01*
X116680361Y-107776698D01*
X116647871Y-107783470D01*
X116624895Y-107793009D01*
X116608635Y-107805789D01*
X116596288Y-107822289D01*
X116585054Y-107842984D01*
X116576378Y-107863589D01*
X116569967Y-107890701D01*
X116566451Y-107927352D01*
X116565359Y-107978719D01*
X116566221Y-108049977D01*
X116569530Y-108213200D01*
X117024671Y-108216496D01*
X117479812Y-108219791D01*
X117479812Y-109588040D01*
X116563252Y-109588040D01*
X116563252Y-109901930D01*
X116362362Y-109901930D01*
X116362362Y-109588040D01*
X115458358Y-109588040D01*
X115458358Y-109412261D01*
X115659248Y-109412261D01*
X116362362Y-109412261D01*
X116362362Y-108985370D01*
X116562645Y-108985370D01*
X116566087Y-109195677D01*
X116569530Y-109405983D01*
X116924226Y-109409318D01*
X117278922Y-109412652D01*
X117278922Y-108985370D01*
X116562645Y-108985370D01*
X116362362Y-108985370D01*
X115659248Y-108985370D01*
X115659248Y-109412261D01*
X115458358Y-109412261D01*
X115458358Y-108809592D01*
X115659248Y-108809592D01*
X116362362Y-108809592D01*
X116563252Y-108809592D01*
X117278922Y-108809592D01*
X117278922Y-108395257D01*
X116563252Y-108395257D01*
X116563252Y-108809592D01*
X116362362Y-108809592D01*
X116362362Y-108395257D01*
X115659248Y-108395257D01*
X115659248Y-108809592D01*
X115458358Y-108809592D01*
X115458358Y-108043699D01*
X115659248Y-108043699D01*
G37*
G36*
X113612684Y-104860852D02*
G01*
X113606406Y-104867130D01*
X113600128Y-104860852D01*
X113606406Y-104854574D01*
X113612684Y-104860852D01*
G37*
G36*
X125629293Y-104675146D02*
G01*
X125757653Y-104690711D01*
X125879044Y-104717239D01*
X125985206Y-104753687D01*
X126042738Y-104778348D01*
X126042738Y-104967129D01*
X126042704Y-105019152D01*
X126042263Y-105076517D01*
X126040853Y-105115068D01*
X126037911Y-105138544D01*
X126032871Y-105150684D01*
X126025169Y-105155226D01*
X126014241Y-105155909D01*
X126012715Y-105155838D01*
X125987597Y-105147219D01*
X125951132Y-105127027D01*
X125910657Y-105099275D01*
X125899455Y-105091079D01*
X125814199Y-105042318D01*
X125721413Y-105009643D01*
X125625508Y-104993120D01*
X125530896Y-104992819D01*
X125441987Y-105008805D01*
X125363193Y-105041146D01*
X125298926Y-105089911D01*
X125293989Y-105095033D01*
X125253591Y-105143505D01*
X125225334Y-105193922D01*
X125207400Y-105251955D01*
X125197973Y-105323278D01*
X125195234Y-105413563D01*
X125195378Y-105462028D01*
X125196640Y-105513092D01*
X125200212Y-105550557D01*
X125207275Y-105581141D01*
X125219012Y-105611560D01*
X125236607Y-105648534D01*
X125268809Y-105704788D01*
X125324134Y-105769012D01*
X125391449Y-105813038D01*
X125473285Y-105838359D01*
X125572174Y-105846468D01*
X125633966Y-105842143D01*
X125724572Y-105822512D01*
X125812011Y-105789639D01*
X125889111Y-105746396D01*
X125948701Y-105695657D01*
X125972109Y-105679366D01*
X126007017Y-105670689D01*
X126042738Y-105670689D01*
X126042738Y-106058109D01*
X125970543Y-106085285D01*
X125933673Y-106098820D01*
X125836699Y-106129845D01*
X125747545Y-106149806D01*
X125656304Y-106160571D01*
X125553069Y-106164009D01*
X125499024Y-106163508D01*
X125386758Y-106156400D01*
X125288344Y-106139802D01*
X125196681Y-106112262D01*
X125104671Y-106072329D01*
X125018002Y-106022439D01*
X124920799Y-105943020D01*
X124843320Y-105848166D01*
X124785490Y-105737757D01*
X124747236Y-105611674D01*
X124728483Y-105469799D01*
X124726922Y-105378554D01*
X124741704Y-105239205D01*
X124777461Y-105113167D01*
X124833542Y-105001207D01*
X124909300Y-104904094D01*
X125004085Y-104822593D01*
X125117250Y-104757475D01*
X125248146Y-104709505D01*
X125396124Y-104679453D01*
X125502221Y-104671582D01*
X125629293Y-104675146D01*
G37*
G36*
X112784013Y-105488633D02*
G01*
X112777736Y-105494911D01*
X112771458Y-105488633D01*
X112777736Y-105482355D01*
X112784013Y-105488633D01*
G37*
G36*
X112269233Y-105563966D02*
G01*
X112262956Y-105570244D01*
X112256678Y-105563966D01*
X112262956Y-105557689D01*
X112269233Y-105563966D01*
G37*
G36*
X128292380Y-108965302D02*
G01*
X128219154Y-108907493D01*
X128091616Y-108812647D01*
X128150530Y-108754619D01*
X128180687Y-108726224D01*
X128206169Y-108704789D01*
X128219763Y-108696591D01*
X128225115Y-108698590D01*
X128248051Y-108713238D01*
X128283973Y-108739422D01*
X128328835Y-108773943D01*
X128378593Y-108813603D01*
X128429200Y-108855204D01*
X128476612Y-108895546D01*
X128516784Y-108931432D01*
X128592447Y-109001482D01*
X128695571Y-108901183D01*
X128725713Y-108872863D01*
X128783305Y-108822558D01*
X128841318Y-108775776D01*
X128890883Y-108739846D01*
X128983071Y-108678809D01*
X128915994Y-108655868D01*
X128874689Y-108642488D01*
X128771892Y-108613514D01*
X128651934Y-108584333D01*
X128520159Y-108556055D01*
X128381911Y-108529793D01*
X128242532Y-108506656D01*
X128107366Y-108487755D01*
X127930818Y-108465683D01*
X127981810Y-108381140D01*
X128000023Y-108351865D01*
X128023545Y-108319360D01*
X128041701Y-108303755D01*
X128057914Y-108301470D01*
X128073912Y-108304213D01*
X128111486Y-108310153D01*
X128162651Y-108317964D01*
X128221136Y-108326678D01*
X128416671Y-108359361D01*
X128738945Y-108431194D01*
X129047527Y-108523245D01*
X129195915Y-108573514D01*
X129331638Y-108528428D01*
X129385268Y-108511183D01*
X129613947Y-108449378D01*
X129860732Y-108400739D01*
X130127487Y-108364883D01*
X130183176Y-108358717D01*
X130231217Y-108354428D01*
X130264442Y-108355765D01*
X130288439Y-108365138D01*
X130308795Y-108384958D01*
X130331097Y-108417634D01*
X130360934Y-108465577D01*
X130409121Y-108542176D01*
X130206577Y-108549651D01*
X130126130Y-108553412D01*
X129854405Y-108578758D01*
X129596833Y-108623218D01*
X129589153Y-108624870D01*
X129517912Y-108640307D01*
X129469910Y-108652439D01*
X129444069Y-108663628D01*
X129439313Y-108676236D01*
X129454566Y-108692627D01*
X129488752Y-108715161D01*
X129540793Y-108746201D01*
X129622369Y-108797917D01*
X129708116Y-108858225D01*
X129789197Y-108920817D01*
X129859710Y-108981130D01*
X129913754Y-109034601D01*
X129934975Y-109059292D01*
X129951575Y-109086281D01*
X129958622Y-109116629D01*
X129960089Y-109161185D01*
X129960089Y-109236482D01*
X129395086Y-109236482D01*
X129350075Y-109236494D01*
X129218129Y-109236723D01*
X129108966Y-109237320D01*
X129020801Y-109238386D01*
X128951849Y-109240020D01*
X128900328Y-109242320D01*
X128864452Y-109245387D01*
X128842438Y-109249319D01*
X128832501Y-109254217D01*
X128832857Y-109260179D01*
X128841722Y-109267305D01*
X128847514Y-109272203D01*
X128866944Y-109293085D01*
X128891629Y-109322816D01*
X128929898Y-109371134D01*
X128844167Y-109409000D01*
X128758435Y-109446867D01*
X128694961Y-109363647D01*
X128668236Y-109330429D01*
X128608176Y-109262990D01*
X128535638Y-109188038D01*
X128455544Y-109110294D01*
X128404015Y-109063067D01*
X128769353Y-109063067D01*
X128780692Y-109072664D01*
X128807355Y-109079156D01*
X128850973Y-109083137D01*
X128913177Y-109085199D01*
X128995597Y-109085937D01*
X129099864Y-109085945D01*
X129227607Y-109085815D01*
X129701347Y-109085815D01*
X129658078Y-109040823D01*
X129649638Y-109032432D01*
X129602364Y-108992452D01*
X129539224Y-108946608D01*
X129465818Y-108898605D01*
X129387748Y-108852148D01*
X129310614Y-108810944D01*
X129287656Y-108799681D01*
X129243083Y-108779009D01*
X129208804Y-108764710D01*
X129190821Y-108759369D01*
X129170344Y-108765319D01*
X129133007Y-108783568D01*
X129084592Y-108811229D01*
X129029806Y-108845361D01*
X128973356Y-108883020D01*
X128919948Y-108921268D01*
X128874290Y-108957161D01*
X128844641Y-108981753D01*
X128810984Y-109009708D01*
X128786130Y-109032183D01*
X128771710Y-109049771D01*
X128769353Y-109063067D01*
X128404015Y-109063067D01*
X128372818Y-109034475D01*
X128292380Y-108965302D01*
G37*
G36*
X112429774Y-105450714D02*
G01*
X112428271Y-105465614D01*
X112424495Y-105467578D01*
X112419901Y-105457244D01*
X112420807Y-105450597D01*
X112428271Y-105448873D01*
X112429774Y-105450714D01*
G37*
G36*
X118923707Y-105730038D02*
G01*
X119002179Y-105765908D01*
X119002690Y-105766142D01*
X119058589Y-105788008D01*
X119113810Y-105800315D01*
X119181097Y-105805912D01*
X119228827Y-105806536D01*
X119290323Y-105800004D01*
X119336093Y-105782021D01*
X119371228Y-105750181D01*
X119400820Y-105702078D01*
X119432209Y-105639300D01*
X119436413Y-105177881D01*
X119440616Y-104716463D01*
X119892401Y-104716463D01*
X119887196Y-105246937D01*
X119886609Y-105305442D01*
X119885115Y-105434605D01*
X119883356Y-105542241D01*
X119881058Y-105630907D01*
X119877948Y-105703161D01*
X119873752Y-105761560D01*
X119868196Y-105808661D01*
X119861007Y-105847021D01*
X119851912Y-105879198D01*
X119840636Y-105907748D01*
X119826905Y-105935230D01*
X119810447Y-105964200D01*
X119759105Y-106033878D01*
X119689532Y-106091933D01*
X119602994Y-106133838D01*
X119497391Y-106160913D01*
X119478735Y-106163830D01*
X119361064Y-106167612D01*
X119242593Y-106146383D01*
X119123565Y-106100208D01*
X119004229Y-106029154D01*
X118923707Y-105972865D01*
X118923707Y-106122691D01*
X118471705Y-106122691D01*
X118471705Y-104716463D01*
X118923707Y-104716463D01*
X118923707Y-105730038D01*
G37*
G36*
X125854404Y-109048148D02*
G01*
X126092960Y-109048148D01*
X126092960Y-109223927D01*
X125854404Y-109223927D01*
X125854404Y-109914485D01*
X125678625Y-109914485D01*
X125678625Y-109223927D01*
X125427513Y-109223927D01*
X125427513Y-109048148D01*
X125678625Y-109048148D01*
X125678625Y-107491253D01*
X125854404Y-107491253D01*
X125854404Y-109048148D01*
G37*
G36*
X112884458Y-105526300D02*
G01*
X112878180Y-105532577D01*
X112871903Y-105526300D01*
X112878180Y-105520022D01*
X112884458Y-105526300D01*
G37*
G36*
X112972348Y-105563966D02*
G01*
X112966070Y-105570244D01*
X112959792Y-105563966D01*
X112966070Y-105557689D01*
X112972348Y-105563966D01*
G37*
G36*
X112880174Y-105545459D02*
G01*
X112884458Y-105557689D01*
X112883947Y-105561130D01*
X112871162Y-105570244D01*
X112866620Y-105569258D01*
X112865625Y-105557689D01*
X112868202Y-105553931D01*
X112878921Y-105545133D01*
X112880174Y-105545459D01*
G37*
G36*
X112691662Y-105545724D02*
G01*
X112702402Y-105557689D01*
X112703407Y-105564339D01*
X112689846Y-105570244D01*
X112680272Y-105568326D01*
X112677291Y-105557689D01*
X112679864Y-105553890D01*
X112689846Y-105545133D01*
X112691662Y-105545724D01*
G37*
G36*
X120611412Y-107528962D02*
G01*
X120685857Y-107530757D01*
X120741237Y-107535985D01*
X120782530Y-107545730D01*
X120814715Y-107561080D01*
X120842769Y-107583117D01*
X120856559Y-107596147D01*
X120871901Y-107612447D01*
X120884261Y-107630090D01*
X120894008Y-107651718D01*
X120901510Y-107679971D01*
X120907138Y-107717489D01*
X120911258Y-107766914D01*
X120914241Y-107830885D01*
X120916454Y-107912043D01*
X120918267Y-108013029D01*
X120920049Y-108136484D01*
X120926327Y-108587103D01*
X121061300Y-108629691D01*
X121196272Y-108672280D01*
X121196272Y-108857780D01*
X121093582Y-108826244D01*
X121078875Y-108821705D01*
X121028628Y-108805890D01*
X120986692Y-108792245D01*
X120960931Y-108783316D01*
X120940078Y-108775892D01*
X120925509Y-108771925D01*
X120925395Y-108771977D01*
X120923706Y-108785380D01*
X120922238Y-108819788D01*
X120921081Y-108871345D01*
X120920322Y-108936195D01*
X120920049Y-109010481D01*
X120920049Y-109249038D01*
X121208828Y-109249038D01*
X121208828Y-109412261D01*
X120920049Y-109412261D01*
X120920049Y-109901930D01*
X120731715Y-109901930D01*
X120731715Y-109412261D01*
X120405269Y-109412261D01*
X120405269Y-109249038D01*
X120731715Y-109249038D01*
X120731715Y-108712577D01*
X120571631Y-108666262D01*
X120560173Y-108662945D01*
X120500371Y-108645565D01*
X120449451Y-108630657D01*
X120412496Y-108619715D01*
X120394587Y-108614233D01*
X120389638Y-108611254D01*
X120383660Y-108596825D01*
X120382771Y-108567190D01*
X120386578Y-108517582D01*
X120387109Y-108512263D01*
X120392202Y-108468039D01*
X120397124Y-108435349D01*
X120400879Y-108420934D01*
X120404375Y-108420969D01*
X120426741Y-108426139D01*
X120465191Y-108436858D01*
X120514506Y-108451523D01*
X120569466Y-108468533D01*
X120624851Y-108486286D01*
X120675443Y-108503183D01*
X120716020Y-108517620D01*
X120716976Y-108517808D01*
X120721431Y-108512438D01*
X120724951Y-108494799D01*
X120727628Y-108462751D01*
X120729552Y-108414155D01*
X120730814Y-108346871D01*
X120731505Y-108258758D01*
X120731715Y-108147676D01*
X120731715Y-107771853D01*
X120701069Y-107743063D01*
X120699235Y-107741353D01*
X120683690Y-107728907D01*
X120666025Y-107721347D01*
X120640505Y-107717814D01*
X120601391Y-107717449D01*
X120542945Y-107719393D01*
X120415466Y-107724514D01*
X120424157Y-107643362D01*
X120428998Y-107603241D01*
X120434635Y-107566147D01*
X120439235Y-107545565D01*
X120440107Y-107543902D01*
X120452377Y-107536823D01*
X120479971Y-107532199D01*
X120526139Y-107529681D01*
X120594129Y-107528919D01*
X120611412Y-107528962D01*
G37*
G36*
X112746347Y-105488633D02*
G01*
X112740069Y-105494911D01*
X112733791Y-105488633D01*
X112740069Y-105482355D01*
X112746347Y-105488633D01*
G37*
G36*
X112436798Y-105487445D02*
G01*
X112436094Y-105507466D01*
X112431309Y-105522225D01*
X112424714Y-105532577D01*
X112421926Y-105527904D01*
X112419901Y-105507466D01*
X112422031Y-105492881D01*
X112431281Y-105482355D01*
X112436798Y-105487445D01*
G37*
G36*
X113010014Y-105626744D02*
G01*
X113003737Y-105633022D01*
X112997459Y-105626744D01*
X113003737Y-105620467D01*
X113010014Y-105626744D01*
G37*
G36*
X112751757Y-105559568D02*
G01*
X112755502Y-105565274D01*
X112751060Y-105567762D01*
X112731437Y-105566265D01*
X112725625Y-105561746D01*
X112739022Y-105558680D01*
X112751757Y-105559568D01*
G37*
G36*
X112608235Y-106063876D02*
G01*
X112640360Y-106064300D01*
X112702084Y-106065448D01*
X112744191Y-106067269D01*
X112770569Y-106070388D01*
X112785108Y-106075430D01*
X112791695Y-106083022D01*
X112794218Y-106093787D01*
X112794971Y-106100336D01*
X112793502Y-106109150D01*
X112785346Y-106115248D01*
X112766817Y-106119264D01*
X112734233Y-106121834D01*
X112683909Y-106123593D01*
X112612161Y-106125176D01*
X112582738Y-106125716D01*
X112519065Y-106126455D01*
X112465886Y-106126486D01*
X112428069Y-106125824D01*
X112410484Y-106124487D01*
X112402235Y-106118717D01*
X112394789Y-106097283D01*
X112397063Y-106084598D01*
X112410484Y-106068061D01*
X112414531Y-106067165D01*
X112440464Y-106065229D01*
X112484682Y-106063966D01*
X112542251Y-106063480D01*
X112608235Y-106063876D01*
G37*
G36*
X174014345Y-98186461D02*
G01*
X174008068Y-98192739D01*
X174001790Y-98186461D01*
X174008068Y-98180183D01*
X174014345Y-98186461D01*
G37*
G36*
X173235898Y-98952353D02*
G01*
X173229620Y-98958631D01*
X173223342Y-98952353D01*
X173229620Y-98946076D01*
X173235898Y-98952353D01*
G37*
G36*
X173913901Y-100258137D02*
G01*
X173907623Y-100264415D01*
X173901345Y-100258137D01*
X173907623Y-100251859D01*
X173913901Y-100258137D01*
G37*
G36*
X173210786Y-99555023D02*
G01*
X173204509Y-99561300D01*
X173198231Y-99555023D01*
X173204509Y-99548745D01*
X173210786Y-99555023D01*
G37*
G36*
X169607326Y-114916812D02*
G01*
X169305992Y-114916812D01*
X169305992Y-116762487D01*
X169607326Y-116762487D01*
X169607326Y-116938265D01*
X169142769Y-116938265D01*
X169142769Y-115890321D01*
X169109444Y-115940319D01*
X169098539Y-115956620D01*
X169080853Y-115982751D01*
X169072097Y-115995229D01*
X169062147Y-115991376D01*
X169037058Y-115974728D01*
X169001417Y-115948450D01*
X168959694Y-115915943D01*
X168916358Y-115880611D01*
X168875879Y-115845856D01*
X168824054Y-115799865D01*
X168856904Y-115744424D01*
X168879288Y-115706512D01*
X168901533Y-115672523D01*
X168919875Y-115656943D01*
X168940050Y-115658329D01*
X168967795Y-115675241D01*
X169008846Y-115706235D01*
X169028227Y-115721247D01*
X169057747Y-115744951D01*
X169081780Y-115763550D01*
X169100882Y-115775226D01*
X169115610Y-115778162D01*
X169126521Y-115770538D01*
X169134171Y-115750538D01*
X169139118Y-115716343D01*
X169141916Y-115666135D01*
X169143124Y-115598095D01*
X169143298Y-115510407D01*
X169142994Y-115401252D01*
X169142769Y-115268811D01*
X169142769Y-114741034D01*
X169607326Y-114741034D01*
X169607326Y-114916812D01*
G37*
G36*
X174052012Y-104696545D02*
G01*
X172645784Y-104696545D01*
X172645784Y-104244543D01*
X174052012Y-104244543D01*
X174052012Y-104696545D01*
G37*
G36*
X170134662Y-105663327D02*
G01*
X170537065Y-105663327D01*
X170558547Y-105663325D01*
X170673815Y-105663140D01*
X170767034Y-105662358D01*
X170840829Y-105660564D01*
X170897823Y-105657344D01*
X170940644Y-105652284D01*
X170971915Y-105644968D01*
X170994261Y-105634983D01*
X171010308Y-105621915D01*
X171022681Y-105605347D01*
X171034005Y-105584868D01*
X171039471Y-105572965D01*
X171045738Y-105551637D01*
X171049427Y-105523109D01*
X171050796Y-105482914D01*
X171050104Y-105426587D01*
X171047610Y-105349662D01*
X171046114Y-105312817D01*
X171042853Y-105247761D01*
X171039321Y-105193241D01*
X171035856Y-105154110D01*
X171032792Y-105135224D01*
X171031180Y-105129062D01*
X171035159Y-105122951D01*
X171051009Y-105121390D01*
X171083035Y-105124214D01*
X171135538Y-105131258D01*
X171158543Y-105134524D01*
X171204124Y-105141028D01*
X171236599Y-105145708D01*
X171250088Y-105147720D01*
X171250380Y-105148420D01*
X171251350Y-105165790D01*
X171251805Y-105203663D01*
X171251747Y-105258289D01*
X171251174Y-105325918D01*
X171250088Y-105402798D01*
X171249801Y-105419764D01*
X171248156Y-105502956D01*
X171246191Y-105565808D01*
X171243471Y-105612379D01*
X171239558Y-105646727D01*
X171234016Y-105672912D01*
X171226408Y-105694993D01*
X171216298Y-105717030D01*
X171193112Y-105756000D01*
X171137742Y-105812503D01*
X171063777Y-105852480D01*
X171063162Y-105852711D01*
X171042869Y-105857617D01*
X171009561Y-105861749D01*
X170961223Y-105865196D01*
X170895838Y-105868046D01*
X170811392Y-105870390D01*
X170705866Y-105872314D01*
X170577247Y-105873909D01*
X170134662Y-105878495D01*
X170134662Y-106956555D01*
X169958883Y-106956555D01*
X169958883Y-105876773D01*
X169785834Y-105876773D01*
X169486410Y-106284830D01*
X169186987Y-106692887D01*
X168992101Y-106692887D01*
X168992101Y-104784434D01*
X169167880Y-104784434D01*
X169167880Y-105575438D01*
X169167887Y-105606755D01*
X169168095Y-105743605D01*
X169168572Y-105872287D01*
X169169291Y-105990681D01*
X169170228Y-106096670D01*
X169171358Y-106188137D01*
X169172655Y-106262964D01*
X169174093Y-106319033D01*
X169175649Y-106354227D01*
X169177297Y-106366427D01*
X169184117Y-106359610D01*
X169204385Y-106334672D01*
X169236173Y-106293639D01*
X169277728Y-106238828D01*
X169327299Y-106172552D01*
X169383132Y-106097127D01*
X169443473Y-106014869D01*
X169700233Y-105663327D01*
X169958883Y-105663327D01*
X169958883Y-104520767D01*
X170134662Y-104520767D01*
X170134662Y-105663327D01*
G37*
G36*
X171551973Y-99703915D02*
G01*
X171554979Y-99708066D01*
X171557049Y-99726654D01*
X171540955Y-99752979D01*
X171528451Y-99771390D01*
X171515154Y-99813651D01*
X171525115Y-99850746D01*
X171557923Y-99879621D01*
X171560511Y-99881067D01*
X171594884Y-99908600D01*
X171620321Y-99942115D01*
X171629557Y-99965606D01*
X171634723Y-100019388D01*
X171621735Y-100071677D01*
X171593019Y-100115427D01*
X171550997Y-100143592D01*
X171513549Y-100157692D01*
X171522180Y-100239303D01*
X171527026Y-100279779D01*
X171532012Y-100311869D01*
X171535774Y-100326069D01*
X171544644Y-100324342D01*
X171563774Y-100310375D01*
X171581587Y-100296736D01*
X171605623Y-100291331D01*
X171621113Y-100309269D01*
X171622938Y-100332130D01*
X171605666Y-100366514D01*
X171567228Y-100401653D01*
X171558180Y-100407860D01*
X171522029Y-100425045D01*
X171494392Y-100421199D01*
X171470550Y-100396050D01*
X171464340Y-100383673D01*
X171458851Y-100363801D01*
X171454490Y-100334318D01*
X171451010Y-100292124D01*
X171448159Y-100234119D01*
X171445690Y-100157203D01*
X171443351Y-100058277D01*
X171436849Y-99752090D01*
X171469465Y-99719473D01*
X171498778Y-99695580D01*
X171527800Y-99688270D01*
X171551973Y-99703915D01*
G37*
G36*
X171544506Y-98077309D02*
G01*
X171586090Y-98109872D01*
X171608077Y-98132973D01*
X171625045Y-98157518D01*
X171625024Y-98175694D01*
X171609578Y-98193044D01*
X171599678Y-98199539D01*
X171582970Y-98198445D01*
X171559356Y-98179838D01*
X171528335Y-98150695D01*
X171528196Y-98193689D01*
X171525883Y-98237403D01*
X171520482Y-98282496D01*
X171519124Y-98291057D01*
X171518125Y-98317751D01*
X171529331Y-98334053D01*
X171558287Y-98349844D01*
X171568303Y-98354637D01*
X171593623Y-98367215D01*
X171603857Y-98373087D01*
X171604522Y-98375239D01*
X171611013Y-98393882D01*
X171622140Y-98425018D01*
X171623136Y-98427783D01*
X171635337Y-98463344D01*
X171639340Y-98486526D01*
X171635236Y-98508012D01*
X171623117Y-98538482D01*
X171622985Y-98538797D01*
X171597265Y-98577316D01*
X171560339Y-98608375D01*
X171539818Y-98621875D01*
X171520751Y-98644070D01*
X171515779Y-98673422D01*
X171521577Y-98704388D01*
X171542733Y-98740870D01*
X171553338Y-98752967D01*
X171561995Y-98771705D01*
X171553751Y-98788762D01*
X171548887Y-98794217D01*
X171527988Y-98806410D01*
X171504058Y-98798960D01*
X171472332Y-98770817D01*
X171436743Y-98733669D01*
X171443490Y-98434954D01*
X171445830Y-98347294D01*
X171449671Y-98250144D01*
X171454321Y-98177181D01*
X171459815Y-98127878D01*
X171466190Y-98101711D01*
X171480110Y-98080788D01*
X171508666Y-98067580D01*
X171544506Y-98077309D01*
G37*
G36*
X169803173Y-114944111D02*
G01*
X169860982Y-114870885D01*
X169955828Y-114743347D01*
X170013856Y-114802261D01*
X170042251Y-114832418D01*
X170063686Y-114857900D01*
X170071884Y-114871494D01*
X170069885Y-114876846D01*
X170055237Y-114899782D01*
X170029053Y-114935704D01*
X169994532Y-114980566D01*
X169954872Y-115030324D01*
X169913271Y-115080931D01*
X169872929Y-115128343D01*
X169837043Y-115168515D01*
X169766993Y-115244178D01*
X169867292Y-115347302D01*
X169895612Y-115377444D01*
X169945917Y-115435036D01*
X169992699Y-115493049D01*
X170028629Y-115542614D01*
X170089666Y-115634802D01*
X170112607Y-115567725D01*
X170125987Y-115526420D01*
X170154961Y-115423623D01*
X170184142Y-115303665D01*
X170212420Y-115171890D01*
X170238682Y-115033642D01*
X170261819Y-114894263D01*
X170280720Y-114759097D01*
X170302792Y-114582549D01*
X170387335Y-114633541D01*
X170416610Y-114651754D01*
X170449115Y-114675276D01*
X170464720Y-114693432D01*
X170467005Y-114709645D01*
X170464262Y-114725643D01*
X170458322Y-114763217D01*
X170450511Y-114814382D01*
X170441797Y-114872867D01*
X170409114Y-115068402D01*
X170337281Y-115390676D01*
X170245230Y-115699258D01*
X170194961Y-115847646D01*
X170240047Y-115983369D01*
X170257292Y-116036999D01*
X170319097Y-116265678D01*
X170367736Y-116512463D01*
X170403592Y-116779218D01*
X170409758Y-116834907D01*
X170414047Y-116882948D01*
X170412710Y-116916173D01*
X170403337Y-116940170D01*
X170383517Y-116960526D01*
X170350841Y-116982828D01*
X170302898Y-117012665D01*
X170226299Y-117060852D01*
X170218824Y-116858308D01*
X170215063Y-116777861D01*
X170189717Y-116506136D01*
X170145257Y-116248564D01*
X170143605Y-116240884D01*
X170128168Y-116169643D01*
X170116036Y-116121641D01*
X170104847Y-116095800D01*
X170092239Y-116091044D01*
X170075848Y-116106297D01*
X170053314Y-116140483D01*
X170022274Y-116192524D01*
X169970558Y-116274100D01*
X169910250Y-116359847D01*
X169847658Y-116440928D01*
X169787345Y-116511441D01*
X169733874Y-116565485D01*
X169709183Y-116586706D01*
X169682194Y-116603306D01*
X169651846Y-116610353D01*
X169607290Y-116611820D01*
X169531993Y-116611820D01*
X169531993Y-116046817D01*
X169531981Y-116001806D01*
X169531752Y-115869860D01*
X169531155Y-115760697D01*
X169531045Y-115751595D01*
X169682530Y-115751595D01*
X169682660Y-115879338D01*
X169682660Y-116353078D01*
X169727652Y-116309809D01*
X169736043Y-116301369D01*
X169776023Y-116254095D01*
X169821867Y-116190955D01*
X169869870Y-116117549D01*
X169916327Y-116039479D01*
X169957531Y-115962345D01*
X169968794Y-115939387D01*
X169989466Y-115894814D01*
X170003765Y-115860535D01*
X170009106Y-115842552D01*
X170003156Y-115822075D01*
X169984907Y-115784738D01*
X169957246Y-115736323D01*
X169923114Y-115681537D01*
X169885455Y-115625087D01*
X169847207Y-115571679D01*
X169811314Y-115526021D01*
X169786722Y-115496372D01*
X169758767Y-115462715D01*
X169736292Y-115437861D01*
X169718704Y-115423441D01*
X169705408Y-115421084D01*
X169695811Y-115432423D01*
X169689319Y-115459086D01*
X169685338Y-115502704D01*
X169683276Y-115564908D01*
X169682538Y-115647328D01*
X169682530Y-115751595D01*
X169531045Y-115751595D01*
X169530089Y-115672532D01*
X169528455Y-115603580D01*
X169526155Y-115552059D01*
X169523088Y-115516183D01*
X169519156Y-115494169D01*
X169514258Y-115484232D01*
X169508296Y-115484588D01*
X169501170Y-115493453D01*
X169496272Y-115499245D01*
X169475390Y-115518675D01*
X169445659Y-115543360D01*
X169397341Y-115581629D01*
X169359475Y-115495898D01*
X169321608Y-115410166D01*
X169404828Y-115346692D01*
X169438046Y-115319967D01*
X169505485Y-115259907D01*
X169580437Y-115187369D01*
X169658181Y-115107275D01*
X169705408Y-115055746D01*
X169734000Y-115024549D01*
X169803173Y-114944111D01*
G37*
G36*
X173275594Y-99073762D02*
G01*
X173286120Y-99083012D01*
X173281030Y-99088529D01*
X173261009Y-99087825D01*
X173246250Y-99083040D01*
X173235898Y-99076445D01*
X173240571Y-99073657D01*
X173261009Y-99071632D01*
X173275594Y-99073762D01*
G37*
G36*
X171090898Y-98069972D02*
G01*
X171097573Y-98091553D01*
X171105185Y-98129836D01*
X171112530Y-98179244D01*
X171113753Y-98188096D01*
X171124351Y-98246339D01*
X171140545Y-98318482D01*
X171160359Y-98396199D01*
X171181816Y-98471162D01*
X171203748Y-98546275D01*
X171224515Y-98629926D01*
X171235716Y-98696642D01*
X171237873Y-98749801D01*
X171231508Y-98792783D01*
X171221687Y-98813536D01*
X171207073Y-98813837D01*
X171187378Y-98791074D01*
X171161783Y-98744679D01*
X171139444Y-98693790D01*
X171106723Y-98595249D01*
X171082021Y-98488674D01*
X171068071Y-98384575D01*
X171067895Y-98382235D01*
X171065684Y-98330151D01*
X171065745Y-98271676D01*
X171067741Y-98212059D01*
X171071338Y-98156551D01*
X171076200Y-98110402D01*
X171081990Y-98078863D01*
X171088373Y-98067183D01*
X171090898Y-98069972D01*
G37*
G36*
X173248453Y-99529911D02*
G01*
X173242175Y-99536189D01*
X173235898Y-99529911D01*
X173242175Y-99523634D01*
X173248453Y-99529911D01*
G37*
G36*
X172812146Y-102160750D02*
G01*
X172927165Y-102160917D01*
X173065132Y-102161444D01*
X173181543Y-102162360D01*
X173278453Y-102163717D01*
X173357921Y-102165566D01*
X173422002Y-102167959D01*
X173472753Y-102170945D01*
X173512232Y-102174577D01*
X173542496Y-102178906D01*
X173543563Y-102179097D01*
X173666402Y-102212724D01*
X173774568Y-102266451D01*
X173867500Y-102339611D01*
X173944634Y-102431534D01*
X174005410Y-102541553D01*
X174049265Y-102668999D01*
X174075639Y-102813204D01*
X174077061Y-102826032D01*
X174086329Y-103010986D01*
X174073294Y-103184494D01*
X174037961Y-103346500D01*
X174019215Y-103404278D01*
X173984327Y-103486122D01*
X173940829Y-103556985D01*
X173883843Y-103625703D01*
X173845511Y-103664087D01*
X173773535Y-103719631D01*
X173691683Y-103761146D01*
X173592660Y-103792816D01*
X173578713Y-103796273D01*
X173555764Y-103801256D01*
X173530904Y-103805403D01*
X173501814Y-103808789D01*
X173466173Y-103811490D01*
X173421662Y-103813583D01*
X173365960Y-103815145D01*
X173296748Y-103816251D01*
X173211704Y-103816979D01*
X173108509Y-103817404D01*
X172984844Y-103817603D01*
X172838387Y-103817652D01*
X172181226Y-103817652D01*
X172181226Y-103341582D01*
X172843535Y-103337922D01*
X173505843Y-103334261D01*
X173577123Y-103300847D01*
X173630330Y-103269440D01*
X173681862Y-103217615D01*
X173716024Y-103150871D01*
X173733656Y-103067433D01*
X173735598Y-102965522D01*
X173731920Y-102920411D01*
X173713452Y-102833184D01*
X173679547Y-102764596D01*
X173628544Y-102712693D01*
X173558786Y-102675520D01*
X173468611Y-102651124D01*
X173438079Y-102647764D01*
X173382651Y-102644705D01*
X173304451Y-102642149D01*
X173204676Y-102640118D01*
X173084523Y-102638638D01*
X172945188Y-102637732D01*
X172787868Y-102637425D01*
X172181226Y-102637425D01*
X172181226Y-102160312D01*
X172812146Y-102160750D01*
G37*
G36*
X170724776Y-102310979D02*
G01*
X170548997Y-102310979D01*
X170548997Y-103010343D01*
X170746748Y-103017923D01*
X170782246Y-103019491D01*
X170852266Y-103023774D01*
X170914196Y-103029069D01*
X170962363Y-103034849D01*
X170991096Y-103040589D01*
X171043293Y-103063921D01*
X171103646Y-103113634D01*
X171148396Y-103182227D01*
X171176614Y-103268561D01*
X171177910Y-103277778D01*
X171180365Y-103313996D01*
X171182399Y-103370131D01*
X171183948Y-103442666D01*
X171184946Y-103528082D01*
X171185329Y-103622861D01*
X171185031Y-103723485D01*
X171184814Y-103756451D01*
X171183863Y-103869821D01*
X171182369Y-103961732D01*
X171179838Y-104035091D01*
X171175777Y-104092802D01*
X171169691Y-104137772D01*
X171161086Y-104172906D01*
X171149470Y-104201110D01*
X171134347Y-104225290D01*
X171115225Y-104248350D01*
X171091610Y-104273198D01*
X171061196Y-104299252D01*
X171015375Y-104325576D01*
X170955341Y-104348405D01*
X170877461Y-104369077D01*
X170778107Y-104388934D01*
X170758321Y-104392485D01*
X170707188Y-104401801D01*
X170665780Y-104409533D01*
X170641598Y-104414288D01*
X170637774Y-104414973D01*
X170624222Y-104413105D01*
X170612234Y-104400370D01*
X170598850Y-104372383D01*
X170581106Y-104324759D01*
X170576333Y-104311162D01*
X170562255Y-104268870D01*
X170553318Y-104238463D01*
X170551283Y-104225782D01*
X170563294Y-104222880D01*
X170595434Y-104217244D01*
X170642580Y-104209785D01*
X170699664Y-104201340D01*
X170781578Y-104187543D01*
X170857653Y-104168474D01*
X170913998Y-104145238D01*
X170953490Y-104116599D01*
X170979007Y-104081320D01*
X170979081Y-104081173D01*
X170985562Y-104065724D01*
X170990638Y-104046418D01*
X170994473Y-104020217D01*
X170997231Y-103984086D01*
X170999078Y-103934989D01*
X171000178Y-103869889D01*
X171000695Y-103785752D01*
X171000794Y-103679541D01*
X171000729Y-103613223D01*
X171000258Y-103514663D01*
X170998927Y-103436822D01*
X170996259Y-103376899D01*
X170991777Y-103332092D01*
X170985005Y-103299602D01*
X170975466Y-103276626D01*
X170962686Y-103260366D01*
X170946186Y-103248019D01*
X170925491Y-103236785D01*
X170904886Y-103228109D01*
X170877774Y-103221698D01*
X170841123Y-103218182D01*
X170789756Y-103217090D01*
X170718498Y-103217952D01*
X170555275Y-103221261D01*
X170551979Y-103676402D01*
X170548684Y-104131543D01*
X169180435Y-104131543D01*
X169180435Y-103930653D01*
X169355823Y-103930653D01*
X169783105Y-103930653D01*
X169958883Y-103930653D01*
X170373218Y-103930653D01*
X170373218Y-103214983D01*
X169958883Y-103214983D01*
X169958883Y-103930653D01*
X169783105Y-103930653D01*
X169783105Y-103214376D01*
X169572798Y-103217818D01*
X169362492Y-103221261D01*
X169359157Y-103575957D01*
X169355823Y-103930653D01*
X169180435Y-103930653D01*
X169180435Y-103214983D01*
X168866545Y-103214983D01*
X168866545Y-103014093D01*
X169180435Y-103014093D01*
X169356214Y-103014093D01*
X169783105Y-103014093D01*
X169958883Y-103014093D01*
X170373218Y-103014093D01*
X170373218Y-102310979D01*
X169958883Y-102310979D01*
X169958883Y-103014093D01*
X169783105Y-103014093D01*
X169783105Y-102310979D01*
X169356214Y-102310979D01*
X169356214Y-103014093D01*
X169180435Y-103014093D01*
X169180435Y-102110089D01*
X170724776Y-102110089D01*
X170724776Y-102310979D01*
G37*
G36*
X173529270Y-111393435D02*
G01*
X173655308Y-111429192D01*
X173767268Y-111485273D01*
X173864381Y-111561031D01*
X173945882Y-111655816D01*
X174011000Y-111768981D01*
X174058970Y-111899877D01*
X174089022Y-112047855D01*
X174096893Y-112153952D01*
X174093329Y-112281024D01*
X174077764Y-112409384D01*
X174051236Y-112530775D01*
X174014788Y-112636937D01*
X173990127Y-112694469D01*
X173801346Y-112694469D01*
X173749323Y-112694435D01*
X173691958Y-112693994D01*
X173653407Y-112692584D01*
X173629931Y-112689642D01*
X173617791Y-112684602D01*
X173613249Y-112676900D01*
X173612566Y-112665972D01*
X173612637Y-112664446D01*
X173621256Y-112639328D01*
X173641448Y-112602863D01*
X173669200Y-112562388D01*
X173677396Y-112551186D01*
X173726157Y-112465930D01*
X173758832Y-112373144D01*
X173775355Y-112277239D01*
X173775656Y-112182627D01*
X173759670Y-112093718D01*
X173727329Y-112014924D01*
X173678564Y-111950657D01*
X173673442Y-111945720D01*
X173624970Y-111905322D01*
X173574553Y-111877065D01*
X173516520Y-111859131D01*
X173445197Y-111849704D01*
X173354912Y-111846965D01*
X173306447Y-111847109D01*
X173255383Y-111848371D01*
X173217918Y-111851943D01*
X173187334Y-111859006D01*
X173156915Y-111870743D01*
X173119941Y-111888338D01*
X173063687Y-111920540D01*
X172999463Y-111975865D01*
X172955437Y-112043180D01*
X172930116Y-112125016D01*
X172922007Y-112223905D01*
X172926332Y-112285697D01*
X172945963Y-112376303D01*
X172978836Y-112463742D01*
X173022079Y-112540842D01*
X173072818Y-112600432D01*
X173089109Y-112623840D01*
X173097786Y-112658748D01*
X173097786Y-112694469D01*
X172710366Y-112694469D01*
X172683190Y-112622274D01*
X172669655Y-112585404D01*
X172638630Y-112488430D01*
X172618669Y-112399276D01*
X172607904Y-112308035D01*
X172604466Y-112204800D01*
X172604967Y-112150755D01*
X172612075Y-112038489D01*
X172628673Y-111940075D01*
X172656213Y-111848412D01*
X172696146Y-111756402D01*
X172746036Y-111669733D01*
X172825455Y-111572530D01*
X172920309Y-111495051D01*
X173030718Y-111437221D01*
X173156801Y-111398967D01*
X173298676Y-111380214D01*
X173389921Y-111378653D01*
X173529270Y-111393435D01*
G37*
G36*
X173116988Y-99650096D02*
G01*
X173118712Y-99657560D01*
X173116872Y-99659063D01*
X173101971Y-99657560D01*
X173100007Y-99653784D01*
X173110342Y-99649190D01*
X173116988Y-99650096D01*
G37*
G36*
X173210786Y-99485967D02*
G01*
X173209880Y-99492614D01*
X173202416Y-99494337D01*
X173200913Y-99492497D01*
X173202416Y-99477596D01*
X173206193Y-99475632D01*
X173210786Y-99485967D01*
G37*
G36*
X173135453Y-98801686D02*
G01*
X173129175Y-98807964D01*
X173122897Y-98801686D01*
X173129175Y-98795408D01*
X173135453Y-98801686D01*
G37*
G36*
X173286120Y-99429467D02*
G01*
X173279842Y-99435744D01*
X173273564Y-99429467D01*
X173279842Y-99423189D01*
X173286120Y-99429467D01*
G37*
G36*
X169027428Y-111137915D02*
G01*
X169041304Y-111150505D01*
X169066754Y-111178549D01*
X169100543Y-111218365D01*
X169139437Y-111266268D01*
X169182247Y-111319438D01*
X169227496Y-111374507D01*
X169268034Y-111422768D01*
X169298475Y-111457741D01*
X169326851Y-111490324D01*
X169347545Y-111516253D01*
X169355651Y-111529433D01*
X169355041Y-111531578D01*
X169342437Y-111547849D01*
X169317941Y-111573298D01*
X169287358Y-111602513D01*
X169256491Y-111630081D01*
X169231143Y-111650592D01*
X169217117Y-111658631D01*
X169206670Y-111650670D01*
X169183659Y-111625996D01*
X169151450Y-111588264D01*
X169113034Y-111541203D01*
X169071401Y-111488544D01*
X169029542Y-111434018D01*
X168990447Y-111381354D01*
X168957105Y-111334283D01*
X168898357Y-111248491D01*
X168957054Y-111193032D01*
X168986392Y-111166540D01*
X169012397Y-111145598D01*
X169026381Y-111137573D01*
X169027428Y-111137915D01*
G37*
G36*
X173209795Y-99440976D02*
G01*
X173208907Y-99453711D01*
X173203201Y-99457455D01*
X173200713Y-99453013D01*
X173202210Y-99433390D01*
X173206729Y-99427579D01*
X173209795Y-99440976D01*
G37*
G36*
X173210786Y-99617801D02*
G01*
X173204509Y-99624079D01*
X173198231Y-99617801D01*
X173204509Y-99611523D01*
X173210786Y-99617801D01*
G37*
G36*
X173181116Y-108289965D02*
G01*
X173282679Y-108296685D01*
X173374519Y-108308298D01*
X173449138Y-108324561D01*
X173460510Y-108327952D01*
X173598656Y-108382572D01*
X173722357Y-108456917D01*
X173830200Y-108549313D01*
X173920771Y-108658084D01*
X173992656Y-108781555D01*
X174044442Y-108918051D01*
X174074714Y-109065898D01*
X174083863Y-109152887D01*
X174087393Y-109231991D01*
X174084698Y-109309944D01*
X174075818Y-109398621D01*
X174064170Y-109474399D01*
X174024990Y-109624141D01*
X173966557Y-109758092D01*
X173889316Y-109875740D01*
X173793714Y-109976575D01*
X173680195Y-110060084D01*
X173549205Y-110125757D01*
X173401190Y-110173082D01*
X173382521Y-110177324D01*
X173279405Y-110193057D01*
X173163492Y-110200423D01*
X173043814Y-110199433D01*
X172929402Y-110190097D01*
X172829286Y-110172426D01*
X172805698Y-110166420D01*
X172662266Y-110116502D01*
X172534487Y-110047849D01*
X172423383Y-109961386D01*
X172329980Y-109858038D01*
X172255300Y-109738729D01*
X172200367Y-109604384D01*
X172178855Y-109525207D01*
X172155192Y-109380955D01*
X172149555Y-109254781D01*
X172496670Y-109254781D01*
X172497865Y-109306761D01*
X172505392Y-109350644D01*
X172520706Y-109397602D01*
X172521317Y-109399213D01*
X172567180Y-109486506D01*
X172633290Y-109560327D01*
X172720296Y-109621248D01*
X172828844Y-109669841D01*
X172840013Y-109673504D01*
X172901343Y-109687240D01*
X172978769Y-109697373D01*
X173065134Y-109703535D01*
X173153281Y-109705355D01*
X173236054Y-109702465D01*
X173306297Y-109694493D01*
X173317052Y-109692544D01*
X173424641Y-109662270D01*
X173521094Y-109615588D01*
X173603164Y-109554855D01*
X173667605Y-109482425D01*
X173711172Y-109400654D01*
X173728140Y-109341436D01*
X173737645Y-109246502D01*
X173728470Y-109150944D01*
X173701469Y-109061389D01*
X173657497Y-108984463D01*
X173625615Y-108947625D01*
X173546112Y-108883360D01*
X173448518Y-108833872D01*
X173334778Y-108799834D01*
X173206838Y-108781914D01*
X173066643Y-108780785D01*
X173036533Y-108782666D01*
X172899741Y-108801044D01*
X172782633Y-108834464D01*
X172685369Y-108882802D01*
X172608111Y-108945934D01*
X172551016Y-109023734D01*
X172514247Y-109116078D01*
X172497962Y-109222843D01*
X172496670Y-109254781D01*
X172149555Y-109254781D01*
X172148557Y-109232452D01*
X172158505Y-109084606D01*
X172184587Y-108942327D01*
X172226355Y-108810523D01*
X172283363Y-108694103D01*
X172291645Y-108680682D01*
X172373696Y-108573936D01*
X172474872Y-108481555D01*
X172592893Y-108405049D01*
X172725477Y-108345929D01*
X172870343Y-108305703D01*
X172893092Y-108301612D01*
X172978823Y-108292184D01*
X173066643Y-108288795D01*
X173077331Y-108288383D01*
X173181116Y-108289965D01*
G37*
G36*
X170250893Y-107038309D02*
G01*
X170256212Y-107038840D01*
X170300436Y-107043933D01*
X170333126Y-107048855D01*
X170347541Y-107052610D01*
X170347506Y-107056106D01*
X170342336Y-107078472D01*
X170331617Y-107116922D01*
X170316952Y-107166237D01*
X170299942Y-107221197D01*
X170282189Y-107276582D01*
X170265292Y-107327174D01*
X170250855Y-107367751D01*
X170250667Y-107368707D01*
X170256037Y-107373162D01*
X170273676Y-107376682D01*
X170305724Y-107379359D01*
X170354320Y-107381283D01*
X170421604Y-107382545D01*
X170509717Y-107383236D01*
X170620799Y-107383446D01*
X170996622Y-107383446D01*
X171025412Y-107352800D01*
X171027122Y-107350966D01*
X171039568Y-107335421D01*
X171047128Y-107317756D01*
X171050661Y-107292236D01*
X171051026Y-107253122D01*
X171049082Y-107194676D01*
X171043961Y-107067197D01*
X171125113Y-107075888D01*
X171165234Y-107080729D01*
X171202328Y-107086366D01*
X171222910Y-107090966D01*
X171224573Y-107091838D01*
X171231652Y-107104108D01*
X171236276Y-107131702D01*
X171238794Y-107177870D01*
X171239556Y-107245860D01*
X171239513Y-107263143D01*
X171237718Y-107337588D01*
X171232490Y-107392968D01*
X171222745Y-107434261D01*
X171207395Y-107466446D01*
X171185358Y-107494500D01*
X171172328Y-107508290D01*
X171156028Y-107523632D01*
X171138385Y-107535992D01*
X171116757Y-107545739D01*
X171088504Y-107553241D01*
X171050986Y-107558869D01*
X171001561Y-107562989D01*
X170937590Y-107565972D01*
X170856432Y-107568185D01*
X170755446Y-107569998D01*
X170631991Y-107571780D01*
X170181372Y-107578058D01*
X170138784Y-107713031D01*
X170096195Y-107848003D01*
X169910695Y-107848003D01*
X169942231Y-107745313D01*
X169946770Y-107730606D01*
X169962585Y-107680359D01*
X169976230Y-107638423D01*
X169985159Y-107612662D01*
X169992583Y-107591809D01*
X169996550Y-107577240D01*
X169996498Y-107577126D01*
X169983095Y-107575437D01*
X169948687Y-107573969D01*
X169897130Y-107572812D01*
X169832280Y-107572053D01*
X169757994Y-107571780D01*
X169519437Y-107571780D01*
X169519437Y-107860559D01*
X169356214Y-107860559D01*
X169356214Y-107571780D01*
X168866545Y-107571780D01*
X168866545Y-107383446D01*
X169356214Y-107383446D01*
X169356214Y-107057000D01*
X169519437Y-107057000D01*
X169519437Y-107383446D01*
X170055898Y-107383446D01*
X170102213Y-107223362D01*
X170105530Y-107211904D01*
X170122910Y-107152102D01*
X170137818Y-107101182D01*
X170148760Y-107064227D01*
X170154242Y-107046318D01*
X170157221Y-107041369D01*
X170171650Y-107035391D01*
X170201285Y-107034502D01*
X170250893Y-107038309D01*
G37*
G36*
X173882881Y-98231312D02*
G01*
X173884604Y-98238776D01*
X173882764Y-98240279D01*
X173867863Y-98238776D01*
X173865899Y-98235000D01*
X173876234Y-98230406D01*
X173882881Y-98231312D01*
G37*
G36*
X170435997Y-113046026D02*
G01*
X170235107Y-113046026D01*
X170235107Y-113498028D01*
X170398330Y-113498028D01*
X170398330Y-113672608D01*
X170319857Y-113676346D01*
X170241385Y-113680084D01*
X170237962Y-113909224D01*
X170234540Y-114138364D01*
X170385774Y-114138364D01*
X170385774Y-114314143D01*
X169456659Y-114314143D01*
X169456659Y-114138364D01*
X169607326Y-114138364D01*
X169783105Y-114138364D01*
X169920650Y-114138364D01*
X170096995Y-114138364D01*
X170096995Y-113672659D01*
X170012245Y-113676372D01*
X169927494Y-113680084D01*
X169920650Y-114138364D01*
X169783105Y-114138364D01*
X169783105Y-113673807D01*
X169607326Y-113673807D01*
X169607326Y-114138364D01*
X169456659Y-114138364D01*
X169456659Y-113673807D01*
X169293436Y-113673807D01*
X169293436Y-114464810D01*
X169142769Y-114464810D01*
X169142769Y-113673807D01*
X168853990Y-113673807D01*
X168853990Y-113498028D01*
X169142769Y-113498028D01*
X169142769Y-112744691D01*
X169293436Y-112744691D01*
X169293436Y-113498028D01*
X169456659Y-113498028D01*
X169607326Y-113498028D01*
X169783105Y-113498028D01*
X169921216Y-113498028D01*
X170096995Y-113498028D01*
X170096995Y-113046026D01*
X169921216Y-113046026D01*
X169921216Y-113498028D01*
X169783105Y-113498028D01*
X169783105Y-113046026D01*
X169607326Y-113046026D01*
X169607326Y-113498028D01*
X169456659Y-113498028D01*
X169456659Y-112870248D01*
X170435997Y-112870248D01*
X170435997Y-113046026D01*
G37*
G36*
X172389759Y-98575991D02*
G01*
X172417623Y-98582587D01*
X172440299Y-98599640D01*
X172458659Y-98629592D01*
X172473576Y-98674886D01*
X172485923Y-98737964D01*
X172496573Y-98821269D01*
X172506399Y-98927242D01*
X172509007Y-98962168D01*
X172514796Y-99081696D01*
X172517055Y-99211453D01*
X172515953Y-99345571D01*
X172511655Y-99478180D01*
X172504330Y-99603412D01*
X172494145Y-99715398D01*
X172481268Y-99808269D01*
X172467113Y-99863719D01*
X172441997Y-99907790D01*
X172406068Y-99931130D01*
X172357674Y-99935441D01*
X172332816Y-99931955D01*
X172316789Y-99921878D01*
X172313060Y-99900302D01*
X172313066Y-99899139D01*
X172320013Y-99874427D01*
X172344449Y-99864571D01*
X172367071Y-99859338D01*
X172389942Y-99848659D01*
X172397171Y-99839524D01*
X172410503Y-99803958D01*
X172422175Y-99747942D01*
X172432059Y-99674560D01*
X172440030Y-99586894D01*
X172445961Y-99488026D01*
X172449725Y-99381039D01*
X172451197Y-99269014D01*
X172450250Y-99155035D01*
X172446757Y-99042183D01*
X172440593Y-98933541D01*
X172431629Y-98832191D01*
X172423511Y-98766850D01*
X172412873Y-98710379D01*
X172399854Y-98672591D01*
X172383197Y-98650014D01*
X172361642Y-98639173D01*
X172361336Y-98639096D01*
X172337953Y-98626856D01*
X172334217Y-98603491D01*
X172336941Y-98592080D01*
X172350378Y-98579024D01*
X172380761Y-98575685D01*
X172389759Y-98575991D01*
G37*
G36*
X172520228Y-107207667D02*
G01*
X173713011Y-107207667D01*
X173713011Y-106906333D01*
X174052012Y-106906333D01*
X174052012Y-107986115D01*
X173713011Y-107986115D01*
X173713011Y-107684780D01*
X172520228Y-107684780D01*
X172520228Y-107986115D01*
X172181226Y-107986115D01*
X172181226Y-106906333D01*
X172520228Y-106906333D01*
X172520228Y-107207667D01*
G37*
G36*
X171230901Y-99708829D02*
G01*
X171232977Y-99717794D01*
X171237897Y-99779928D01*
X171231185Y-99851046D01*
X171213721Y-99920309D01*
X171196586Y-99972775D01*
X171173246Y-100053130D01*
X171150867Y-100138987D01*
X171131234Y-100223027D01*
X171116131Y-100297934D01*
X171107343Y-100356390D01*
X171106513Y-100364052D01*
X171100183Y-100407504D01*
X171093144Y-100428272D01*
X171084725Y-100428497D01*
X171079046Y-100410417D01*
X171074636Y-100369590D01*
X171071761Y-100308565D01*
X171070595Y-100229799D01*
X171070586Y-100225840D01*
X171072922Y-100114662D01*
X171081229Y-100020793D01*
X171096824Y-99937090D01*
X171121027Y-99856410D01*
X171155155Y-99771607D01*
X171156080Y-99769529D01*
X171181564Y-99719569D01*
X171202943Y-99692456D01*
X171219596Y-99688704D01*
X171230901Y-99708829D01*
G37*
G36*
X169043698Y-114005356D02*
G01*
X169045309Y-114008546D01*
X169072244Y-114062750D01*
X169094500Y-114109144D01*
X169109807Y-114142888D01*
X169115893Y-114159144D01*
X169113480Y-114166025D01*
X169095668Y-114183363D01*
X169067008Y-114202927D01*
X169035149Y-114220285D01*
X169007743Y-114231004D01*
X168992441Y-114230654D01*
X168984223Y-114217118D01*
X168968303Y-114185302D01*
X168947836Y-114141548D01*
X168925372Y-114091628D01*
X168903460Y-114041313D01*
X168884652Y-113996375D01*
X168871497Y-113962587D01*
X168866545Y-113945719D01*
X168869768Y-113938705D01*
X168889036Y-113919996D01*
X168919907Y-113898491D01*
X168973268Y-113866069D01*
X169043698Y-114005356D01*
G37*
G36*
X173210786Y-99040243D02*
G01*
X173204509Y-99046520D01*
X173198231Y-99040243D01*
X173204509Y-99033965D01*
X173210786Y-99040243D01*
G37*
G36*
X172083868Y-99135103D02*
G01*
X172116425Y-99180581D01*
X172121792Y-99191787D01*
X172132997Y-99223433D01*
X172134486Y-99243889D01*
X172131530Y-99249230D01*
X172112099Y-99259292D01*
X172088315Y-99255167D01*
X172072201Y-99237994D01*
X172065064Y-99222672D01*
X172046391Y-99194991D01*
X172041925Y-99190008D01*
X172028495Y-99180988D01*
X172009473Y-99182197D01*
X171976105Y-99193441D01*
X171965648Y-99196803D01*
X171917784Y-99205999D01*
X171856886Y-99211831D01*
X171792113Y-99213919D01*
X171732625Y-99211885D01*
X171687584Y-99205353D01*
X171662856Y-99194220D01*
X171656326Y-99174767D01*
X171660655Y-99165987D01*
X171673600Y-99158839D01*
X171699140Y-99153634D01*
X171741446Y-99149556D01*
X171804689Y-99145792D01*
X171855447Y-99142302D01*
X171913423Y-99136187D01*
X171960216Y-99128913D01*
X171988868Y-99121401D01*
X172000466Y-99117088D01*
X172045267Y-99113962D01*
X172083868Y-99135103D01*
G37*
G36*
X173857769Y-100240210D02*
G01*
X173859493Y-100247674D01*
X173857653Y-100249177D01*
X173842752Y-100247674D01*
X173840788Y-100243897D01*
X173851123Y-100239303D01*
X173857769Y-100240210D01*
G37*
G36*
X173214544Y-99519933D02*
G01*
X173223342Y-99530652D01*
X173223016Y-99531905D01*
X173210786Y-99536189D01*
X173207345Y-99535678D01*
X173198231Y-99522893D01*
X173199217Y-99518351D01*
X173210786Y-99517356D01*
X173214544Y-99519933D01*
G37*
G36*
X170031078Y-108124941D02*
G01*
X170049128Y-108130192D01*
X170121201Y-108154319D01*
X170204010Y-108185664D01*
X170288841Y-108220674D01*
X170366982Y-108255796D01*
X170429719Y-108287478D01*
X170474591Y-108313586D01*
X170554925Y-108364903D01*
X170641730Y-108424944D01*
X170727643Y-108488735D01*
X170761899Y-108515149D01*
X170829746Y-108410716D01*
X170853714Y-108372639D01*
X170916282Y-108263557D01*
X170978311Y-108143002D01*
X171035183Y-108020232D01*
X171082280Y-107904504D01*
X171097673Y-107863511D01*
X171114745Y-107818894D01*
X171127035Y-107787789D01*
X171132589Y-107775220D01*
X171133920Y-107775305D01*
X171149699Y-107784290D01*
X171179028Y-107804205D01*
X171216934Y-107831720D01*
X171297765Y-107891948D01*
X171256377Y-107989730D01*
X171223084Y-108064964D01*
X171148843Y-108215885D01*
X171066202Y-108365752D01*
X170981508Y-108502721D01*
X170972241Y-108516777D01*
X170939198Y-108567346D01*
X170912448Y-108608989D01*
X170894535Y-108637713D01*
X170887998Y-108649528D01*
X170888722Y-108651319D01*
X170899616Y-108668436D01*
X170920875Y-108699001D01*
X170948981Y-108737916D01*
X170968081Y-108764317D01*
X171067260Y-108914801D01*
X171158302Y-109077711D01*
X171244802Y-109259381D01*
X171274366Y-109326231D01*
X171184213Y-109401465D01*
X171094061Y-109476699D01*
X171052859Y-109356049D01*
X171045762Y-109335737D01*
X171019531Y-109265664D01*
X170990653Y-109194170D01*
X170964197Y-109133948D01*
X170947256Y-109099510D01*
X170917191Y-109043309D01*
X170883243Y-108983929D01*
X170848512Y-108926459D01*
X170816100Y-108875984D01*
X170789108Y-108837594D01*
X170770637Y-108816376D01*
X170760486Y-108813944D01*
X170740001Y-108822668D01*
X170707878Y-108845910D01*
X170661252Y-108885477D01*
X170638180Y-108905417D01*
X170543332Y-108980454D01*
X170441277Y-109051662D01*
X170335665Y-109117137D01*
X170230144Y-109174976D01*
X170128365Y-109223274D01*
X170033977Y-109260130D01*
X169950629Y-109283639D01*
X169881972Y-109291899D01*
X169808216Y-109291899D01*
X169808216Y-108764563D01*
X169431548Y-108764563D01*
X169431548Y-109430010D01*
X169255769Y-109430010D01*
X169255769Y-108764563D01*
X168853990Y-108764563D01*
X168853990Y-108576229D01*
X169255769Y-108576229D01*
X169255769Y-107935893D01*
X169431548Y-107935893D01*
X169431548Y-108576229D01*
X169808216Y-108576229D01*
X169808216Y-108288651D01*
X169971439Y-108288651D01*
X169971439Y-109080145D01*
X169999689Y-109071795D01*
X170011782Y-109067995D01*
X170072246Y-109044825D01*
X170144417Y-109012267D01*
X170220907Y-108973976D01*
X170294329Y-108933609D01*
X170357295Y-108894821D01*
X170378325Y-108880427D01*
X170440398Y-108834528D01*
X170502464Y-108784588D01*
X170553780Y-108739119D01*
X170640399Y-108656520D01*
X170560170Y-108593388D01*
X170556069Y-108590167D01*
X170425860Y-108495426D01*
X170298919Y-108419094D01*
X170167735Y-108357135D01*
X170024800Y-108305509D01*
X169971439Y-108288651D01*
X169808216Y-108288651D01*
X169808216Y-107935893D01*
X169971439Y-107935893D01*
X169971439Y-108108408D01*
X170031078Y-108124941D01*
G37*
G36*
X173286120Y-99391800D02*
G01*
X173279842Y-99398078D01*
X173273564Y-99391800D01*
X173279842Y-99385522D01*
X173286120Y-99391800D01*
G37*
G36*
X173505330Y-112908405D02*
G01*
X173637173Y-112941063D01*
X173754577Y-112993440D01*
X173856562Y-113064710D01*
X173942150Y-113154046D01*
X174010361Y-113260622D01*
X174060216Y-113383613D01*
X174090736Y-113522193D01*
X174090967Y-113523862D01*
X174095881Y-113590453D01*
X174095746Y-113671884D01*
X174091059Y-113758789D01*
X174082318Y-113841800D01*
X174070022Y-113911552D01*
X174039575Y-114010377D01*
X173982708Y-114123054D01*
X173906524Y-114220532D01*
X173812215Y-114301615D01*
X173700973Y-114365105D01*
X173573992Y-114409802D01*
X173538986Y-114417208D01*
X173460261Y-114426633D01*
X173370590Y-114430580D01*
X173278763Y-114429053D01*
X173193571Y-114422056D01*
X173123804Y-114409593D01*
X173023147Y-114376612D01*
X172908187Y-114317333D01*
X172810174Y-114239783D01*
X172729872Y-114144739D01*
X172668052Y-114032977D01*
X172625479Y-113905274D01*
X172617835Y-113866770D01*
X172608213Y-113782898D01*
X172604118Y-113688573D01*
X172604486Y-113663987D01*
X172909728Y-113663987D01*
X172912395Y-113712130D01*
X172930857Y-113787726D01*
X172968317Y-113849120D01*
X173026469Y-113898669D01*
X173107007Y-113938732D01*
X173111371Y-113940422D01*
X173145244Y-113951933D01*
X173179839Y-113959700D01*
X173221251Y-113964457D01*
X173275572Y-113966940D01*
X173348898Y-113967881D01*
X173375888Y-113967932D01*
X173448649Y-113966761D01*
X173503533Y-113963166D01*
X173546016Y-113956651D01*
X173581575Y-113946717D01*
X173597211Y-113940845D01*
X173668019Y-113902615D01*
X173725804Y-113851992D01*
X173764579Y-113793973D01*
X173773905Y-113770487D01*
X173788882Y-113694765D01*
X173784785Y-113617233D01*
X173763081Y-113543685D01*
X173725239Y-113479914D01*
X173672728Y-113431711D01*
X173648265Y-113416668D01*
X173605546Y-113395539D01*
X173559729Y-113381039D01*
X173505335Y-113372057D01*
X173436884Y-113367488D01*
X173348898Y-113366222D01*
X173304590Y-113366611D01*
X173215698Y-113370962D01*
X173144875Y-113381128D01*
X173087411Y-113398338D01*
X173038594Y-113423819D01*
X172993713Y-113458799D01*
X172965877Y-113486483D01*
X172932385Y-113535272D01*
X172914721Y-113591868D01*
X172909728Y-113663987D01*
X172604486Y-113663987D01*
X172605557Y-113592530D01*
X172612538Y-113503505D01*
X172625070Y-113430233D01*
X172641576Y-113372027D01*
X172693054Y-113250468D01*
X172762814Y-113145475D01*
X172849800Y-113057825D01*
X172952957Y-112988297D01*
X173071229Y-112937671D01*
X173203561Y-112906724D01*
X173348898Y-112896235D01*
X173360026Y-112896292D01*
X173505330Y-112908405D01*
G37*
G36*
X174052012Y-115218147D02*
G01*
X173038725Y-115218147D01*
X172999200Y-115303899D01*
X172982667Y-115344127D01*
X172961399Y-115426715D01*
X172958375Y-115503137D01*
X172973103Y-115570153D01*
X173005089Y-115624524D01*
X173053841Y-115663009D01*
X173054843Y-115663525D01*
X173068864Y-115670126D01*
X173084407Y-115675514D01*
X173104091Y-115679840D01*
X173130540Y-115683253D01*
X173166372Y-115685902D01*
X173214210Y-115687938D01*
X173276674Y-115689510D01*
X173356387Y-115690767D01*
X173455967Y-115691859D01*
X173578038Y-115692936D01*
X174052012Y-115696890D01*
X174052012Y-116147262D01*
X173036855Y-116147262D01*
X173001434Y-116219457D01*
X172981010Y-116267546D01*
X172967922Y-116320765D01*
X172962206Y-116385819D01*
X172961934Y-116393483D01*
X172964849Y-116466934D01*
X172979922Y-116521920D01*
X173008979Y-116562563D01*
X173053841Y-116592986D01*
X173066847Y-116598968D01*
X173082594Y-116604366D01*
X173102490Y-116608720D01*
X173129156Y-116612173D01*
X173165211Y-116614873D01*
X173213276Y-116616965D01*
X173275971Y-116618594D01*
X173355916Y-116619907D01*
X173455732Y-116621050D01*
X173578038Y-116622168D01*
X174052012Y-116626239D01*
X174052012Y-117079029D01*
X173521538Y-117072973D01*
X173481726Y-117072513D01*
X173350958Y-117070849D01*
X173241987Y-117069025D01*
X173152209Y-117066781D01*
X173079020Y-117063862D01*
X173019816Y-117060009D01*
X172971994Y-117054965D01*
X172932950Y-117048473D01*
X172900080Y-117040275D01*
X172870781Y-117030114D01*
X172842448Y-117017733D01*
X172812479Y-117002873D01*
X172760552Y-116970178D01*
X172694930Y-116905826D01*
X172645132Y-116826195D01*
X172612760Y-116734949D01*
X172599416Y-116635751D01*
X172606701Y-116532263D01*
X172614689Y-116497231D01*
X172641522Y-116420057D01*
X172680619Y-116335586D01*
X172728545Y-116250866D01*
X172781865Y-116172940D01*
X172843478Y-116091895D01*
X172790968Y-116058594D01*
X172758910Y-116035638D01*
X172693539Y-115968193D01*
X172644022Y-115885534D01*
X172611991Y-115791835D01*
X172599079Y-115691271D01*
X172606919Y-115588014D01*
X172608787Y-115578559D01*
X172630328Y-115506079D01*
X172664274Y-115425688D01*
X172706404Y-115346397D01*
X172752496Y-115277219D01*
X172797602Y-115218147D01*
X172645784Y-115218147D01*
X172645784Y-114766145D01*
X174052012Y-114766145D01*
X174052012Y-115218147D01*
G37*
G36*
X170855950Y-113014228D02*
G01*
X170871240Y-113034991D01*
X170898990Y-113072355D01*
X170933993Y-113119288D01*
X170972116Y-113170241D01*
X170972433Y-113170664D01*
X171007472Y-113217894D01*
X171036249Y-113257574D01*
X171055796Y-113285548D01*
X171063145Y-113297663D01*
X171056463Y-113307754D01*
X171036063Y-113330541D01*
X171006639Y-113360441D01*
X170949501Y-113416417D01*
X170925254Y-113385028D01*
X170907673Y-113361602D01*
X170877263Y-113319269D01*
X170843248Y-113270436D01*
X170808648Y-113219602D01*
X170776482Y-113171266D01*
X170749769Y-113129927D01*
X170731527Y-113100086D01*
X170724776Y-113086240D01*
X170729496Y-113076950D01*
X170748639Y-113054499D01*
X170777477Y-113026446D01*
X170830179Y-112978833D01*
X170855950Y-113014228D01*
G37*
G36*
X173286120Y-99460856D02*
G01*
X173285214Y-99467503D01*
X173277750Y-99469226D01*
X173276247Y-99467386D01*
X173277750Y-99452485D01*
X173281526Y-99450521D01*
X173286120Y-99460856D01*
G37*
G36*
X173930930Y-98228284D02*
G01*
X173941946Y-98231454D01*
X173949535Y-98236169D01*
X173934051Y-98240586D01*
X173931758Y-98241076D01*
X173918215Y-98247249D01*
X173927773Y-98257744D01*
X173928861Y-98258507D01*
X173938908Y-98266986D01*
X173927553Y-98265209D01*
X173919216Y-98260899D01*
X173906916Y-98240666D01*
X173910452Y-98227099D01*
X173930930Y-98228284D01*
G37*
G36*
X173217724Y-98323830D02*
G01*
X173317901Y-98274820D01*
X173434552Y-98223910D01*
X173565083Y-98172240D01*
X173706897Y-98120948D01*
X173857400Y-98071172D01*
X173883790Y-98062833D01*
X173944626Y-98043580D01*
X173995668Y-98027389D01*
X174032197Y-98015757D01*
X174049495Y-98010182D01*
X174058866Y-98013226D01*
X174062808Y-98033276D01*
X174062051Y-98074234D01*
X174058290Y-98143753D01*
X173970401Y-98174397D01*
X173966418Y-98175787D01*
X173921146Y-98191874D01*
X173884355Y-98205417D01*
X173863678Y-98213611D01*
X173846983Y-98219293D01*
X173815143Y-98225653D01*
X173795218Y-98229251D01*
X173778873Y-98235692D01*
X173778120Y-98240425D01*
X173791501Y-98249654D01*
X173816482Y-98257751D01*
X173844479Y-98262271D01*
X173866909Y-98260769D01*
X173883558Y-98258122D01*
X173882444Y-98268183D01*
X173881178Y-98273103D01*
X173891012Y-98278558D01*
X173919090Y-98280288D01*
X173968761Y-98278700D01*
X174064568Y-98273862D01*
X174064568Y-100226748D01*
X174038716Y-100226748D01*
X174024189Y-100224789D01*
X174018677Y-100217331D01*
X174018676Y-100212016D01*
X174002707Y-100206204D01*
X173971435Y-100204788D01*
X173930833Y-100207523D01*
X173886877Y-100214163D01*
X173845542Y-100224460D01*
X173771504Y-100247909D01*
X173811667Y-100261910D01*
X173813161Y-100262420D01*
X173846804Y-100269555D01*
X173872369Y-100268029D01*
X173883187Y-100265528D01*
X173885214Y-100272597D01*
X173884907Y-100274212D01*
X173896887Y-100284920D01*
X173927183Y-100299495D01*
X173971005Y-100315537D01*
X174064490Y-100346026D01*
X174064529Y-100393956D01*
X174063381Y-100420464D01*
X174057061Y-100435508D01*
X174042596Y-100435539D01*
X174039270Y-100434597D01*
X174013632Y-100427530D01*
X173970312Y-100415715D01*
X173914435Y-100400549D01*
X173851123Y-100383425D01*
X173691496Y-100338520D01*
X173541493Y-100291896D01*
X173412967Y-100246538D01*
X173304103Y-100201754D01*
X173213083Y-100156849D01*
X173138090Y-100111130D01*
X173101335Y-100079960D01*
X173054278Y-100025138D01*
X173013005Y-99961668D01*
X172983943Y-99898417D01*
X172968092Y-99852587D01*
X172918978Y-99948639D01*
X172893655Y-99997384D01*
X172840500Y-100093010D01*
X172789407Y-100173513D01*
X172736088Y-100244851D01*
X172676256Y-100312978D01*
X172605620Y-100383851D01*
X172559726Y-100427064D01*
X172503558Y-100476453D01*
X172452411Y-100515820D01*
X172399427Y-100550319D01*
X172337747Y-100585103D01*
X172286697Y-100612678D01*
X172247853Y-100634962D01*
X172224095Y-100651709D01*
X172211701Y-100666216D01*
X172206949Y-100681780D01*
X172206120Y-100701698D01*
X172203887Y-100733360D01*
X172197239Y-100782046D01*
X172187753Y-100833457D01*
X172171108Y-100894816D01*
X172126316Y-100991002D01*
X172060954Y-101073241D01*
X171974059Y-101142930D01*
X171888617Y-101191486D01*
X171796896Y-101224940D01*
X171703900Y-101237609D01*
X171604019Y-101230825D01*
X171546919Y-101217753D01*
X171474898Y-101191987D01*
X171404799Y-101158512D01*
X171344272Y-101121052D01*
X171300965Y-101083330D01*
X171292675Y-101074024D01*
X171270325Y-101052810D01*
X171252698Y-101047235D01*
X171231697Y-101053854D01*
X171197803Y-101063713D01*
X171157824Y-101067974D01*
X171138643Y-101069480D01*
X171094593Y-101078080D01*
X171048554Y-101091763D01*
X171037711Y-101095574D01*
X170928456Y-101127728D01*
X170800656Y-101156075D01*
X170660051Y-101179882D01*
X170512385Y-101198414D01*
X170363399Y-101210936D01*
X170218837Y-101216716D01*
X170084439Y-101215019D01*
X170061681Y-101213864D01*
X169910280Y-101199234D01*
X169763343Y-101173467D01*
X169625842Y-101137818D01*
X169502750Y-101093544D01*
X169399041Y-101041899D01*
X169374231Y-101026042D01*
X169304508Y-100972365D01*
X169268887Y-100939682D01*
X171336126Y-100939682D01*
X171336275Y-100956249D01*
X171348987Y-100975402D01*
X171377026Y-101004554D01*
X171397575Y-101023272D01*
X171445403Y-101059673D01*
X171493378Y-101089220D01*
X171512296Y-101098768D01*
X171544503Y-101112000D01*
X171577659Y-101119576D01*
X171619811Y-101122993D01*
X171679002Y-101123748D01*
X171719592Y-101123426D01*
X171765938Y-101121163D01*
X171800378Y-101115365D01*
X171830886Y-101104453D01*
X171865432Y-101086849D01*
X171900822Y-101064868D01*
X171970452Y-101005632D01*
X172028202Y-100934809D01*
X172067551Y-100859728D01*
X172076917Y-100831222D01*
X172088722Y-100781342D01*
X172093337Y-100740211D01*
X172093337Y-100739894D01*
X172091739Y-100708093D01*
X172084952Y-100695674D01*
X172069944Y-100697038D01*
X172032484Y-100707036D01*
X171960482Y-100721009D01*
X171870090Y-100734181D01*
X171765252Y-100746000D01*
X171649916Y-100755912D01*
X171438774Y-100771446D01*
X171422721Y-100809848D01*
X171405315Y-100841817D01*
X171385062Y-100866170D01*
X171365447Y-100887854D01*
X171345238Y-100919318D01*
X171336126Y-100939682D01*
X169268887Y-100939682D01*
X169231305Y-100905199D01*
X169160678Y-100830762D01*
X169098685Y-100755274D01*
X169051382Y-100684952D01*
X169024853Y-100641844D01*
X168985769Y-100589900D01*
X168951898Y-100560098D01*
X168937657Y-100551310D01*
X168861976Y-100491418D01*
X168787354Y-100411924D01*
X168716876Y-100317340D01*
X168653626Y-100212180D01*
X168600689Y-100100959D01*
X168593685Y-100080985D01*
X170375171Y-100080985D01*
X170380055Y-100087537D01*
X170393873Y-100088636D01*
X170421332Y-100095083D01*
X170463677Y-100112639D01*
X170514589Y-100138069D01*
X170567993Y-100168140D01*
X170617812Y-100199614D01*
X170657970Y-100229258D01*
X170660202Y-100231129D01*
X170701314Y-100269874D01*
X170746576Y-100318643D01*
X170786591Y-100367344D01*
X170794902Y-100378157D01*
X170853324Y-100443969D01*
X170918082Y-100497909D01*
X170993868Y-100542829D01*
X171085375Y-100581581D01*
X171197296Y-100617019D01*
X171207834Y-100619927D01*
X171281984Y-100637641D01*
X171349757Y-100649386D01*
X171402621Y-100653639D01*
X171432758Y-100653188D01*
X171464279Y-100649514D01*
X171483542Y-100639935D01*
X171498357Y-100621858D01*
X171498730Y-100621287D01*
X171511736Y-100598290D01*
X171514341Y-100586957D01*
X171512168Y-100585770D01*
X171493311Y-100576691D01*
X171462985Y-100562712D01*
X171451634Y-100557112D01*
X171419391Y-100533079D01*
X171396140Y-100498188D01*
X171379432Y-100447705D01*
X171366818Y-100376897D01*
X171358253Y-100305677D01*
X171348698Y-100185321D01*
X171344306Y-100062261D01*
X171344606Y-99996835D01*
X171393282Y-99996835D01*
X171394682Y-100107144D01*
X171399214Y-100213547D01*
X171406815Y-100310785D01*
X171417422Y-100393596D01*
X171430972Y-100456722D01*
X171432132Y-100460557D01*
X171452678Y-100500882D01*
X171486126Y-100526143D01*
X171535786Y-100537879D01*
X171604970Y-100537631D01*
X171625949Y-100535718D01*
X171698328Y-100520093D01*
X171753772Y-100489977D01*
X171794479Y-100443055D01*
X171822648Y-100377010D01*
X171840477Y-100289526D01*
X171843414Y-100265905D01*
X171850638Y-100188101D01*
X171856098Y-100099583D01*
X171859577Y-100007484D01*
X171860859Y-99918936D01*
X171859725Y-99841071D01*
X171855960Y-99781024D01*
X171849489Y-99736027D01*
X171823202Y-99647122D01*
X171780577Y-99576973D01*
X171721212Y-99525030D01*
X171644708Y-99490742D01*
X171624506Y-99484991D01*
X171557623Y-99473024D01*
X171506748Y-99478751D01*
X171468954Y-99503846D01*
X171441314Y-99549984D01*
X171420901Y-99618840D01*
X171420272Y-99621741D01*
X171408510Y-99695074D01*
X171400133Y-99785540D01*
X171395078Y-99887881D01*
X171393282Y-99996835D01*
X171344606Y-99996835D01*
X171344864Y-99940432D01*
X171350163Y-99823768D01*
X171359990Y-99716205D01*
X171374135Y-99621676D01*
X171392386Y-99544118D01*
X171414533Y-99487464D01*
X171414733Y-99487095D01*
X171437317Y-99462101D01*
X171469706Y-99442124D01*
X171509501Y-99425519D01*
X171501965Y-99046515D01*
X171465300Y-99027554D01*
X171451392Y-99019187D01*
X171425231Y-98994215D01*
X171403885Y-98957680D01*
X171386551Y-98906875D01*
X171372421Y-98839093D01*
X171360692Y-98751626D01*
X171350558Y-98641767D01*
X171350056Y-98635206D01*
X171345602Y-98545694D01*
X171344443Y-98447505D01*
X171344517Y-98443508D01*
X171391900Y-98443508D01*
X171393067Y-98553124D01*
X171397433Y-98658278D01*
X171404997Y-98753858D01*
X171415761Y-98834753D01*
X171429723Y-98895853D01*
X171449208Y-98940374D01*
X171484212Y-98978078D01*
X171531930Y-98995516D01*
X171593532Y-98993055D01*
X171670185Y-98971058D01*
X171715986Y-98949957D01*
X171771692Y-98907157D01*
X171812476Y-98848999D01*
X171839940Y-98772942D01*
X171855683Y-98676445D01*
X171858918Y-98640703D01*
X171863659Y-98565317D01*
X171864566Y-98492548D01*
X171861617Y-98413254D01*
X171854788Y-98318295D01*
X171843992Y-98210675D01*
X171830082Y-98124349D01*
X171811365Y-98058144D01*
X171786039Y-98009566D01*
X171752301Y-97976121D01*
X171708348Y-97955316D01*
X171652380Y-97944655D01*
X171582593Y-97941646D01*
X171533509Y-97942622D01*
X171490094Y-97948135D01*
X171461939Y-97961015D01*
X171443620Y-97984038D01*
X171429715Y-98019985D01*
X171419221Y-98062644D01*
X171407592Y-98138998D01*
X171399163Y-98231334D01*
X171393932Y-98334541D01*
X171391900Y-98443508D01*
X171344517Y-98443508D01*
X171346318Y-98346260D01*
X171350971Y-98247581D01*
X171358142Y-98157089D01*
X171367574Y-98080405D01*
X171379007Y-98023151D01*
X171383835Y-98008011D01*
X171410015Y-97958581D01*
X171446059Y-97919650D01*
X171485766Y-97898459D01*
X171485933Y-97898417D01*
X171510597Y-97887753D01*
X171512224Y-97871958D01*
X171491147Y-97847893D01*
X171490599Y-97847401D01*
X171478732Y-97839106D01*
X171462250Y-97833452D01*
X171437059Y-97830130D01*
X171399064Y-97828831D01*
X171344171Y-97829246D01*
X171268285Y-97831065D01*
X171233175Y-97832065D01*
X171166575Y-97834445D01*
X171117875Y-97837503D01*
X171082020Y-97842012D01*
X171053958Y-97848746D01*
X171028635Y-97858478D01*
X171000999Y-97871982D01*
X170925484Y-97913489D01*
X170816822Y-97986847D01*
X170730104Y-98066292D01*
X170663421Y-98154068D01*
X170614864Y-98252417D01*
X170582523Y-98363582D01*
X170582402Y-98364158D01*
X170573439Y-98410111D01*
X170570565Y-98437812D01*
X170573825Y-98453316D01*
X170583265Y-98462685D01*
X170612060Y-98482911D01*
X170639386Y-98509174D01*
X170654380Y-98539526D01*
X170663070Y-98583061D01*
X170663695Y-98587636D01*
X170669264Y-98650445D01*
X170672436Y-98731250D01*
X170673295Y-98823641D01*
X170671924Y-98921207D01*
X170668407Y-99017538D01*
X170662828Y-99106223D01*
X170655270Y-99180850D01*
X170637864Y-99290219D01*
X170605450Y-99440876D01*
X170563838Y-99595581D01*
X170515219Y-99747046D01*
X170461785Y-99887981D01*
X170405725Y-100011098D01*
X170395187Y-100031986D01*
X170379966Y-100064095D01*
X170375171Y-100080985D01*
X168593685Y-100080985D01*
X168561149Y-99988191D01*
X168543701Y-99914420D01*
X168525978Y-99805563D01*
X168512634Y-99682077D01*
X168503913Y-99549576D01*
X168500056Y-99413674D01*
X168501309Y-99279984D01*
X168507913Y-99154119D01*
X168520114Y-99041693D01*
X168532552Y-98964110D01*
X168587091Y-98723197D01*
X168664427Y-98492473D01*
X168764969Y-98270844D01*
X168889128Y-98057217D01*
X168889574Y-98056529D01*
X168941097Y-97980096D01*
X168991866Y-97912037D01*
X169046059Y-97847678D01*
X169067204Y-97825323D01*
X171539923Y-97825323D01*
X171554237Y-97856739D01*
X171555942Y-97860316D01*
X171569860Y-97878394D01*
X171582593Y-97883949D01*
X171593570Y-97888737D01*
X171634730Y-97894985D01*
X171646711Y-97896423D01*
X171724233Y-97916492D01*
X171788680Y-97952376D01*
X171835230Y-98001514D01*
X171849766Y-98027189D01*
X171866159Y-98069538D01*
X171878765Y-98122700D01*
X171887943Y-98189518D01*
X171894055Y-98272836D01*
X171897461Y-98375500D01*
X171898523Y-98500351D01*
X171898476Y-98565589D01*
X171898062Y-98641343D01*
X171896938Y-98698554D01*
X171894767Y-98741105D01*
X171891212Y-98772881D01*
X171885938Y-98797764D01*
X171878607Y-98819638D01*
X171868883Y-98842387D01*
X171856475Y-98866447D01*
X171825236Y-98913451D01*
X171792144Y-98950732D01*
X171767507Y-98969664D01*
X171720439Y-98997434D01*
X171667678Y-99022102D01*
X171617882Y-99039765D01*
X171579708Y-99046520D01*
X171573185Y-99047248D01*
X171561900Y-99056330D01*
X171554220Y-99080003D01*
X171547978Y-99123522D01*
X171547232Y-99130863D01*
X171544612Y-99184406D01*
X171544829Y-99248464D01*
X171547889Y-99310746D01*
X171556511Y-99420969D01*
X171557623Y-99421176D01*
X171602062Y-99429442D01*
X171674149Y-99449030D01*
X171755791Y-99491748D01*
X171821428Y-99553750D01*
X171871463Y-99635342D01*
X171875445Y-99644179D01*
X171883316Y-99664715D01*
X171889140Y-99687556D01*
X171893222Y-99716502D01*
X171895866Y-99755354D01*
X171897377Y-99807913D01*
X171898058Y-99877981D01*
X171898216Y-99969358D01*
X171898072Y-100022696D01*
X171896403Y-100135719D01*
X171892516Y-100227917D01*
X171885982Y-100302288D01*
X171876372Y-100361832D01*
X171863253Y-100409547D01*
X171846198Y-100448432D01*
X171824776Y-100481486D01*
X171822982Y-100483804D01*
X171768632Y-100533538D01*
X171699666Y-100565644D01*
X171621378Y-100577622D01*
X171591989Y-100579664D01*
X171569453Y-100589324D01*
X171554991Y-100611316D01*
X171546073Y-100635793D01*
X171545379Y-100649757D01*
X171548458Y-100650766D01*
X171571579Y-100651218D01*
X171612542Y-100648984D01*
X171666273Y-100644584D01*
X171727702Y-100638540D01*
X171791756Y-100631372D01*
X171853363Y-100623600D01*
X171907451Y-100615746D01*
X171948948Y-100608329D01*
X172084952Y-100573764D01*
X172089044Y-100572724D01*
X172222795Y-100522825D01*
X172343191Y-100458327D01*
X172455441Y-100376404D01*
X172564756Y-100274230D01*
X172641186Y-100187584D01*
X172743637Y-100042054D01*
X172828990Y-99882049D01*
X172894975Y-99712217D01*
X173067792Y-99712217D01*
X173073330Y-99719545D01*
X173089334Y-99719049D01*
X173093150Y-99718479D01*
X173124529Y-99709092D01*
X173160481Y-99693247D01*
X173164927Y-99690929D01*
X173188909Y-99676903D01*
X173192866Y-99668542D01*
X173179314Y-99661620D01*
X173166902Y-99656148D01*
X173169256Y-99650587D01*
X173194043Y-99643922D01*
X173195172Y-99643665D01*
X173224593Y-99632132D01*
X173240732Y-99617034D01*
X173242429Y-99609422D01*
X173235337Y-99600357D01*
X173211483Y-99597158D01*
X173166842Y-99598835D01*
X173164953Y-99598953D01*
X173141995Y-99598239D01*
X173136828Y-99593559D01*
X173142840Y-99590816D01*
X173168645Y-99586055D01*
X173205884Y-99582944D01*
X173228200Y-99581660D01*
X173254681Y-99577091D01*
X173266719Y-99566336D01*
X173271280Y-99545393D01*
X173277383Y-99523123D01*
X173286781Y-99517764D01*
X173295463Y-99516571D01*
X173312014Y-99499891D01*
X173329442Y-99472377D01*
X173343227Y-99441521D01*
X173348851Y-99414818D01*
X173351714Y-99397642D01*
X173363156Y-99382862D01*
X173365068Y-99379557D01*
X173352366Y-99371439D01*
X173327110Y-99361696D01*
X173296544Y-99352657D01*
X173267910Y-99346648D01*
X173248453Y-99345999D01*
X173239988Y-99346826D01*
X173238847Y-99340868D01*
X173238951Y-99340759D01*
X173235687Y-99329174D01*
X173215439Y-99314563D01*
X173204637Y-99309039D01*
X173181320Y-99299321D01*
X173173589Y-99303559D01*
X173176758Y-99322744D01*
X173178693Y-99337820D01*
X173173370Y-99347855D01*
X173170257Y-99350041D01*
X173162214Y-99369437D01*
X173155239Y-99402375D01*
X173153606Y-99413141D01*
X173146798Y-99456158D01*
X173141013Y-99490265D01*
X173140162Y-99495397D01*
X173141545Y-99517879D01*
X173157180Y-99524885D01*
X173158443Y-99524967D01*
X173165427Y-99528221D01*
X173148008Y-99534868D01*
X173128029Y-99544813D01*
X173116619Y-99568144D01*
X173114991Y-99582704D01*
X173106580Y-99600093D01*
X173102611Y-99605230D01*
X173091457Y-99629450D01*
X173079295Y-99664799D01*
X173071615Y-99691088D01*
X173067792Y-99712217D01*
X172894975Y-99712217D01*
X172895260Y-99711484D01*
X172940457Y-99534274D01*
X172944074Y-99512972D01*
X172951219Y-99458099D01*
X172957662Y-99393171D01*
X172963037Y-99324021D01*
X172966975Y-99256481D01*
X172967557Y-99240086D01*
X173066397Y-99240086D01*
X173066400Y-99250057D01*
X173066606Y-99323898D01*
X173067101Y-99387606D01*
X173067831Y-99437435D01*
X173068745Y-99469642D01*
X173069789Y-99480482D01*
X173070348Y-99479327D01*
X173075048Y-99461157D01*
X173082636Y-99425984D01*
X173091761Y-99379979D01*
X173092437Y-99376408D01*
X173101335Y-99321387D01*
X173107397Y-99269168D01*
X173109343Y-99230611D01*
X173108833Y-99224191D01*
X173179397Y-99224191D01*
X173181320Y-99225260D01*
X173210786Y-99241634D01*
X173235910Y-99253445D01*
X173257870Y-99259521D01*
X173268218Y-99251975D01*
X173273564Y-99228577D01*
X173273176Y-99217446D01*
X173267106Y-99201138D01*
X173249430Y-99199434D01*
X173214743Y-99210689D01*
X173179397Y-99224191D01*
X173108833Y-99224191D01*
X173106961Y-99200635D01*
X173100051Y-99150868D01*
X173090390Y-99095269D01*
X173080295Y-99046520D01*
X173148008Y-99046520D01*
X173151922Y-99062395D01*
X173172379Y-99071632D01*
X173186751Y-99073470D01*
X173203785Y-99083016D01*
X173202685Y-99088657D01*
X173185693Y-99087830D01*
X173185592Y-99087804D01*
X173165875Y-99088306D01*
X173160564Y-99107834D01*
X173164095Y-99123807D01*
X173179397Y-99134410D01*
X173188118Y-99132624D01*
X173198423Y-99118715D01*
X173200523Y-99111289D01*
X173210162Y-99121274D01*
X173212065Y-99124098D01*
X173226521Y-99133058D01*
X173249430Y-99125638D01*
X173250776Y-99125202D01*
X173273475Y-99115167D01*
X173306932Y-99103332D01*
X173318699Y-99099061D01*
X173339168Y-99078265D01*
X173339382Y-99043382D01*
X173334182Y-99032921D01*
X173319457Y-99025735D01*
X173290246Y-99022293D01*
X173241255Y-99021409D01*
X173225736Y-99021442D01*
X173183889Y-99022500D01*
X173160470Y-99026093D01*
X173150253Y-99033631D01*
X173148008Y-99046520D01*
X173080295Y-99046520D01*
X173079755Y-99043910D01*
X173069918Y-99006861D01*
X173069756Y-99006632D01*
X173068691Y-99018529D01*
X173067769Y-99051420D01*
X173067043Y-99101709D01*
X173066567Y-99165796D01*
X173066397Y-99240086D01*
X172967557Y-99240086D01*
X172969107Y-99196385D01*
X172969067Y-99149565D01*
X172966485Y-99121854D01*
X172965252Y-99115817D01*
X172960471Y-99086916D01*
X172953884Y-99042894D01*
X172946534Y-98990604D01*
X172926371Y-98883999D01*
X172916359Y-98849537D01*
X173085909Y-98849537D01*
X173096869Y-98880329D01*
X173103189Y-98893297D01*
X173115830Y-98925462D01*
X173119492Y-98933901D01*
X173135139Y-98944164D01*
X173166969Y-98943678D01*
X173168756Y-98943477D01*
X173199552Y-98943823D01*
X173210786Y-98952700D01*
X173201133Y-98961325D01*
X173173120Y-98961309D01*
X173156226Y-98959529D01*
X173139435Y-98964093D01*
X173135453Y-98982317D01*
X173135455Y-98982940D01*
X173142460Y-99003191D01*
X173166842Y-99008854D01*
X173187542Y-99004953D01*
X173198423Y-98993159D01*
X173200295Y-98984468D01*
X173209084Y-98993974D01*
X173209286Y-98994283D01*
X173230597Y-99005173D01*
X173241255Y-99005532D01*
X173270879Y-99006529D01*
X173274389Y-99006252D01*
X173304355Y-99002253D01*
X173314526Y-98994794D01*
X173309817Y-98980604D01*
X173297512Y-98967614D01*
X173269802Y-98957175D01*
X173266144Y-98956961D01*
X173252893Y-98954576D01*
X173263730Y-98950057D01*
X173268474Y-98948666D01*
X173278572Y-98939588D01*
X173270126Y-98920124D01*
X173256981Y-98906414D01*
X173231775Y-98898136D01*
X173188933Y-98895853D01*
X173158846Y-98895447D01*
X173134691Y-98892079D01*
X173124800Y-98882745D01*
X173122897Y-98864464D01*
X173121751Y-98858096D01*
X173135453Y-98858096D01*
X173138475Y-98873032D01*
X173152987Y-98880491D01*
X173185675Y-98881149D01*
X173202587Y-98880015D01*
X173229868Y-98873457D01*
X173232978Y-98862006D01*
X173211612Y-98846072D01*
X173205033Y-98842769D01*
X173170244Y-98832992D01*
X173145117Y-98838407D01*
X173135453Y-98858096D01*
X173121751Y-98858096D01*
X173119211Y-98843990D01*
X173104064Y-98833075D01*
X173094322Y-98834598D01*
X173085909Y-98849537D01*
X172916359Y-98849537D01*
X172900634Y-98795408D01*
X173060119Y-98795408D01*
X173060388Y-98801216D01*
X173066463Y-98813586D01*
X173069756Y-98814570D01*
X173085243Y-98819197D01*
X173104064Y-98819858D01*
X173122897Y-98820519D01*
X173145479Y-98820279D01*
X173170244Y-98819171D01*
X173174373Y-98818986D01*
X173185675Y-98816949D01*
X173185510Y-98816511D01*
X173173782Y-98807290D01*
X173149210Y-98791838D01*
X173131010Y-98782190D01*
X173094333Y-98770897D01*
X173069349Y-98775357D01*
X173060119Y-98795408D01*
X172900634Y-98795408D01*
X172885625Y-98743745D01*
X172830508Y-98602668D01*
X172764187Y-98468679D01*
X172689830Y-98349684D01*
X172682768Y-98339961D01*
X172626684Y-98272120D01*
X172556715Y-98199216D01*
X172479700Y-98127658D01*
X172402480Y-98063858D01*
X172331894Y-98014225D01*
X172313083Y-98002870D01*
X172182949Y-97939686D01*
X172032126Y-97890497D01*
X171860787Y-97855348D01*
X171669102Y-97834286D01*
X171539923Y-97825323D01*
X169067204Y-97825323D01*
X169107856Y-97782344D01*
X169181435Y-97711360D01*
X169270975Y-97630052D01*
X169275669Y-97625872D01*
X169338178Y-97569217D01*
X171319948Y-97569217D01*
X171332893Y-97596478D01*
X171364073Y-97634341D01*
X171386789Y-97660323D01*
X171399064Y-97676415D01*
X171407391Y-97687331D01*
X171415334Y-97702790D01*
X171415419Y-97703399D01*
X171429120Y-97709821D01*
X171463268Y-97714082D01*
X171513598Y-97715626D01*
X171539923Y-97716199D01*
X171577429Y-97717016D01*
X171682507Y-97723493D01*
X171793040Y-97734311D01*
X171898848Y-97748418D01*
X171989753Y-97764764D01*
X172093337Y-97786908D01*
X172093327Y-97735572D01*
X172091656Y-97714012D01*
X172076374Y-97655510D01*
X172048300Y-97591408D01*
X172011318Y-97529756D01*
X171969313Y-97478602D01*
X171955509Y-97465154D01*
X171900999Y-97420735D01*
X171844534Y-97391541D01*
X171778641Y-97374508D01*
X171695847Y-97366575D01*
X171665629Y-97365310D01*
X171616736Y-97364919D01*
X171580390Y-97368582D01*
X171548154Y-97377502D01*
X171511592Y-97392885D01*
X171465963Y-97417899D01*
X171416918Y-97452073D01*
X171372413Y-97489495D01*
X171338344Y-97525186D01*
X171320607Y-97554168D01*
X171319948Y-97569217D01*
X169338178Y-97569217D01*
X169360283Y-97549182D01*
X169427557Y-97485057D01*
X169479911Y-97430851D01*
X169519764Y-97383919D01*
X169549536Y-97341614D01*
X169571646Y-97301291D01*
X169580565Y-97283964D01*
X169603626Y-97247487D01*
X169624866Y-97223097D01*
X169663090Y-97204433D01*
X169708647Y-97204619D01*
X169752203Y-97224198D01*
X169786955Y-97261555D01*
X169803994Y-97288897D01*
X169817684Y-97310163D01*
X169823608Y-97314627D01*
X169841726Y-97318036D01*
X169874361Y-97317983D01*
X169924956Y-97314414D01*
X169996955Y-97307274D01*
X169998813Y-97307076D01*
X170079251Y-97300104D01*
X170172990Y-97294336D01*
X170268534Y-97290366D01*
X170354385Y-97288788D01*
X170394641Y-97288438D01*
X170488012Y-97285288D01*
X170563700Y-97279107D01*
X170618053Y-97270153D01*
X170653005Y-97262349D01*
X170694762Y-97254665D01*
X170722602Y-97251515D01*
X170725804Y-97251616D01*
X170757454Y-97263630D01*
X170789838Y-97290056D01*
X170815059Y-97322971D01*
X170825220Y-97354454D01*
X170825429Y-97359933D01*
X170828680Y-97370554D01*
X170838662Y-97379824D01*
X170858916Y-97389177D01*
X170892979Y-97400048D01*
X170944392Y-97413871D01*
X171016693Y-97432082D01*
X171055392Y-97441749D01*
X171117602Y-97457457D01*
X171168893Y-97470621D01*
X171204777Y-97480085D01*
X171220768Y-97484691D01*
X171229931Y-97481809D01*
X171251197Y-97464001D01*
X171277252Y-97434852D01*
X171329141Y-97381002D01*
X171415370Y-97320669D01*
X171518210Y-97275165D01*
X171597373Y-97256477D01*
X171616736Y-97255590D01*
X171700845Y-97251739D01*
X171803824Y-97266426D01*
X171897996Y-97299995D01*
X171977910Y-97346035D01*
X172063333Y-97417382D01*
X172127889Y-97502341D01*
X172172315Y-97601936D01*
X172197347Y-97717195D01*
X172202189Y-97753890D01*
X172209191Y-97795623D01*
X172216867Y-97820843D01*
X172227064Y-97834781D01*
X172241625Y-97842664D01*
X172249225Y-97845718D01*
X172297050Y-97869266D01*
X172356545Y-97903616D01*
X172421149Y-97944638D01*
X172484298Y-97988198D01*
X172539431Y-98030166D01*
X172566095Y-98052311D01*
X172637104Y-98117249D01*
X172700552Y-98186126D01*
X172760365Y-98263897D01*
X172820470Y-98355513D01*
X172884793Y-98465930D01*
X172956623Y-98594732D01*
X172990303Y-98525893D01*
X173006179Y-98497539D01*
X173039066Y-98451233D01*
X173072557Y-98415476D01*
X173077175Y-98411599D01*
X173094333Y-98399535D01*
X173136617Y-98369803D01*
X173217724Y-98323830D01*
G37*
G36*
X172683877Y-99048794D02*
G01*
X172700414Y-99062215D01*
X172701310Y-99066262D01*
X172703246Y-99092195D01*
X172704509Y-99136413D01*
X172704995Y-99193982D01*
X172704599Y-99259966D01*
X172704175Y-99292091D01*
X172703027Y-99353815D01*
X172701206Y-99395922D01*
X172698087Y-99422300D01*
X172693045Y-99436839D01*
X172685453Y-99443426D01*
X172674688Y-99445949D01*
X172668139Y-99446702D01*
X172659325Y-99445233D01*
X172653227Y-99437077D01*
X172649211Y-99418548D01*
X172646641Y-99385964D01*
X172644882Y-99335640D01*
X172643299Y-99263892D01*
X172642759Y-99234469D01*
X172642020Y-99170796D01*
X172641989Y-99117617D01*
X172642651Y-99079800D01*
X172643988Y-99062215D01*
X172649758Y-99053966D01*
X172671192Y-99046520D01*
X172683877Y-99048794D01*
G37*
G36*
X173148008Y-99655468D02*
G01*
X173141731Y-99661745D01*
X173135453Y-99655468D01*
X173141731Y-99649190D01*
X173148008Y-99655468D01*
G37*
G36*
X174052012Y-105575438D02*
G01*
X173038437Y-105575438D01*
X173002567Y-105653910D01*
X173002333Y-105654421D01*
X172980467Y-105710320D01*
X172968160Y-105765541D01*
X172962563Y-105832828D01*
X172961939Y-105880558D01*
X172968471Y-105942054D01*
X172986454Y-105987824D01*
X173018294Y-106022959D01*
X173066397Y-106052551D01*
X173129175Y-106083940D01*
X173590594Y-106088144D01*
X174052012Y-106092347D01*
X174052012Y-106544132D01*
X173521538Y-106538927D01*
X173463033Y-106538340D01*
X173333870Y-106536846D01*
X173226234Y-106535087D01*
X173137568Y-106532789D01*
X173065314Y-106529679D01*
X173006915Y-106525483D01*
X172959814Y-106519927D01*
X172921454Y-106512738D01*
X172889277Y-106503643D01*
X172860727Y-106492367D01*
X172833245Y-106478636D01*
X172804275Y-106462178D01*
X172734597Y-106410836D01*
X172676542Y-106341263D01*
X172634637Y-106254725D01*
X172607562Y-106149122D01*
X172604645Y-106130466D01*
X172600863Y-106012795D01*
X172622092Y-105894324D01*
X172668267Y-105775296D01*
X172739321Y-105655960D01*
X172795610Y-105575438D01*
X172645784Y-105575438D01*
X172645784Y-105123436D01*
X174052012Y-105123436D01*
X174052012Y-105575438D01*
G37*
G36*
X172432339Y-104709101D02*
G01*
X172093337Y-104709101D01*
X172093337Y-104231988D01*
X172432339Y-104231988D01*
X172432339Y-104709101D01*
G37*
G36*
X170929792Y-109605033D02*
G01*
X170944609Y-109616785D01*
X170979847Y-109645741D01*
X171004361Y-109667386D01*
X171013555Y-109677732D01*
X171007929Y-109690553D01*
X170986446Y-109719966D01*
X170951327Y-109761738D01*
X170905169Y-109813181D01*
X170850567Y-109871611D01*
X170790117Y-109934341D01*
X170726413Y-109998686D01*
X170662052Y-110061960D01*
X170599629Y-110121478D01*
X170541738Y-110174552D01*
X170490977Y-110218498D01*
X170390574Y-110297962D01*
X170227663Y-110413846D01*
X170055536Y-110522579D01*
X169883550Y-110618009D01*
X169764271Y-110679294D01*
X170527025Y-110682530D01*
X171289778Y-110685766D01*
X171289778Y-110873711D01*
X170527025Y-110876947D01*
X169764271Y-110880183D01*
X169924494Y-110964303D01*
X170068084Y-111043963D01*
X170295860Y-111189774D01*
X170505109Y-111349381D01*
X170693758Y-111521283D01*
X170729341Y-111557909D01*
X170777253Y-111609835D01*
X170825840Y-111664870D01*
X170872138Y-111719432D01*
X170913183Y-111769941D01*
X170946012Y-111812813D01*
X170967659Y-111844469D01*
X170975161Y-111861325D01*
X170972768Y-111865493D01*
X170955253Y-111883530D01*
X170924512Y-111910869D01*
X170885027Y-111943428D01*
X170795618Y-112014779D01*
X170751672Y-111943428D01*
X170661417Y-111809048D01*
X170520064Y-111633618D01*
X170358368Y-111467004D01*
X170178840Y-111311737D01*
X169983995Y-111170348D01*
X169979917Y-111167652D01*
X169922629Y-111130793D01*
X169861465Y-111093008D01*
X169800601Y-111056702D01*
X169744212Y-111024280D01*
X169696472Y-110998144D01*
X169661556Y-110980699D01*
X169643639Y-110974350D01*
X169643367Y-110974479D01*
X169640797Y-110989047D01*
X169638472Y-111026077D01*
X169636446Y-111083165D01*
X169634775Y-111157908D01*
X169633513Y-111247900D01*
X169632715Y-111350739D01*
X169632437Y-111464019D01*
X169632437Y-111953688D01*
X169456659Y-111953688D01*
X169456659Y-110873906D01*
X168853990Y-110873906D01*
X168853990Y-110685571D01*
X169456659Y-110685571D01*
X169456659Y-109618344D01*
X169632437Y-109618344D01*
X169632437Y-110103079D01*
X169632438Y-110118910D01*
X169632509Y-110239224D01*
X169632773Y-110336972D01*
X169633334Y-110414431D01*
X169634298Y-110473875D01*
X169635769Y-110517582D01*
X169637853Y-110547826D01*
X169640654Y-110566885D01*
X169644277Y-110577034D01*
X169648827Y-110580549D01*
X169654410Y-110579707D01*
X169664833Y-110575320D01*
X169703907Y-110554963D01*
X169757462Y-110523625D01*
X169821292Y-110484007D01*
X169891188Y-110438809D01*
X169962945Y-110390733D01*
X170032355Y-110342478D01*
X170095211Y-110296746D01*
X170146978Y-110256544D01*
X170241951Y-110177104D01*
X170342892Y-110086742D01*
X170444501Y-109990533D01*
X170541475Y-109893550D01*
X170628514Y-109800868D01*
X170700317Y-109717561D01*
X170734904Y-109674973D01*
X170771835Y-109629587D01*
X170801621Y-109593076D01*
X170819931Y-109570757D01*
X170846030Y-109539207D01*
X170929792Y-109605033D01*
G37*
G36*
X174008437Y-100290432D02*
G01*
X174010160Y-100297896D01*
X174008320Y-100299399D01*
X173993419Y-100297896D01*
X173991455Y-100294120D01*
X174001790Y-100289526D01*
X174008437Y-100290432D01*
G37*
G36*
X174052012Y-111024573D02*
G01*
X173562344Y-111024573D01*
X173562344Y-110572571D01*
X174052012Y-110572571D01*
X174052012Y-111024573D01*
G37*
G36*
X171277222Y-115205591D02*
G01*
X171163987Y-115205591D01*
X171167244Y-115830233D01*
X171170500Y-116454874D01*
X171277222Y-116462596D01*
X171277222Y-116636931D01*
X170486219Y-116636931D01*
X170486219Y-115205591D01*
X170636652Y-115205591D01*
X170639908Y-115830233D01*
X170643164Y-116454874D01*
X170828359Y-116458349D01*
X171013555Y-116461823D01*
X171013555Y-115205591D01*
X170636652Y-115205591D01*
X170486219Y-115205591D01*
X170486219Y-115029813D01*
X171277222Y-115029813D01*
X171277222Y-115205591D01*
G37*
G36*
X170687109Y-113950030D02*
G01*
X171002931Y-113950030D01*
X171040710Y-113912251D01*
X171078489Y-113874471D01*
X171074272Y-113666830D01*
X171072980Y-113599443D01*
X171072339Y-113541904D01*
X171072956Y-113503033D01*
X171075190Y-113479375D01*
X171079397Y-113467479D01*
X171085937Y-113463889D01*
X171095166Y-113465152D01*
X171104439Y-113467137D01*
X171138642Y-113473284D01*
X171179916Y-113479719D01*
X171239556Y-113488324D01*
X171239556Y-113711465D01*
X171239554Y-113724710D01*
X171239372Y-113801546D01*
X171238499Y-113858424D01*
X171236401Y-113899839D01*
X171232539Y-113930284D01*
X171226378Y-113954252D01*
X171217380Y-113976239D01*
X171205009Y-114000736D01*
X171185124Y-114035448D01*
X171160444Y-114066759D01*
X171130481Y-114089446D01*
X171091273Y-114104999D01*
X171038860Y-114114914D01*
X170969283Y-114120682D01*
X170878582Y-114123797D01*
X170687109Y-114128062D01*
X170687109Y-114527588D01*
X170536441Y-114527588D01*
X170536441Y-114125809D01*
X170385774Y-114125809D01*
X170385774Y-113950030D01*
X170536441Y-113950030D01*
X170536441Y-112681913D01*
X170687109Y-112681913D01*
X170687109Y-113950030D01*
G37*
G36*
X173317878Y-99072538D02*
G01*
X173319602Y-99080002D01*
X173317761Y-99081505D01*
X173302861Y-99080002D01*
X173300897Y-99076226D01*
X173311231Y-99071632D01*
X173317878Y-99072538D01*
G37*
G36*
X173135453Y-98920964D02*
G01*
X173134547Y-98927611D01*
X173127082Y-98929335D01*
X173125580Y-98927495D01*
X173127082Y-98912594D01*
X173130859Y-98910630D01*
X173135453Y-98920964D01*
G37*
G36*
X173214585Y-99331595D02*
G01*
X173223342Y-99341577D01*
X173222751Y-99343393D01*
X173210786Y-99354133D01*
X173204136Y-99355138D01*
X173198231Y-99341577D01*
X173200149Y-99332003D01*
X173210786Y-99329022D01*
X173214585Y-99331595D01*
G37*
G36*
X169720327Y-112330356D02*
G01*
X171277222Y-112330356D01*
X171277222Y-112506135D01*
X169720327Y-112506135D01*
X169720327Y-112744691D01*
X169544548Y-112744691D01*
X169544548Y-112506135D01*
X168853990Y-112506135D01*
X168853990Y-112330356D01*
X169544548Y-112330356D01*
X169544548Y-112079244D01*
X169720327Y-112079244D01*
X169720327Y-112330356D01*
G37*
G36*
X173209795Y-99390753D02*
G01*
X173208907Y-99403488D01*
X173203201Y-99407233D01*
X173200713Y-99402791D01*
X173202210Y-99383168D01*
X173206729Y-99377356D01*
X173209795Y-99390753D01*
G37*
G36*
X173210786Y-98914687D02*
G01*
X173204509Y-98920964D01*
X173198231Y-98914687D01*
X173204509Y-98908409D01*
X173210786Y-98914687D01*
G37*
%TD*%
%LPC*%
D14*
%TO.C,J6*%
X106940000Y-115940000D03*
D15*
X109480000Y-115940000D03*
X112020000Y-115940000D03*
X114560000Y-115940000D03*
%TD*%
D16*
%TO.C,HOLE2*%
X104170000Y-115860000D03*
%TD*%
D17*
%TO.C,J7*%
X133240000Y-102320000D03*
D18*
X135780000Y-102320000D03*
X133240000Y-104860000D03*
X135780000Y-104860000D03*
X133240000Y-107400000D03*
X135780000Y-107400000D03*
X133240000Y-109940000D03*
X135780000Y-109940000D03*
X133240000Y-112480000D03*
X135780000Y-112480000D03*
%TD*%
D19*
%TO.C,HOLE8*%
X178414000Y-94810000D03*
%TD*%
%TO.C,HOLE7*%
X178434000Y-119950000D03*
%TD*%
D17*
%TO.C,J2*%
X181808500Y-95792000D03*
D18*
X184348500Y-95792000D03*
X181808500Y-98332000D03*
X184348500Y-98332000D03*
X181808500Y-100872000D03*
X184348500Y-100872000D03*
X181808500Y-103412000D03*
X184348500Y-103412000D03*
X181808500Y-105952000D03*
X184348500Y-105952000D03*
X181808500Y-108492000D03*
X184348500Y-108492000D03*
X181808500Y-111032000D03*
X184348500Y-111032000D03*
X181808500Y-113572000D03*
X184348500Y-113572000D03*
X181808500Y-116112000D03*
X184348500Y-116112000D03*
X181808500Y-118652000D03*
X184348500Y-118652000D03*
%TD*%
D14*
%TO.C,J4*%
X164415000Y-119864000D03*
D15*
X166955000Y-119864000D03*
%TD*%
D16*
%TO.C,HOLE1*%
X104170000Y-98860000D03*
%TD*%
D20*
%TO.C,J5*%
X162901500Y-112450000D03*
D18*
X160361500Y-112450000D03*
X162901500Y-109910000D03*
X160361500Y-109910000D03*
X162901500Y-107370000D03*
X160361500Y-107370000D03*
X162901500Y-104830000D03*
X160361500Y-104830000D03*
X162901500Y-102290000D03*
X160361500Y-102290000D03*
%TD*%
D19*
%TO.C,HOLE6*%
X160554000Y-119920000D03*
%TD*%
D21*
%TO.C,USB1*%
X108489000Y-110340000D03*
X108489000Y-104560000D03*
D22*
X108989000Y-103125000D03*
X108989000Y-111775000D03*
D23*
X104789000Y-103125000D03*
X104789000Y-111775000D03*
%TD*%
D14*
%TO.C,J1*%
X164405000Y-94894000D03*
D15*
X166945000Y-94894000D03*
X169485000Y-94894000D03*
X172025000Y-94894000D03*
X174565000Y-94894000D03*
%TD*%
D19*
%TO.C,HOLE4*%
X134710000Y-99260000D03*
%TD*%
%TO.C,HOLE5*%
X160514000Y-94810000D03*
%TD*%
%TO.C,HOLE3*%
X134670000Y-115510000D03*
%TD*%
D14*
%TO.C,J3*%
X171975000Y-119864000D03*
D15*
X174515000Y-119864000D03*
%TD*%
M02*
