%TF.GenerationSoftware,KiCad,Pcbnew,(6.0.8)*%
%TF.CreationDate,2022-11-07T19:54:11+08:00*%
%TF.ProjectId,UINIO-DAP-Link,55494e49-4f2d-4444-9150-2d4c696e6b2e,Version 1.0.0*%
%TF.SameCoordinates,Original*%
%TF.FileFunction,Soldermask,Bot*%
%TF.FilePolarity,Negative*%
%FSLAX46Y46*%
G04 Gerber Fmt 4.6, Leading zero omitted, Abs format (unit mm)*
G04 Created by KiCad (PCBNEW (6.0.8)) date 2022-11-07 19:54:11*
%MOMM*%
%LPD*%
G01*
G04 APERTURE LIST*
G04 Aperture macros list*
%AMRoundRect*
0 Rectangle with rounded corners*
0 $1 Rounding radius*
0 $2 $3 $4 $5 $6 $7 $8 $9 X,Y pos of 4 corners*
0 Add a 4 corners polygon primitive as box body*
4,1,4,$2,$3,$4,$5,$6,$7,$8,$9,$2,$3,0*
0 Add four circle primitives for the rounded corners*
1,1,$1+$1,$2,$3*
1,1,$1+$1,$4,$5*
1,1,$1+$1,$6,$7*
1,1,$1+$1,$8,$9*
0 Add four rect primitives between the rounded corners*
20,1,$1+$1,$2,$3,$4,$5,0*
20,1,$1+$1,$4,$5,$6,$7,0*
20,1,$1+$1,$6,$7,$8,$9,0*
20,1,$1+$1,$8,$9,$2,$3,0*%
G04 Aperture macros list end*
%ADD10R,1.700000X1.700000*%
%ADD11O,1.700000X1.700000*%
%ADD12C,1.200000*%
%ADD13RoundRect,0.250000X-0.600000X-0.600000X0.600000X-0.600000X0.600000X0.600000X-0.600000X0.600000X0*%
%ADD14C,1.700000*%
%ADD15C,2.200000*%
%ADD16RoundRect,0.250000X0.600000X0.600000X-0.600000X0.600000X-0.600000X-0.600000X0.600000X-0.600000X0*%
%ADD17C,0.650000*%
%ADD18O,2.100000X1.000000*%
%ADD19O,1.900000X1.000000*%
G04 APERTURE END LIST*
D10*
%TO.C,J6*%
X106940000Y-115940000D03*
D11*
X109480000Y-115940000D03*
X112020000Y-115940000D03*
X114560000Y-115940000D03*
%TD*%
D12*
%TO.C,HOLE2*%
X104170000Y-115860000D03*
%TD*%
D13*
%TO.C,J7*%
X133240000Y-102320000D03*
D14*
X135780000Y-102320000D03*
X133240000Y-104860000D03*
X135780000Y-104860000D03*
X133240000Y-107400000D03*
X135780000Y-107400000D03*
X133240000Y-109940000D03*
X135780000Y-109940000D03*
X133240000Y-112480000D03*
X135780000Y-112480000D03*
%TD*%
D15*
%TO.C,HOLE8*%
X178414000Y-94810000D03*
%TD*%
%TO.C,HOLE7*%
X178434000Y-119950000D03*
%TD*%
D14*
%TO.C,J2*%
X184348500Y-118652000D03*
X181808500Y-118652000D03*
X184348500Y-116112000D03*
X181808500Y-116112000D03*
X184348500Y-113572000D03*
X181808500Y-113572000D03*
X184348500Y-111032000D03*
X181808500Y-111032000D03*
X184348500Y-108492000D03*
X181808500Y-108492000D03*
X184348500Y-105952000D03*
X181808500Y-105952000D03*
X184348500Y-103412000D03*
X181808500Y-103412000D03*
X184348500Y-100872000D03*
X181808500Y-100872000D03*
X184348500Y-98332000D03*
X181808500Y-98332000D03*
X184348500Y-95792000D03*
D13*
X181808500Y-95792000D03*
%TD*%
D11*
%TO.C,J4*%
X166955000Y-119864000D03*
D10*
X164415000Y-119864000D03*
%TD*%
D12*
%TO.C,HOLE1*%
X104170000Y-98860000D03*
%TD*%
D14*
%TO.C,J5*%
X160361500Y-102290000D03*
X162901500Y-102290000D03*
X160361500Y-104830000D03*
X162901500Y-104830000D03*
X160361500Y-107370000D03*
X162901500Y-107370000D03*
X160361500Y-109910000D03*
X162901500Y-109910000D03*
X160361500Y-112450000D03*
D16*
X162901500Y-112450000D03*
%TD*%
D15*
%TO.C,HOLE6*%
X160554000Y-119920000D03*
%TD*%
D17*
%TO.C,USB1*%
X108489000Y-110340000D03*
X108489000Y-104560000D03*
D18*
X108989000Y-103125000D03*
X108989000Y-111775000D03*
D19*
X104789000Y-103125000D03*
X104789000Y-111775000D03*
%TD*%
D11*
%TO.C,J1*%
X174565000Y-94894000D03*
X172025000Y-94894000D03*
X169485000Y-94894000D03*
X166945000Y-94894000D03*
D10*
X164405000Y-94894000D03*
%TD*%
D15*
%TO.C,HOLE4*%
X134710000Y-99260000D03*
%TD*%
%TO.C,HOLE5*%
X160514000Y-94810000D03*
%TD*%
%TO.C,HOLE3*%
X134670000Y-115510000D03*
%TD*%
D11*
%TO.C,J3*%
X174515000Y-119864000D03*
D10*
X171975000Y-119864000D03*
%TD*%
M02*
