%TF.GenerationSoftware,KiCad,Pcbnew,7.0.9*%
%TF.CreationDate,2024-01-11T16:53:17+08:00*%
%TF.ProjectId,UINIO-DAP-Link,55494e49-4f2d-4444-9150-2d4c696e6b2e,Version 3.3.1*%
%TF.SameCoordinates,PX6318a70PY5c9a0e0*%
%TF.FileFunction,Profile,NP*%
%FSLAX46Y46*%
G04 Gerber Fmt 4.6, Leading zero omitted, Abs format (unit mm)*
G04 Created by KiCad (PCBNEW 7.0.9) date 2024-01-11 16:53:17*
%MOMM*%
%LPD*%
G01*
G04 APERTURE LIST*
%TA.AperFunction,Profile*%
%ADD10C,0.100000*%
%TD*%
G04 APERTURE END LIST*
D10*
X119997Y-55D02*
G75*
G03*
X-1230000Y-1250000I-68197J-1280345D01*
G01*
X89174000Y3580000D02*
X89174000Y-24170000D01*
X40610000Y-8240000D02*
X40610000Y-4650000D01*
X120000Y-20600000D02*
X39560000Y-20600000D01*
X40610009Y-1010000D02*
G75*
G03*
X39510000Y-1I-1050409J-40000D01*
G01*
X47710000Y-4650000D02*
X47710000Y3601000D01*
X40610000Y-12360000D02*
X47710000Y-12360000D01*
X89173967Y3580001D02*
G75*
G03*
X87500000Y5216000I-1587467J50099D01*
G01*
X47710000Y-12360000D02*
X47710000Y-17520000D01*
X39559999Y-20600054D02*
G75*
G03*
X40609999Y-19510000I25001J1026654D01*
G01*
X87460000Y-25734026D02*
G75*
G03*
X89174000Y-24170000I3800J1717026D01*
G01*
X40610000Y-12360000D02*
X40610000Y-17520000D01*
X40610000Y-1010000D02*
X40610000Y-4650000D01*
X49500000Y5216000D02*
X87500000Y5216000D01*
X47710000Y-17520000D02*
X47710000Y-24149000D01*
X-1230000Y-19250000D02*
G75*
G03*
X120000Y-20600000I1286300J-63700D01*
G01*
X40610000Y-19510000D02*
X40610000Y-17520000D01*
X120000Y0D02*
X39510000Y0D01*
X49460000Y-25734000D02*
X87460000Y-25734000D01*
X47710010Y-24148999D02*
G75*
G03*
X49460000Y-25733999I1667590J82599D01*
G01*
X-1230000Y-1250000D02*
X-1230000Y-19250000D01*
X47710000Y-8240000D02*
X40610000Y-8240000D01*
X47710000Y-8240000D02*
X47710000Y-4650000D01*
X49500002Y5216043D02*
G75*
G03*
X47710001Y3601000I-72302J-1719343D01*
G01*
M02*
