M48
; DRILL file {KiCad (6.0.8)} date Mon Nov  7 19:31:10 2022
; FORMAT={-:-/ absolute / metric / decimal}
; #@! TF.CreationDate,2022-11-07T19:31:10+08:00
; #@! TF.GenerationSoftware,Kicad,Pcbnew,(6.0.8)
; #@! TF.FileFunction,MixedPlating,1,2
FMAT,2
METRIC
; #@! TA.AperFunction,Plated,PTH,ViaDrill
T1C0.300
; #@! TA.AperFunction,Plated,PTH,ViaDrill
T2C0.400
; #@! TA.AperFunction,Plated,PTH,ViaDrill
T3C0.500
; #@! TA.AperFunction,Plated,PTH,ComponentDrill
T4C0.600
; #@! TA.AperFunction,Plated,PTH,ComponentDrill
T5C1.000
; #@! TA.AperFunction,Plated,PTH,ComponentDrill
T6C1.200
; #@! TA.AperFunction,Plated,PTH,ComponentDrill
T7C2.200
; #@! TA.AperFunction,NonPlated,NPTH,ComponentDrill
T8C0.650
%
G90
G05
T1
X109.67Y-99.49
X112.65Y-108.8
X113.57Y-108.04
X113.77Y-110.09
X113.77Y-113.36
X114.79Y-98.56
X114.8Y-112.72
X114.81Y-111.155
X116.04Y-112.76
X116.11Y-114.38
X118.22Y-102.11
X119.21Y-101.1
X119.49Y-101.94
X119.95Y-107.19
X121.12Y-113.46
X123.15Y-113.27
X126.88Y-109.35
X129.9Y-105.68
X129.91Y-108.721
X129.91Y-110.67
X132.252Y-116.497
X168.18Y-99.78
X171.18Y-108.67
X173.27Y-114.26
X177.19Y-98.08
X177.2Y-98.91
X177.21Y-99.774
X179.51Y-99.84
X181.44Y-106.0
T2
X112.6Y-103.11
X116.61Y-106.79
X117.0Y-113.221
X118.18Y-109.08
X119.98Y-109.07
X120.1Y-105.16
X121.65Y-101.73
X123.04Y-100.14
X125.06Y-105.18
X126.78Y-113.27
X128.01Y-108.13
X128.94Y-106.7
X128.95Y-109.35
X130.16Y-101.03
X130.88Y-109.35
X130.88Y-113.24
X130.89Y-111.84
X131.48Y-105.28
X168.27Y-105.49
X170.51Y-107.72
X170.52Y-110.02
X171.82Y-106.81
X171.82Y-110.42
X172.02Y-111.95
X178.57Y-111.17
X181.45Y-107.56
X183.47Y-108.39
T3
X111.0Y-109.85
X111.03Y-105.03
T5
X106.94Y-115.94
X109.48Y-115.94
X112.02Y-115.94
X114.56Y-115.94
X133.24Y-102.32
X133.24Y-104.86
X133.24Y-107.4
X133.24Y-109.94
X133.24Y-112.48
X135.78Y-102.32
X135.78Y-104.86
X135.78Y-107.4
X135.78Y-109.94
X135.78Y-112.48
X164.141Y-102.29
X164.141Y-104.83
X164.141Y-107.37
X164.141Y-109.91
X164.141Y-112.45
X166.681Y-102.29
X166.681Y-104.83
X166.681Y-107.37
X166.681Y-109.91
X166.681Y-112.45
X168.185Y-94.894
X168.195Y-119.864
X170.725Y-94.894
X170.735Y-119.864
X173.265Y-94.894
X175.755Y-119.864
X175.805Y-94.894
X178.295Y-119.864
X178.345Y-94.894
X185.588Y-95.792
X185.588Y-98.332
X185.588Y-100.872
X185.588Y-103.412
X185.588Y-105.952
X185.588Y-108.492
X185.588Y-111.032
X185.588Y-113.572
X185.588Y-116.112
X185.588Y-118.652
X188.129Y-95.792
X188.129Y-98.332
X188.129Y-100.872
X188.129Y-103.412
X188.129Y-105.952
X188.129Y-108.492
X188.129Y-111.032
X188.129Y-113.572
X188.129Y-116.112
X188.129Y-118.652
T6
X104.17Y-98.86
X104.17Y-115.86
T7
X134.67Y-115.51
X134.71Y-99.26
X164.294Y-94.81
X164.334Y-119.92
X182.194Y-94.81
X182.214Y-119.95
T8
X108.489Y-104.56
X108.489Y-110.34
T4
G00X105.239Y-103.125
M15
G01X104.339Y-103.125
M16
G05
G00X105.239Y-111.775
M15
G01X104.339Y-111.775
M16
G05
G00X109.589Y-103.125
M15
G01X108.389Y-103.125
M16
G05
G00X109.589Y-111.775
M15
G01X108.389Y-111.775
M16
G05
T0
M30
