M48
; DRILL file {KiCad (6.0.8)} date Mon Nov  7 22:56:00 2022
; FORMAT={-:-/ absolute / inch / decimal}
; #@! TF.CreationDate,2022-11-07T22:56:00+08:00
; #@! TF.GenerationSoftware,Kicad,Pcbnew,(6.0.8)
; #@! TF.FileFunction,Plated,1,2,PTH
FMAT,2
INCH
; #@! TA.AperFunction,Plated,PTH,ViaDrill
T1C0.0118
; #@! TA.AperFunction,Plated,PTH,ViaDrill
T2C0.0157
; #@! TA.AperFunction,Plated,PTH,ViaDrill
T3C0.0197
; #@! TA.AperFunction,Plated,PTH,ComponentDrill
T4C0.0236
; #@! TA.AperFunction,Plated,PTH,ComponentDrill
T5C0.0394
; #@! TA.AperFunction,Plated,PTH,ComponentDrill
T6C0.0472
; #@! TA.AperFunction,Plated,PTH,ComponentDrill
T7C0.0866
%
G90
G05
T1
X4.3177Y-3.9169
X4.435Y-4.2835
X4.4713Y-4.2535
X4.4791Y-4.3343
X4.4791Y-4.463
X4.5193Y-3.8803
X4.5197Y-4.4378
X4.5201Y-4.3762
X4.5685Y-4.4394
X4.5713Y-4.5031
X4.6543Y-4.0201
X4.6933Y-3.9803
X4.7043Y-4.0134
X4.7224Y-4.2201
X4.7685Y-4.4669
X4.8484Y-4.4594
X4.9953Y-4.3051
X5.1142Y-4.1606
X5.1146Y-4.2803
X5.1146Y-4.3571
X5.2068Y-4.5865
X6.4724Y-3.9283
X6.5906Y-4.2783
X6.6728Y-4.4984
X6.8272Y-3.8614
X6.8276Y-3.8941
X6.828Y-3.9281
X6.9185Y-3.9307
X6.9945Y-4.1732
T2
X4.4331Y-4.0594
X4.5909Y-4.2043
X4.6063Y-4.4575
X4.6528Y-4.2945
X4.7236Y-4.2941
X4.7283Y-4.1402
X4.7894Y-4.0051
X4.8441Y-3.9425
X4.9236Y-4.1409
X4.9913Y-4.4594
X5.0398Y-4.2571
X5.0764Y-4.2008
X5.0768Y-4.3051
X5.1244Y-3.9776
X5.1528Y-4.3051
X5.1528Y-4.4583
X5.1531Y-4.4031
X5.1764Y-4.1449
X6.476Y-4.1531
X6.5642Y-4.2409
X6.5646Y-4.3315
X6.6157Y-4.2051
X6.6157Y-4.3472
X6.6236Y-4.4075
X6.8815Y-4.3768
X6.9949Y-4.2346
X7.0744Y-4.2673
T3
X4.3701Y-4.3248
X4.3713Y-4.135
T5
X4.2102Y-4.5646
X4.3102Y-4.5646
X4.4102Y-4.5646
X4.5102Y-4.5646
X5.2457Y-4.0283
X5.2457Y-4.1283
X5.2457Y-4.2283
X5.2457Y-4.3283
X5.2457Y-4.4283
X5.3457Y-4.0283
X5.3457Y-4.1283
X5.3457Y-4.2283
X5.3457Y-4.3283
X5.3457Y-4.4283
X6.3134Y-4.0272
X6.3134Y-4.1272
X6.3134Y-4.2272
X6.3134Y-4.3272
X6.3134Y-4.4272
X6.4134Y-4.0272
X6.4134Y-4.1272
X6.4134Y-4.2272
X6.4134Y-4.3272
X6.4134Y-4.4272
X6.4726Y-3.736
X6.473Y-4.7191
X6.5726Y-3.736
X6.573Y-4.7191
X6.6726Y-3.736
X6.7707Y-4.7191
X6.7726Y-3.736
X6.8707Y-4.7191
X6.8726Y-3.736
X7.1578Y-3.7713
X7.1578Y-3.8713
X7.1578Y-3.9713
X7.1578Y-4.0713
X7.1578Y-4.1713
X7.1578Y-4.2713
X7.1578Y-4.3713
X7.1578Y-4.4713
X7.1578Y-4.5713
X7.1578Y-4.6713
X7.2578Y-3.7713
X7.2578Y-3.8713
X7.2578Y-3.9713
X7.2578Y-4.0713
X7.2578Y-4.1713
X7.2578Y-4.2713
X7.2578Y-4.3713
X7.2578Y-4.4713
X7.2578Y-4.5713
X7.2578Y-4.6713
T6
X4.1012Y-3.8921
X4.1012Y-4.5614
T7
X5.302Y-4.5476
X5.3035Y-3.9079
X6.3194Y-3.7327
X6.321Y-4.7213
X7.0242Y-3.7327
X7.025Y-4.7224
T4
G00X4.1433Y-4.06
M15
G01X4.1078Y-4.06
M16
G05
G00X4.1433Y-4.4006
M15
G01X4.1078Y-4.4006
M16
G05
G00X4.3145Y-4.06
M15
G01X4.2673Y-4.06
M16
G05
G00X4.3145Y-4.4006
M15
G01X4.2673Y-4.4006
M16
G05
T0
M30
