%TF.GenerationSoftware,KiCad,Pcbnew,(6.0.11)*%
%TF.CreationDate,2023-02-06T14:01:38+08:00*%
%TF.ProjectId,UINIO-DAP-Link,55494e49-4f2d-4444-9150-2d4c696e6b2e,Version 3.2.0*%
%TF.SameCoordinates,Original*%
%TF.FileFunction,Paste,Top*%
%TF.FilePolarity,Positive*%
%FSLAX46Y46*%
G04 Gerber Fmt 4.6, Leading zero omitted, Abs format (unit mm)*
G04 Created by KiCad (PCBNEW (6.0.11)) date 2023-02-06 14:01:38*
%MOMM*%
%LPD*%
G01*
G04 APERTURE LIST*
G04 Aperture macros list*
%AMRoundRect*
0 Rectangle with rounded corners*
0 $1 Rounding radius*
0 $2 $3 $4 $5 $6 $7 $8 $9 X,Y pos of 4 corners*
0 Add a 4 corners polygon primitive as box body*
4,1,4,$2,$3,$4,$5,$6,$7,$8,$9,$2,$3,0*
0 Add four circle primitives for the rounded corners*
1,1,$1+$1,$2,$3*
1,1,$1+$1,$4,$5*
1,1,$1+$1,$6,$7*
1,1,$1+$1,$8,$9*
0 Add four rect primitives between the rounded corners*
20,1,$1+$1,$2,$3,$4,$5,0*
20,1,$1+$1,$4,$5,$6,$7,0*
20,1,$1+$1,$6,$7,$8,$9,0*
20,1,$1+$1,$8,$9,$2,$3,0*%
%AMHorizOval*
0 Thick line with rounded ends*
0 $1 width*
0 $2 $3 position (X,Y) of the first rounded end (center of the circle)*
0 $4 $5 position (X,Y) of the second rounded end (center of the circle)*
0 Add line between two ends*
20,1,$1,$2,$3,$4,$5,0*
0 Add two circle primitives to create the rounded ends*
1,1,$1,$2,$3*
1,1,$1,$4,$5*%
G04 Aperture macros list end*
%ADD10C,0.120000*%
%ADD11HorizOval,0.270000X-0.434871X0.434871X0.434871X-0.434871X0*%
%ADD12HorizOval,0.270000X0.434871X0.434871X-0.434871X-0.434871X0*%
%ADD13RoundRect,0.200000X0.200000X0.275000X-0.200000X0.275000X-0.200000X-0.275000X0.200000X-0.275000X0*%
%ADD14RoundRect,0.218750X0.218750X0.256250X-0.218750X0.256250X-0.218750X-0.256250X0.218750X-0.256250X0*%
%ADD15RoundRect,0.225000X-0.250000X0.225000X-0.250000X-0.225000X0.250000X-0.225000X0.250000X0.225000X0*%
%ADD16RoundRect,0.200000X-0.275000X0.200000X-0.275000X-0.200000X0.275000X-0.200000X0.275000X0.200000X0*%
%ADD17RoundRect,0.225000X-0.225000X-0.250000X0.225000X-0.250000X0.225000X0.250000X-0.225000X0.250000X0*%
%ADD18RoundRect,0.200000X-0.200000X-0.275000X0.200000X-0.275000X0.200000X0.275000X-0.200000X0.275000X0*%
%ADD19R,1.200000X1.400000*%
%ADD20RoundRect,0.218750X0.256250X-0.218750X0.256250X0.218750X-0.256250X0.218750X-0.256250X-0.218750X0*%
%ADD21RoundRect,0.200000X0.275000X-0.200000X0.275000X0.200000X-0.275000X0.200000X-0.275000X-0.200000X0*%
%ADD22R,1.000000X0.600000*%
%ADD23RoundRect,0.218750X-0.256250X0.218750X-0.256250X-0.218750X0.256250X-0.218750X0.256250X0.218750X0*%
%ADD24RoundRect,0.225000X0.225000X0.250000X-0.225000X0.250000X-0.225000X-0.250000X0.225000X-0.250000X0*%
%ADD25R,1.150000X0.600000*%
%ADD26R,1.150000X0.300000*%
%ADD27RoundRect,0.225000X0.250000X-0.225000X0.250000X0.225000X-0.250000X0.225000X-0.250000X-0.225000X0*%
G04 APERTURE END LIST*
%TO.C,USB1*%
G36*
X105336000Y-111285000D02*
G01*
X105430000Y-111313000D01*
X105516000Y-111359000D01*
X105592000Y-111421000D01*
X105654000Y-111497000D01*
X105701000Y-111584000D01*
X105729000Y-111677000D01*
X105739000Y-111775000D01*
X105729000Y-111873000D01*
X105701000Y-111966000D01*
X105654000Y-112053000D01*
X105592000Y-112129000D01*
X105516000Y-112191000D01*
X105430000Y-112237000D01*
X105336000Y-112265000D01*
X105239000Y-112275000D01*
X104339000Y-112275000D01*
X104241000Y-112265000D01*
X104147000Y-112237000D01*
X104061000Y-112191000D01*
X103985000Y-112129000D01*
X103923000Y-112053000D01*
X103877000Y-111966000D01*
X103848000Y-111873000D01*
X103839000Y-111775000D01*
X103848000Y-111677000D01*
X103877000Y-111584000D01*
X103923000Y-111497000D01*
X103985000Y-111421000D01*
X104061000Y-111359000D01*
X104147000Y-111313000D01*
X104241000Y-111285000D01*
X104339000Y-111275000D01*
X105239000Y-111275000D01*
X105336000Y-111285000D01*
G37*
D10*
X105336000Y-111285000D02*
X105430000Y-111313000D01*
X105516000Y-111359000D01*
X105592000Y-111421000D01*
X105654000Y-111497000D01*
X105701000Y-111584000D01*
X105729000Y-111677000D01*
X105739000Y-111775000D01*
X105729000Y-111873000D01*
X105701000Y-111966000D01*
X105654000Y-112053000D01*
X105592000Y-112129000D01*
X105516000Y-112191000D01*
X105430000Y-112237000D01*
X105336000Y-112265000D01*
X105239000Y-112275000D01*
X104339000Y-112275000D01*
X104241000Y-112265000D01*
X104147000Y-112237000D01*
X104061000Y-112191000D01*
X103985000Y-112129000D01*
X103923000Y-112053000D01*
X103877000Y-111966000D01*
X103848000Y-111873000D01*
X103839000Y-111775000D01*
X103848000Y-111677000D01*
X103877000Y-111584000D01*
X103923000Y-111497000D01*
X103985000Y-111421000D01*
X104061000Y-111359000D01*
X104147000Y-111313000D01*
X104241000Y-111285000D01*
X104339000Y-111275000D01*
X105239000Y-111275000D01*
X105336000Y-111285000D01*
G36*
X110326000Y-105850000D02*
G01*
X109176000Y-105850000D01*
X109176000Y-105550000D01*
X110326000Y-105550000D01*
X110326000Y-105850000D01*
G37*
X110326000Y-105850000D02*
X109176000Y-105850000D01*
X109176000Y-105550000D01*
X110326000Y-105550000D01*
X110326000Y-105850000D01*
G36*
X110326000Y-104550000D02*
G01*
X109176000Y-104550000D01*
X109176000Y-103950000D01*
X110326000Y-103950000D01*
X110326000Y-104550000D01*
G37*
X110326000Y-104550000D02*
X109176000Y-104550000D01*
X109176000Y-103950000D01*
X110326000Y-103950000D01*
X110326000Y-104550000D01*
G36*
X109636000Y-111285000D02*
G01*
X109730000Y-111313000D01*
X109816000Y-111359000D01*
X109892000Y-111421000D01*
X109954000Y-111497000D01*
X110001000Y-111584000D01*
X110029000Y-111677000D01*
X110039000Y-111775000D01*
X110029000Y-111873000D01*
X110001000Y-111966000D01*
X109954000Y-112053000D01*
X109892000Y-112129000D01*
X109816000Y-112191000D01*
X109730000Y-112237000D01*
X109636000Y-112265000D01*
X109539000Y-112275000D01*
X108439000Y-112275000D01*
X108341000Y-112265000D01*
X108247000Y-112237000D01*
X108161000Y-112191000D01*
X108085000Y-112129000D01*
X108023000Y-112053000D01*
X107977000Y-111966000D01*
X107948000Y-111873000D01*
X107939000Y-111775000D01*
X107948000Y-111677000D01*
X107977000Y-111584000D01*
X108023000Y-111497000D01*
X108085000Y-111421000D01*
X108161000Y-111359000D01*
X108247000Y-111313000D01*
X108341000Y-111285000D01*
X108439000Y-111275000D01*
X109539000Y-111275000D01*
X109636000Y-111285000D01*
G37*
X109636000Y-111285000D02*
X109730000Y-111313000D01*
X109816000Y-111359000D01*
X109892000Y-111421000D01*
X109954000Y-111497000D01*
X110001000Y-111584000D01*
X110029000Y-111677000D01*
X110039000Y-111775000D01*
X110029000Y-111873000D01*
X110001000Y-111966000D01*
X109954000Y-112053000D01*
X109892000Y-112129000D01*
X109816000Y-112191000D01*
X109730000Y-112237000D01*
X109636000Y-112265000D01*
X109539000Y-112275000D01*
X108439000Y-112275000D01*
X108341000Y-112265000D01*
X108247000Y-112237000D01*
X108161000Y-112191000D01*
X108085000Y-112129000D01*
X108023000Y-112053000D01*
X107977000Y-111966000D01*
X107948000Y-111873000D01*
X107939000Y-111775000D01*
X107948000Y-111677000D01*
X107977000Y-111584000D01*
X108023000Y-111497000D01*
X108085000Y-111421000D01*
X108161000Y-111359000D01*
X108247000Y-111313000D01*
X108341000Y-111285000D01*
X108439000Y-111275000D01*
X109539000Y-111275000D01*
X109636000Y-111285000D01*
G36*
X110326000Y-110950000D02*
G01*
X109176000Y-110950000D01*
X109176000Y-110350000D01*
X110326000Y-110350000D01*
X110326000Y-110950000D01*
G37*
X110326000Y-110950000D02*
X109176000Y-110950000D01*
X109176000Y-110350000D01*
X110326000Y-110350000D01*
X110326000Y-110950000D01*
G36*
X110326000Y-105350000D02*
G01*
X109176000Y-105350000D01*
X109176000Y-104750000D01*
X110326000Y-104750000D01*
X110326000Y-105350000D01*
G37*
X110326000Y-105350000D02*
X109176000Y-105350000D01*
X109176000Y-104750000D01*
X110326000Y-104750000D01*
X110326000Y-105350000D01*
G36*
X110326000Y-108850000D02*
G01*
X109176000Y-108850000D01*
X109176000Y-108550000D01*
X110326000Y-108550000D01*
X110326000Y-108850000D01*
G37*
X110326000Y-108850000D02*
X109176000Y-108850000D01*
X109176000Y-108550000D01*
X110326000Y-108550000D01*
X110326000Y-108850000D01*
G36*
X110326000Y-107850000D02*
G01*
X109176000Y-107850000D01*
X109176000Y-107550000D01*
X110326000Y-107550000D01*
X110326000Y-107850000D01*
G37*
X110326000Y-107850000D02*
X109176000Y-107850000D01*
X109176000Y-107550000D01*
X110326000Y-107550000D01*
X110326000Y-107850000D01*
G36*
X110326000Y-106350000D02*
G01*
X109176000Y-106350000D01*
X109176000Y-106050000D01*
X110326000Y-106050000D01*
X110326000Y-106350000D01*
G37*
X110326000Y-106350000D02*
X109176000Y-106350000D01*
X109176000Y-106050000D01*
X110326000Y-106050000D01*
X110326000Y-106350000D01*
G36*
X110326000Y-109350000D02*
G01*
X109176000Y-109350000D01*
X109176000Y-109050000D01*
X110326000Y-109050000D01*
X110326000Y-109350000D01*
G37*
X110326000Y-109350000D02*
X109176000Y-109350000D01*
X109176000Y-109050000D01*
X110326000Y-109050000D01*
X110326000Y-109350000D01*
G36*
X110326000Y-110150000D02*
G01*
X109176000Y-110150000D01*
X109176000Y-109550000D01*
X110326000Y-109550000D01*
X110326000Y-110150000D01*
G37*
X110326000Y-110150000D02*
X109176000Y-110150000D01*
X109176000Y-109550000D01*
X110326000Y-109550000D01*
X110326000Y-110150000D01*
G36*
X110326000Y-107350000D02*
G01*
X109176000Y-107350000D01*
X109176000Y-107050000D01*
X110326000Y-107050000D01*
X110326000Y-107350000D01*
G37*
X110326000Y-107350000D02*
X109176000Y-107350000D01*
X109176000Y-107050000D01*
X110326000Y-107050000D01*
X110326000Y-107350000D01*
G36*
X110326000Y-108350000D02*
G01*
X109176000Y-108350000D01*
X109176000Y-108050000D01*
X110326000Y-108050000D01*
X110326000Y-108350000D01*
G37*
X110326000Y-108350000D02*
X109176000Y-108350000D01*
X109176000Y-108050000D01*
X110326000Y-108050000D01*
X110326000Y-108350000D01*
G36*
X110326000Y-106850000D02*
G01*
X109176000Y-106850000D01*
X109176000Y-106550000D01*
X110326000Y-106550000D01*
X110326000Y-106850000D01*
G37*
X110326000Y-106850000D02*
X109176000Y-106850000D01*
X109176000Y-106550000D01*
X110326000Y-106550000D01*
X110326000Y-106850000D01*
G36*
X105336000Y-102635000D02*
G01*
X105430000Y-102663000D01*
X105516000Y-102709000D01*
X105592000Y-102771000D01*
X105654000Y-102847000D01*
X105701000Y-102934000D01*
X105729000Y-103027000D01*
X105739000Y-103125000D01*
X105729000Y-103223000D01*
X105701000Y-103316000D01*
X105654000Y-103403000D01*
X105592000Y-103479000D01*
X105516000Y-103541000D01*
X105430000Y-103587000D01*
X105336000Y-103615000D01*
X105239000Y-103625000D01*
X104339000Y-103625000D01*
X104241000Y-103615000D01*
X104147000Y-103587000D01*
X104061000Y-103541000D01*
X103985000Y-103479000D01*
X103923000Y-103403000D01*
X103877000Y-103316000D01*
X103848000Y-103223000D01*
X103839000Y-103125000D01*
X103848000Y-103027000D01*
X103877000Y-102934000D01*
X103923000Y-102847000D01*
X103985000Y-102771000D01*
X104061000Y-102709000D01*
X104147000Y-102663000D01*
X104241000Y-102635000D01*
X104339000Y-102625000D01*
X105239000Y-102625000D01*
X105336000Y-102635000D01*
G37*
X105336000Y-102635000D02*
X105430000Y-102663000D01*
X105516000Y-102709000D01*
X105592000Y-102771000D01*
X105654000Y-102847000D01*
X105701000Y-102934000D01*
X105729000Y-103027000D01*
X105739000Y-103125000D01*
X105729000Y-103223000D01*
X105701000Y-103316000D01*
X105654000Y-103403000D01*
X105592000Y-103479000D01*
X105516000Y-103541000D01*
X105430000Y-103587000D01*
X105336000Y-103615000D01*
X105239000Y-103625000D01*
X104339000Y-103625000D01*
X104241000Y-103615000D01*
X104147000Y-103587000D01*
X104061000Y-103541000D01*
X103985000Y-103479000D01*
X103923000Y-103403000D01*
X103877000Y-103316000D01*
X103848000Y-103223000D01*
X103839000Y-103125000D01*
X103848000Y-103027000D01*
X103877000Y-102934000D01*
X103923000Y-102847000D01*
X103985000Y-102771000D01*
X104061000Y-102709000D01*
X104147000Y-102663000D01*
X104241000Y-102635000D01*
X104339000Y-102625000D01*
X105239000Y-102625000D01*
X105336000Y-102635000D01*
G36*
X109636000Y-102635000D02*
G01*
X109730000Y-102663000D01*
X109816000Y-102709000D01*
X109892000Y-102771000D01*
X109954000Y-102847000D01*
X110001000Y-102934000D01*
X110029000Y-103027000D01*
X110039000Y-103125000D01*
X110029000Y-103223000D01*
X110001000Y-103316000D01*
X109954000Y-103403000D01*
X109892000Y-103479000D01*
X109816000Y-103541000D01*
X109730000Y-103587000D01*
X109636000Y-103615000D01*
X109539000Y-103625000D01*
X108439000Y-103625000D01*
X108341000Y-103615000D01*
X108247000Y-103587000D01*
X108161000Y-103541000D01*
X108085000Y-103479000D01*
X108023000Y-103403000D01*
X107977000Y-103316000D01*
X107948000Y-103223000D01*
X107939000Y-103125000D01*
X107948000Y-103027000D01*
X107977000Y-102934000D01*
X108023000Y-102847000D01*
X108085000Y-102771000D01*
X108161000Y-102709000D01*
X108247000Y-102663000D01*
X108341000Y-102635000D01*
X108439000Y-102625000D01*
X109539000Y-102625000D01*
X109636000Y-102635000D01*
G37*
X109636000Y-102635000D02*
X109730000Y-102663000D01*
X109816000Y-102709000D01*
X109892000Y-102771000D01*
X109954000Y-102847000D01*
X110001000Y-102934000D01*
X110029000Y-103027000D01*
X110039000Y-103125000D01*
X110029000Y-103223000D01*
X110001000Y-103316000D01*
X109954000Y-103403000D01*
X109892000Y-103479000D01*
X109816000Y-103541000D01*
X109730000Y-103587000D01*
X109636000Y-103615000D01*
X109539000Y-103625000D01*
X108439000Y-103625000D01*
X108341000Y-103615000D01*
X108247000Y-103587000D01*
X108161000Y-103541000D01*
X108085000Y-103479000D01*
X108023000Y-103403000D01*
X107977000Y-103316000D01*
X107948000Y-103223000D01*
X107939000Y-103125000D01*
X107948000Y-103027000D01*
X107977000Y-102934000D01*
X108023000Y-102847000D01*
X108085000Y-102771000D01*
X108161000Y-102709000D01*
X108247000Y-102663000D01*
X108341000Y-102635000D01*
X108439000Y-102625000D01*
X109539000Y-102625000D01*
X109636000Y-102635000D01*
%TD*%
D11*
%TO.C,U2*%
X122880660Y-112229747D03*
X123234214Y-111876194D03*
X123587767Y-111522641D03*
X123941320Y-111169087D03*
X124294874Y-110815534D03*
X124648427Y-110461981D03*
X125001981Y-110108427D03*
X125355534Y-109754874D03*
X125709087Y-109401320D03*
X126062641Y-109047767D03*
X126416194Y-108694214D03*
X126769747Y-108340660D03*
D12*
X126769747Y-106219340D03*
X126416194Y-105865786D03*
X126062641Y-105512233D03*
X125709087Y-105158680D03*
X125355534Y-104805126D03*
X125001981Y-104451573D03*
X124648427Y-104098019D03*
X124294874Y-103744466D03*
X123941320Y-103390913D03*
X123587767Y-103037359D03*
X123234214Y-102683806D03*
X122880660Y-102330253D03*
D11*
X120759340Y-102330253D03*
X120405786Y-102683806D03*
X120052233Y-103037359D03*
X119698680Y-103390913D03*
X119345126Y-103744466D03*
X118991573Y-104098019D03*
X118638019Y-104451573D03*
X118284466Y-104805126D03*
X117930913Y-105158680D03*
X117577359Y-105512233D03*
X117223806Y-105865786D03*
X116870253Y-106219340D03*
D12*
X116870253Y-108340660D03*
X117223806Y-108694214D03*
X117577359Y-109047767D03*
X117930913Y-109401320D03*
X118284466Y-109754874D03*
X118638019Y-110108427D03*
X118991573Y-110461981D03*
X119345126Y-110815534D03*
X119698680Y-111169087D03*
X120052233Y-111522641D03*
X120405786Y-111876194D03*
X120759340Y-112229747D03*
%TD*%
D13*
%TO.C,R17*%
X114375000Y-110240000D03*
X112725000Y-110240000D03*
%TD*%
%TO.C,R16*%
X112725000Y-104400000D03*
X114375000Y-104400000D03*
%TD*%
D14*
%TO.C,D1*%
X171057500Y-112710000D03*
X169482500Y-112710000D03*
%TD*%
D15*
%TO.C,C3*%
X130850000Y-114195000D03*
X130850000Y-115745000D03*
%TD*%
D16*
%TO.C,R11*%
X119960000Y-114965000D03*
X119960000Y-116615000D03*
%TD*%
D17*
%TO.C,C2*%
X111025000Y-98534000D03*
X112575000Y-98534000D03*
%TD*%
D18*
%TO.C,R2*%
X173094000Y-104550000D03*
X174744000Y-104550000D03*
%TD*%
D14*
%TO.C,D3*%
X171047500Y-102330000D03*
X169472500Y-102330000D03*
%TD*%
D15*
%TO.C,C5*%
X123340000Y-115015000D03*
X123340000Y-116565000D03*
%TD*%
D19*
%TO.C,Y1*%
X127570000Y-112320000D03*
X127570000Y-114520000D03*
X129270000Y-114520000D03*
X129270000Y-112320000D03*
%TD*%
D20*
%TO.C,D4*%
X118230000Y-116537500D03*
X118230000Y-114962500D03*
%TD*%
D18*
%TO.C,R3*%
X173094000Y-102340000D03*
X174744000Y-102340000D03*
%TD*%
D21*
%TO.C,R12*%
X119960000Y-99875000D03*
X119960000Y-98225000D03*
%TD*%
D22*
%TO.C,U1*%
X107070000Y-98574000D03*
X107070000Y-99524000D03*
X107070000Y-100474000D03*
X109670000Y-100474000D03*
X109670000Y-98574000D03*
%TD*%
D23*
%TO.C,D5*%
X118230000Y-99837500D03*
X118230000Y-98262500D03*
%TD*%
D24*
%TO.C,C1*%
X112575000Y-100464000D03*
X111025000Y-100464000D03*
%TD*%
D16*
%TO.C,R6*%
X125030000Y-114965000D03*
X125030000Y-116615000D03*
%TD*%
D25*
%TO.C,USB1*%
X109751000Y-104250000D03*
X109751000Y-105050000D03*
D26*
X109751000Y-106200000D03*
X109751000Y-107200000D03*
X109751000Y-107700000D03*
X109751000Y-108700000D03*
D25*
X109751000Y-110650000D03*
X109751000Y-109850000D03*
D26*
X109751000Y-109200000D03*
X109751000Y-108200000D03*
X109751000Y-106700000D03*
X109751000Y-105700000D03*
%TD*%
D13*
%TO.C,R5*%
X171105000Y-107770000D03*
X169455000Y-107770000D03*
%TD*%
%TO.C,R15*%
X114375000Y-108780000D03*
X112725000Y-108780000D03*
%TD*%
%TO.C,R13*%
X114375000Y-107320000D03*
X112725000Y-107320000D03*
%TD*%
D21*
%TO.C,R7*%
X125030000Y-99875000D03*
X125030000Y-98225000D03*
%TD*%
D13*
%TO.C,R14*%
X114375000Y-105860000D03*
X112725000Y-105860000D03*
%TD*%
D14*
%TO.C,D2*%
X171047500Y-104510000D03*
X169472500Y-104510000D03*
%TD*%
D27*
%TO.C,C4*%
X130850000Y-112785000D03*
X130850000Y-111235000D03*
%TD*%
D21*
%TO.C,R8*%
X123340000Y-98225000D03*
X123340000Y-99875000D03*
%TD*%
D16*
%TO.C,R9*%
X121650000Y-99875000D03*
X121650000Y-98225000D03*
%TD*%
D13*
%TO.C,R1*%
X174805000Y-112710000D03*
X173155000Y-112710000D03*
%TD*%
%TO.C,R4*%
X171105000Y-109550000D03*
X169455000Y-109550000D03*
%TD*%
D16*
%TO.C,R10*%
X121650000Y-114965000D03*
X121650000Y-116615000D03*
%TD*%
M02*
