%TF.GenerationSoftware,KiCad,Pcbnew,(6.0.11)*%
%TF.CreationDate,2023-02-06T14:01:38+08:00*%
%TF.ProjectId,UINIO-DAP-Link,55494e49-4f2d-4444-9150-2d4c696e6b2e,Version 3.2.0*%
%TF.SameCoordinates,Original*%
%TF.FileFunction,Profile,NP*%
%FSLAX46Y46*%
G04 Gerber Fmt 4.6, Leading zero omitted, Abs format (unit mm)*
G04 Created by KiCad (PCBNEW (6.0.11)) date 2023-02-06 14:01:38*
%MOMM*%
%LPD*%
G01*
G04 APERTURE LIST*
%TA.AperFunction,Profile*%
%ADD10C,0.100000*%
%TD*%
G04 APERTURE END LIST*
D10*
X144520000Y-101750000D02*
X151620000Y-101750000D01*
X104029997Y-97100055D02*
G75*
G03*
X102680000Y-98350000I-68197J-1280345D01*
G01*
X193084000Y-93520000D02*
X193084000Y-121270000D01*
X144520000Y-106610000D02*
X144520000Y-101750000D01*
X104030000Y-117700000D02*
X143470000Y-117700000D01*
X144520010Y-98110000D02*
G75*
G03*
X143420000Y-97100000I-1050410J-40000D01*
G01*
X151620000Y-100180000D02*
X151620000Y-93499000D01*
X144520000Y-108180000D02*
X151620000Y-108180000D01*
X193083967Y-93519999D02*
G75*
G03*
X191410000Y-91884000I-1587467J50099D01*
G01*
X151620000Y-108180000D02*
X151620000Y-113050000D01*
X144520000Y-114620000D02*
X151620000Y-114620000D01*
X143469999Y-117700055D02*
G75*
G03*
X144520000Y-116610000I25001J1026655D01*
G01*
X191370000Y-122834026D02*
G75*
G03*
X193084000Y-121270000I3800J1717026D01*
G01*
X144520000Y-108180000D02*
X144520000Y-113050000D01*
X144520000Y-98110000D02*
X144520000Y-100180000D01*
X153410000Y-91884000D02*
X191410000Y-91884000D01*
X151620000Y-114620000D02*
X151620000Y-121249000D01*
X102680000Y-116350000D02*
G75*
G03*
X104030000Y-117700000I1286300J-63700D01*
G01*
X151620000Y-113050000D02*
X144520000Y-113050000D01*
X144520000Y-100180000D02*
X151620000Y-100180000D01*
X144520000Y-116610000D02*
X144520000Y-114620000D01*
X104030000Y-97100000D02*
X143420000Y-97100000D01*
X153370000Y-122834000D02*
X191370000Y-122834000D01*
X151620009Y-121249000D02*
G75*
G03*
X153370000Y-122834000I1667591J82600D01*
G01*
X102680000Y-98350000D02*
X102680000Y-116350000D01*
X151620000Y-106610000D02*
X144520000Y-106610000D01*
X151620000Y-106610000D02*
X151620000Y-101750000D01*
X153410002Y-91883956D02*
G75*
G03*
X151620000Y-93499000I-72302J-1719344D01*
G01*
M02*
