%TF.GenerationSoftware,KiCad,Pcbnew,(6.0.9)*%
%TF.CreationDate,2022-11-17T02:12:51+08:00*%
%TF.ProjectId,UINIO-DAP-Link,55494e49-4f2d-4444-9150-2d4c696e6b2e,Version 1.0.0*%
%TF.SameCoordinates,Original*%
%TF.FileFunction,Legend,Top*%
%TF.FilePolarity,Positive*%
%FSLAX46Y46*%
G04 Gerber Fmt 4.6, Leading zero omitted, Abs format (unit mm)*
G04 Created by KiCad (PCBNEW (6.0.9)) date 2022-11-17 02:12:51*
%MOMM*%
%LPD*%
G01*
G04 APERTURE LIST*
G04 Aperture macros list*
%AMRoundRect*
0 Rectangle with rounded corners*
0 $1 Rounding radius*
0 $2 $3 $4 $5 $6 $7 $8 $9 X,Y pos of 4 corners*
0 Add a 4 corners polygon primitive as box body*
4,1,4,$2,$3,$4,$5,$6,$7,$8,$9,$2,$3,0*
0 Add four circle primitives for the rounded corners*
1,1,$1+$1,$2,$3*
1,1,$1+$1,$4,$5*
1,1,$1+$1,$6,$7*
1,1,$1+$1,$8,$9*
0 Add four rect primitives between the rounded corners*
20,1,$1+$1,$2,$3,$4,$5,0*
20,1,$1+$1,$4,$5,$6,$7,0*
20,1,$1+$1,$6,$7,$8,$9,0*
20,1,$1+$1,$8,$9,$2,$3,0*%
%AMHorizOval*
0 Thick line with rounded ends*
0 $1 width*
0 $2 $3 position (X,Y) of the first rounded end (center of the circle)*
0 $4 $5 position (X,Y) of the second rounded end (center of the circle)*
0 Add line between two ends*
20,1,$1,$2,$3,$4,$5,0*
0 Add two circle primitives to create the rounded ends*
1,1,$1,$2,$3*
1,1,$1,$4,$5*%
G04 Aperture macros list end*
%ADD10C,0.100000*%
%ADD11C,0.200000*%
%ADD12C,0.300000*%
%ADD13C,0.120000*%
%ADD14C,0.254000*%
%ADD15C,0.400000*%
%ADD16R,1.700000X1.700000*%
%ADD17O,1.700000X1.700000*%
%ADD18C,1.200000*%
%ADD19RoundRect,0.250000X-0.600000X-0.600000X0.600000X-0.600000X0.600000X0.600000X-0.600000X0.600000X0*%
%ADD20C,1.700000*%
%ADD21RoundRect,0.218750X0.218750X0.256250X-0.218750X0.256250X-0.218750X-0.256250X0.218750X-0.256250X0*%
%ADD22RoundRect,0.225000X-0.250000X0.225000X-0.250000X-0.225000X0.250000X-0.225000X0.250000X0.225000X0*%
%ADD23RoundRect,0.200000X-0.275000X0.200000X-0.275000X-0.200000X0.275000X-0.200000X0.275000X0.200000X0*%
%ADD24RoundRect,0.225000X-0.225000X-0.250000X0.225000X-0.250000X0.225000X0.250000X-0.225000X0.250000X0*%
%ADD25RoundRect,0.200000X-0.200000X-0.275000X0.200000X-0.275000X0.200000X0.275000X-0.200000X0.275000X0*%
%ADD26C,2.200000*%
%ADD27RoundRect,0.225000X0.250000X-0.225000X0.250000X0.225000X-0.250000X0.225000X-0.250000X-0.225000X0*%
%ADD28R,1.200000X1.400000*%
%ADD29RoundRect,0.218750X0.256250X-0.218750X0.256250X0.218750X-0.256250X0.218750X-0.256250X-0.218750X0*%
%ADD30R,1.000000X0.600000*%
%ADD31RoundRect,0.225000X0.225000X0.250000X-0.225000X0.250000X-0.225000X-0.250000X0.225000X-0.250000X0*%
%ADD32RoundRect,0.200000X0.275000X-0.200000X0.275000X0.200000X-0.275000X0.200000X-0.275000X-0.200000X0*%
%ADD33RoundRect,0.250000X0.600000X0.600000X-0.600000X0.600000X-0.600000X-0.600000X0.600000X-0.600000X0*%
%ADD34HorizOval,0.270000X0.434871X0.434871X-0.434871X-0.434871X0*%
%ADD35HorizOval,0.270000X-0.434871X0.434871X0.434871X-0.434871X0*%
%ADD36C,0.650000*%
%ADD37O,2.100000X1.000000*%
%ADD38O,1.900000X1.000000*%
%ADD39R,1.150000X0.600000*%
%ADD40R,1.150000X0.300000*%
%ADD41RoundRect,0.200000X0.200000X0.275000X-0.200000X0.275000X-0.200000X-0.275000X0.200000X-0.275000X0*%
G04 APERTURE END LIST*
D10*
X106335389Y-113769636D02*
X106264678Y-113793206D01*
X106193967Y-113863917D01*
X106146827Y-113958198D01*
X106146827Y-114052478D01*
X106170397Y-114123189D01*
X106241108Y-114241040D01*
X106311818Y-114311751D01*
X106429669Y-114382462D01*
X106500380Y-114406032D01*
X106594661Y-114406032D01*
X106688942Y-114358891D01*
X106736082Y-114311751D01*
X106783223Y-114217470D01*
X106783223Y-114170330D01*
X106618231Y-114005338D01*
X106523950Y-114099619D01*
X107042495Y-114005338D02*
X106547521Y-113510363D01*
X107325338Y-113722495D01*
X106830363Y-113227521D01*
X107561040Y-113486793D02*
X107066066Y-112991818D01*
X107183917Y-112873967D01*
X107278198Y-112826827D01*
X107372478Y-112826827D01*
X107443189Y-112850397D01*
X107561040Y-112921108D01*
X107631751Y-112991818D01*
X107702462Y-113109669D01*
X107726032Y-113180380D01*
X107726032Y-113274661D01*
X107678891Y-113368942D01*
X107561040Y-113486793D01*
X113508265Y-113959619D02*
X113814678Y-113653206D01*
X113838248Y-114006759D01*
X113908959Y-113936049D01*
X113979669Y-113912478D01*
X114026810Y-113912478D01*
X114097521Y-113936049D01*
X114215372Y-114053900D01*
X114238942Y-114124610D01*
X114238942Y-114171751D01*
X114215372Y-114242462D01*
X114073950Y-114383883D01*
X114003240Y-114407453D01*
X113956099Y-114407453D01*
X114474644Y-113888908D02*
X114521785Y-113888908D01*
X114521785Y-113936049D01*
X114474644Y-113936049D01*
X114474644Y-113888908D01*
X114521785Y-113936049D01*
X114215372Y-113252512D02*
X114521785Y-112946099D01*
X114545355Y-113299653D01*
X114616066Y-113228942D01*
X114686776Y-113205372D01*
X114733917Y-113205372D01*
X114804627Y-113228942D01*
X114922478Y-113346793D01*
X114946049Y-113417504D01*
X114946049Y-113464644D01*
X114922478Y-113535355D01*
X114781057Y-113676776D01*
X114710346Y-113700346D01*
X114663206Y-113700346D01*
X114663206Y-112804678D02*
X115323172Y-113134661D01*
X114993189Y-112474695D01*
X111481471Y-114399221D02*
X111575752Y-114352081D01*
X111693603Y-114234230D01*
X111717174Y-114163519D01*
X111717174Y-114116379D01*
X111693603Y-114045668D01*
X111646463Y-113998528D01*
X111575752Y-113974957D01*
X111528612Y-113974957D01*
X111457901Y-113998528D01*
X111340050Y-114069238D01*
X111269339Y-114092809D01*
X111222199Y-114092809D01*
X111151488Y-114069238D01*
X111104348Y-114022098D01*
X111080778Y-113951387D01*
X111080778Y-113904247D01*
X111104348Y-113833536D01*
X111222199Y-113715685D01*
X111316480Y-113668544D01*
X111457901Y-113479983D02*
X112070727Y-113857106D01*
X111811455Y-113409272D01*
X112259289Y-113668544D01*
X111882165Y-113055719D01*
X112565702Y-113362132D02*
X112070727Y-112867157D01*
X112188578Y-112749306D01*
X112282859Y-112702165D01*
X112377140Y-112702165D01*
X112447851Y-112725735D01*
X112565702Y-112796446D01*
X112636412Y-112867157D01*
X112707123Y-112985008D01*
X112730693Y-113055719D01*
X112730693Y-113150000D01*
X112683553Y-113244280D01*
X112565702Y-113362132D01*
X113060677Y-112867157D02*
X112565702Y-112372182D01*
X112895685Y-112042199D02*
X112989966Y-111947918D01*
X113060677Y-111924348D01*
X113154957Y-111924348D01*
X113272809Y-111995058D01*
X113437800Y-112160050D01*
X113508511Y-112277901D01*
X113508511Y-112372182D01*
X113484941Y-112442893D01*
X113390660Y-112537174D01*
X113319949Y-112560744D01*
X113225668Y-112560744D01*
X113107817Y-112490033D01*
X112942825Y-112325042D01*
X112872115Y-112207190D01*
X112872115Y-112112910D01*
X112895685Y-112042199D01*
X108970761Y-114389932D02*
X109065042Y-114342792D01*
X109182893Y-114224941D01*
X109206463Y-114154230D01*
X109206463Y-114107089D01*
X109182893Y-114036379D01*
X109135752Y-113989238D01*
X109065042Y-113965668D01*
X109017901Y-113965668D01*
X108947190Y-113989238D01*
X108829339Y-114059949D01*
X108758629Y-114083519D01*
X108711488Y-114083519D01*
X108640778Y-114059949D01*
X108593637Y-114012809D01*
X108570067Y-113942098D01*
X108570067Y-113894957D01*
X108593637Y-113824247D01*
X108711488Y-113706396D01*
X108805769Y-113659255D01*
X108947190Y-113470693D02*
X109560016Y-113847817D01*
X109300744Y-113399983D01*
X109748578Y-113659255D01*
X109371455Y-113046429D01*
X110290693Y-113022859D02*
X110290693Y-113070000D01*
X110243553Y-113164280D01*
X110196412Y-113211421D01*
X110102132Y-113258561D01*
X110007851Y-113258561D01*
X109937140Y-113234991D01*
X109819289Y-113164280D01*
X109748578Y-113093570D01*
X109677867Y-112975719D01*
X109654297Y-112905008D01*
X109654297Y-112810727D01*
X109701438Y-112716446D01*
X109748578Y-112669306D01*
X109842859Y-112622165D01*
X109889999Y-112622165D01*
X110785668Y-112622165D02*
X110549966Y-112857867D01*
X110054991Y-112362893D01*
X110950660Y-112457174D02*
X110455685Y-111962199D01*
X111233502Y-112174331D02*
X110738528Y-112103620D01*
X110738528Y-111679356D02*
X110738528Y-112245042D01*
D11*
X172500000Y-97388095D02*
X172547619Y-97292857D01*
X172547619Y-97150000D01*
X172500000Y-97007142D01*
X172404761Y-96911904D01*
X172309523Y-96864285D01*
X172119047Y-96816666D01*
X171976190Y-96816666D01*
X171785714Y-96864285D01*
X171690476Y-96911904D01*
X171595238Y-97007142D01*
X171547619Y-97150000D01*
X171547619Y-97245238D01*
X171595238Y-97388095D01*
X171642857Y-97435714D01*
X171976190Y-97435714D01*
X171976190Y-97245238D01*
X171547619Y-97864285D02*
X172547619Y-97864285D01*
X171547619Y-98435714D01*
X172547619Y-98435714D01*
X171547619Y-98911904D02*
X172547619Y-98911904D01*
X172547619Y-99150000D01*
X172500000Y-99292857D01*
X172404761Y-99388095D01*
X172309523Y-99435714D01*
X172119047Y-99483333D01*
X171976190Y-99483333D01*
X171785714Y-99435714D01*
X171690476Y-99388095D01*
X171595238Y-99292857D01*
X171547619Y-99150000D01*
X171547619Y-98911904D01*
D10*
X162967142Y-115392380D02*
X162967142Y-116106666D01*
X162919523Y-116249523D01*
X162824285Y-116344761D01*
X162681428Y-116392380D01*
X162586190Y-116392380D01*
X163300476Y-115392380D02*
X163871904Y-115392380D01*
X163586190Y-116392380D02*
X163586190Y-115392380D01*
X164157619Y-116106666D02*
X164633809Y-116106666D01*
X164062380Y-116392380D02*
X164395714Y-115392380D01*
X164729047Y-116392380D01*
X165586190Y-115440000D02*
X165490952Y-115392380D01*
X165348095Y-115392380D01*
X165205238Y-115440000D01*
X165110000Y-115535238D01*
X165062380Y-115630476D01*
X165014761Y-115820952D01*
X165014761Y-115963809D01*
X165062380Y-116154285D01*
X165110000Y-116249523D01*
X165205238Y-116344761D01*
X165348095Y-116392380D01*
X165443333Y-116392380D01*
X165586190Y-116344761D01*
X165633809Y-116297142D01*
X165633809Y-115963809D01*
X165443333Y-115963809D01*
X166395714Y-115392380D02*
X167110000Y-115392380D01*
X165919523Y-115535238D02*
X166300476Y-115535238D01*
X166348095Y-115725714D02*
X167157619Y-115725714D01*
X166348095Y-115916190D02*
X167157619Y-115916190D01*
X165967142Y-116392380D02*
X166157619Y-116392380D01*
X166157619Y-115249523D02*
X166157619Y-116392380D01*
X166776666Y-115249523D02*
X166776666Y-115440000D01*
X166967142Y-115440000D02*
X166919523Y-115678095D01*
X166586190Y-115487619D02*
X166633809Y-115725714D01*
X166490952Y-116154285D01*
X167110000Y-116392380D01*
X166300476Y-115868571D02*
X165919523Y-115963809D01*
X166967142Y-115916190D02*
X166871904Y-116154285D01*
X166776666Y-116249523D01*
X166348095Y-116392380D01*
X167395714Y-116297142D02*
X168633809Y-116297142D01*
X167395714Y-115392380D02*
X167395714Y-116392380D01*
X167395714Y-115392380D02*
X168633809Y-115392380D01*
X168633809Y-116392380D01*
X170897142Y-115412380D02*
X170897142Y-116126666D01*
X170849523Y-116269523D01*
X170754285Y-116364761D01*
X170611428Y-116412380D01*
X170516190Y-116412380D01*
X171230476Y-115412380D02*
X171801904Y-115412380D01*
X171516190Y-116412380D02*
X171516190Y-115412380D01*
X172087619Y-116126666D02*
X172563809Y-116126666D01*
X171992380Y-116412380D02*
X172325714Y-115412380D01*
X172659047Y-116412380D01*
X173516190Y-115460000D02*
X173420952Y-115412380D01*
X173278095Y-115412380D01*
X173135238Y-115460000D01*
X173040000Y-115555238D01*
X172992380Y-115650476D01*
X172944761Y-115840952D01*
X172944761Y-115983809D01*
X172992380Y-116174285D01*
X173040000Y-116269523D01*
X173135238Y-116364761D01*
X173278095Y-116412380D01*
X173373333Y-116412380D01*
X173516190Y-116364761D01*
X173563809Y-116317142D01*
X173563809Y-115983809D01*
X173373333Y-115983809D01*
X174325714Y-115412380D02*
X175040000Y-115412380D01*
X173849523Y-115555238D02*
X174230476Y-115555238D01*
X174278095Y-115745714D02*
X175087619Y-115745714D01*
X174278095Y-115936190D02*
X175087619Y-115936190D01*
X173897142Y-116412380D02*
X174087619Y-116412380D01*
X174087619Y-115269523D02*
X174087619Y-116412380D01*
X174706666Y-115269523D02*
X174706666Y-115460000D01*
X174897142Y-115460000D02*
X174849523Y-115698095D01*
X174516190Y-115507619D02*
X174563809Y-115745714D01*
X174420952Y-116174285D01*
X175040000Y-116412380D01*
X174230476Y-115888571D02*
X173849523Y-115983809D01*
X174897142Y-115936190D02*
X174801904Y-116174285D01*
X174706666Y-116269523D01*
X174278095Y-116412380D01*
X175325714Y-116317142D02*
X176563809Y-116317142D01*
X175325714Y-115412380D02*
X175325714Y-116412380D01*
X175325714Y-115412380D02*
X176563809Y-115412380D01*
X176563809Y-116412380D01*
X162697619Y-116972380D02*
X163316666Y-116972380D01*
X162983333Y-117353333D01*
X163126190Y-117353333D01*
X163221428Y-117400952D01*
X163269047Y-117448571D01*
X163316666Y-117543809D01*
X163316666Y-117781904D01*
X163269047Y-117877142D01*
X163221428Y-117924761D01*
X163126190Y-117972380D01*
X162840476Y-117972380D01*
X162745238Y-117924761D01*
X162697619Y-117877142D01*
X163745238Y-117877142D02*
X163792857Y-117924761D01*
X163745238Y-117972380D01*
X163697619Y-117924761D01*
X163745238Y-117877142D01*
X163745238Y-117972380D01*
X164126190Y-116972380D02*
X164745238Y-116972380D01*
X164411904Y-117353333D01*
X164554761Y-117353333D01*
X164650000Y-117400952D01*
X164697619Y-117448571D01*
X164745238Y-117543809D01*
X164745238Y-117781904D01*
X164697619Y-117877142D01*
X164650000Y-117924761D01*
X164554761Y-117972380D01*
X164269047Y-117972380D01*
X164173809Y-117924761D01*
X164126190Y-117877142D01*
X165030952Y-116972380D02*
X165364285Y-117972380D01*
X165697619Y-116972380D01*
X165935714Y-117258095D02*
X166316666Y-117258095D01*
X166126190Y-117496190D02*
X166316666Y-117496190D01*
X166840476Y-117972380D02*
X167126190Y-117972380D01*
X165935714Y-116924761D02*
X165935714Y-117210476D01*
X165983333Y-117400952D02*
X165983333Y-117877142D01*
X166126190Y-117258095D02*
X166126190Y-117829523D01*
X165935714Y-116924761D02*
X166316666Y-116924761D01*
X166316666Y-117210476D01*
X166888095Y-116829523D02*
X166888095Y-117924761D01*
X167126190Y-117829523D02*
X167126190Y-117972380D01*
X166935714Y-117448571D02*
X167078571Y-117639047D01*
X166554761Y-117781904D02*
X166364285Y-117972380D01*
X166411904Y-117020000D02*
X166507142Y-117258095D01*
X167078571Y-117020000D02*
X166935714Y-117258095D01*
X166602380Y-117496190D02*
X166411904Y-117591428D01*
X166316666Y-117781904D02*
X165888095Y-117877142D01*
X166650000Y-116829523D02*
X166650000Y-117496190D01*
X166554761Y-117781904D01*
X168602380Y-117829523D02*
X168602380Y-117972380D01*
X167745238Y-117162857D02*
X167650000Y-117353333D01*
X167364285Y-117591428D01*
X168364285Y-117972380D02*
X168554761Y-117972380D01*
X168316666Y-116877142D02*
X168507142Y-116972380D01*
X167602380Y-116829523D02*
X167411904Y-117305714D01*
X168554761Y-117496190D02*
X168316666Y-117734285D01*
X167840476Y-117972380D01*
X168173809Y-117400952D02*
X168316666Y-117877142D01*
X167650000Y-117258095D02*
X167364285Y-117305714D01*
X167792857Y-117543809D02*
X167364285Y-117639047D01*
X167792857Y-117781904D02*
X167364285Y-117877142D01*
X168173809Y-116829523D02*
X168173809Y-117258095D01*
X168221428Y-117781904D01*
X168316666Y-117115238D02*
X167935714Y-117162857D01*
X168411904Y-117115238D02*
X168030952Y-117162857D01*
X168507142Y-117067619D02*
X168173809Y-117115238D01*
X168554761Y-117305714D02*
X167888095Y-117448571D01*
D11*
X175077619Y-97329523D02*
X175077619Y-96853333D01*
X174601428Y-96805714D01*
X174649047Y-96853333D01*
X174696666Y-96948571D01*
X174696666Y-97186666D01*
X174649047Y-97281904D01*
X174601428Y-97329523D01*
X174506190Y-97377142D01*
X174268095Y-97377142D01*
X174172857Y-97329523D01*
X174125238Y-97281904D01*
X174077619Y-97186666D01*
X174077619Y-96948571D01*
X174125238Y-96853333D01*
X174172857Y-96805714D01*
X175077619Y-97662857D02*
X174077619Y-97996190D01*
X175077619Y-98329523D01*
X169957619Y-96813809D02*
X169957619Y-97432857D01*
X169576666Y-97099523D01*
X169576666Y-97242380D01*
X169529047Y-97337619D01*
X169481428Y-97385238D01*
X169386190Y-97432857D01*
X169148095Y-97432857D01*
X169052857Y-97385238D01*
X169005238Y-97337619D01*
X168957619Y-97242380D01*
X168957619Y-96956666D01*
X169005238Y-96861428D01*
X169052857Y-96813809D01*
X169052857Y-97861428D02*
X169005238Y-97909047D01*
X168957619Y-97861428D01*
X169005238Y-97813809D01*
X169052857Y-97861428D01*
X168957619Y-97861428D01*
X169957619Y-98242380D02*
X169957619Y-98861428D01*
X169576666Y-98528095D01*
X169576666Y-98670952D01*
X169529047Y-98766190D01*
X169481428Y-98813809D01*
X169386190Y-98861428D01*
X169148095Y-98861428D01*
X169052857Y-98813809D01*
X169005238Y-98766190D01*
X168957619Y-98670952D01*
X168957619Y-98385238D01*
X169005238Y-98290000D01*
X169052857Y-98242380D01*
X169957619Y-99147142D02*
X168957619Y-99480476D01*
X169957619Y-99813809D01*
D10*
X170206190Y-117305714D02*
X170206190Y-117972380D01*
X170206190Y-117400952D02*
X170253809Y-117353333D01*
X170349047Y-117305714D01*
X170491904Y-117305714D01*
X170587142Y-117353333D01*
X170634761Y-117448571D01*
X170634761Y-117972380D01*
X171063333Y-117924761D02*
X171206190Y-117972380D01*
X171444285Y-117972380D01*
X171539523Y-117924761D01*
X171587142Y-117877142D01*
X171634761Y-117781904D01*
X171634761Y-117686666D01*
X171587142Y-117591428D01*
X171539523Y-117543809D01*
X171444285Y-117496190D01*
X171253809Y-117448571D01*
X171158571Y-117400952D01*
X171110952Y-117353333D01*
X171063333Y-117258095D01*
X171063333Y-117162857D01*
X171110952Y-117067619D01*
X171158571Y-117020000D01*
X171253809Y-116972380D01*
X171491904Y-116972380D01*
X171634761Y-117020000D01*
X172634761Y-117972380D02*
X172301428Y-117496190D01*
X172063333Y-117972380D02*
X172063333Y-116972380D01*
X172444285Y-116972380D01*
X172539523Y-117020000D01*
X172587142Y-117067619D01*
X172634761Y-117162857D01*
X172634761Y-117305714D01*
X172587142Y-117400952D01*
X172539523Y-117448571D01*
X172444285Y-117496190D01*
X172063333Y-117496190D01*
X173015714Y-117924761D02*
X173158571Y-117972380D01*
X173396666Y-117972380D01*
X173491904Y-117924761D01*
X173539523Y-117877142D01*
X173587142Y-117781904D01*
X173587142Y-117686666D01*
X173539523Y-117591428D01*
X173491904Y-117543809D01*
X173396666Y-117496190D01*
X173206190Y-117448571D01*
X173110952Y-117400952D01*
X173063333Y-117353333D01*
X173015714Y-117258095D01*
X173015714Y-117162857D01*
X173063333Y-117067619D01*
X173110952Y-117020000D01*
X173206190Y-116972380D01*
X173444285Y-116972380D01*
X173587142Y-117020000D01*
X173872857Y-116972380D02*
X174444285Y-116972380D01*
X174158571Y-117972380D02*
X174158571Y-116972380D01*
X174682380Y-117258095D02*
X175063333Y-117258095D01*
X174872857Y-117496190D02*
X175063333Y-117496190D01*
X175587142Y-117972380D02*
X175872857Y-117972380D01*
X174682380Y-116924761D02*
X174682380Y-117210476D01*
X174730000Y-117400952D02*
X174730000Y-117877142D01*
X174872857Y-117258095D02*
X174872857Y-117829523D01*
X174682380Y-116924761D02*
X175063333Y-116924761D01*
X175063333Y-117210476D01*
X175634761Y-116829523D02*
X175634761Y-117924761D01*
X175872857Y-117829523D02*
X175872857Y-117972380D01*
X175682380Y-117448571D02*
X175825238Y-117639047D01*
X175301428Y-117781904D02*
X175110952Y-117972380D01*
X175158571Y-117020000D02*
X175253809Y-117258095D01*
X175825238Y-117020000D02*
X175682380Y-117258095D01*
X175349047Y-117496190D02*
X175158571Y-117591428D01*
X175063333Y-117781904D02*
X174634761Y-117877142D01*
X175396666Y-116829523D02*
X175396666Y-117496190D01*
X175301428Y-117781904D01*
X177349047Y-117829523D02*
X177349047Y-117972380D01*
X176491904Y-117162857D02*
X176396666Y-117353333D01*
X176110952Y-117591428D01*
X177110952Y-117972380D02*
X177301428Y-117972380D01*
X177063333Y-116877142D02*
X177253809Y-116972380D01*
X176349047Y-116829523D02*
X176158571Y-117305714D01*
X177301428Y-117496190D02*
X177063333Y-117734285D01*
X176587142Y-117972380D01*
X176920476Y-117400952D02*
X177063333Y-117877142D01*
X176396666Y-117258095D02*
X176110952Y-117305714D01*
X176539523Y-117543809D02*
X176110952Y-117639047D01*
X176539523Y-117781904D02*
X176110952Y-117877142D01*
X176920476Y-116829523D02*
X176920476Y-117258095D01*
X176968095Y-117781904D01*
X177063333Y-117115238D02*
X176682380Y-117162857D01*
X177158571Y-117115238D02*
X176777619Y-117162857D01*
X177253809Y-117067619D02*
X176920476Y-117115238D01*
X177301428Y-117305714D02*
X176634761Y-117448571D01*
D11*
X167427619Y-96818095D02*
X167427619Y-97389523D01*
X166427619Y-97103809D02*
X167427619Y-97103809D01*
X167427619Y-97627619D02*
X166427619Y-98294285D01*
X167427619Y-98294285D02*
X166427619Y-97627619D01*
X163907619Y-97383333D02*
X164383809Y-97050000D01*
X163907619Y-96811904D02*
X164907619Y-96811904D01*
X164907619Y-97192857D01*
X164860000Y-97288095D01*
X164812380Y-97335714D01*
X164717142Y-97383333D01*
X164574285Y-97383333D01*
X164479047Y-97335714D01*
X164431428Y-97288095D01*
X164383809Y-97192857D01*
X164383809Y-96811904D01*
X164907619Y-97716666D02*
X163907619Y-98383333D01*
X164907619Y-98383333D02*
X163907619Y-97716666D01*
D12*
%TO.C,*%
D10*
%TO.C,D1*%
X167483333Y-113096666D02*
X167483333Y-112396666D01*
X167650000Y-112396666D01*
X167750000Y-112430000D01*
X167816666Y-112496666D01*
X167850000Y-112563333D01*
X167883333Y-112696666D01*
X167883333Y-112796666D01*
X167850000Y-112930000D01*
X167816666Y-112996666D01*
X167750000Y-113063333D01*
X167650000Y-113096666D01*
X167483333Y-113096666D01*
X168550000Y-113096666D02*
X168150000Y-113096666D01*
X168350000Y-113096666D02*
X168350000Y-112396666D01*
X168283333Y-112496666D01*
X168216666Y-112563333D01*
X168150000Y-112596666D01*
%TO.C,C3*%
X130595740Y-103194927D02*
X130629073Y-103228261D01*
X130662406Y-103328261D01*
X130662406Y-103394927D01*
X130629073Y-103494927D01*
X130562406Y-103561594D01*
X130495740Y-103594927D01*
X130362406Y-103628261D01*
X130262406Y-103628261D01*
X130129073Y-103594927D01*
X130062406Y-103561594D01*
X129995740Y-103494927D01*
X129962406Y-103394927D01*
X129962406Y-103328261D01*
X129995740Y-103228261D01*
X130029073Y-103194927D01*
X129962406Y-102961594D02*
X129962406Y-102528261D01*
X130229073Y-102761594D01*
X130229073Y-102661594D01*
X130262406Y-102594927D01*
X130295740Y-102561594D01*
X130362406Y-102528261D01*
X130529073Y-102528261D01*
X130595740Y-102561594D01*
X130629073Y-102594927D01*
X130662406Y-102661594D01*
X130662406Y-102861594D01*
X130629073Y-102928261D01*
X130595740Y-102961594D01*
%TO.C,R11*%
X129566666Y-113630000D02*
X129233333Y-113863333D01*
X129566666Y-114030000D02*
X128866666Y-114030000D01*
X128866666Y-113763333D01*
X128900000Y-113696666D01*
X128933333Y-113663333D01*
X129000000Y-113630000D01*
X129100000Y-113630000D01*
X129166666Y-113663333D01*
X129200000Y-113696666D01*
X129233333Y-113763333D01*
X129233333Y-114030000D01*
X129566666Y-112963333D02*
X129566666Y-113363333D01*
X129566666Y-113163333D02*
X128866666Y-113163333D01*
X128966666Y-113230000D01*
X129033333Y-113296666D01*
X129066666Y-113363333D01*
X129566666Y-112296666D02*
X129566666Y-112696666D01*
X129566666Y-112496666D02*
X128866666Y-112496666D01*
X128966666Y-112563333D01*
X129033333Y-112630000D01*
X129066666Y-112696666D01*
%TO.C,C2*%
X113863333Y-98864000D02*
X113830000Y-98897333D01*
X113730000Y-98930666D01*
X113663333Y-98930666D01*
X113563333Y-98897333D01*
X113496666Y-98830666D01*
X113463333Y-98764000D01*
X113430000Y-98630666D01*
X113430000Y-98530666D01*
X113463333Y-98397333D01*
X113496666Y-98330666D01*
X113563333Y-98264000D01*
X113663333Y-98230666D01*
X113730000Y-98230666D01*
X113830000Y-98264000D01*
X113863333Y-98297333D01*
X114130000Y-98297333D02*
X114163333Y-98264000D01*
X114230000Y-98230666D01*
X114396666Y-98230666D01*
X114463333Y-98264000D01*
X114496666Y-98297333D01*
X114530000Y-98364000D01*
X114530000Y-98430666D01*
X114496666Y-98530666D01*
X114096666Y-98930666D01*
X114530000Y-98930666D01*
%TO.C,R2*%
X176037333Y-104896666D02*
X175804000Y-104563333D01*
X175637333Y-104896666D02*
X175637333Y-104196666D01*
X175904000Y-104196666D01*
X175970666Y-104230000D01*
X176004000Y-104263333D01*
X176037333Y-104330000D01*
X176037333Y-104430000D01*
X176004000Y-104496666D01*
X175970666Y-104530000D01*
X175904000Y-104563333D01*
X175637333Y-104563333D01*
X176304000Y-104263333D02*
X176337333Y-104230000D01*
X176404000Y-104196666D01*
X176570666Y-104196666D01*
X176637333Y-104230000D01*
X176670666Y-104263333D01*
X176704000Y-104330000D01*
X176704000Y-104396666D01*
X176670666Y-104496666D01*
X176270666Y-104896666D01*
X176704000Y-104896666D01*
%TO.C,D3*%
X167475833Y-102686666D02*
X167475833Y-101986666D01*
X167642500Y-101986666D01*
X167742500Y-102020000D01*
X167809166Y-102086666D01*
X167842500Y-102153333D01*
X167875833Y-102286666D01*
X167875833Y-102386666D01*
X167842500Y-102520000D01*
X167809166Y-102586666D01*
X167742500Y-102653333D01*
X167642500Y-102686666D01*
X167475833Y-102686666D01*
X168109166Y-101986666D02*
X168542500Y-101986666D01*
X168309166Y-102253333D01*
X168409166Y-102253333D01*
X168475833Y-102286666D01*
X168509166Y-102320000D01*
X168542500Y-102386666D01*
X168542500Y-102553333D01*
X168509166Y-102620000D01*
X168475833Y-102653333D01*
X168409166Y-102686666D01*
X168209166Y-102686666D01*
X168142500Y-102653333D01*
X168109166Y-102620000D01*
%TO.C,C5*%
X121653333Y-101230000D02*
X121620000Y-101263333D01*
X121520000Y-101296666D01*
X121453333Y-101296666D01*
X121353333Y-101263333D01*
X121286666Y-101196666D01*
X121253333Y-101130000D01*
X121220000Y-100996666D01*
X121220000Y-100896666D01*
X121253333Y-100763333D01*
X121286666Y-100696666D01*
X121353333Y-100630000D01*
X121453333Y-100596666D01*
X121520000Y-100596666D01*
X121620000Y-100630000D01*
X121653333Y-100663333D01*
X122286666Y-100596666D02*
X121953333Y-100596666D01*
X121920000Y-100930000D01*
X121953333Y-100896666D01*
X122020000Y-100863333D01*
X122186666Y-100863333D01*
X122253333Y-100896666D01*
X122286666Y-100930000D01*
X122320000Y-100996666D01*
X122320000Y-101163333D01*
X122286666Y-101230000D01*
X122253333Y-101263333D01*
X122186666Y-101296666D01*
X122020000Y-101296666D01*
X121953333Y-101263333D01*
X121920000Y-101230000D01*
%TO.C,Y1*%
X123326666Y-102683333D02*
X123326666Y-103016666D01*
X123093333Y-102316666D02*
X123326666Y-102683333D01*
X123560000Y-102316666D01*
X124160000Y-103016666D02*
X123760000Y-103016666D01*
X123960000Y-103016666D02*
X123960000Y-102316666D01*
X123893333Y-102416666D01*
X123826666Y-102483333D01*
X123760000Y-102516666D01*
D12*
%TO.C,*%
D10*
%TO.C,D4*%
X126346666Y-114006666D02*
X125646666Y-114006666D01*
X125646666Y-113840000D01*
X125680000Y-113740000D01*
X125746666Y-113673333D01*
X125813333Y-113640000D01*
X125946666Y-113606666D01*
X126046666Y-113606666D01*
X126180000Y-113640000D01*
X126246666Y-113673333D01*
X126313333Y-113740000D01*
X126346666Y-113840000D01*
X126346666Y-114006666D01*
X125880000Y-113006666D02*
X126346666Y-113006666D01*
X125613333Y-113173333D02*
X126113333Y-113340000D01*
X126113333Y-112906666D01*
%TO.C,R3*%
X176047333Y-102726666D02*
X175814000Y-102393333D01*
X175647333Y-102726666D02*
X175647333Y-102026666D01*
X175914000Y-102026666D01*
X175980666Y-102060000D01*
X176014000Y-102093333D01*
X176047333Y-102160000D01*
X176047333Y-102260000D01*
X176014000Y-102326666D01*
X175980666Y-102360000D01*
X175914000Y-102393333D01*
X175647333Y-102393333D01*
X176280666Y-102026666D02*
X176714000Y-102026666D01*
X176480666Y-102293333D01*
X176580666Y-102293333D01*
X176647333Y-102326666D01*
X176680666Y-102360000D01*
X176714000Y-102426666D01*
X176714000Y-102593333D01*
X176680666Y-102660000D01*
X176647333Y-102693333D01*
X176580666Y-102726666D01*
X176380666Y-102726666D01*
X176314000Y-102693333D01*
X176280666Y-102660000D01*
%TO.C,R12*%
X120340000Y-114046666D02*
X120106666Y-113713333D01*
X119940000Y-114046666D02*
X119940000Y-113346666D01*
X120206666Y-113346666D01*
X120273333Y-113380000D01*
X120306666Y-113413333D01*
X120340000Y-113480000D01*
X120340000Y-113580000D01*
X120306666Y-113646666D01*
X120273333Y-113680000D01*
X120206666Y-113713333D01*
X119940000Y-113713333D01*
X121006666Y-114046666D02*
X120606666Y-114046666D01*
X120806666Y-114046666D02*
X120806666Y-113346666D01*
X120740000Y-113446666D01*
X120673333Y-113513333D01*
X120606666Y-113546666D01*
X121273333Y-113413333D02*
X121306666Y-113380000D01*
X121373333Y-113346666D01*
X121540000Y-113346666D01*
X121606666Y-113380000D01*
X121640000Y-113413333D01*
X121673333Y-113480000D01*
X121673333Y-113546666D01*
X121640000Y-113646666D01*
X121240000Y-114046666D01*
X121673333Y-114046666D01*
%TO.C,U1*%
X105546666Y-100062333D02*
X106113333Y-100062333D01*
X106180000Y-100029000D01*
X106213333Y-99995666D01*
X106246666Y-99929000D01*
X106246666Y-99795666D01*
X106213333Y-99729000D01*
X106180000Y-99695666D01*
X106113333Y-99662333D01*
X105546666Y-99662333D01*
X106246666Y-98962333D02*
X106246666Y-99362333D01*
X106246666Y-99162333D02*
X105546666Y-99162333D01*
X105646666Y-99229000D01*
X105713333Y-99295666D01*
X105746666Y-99362333D01*
%TO.C,D5*%
X118343333Y-114006666D02*
X118343333Y-113306666D01*
X118510000Y-113306666D01*
X118610000Y-113340000D01*
X118676666Y-113406666D01*
X118710000Y-113473333D01*
X118743333Y-113606666D01*
X118743333Y-113706666D01*
X118710000Y-113840000D01*
X118676666Y-113906666D01*
X118610000Y-113973333D01*
X118510000Y-114006666D01*
X118343333Y-114006666D01*
X119376666Y-113306666D02*
X119043333Y-113306666D01*
X119010000Y-113640000D01*
X119043333Y-113606666D01*
X119110000Y-113573333D01*
X119276666Y-113573333D01*
X119343333Y-113606666D01*
X119376666Y-113640000D01*
X119410000Y-113706666D01*
X119410000Y-113873333D01*
X119376666Y-113940000D01*
X119343333Y-113973333D01*
X119276666Y-114006666D01*
X119110000Y-114006666D01*
X119043333Y-113973333D01*
X119010000Y-113940000D01*
%TO.C,C1*%
X113873333Y-100734000D02*
X113840000Y-100767333D01*
X113740000Y-100800666D01*
X113673333Y-100800666D01*
X113573333Y-100767333D01*
X113506666Y-100700666D01*
X113473333Y-100634000D01*
X113440000Y-100500666D01*
X113440000Y-100400666D01*
X113473333Y-100267333D01*
X113506666Y-100200666D01*
X113573333Y-100134000D01*
X113673333Y-100100666D01*
X113740000Y-100100666D01*
X113840000Y-100134000D01*
X113873333Y-100167333D01*
X114540000Y-100800666D02*
X114140000Y-100800666D01*
X114340000Y-100800666D02*
X114340000Y-100100666D01*
X114273333Y-100200666D01*
X114206666Y-100267333D01*
X114140000Y-100300666D01*
%TO.C,R6*%
X120013333Y-101296666D02*
X119780000Y-100963333D01*
X119613333Y-101296666D02*
X119613333Y-100596666D01*
X119880000Y-100596666D01*
X119946666Y-100630000D01*
X119980000Y-100663333D01*
X120013333Y-100730000D01*
X120013333Y-100830000D01*
X119980000Y-100896666D01*
X119946666Y-100930000D01*
X119880000Y-100963333D01*
X119613333Y-100963333D01*
X120613333Y-100596666D02*
X120480000Y-100596666D01*
X120413333Y-100630000D01*
X120380000Y-100663333D01*
X120313333Y-100763333D01*
X120280000Y-100896666D01*
X120280000Y-101163333D01*
X120313333Y-101230000D01*
X120346666Y-101263333D01*
X120413333Y-101296666D01*
X120546666Y-101296666D01*
X120613333Y-101263333D01*
X120646666Y-101230000D01*
X120680000Y-101163333D01*
X120680000Y-100996666D01*
X120646666Y-100930000D01*
X120613333Y-100896666D01*
X120546666Y-100863333D01*
X120413333Y-100863333D01*
X120346666Y-100896666D01*
X120313333Y-100930000D01*
X120280000Y-100996666D01*
%TO.C,U2*%
X112692755Y-107345130D02*
X113093449Y-107745824D01*
X113164159Y-107769394D01*
X113211300Y-107769394D01*
X113282011Y-107745824D01*
X113376292Y-107651543D01*
X113399862Y-107580832D01*
X113399862Y-107533692D01*
X113376292Y-107462981D01*
X112975598Y-107062287D01*
X113234870Y-106897296D02*
X113234870Y-106850155D01*
X113258440Y-106779444D01*
X113376292Y-106661593D01*
X113447002Y-106638023D01*
X113494143Y-106638023D01*
X113564853Y-106661593D01*
X113611994Y-106708734D01*
X113659134Y-106803015D01*
X113659134Y-107368700D01*
X113965547Y-107062287D01*
%TO.C,USB1*%
X105700666Y-108515000D02*
X106267333Y-108515000D01*
X106334000Y-108481666D01*
X106367333Y-108448333D01*
X106400666Y-108381666D01*
X106400666Y-108248333D01*
X106367333Y-108181666D01*
X106334000Y-108148333D01*
X106267333Y-108115000D01*
X105700666Y-108115000D01*
X106367333Y-107815000D02*
X106400666Y-107715000D01*
X106400666Y-107548333D01*
X106367333Y-107481666D01*
X106334000Y-107448333D01*
X106267333Y-107415000D01*
X106200666Y-107415000D01*
X106134000Y-107448333D01*
X106100666Y-107481666D01*
X106067333Y-107548333D01*
X106034000Y-107681666D01*
X106000666Y-107748333D01*
X105967333Y-107781666D01*
X105900666Y-107815000D01*
X105834000Y-107815000D01*
X105767333Y-107781666D01*
X105734000Y-107748333D01*
X105700666Y-107681666D01*
X105700666Y-107515000D01*
X105734000Y-107415000D01*
X106034000Y-106881666D02*
X106067333Y-106781666D01*
X106100666Y-106748333D01*
X106167333Y-106715000D01*
X106267333Y-106715000D01*
X106334000Y-106748333D01*
X106367333Y-106781666D01*
X106400666Y-106848333D01*
X106400666Y-107115000D01*
X105700666Y-107115000D01*
X105700666Y-106881666D01*
X105734000Y-106815000D01*
X105767333Y-106781666D01*
X105834000Y-106748333D01*
X105900666Y-106748333D01*
X105967333Y-106781666D01*
X106000666Y-106815000D01*
X106034000Y-106881666D01*
X106034000Y-107115000D01*
X106400666Y-106048333D02*
X106400666Y-106448333D01*
X106400666Y-106248333D02*
X105700666Y-106248333D01*
X105800666Y-106315000D01*
X105867333Y-106381666D01*
X105900666Y-106448333D01*
%TO.C,R5*%
X167893333Y-108086666D02*
X167660000Y-107753333D01*
X167493333Y-108086666D02*
X167493333Y-107386666D01*
X167760000Y-107386666D01*
X167826666Y-107420000D01*
X167860000Y-107453333D01*
X167893333Y-107520000D01*
X167893333Y-107620000D01*
X167860000Y-107686666D01*
X167826666Y-107720000D01*
X167760000Y-107753333D01*
X167493333Y-107753333D01*
X168526666Y-107386666D02*
X168193333Y-107386666D01*
X168160000Y-107720000D01*
X168193333Y-107686666D01*
X168260000Y-107653333D01*
X168426666Y-107653333D01*
X168493333Y-107686666D01*
X168526666Y-107720000D01*
X168560000Y-107786666D01*
X168560000Y-107953333D01*
X168526666Y-108020000D01*
X168493333Y-108053333D01*
X168426666Y-108086666D01*
X168260000Y-108086666D01*
X168193333Y-108053333D01*
X168160000Y-108020000D01*
%TO.C,R7*%
X118270000Y-101301666D02*
X118036667Y-100968333D01*
X117870000Y-101301666D02*
X117870000Y-100601666D01*
X118136667Y-100601666D01*
X118203333Y-100635000D01*
X118236667Y-100668333D01*
X118270000Y-100735000D01*
X118270000Y-100835000D01*
X118236667Y-100901666D01*
X118203333Y-100935000D01*
X118136667Y-100968333D01*
X117870000Y-100968333D01*
X118503333Y-100601666D02*
X118970000Y-100601666D01*
X118670000Y-101301666D01*
%TO.C,D2*%
X167438333Y-104896666D02*
X167438333Y-104196666D01*
X167605000Y-104196666D01*
X167705000Y-104230000D01*
X167771666Y-104296666D01*
X167805000Y-104363333D01*
X167838333Y-104496666D01*
X167838333Y-104596666D01*
X167805000Y-104730000D01*
X167771666Y-104796666D01*
X167705000Y-104863333D01*
X167605000Y-104896666D01*
X167438333Y-104896666D01*
X168105000Y-104263333D02*
X168138333Y-104230000D01*
X168205000Y-104196666D01*
X168371666Y-104196666D01*
X168438333Y-104230000D01*
X168471666Y-104263333D01*
X168505000Y-104330000D01*
X168505000Y-104396666D01*
X168471666Y-104496666D01*
X168071666Y-104896666D01*
X168505000Y-104896666D01*
%TO.C,C4*%
X130550000Y-99386666D02*
X130583333Y-99420000D01*
X130616666Y-99520000D01*
X130616666Y-99586666D01*
X130583333Y-99686666D01*
X130516666Y-99753333D01*
X130450000Y-99786666D01*
X130316666Y-99820000D01*
X130216666Y-99820000D01*
X130083333Y-99786666D01*
X130016666Y-99753333D01*
X129950000Y-99686666D01*
X129916666Y-99586666D01*
X129916666Y-99520000D01*
X129950000Y-99420000D01*
X129983333Y-99386666D01*
X130150000Y-98786666D02*
X130616666Y-98786666D01*
X129883333Y-98953333D02*
X130383333Y-99120000D01*
X130383333Y-98686666D01*
%TO.C,R8*%
X116663333Y-101301666D02*
X116430000Y-100968333D01*
X116263333Y-101301666D02*
X116263333Y-100601666D01*
X116530000Y-100601666D01*
X116596666Y-100635000D01*
X116630000Y-100668333D01*
X116663333Y-100735000D01*
X116663333Y-100835000D01*
X116630000Y-100901666D01*
X116596666Y-100935000D01*
X116530000Y-100968333D01*
X116263333Y-100968333D01*
X117063333Y-100901666D02*
X116996666Y-100868333D01*
X116963333Y-100835000D01*
X116930000Y-100768333D01*
X116930000Y-100735000D01*
X116963333Y-100668333D01*
X116996666Y-100635000D01*
X117063333Y-100601666D01*
X117196666Y-100601666D01*
X117263333Y-100635000D01*
X117296666Y-100668333D01*
X117330000Y-100735000D01*
X117330000Y-100768333D01*
X117296666Y-100835000D01*
X117263333Y-100868333D01*
X117196666Y-100901666D01*
X117063333Y-100901666D01*
X116996666Y-100935000D01*
X116963333Y-100968333D01*
X116930000Y-101035000D01*
X116930000Y-101168333D01*
X116963333Y-101235000D01*
X116996666Y-101268333D01*
X117063333Y-101301666D01*
X117196666Y-101301666D01*
X117263333Y-101268333D01*
X117296666Y-101235000D01*
X117330000Y-101168333D01*
X117330000Y-101035000D01*
X117296666Y-100968333D01*
X117263333Y-100935000D01*
X117196666Y-100901666D01*
%TO.C,R9*%
X116953333Y-114006666D02*
X116720000Y-113673333D01*
X116553333Y-114006666D02*
X116553333Y-113306666D01*
X116820000Y-113306666D01*
X116886666Y-113340000D01*
X116920000Y-113373333D01*
X116953333Y-113440000D01*
X116953333Y-113540000D01*
X116920000Y-113606666D01*
X116886666Y-113640000D01*
X116820000Y-113673333D01*
X116553333Y-113673333D01*
X117286666Y-114006666D02*
X117420000Y-114006666D01*
X117486666Y-113973333D01*
X117520000Y-113940000D01*
X117586666Y-113840000D01*
X117620000Y-113706666D01*
X117620000Y-113440000D01*
X117586666Y-113373333D01*
X117553333Y-113340000D01*
X117486666Y-113306666D01*
X117353333Y-113306666D01*
X117286666Y-113340000D01*
X117253333Y-113373333D01*
X117220000Y-113440000D01*
X117220000Y-113606666D01*
X117253333Y-113673333D01*
X117286666Y-113706666D01*
X117353333Y-113740000D01*
X117486666Y-113740000D01*
X117553333Y-113706666D01*
X117586666Y-113673333D01*
X117620000Y-113606666D01*
%TO.C,R1*%
X176183333Y-113106666D02*
X175950000Y-112773333D01*
X175783333Y-113106666D02*
X175783333Y-112406666D01*
X176050000Y-112406666D01*
X176116666Y-112440000D01*
X176150000Y-112473333D01*
X176183333Y-112540000D01*
X176183333Y-112640000D01*
X176150000Y-112706666D01*
X176116666Y-112740000D01*
X176050000Y-112773333D01*
X175783333Y-112773333D01*
X176850000Y-113106666D02*
X176450000Y-113106666D01*
X176650000Y-113106666D02*
X176650000Y-112406666D01*
X176583333Y-112506666D01*
X176516666Y-112573333D01*
X176450000Y-112606666D01*
%TO.C,R4*%
X167893333Y-109886666D02*
X167660000Y-109553333D01*
X167493333Y-109886666D02*
X167493333Y-109186666D01*
X167760000Y-109186666D01*
X167826666Y-109220000D01*
X167860000Y-109253333D01*
X167893333Y-109320000D01*
X167893333Y-109420000D01*
X167860000Y-109486666D01*
X167826666Y-109520000D01*
X167760000Y-109553333D01*
X167493333Y-109553333D01*
X168493333Y-109420000D02*
X168493333Y-109886666D01*
X168326666Y-109153333D02*
X168160000Y-109653333D01*
X168593333Y-109653333D01*
%TO.C,R10*%
X127996666Y-113630000D02*
X127663333Y-113863333D01*
X127996666Y-114030000D02*
X127296666Y-114030000D01*
X127296666Y-113763333D01*
X127330000Y-113696666D01*
X127363333Y-113663333D01*
X127430000Y-113630000D01*
X127530000Y-113630000D01*
X127596666Y-113663333D01*
X127630000Y-113696666D01*
X127663333Y-113763333D01*
X127663333Y-114030000D01*
X127996666Y-112963333D02*
X127996666Y-113363333D01*
X127996666Y-113163333D02*
X127296666Y-113163333D01*
X127396666Y-113230000D01*
X127463333Y-113296666D01*
X127496666Y-113363333D01*
X127296666Y-112530000D02*
X127296666Y-112463333D01*
X127330000Y-112396666D01*
X127363333Y-112363333D01*
X127430000Y-112330000D01*
X127563333Y-112296666D01*
X127730000Y-112296666D01*
X127863333Y-112330000D01*
X127930000Y-112363333D01*
X127963333Y-112396666D01*
X127996666Y-112463333D01*
X127996666Y-112530000D01*
X127963333Y-112596666D01*
X127930000Y-112630000D01*
X127863333Y-112663333D01*
X127730000Y-112696666D01*
X127563333Y-112696666D01*
X127430000Y-112663333D01*
X127363333Y-112630000D01*
X127330000Y-112596666D01*
X127296666Y-112530000D01*
D13*
%TO.C,J6*%
X106940000Y-117270000D02*
X105610000Y-117270000D01*
X105610000Y-117270000D02*
X105610000Y-115940000D01*
X108210000Y-114610000D02*
X115890000Y-114610000D01*
X108210000Y-117270000D02*
X115890000Y-117270000D01*
X115890000Y-117270000D02*
X115890000Y-114610000D01*
X108210000Y-117270000D02*
X108210000Y-114610000D01*
D10*
%TO.C,HOLE2*%
X105070000Y-115860000D02*
G75*
G03*
X105070000Y-115860000I-900000J0D01*
G01*
D13*
%TO.C,J7*%
X137510000Y-97110000D02*
X146630000Y-97110000D01*
X137510000Y-117690000D02*
X137510000Y-97110000D01*
X146630000Y-97110000D02*
X146630000Y-117690000D01*
X137510000Y-109450000D02*
X146630000Y-109450000D01*
X146630000Y-117690000D02*
X137510000Y-117690000D01*
X137510000Y-105350000D02*
X146630000Y-105350000D01*
%TO.C,*%
G36*
X178557291Y-109168306D02*
G01*
X178698677Y-109186995D01*
X178824324Y-109225117D01*
X178934352Y-109282748D01*
X179028880Y-109359959D01*
X179108024Y-109456827D01*
X179157743Y-109543198D01*
X179197538Y-109634891D01*
X179224983Y-109726237D01*
X179241524Y-109824312D01*
X179248607Y-109936191D01*
X179249106Y-109990050D01*
X179245681Y-110092928D01*
X179234953Y-110183855D01*
X179215060Y-110272701D01*
X179184142Y-110369341D01*
X179170654Y-110406084D01*
X179143571Y-110478030D01*
X178757488Y-110478030D01*
X178757488Y-110442432D01*
X178766135Y-110407645D01*
X178782369Y-110384317D01*
X178832934Y-110324932D01*
X178876027Y-110248098D01*
X178908787Y-110160961D01*
X178928350Y-110070668D01*
X178932660Y-110009088D01*
X178924579Y-109910541D01*
X178899346Y-109828987D01*
X178855471Y-109761903D01*
X178791469Y-109706770D01*
X178735409Y-109674678D01*
X178698563Y-109657144D01*
X178668248Y-109645448D01*
X178637770Y-109638409D01*
X178600434Y-109634850D01*
X178549547Y-109633592D01*
X178501248Y-109633449D01*
X178411275Y-109636178D01*
X178340198Y-109645573D01*
X178282364Y-109663445D01*
X178232122Y-109691604D01*
X178183817Y-109731863D01*
X178178713Y-109736783D01*
X178130116Y-109800828D01*
X178097886Y-109879350D01*
X178081955Y-109967953D01*
X178082256Y-110062239D01*
X178098721Y-110157813D01*
X178131284Y-110250279D01*
X178179877Y-110335241D01*
X178188044Y-110346404D01*
X178215701Y-110386740D01*
X178235823Y-110423079D01*
X178244412Y-110448110D01*
X178244483Y-110449631D01*
X178243802Y-110460521D01*
X178239276Y-110468197D01*
X178227178Y-110473219D01*
X178203783Y-110476152D01*
X178165365Y-110477556D01*
X178108197Y-110477996D01*
X178056353Y-110478030D01*
X177868224Y-110478030D01*
X177843648Y-110420696D01*
X177807325Y-110314901D01*
X177780889Y-110193928D01*
X177765377Y-110066010D01*
X177761826Y-109939377D01*
X177769669Y-109833646D01*
X177799618Y-109686178D01*
X177847422Y-109555734D01*
X177912317Y-109442959D01*
X177993536Y-109348500D01*
X178090315Y-109273004D01*
X178201888Y-109217116D01*
X178327492Y-109181483D01*
X178466360Y-109166751D01*
X178557291Y-109168306D01*
G37*
G36*
X178961476Y-106100320D02*
G01*
X178984146Y-106104397D01*
X179128513Y-106144484D01*
X179260639Y-106203401D01*
X179378253Y-106279643D01*
X179479081Y-106371705D01*
X179560848Y-106478084D01*
X179569102Y-106491458D01*
X179625913Y-106607477D01*
X179667538Y-106738826D01*
X179693530Y-106880615D01*
X179703443Y-107027950D01*
X179696832Y-107175941D01*
X179673250Y-107319696D01*
X179651812Y-107398601D01*
X179597069Y-107532482D01*
X179522646Y-107651379D01*
X179429565Y-107754371D01*
X179318845Y-107840536D01*
X179191506Y-107908952D01*
X179048569Y-107958698D01*
X179025062Y-107964683D01*
X178925291Y-107982294D01*
X178811274Y-107991598D01*
X178692008Y-107992584D01*
X178576495Y-107985244D01*
X178473734Y-107969565D01*
X178455130Y-107965337D01*
X178307625Y-107918175D01*
X178177087Y-107852729D01*
X178063959Y-107769508D01*
X177968687Y-107669021D01*
X177891713Y-107551778D01*
X177833481Y-107418289D01*
X177794436Y-107269064D01*
X177782828Y-107193547D01*
X177773979Y-107105175D01*
X177771793Y-107041953D01*
X178119835Y-107041953D01*
X178129307Y-107136559D01*
X178146217Y-107195573D01*
X178189634Y-107277062D01*
X178253853Y-107349242D01*
X178335640Y-107409766D01*
X178431760Y-107456287D01*
X178538978Y-107486456D01*
X178549696Y-107488399D01*
X178619696Y-107496343D01*
X178702184Y-107499224D01*
X178790027Y-107497410D01*
X178876095Y-107491269D01*
X178953253Y-107481170D01*
X179014372Y-107467482D01*
X179025503Y-107463831D01*
X179133676Y-107415406D01*
X179220382Y-107354695D01*
X179286264Y-107281128D01*
X179331969Y-107194137D01*
X179332578Y-107192531D01*
X179347839Y-107145736D01*
X179355340Y-107102004D01*
X179356531Y-107050203D01*
X179355243Y-107018375D01*
X179339015Y-106911978D01*
X179302372Y-106819952D01*
X179245475Y-106742420D01*
X179168482Y-106679507D01*
X179071554Y-106631335D01*
X178954850Y-106598030D01*
X178818529Y-106579715D01*
X178788523Y-106577841D01*
X178648812Y-106578967D01*
X178521313Y-106596824D01*
X178407965Y-106630746D01*
X178310707Y-106680063D01*
X178231479Y-106744106D01*
X178199707Y-106780817D01*
X178155887Y-106857477D01*
X178128979Y-106946724D01*
X178119835Y-107041953D01*
X177771793Y-107041953D01*
X177771293Y-107027492D01*
X177774811Y-106948660D01*
X177783928Y-106861971D01*
X177814096Y-106714634D01*
X177865703Y-106578609D01*
X177937341Y-106455563D01*
X178027599Y-106347167D01*
X178135070Y-106255090D01*
X178258344Y-106181001D01*
X178396014Y-106126570D01*
X178407347Y-106123191D01*
X178481708Y-106106984D01*
X178573232Y-106095410D01*
X178674445Y-106088714D01*
X178777872Y-106087138D01*
X178788523Y-106087549D01*
X178876041Y-106090925D01*
X178961476Y-106100320D01*
G37*
G36*
X179207931Y-102507685D02*
G01*
X177806552Y-102507685D01*
X177806552Y-102057242D01*
X179207931Y-102057242D01*
X179207931Y-102507685D01*
G37*
G36*
X179207931Y-112993005D02*
G01*
X179056637Y-112993005D01*
X179101587Y-113051874D01*
X179147520Y-113120814D01*
X179189505Y-113199831D01*
X179223334Y-113279945D01*
X179244801Y-113352174D01*
X179246662Y-113361597D01*
X179254474Y-113464498D01*
X179241607Y-113564716D01*
X179209687Y-113658091D01*
X179160340Y-113740465D01*
X179095195Y-113807678D01*
X179063247Y-113830555D01*
X179010919Y-113863740D01*
X179072319Y-113944506D01*
X179125456Y-114022163D01*
X179173216Y-114106592D01*
X179212178Y-114190771D01*
X179238919Y-114267679D01*
X179246880Y-114302590D01*
X179254139Y-114405721D01*
X179240841Y-114504577D01*
X179208580Y-114595509D01*
X179158954Y-114674865D01*
X179093559Y-114738995D01*
X179041811Y-114771578D01*
X179011945Y-114786386D01*
X178983710Y-114798725D01*
X178954512Y-114808851D01*
X178921756Y-114817020D01*
X178882846Y-114823490D01*
X178835189Y-114828516D01*
X178776189Y-114832356D01*
X178703253Y-114835265D01*
X178613784Y-114837501D01*
X178505189Y-114839319D01*
X178374872Y-114840977D01*
X178335197Y-114841435D01*
X177806552Y-114847471D01*
X177806552Y-114396242D01*
X178278892Y-114392185D01*
X178400776Y-114391071D01*
X178500248Y-114389932D01*
X178579917Y-114388623D01*
X178642396Y-114387000D01*
X178690295Y-114384915D01*
X178726226Y-114382225D01*
X178752800Y-114378783D01*
X178772627Y-114374445D01*
X178788320Y-114369065D01*
X178801281Y-114363104D01*
X178845989Y-114332786D01*
X178874945Y-114292283D01*
X178889967Y-114237487D01*
X178892871Y-114164289D01*
X178892600Y-114156651D01*
X178886904Y-114091821D01*
X178873861Y-114038786D01*
X178853507Y-113990862D01*
X178818209Y-113918917D01*
X177806552Y-113918917D01*
X177806552Y-113470098D01*
X178278892Y-113466158D01*
X178400541Y-113465084D01*
X178499779Y-113463996D01*
X178579216Y-113462743D01*
X178641465Y-113461177D01*
X178689138Y-113459148D01*
X178724847Y-113456508D01*
X178751204Y-113453107D01*
X178770821Y-113448796D01*
X178786310Y-113443426D01*
X178800283Y-113436848D01*
X178801281Y-113436334D01*
X178849865Y-113397981D01*
X178881741Y-113343798D01*
X178896418Y-113277013D01*
X178893404Y-113200854D01*
X178872210Y-113118551D01*
X178855734Y-113078461D01*
X178816345Y-112993005D01*
X177806552Y-112993005D01*
X177806552Y-112542562D01*
X179207931Y-112542562D01*
X179207931Y-112993005D01*
G37*
G36*
X179670887Y-100455665D02*
G01*
X179066337Y-100455665D01*
X178909559Y-100455972D01*
X178770705Y-100456874D01*
X178650966Y-100458349D01*
X178551535Y-100460373D01*
X178473605Y-100462921D01*
X178418368Y-100465969D01*
X178387941Y-100469317D01*
X178298078Y-100493629D01*
X178228559Y-100530673D01*
X178177733Y-100582398D01*
X178143944Y-100650750D01*
X178125541Y-100737675D01*
X178121875Y-100782631D01*
X178123810Y-100884190D01*
X178141382Y-100967341D01*
X178175426Y-101033854D01*
X178226780Y-101085501D01*
X178279804Y-101116800D01*
X178350837Y-101150099D01*
X179010862Y-101153746D01*
X179670887Y-101157394D01*
X179670887Y-101631823D01*
X179015992Y-101631823D01*
X178870040Y-101631774D01*
X178746801Y-101631575D01*
X178643963Y-101631152D01*
X178559212Y-101630427D01*
X178490238Y-101629324D01*
X178434728Y-101627768D01*
X178390370Y-101625682D01*
X178354853Y-101622990D01*
X178325863Y-101619616D01*
X178301089Y-101615483D01*
X178278219Y-101610517D01*
X178264320Y-101607072D01*
X178165639Y-101575511D01*
X178084068Y-101534140D01*
X178012341Y-101478787D01*
X177974141Y-101440536D01*
X177917351Y-101372054D01*
X177874004Y-101301436D01*
X177839236Y-101219874D01*
X177820554Y-101162296D01*
X177785343Y-101000848D01*
X177772354Y-100827939D01*
X177781590Y-100643622D01*
X177783006Y-100630838D01*
X177809289Y-100487130D01*
X177852994Y-100360124D01*
X177913560Y-100250485D01*
X177990428Y-100158878D01*
X178083039Y-100085971D01*
X178190832Y-100032429D01*
X178313248Y-99998917D01*
X178314311Y-99998727D01*
X178344470Y-99994414D01*
X178383813Y-99990794D01*
X178434390Y-99987818D01*
X178498250Y-99985434D01*
X178577443Y-99983591D01*
X178674020Y-99982239D01*
X178790029Y-99981325D01*
X178927521Y-99980801D01*
X179042143Y-99980634D01*
X179670887Y-99980197D01*
X179670887Y-100455665D01*
G37*
G36*
X178783953Y-110720393D02*
G01*
X178901818Y-110770845D01*
X179004619Y-110840133D01*
X179091305Y-110927480D01*
X179160824Y-111032112D01*
X179212124Y-111153251D01*
X179228574Y-111211257D01*
X179241062Y-111284276D01*
X179248019Y-111372994D01*
X179249454Y-111468706D01*
X179245373Y-111562706D01*
X179235784Y-111646288D01*
X179228166Y-111684660D01*
X179185740Y-111811922D01*
X179124133Y-111923299D01*
X179044108Y-112018015D01*
X178946432Y-112095298D01*
X178831870Y-112154372D01*
X178731559Y-112187240D01*
X178662033Y-112199660D01*
X178577135Y-112206633D01*
X178485624Y-112208155D01*
X178396262Y-112204221D01*
X178317809Y-112194828D01*
X178282924Y-112187448D01*
X178156380Y-112142905D01*
X178045522Y-112079634D01*
X177951538Y-111998831D01*
X177875617Y-111901688D01*
X177818947Y-111789401D01*
X177788604Y-111690916D01*
X177776350Y-111621405D01*
X177767640Y-111538679D01*
X177764199Y-111474876D01*
X178068774Y-111474876D01*
X178083701Y-111550338D01*
X178092994Y-111573743D01*
X178131635Y-111631562D01*
X178189221Y-111682010D01*
X178259785Y-111720108D01*
X178275367Y-111725959D01*
X178310803Y-111735860D01*
X178353140Y-111742352D01*
X178407834Y-111745934D01*
X178480344Y-111747101D01*
X178507241Y-111747051D01*
X178580314Y-111746113D01*
X178634449Y-111743639D01*
X178675717Y-111738898D01*
X178710193Y-111731158D01*
X178743950Y-111719687D01*
X178748299Y-111718002D01*
X178828558Y-111678077D01*
X178886510Y-111628699D01*
X178923841Y-111567517D01*
X178942239Y-111492181D01*
X178944898Y-111444204D01*
X178939921Y-111372334D01*
X178922318Y-111315934D01*
X178888942Y-111267312D01*
X178861202Y-111239724D01*
X178816475Y-111204865D01*
X178767827Y-111179472D01*
X178710561Y-111162321D01*
X178639983Y-111152190D01*
X178551396Y-111147854D01*
X178507241Y-111147466D01*
X178419559Y-111148728D01*
X178351344Y-111153282D01*
X178297138Y-111162232D01*
X178251479Y-111176683D01*
X178208907Y-111197738D01*
X178184528Y-111212730D01*
X178132198Y-111260766D01*
X178094487Y-111324318D01*
X178072858Y-111397612D01*
X178068774Y-111474876D01*
X177764199Y-111474876D01*
X177762969Y-111452074D01*
X177762834Y-111370924D01*
X177767732Y-111304563D01*
X177767961Y-111302899D01*
X177798376Y-111164798D01*
X177848060Y-111042231D01*
X177916035Y-110936022D01*
X178001328Y-110846994D01*
X178102961Y-110775970D01*
X178219960Y-110723774D01*
X178351349Y-110691228D01*
X178496152Y-110679157D01*
X178507241Y-110679100D01*
X178652077Y-110689553D01*
X178783953Y-110720393D01*
G37*
G36*
X179207931Y-103383547D02*
G01*
X179058621Y-103383547D01*
X179114716Y-103463791D01*
X179185526Y-103582716D01*
X179231542Y-103701333D01*
X179252697Y-103819397D01*
X179248928Y-103936661D01*
X179246021Y-103955253D01*
X179219039Y-104060492D01*
X179177279Y-104146731D01*
X179119424Y-104216065D01*
X179049986Y-104267230D01*
X179021116Y-104283631D01*
X178993730Y-104297314D01*
X178965277Y-104308551D01*
X178933212Y-104317616D01*
X178894984Y-104324780D01*
X178848045Y-104330316D01*
X178789848Y-104334498D01*
X178717843Y-104337597D01*
X178629482Y-104339887D01*
X178522218Y-104341640D01*
X178393501Y-104343129D01*
X178335197Y-104343714D01*
X177806552Y-104348901D01*
X177806552Y-103898674D01*
X178266379Y-103894485D01*
X178726207Y-103890296D01*
X178788768Y-103859015D01*
X178836706Y-103829525D01*
X178868436Y-103794511D01*
X178886356Y-103748899D01*
X178892866Y-103687615D01*
X178892244Y-103640050D01*
X178886667Y-103572994D01*
X178874402Y-103517965D01*
X178852611Y-103462258D01*
X178852379Y-103461749D01*
X178816632Y-103383547D01*
X177806552Y-103383547D01*
X177806552Y-102933104D01*
X179207931Y-102933104D01*
X179207931Y-103383547D01*
G37*
G36*
X179758473Y-102520197D02*
G01*
X179420640Y-102520197D01*
X179420640Y-102044729D01*
X179758473Y-102044729D01*
X179758473Y-102520197D01*
G37*
G36*
X178294532Y-108813892D02*
G01*
X177806552Y-108813892D01*
X177806552Y-108363449D01*
X178294532Y-108363449D01*
X178294532Y-108813892D01*
G37*
G36*
X178144384Y-105010148D02*
G01*
X179333054Y-105010148D01*
X179333054Y-104709853D01*
X179670887Y-104709853D01*
X179670887Y-105785912D01*
X179333054Y-105785912D01*
X179333054Y-105485616D01*
X178144384Y-105485616D01*
X178144384Y-105785912D01*
X177806552Y-105785912D01*
X177806552Y-104709853D01*
X178144384Y-104709853D01*
X178144384Y-105010148D01*
G37*
%TO.C,D1*%
X171755000Y-113445000D02*
X171755000Y-111975000D01*
X169470000Y-113445000D02*
X171755000Y-113445000D01*
X171755000Y-111975000D02*
X169470000Y-111975000D01*
%TO.C,C3*%
X129540000Y-102789420D02*
X129540000Y-103070580D01*
X128520000Y-102789420D02*
X128520000Y-103070580D01*
%TO.C,R11*%
X129787500Y-115342742D02*
X129787500Y-115817258D01*
X128742500Y-115342742D02*
X128742500Y-115817258D01*
%TO.C,C2*%
X111659420Y-98024000D02*
X111940580Y-98024000D01*
X111659420Y-99044000D02*
X111940580Y-99044000D01*
%TO.C,R2*%
X173681742Y-105072500D02*
X174156258Y-105072500D01*
X173681742Y-104027500D02*
X174156258Y-104027500D01*
D10*
%TO.C,HOLE8*%
X180214000Y-94810000D02*
G75*
G03*
X180214000Y-94810000I-1800000J0D01*
G01*
D13*
%TO.C,D3*%
X171745000Y-103065000D02*
X171745000Y-101595000D01*
X171745000Y-101595000D02*
X169460000Y-101595000D01*
X169460000Y-103065000D02*
X171745000Y-103065000D01*
D10*
%TO.C,HOLE7*%
X180234000Y-119950000D02*
G75*
G03*
X180234000Y-119950000I-1800000J0D01*
G01*
D13*
%TO.C,C5*%
X122293334Y-99190580D02*
X122293334Y-98909420D01*
X121273334Y-99190580D02*
X121273334Y-98909420D01*
%TO.C,J2*%
X186078500Y-90582000D02*
X195198500Y-90582000D01*
X195198500Y-90582000D02*
X195198500Y-123862000D01*
X195198500Y-123862000D02*
X186078500Y-123862000D01*
X186078500Y-123862000D02*
X186078500Y-90582000D01*
X186078500Y-105172000D02*
X195198500Y-105172000D01*
X186078500Y-109272000D02*
X195198500Y-109272000D01*
%TO.C,Y1*%
X124410000Y-99020000D02*
X124410000Y-103020000D01*
X127710000Y-99020000D02*
X124410000Y-99020000D01*
%TO.C,*%
G36*
X127177873Y-108263209D02*
G01*
X127165781Y-108261034D01*
X127088781Y-108239653D01*
X127018308Y-108208228D01*
X126955577Y-108167564D01*
X126901799Y-108118460D01*
X126858186Y-108061721D01*
X126853784Y-108054588D01*
X126823483Y-107992707D01*
X126801282Y-107922650D01*
X126787419Y-107847024D01*
X126782131Y-107768440D01*
X126782661Y-107756571D01*
X126967163Y-107756571D01*
X126967850Y-107773547D01*
X126976506Y-107830296D01*
X126996050Y-107879380D01*
X127026397Y-107920733D01*
X127067462Y-107954289D01*
X127119161Y-107979982D01*
X127181407Y-107997746D01*
X127254116Y-108007514D01*
X127270120Y-108008514D01*
X127344638Y-108007914D01*
X127412642Y-107998389D01*
X127473098Y-107980296D01*
X127524972Y-107953992D01*
X127567230Y-107919833D01*
X127584176Y-107900253D01*
X127607549Y-107859365D01*
X127621901Y-107811763D01*
X127626777Y-107760972D01*
X127621725Y-107710512D01*
X127612706Y-107679035D01*
X127589549Y-107635572D01*
X127555297Y-107597073D01*
X127511674Y-107564792D01*
X127460407Y-107539979D01*
X127403220Y-107523888D01*
X127397503Y-107522851D01*
X127360167Y-107518614D01*
X127316171Y-107517078D01*
X127269318Y-107518045D01*
X127223413Y-107521320D01*
X127182259Y-107526707D01*
X127149660Y-107534008D01*
X127143723Y-107535955D01*
X127086027Y-107561783D01*
X127039781Y-107594165D01*
X127004641Y-107633403D01*
X126980264Y-107679802D01*
X126979939Y-107680658D01*
X126971799Y-107705617D01*
X126967798Y-107728942D01*
X126967163Y-107756571D01*
X126782661Y-107756571D01*
X126785657Y-107689506D01*
X126798235Y-107612832D01*
X126809670Y-107570747D01*
X126838868Y-107499339D01*
X126878562Y-107435923D01*
X126928209Y-107380990D01*
X126987264Y-107335033D01*
X127055182Y-107298542D01*
X127131420Y-107272009D01*
X127143958Y-107268816D01*
X127197173Y-107259423D01*
X127257986Y-107254461D01*
X127321598Y-107253935D01*
X127383210Y-107257850D01*
X127438019Y-107266213D01*
X127447942Y-107268468D01*
X127526616Y-107293622D01*
X127596241Y-107328529D01*
X127656580Y-107372917D01*
X127707395Y-107426513D01*
X127748451Y-107489047D01*
X127779510Y-107560246D01*
X127800335Y-107639838D01*
X127806526Y-107680116D01*
X127811246Y-107727251D01*
X127812679Y-107768685D01*
X127810803Y-107810731D01*
X127805940Y-107856968D01*
X127789849Y-107935553D01*
X127762323Y-108008105D01*
X127724114Y-108073733D01*
X127675973Y-108131548D01*
X127618652Y-108180659D01*
X127552901Y-108220176D01*
X127479472Y-108249208D01*
X127473428Y-108251010D01*
X127433766Y-108259654D01*
X127384950Y-108265827D01*
X127330966Y-108269399D01*
X127275801Y-108270240D01*
X127270120Y-108270021D01*
X127223441Y-108268220D01*
X127177873Y-108263209D01*
G37*
G36*
X127286674Y-105947263D02*
G01*
X127282062Y-105965818D01*
X127273403Y-105978260D01*
X127246433Y-106009934D01*
X127223449Y-106050915D01*
X127205976Y-106097391D01*
X127195541Y-106145551D01*
X127193242Y-106178395D01*
X127197552Y-106230957D01*
X127211011Y-106274456D01*
X127234412Y-106310236D01*
X127268549Y-106339642D01*
X127298450Y-106356759D01*
X127318102Y-106366111D01*
X127334271Y-106372350D01*
X127350527Y-106376104D01*
X127370441Y-106378002D01*
X127397583Y-106378673D01*
X127423344Y-106378750D01*
X127471333Y-106377294D01*
X127509243Y-106372283D01*
X127540089Y-106362751D01*
X127566887Y-106347731D01*
X127592651Y-106326259D01*
X127595374Y-106323635D01*
X127621294Y-106289475D01*
X127638485Y-106247593D01*
X127646982Y-106200336D01*
X127646821Y-106150047D01*
X127638039Y-106099070D01*
X127620671Y-106049752D01*
X127594753Y-106004436D01*
X127590397Y-105998482D01*
X127575646Y-105976968D01*
X127564913Y-105957586D01*
X127560332Y-105944235D01*
X127560294Y-105943424D01*
X127560657Y-105937615D01*
X127563072Y-105933521D01*
X127569524Y-105930842D01*
X127582002Y-105929278D01*
X127602493Y-105928529D01*
X127632985Y-105928295D01*
X127660637Y-105928277D01*
X127760979Y-105928277D01*
X127774087Y-105958857D01*
X127793460Y-106015285D01*
X127807561Y-106079807D01*
X127815834Y-106148035D01*
X127817728Y-106215577D01*
X127813545Y-106271971D01*
X127797571Y-106350625D01*
X127772074Y-106420200D01*
X127737461Y-106480351D01*
X127694142Y-106530732D01*
X127642523Y-106571000D01*
X127583013Y-106600808D01*
X127516020Y-106619814D01*
X127441952Y-106627671D01*
X127393452Y-106626842D01*
X127318042Y-106616874D01*
X127251025Y-106596541D01*
X127192340Y-106565802D01*
X127141922Y-106524620D01*
X127099709Y-106472954D01*
X127073190Y-106426887D01*
X127051965Y-106377980D01*
X127037326Y-106329259D01*
X127028504Y-106276949D01*
X127024726Y-106217277D01*
X127024460Y-106188550D01*
X127026287Y-106133678D01*
X127032009Y-106085180D01*
X127042619Y-106037792D01*
X127059110Y-105986248D01*
X127066304Y-105966650D01*
X127080749Y-105928277D01*
X127286674Y-105928277D01*
X127286674Y-105947263D01*
G37*
G36*
X127793873Y-109437497D02*
G01*
X127548615Y-109439731D01*
X127303358Y-109441966D01*
X127269990Y-109458650D01*
X127244421Y-109474379D01*
X127227498Y-109493054D01*
X127217939Y-109517382D01*
X127214467Y-109550069D01*
X127214799Y-109575439D01*
X127217774Y-109611204D01*
X127224315Y-109640555D01*
X127235938Y-109670267D01*
X127236062Y-109670539D01*
X127255128Y-109712249D01*
X127793873Y-109712249D01*
X127793873Y-109952502D01*
X127046421Y-109952502D01*
X127046421Y-109712249D01*
X127126059Y-109712249D01*
X127096139Y-109669450D01*
X127058372Y-109606019D01*
X127033828Y-109542752D01*
X127022545Y-109479781D01*
X127024555Y-109417236D01*
X127026105Y-109407320D01*
X127040497Y-109351188D01*
X127062770Y-109305191D01*
X127093628Y-109268211D01*
X127130664Y-109240921D01*
X127146063Y-109232173D01*
X127160670Y-109224875D01*
X127175845Y-109218881D01*
X127192948Y-109214047D01*
X127213338Y-109210226D01*
X127238373Y-109207273D01*
X127269414Y-109205042D01*
X127307819Y-109203389D01*
X127354948Y-109202168D01*
X127412159Y-109201233D01*
X127480813Y-109200439D01*
X127511910Y-109200127D01*
X127793873Y-109197360D01*
X127793873Y-109437497D01*
G37*
G36*
X127272558Y-105799008D02*
G01*
X127209693Y-105772098D01*
X127154862Y-105735143D01*
X127108626Y-105688554D01*
X127071547Y-105632747D01*
X127044185Y-105568135D01*
X127035411Y-105537196D01*
X127028751Y-105498250D01*
X127025040Y-105450931D01*
X127024471Y-105412950D01*
X127186715Y-105412950D01*
X127189370Y-105451283D01*
X127198758Y-105481365D01*
X127216560Y-105507298D01*
X127231356Y-105522013D01*
X127255212Y-105540606D01*
X127281159Y-105554150D01*
X127311703Y-105563297D01*
X127349347Y-105568701D01*
X127396596Y-105571014D01*
X127420147Y-105571221D01*
X127466914Y-105570548D01*
X127503298Y-105568119D01*
X127532210Y-105563345D01*
X127556563Y-105555637D01*
X127579269Y-105544407D01*
X127592272Y-105536411D01*
X127620184Y-105510790D01*
X127640298Y-105476893D01*
X127651834Y-105437801D01*
X127654012Y-105396590D01*
X127646050Y-105356342D01*
X127641094Y-105343858D01*
X127620483Y-105313019D01*
X127589769Y-105286112D01*
X127552132Y-105265792D01*
X127543822Y-105262671D01*
X127524921Y-105257390D01*
X127502340Y-105253927D01*
X127473168Y-105252017D01*
X127434493Y-105251394D01*
X127420147Y-105251421D01*
X127381172Y-105251921D01*
X127352299Y-105253241D01*
X127330287Y-105255769D01*
X127311899Y-105259898D01*
X127293895Y-105266016D01*
X127291575Y-105266915D01*
X127248767Y-105288209D01*
X127217857Y-105314546D01*
X127197946Y-105347179D01*
X127188133Y-105387360D01*
X127186715Y-105412950D01*
X127024471Y-105412950D01*
X127024275Y-105399881D01*
X127026451Y-105349745D01*
X127031566Y-105305165D01*
X127035629Y-105284698D01*
X127058257Y-105216821D01*
X127091117Y-105157416D01*
X127133799Y-105106897D01*
X127185897Y-105065677D01*
X127247001Y-105034169D01*
X127300503Y-105016638D01*
X127337586Y-105010014D01*
X127382868Y-105006295D01*
X127431677Y-105005483D01*
X127479340Y-105007581D01*
X127521185Y-105012591D01*
X127539791Y-105016527D01*
X127607285Y-105040285D01*
X127666414Y-105074032D01*
X127716542Y-105117130D01*
X127757036Y-105168942D01*
X127787262Y-105228833D01*
X127803446Y-105281362D01*
X127809981Y-105318437D01*
X127814627Y-105362560D01*
X127817119Y-105408752D01*
X127817191Y-105452035D01*
X127814578Y-105487430D01*
X127814456Y-105488318D01*
X127798233Y-105561976D01*
X127771734Y-105627350D01*
X127735478Y-105683998D01*
X127689985Y-105731483D01*
X127635777Y-105769365D01*
X127573374Y-105797205D01*
X127503295Y-105814563D01*
X127426062Y-105821002D01*
X127420147Y-105821032D01*
X127342896Y-105815457D01*
X127272558Y-105799008D01*
G37*
G36*
X126979685Y-108591072D02*
G01*
X127613684Y-108591072D01*
X127613684Y-108430904D01*
X127793873Y-108430904D01*
X127793873Y-109004840D01*
X127613684Y-109004840D01*
X127613684Y-108844672D01*
X126979685Y-108844672D01*
X126979685Y-109004840D01*
X126799496Y-109004840D01*
X126799496Y-108430904D01*
X126979685Y-108430904D01*
X126979685Y-108591072D01*
G37*
G36*
X127226642Y-110646590D02*
G01*
X127292374Y-110646696D01*
X127347224Y-110646922D01*
X127392428Y-110647308D01*
X127429216Y-110647896D01*
X127458823Y-110648726D01*
X127482482Y-110649839D01*
X127501426Y-110651275D01*
X127516889Y-110653075D01*
X127530102Y-110655279D01*
X127542300Y-110657928D01*
X127549714Y-110659765D01*
X127602347Y-110676599D01*
X127645854Y-110698665D01*
X127684112Y-110728188D01*
X127704486Y-110748590D01*
X127734776Y-110785116D01*
X127757896Y-110822782D01*
X127776440Y-110866284D01*
X127786404Y-110896995D01*
X127805185Y-110983106D01*
X127812113Y-111075330D01*
X127807187Y-111173639D01*
X127806431Y-111180457D01*
X127792413Y-111257106D01*
X127769102Y-111324848D01*
X127736798Y-111383326D01*
X127695799Y-111432186D01*
X127646403Y-111471072D01*
X127588910Y-111499630D01*
X127523617Y-111517504D01*
X127523050Y-111517605D01*
X127506964Y-111519906D01*
X127485980Y-111521837D01*
X127459004Y-111523424D01*
X127424943Y-111524696D01*
X127382704Y-111525678D01*
X127331193Y-111526400D01*
X127269317Y-111526887D01*
X127195984Y-111527167D01*
X127134848Y-111527256D01*
X126799496Y-111527488D01*
X126799496Y-111273889D01*
X127121943Y-111273889D01*
X127205564Y-111273726D01*
X127279624Y-111273244D01*
X127343489Y-111272457D01*
X127396522Y-111271378D01*
X127438088Y-111270019D01*
X127467550Y-111268393D01*
X127483778Y-111266608D01*
X127531708Y-111253640D01*
X127568787Y-111233882D01*
X127595897Y-111206294D01*
X127613918Y-111169837D01*
X127623734Y-111123474D01*
X127625690Y-111099496D01*
X127624657Y-111045327D01*
X127615285Y-111000977D01*
X127597127Y-110965501D01*
X127569737Y-110937954D01*
X127541455Y-110921261D01*
X127503568Y-110903500D01*
X127151532Y-110901555D01*
X126799496Y-110899609D01*
X126799496Y-110646564D01*
X127148796Y-110646564D01*
X127226642Y-110646590D01*
G37*
G36*
X127793873Y-103838426D02*
G01*
X127541942Y-103840590D01*
X127476932Y-103841184D01*
X127423877Y-103841792D01*
X127381384Y-103842490D01*
X127348060Y-103843356D01*
X127322512Y-103844468D01*
X127303348Y-103845903D01*
X127289174Y-103847738D01*
X127278599Y-103850052D01*
X127270229Y-103852922D01*
X127263316Y-103856101D01*
X127239470Y-103872272D01*
X127224026Y-103893875D01*
X127216014Y-103923101D01*
X127214465Y-103962143D01*
X127214609Y-103966217D01*
X127217647Y-104000795D01*
X127224604Y-104029082D01*
X127235460Y-104054643D01*
X127254287Y-104093017D01*
X127793873Y-104093017D01*
X127793873Y-104332402D01*
X127541942Y-104334504D01*
X127477058Y-104335076D01*
X127424128Y-104335657D01*
X127381758Y-104336325D01*
X127348556Y-104337161D01*
X127323129Y-104338243D01*
X127304083Y-104339651D01*
X127290025Y-104341465D01*
X127279562Y-104343764D01*
X127271301Y-104346628D01*
X127263848Y-104350137D01*
X127263316Y-104350411D01*
X127237403Y-104370867D01*
X127220401Y-104399767D01*
X127212573Y-104435388D01*
X127214180Y-104476008D01*
X127225485Y-104519906D01*
X127234272Y-104541289D01*
X127255281Y-104586868D01*
X127793873Y-104586868D01*
X127793873Y-104827121D01*
X127046421Y-104827121D01*
X127046421Y-104586868D01*
X127127117Y-104586868D01*
X127103142Y-104555470D01*
X127078643Y-104518699D01*
X127056249Y-104476554D01*
X127038206Y-104433824D01*
X127026756Y-104395299D01*
X127025764Y-104390273D01*
X127021597Y-104335389D01*
X127028460Y-104281936D01*
X127045485Y-104232133D01*
X127071805Y-104188197D01*
X127106552Y-104152348D01*
X127123591Y-104140146D01*
X127151502Y-104122446D01*
X127118753Y-104079368D01*
X127090411Y-104037948D01*
X127064937Y-103992917D01*
X127044156Y-103948018D01*
X127029893Y-103906998D01*
X127025648Y-103888377D01*
X127021775Y-103833371D01*
X127028868Y-103780644D01*
X127046075Y-103732144D01*
X127072544Y-103689818D01*
X127107424Y-103655613D01*
X127135025Y-103638234D01*
X127150954Y-103630336D01*
X127166014Y-103623755D01*
X127181587Y-103618354D01*
X127199058Y-103613997D01*
X127219811Y-103610546D01*
X127245230Y-103607865D01*
X127276699Y-103605817D01*
X127315601Y-103604265D01*
X127363321Y-103603073D01*
X127421242Y-103602103D01*
X127490749Y-103601219D01*
X127511910Y-103600974D01*
X127793873Y-103597755D01*
X127793873Y-103838426D01*
G37*
G36*
X126932969Y-110426332D02*
G01*
X126752780Y-110426332D01*
X126752780Y-110172733D01*
X126932969Y-110172733D01*
X126932969Y-110426332D01*
G37*
G36*
X127793873Y-110419659D02*
G01*
X127046421Y-110419659D01*
X127046421Y-110179406D01*
X127793873Y-110179406D01*
X127793873Y-110419659D01*
G37*
G36*
X127793873Y-107056127D02*
G01*
X127533600Y-107056127D01*
X127533600Y-106815875D01*
X127793873Y-106815875D01*
X127793873Y-107056127D01*
G37*
%TO.C,D4*%
X125275000Y-117045000D02*
X126745000Y-117045000D01*
X126745000Y-117045000D02*
X126745000Y-114760000D01*
X125275000Y-114760000D02*
X125275000Y-117045000D01*
%TO.C,R3*%
X173681742Y-102862500D02*
X174156258Y-102862500D01*
X173681742Y-101817500D02*
X174156258Y-101817500D01*
%TO.C,R12*%
X120127500Y-115362742D02*
X120127500Y-115837258D01*
X121172500Y-115362742D02*
X121172500Y-115837258D01*
D14*
%TO.C,U1*%
X109270000Y-101074000D02*
X107470000Y-101074000D01*
X109270000Y-99124000D02*
X109270000Y-99924000D01*
X109270000Y-97974000D02*
X107470000Y-97974000D01*
X106973000Y-97873000D02*
G75*
G03*
X106973000Y-97873000I-127000J0D01*
G01*
D13*
%TO.C,J4*%
X165685000Y-121194000D02*
X168285000Y-121194000D01*
X165685000Y-118534000D02*
X168285000Y-118534000D01*
X163085000Y-121194000D02*
X163085000Y-119864000D01*
X164415000Y-121194000D02*
X163085000Y-121194000D01*
X168285000Y-121194000D02*
X168285000Y-118534000D01*
X165685000Y-121194000D02*
X165685000Y-118534000D01*
%TO.C,D5*%
X119595000Y-117045000D02*
X119595000Y-114760000D01*
X118125000Y-117045000D02*
X119595000Y-117045000D01*
X118125000Y-114760000D02*
X118125000Y-117045000D01*
%TO.C,C1*%
X111940580Y-100974000D02*
X111659420Y-100974000D01*
X111940580Y-99954000D02*
X111659420Y-99954000D01*
D10*
%TO.C,HOLE1*%
X105070000Y-98860000D02*
G75*
G03*
X105070000Y-98860000I-900000J0D01*
G01*
D13*
%TO.C,R6*%
X120632500Y-99287258D02*
X120632500Y-98812742D01*
X119587500Y-99287258D02*
X119587500Y-98812742D01*
%TO.C,J5*%
X149511500Y-97080000D02*
X158631500Y-97080000D01*
X158631500Y-97080000D02*
X158631500Y-117660000D01*
X149511500Y-117660000D02*
X149511500Y-97080000D01*
X158631500Y-109420000D02*
X149511500Y-109420000D01*
X158631500Y-117660000D02*
X149511500Y-117660000D01*
X158631500Y-105320000D02*
X149511500Y-105320000D01*
D11*
%TO.C,U2*%
X118951021Y-102721074D02*
X123638432Y-107408485D01*
X114245226Y-107426870D02*
X118951021Y-102721074D01*
X118932637Y-112114281D02*
X118393821Y-111575466D01*
X123638432Y-107408485D02*
X118932637Y-112114281D01*
X118627874Y-111809518D02*
X114245226Y-107426870D01*
D15*
X124209443Y-106925920D02*
G75*
G03*
X124207653Y-106924117I141031J141825D01*
G01*
D14*
X122965561Y-107251508D02*
G75*
G03*
X122965561Y-107251508I-170000J0D01*
G01*
D10*
%TO.C,HOLE6*%
X162354000Y-119920000D02*
G75*
G03*
X162354000Y-119920000I-1800000J0D01*
G01*
D14*
%TO.C,USB1*%
X105966000Y-103050000D02*
X107711000Y-103050000D01*
X102189000Y-103050000D02*
X103611000Y-103050000D01*
X102189000Y-103050000D02*
X102189000Y-111850000D01*
X105966000Y-111850000D02*
X107711000Y-111850000D01*
X102189000Y-111850000D02*
X103611000Y-111850000D01*
D13*
%TO.C,J1*%
X163075000Y-96224000D02*
X163075000Y-94894000D01*
X165675000Y-96224000D02*
X175895000Y-96224000D01*
X165675000Y-96224000D02*
X165675000Y-93564000D01*
X175895000Y-96224000D02*
X175895000Y-93564000D01*
X165675000Y-93564000D02*
X175895000Y-93564000D01*
X164405000Y-96224000D02*
X163075000Y-96224000D01*
%TO.C,R5*%
X170517258Y-107247500D02*
X170042742Y-107247500D01*
X170517258Y-108292500D02*
X170042742Y-108292500D01*
D10*
%TO.C,HOLE4*%
X136510000Y-99260000D02*
G75*
G03*
X136510000Y-99260000I-1800000J0D01*
G01*
D13*
%TO.C,R7*%
X117897500Y-99287258D02*
X117897500Y-98812742D01*
X118942500Y-99287258D02*
X118942500Y-98812742D01*
D10*
%TO.C,HOLE5*%
X162314000Y-94810000D02*
G75*
G03*
X162314000Y-94810000I-1800000J0D01*
G01*
D13*
%TO.C,D2*%
X169460000Y-105245000D02*
X171745000Y-105245000D01*
X171745000Y-105245000D02*
X171745000Y-103775000D01*
X171745000Y-103775000D02*
X169460000Y-103775000D01*
D10*
%TO.C,HOLE3*%
X136470000Y-115510000D02*
G75*
G03*
X136470000Y-115510000I-1800000J0D01*
G01*
D13*
%TO.C,C4*%
X128500000Y-99260580D02*
X128500000Y-98979420D01*
X129520000Y-99260580D02*
X129520000Y-98979420D01*
%TO.C,R8*%
X117272500Y-99287258D02*
X117272500Y-98812742D01*
X116227500Y-99287258D02*
X116227500Y-98812742D01*
%TO.C,R9*%
X116537500Y-115797258D02*
X116537500Y-115322742D01*
X117582500Y-115797258D02*
X117582500Y-115322742D01*
%TO.C,R1*%
X174217258Y-112187500D02*
X173742742Y-112187500D01*
X174217258Y-113232500D02*
X173742742Y-113232500D01*
%TO.C,R4*%
X170517258Y-109027500D02*
X170042742Y-109027500D01*
X170517258Y-110072500D02*
X170042742Y-110072500D01*
%TO.C,J3*%
X175845000Y-121194000D02*
X175845000Y-118534000D01*
X173245000Y-121194000D02*
X175845000Y-121194000D01*
X173245000Y-118534000D02*
X175845000Y-118534000D01*
X173245000Y-121194000D02*
X173245000Y-118534000D01*
X170645000Y-121194000D02*
X170645000Y-119864000D01*
X171975000Y-121194000D02*
X170645000Y-121194000D01*
%TO.C,R10*%
X127117500Y-115342742D02*
X127117500Y-115817258D01*
X128162500Y-115342742D02*
X128162500Y-115817258D01*
%TD*%
%LPC*%
D16*
%TO.C,J6*%
X106940000Y-115940000D03*
D17*
X109480000Y-115940000D03*
X112020000Y-115940000D03*
X114560000Y-115940000D03*
%TD*%
D18*
%TO.C,HOLE2*%
X104170000Y-115860000D03*
%TD*%
D19*
%TO.C,J7*%
X133240000Y-102320000D03*
D20*
X135780000Y-102320000D03*
X133240000Y-104860000D03*
X135780000Y-104860000D03*
X133240000Y-107400000D03*
X135780000Y-107400000D03*
X133240000Y-109940000D03*
X135780000Y-109940000D03*
X133240000Y-112480000D03*
X135780000Y-112480000D03*
%TD*%
D21*
%TO.C,D1*%
X171057500Y-112710000D03*
X169482500Y-112710000D03*
%TD*%
D22*
%TO.C,C3*%
X129030000Y-102155000D03*
X129030000Y-103705000D03*
%TD*%
D23*
%TO.C,R11*%
X129265000Y-114755000D03*
X129265000Y-116405000D03*
%TD*%
D24*
%TO.C,C2*%
X111025000Y-98534000D03*
X112575000Y-98534000D03*
%TD*%
D25*
%TO.C,R2*%
X173094000Y-104550000D03*
X174744000Y-104550000D03*
%TD*%
D26*
%TO.C,HOLE8*%
X178414000Y-94810000D03*
%TD*%
D21*
%TO.C,D3*%
X171047500Y-102330000D03*
X169472500Y-102330000D03*
%TD*%
D26*
%TO.C,HOLE7*%
X178434000Y-119950000D03*
%TD*%
D27*
%TO.C,C5*%
X121783334Y-99825000D03*
X121783334Y-98275000D03*
%TD*%
D19*
%TO.C,J2*%
X181808500Y-95792000D03*
D20*
X184348500Y-95792000D03*
X181808500Y-98332000D03*
X184348500Y-98332000D03*
X181808500Y-100872000D03*
X184348500Y-100872000D03*
X181808500Y-103412000D03*
X184348500Y-103412000D03*
X181808500Y-105952000D03*
X184348500Y-105952000D03*
X181808500Y-108492000D03*
X184348500Y-108492000D03*
X181808500Y-111032000D03*
X184348500Y-111032000D03*
X181808500Y-113572000D03*
X184348500Y-113572000D03*
X181808500Y-116112000D03*
X184348500Y-116112000D03*
X181808500Y-118652000D03*
X184348500Y-118652000D03*
%TD*%
D28*
%TO.C,Y1*%
X125210000Y-99920000D03*
X125210000Y-102120000D03*
X126910000Y-102120000D03*
X126910000Y-99920000D03*
%TD*%
D29*
%TO.C,D4*%
X126010000Y-116347500D03*
X126010000Y-114772500D03*
%TD*%
D25*
%TO.C,R3*%
X173094000Y-102340000D03*
X174744000Y-102340000D03*
%TD*%
D23*
%TO.C,R12*%
X120650000Y-114775000D03*
X120650000Y-116425000D03*
%TD*%
D30*
%TO.C,U1*%
X107070000Y-98574000D03*
X107070000Y-99524000D03*
X107070000Y-100474000D03*
X109670000Y-100474000D03*
X109670000Y-98574000D03*
%TD*%
D16*
%TO.C,J4*%
X164415000Y-119864000D03*
D17*
X166955000Y-119864000D03*
%TD*%
D29*
%TO.C,D5*%
X118860000Y-116347500D03*
X118860000Y-114772500D03*
%TD*%
D31*
%TO.C,C1*%
X112575000Y-100464000D03*
X111025000Y-100464000D03*
%TD*%
D18*
%TO.C,HOLE1*%
X104170000Y-98860000D03*
%TD*%
D32*
%TO.C,R6*%
X120110000Y-99875000D03*
X120110000Y-98225000D03*
%TD*%
D33*
%TO.C,J5*%
X162901500Y-112450000D03*
D20*
X160361500Y-112450000D03*
X162901500Y-109910000D03*
X160361500Y-109910000D03*
X162901500Y-107370000D03*
X160361500Y-107370000D03*
X162901500Y-104830000D03*
X160361500Y-104830000D03*
X162901500Y-102290000D03*
X160361500Y-102290000D03*
%TD*%
D34*
%TO.C,U2*%
X123891576Y-106339340D03*
X123538023Y-105985786D03*
X123184470Y-105632233D03*
X122830916Y-105278680D03*
X122477363Y-104925126D03*
X122123810Y-104571573D03*
X121770256Y-104218019D03*
X121416703Y-103864466D03*
X121063149Y-103510913D03*
X120709596Y-103157359D03*
X120356043Y-102803806D03*
X120002489Y-102450253D03*
D35*
X117881169Y-102450253D03*
X117527615Y-102803806D03*
X117174062Y-103157359D03*
X116820509Y-103510913D03*
X116466955Y-103864466D03*
X116113402Y-104218019D03*
X115759848Y-104571573D03*
X115406295Y-104925126D03*
X115052742Y-105278680D03*
X114699188Y-105632233D03*
X114345635Y-105985786D03*
X113992082Y-106339340D03*
D34*
X113992082Y-108460660D03*
X114345635Y-108814214D03*
X114699188Y-109167767D03*
X115052742Y-109521320D03*
X115406295Y-109874874D03*
X115759848Y-110228427D03*
X116113402Y-110581981D03*
X116466955Y-110935534D03*
X116820509Y-111289087D03*
X117174062Y-111642641D03*
X117527615Y-111996194D03*
X117881169Y-112349747D03*
D35*
X120002489Y-112349747D03*
X120356043Y-111996194D03*
X120709596Y-111642641D03*
X121063149Y-111289087D03*
X121416703Y-110935534D03*
X121770256Y-110581981D03*
X122123810Y-110228427D03*
X122477363Y-109874874D03*
X122830916Y-109521320D03*
X123184470Y-109167767D03*
X123538023Y-108814214D03*
X123891576Y-108460660D03*
%TD*%
D26*
%TO.C,HOLE6*%
X160554000Y-119920000D03*
%TD*%
D36*
%TO.C,USB1*%
X108489000Y-110340000D03*
X108489000Y-104560000D03*
D37*
X108989000Y-103125000D03*
X108989000Y-111775000D03*
D38*
X104789000Y-103125000D03*
X104789000Y-111775000D03*
D39*
X109751000Y-104250000D03*
X109751000Y-105050000D03*
D40*
X109751000Y-106200000D03*
X109751000Y-107200000D03*
X109751000Y-107700000D03*
X109751000Y-108700000D03*
D39*
X109751000Y-110650000D03*
X109751000Y-109850000D03*
D40*
X109751000Y-109200000D03*
X109751000Y-108200000D03*
X109751000Y-106700000D03*
X109751000Y-105700000D03*
%TD*%
D16*
%TO.C,J1*%
X164405000Y-94894000D03*
D17*
X166945000Y-94894000D03*
X169485000Y-94894000D03*
X172025000Y-94894000D03*
X174565000Y-94894000D03*
%TD*%
D41*
%TO.C,R5*%
X171105000Y-107770000D03*
X169455000Y-107770000D03*
%TD*%
D26*
%TO.C,HOLE4*%
X134710000Y-99260000D03*
%TD*%
D32*
%TO.C,R7*%
X118420000Y-99875000D03*
X118420000Y-98225000D03*
%TD*%
D26*
%TO.C,HOLE5*%
X160514000Y-94810000D03*
%TD*%
D21*
%TO.C,D2*%
X171047500Y-104510000D03*
X169472500Y-104510000D03*
%TD*%
D26*
%TO.C,HOLE3*%
X134670000Y-115510000D03*
%TD*%
D27*
%TO.C,C4*%
X129010000Y-99895000D03*
X129010000Y-98345000D03*
%TD*%
D32*
%TO.C,R8*%
X116750000Y-99875000D03*
X116750000Y-98225000D03*
%TD*%
%TO.C,R9*%
X117060000Y-116385000D03*
X117060000Y-114735000D03*
%TD*%
D41*
%TO.C,R1*%
X174805000Y-112710000D03*
X173155000Y-112710000D03*
%TD*%
%TO.C,R4*%
X171105000Y-109550000D03*
X169455000Y-109550000D03*
%TD*%
D16*
%TO.C,J3*%
X171975000Y-119864000D03*
D17*
X174515000Y-119864000D03*
%TD*%
D23*
%TO.C,R10*%
X127640000Y-114755000D03*
X127640000Y-116405000D03*
%TD*%
M02*
