%TF.GenerationSoftware,KiCad,Pcbnew,7.0.9*%
%TF.CreationDate,2024-01-11T16:53:17+08:00*%
%TF.ProjectId,UINIO-DAP-Link,55494e49-4f2d-4444-9150-2d4c696e6b2e,Version 3.3.1*%
%TF.SameCoordinates,PX6318a70PY5c9a0e0*%
%TF.FileFunction,Soldermask,Top*%
%TF.FilePolarity,Negative*%
%FSLAX46Y46*%
G04 Gerber Fmt 4.6, Leading zero omitted, Abs format (unit mm)*
G04 Created by KiCad (PCBNEW 7.0.9) date 2024-01-11 16:53:17*
%MOMM*%
%LPD*%
G01*
G04 APERTURE LIST*
G04 Aperture macros list*
%AMRoundRect*
0 Rectangle with rounded corners*
0 $1 Rounding radius*
0 $2 $3 $4 $5 $6 $7 $8 $9 X,Y pos of 4 corners*
0 Add a 4 corners polygon primitive as box body*
4,1,4,$2,$3,$4,$5,$6,$7,$8,$9,$2,$3,0*
0 Add four circle primitives for the rounded corners*
1,1,$1+$1,$2,$3*
1,1,$1+$1,$4,$5*
1,1,$1+$1,$6,$7*
1,1,$1+$1,$8,$9*
0 Add four rect primitives between the rounded corners*
20,1,$1+$1,$2,$3,$4,$5,0*
20,1,$1+$1,$4,$5,$6,$7,0*
20,1,$1+$1,$6,$7,$8,$9,0*
20,1,$1+$1,$8,$9,$2,$3,0*%
%AMHorizOval*
0 Thick line with rounded ends*
0 $1 width*
0 $2 $3 position (X,Y) of the first rounded end (center of the circle)*
0 $4 $5 position (X,Y) of the second rounded end (center of the circle)*
0 Add line between two ends*
20,1,$1,$2,$3,$4,$5,0*
0 Add two circle primitives to create the rounded ends*
1,1,$1,$2,$3*
1,1,$1,$4,$5*%
G04 Aperture macros list end*
%ADD10R,1.700000X1.700000*%
%ADD11O,1.700000X1.700000*%
%ADD12C,1.200000*%
%ADD13RoundRect,0.250000X-0.600000X-0.600000X0.600000X-0.600000X0.600000X0.600000X-0.600000X0.600000X0*%
%ADD14C,1.700000*%
%ADD15RoundRect,0.218750X0.218750X0.256250X-0.218750X0.256250X-0.218750X-0.256250X0.218750X-0.256250X0*%
%ADD16RoundRect,0.225000X-0.250000X0.225000X-0.250000X-0.225000X0.250000X-0.225000X0.250000X0.225000X0*%
%ADD17RoundRect,0.200000X-0.275000X0.200000X-0.275000X-0.200000X0.275000X-0.200000X0.275000X0.200000X0*%
%ADD18RoundRect,0.225000X-0.225000X-0.250000X0.225000X-0.250000X0.225000X0.250000X-0.225000X0.250000X0*%
%ADD19RoundRect,0.200000X-0.200000X-0.275000X0.200000X-0.275000X0.200000X0.275000X-0.200000X0.275000X0*%
%ADD20C,2.200000*%
%ADD21RoundRect,0.200000X0.200000X0.275000X-0.200000X0.275000X-0.200000X-0.275000X0.200000X-0.275000X0*%
%ADD22R,1.200000X1.400000*%
%ADD23RoundRect,0.218750X0.256250X-0.218750X0.256250X0.218750X-0.256250X0.218750X-0.256250X-0.218750X0*%
%ADD24RoundRect,0.200000X0.275000X-0.200000X0.275000X0.200000X-0.275000X0.200000X-0.275000X-0.200000X0*%
%ADD25R,1.000000X0.600000*%
%ADD26RoundRect,0.218750X-0.256250X0.218750X-0.256250X-0.218750X0.256250X-0.218750X0.256250X0.218750X0*%
%ADD27RoundRect,0.225000X0.225000X0.250000X-0.225000X0.250000X-0.225000X-0.250000X0.225000X-0.250000X0*%
%ADD28RoundRect,0.250000X0.600000X0.600000X-0.600000X0.600000X-0.600000X-0.600000X0.600000X-0.600000X0*%
%ADD29HorizOval,0.270000X-0.434871X0.434871X0.434871X-0.434871X0*%
%ADD30HorizOval,0.270000X0.434871X0.434871X-0.434871X-0.434871X0*%
%ADD31C,0.650000*%
%ADD32O,2.100000X1.000000*%
%ADD33O,1.900000X1.000000*%
%ADD34R,1.150000X0.600000*%
%ADD35R,1.150000X0.300000*%
%ADD36RoundRect,0.225000X0.250000X-0.225000X0.250000X0.225000X-0.250000X0.225000X-0.250000X-0.225000X0*%
G04 APERTURE END LIST*
D10*
%TO.C,J6*%
X3040000Y-19150000D03*
D11*
X5580000Y-19150000D03*
X8120000Y-19150000D03*
X10660000Y-19150000D03*
%TD*%
D12*
%TO.C,HOLE2*%
X260000Y-18550000D03*
%TD*%
D13*
%TO.C,J7*%
X29330000Y-5220000D03*
D14*
X31870000Y-5220000D03*
X29330000Y-7760000D03*
X31870000Y-7760000D03*
X29330000Y-10300000D03*
X31870000Y-10300000D03*
X29330000Y-12840000D03*
X31870000Y-12840000D03*
X29330000Y-15380000D03*
X31870000Y-15380000D03*
%TD*%
D15*
%TO.C,D1*%
X67147500Y-15610000D03*
X65572500Y-15610000D03*
%TD*%
D16*
%TO.C,C3*%
X26940000Y-17095000D03*
X26940000Y-18645000D03*
%TD*%
D17*
%TO.C,R11*%
X16050000Y-17865000D03*
X16050000Y-19515000D03*
%TD*%
D18*
%TO.C,C2*%
X7115000Y-1434000D03*
X8665000Y-1434000D03*
%TD*%
D19*
%TO.C,R2*%
X69184000Y-7450000D03*
X70834000Y-7450000D03*
%TD*%
D20*
%TO.C,HOLE8*%
X74504000Y2290000D03*
%TD*%
D15*
%TO.C,D3*%
X67137500Y-5230000D03*
X65562500Y-5230000D03*
%TD*%
D20*
%TO.C,HOLE7*%
X74524000Y-22850000D03*
%TD*%
D16*
%TO.C,C5*%
X19430000Y-17915000D03*
X19430000Y-19465000D03*
%TD*%
D21*
%TO.C,R16*%
X10465000Y-7300000D03*
X8815000Y-7300000D03*
%TD*%
D13*
%TO.C,J2*%
X77898500Y1130000D03*
D14*
X80438500Y1130000D03*
X77898500Y-1410000D03*
X80438500Y-1410000D03*
X77898500Y-3950000D03*
X80438500Y-3950000D03*
X77898500Y-6490000D03*
X80438500Y-6490000D03*
X77898500Y-9030000D03*
X80438500Y-9030000D03*
X77898500Y-11570000D03*
X80438500Y-11570000D03*
X77898500Y-14110000D03*
X80438500Y-14110000D03*
X77898500Y-16650000D03*
X80438500Y-16650000D03*
X77898500Y-19190000D03*
X80438500Y-19190000D03*
X77898500Y-21730000D03*
X80438500Y-21730000D03*
%TD*%
D22*
%TO.C,Y1*%
X23660000Y-15220000D03*
X23660000Y-17420000D03*
X25360000Y-17420000D03*
X25360000Y-15220000D03*
%TD*%
D23*
%TO.C,D4*%
X14320000Y-19477500D03*
X14320000Y-17902500D03*
%TD*%
D19*
%TO.C,R3*%
X69184000Y-5240000D03*
X70834000Y-5240000D03*
%TD*%
D24*
%TO.C,R12*%
X16050000Y-2775000D03*
X16050000Y-1125000D03*
%TD*%
D25*
%TO.C,U1*%
X3160000Y-1474000D03*
X3160000Y-2424000D03*
X3160000Y-3374000D03*
X5760000Y-3374000D03*
X5760000Y-1474000D03*
%TD*%
D10*
%TO.C,J4*%
X60505000Y-22764000D03*
D11*
X63045000Y-22764000D03*
%TD*%
D26*
%TO.C,D5*%
X14320000Y-1162500D03*
X14320000Y-2737500D03*
%TD*%
D27*
%TO.C,C1*%
X8665000Y-3364000D03*
X7115000Y-3364000D03*
%TD*%
D12*
%TO.C,HOLE1*%
X260000Y-2050000D03*
%TD*%
D17*
%TO.C,R6*%
X21120000Y-17865000D03*
X21120000Y-19515000D03*
%TD*%
D28*
%TO.C,J5*%
X58991500Y-15380000D03*
D14*
X56451500Y-15380000D03*
X58991500Y-12840000D03*
X56451500Y-12840000D03*
X58991500Y-10300000D03*
X56451500Y-10300000D03*
X58991500Y-7760000D03*
X56451500Y-7760000D03*
X58991500Y-5220000D03*
X56451500Y-5220000D03*
%TD*%
D29*
%TO.C,U2*%
X18970660Y-15129747D03*
X19324214Y-14776194D03*
X19677767Y-14422641D03*
X20031320Y-14069087D03*
X20384874Y-13715534D03*
X20738427Y-13361981D03*
X21091981Y-13008427D03*
X21445534Y-12654874D03*
X21799087Y-12301320D03*
X22152641Y-11947767D03*
X22506194Y-11594214D03*
X22859747Y-11240660D03*
D30*
X22859747Y-9119340D03*
X22506194Y-8765786D03*
X22152641Y-8412233D03*
X21799087Y-8058680D03*
X21445534Y-7705126D03*
X21091981Y-7351573D03*
X20738427Y-6998019D03*
X20384874Y-6644466D03*
X20031320Y-6290913D03*
X19677767Y-5937359D03*
X19324214Y-5583806D03*
X18970660Y-5230253D03*
D29*
X16849340Y-5230253D03*
X16495786Y-5583806D03*
X16142233Y-5937359D03*
X15788680Y-6290913D03*
X15435126Y-6644466D03*
X15081573Y-6998019D03*
X14728019Y-7351573D03*
X14374466Y-7705126D03*
X14020913Y-8058680D03*
X13667359Y-8412233D03*
X13313806Y-8765786D03*
X12960253Y-9119340D03*
D30*
X12960253Y-11240660D03*
X13313806Y-11594214D03*
X13667359Y-11947767D03*
X14020913Y-12301320D03*
X14374466Y-12654874D03*
X14728019Y-13008427D03*
X15081573Y-13361981D03*
X15435126Y-13715534D03*
X15788680Y-14069087D03*
X16142233Y-14422641D03*
X16495786Y-14776194D03*
X16849340Y-15129747D03*
%TD*%
D20*
%TO.C,HOLE6*%
X56644000Y-22820000D03*
%TD*%
D31*
%TO.C,USB1*%
X4379000Y-7450000D03*
X4379000Y-13230000D03*
D32*
X4879000Y-6015000D03*
X4879000Y-14665000D03*
D33*
X679000Y-6015000D03*
X679000Y-14665000D03*
D34*
X5641000Y-7140000D03*
X5641000Y-7940000D03*
D35*
X5641000Y-9090000D03*
X5641000Y-10090000D03*
X5641000Y-10590000D03*
X5641000Y-11590000D03*
D34*
X5641000Y-13540000D03*
X5641000Y-12740000D03*
D35*
X5641000Y-12090000D03*
X5641000Y-11090000D03*
X5641000Y-9590000D03*
X5641000Y-8590000D03*
%TD*%
D10*
%TO.C,J1*%
X60495000Y2206000D03*
D11*
X63035000Y2206000D03*
X65575000Y2206000D03*
X68115000Y2206000D03*
X70655000Y2206000D03*
%TD*%
D21*
%TO.C,R5*%
X67195000Y-10670000D03*
X65545000Y-10670000D03*
%TD*%
%TO.C,R15*%
X10465000Y-11680000D03*
X8815000Y-11680000D03*
%TD*%
D20*
%TO.C,HOLE4*%
X30800000Y-2050000D03*
%TD*%
D21*
%TO.C,R13*%
X10465000Y-10220000D03*
X8815000Y-10220000D03*
%TD*%
D24*
%TO.C,R7*%
X21120000Y-2775000D03*
X21120000Y-1125000D03*
%TD*%
D21*
%TO.C,R17*%
X10465000Y-13140000D03*
X8815000Y-13140000D03*
%TD*%
D20*
%TO.C,HOLE5*%
X56604000Y2290000D03*
%TD*%
D21*
%TO.C,R14*%
X10465000Y-8760000D03*
X8815000Y-8760000D03*
%TD*%
D15*
%TO.C,D2*%
X67137500Y-7410000D03*
X65562500Y-7410000D03*
%TD*%
D20*
%TO.C,HOLE3*%
X30760000Y-18550000D03*
%TD*%
D36*
%TO.C,C4*%
X26940000Y-15685000D03*
X26940000Y-14135000D03*
%TD*%
D24*
%TO.C,R8*%
X19430000Y-2775000D03*
X19430000Y-1125000D03*
%TD*%
D17*
%TO.C,R9*%
X17740000Y-1125000D03*
X17740000Y-2775000D03*
%TD*%
D21*
%TO.C,R1*%
X70895000Y-15610000D03*
X69245000Y-15610000D03*
%TD*%
%TO.C,R4*%
X67195000Y-12450000D03*
X65545000Y-12450000D03*
%TD*%
D10*
%TO.C,J3*%
X68065000Y-22764000D03*
D11*
X70605000Y-22764000D03*
%TD*%
D17*
%TO.C,R10*%
X17740000Y-17865000D03*
X17740000Y-19515000D03*
%TD*%
M02*
