M48
; DRILL file {KiCad (6.0.10)} date Wed Jan 11 19:17:28 2023
; FORMAT={-:-/ absolute / metric / decimal}
; #@! TF.CreationDate,2023-01-11T19:17:28+08:00
; #@! TF.GenerationSoftware,Kicad,Pcbnew,(6.0.10)
; #@! TF.FileFunction,MixedPlating,1,2
FMAT,2
METRIC
; #@! TA.AperFunction,Plated,PTH,ViaDrill
T1C0.300
; #@! TA.AperFunction,Plated,PTH,ViaDrill
T2C0.400
; #@! TA.AperFunction,Plated,PTH,ComponentDrill
T3C0.600
; #@! TA.AperFunction,Plated,PTH,ComponentDrill
T4C1.000
; #@! TA.AperFunction,Plated,PTH,ComponentDrill
T5C1.200
; #@! TA.AperFunction,Plated,PTH,ComponentDrill
T6C2.200
; #@! TA.AperFunction,NonPlated,NPTH,ComponentDrill
T7C0.650
%
G90
G05
T1
X109.67Y-99.49
X112.6Y-103.11
X113.13Y-113.52
X115.41Y-98.18
X115.7Y-112.25
X115.83Y-113.63
X116.13Y-103.11
X118.55Y-106.52
X121.78Y-103.7
X122.3Y-101.2
X122.79Y-105.5
X123.11Y-109.24
X123.6Y-105.39
X124.873Y-112.827
X126.018Y-111.614
X127.02Y-110.39
X127.18Y-103.93
X128.0Y-99.3
X131.19Y-106.12
X134.46Y-106.12
X164.4Y-99.78
X167.4Y-108.67
X168.04Y-105.62
X173.41Y-98.08
X173.42Y-98.91
X173.43Y-99.774
X175.73Y-99.84
X177.55Y-106.11
T2
X111.0Y-109.85
X111.03Y-105.03
X113.67Y-101.91
X116.12Y-101.9
X121.415Y-110.075
X121.42Y-107.32
X125.99Y-115.83
X164.49Y-105.49
X165.77Y-104.21
X166.73Y-107.72
X166.74Y-110.02
X168.04Y-106.81
X168.04Y-110.42
X168.24Y-111.95
X169.48Y-113.96
X174.79Y-111.17
X177.67Y-107.56
X179.69Y-108.39
T4
X106.94Y-115.94
X109.48Y-115.94
X112.02Y-115.94
X114.56Y-115.94
X133.24Y-102.32
X133.24Y-104.86
X133.24Y-107.4
X133.24Y-109.94
X133.24Y-112.48
X135.78Y-102.32
X135.78Y-104.86
X135.78Y-107.4
X135.78Y-109.94
X135.78Y-112.48
X160.362Y-102.29
X160.362Y-104.83
X160.362Y-107.37
X160.362Y-109.91
X160.362Y-112.45
X162.901Y-102.29
X162.901Y-104.83
X162.901Y-107.37
X162.901Y-109.91
X162.901Y-112.45
X164.405Y-94.894
X164.415Y-119.864
X166.945Y-94.894
X166.955Y-119.864
X169.485Y-94.894
X171.975Y-119.864
X172.025Y-94.894
X174.515Y-119.864
X174.565Y-94.894
X181.808Y-95.792
X181.808Y-98.332
X181.808Y-100.872
X181.808Y-103.412
X181.808Y-105.952
X181.808Y-108.492
X181.808Y-111.032
X181.808Y-113.572
X181.808Y-116.112
X181.808Y-118.652
X184.349Y-95.792
X184.349Y-98.332
X184.349Y-100.872
X184.349Y-103.412
X184.349Y-105.952
X184.349Y-108.492
X184.349Y-111.032
X184.349Y-113.572
X184.349Y-116.112
X184.349Y-118.652
T5
X104.17Y-98.86
X104.17Y-115.86
T6
X134.67Y-115.51
X134.71Y-99.26
X160.514Y-94.81
X160.554Y-119.92
X178.414Y-94.81
X178.434Y-119.95
T7
X108.489Y-104.56
X108.489Y-110.34
T3
G00X105.239Y-103.125
M15
G01X104.339Y-103.125
M16
G05
G00X105.239Y-111.775
M15
G01X104.339Y-111.775
M16
G05
G00X109.589Y-103.125
M15
G01X108.389Y-103.125
M16
G05
G00X109.589Y-111.775
M15
G01X108.389Y-111.775
M16
G05
T0
M30
