%TF.GenerationSoftware,KiCad,Pcbnew,(6.0.8)*%
%TF.CreationDate,2022-11-07T23:26:24+08:00*%
%TF.ProjectId,UINIO-DAP-Link,55494e49-4f2d-4444-9150-2d4c696e6b2e,Version 1.0.0*%
%TF.SameCoordinates,Original*%
%TF.FileFunction,Legend,Bot*%
%TF.FilePolarity,Positive*%
%FSLAX46Y46*%
G04 Gerber Fmt 4.6, Leading zero omitted, Abs format (unit mm)*
G04 Created by KiCad (PCBNEW (6.0.8)) date 2022-11-07 23:26:24*
%MOMM*%
%LPD*%
G01*
G04 APERTURE LIST*
G04 Aperture macros list*
%AMRoundRect*
0 Rectangle with rounded corners*
0 $1 Rounding radius*
0 $2 $3 $4 $5 $6 $7 $8 $9 X,Y pos of 4 corners*
0 Add a 4 corners polygon primitive as box body*
4,1,4,$2,$3,$4,$5,$6,$7,$8,$9,$2,$3,0*
0 Add four circle primitives for the rounded corners*
1,1,$1+$1,$2,$3*
1,1,$1+$1,$4,$5*
1,1,$1+$1,$6,$7*
1,1,$1+$1,$8,$9*
0 Add four rect primitives between the rounded corners*
20,1,$1+$1,$2,$3,$4,$5,0*
20,1,$1+$1,$4,$5,$6,$7,0*
20,1,$1+$1,$6,$7,$8,$9,0*
20,1,$1+$1,$8,$9,$2,$3,0*%
G04 Aperture macros list end*
%ADD10C,0.100000*%
%ADD11C,0.150000*%
%ADD12C,0.200000*%
%ADD13C,0.300000*%
%ADD14R,1.700000X1.700000*%
%ADD15O,1.700000X1.700000*%
%ADD16C,1.200000*%
%ADD17RoundRect,0.250000X-0.600000X-0.600000X0.600000X-0.600000X0.600000X0.600000X-0.600000X0.600000X0*%
%ADD18C,1.700000*%
%ADD19C,2.200000*%
%ADD20RoundRect,0.250000X0.600000X0.600000X-0.600000X0.600000X-0.600000X-0.600000X0.600000X-0.600000X0*%
%ADD21C,0.650000*%
%ADD22O,2.100000X1.000000*%
%ADD23O,1.900000X1.000000*%
G04 APERTURE END LIST*
D10*
X186320000Y-104974517D02*
X191520000Y-104974517D01*
X186320000Y-112674517D02*
X191520000Y-112674517D01*
X153205000Y-104796668D02*
X158255000Y-104796668D01*
X137905000Y-109343332D02*
X142955000Y-109343332D01*
X137900000Y-97810000D02*
X142960000Y-97810000D01*
X142960000Y-97810000D02*
X142960000Y-117010000D01*
X142960000Y-117010000D02*
X137900000Y-117010000D01*
X137900000Y-117010000D02*
X137900000Y-97810000D01*
X153200000Y-100986668D02*
X158235000Y-100986668D01*
X153200000Y-97786668D02*
X158260000Y-97786668D01*
X158260000Y-97786668D02*
X158260000Y-116986668D01*
X158260000Y-116986668D02*
X153200000Y-116986668D01*
X153200000Y-116986668D02*
X153200000Y-97786668D01*
X186320000Y-119274517D02*
X191520000Y-119274517D01*
X155740000Y-97776668D02*
X155740000Y-116976668D01*
X186320000Y-101974517D02*
X191520000Y-101974517D01*
X186320000Y-96674517D02*
X191520000Y-96674517D01*
X137905000Y-104820000D02*
X142955000Y-104820000D01*
X186320000Y-110174517D02*
X191520000Y-110174517D01*
X186320000Y-116724517D02*
X191520000Y-116724517D01*
X142955000Y-105340000D02*
X144515000Y-105340000D01*
X144515000Y-105340000D02*
X144515000Y-109460000D01*
X144515000Y-109460000D02*
X142955000Y-109460000D01*
X142955000Y-109460000D02*
X142955000Y-105340000D01*
G36*
X142955000Y-105340000D02*
G01*
X144515000Y-105340000D01*
X144515000Y-109460000D01*
X142955000Y-109460000D01*
X142955000Y-105340000D01*
G37*
X186320000Y-92874517D02*
X191520000Y-92874517D01*
X191520000Y-92874517D02*
X191520000Y-121774517D01*
X191520000Y-121774517D02*
X186320000Y-121774517D01*
X186320000Y-121774517D02*
X186320000Y-92874517D01*
X186320000Y-107674517D02*
X191520000Y-107674517D01*
X191560000Y-105150000D02*
X193090000Y-105150000D01*
X193090000Y-105150000D02*
X193090000Y-109270000D01*
X193090000Y-109270000D02*
X191560000Y-109270000D01*
X191560000Y-109270000D02*
X191560000Y-105150000D01*
G36*
X191560000Y-105150000D02*
G01*
X193090000Y-105150000D01*
X193090000Y-109270000D01*
X191560000Y-109270000D01*
X191560000Y-105150000D01*
G37*
X186320000Y-99274517D02*
X191520000Y-99274517D01*
X137885000Y-101010000D02*
X142935000Y-101010000D01*
X151620000Y-105316668D02*
X153200000Y-105316668D01*
X153200000Y-105316668D02*
X153200000Y-109436668D01*
X153200000Y-109436668D02*
X151620000Y-109436668D01*
X151620000Y-109436668D02*
X151620000Y-105316668D01*
G36*
X151620000Y-105316668D02*
G01*
X153200000Y-105316668D01*
X153200000Y-109436668D01*
X151620000Y-109436668D01*
X151620000Y-105316668D01*
G37*
X153195000Y-113836668D02*
X158245000Y-113836668D01*
X153205000Y-109320000D02*
X158255000Y-109320000D01*
X140440000Y-97800000D02*
X140440000Y-117000000D01*
X137895000Y-113860000D02*
X142945000Y-113860000D01*
X188920000Y-92874517D02*
X188920000Y-121774517D01*
D11*
X189727142Y-117824517D02*
X190627142Y-118424517D01*
X189727142Y-118424517D02*
X190627142Y-117824517D01*
D10*
X187970000Y-101233333D02*
X188003333Y-101300000D01*
X188003333Y-101400000D01*
X187970000Y-101500000D01*
X187903333Y-101566666D01*
X187836666Y-101600000D01*
X187703333Y-101633333D01*
X187603333Y-101633333D01*
X187470000Y-101600000D01*
X187403333Y-101566666D01*
X187336666Y-101500000D01*
X187303333Y-101400000D01*
X187303333Y-101333333D01*
X187336666Y-101233333D01*
X187370000Y-101200000D01*
X187603333Y-101200000D01*
X187603333Y-101333333D01*
X187303333Y-100900000D02*
X188003333Y-100900000D01*
X187303333Y-100500000D01*
X188003333Y-100500000D01*
X187303333Y-100166666D02*
X188003333Y-100166666D01*
X188003333Y-100000000D01*
X187970000Y-99900000D01*
X187903333Y-99833333D01*
X187836666Y-99800000D01*
X187703333Y-99766666D01*
X187603333Y-99766666D01*
X187470000Y-99800000D01*
X187403333Y-99833333D01*
X187336666Y-99900000D01*
X187303333Y-100000000D01*
X187303333Y-100166666D01*
X187970000Y-118483333D02*
X188003333Y-118550000D01*
X188003333Y-118650000D01*
X187970000Y-118750000D01*
X187903333Y-118816666D01*
X187836666Y-118850000D01*
X187703333Y-118883333D01*
X187603333Y-118883333D01*
X187470000Y-118850000D01*
X187403333Y-118816666D01*
X187336666Y-118750000D01*
X187303333Y-118650000D01*
X187303333Y-118583333D01*
X187336666Y-118483333D01*
X187370000Y-118450000D01*
X187603333Y-118450000D01*
X187603333Y-118583333D01*
X187303333Y-118150000D02*
X188003333Y-118150000D01*
X187303333Y-117750000D01*
X188003333Y-117750000D01*
X187303333Y-117416666D02*
X188003333Y-117416666D01*
X188003333Y-117250000D01*
X187970000Y-117150000D01*
X187903333Y-117083333D01*
X187836666Y-117050000D01*
X187703333Y-117016666D01*
X187603333Y-117016666D01*
X187470000Y-117050000D01*
X187403333Y-117083333D01*
X187336666Y-117150000D01*
X187303333Y-117250000D01*
X187303333Y-117416666D01*
D11*
X154773809Y-105321429D02*
X154811904Y-105435715D01*
X154811904Y-105626191D01*
X154773809Y-105702382D01*
X154735714Y-105740477D01*
X154659523Y-105778572D01*
X154583333Y-105778572D01*
X154507142Y-105740477D01*
X154469047Y-105702382D01*
X154430952Y-105626191D01*
X154392857Y-105473810D01*
X154354761Y-105397620D01*
X154316666Y-105359525D01*
X154240476Y-105321429D01*
X154164285Y-105321429D01*
X154088095Y-105359525D01*
X154050000Y-105397620D01*
X154011904Y-105473810D01*
X154011904Y-105664287D01*
X154050000Y-105778572D01*
X154011904Y-106045239D02*
X154811904Y-106235715D01*
X154240476Y-106388096D01*
X154811904Y-106540477D01*
X154011904Y-106730953D01*
X154811904Y-107035715D02*
X154011904Y-107035715D01*
X154011904Y-107226191D01*
X154050000Y-107340477D01*
X154126190Y-107416668D01*
X154202380Y-107454763D01*
X154354761Y-107492858D01*
X154469047Y-107492858D01*
X154621428Y-107454763D01*
X154697619Y-107416668D01*
X154773809Y-107340477D01*
X154811904Y-107226191D01*
X154811904Y-107035715D01*
X154811904Y-107835715D02*
X154011904Y-107835715D01*
X154011904Y-108369048D02*
X154011904Y-108521429D01*
X154050000Y-108597620D01*
X154126190Y-108673810D01*
X154278571Y-108711906D01*
X154545238Y-108711906D01*
X154697619Y-108673810D01*
X154773809Y-108597620D01*
X154811904Y-108521429D01*
X154811904Y-108369048D01*
X154773809Y-108292858D01*
X154697619Y-108216668D01*
X154545238Y-108178572D01*
X154278571Y-108178572D01*
X154126190Y-108216668D01*
X154050000Y-108292858D01*
X154011904Y-108369048D01*
X142252857Y-99561428D02*
X142252857Y-99990000D01*
X141824285Y-100032857D01*
X141867142Y-99990000D01*
X141910000Y-99904285D01*
X141910000Y-99690000D01*
X141867142Y-99604285D01*
X141824285Y-99561428D01*
X141738571Y-99518571D01*
X141524285Y-99518571D01*
X141438571Y-99561428D01*
X141395714Y-99604285D01*
X141352857Y-99690000D01*
X141352857Y-99904285D01*
X141395714Y-99990000D01*
X141438571Y-100032857D01*
X142252857Y-99261428D02*
X141352857Y-98961428D01*
X142252857Y-98661428D01*
D10*
X187970000Y-106883333D02*
X188003333Y-106950000D01*
X188003333Y-107050000D01*
X187970000Y-107150000D01*
X187903333Y-107216666D01*
X187836666Y-107250000D01*
X187703333Y-107283333D01*
X187603333Y-107283333D01*
X187470000Y-107250000D01*
X187403333Y-107216666D01*
X187336666Y-107150000D01*
X187303333Y-107050000D01*
X187303333Y-106983333D01*
X187336666Y-106883333D01*
X187370000Y-106850000D01*
X187603333Y-106850000D01*
X187603333Y-106983333D01*
X187303333Y-106550000D02*
X188003333Y-106550000D01*
X187303333Y-106150000D01*
X188003333Y-106150000D01*
X187303333Y-105816666D02*
X188003333Y-105816666D01*
X188003333Y-105650000D01*
X187970000Y-105550000D01*
X187903333Y-105483333D01*
X187836666Y-105450000D01*
X187703333Y-105416666D01*
X187603333Y-105416666D01*
X187470000Y-105450000D01*
X187403333Y-105483333D01*
X187336666Y-105550000D01*
X187303333Y-105650000D01*
X187303333Y-105816666D01*
D11*
X157377142Y-111366668D02*
X156948571Y-111066668D01*
X157377142Y-110852382D02*
X156477142Y-110852382D01*
X156477142Y-111195239D01*
X156520000Y-111280953D01*
X156562857Y-111323810D01*
X156648571Y-111366668D01*
X156777142Y-111366668D01*
X156862857Y-111323810D01*
X156905714Y-111280953D01*
X156948571Y-111195239D01*
X156948571Y-110852382D01*
X156477142Y-111666668D02*
X157377142Y-112266668D01*
X156477142Y-112266668D02*
X157377142Y-111666668D01*
D10*
X190708095Y-107414989D02*
X190708095Y-106957846D01*
X189908095Y-107186418D02*
X190708095Y-107186418D01*
X189984285Y-106234037D02*
X189946190Y-106272132D01*
X189908095Y-106386418D01*
X189908095Y-106462608D01*
X189946190Y-106576894D01*
X190022380Y-106653084D01*
X190098571Y-106691179D01*
X190250952Y-106729275D01*
X190365238Y-106729275D01*
X190517619Y-106691179D01*
X190593809Y-106653084D01*
X190670000Y-106576894D01*
X190708095Y-106462608D01*
X190708095Y-106386418D01*
X190670000Y-106272132D01*
X190631904Y-106234037D01*
X189908095Y-105891179D02*
X190708095Y-105891179D01*
X189908095Y-105434037D02*
X190365238Y-105776894D01*
X190708095Y-105434037D02*
X190250952Y-105891179D01*
X188058095Y-95980952D02*
X188058095Y-95485714D01*
X187753333Y-95752380D01*
X187753333Y-95638095D01*
X187715238Y-95561904D01*
X187677142Y-95523809D01*
X187600952Y-95485714D01*
X187410476Y-95485714D01*
X187334285Y-95523809D01*
X187296190Y-95561904D01*
X187258095Y-95638095D01*
X187258095Y-95866666D01*
X187296190Y-95942857D01*
X187334285Y-95980952D01*
X187334285Y-95142857D02*
X187296190Y-95104761D01*
X187258095Y-95142857D01*
X187296190Y-95180952D01*
X187334285Y-95142857D01*
X187258095Y-95142857D01*
X188058095Y-94838095D02*
X188058095Y-94342857D01*
X187753333Y-94609523D01*
X187753333Y-94495238D01*
X187715238Y-94419047D01*
X187677142Y-94380952D01*
X187600952Y-94342857D01*
X187410476Y-94342857D01*
X187334285Y-94380952D01*
X187296190Y-94419047D01*
X187258095Y-94495238D01*
X187258095Y-94723809D01*
X187296190Y-94800000D01*
X187334285Y-94838095D01*
X188058095Y-94114285D02*
X187258095Y-93847619D01*
X188058095Y-93580952D01*
D11*
X141456190Y-108775238D02*
X141418095Y-108660952D01*
X141418095Y-108470476D01*
X141456190Y-108394285D01*
X141494285Y-108356190D01*
X141570476Y-108318095D01*
X141646666Y-108318095D01*
X141722857Y-108356190D01*
X141760952Y-108394285D01*
X141799047Y-108470476D01*
X141837142Y-108622857D01*
X141875238Y-108699047D01*
X141913333Y-108737142D01*
X141989523Y-108775238D01*
X142065714Y-108775238D01*
X142141904Y-108737142D01*
X142180000Y-108699047D01*
X142218095Y-108622857D01*
X142218095Y-108432380D01*
X142180000Y-108318095D01*
X142218095Y-108051428D02*
X141418095Y-107860952D01*
X141989523Y-107708571D01*
X141418095Y-107556190D01*
X142218095Y-107365714D01*
X141418095Y-107060952D02*
X142218095Y-107060952D01*
X142218095Y-106870476D01*
X142180000Y-106756190D01*
X142103809Y-106680000D01*
X142027619Y-106641904D01*
X141875238Y-106603809D01*
X141760952Y-106603809D01*
X141608571Y-106641904D01*
X141532380Y-106680000D01*
X141456190Y-106756190D01*
X141418095Y-106870476D01*
X141418095Y-107060952D01*
X141418095Y-106260952D02*
X142218095Y-106260952D01*
X142218095Y-105727619D02*
X142218095Y-105575238D01*
X142180000Y-105499047D01*
X142103809Y-105422857D01*
X141951428Y-105384761D01*
X141684761Y-105384761D01*
X141532380Y-105422857D01*
X141456190Y-105499047D01*
X141418095Y-105575238D01*
X141418095Y-105727619D01*
X141456190Y-105803809D01*
X141532380Y-105880000D01*
X141684761Y-105918095D01*
X141951428Y-105918095D01*
X142103809Y-105880000D01*
X142180000Y-105803809D01*
X142218095Y-105727619D01*
D10*
X190708095Y-101493564D02*
X190708095Y-101036421D01*
X189908095Y-101264993D02*
X190708095Y-101264993D01*
X189908095Y-100769755D02*
X190708095Y-100769755D01*
X190708095Y-100579278D01*
X190670000Y-100464993D01*
X190593809Y-100388802D01*
X190517619Y-100350707D01*
X190365238Y-100312612D01*
X190250952Y-100312612D01*
X190098571Y-100350707D01*
X190022380Y-100388802D01*
X189946190Y-100464993D01*
X189908095Y-100579278D01*
X189908095Y-100769755D01*
X189908095Y-99969755D02*
X190708095Y-99969755D01*
X187970000Y-104083333D02*
X188003333Y-104150000D01*
X188003333Y-104250000D01*
X187970000Y-104350000D01*
X187903333Y-104416666D01*
X187836666Y-104450000D01*
X187703333Y-104483333D01*
X187603333Y-104483333D01*
X187470000Y-104450000D01*
X187403333Y-104416666D01*
X187336666Y-104350000D01*
X187303333Y-104250000D01*
X187303333Y-104183333D01*
X187336666Y-104083333D01*
X187370000Y-104050000D01*
X187603333Y-104050000D01*
X187603333Y-104183333D01*
X187303333Y-103750000D02*
X188003333Y-103750000D01*
X187303333Y-103350000D01*
X188003333Y-103350000D01*
X187303333Y-103016666D02*
X188003333Y-103016666D01*
X188003333Y-102850000D01*
X187970000Y-102750000D01*
X187903333Y-102683333D01*
X187836666Y-102650000D01*
X187703333Y-102616666D01*
X187603333Y-102616666D01*
X187470000Y-102650000D01*
X187403333Y-102683333D01*
X187336666Y-102750000D01*
X187303333Y-102850000D01*
X187303333Y-103016666D01*
D11*
X142220000Y-116125714D02*
X142262857Y-116211428D01*
X142262857Y-116340000D01*
X142220000Y-116468571D01*
X142134285Y-116554285D01*
X142048571Y-116597142D01*
X141877142Y-116640000D01*
X141748571Y-116640000D01*
X141577142Y-116597142D01*
X141491428Y-116554285D01*
X141405714Y-116468571D01*
X141362857Y-116340000D01*
X141362857Y-116254285D01*
X141405714Y-116125714D01*
X141448571Y-116082857D01*
X141748571Y-116082857D01*
X141748571Y-116254285D01*
X141362857Y-115697142D02*
X142262857Y-115697142D01*
X141362857Y-115182857D01*
X142262857Y-115182857D01*
X141362857Y-114754285D02*
X142262857Y-114754285D01*
X142262857Y-114540000D01*
X142220000Y-114411428D01*
X142134285Y-114325714D01*
X142048571Y-114282857D01*
X141877142Y-114240000D01*
X141748571Y-114240000D01*
X141577142Y-114282857D01*
X141491428Y-114325714D01*
X141405714Y-114411428D01*
X141362857Y-114540000D01*
X141362857Y-114754285D01*
X156808571Y-105404763D02*
X157341904Y-105404763D01*
X156884761Y-105404763D02*
X156846666Y-105442858D01*
X156808571Y-105519048D01*
X156808571Y-105633334D01*
X156846666Y-105709525D01*
X156922857Y-105747620D01*
X157341904Y-105747620D01*
X156541904Y-106014287D02*
X156541904Y-106471429D01*
X157341904Y-106242858D02*
X156541904Y-106242858D01*
X157341904Y-107195239D02*
X156960952Y-106928572D01*
X157341904Y-106738096D02*
X156541904Y-106738096D01*
X156541904Y-107042858D01*
X156580000Y-107119048D01*
X156618095Y-107157144D01*
X156694285Y-107195239D01*
X156808571Y-107195239D01*
X156884761Y-107157144D01*
X156922857Y-107119048D01*
X156960952Y-107042858D01*
X156960952Y-106738096D01*
X157303809Y-107500001D02*
X157341904Y-107614287D01*
X157341904Y-107804763D01*
X157303809Y-107880953D01*
X157265714Y-107919048D01*
X157189523Y-107957144D01*
X157113333Y-107957144D01*
X157037142Y-107919048D01*
X156999047Y-107880953D01*
X156960952Y-107804763D01*
X156922857Y-107652382D01*
X156884761Y-107576191D01*
X156846666Y-107538096D01*
X156770476Y-107500001D01*
X156694285Y-107500001D01*
X156618095Y-107538096D01*
X156580000Y-107576191D01*
X156541904Y-107652382D01*
X156541904Y-107842858D01*
X156580000Y-107957144D01*
X156541904Y-108185715D02*
X156541904Y-108642858D01*
X157341904Y-108414287D02*
X156541904Y-108414287D01*
D10*
X187970000Y-98533333D02*
X188003333Y-98600000D01*
X188003333Y-98700000D01*
X187970000Y-98800000D01*
X187903333Y-98866666D01*
X187836666Y-98900000D01*
X187703333Y-98933333D01*
X187603333Y-98933333D01*
X187470000Y-98900000D01*
X187403333Y-98866666D01*
X187336666Y-98800000D01*
X187303333Y-98700000D01*
X187303333Y-98633333D01*
X187336666Y-98533333D01*
X187370000Y-98500000D01*
X187603333Y-98500000D01*
X187603333Y-98633333D01*
X187303333Y-98200000D02*
X188003333Y-98200000D01*
X187303333Y-97800000D01*
X188003333Y-97800000D01*
X187303333Y-97466666D02*
X188003333Y-97466666D01*
X188003333Y-97300000D01*
X187970000Y-97200000D01*
X187903333Y-97133333D01*
X187836666Y-97100000D01*
X187703333Y-97066666D01*
X187603333Y-97066666D01*
X187470000Y-97100000D01*
X187403333Y-97133333D01*
X187336666Y-97200000D01*
X187303333Y-97300000D01*
X187303333Y-97466666D01*
D11*
X153937142Y-99155239D02*
X153937142Y-98726668D01*
X154365714Y-98683810D01*
X154322857Y-98726668D01*
X154280000Y-98812382D01*
X154280000Y-99026668D01*
X154322857Y-99112382D01*
X154365714Y-99155239D01*
X154451428Y-99198096D01*
X154665714Y-99198096D01*
X154751428Y-99155239D01*
X154794285Y-99112382D01*
X154837142Y-99026668D01*
X154837142Y-98812382D01*
X154794285Y-98726668D01*
X154751428Y-98683810D01*
X153937142Y-99455239D02*
X154837142Y-99755239D01*
X153937142Y-100055239D01*
X142252857Y-104228571D02*
X142252857Y-103671428D01*
X141910000Y-103971428D01*
X141910000Y-103842857D01*
X141867142Y-103757142D01*
X141824285Y-103714285D01*
X141738571Y-103671428D01*
X141524285Y-103671428D01*
X141438571Y-103714285D01*
X141395714Y-103757142D01*
X141352857Y-103842857D01*
X141352857Y-104100000D01*
X141395714Y-104185714D01*
X141438571Y-104228571D01*
X141438571Y-103285714D02*
X141395714Y-103242857D01*
X141352857Y-103285714D01*
X141395714Y-103328571D01*
X141438571Y-103285714D01*
X141352857Y-103285714D01*
X142252857Y-102942857D02*
X142252857Y-102385714D01*
X141910000Y-102685714D01*
X141910000Y-102557142D01*
X141867142Y-102471428D01*
X141824285Y-102428571D01*
X141738571Y-102385714D01*
X141524285Y-102385714D01*
X141438571Y-102428571D01*
X141395714Y-102471428D01*
X141352857Y-102557142D01*
X141352857Y-102814285D01*
X141395714Y-102900000D01*
X141438571Y-102942857D01*
X142252857Y-102128571D02*
X141352857Y-101828571D01*
X142252857Y-101528571D01*
X189777142Y-108626894D02*
X190677142Y-109226894D01*
X189777142Y-109226894D02*
X190677142Y-108626894D01*
D12*
X106262380Y-101493809D02*
X107071904Y-101493809D01*
X107167142Y-101541428D01*
X107214761Y-101589047D01*
X107262380Y-101684285D01*
X107262380Y-101874761D01*
X107214761Y-101970000D01*
X107167142Y-102017619D01*
X107071904Y-102065238D01*
X106262380Y-102065238D01*
X107262380Y-102541428D02*
X106262380Y-102541428D01*
X107262380Y-103017619D02*
X106262380Y-103017619D01*
X107262380Y-103589047D01*
X106262380Y-103589047D01*
X107262380Y-104065238D02*
X106262380Y-104065238D01*
X106262380Y-104731904D02*
X106262380Y-104922380D01*
X106310000Y-105017619D01*
X106405238Y-105112857D01*
X106595714Y-105160476D01*
X106929047Y-105160476D01*
X107119523Y-105112857D01*
X107214761Y-105017619D01*
X107262380Y-104922380D01*
X107262380Y-104731904D01*
X107214761Y-104636666D01*
X107119523Y-104541428D01*
X106929047Y-104493809D01*
X106595714Y-104493809D01*
X106405238Y-104541428D01*
X106310000Y-104636666D01*
X106262380Y-104731904D01*
X106881428Y-105589047D02*
X106881428Y-106350952D01*
X107262380Y-106827142D02*
X106262380Y-106827142D01*
X106262380Y-107065238D01*
X106310000Y-107208095D01*
X106405238Y-107303333D01*
X106500476Y-107350952D01*
X106690952Y-107398571D01*
X106833809Y-107398571D01*
X107024285Y-107350952D01*
X107119523Y-107303333D01*
X107214761Y-107208095D01*
X107262380Y-107065238D01*
X107262380Y-106827142D01*
X106976666Y-107779523D02*
X106976666Y-108255714D01*
X107262380Y-107684285D02*
X106262380Y-108017619D01*
X107262380Y-108350952D01*
X107262380Y-108684285D02*
X106262380Y-108684285D01*
X106262380Y-109065238D01*
X106310000Y-109160476D01*
X106357619Y-109208095D01*
X106452857Y-109255714D01*
X106595714Y-109255714D01*
X106690952Y-109208095D01*
X106738571Y-109160476D01*
X106786190Y-109065238D01*
X106786190Y-108684285D01*
X106881428Y-109684285D02*
X106881428Y-110446190D01*
X107262380Y-111398571D02*
X107262380Y-110922380D01*
X106262380Y-110922380D01*
X107262380Y-111731904D02*
X106595714Y-111731904D01*
X106262380Y-111731904D02*
X106310000Y-111684285D01*
X106357619Y-111731904D01*
X106310000Y-111779523D01*
X106262380Y-111731904D01*
X106357619Y-111731904D01*
X106595714Y-112208095D02*
X107262380Y-112208095D01*
X106690952Y-112208095D02*
X106643333Y-112255714D01*
X106595714Y-112350952D01*
X106595714Y-112493809D01*
X106643333Y-112589047D01*
X106738571Y-112636666D01*
X107262380Y-112636666D01*
X107262380Y-113112857D02*
X106262380Y-113112857D01*
X106881428Y-113208095D02*
X107262380Y-113493809D01*
X106595714Y-113493809D02*
X106976666Y-113112857D01*
D10*
X190491428Y-116362612D02*
X189958095Y-116362612D01*
X190415238Y-116362612D02*
X190453333Y-116324517D01*
X190491428Y-116248326D01*
X190491428Y-116134040D01*
X190453333Y-116057850D01*
X190377142Y-116019755D01*
X189958095Y-116019755D01*
X189996190Y-115676897D02*
X189958095Y-115562612D01*
X189958095Y-115372136D01*
X189996190Y-115295945D01*
X190034285Y-115257850D01*
X190110476Y-115219755D01*
X190186666Y-115219755D01*
X190262857Y-115257850D01*
X190300952Y-115295945D01*
X190339047Y-115372136D01*
X190377142Y-115524517D01*
X190415238Y-115600707D01*
X190453333Y-115638802D01*
X190529523Y-115676897D01*
X190605714Y-115676897D01*
X190681904Y-115638802D01*
X190720000Y-115600707D01*
X190758095Y-115524517D01*
X190758095Y-115334040D01*
X190720000Y-115219755D01*
X189958095Y-114419755D02*
X190339047Y-114686421D01*
X189958095Y-114876897D02*
X190758095Y-114876897D01*
X190758095Y-114572136D01*
X190720000Y-114495945D01*
X190681904Y-114457850D01*
X190605714Y-114419755D01*
X190491428Y-114419755D01*
X190415238Y-114457850D01*
X190377142Y-114495945D01*
X190339047Y-114572136D01*
X190339047Y-114876897D01*
X189996190Y-114114993D02*
X189958095Y-114000707D01*
X189958095Y-113810231D01*
X189996190Y-113734040D01*
X190034285Y-113695945D01*
X190110476Y-113657850D01*
X190186666Y-113657850D01*
X190262857Y-113695945D01*
X190300952Y-113734040D01*
X190339047Y-113810231D01*
X190377142Y-113962612D01*
X190415238Y-114038802D01*
X190453333Y-114076897D01*
X190529523Y-114114993D01*
X190605714Y-114114993D01*
X190681904Y-114076897D01*
X190720000Y-114038802D01*
X190758095Y-113962612D01*
X190758095Y-113772136D01*
X190720000Y-113657850D01*
X190758095Y-113429278D02*
X190758095Y-112972136D01*
X189958095Y-113200707D02*
X190758095Y-113200707D01*
X190708095Y-95955469D02*
X190708095Y-95460231D01*
X190403333Y-95726897D01*
X190403333Y-95612612D01*
X190365238Y-95536421D01*
X190327142Y-95498326D01*
X190250952Y-95460231D01*
X190060476Y-95460231D01*
X189984285Y-95498326D01*
X189946190Y-95536421D01*
X189908095Y-95612612D01*
X189908095Y-95841183D01*
X189946190Y-95917374D01*
X189984285Y-95955469D01*
X189984285Y-95117374D02*
X189946190Y-95079278D01*
X189908095Y-95117374D01*
X189946190Y-95155469D01*
X189984285Y-95117374D01*
X189908095Y-95117374D01*
X190708095Y-94812612D02*
X190708095Y-94317374D01*
X190403333Y-94584040D01*
X190403333Y-94469755D01*
X190365238Y-94393564D01*
X190327142Y-94355469D01*
X190250952Y-94317374D01*
X190060476Y-94317374D01*
X189984285Y-94355469D01*
X189946190Y-94393564D01*
X189908095Y-94469755D01*
X189908095Y-94698326D01*
X189946190Y-94774517D01*
X189984285Y-94812612D01*
X190708095Y-94088802D02*
X189908095Y-93822136D01*
X190708095Y-93555469D01*
D11*
X156447142Y-98208096D02*
X156447142Y-98722382D01*
X157347142Y-98465239D02*
X156447142Y-98465239D01*
X157347142Y-99022382D02*
X156447142Y-99022382D01*
X156447142Y-99236668D01*
X156490000Y-99365239D01*
X156575714Y-99450953D01*
X156661428Y-99493810D01*
X156832857Y-99536668D01*
X156961428Y-99536668D01*
X157132857Y-99493810D01*
X157218571Y-99450953D01*
X157304285Y-99365239D01*
X157347142Y-99236668D01*
X157347142Y-99022382D01*
X156447142Y-100093810D02*
X156447142Y-100265239D01*
X156490000Y-100350953D01*
X156575714Y-100436668D01*
X156747142Y-100479525D01*
X157047142Y-100479525D01*
X157218571Y-100436668D01*
X157304285Y-100350953D01*
X157347142Y-100265239D01*
X157347142Y-100093810D01*
X157304285Y-100008096D01*
X157218571Y-99922382D01*
X157047142Y-99879525D01*
X156747142Y-99879525D01*
X156575714Y-99922382D01*
X156490000Y-100008096D01*
X156447142Y-100093810D01*
X139692857Y-116165714D02*
X139692857Y-115651428D01*
X138792857Y-115908571D02*
X139692857Y-115908571D01*
X139692857Y-115437142D02*
X138792857Y-114837142D01*
X139692857Y-114837142D02*
X138792857Y-115437142D01*
D10*
X104456666Y-104036666D02*
X105156666Y-104270000D01*
X104456666Y-104503333D01*
X105123333Y-105003333D02*
X105156666Y-104936666D01*
X105156666Y-104803333D01*
X105123333Y-104736666D01*
X105056666Y-104703333D01*
X104790000Y-104703333D01*
X104723333Y-104736666D01*
X104690000Y-104803333D01*
X104690000Y-104936666D01*
X104723333Y-105003333D01*
X104790000Y-105036666D01*
X104856666Y-105036666D01*
X104923333Y-104703333D01*
X105156666Y-105336666D02*
X104690000Y-105336666D01*
X104823333Y-105336666D02*
X104756666Y-105370000D01*
X104723333Y-105403333D01*
X104690000Y-105470000D01*
X104690000Y-105536666D01*
X105123333Y-105736666D02*
X105156666Y-105803333D01*
X105156666Y-105936666D01*
X105123333Y-106003333D01*
X105056666Y-106036666D01*
X105023333Y-106036666D01*
X104956666Y-106003333D01*
X104923333Y-105936666D01*
X104923333Y-105836666D01*
X104890000Y-105770000D01*
X104823333Y-105736666D01*
X104790000Y-105736666D01*
X104723333Y-105770000D01*
X104690000Y-105836666D01*
X104690000Y-105936666D01*
X104723333Y-106003333D01*
X105156666Y-106336666D02*
X104690000Y-106336666D01*
X104456666Y-106336666D02*
X104490000Y-106303333D01*
X104523333Y-106336666D01*
X104490000Y-106370000D01*
X104456666Y-106336666D01*
X104523333Y-106336666D01*
X105156666Y-106770000D02*
X105123333Y-106703333D01*
X105090000Y-106670000D01*
X105023333Y-106636666D01*
X104823333Y-106636666D01*
X104756666Y-106670000D01*
X104723333Y-106703333D01*
X104690000Y-106770000D01*
X104690000Y-106870000D01*
X104723333Y-106936666D01*
X104756666Y-106970000D01*
X104823333Y-107003333D01*
X105023333Y-107003333D01*
X105090000Y-106970000D01*
X105123333Y-106936666D01*
X105156666Y-106870000D01*
X105156666Y-106770000D01*
X104690000Y-107303333D02*
X105156666Y-107303333D01*
X104756666Y-107303333D02*
X104723333Y-107336666D01*
X104690000Y-107403333D01*
X104690000Y-107503333D01*
X104723333Y-107570000D01*
X104790000Y-107603333D01*
X105156666Y-107603333D01*
X105156666Y-108836666D02*
X105156666Y-108436666D01*
X105156666Y-108636666D02*
X104456666Y-108636666D01*
X104556666Y-108570000D01*
X104623333Y-108503333D01*
X104656666Y-108436666D01*
X105090000Y-109136666D02*
X105123333Y-109170000D01*
X105156666Y-109136666D01*
X105123333Y-109103333D01*
X105090000Y-109136666D01*
X105156666Y-109136666D01*
X104456666Y-109603333D02*
X104456666Y-109670000D01*
X104490000Y-109736666D01*
X104523333Y-109770000D01*
X104590000Y-109803333D01*
X104723333Y-109836666D01*
X104890000Y-109836666D01*
X105023333Y-109803333D01*
X105090000Y-109770000D01*
X105123333Y-109736666D01*
X105156666Y-109670000D01*
X105156666Y-109603333D01*
X105123333Y-109536666D01*
X105090000Y-109503333D01*
X105023333Y-109470000D01*
X104890000Y-109436666D01*
X104723333Y-109436666D01*
X104590000Y-109470000D01*
X104523333Y-109503333D01*
X104490000Y-109536666D01*
X104456666Y-109603333D01*
X105090000Y-110136666D02*
X105123333Y-110170000D01*
X105156666Y-110136666D01*
X105123333Y-110103333D01*
X105090000Y-110136666D01*
X105156666Y-110136666D01*
X104456666Y-110603333D02*
X104456666Y-110670000D01*
X104490000Y-110736666D01*
X104523333Y-110770000D01*
X104590000Y-110803333D01*
X104723333Y-110836666D01*
X104890000Y-110836666D01*
X105023333Y-110803333D01*
X105090000Y-110770000D01*
X105123333Y-110736666D01*
X105156666Y-110670000D01*
X105156666Y-110603333D01*
X105123333Y-110536666D01*
X105090000Y-110503333D01*
X105023333Y-110470000D01*
X104890000Y-110436666D01*
X104723333Y-110436666D01*
X104590000Y-110470000D01*
X104523333Y-110503333D01*
X104490000Y-110536666D01*
X104456666Y-110603333D01*
D11*
X138822857Y-111720000D02*
X139251428Y-112020000D01*
X138822857Y-112234285D02*
X139722857Y-112234285D01*
X139722857Y-111891428D01*
X139680000Y-111805714D01*
X139637142Y-111762857D01*
X139551428Y-111720000D01*
X139422857Y-111720000D01*
X139337142Y-111762857D01*
X139294285Y-111805714D01*
X139251428Y-111891428D01*
X139251428Y-112234285D01*
X139722857Y-111420000D02*
X138822857Y-110820000D01*
X139722857Y-110820000D02*
X138822857Y-111420000D01*
D10*
X190708095Y-104591183D02*
X190708095Y-104134040D01*
X189908095Y-104362612D02*
X190708095Y-104362612D01*
X189908095Y-103867374D02*
X190708095Y-103867374D01*
X190136666Y-103600707D01*
X190708095Y-103334040D01*
X189908095Y-103334040D01*
X189946190Y-102991183D02*
X189908095Y-102876897D01*
X189908095Y-102686421D01*
X189946190Y-102610231D01*
X189984285Y-102572136D01*
X190060476Y-102534040D01*
X190136666Y-102534040D01*
X190212857Y-102572136D01*
X190250952Y-102610231D01*
X190289047Y-102686421D01*
X190327142Y-102838802D01*
X190365238Y-102914993D01*
X190403333Y-102953088D01*
X190479523Y-102991183D01*
X190555714Y-102991183D01*
X190631904Y-102953088D01*
X190670000Y-102914993D01*
X190708095Y-102838802D01*
X190708095Y-102648326D01*
X190670000Y-102534040D01*
X190708095Y-112472136D02*
X190708095Y-112014993D01*
X189908095Y-112243564D02*
X190708095Y-112243564D01*
X189908095Y-111748326D02*
X190708095Y-111748326D01*
X190708095Y-111557850D01*
X190670000Y-111443564D01*
X190593809Y-111367374D01*
X190517619Y-111329278D01*
X190365238Y-111291183D01*
X190250952Y-111291183D01*
X190098571Y-111329278D01*
X190022380Y-111367374D01*
X189946190Y-111443564D01*
X189908095Y-111557850D01*
X189908095Y-111748326D01*
X190708095Y-110795945D02*
X190708095Y-110643564D01*
X190670000Y-110567374D01*
X190593809Y-110491183D01*
X190441428Y-110453088D01*
X190174761Y-110453088D01*
X190022380Y-110491183D01*
X189946190Y-110567374D01*
X189908095Y-110643564D01*
X189908095Y-110795945D01*
X189946190Y-110872136D01*
X190022380Y-110948326D01*
X190174761Y-110986421D01*
X190441428Y-110986421D01*
X190593809Y-110948326D01*
X190670000Y-110872136D01*
X190708095Y-110795945D01*
D11*
X189777142Y-120324517D02*
X190677142Y-120924517D01*
X189777142Y-120924517D02*
X190677142Y-120324517D01*
X189777142Y-97774517D02*
X190677142Y-98374517D01*
X189777142Y-98374517D02*
X190677142Y-97774517D01*
D10*
X187970000Y-121107850D02*
X188003333Y-121174517D01*
X188003333Y-121274517D01*
X187970000Y-121374517D01*
X187903333Y-121441183D01*
X187836666Y-121474517D01*
X187703333Y-121507850D01*
X187603333Y-121507850D01*
X187470000Y-121474517D01*
X187403333Y-121441183D01*
X187336666Y-121374517D01*
X187303333Y-121274517D01*
X187303333Y-121207850D01*
X187336666Y-121107850D01*
X187370000Y-121074517D01*
X187603333Y-121074517D01*
X187603333Y-121207850D01*
X187303333Y-120774517D02*
X188003333Y-120774517D01*
X187303333Y-120374517D01*
X188003333Y-120374517D01*
X187303333Y-120041183D02*
X188003333Y-120041183D01*
X188003333Y-119874517D01*
X187970000Y-119774517D01*
X187903333Y-119707850D01*
X187836666Y-119674517D01*
X187703333Y-119641183D01*
X187603333Y-119641183D01*
X187470000Y-119674517D01*
X187403333Y-119707850D01*
X187336666Y-119774517D01*
X187303333Y-119874517D01*
X187303333Y-120041183D01*
D11*
X156447142Y-114740953D02*
X156447142Y-115255239D01*
X157347142Y-114998096D02*
X156447142Y-114998096D01*
X156447142Y-115469525D02*
X157347142Y-116069525D01*
X156447142Y-116069525D02*
X157347142Y-115469525D01*
D10*
X187970000Y-115193333D02*
X188003333Y-115260000D01*
X188003333Y-115360000D01*
X187970000Y-115460000D01*
X187903333Y-115526666D01*
X187836666Y-115560000D01*
X187703333Y-115593333D01*
X187603333Y-115593333D01*
X187470000Y-115560000D01*
X187403333Y-115526666D01*
X187336666Y-115460000D01*
X187303333Y-115360000D01*
X187303333Y-115293333D01*
X187336666Y-115193333D01*
X187370000Y-115160000D01*
X187603333Y-115160000D01*
X187603333Y-115293333D01*
X187303333Y-114860000D02*
X188003333Y-114860000D01*
X187303333Y-114460000D01*
X188003333Y-114460000D01*
X187303333Y-114126666D02*
X188003333Y-114126666D01*
X188003333Y-113960000D01*
X187970000Y-113860000D01*
X187903333Y-113793333D01*
X187836666Y-113760000D01*
X187703333Y-113726666D01*
X187603333Y-113726666D01*
X187470000Y-113760000D01*
X187403333Y-113793333D01*
X187336666Y-113860000D01*
X187303333Y-113960000D01*
X187303333Y-114126666D01*
X187970000Y-109483333D02*
X188003333Y-109550000D01*
X188003333Y-109650000D01*
X187970000Y-109750000D01*
X187903333Y-109816666D01*
X187836666Y-109850000D01*
X187703333Y-109883333D01*
X187603333Y-109883333D01*
X187470000Y-109850000D01*
X187403333Y-109816666D01*
X187336666Y-109750000D01*
X187303333Y-109650000D01*
X187303333Y-109583333D01*
X187336666Y-109483333D01*
X187370000Y-109450000D01*
X187603333Y-109450000D01*
X187603333Y-109583333D01*
X187303333Y-109150000D02*
X188003333Y-109150000D01*
X187303333Y-108750000D01*
X188003333Y-108750000D01*
X187303333Y-108416666D02*
X188003333Y-108416666D01*
X188003333Y-108250000D01*
X187970000Y-108150000D01*
X187903333Y-108083333D01*
X187836666Y-108050000D01*
X187703333Y-108016666D01*
X187603333Y-108016666D01*
X187470000Y-108050000D01*
X187403333Y-108083333D01*
X187336666Y-108150000D01*
X187303333Y-108250000D01*
X187303333Y-108416666D01*
D11*
X153937142Y-101508096D02*
X153937142Y-102065239D01*
X154280000Y-101765239D01*
X154280000Y-101893810D01*
X154322857Y-101979525D01*
X154365714Y-102022382D01*
X154451428Y-102065239D01*
X154665714Y-102065239D01*
X154751428Y-102022382D01*
X154794285Y-101979525D01*
X154837142Y-101893810D01*
X154837142Y-101636668D01*
X154794285Y-101550953D01*
X154751428Y-101508096D01*
X154751428Y-102450953D02*
X154794285Y-102493810D01*
X154837142Y-102450953D01*
X154794285Y-102408096D01*
X154751428Y-102450953D01*
X154837142Y-102450953D01*
X153937142Y-102793810D02*
X153937142Y-103350953D01*
X154280000Y-103050953D01*
X154280000Y-103179525D01*
X154322857Y-103265239D01*
X154365714Y-103308096D01*
X154451428Y-103350953D01*
X154665714Y-103350953D01*
X154751428Y-103308096D01*
X154794285Y-103265239D01*
X154837142Y-103179525D01*
X154837142Y-102922382D01*
X154794285Y-102836668D01*
X154751428Y-102793810D01*
X153937142Y-103608096D02*
X154837142Y-103908096D01*
X153937142Y-104208096D01*
X154803809Y-109777144D02*
X154841904Y-109891429D01*
X154841904Y-110081906D01*
X154803809Y-110158096D01*
X154765714Y-110196191D01*
X154689523Y-110234287D01*
X154613333Y-110234287D01*
X154537142Y-110196191D01*
X154499047Y-110158096D01*
X154460952Y-110081906D01*
X154422857Y-109929525D01*
X154384761Y-109853334D01*
X154346666Y-109815239D01*
X154270476Y-109777144D01*
X154194285Y-109777144D01*
X154118095Y-109815239D01*
X154080000Y-109853334D01*
X154041904Y-109929525D01*
X154041904Y-110120001D01*
X154080000Y-110234287D01*
X154041904Y-110500953D02*
X154841904Y-110691429D01*
X154270476Y-110843810D01*
X154841904Y-110996191D01*
X154041904Y-111186668D01*
X154765714Y-111948572D02*
X154803809Y-111910477D01*
X154841904Y-111796191D01*
X154841904Y-111720001D01*
X154803809Y-111605715D01*
X154727619Y-111529525D01*
X154651428Y-111491429D01*
X154499047Y-111453334D01*
X154384761Y-111453334D01*
X154232380Y-111491429D01*
X154156190Y-111529525D01*
X154080000Y-111605715D01*
X154041904Y-111720001D01*
X154041904Y-111796191D01*
X154080000Y-111910477D01*
X154118095Y-111948572D01*
X154841904Y-112672382D02*
X154841904Y-112291429D01*
X154041904Y-112291429D01*
X154841904Y-112939048D02*
X154041904Y-112939048D01*
X154841904Y-113396191D02*
X154384761Y-113053334D01*
X154041904Y-113396191D02*
X154499047Y-112939048D01*
X141486190Y-113459523D02*
X141448095Y-113345238D01*
X141448095Y-113154761D01*
X141486190Y-113078571D01*
X141524285Y-113040476D01*
X141600476Y-113002380D01*
X141676666Y-113002380D01*
X141752857Y-113040476D01*
X141790952Y-113078571D01*
X141829047Y-113154761D01*
X141867142Y-113307142D01*
X141905238Y-113383333D01*
X141943333Y-113421428D01*
X142019523Y-113459523D01*
X142095714Y-113459523D01*
X142171904Y-113421428D01*
X142210000Y-113383333D01*
X142248095Y-113307142D01*
X142248095Y-113116666D01*
X142210000Y-113002380D01*
X142248095Y-112735714D02*
X141448095Y-112545238D01*
X142019523Y-112392857D01*
X141448095Y-112240476D01*
X142248095Y-112050000D01*
X141524285Y-111288095D02*
X141486190Y-111326190D01*
X141448095Y-111440476D01*
X141448095Y-111516666D01*
X141486190Y-111630952D01*
X141562380Y-111707142D01*
X141638571Y-111745238D01*
X141790952Y-111783333D01*
X141905238Y-111783333D01*
X142057619Y-111745238D01*
X142133809Y-111707142D01*
X142210000Y-111630952D01*
X142248095Y-111516666D01*
X142248095Y-111440476D01*
X142210000Y-111326190D01*
X142171904Y-111288095D01*
X141448095Y-110564285D02*
X141448095Y-110945238D01*
X142248095Y-110945238D01*
X141448095Y-110297619D02*
X142248095Y-110297619D01*
X141448095Y-109840476D02*
X141905238Y-110183333D01*
X142248095Y-109840476D02*
X141790952Y-110297619D01*
X139712857Y-103901428D02*
X139712857Y-103387142D01*
X138812857Y-103644285D02*
X139712857Y-103644285D01*
X138812857Y-103087142D02*
X139712857Y-103087142D01*
X139712857Y-102872857D01*
X139670000Y-102744285D01*
X139584285Y-102658571D01*
X139498571Y-102615714D01*
X139327142Y-102572857D01*
X139198571Y-102572857D01*
X139027142Y-102615714D01*
X138941428Y-102658571D01*
X138855714Y-102744285D01*
X138812857Y-102872857D01*
X138812857Y-103087142D01*
X138812857Y-102187142D02*
X139712857Y-102187142D01*
X139411428Y-108581904D02*
X138878095Y-108581904D01*
X139335238Y-108581904D02*
X139373333Y-108543809D01*
X139411428Y-108467619D01*
X139411428Y-108353333D01*
X139373333Y-108277142D01*
X139297142Y-108239047D01*
X138878095Y-108239047D01*
X139678095Y-107972380D02*
X139678095Y-107515238D01*
X138878095Y-107743809D02*
X139678095Y-107743809D01*
X138878095Y-106791428D02*
X139259047Y-107058095D01*
X138878095Y-107248571D02*
X139678095Y-107248571D01*
X139678095Y-106943809D01*
X139640000Y-106867619D01*
X139601904Y-106829523D01*
X139525714Y-106791428D01*
X139411428Y-106791428D01*
X139335238Y-106829523D01*
X139297142Y-106867619D01*
X139259047Y-106943809D01*
X139259047Y-107248571D01*
X138916190Y-106486666D02*
X138878095Y-106372380D01*
X138878095Y-106181904D01*
X138916190Y-106105714D01*
X138954285Y-106067619D01*
X139030476Y-106029523D01*
X139106666Y-106029523D01*
X139182857Y-106067619D01*
X139220952Y-106105714D01*
X139259047Y-106181904D01*
X139297142Y-106334285D01*
X139335238Y-106410476D01*
X139373333Y-106448571D01*
X139449523Y-106486666D01*
X139525714Y-106486666D01*
X139601904Y-106448571D01*
X139640000Y-106410476D01*
X139678095Y-106334285D01*
X139678095Y-106143809D01*
X139640000Y-106029523D01*
X139678095Y-105800952D02*
X139678095Y-105343809D01*
X138878095Y-105572380D02*
X139678095Y-105572380D01*
X156467142Y-102005239D02*
X156467142Y-102519525D01*
X157367142Y-102262382D02*
X156467142Y-102262382D01*
X157367142Y-102819525D02*
X156467142Y-102819525D01*
X156467142Y-103033810D01*
X156510000Y-103162382D01*
X156595714Y-103248096D01*
X156681428Y-103290953D01*
X156852857Y-103333810D01*
X156981428Y-103333810D01*
X157152857Y-103290953D01*
X157238571Y-103248096D01*
X157324285Y-103162382D01*
X157367142Y-103033810D01*
X157367142Y-102819525D01*
X157367142Y-103719525D02*
X156467142Y-103719525D01*
X139692857Y-100588571D02*
X139692857Y-100074285D01*
X138792857Y-100331428D02*
X139692857Y-100331428D01*
X138792857Y-99774285D02*
X139692857Y-99774285D01*
X139692857Y-99560000D01*
X139650000Y-99431428D01*
X139564285Y-99345714D01*
X139478571Y-99302857D01*
X139307142Y-99260000D01*
X139178571Y-99260000D01*
X139007142Y-99302857D01*
X138921428Y-99345714D01*
X138835714Y-99431428D01*
X138792857Y-99560000D01*
X138792857Y-99774285D01*
X139692857Y-98702857D02*
X139692857Y-98531428D01*
X139650000Y-98445714D01*
X139564285Y-98360000D01*
X139392857Y-98317142D01*
X139092857Y-98317142D01*
X138921428Y-98360000D01*
X138835714Y-98445714D01*
X138792857Y-98531428D01*
X138792857Y-98702857D01*
X138835714Y-98788571D01*
X138921428Y-98874285D01*
X139092857Y-98917142D01*
X139392857Y-98917142D01*
X139564285Y-98874285D01*
X139650000Y-98788571D01*
X139692857Y-98702857D01*
D10*
X187970000Y-111983333D02*
X188003333Y-112050000D01*
X188003333Y-112150000D01*
X187970000Y-112250000D01*
X187903333Y-112316666D01*
X187836666Y-112350000D01*
X187703333Y-112383333D01*
X187603333Y-112383333D01*
X187470000Y-112350000D01*
X187403333Y-112316666D01*
X187336666Y-112250000D01*
X187303333Y-112150000D01*
X187303333Y-112083333D01*
X187336666Y-111983333D01*
X187370000Y-111950000D01*
X187603333Y-111950000D01*
X187603333Y-112083333D01*
X187303333Y-111650000D02*
X188003333Y-111650000D01*
X187303333Y-111250000D01*
X188003333Y-111250000D01*
X187303333Y-110916666D02*
X188003333Y-110916666D01*
X188003333Y-110750000D01*
X187970000Y-110650000D01*
X187903333Y-110583333D01*
X187836666Y-110550000D01*
X187703333Y-110516666D01*
X187603333Y-110516666D01*
X187470000Y-110550000D01*
X187403333Y-110583333D01*
X187336666Y-110650000D01*
X187303333Y-110750000D01*
X187303333Y-110916666D01*
D11*
X153990000Y-114690953D02*
X153947142Y-114605239D01*
X153947142Y-114476668D01*
X153990000Y-114348096D01*
X154075714Y-114262382D01*
X154161428Y-114219525D01*
X154332857Y-114176668D01*
X154461428Y-114176668D01*
X154632857Y-114219525D01*
X154718571Y-114262382D01*
X154804285Y-114348096D01*
X154847142Y-114476668D01*
X154847142Y-114562382D01*
X154804285Y-114690953D01*
X154761428Y-114733810D01*
X154461428Y-114733810D01*
X154461428Y-114562382D01*
X154847142Y-115119525D02*
X153947142Y-115119525D01*
X154847142Y-115633810D01*
X153947142Y-115633810D01*
X154847142Y-116062382D02*
X153947142Y-116062382D01*
X153947142Y-116276668D01*
X153990000Y-116405239D01*
X154075714Y-116490953D01*
X154161428Y-116533810D01*
X154332857Y-116576668D01*
X154461428Y-116576668D01*
X154632857Y-116533810D01*
X154718571Y-116490953D01*
X154804285Y-116405239D01*
X154847142Y-116276668D01*
X154847142Y-116062382D01*
D13*
%TO.C,*%
D10*
%TO.C,HOLE2*%
X105070000Y-115860000D02*
G75*
G03*
X105070000Y-115860000I-900000J0D01*
G01*
%TO.C,HOLE8*%
X180214000Y-94810000D02*
G75*
G03*
X180214000Y-94810000I-1800000J0D01*
G01*
%TO.C,HOLE7*%
X180234000Y-119950000D02*
G75*
G03*
X180234000Y-119950000I-1800000J0D01*
G01*
%TO.C,HOLE1*%
X105070000Y-98860000D02*
G75*
G03*
X105070000Y-98860000I-900000J0D01*
G01*
%TO.C,HOLE6*%
X162354000Y-119920000D02*
G75*
G03*
X162354000Y-119920000I-1800000J0D01*
G01*
%TO.C,HOLE4*%
X136510000Y-99260000D02*
G75*
G03*
X136510000Y-99260000I-1800000J0D01*
G01*
%TO.C,HOLE5*%
X162314000Y-94810000D02*
G75*
G03*
X162314000Y-94810000I-1800000J0D01*
G01*
%TO.C,HOLE3*%
X136470000Y-115510000D02*
G75*
G03*
X136470000Y-115510000I-1800000J0D01*
G01*
%TO.C,*%
G36*
X110614695Y-106964651D02*
G01*
X110648264Y-106870479D01*
X110694304Y-106790565D01*
X110765651Y-106705142D01*
X110850610Y-106640586D01*
X110950205Y-106596160D01*
X111065464Y-106571128D01*
X111102159Y-106566286D01*
X111143892Y-106559284D01*
X111169112Y-106551608D01*
X111183050Y-106541411D01*
X111190933Y-106526850D01*
X111193987Y-106519250D01*
X111217535Y-106471425D01*
X111251885Y-106411930D01*
X111292907Y-106347326D01*
X111336467Y-106284177D01*
X111378435Y-106229044D01*
X111400580Y-106202380D01*
X111465518Y-106131371D01*
X111534395Y-106067923D01*
X111612166Y-106008110D01*
X111703782Y-105948005D01*
X111814199Y-105883682D01*
X111943001Y-105811852D01*
X111874162Y-105778172D01*
X111845808Y-105762296D01*
X111799502Y-105729409D01*
X111763745Y-105695918D01*
X111759868Y-105691300D01*
X111747804Y-105674142D01*
X112119166Y-105674142D01*
X112123626Y-105699126D01*
X112143677Y-105708356D01*
X112149485Y-105708087D01*
X112161855Y-105702012D01*
X112162839Y-105698719D01*
X112354901Y-105698719D01*
X112366798Y-105699784D01*
X112399689Y-105700706D01*
X112449978Y-105701432D01*
X112514065Y-105701908D01*
X112588355Y-105702078D01*
X112598326Y-105702075D01*
X112672167Y-105701869D01*
X112735875Y-105701374D01*
X112785704Y-105700644D01*
X112817911Y-105699730D01*
X112828751Y-105698686D01*
X112827596Y-105698127D01*
X112809426Y-105693427D01*
X112774253Y-105685839D01*
X112728248Y-105676714D01*
X112724677Y-105676038D01*
X112669656Y-105667140D01*
X112617437Y-105661078D01*
X112578880Y-105659132D01*
X112548904Y-105661514D01*
X112499137Y-105668424D01*
X112443538Y-105678085D01*
X112392179Y-105688720D01*
X112355130Y-105698557D01*
X112354901Y-105698719D01*
X112162839Y-105698719D01*
X112167466Y-105683232D01*
X112168127Y-105664411D01*
X112181344Y-105664411D01*
X112182867Y-105674153D01*
X112197806Y-105682566D01*
X112228598Y-105671606D01*
X112241566Y-105665286D01*
X112273731Y-105652645D01*
X112282170Y-105648983D01*
X112292433Y-105633336D01*
X112291947Y-105601506D01*
X112291746Y-105599719D01*
X112292092Y-105568923D01*
X112300969Y-105557689D01*
X112309594Y-105567342D01*
X112309578Y-105595355D01*
X112307798Y-105612249D01*
X112312362Y-105629040D01*
X112330586Y-105633022D01*
X112331209Y-105633020D01*
X112351460Y-105626015D01*
X112357123Y-105601633D01*
X112353222Y-105580933D01*
X112341428Y-105570052D01*
X112332737Y-105568180D01*
X112342243Y-105559391D01*
X112342552Y-105559189D01*
X112353442Y-105537878D01*
X112353801Y-105527220D01*
X112369678Y-105527220D01*
X112369711Y-105542739D01*
X112370769Y-105584586D01*
X112374362Y-105608005D01*
X112381900Y-105618222D01*
X112394789Y-105620467D01*
X112410664Y-105616553D01*
X112419901Y-105596096D01*
X112421739Y-105581724D01*
X112431285Y-105564690D01*
X112436926Y-105565790D01*
X112436099Y-105582782D01*
X112436073Y-105582883D01*
X112436575Y-105602600D01*
X112456103Y-105607911D01*
X112472076Y-105604380D01*
X112482679Y-105589078D01*
X112480893Y-105580357D01*
X112466984Y-105570052D01*
X112459558Y-105567952D01*
X112469543Y-105558313D01*
X112472367Y-105556410D01*
X112481327Y-105541954D01*
X112473907Y-105519045D01*
X112547703Y-105519045D01*
X112558958Y-105553732D01*
X112572460Y-105589078D01*
X112573529Y-105587155D01*
X112647590Y-105587155D01*
X112651828Y-105594886D01*
X112671013Y-105591717D01*
X112686089Y-105589782D01*
X112696124Y-105595105D01*
X112698310Y-105598218D01*
X112717706Y-105606261D01*
X112750644Y-105613236D01*
X112761410Y-105614869D01*
X112804427Y-105621677D01*
X112838534Y-105627462D01*
X112843666Y-105628313D01*
X112866148Y-105626930D01*
X112873154Y-105611295D01*
X112873236Y-105610032D01*
X112876490Y-105603048D01*
X112883137Y-105620467D01*
X112893082Y-105640446D01*
X112916413Y-105651856D01*
X112930973Y-105653484D01*
X112948362Y-105661895D01*
X112953499Y-105665864D01*
X112977719Y-105677018D01*
X113013068Y-105689180D01*
X113039357Y-105696860D01*
X113060486Y-105700683D01*
X113067814Y-105695145D01*
X113067318Y-105679141D01*
X113066748Y-105675325D01*
X113057361Y-105643946D01*
X113041516Y-105607994D01*
X113039198Y-105603548D01*
X113025172Y-105579566D01*
X113016811Y-105575609D01*
X113009889Y-105589161D01*
X113004417Y-105601573D01*
X112998856Y-105599219D01*
X112992191Y-105574432D01*
X112991934Y-105573303D01*
X112980401Y-105543882D01*
X112965303Y-105527743D01*
X112957691Y-105526046D01*
X112948626Y-105533138D01*
X112945427Y-105556992D01*
X112947104Y-105601633D01*
X112947222Y-105603522D01*
X112946508Y-105626480D01*
X112941828Y-105631647D01*
X112939085Y-105625635D01*
X112934324Y-105599830D01*
X112931213Y-105562591D01*
X112929929Y-105540275D01*
X112925360Y-105513794D01*
X112914605Y-105501756D01*
X112893662Y-105497195D01*
X112871392Y-105491092D01*
X112866033Y-105481694D01*
X112864840Y-105473012D01*
X112848160Y-105456461D01*
X112820646Y-105439033D01*
X112789790Y-105425248D01*
X112763087Y-105419624D01*
X112745911Y-105416761D01*
X112731131Y-105405319D01*
X112727826Y-105403407D01*
X112719708Y-105416109D01*
X112709965Y-105441365D01*
X112700926Y-105471931D01*
X112694917Y-105500565D01*
X112694268Y-105520022D01*
X112695095Y-105528487D01*
X112689137Y-105529628D01*
X112689028Y-105529524D01*
X112677443Y-105532788D01*
X112662832Y-105553036D01*
X112657308Y-105563838D01*
X112647590Y-105587155D01*
X112573529Y-105587155D01*
X112589903Y-105557689D01*
X112601714Y-105532565D01*
X112607790Y-105510605D01*
X112600244Y-105500257D01*
X112576846Y-105494911D01*
X112565715Y-105495299D01*
X112549407Y-105501369D01*
X112547703Y-105519045D01*
X112473907Y-105519045D01*
X112473471Y-105517699D01*
X112463436Y-105495000D01*
X112451601Y-105461543D01*
X112447330Y-105449776D01*
X112426534Y-105429307D01*
X112391651Y-105429093D01*
X112381190Y-105434293D01*
X112374004Y-105449018D01*
X112370562Y-105478229D01*
X112369678Y-105527220D01*
X112353801Y-105527220D01*
X112354798Y-105497596D01*
X112354521Y-105494086D01*
X112350522Y-105464120D01*
X112343063Y-105453949D01*
X112328873Y-105458658D01*
X112315883Y-105470963D01*
X112305444Y-105498673D01*
X112305230Y-105502331D01*
X112302845Y-105515582D01*
X112298326Y-105504745D01*
X112296935Y-105500001D01*
X112287857Y-105489903D01*
X112268393Y-105498349D01*
X112254683Y-105511494D01*
X112246405Y-105536700D01*
X112244122Y-105579542D01*
X112243716Y-105609629D01*
X112240348Y-105633784D01*
X112231014Y-105643675D01*
X112212733Y-105645578D01*
X112192259Y-105649264D01*
X112181344Y-105664411D01*
X112168127Y-105664411D01*
X112168788Y-105645578D01*
X112168548Y-105622996D01*
X112167440Y-105598231D01*
X112181261Y-105598231D01*
X112186676Y-105623358D01*
X112206365Y-105633022D01*
X112221301Y-105630000D01*
X112228760Y-105615488D01*
X112229418Y-105582800D01*
X112228284Y-105565888D01*
X112221726Y-105538607D01*
X112210275Y-105535497D01*
X112194341Y-105556863D01*
X112191038Y-105563442D01*
X112181261Y-105598231D01*
X112167440Y-105598231D01*
X112167255Y-105594102D01*
X112165218Y-105582800D01*
X112164780Y-105582965D01*
X112155559Y-105594693D01*
X112140107Y-105619265D01*
X112130459Y-105637465D01*
X112119166Y-105674142D01*
X111747804Y-105674142D01*
X111718072Y-105631858D01*
X111672099Y-105550751D01*
X111623089Y-105450574D01*
X111572179Y-105333923D01*
X111520509Y-105203392D01*
X111469217Y-105061578D01*
X111419441Y-104911075D01*
X111411102Y-104884685D01*
X111391849Y-104823849D01*
X111375658Y-104772807D01*
X111364026Y-104736278D01*
X111358451Y-104718980D01*
X111361495Y-104709609D01*
X111381545Y-104705667D01*
X111422503Y-104706424D01*
X111492022Y-104710185D01*
X111522666Y-104798074D01*
X111524056Y-104802057D01*
X111540143Y-104847329D01*
X111553686Y-104884120D01*
X111561880Y-104904797D01*
X111567562Y-104921492D01*
X111573922Y-104953332D01*
X111577520Y-104973257D01*
X111583961Y-104989602D01*
X111588694Y-104990355D01*
X111597923Y-104976974D01*
X111606020Y-104951993D01*
X111610540Y-104923996D01*
X111609038Y-104901566D01*
X111606391Y-104884917D01*
X111616452Y-104886031D01*
X111621372Y-104887297D01*
X111626827Y-104877463D01*
X111628557Y-104849385D01*
X111626969Y-104799714D01*
X111622131Y-104703907D01*
X113575017Y-104703907D01*
X113575017Y-104729759D01*
X113573058Y-104744286D01*
X113565600Y-104749798D01*
X113560285Y-104749799D01*
X113554473Y-104765768D01*
X113553057Y-104797040D01*
X113555792Y-104837642D01*
X113562432Y-104881598D01*
X113572729Y-104922933D01*
X113596178Y-104996971D01*
X113610179Y-104956808D01*
X113610689Y-104955314D01*
X113617824Y-104921671D01*
X113616298Y-104896106D01*
X113613797Y-104885288D01*
X113620866Y-104883261D01*
X113622481Y-104883568D01*
X113633189Y-104871588D01*
X113647764Y-104841292D01*
X113663806Y-104797470D01*
X113694295Y-104703985D01*
X113742225Y-104703946D01*
X113768733Y-104705094D01*
X113783777Y-104711414D01*
X113783808Y-104725879D01*
X113782866Y-104729205D01*
X113775799Y-104754843D01*
X113763984Y-104798163D01*
X113748818Y-104854040D01*
X113731694Y-104917352D01*
X113686789Y-105076979D01*
X113640165Y-105226982D01*
X113594807Y-105355508D01*
X113550023Y-105464372D01*
X113505118Y-105555392D01*
X113459399Y-105630385D01*
X113428229Y-105667140D01*
X113373407Y-105714197D01*
X113309937Y-105755470D01*
X113246686Y-105784532D01*
X113200856Y-105800383D01*
X113296908Y-105849497D01*
X113345653Y-105874820D01*
X113441279Y-105927975D01*
X113521782Y-105979068D01*
X113593120Y-106032387D01*
X113661247Y-106092219D01*
X113732120Y-106162855D01*
X113775333Y-106208749D01*
X113824722Y-106264917D01*
X113864089Y-106316064D01*
X113898588Y-106369048D01*
X113933372Y-106430728D01*
X113960947Y-106481778D01*
X113983231Y-106520622D01*
X113999978Y-106544380D01*
X114014485Y-106556774D01*
X114030049Y-106561526D01*
X114049967Y-106562355D01*
X114081629Y-106564588D01*
X114130315Y-106571236D01*
X114181726Y-106580722D01*
X114243085Y-106597367D01*
X114339271Y-106642159D01*
X114421510Y-106707521D01*
X114491199Y-106794416D01*
X114539755Y-106879858D01*
X114573209Y-106971579D01*
X114585878Y-107064575D01*
X114579094Y-107164456D01*
X114566022Y-107221556D01*
X114540256Y-107293577D01*
X114506781Y-107363676D01*
X114469321Y-107424203D01*
X114431599Y-107467510D01*
X114422293Y-107475800D01*
X114401079Y-107498150D01*
X114395504Y-107515777D01*
X114402123Y-107536778D01*
X114411982Y-107570672D01*
X114416243Y-107610651D01*
X114417749Y-107629832D01*
X114426349Y-107673882D01*
X114440032Y-107719921D01*
X114443843Y-107730764D01*
X114475997Y-107840019D01*
X114504344Y-107967819D01*
X114528151Y-108108424D01*
X114546683Y-108256090D01*
X114559205Y-108405076D01*
X114564985Y-108549638D01*
X114563288Y-108684036D01*
X114562133Y-108706794D01*
X114547503Y-108858195D01*
X114521736Y-109005132D01*
X114486087Y-109142633D01*
X114441813Y-109265725D01*
X114390168Y-109369434D01*
X114374311Y-109394244D01*
X114320634Y-109463967D01*
X114253468Y-109537170D01*
X114179031Y-109607797D01*
X114103543Y-109669790D01*
X114033221Y-109717093D01*
X113990113Y-109743622D01*
X113938169Y-109782706D01*
X113908367Y-109816577D01*
X113899579Y-109830818D01*
X113839687Y-109906499D01*
X113760193Y-109981121D01*
X113665609Y-110051599D01*
X113560449Y-110114849D01*
X113449228Y-110167786D01*
X113336460Y-110207326D01*
X113262689Y-110224774D01*
X113153832Y-110242497D01*
X113030346Y-110255841D01*
X112897845Y-110264562D01*
X112761943Y-110268419D01*
X112628253Y-110267166D01*
X112502388Y-110260562D01*
X112389962Y-110248361D01*
X112312379Y-110235923D01*
X112071466Y-110181384D01*
X111840742Y-110104048D01*
X111619113Y-110003506D01*
X111405486Y-109879347D01*
X111404798Y-109878901D01*
X111328365Y-109827378D01*
X111260306Y-109776609D01*
X111195947Y-109722416D01*
X111130613Y-109660619D01*
X111059629Y-109587040D01*
X110978321Y-109497500D01*
X110974141Y-109492806D01*
X110897451Y-109408192D01*
X110833326Y-109340918D01*
X110779120Y-109288564D01*
X110732188Y-109248711D01*
X110689883Y-109218939D01*
X110649560Y-109196829D01*
X110632233Y-109187910D01*
X110595756Y-109164849D01*
X110571366Y-109143609D01*
X110552702Y-109105385D01*
X110552888Y-109059828D01*
X110572467Y-109016272D01*
X110609824Y-108981520D01*
X110637166Y-108964481D01*
X110658432Y-108950791D01*
X110662896Y-108944867D01*
X110666305Y-108926749D01*
X110666252Y-108894114D01*
X110662683Y-108843519D01*
X110655543Y-108771520D01*
X110655345Y-108769662D01*
X110648373Y-108689224D01*
X110642605Y-108595485D01*
X110638635Y-108499941D01*
X110637057Y-108414090D01*
X110636707Y-108373834D01*
X110633557Y-108280463D01*
X110627376Y-108204775D01*
X110618422Y-108150422D01*
X110610618Y-108115470D01*
X110602934Y-108073713D01*
X110599784Y-108045873D01*
X110599885Y-108042671D01*
X110611899Y-108011021D01*
X110638325Y-107978637D01*
X110671240Y-107953416D01*
X110702723Y-107943255D01*
X110708202Y-107943046D01*
X110718823Y-107939795D01*
X110728093Y-107929813D01*
X110737446Y-107909559D01*
X110748317Y-107875496D01*
X110762140Y-107824083D01*
X110780351Y-107751782D01*
X110790018Y-107713083D01*
X110805726Y-107650873D01*
X110818890Y-107599582D01*
X110828354Y-107563698D01*
X110832960Y-107547707D01*
X110830078Y-107538544D01*
X110812270Y-107517278D01*
X110783121Y-107491223D01*
X110729271Y-107439334D01*
X110668938Y-107353105D01*
X110623434Y-107250265D01*
X110604746Y-107171102D01*
X110603859Y-107151739D01*
X110713188Y-107151739D01*
X110716851Y-107188085D01*
X110725771Y-107220321D01*
X110741154Y-107256883D01*
X110766168Y-107302512D01*
X110800342Y-107351557D01*
X110837764Y-107396062D01*
X110873455Y-107430131D01*
X110902437Y-107447868D01*
X110917486Y-107448527D01*
X110944747Y-107435582D01*
X110982610Y-107404402D01*
X111008592Y-107381686D01*
X111024684Y-107369411D01*
X111177100Y-107369411D01*
X111177515Y-107424304D01*
X111179334Y-107500190D01*
X111180334Y-107535300D01*
X111182714Y-107601900D01*
X111185772Y-107650600D01*
X111190281Y-107686455D01*
X111197015Y-107714517D01*
X111206747Y-107739840D01*
X111220251Y-107767476D01*
X111261758Y-107842991D01*
X111335116Y-107951653D01*
X111414561Y-108038371D01*
X111502337Y-108105054D01*
X111600686Y-108153611D01*
X111711851Y-108185952D01*
X111712427Y-108186073D01*
X111758380Y-108195036D01*
X111786081Y-108197910D01*
X111801585Y-108194650D01*
X111810954Y-108185210D01*
X111831180Y-108156415D01*
X111857443Y-108129089D01*
X111887795Y-108114095D01*
X111931330Y-108105405D01*
X111935905Y-108104780D01*
X111998714Y-108099211D01*
X112079519Y-108096039D01*
X112171910Y-108095180D01*
X112269476Y-108096551D01*
X112365807Y-108100068D01*
X112454492Y-108105647D01*
X112529119Y-108113205D01*
X112638488Y-108130611D01*
X112789145Y-108163025D01*
X112943850Y-108204637D01*
X113095315Y-108253256D01*
X113236250Y-108306690D01*
X113359367Y-108362750D01*
X113380255Y-108373288D01*
X113412364Y-108388509D01*
X113429254Y-108393304D01*
X113435806Y-108388420D01*
X113436905Y-108374602D01*
X113443352Y-108347143D01*
X113460908Y-108304798D01*
X113486338Y-108253886D01*
X113516409Y-108200482D01*
X113547883Y-108150663D01*
X113577527Y-108110505D01*
X113579398Y-108108273D01*
X113618143Y-108067161D01*
X113666912Y-108021899D01*
X113715613Y-107981884D01*
X113726426Y-107973573D01*
X113792238Y-107915151D01*
X113846178Y-107850393D01*
X113891098Y-107774607D01*
X113929850Y-107683100D01*
X113965288Y-107571179D01*
X113968196Y-107560641D01*
X113985910Y-107486491D01*
X113997655Y-107418718D01*
X114001908Y-107365854D01*
X114001457Y-107335717D01*
X113997783Y-107304196D01*
X113988204Y-107284933D01*
X113970127Y-107270118D01*
X113969556Y-107269745D01*
X113946559Y-107256739D01*
X113935226Y-107254134D01*
X113934039Y-107256307D01*
X113924960Y-107275164D01*
X113910981Y-107305490D01*
X113905381Y-107316841D01*
X113881348Y-107349084D01*
X113846457Y-107372335D01*
X113795974Y-107389043D01*
X113725166Y-107401657D01*
X113653946Y-107410222D01*
X113533590Y-107419777D01*
X113410530Y-107424169D01*
X113288701Y-107423611D01*
X113172037Y-107418312D01*
X113064474Y-107408485D01*
X112969945Y-107394340D01*
X112892387Y-107376089D01*
X112835733Y-107353942D01*
X112835364Y-107353742D01*
X112810370Y-107331158D01*
X112790393Y-107298769D01*
X112773788Y-107258974D01*
X112394784Y-107266510D01*
X112375823Y-107303175D01*
X112367456Y-107317083D01*
X112342484Y-107343244D01*
X112305949Y-107364590D01*
X112255144Y-107381924D01*
X112187362Y-107396054D01*
X112099895Y-107407783D01*
X111990036Y-107417917D01*
X111983475Y-107418419D01*
X111893963Y-107422873D01*
X111795774Y-107424032D01*
X111694529Y-107422157D01*
X111595850Y-107417504D01*
X111505358Y-107410333D01*
X111428674Y-107400901D01*
X111371420Y-107389468D01*
X111356280Y-107384640D01*
X111306850Y-107358460D01*
X111267919Y-107322416D01*
X111246728Y-107282709D01*
X111246686Y-107282542D01*
X111236022Y-107257878D01*
X111220227Y-107256251D01*
X111196162Y-107277328D01*
X111195670Y-107277876D01*
X111187375Y-107289743D01*
X111181721Y-107306225D01*
X111178399Y-107331416D01*
X111177100Y-107369411D01*
X111024684Y-107369411D01*
X111035600Y-107361084D01*
X111051059Y-107353141D01*
X111051668Y-107353056D01*
X111058090Y-107339355D01*
X111062351Y-107305207D01*
X111063895Y-107254877D01*
X111064468Y-107228552D01*
X111173592Y-107228552D01*
X111205008Y-107214238D01*
X111208585Y-107212533D01*
X111226663Y-107198615D01*
X111232218Y-107185882D01*
X111289915Y-107185882D01*
X111290891Y-107234966D01*
X111296404Y-107278381D01*
X111309284Y-107306536D01*
X111332307Y-107324855D01*
X111368254Y-107338760D01*
X111410913Y-107349254D01*
X111487267Y-107360883D01*
X111579603Y-107369312D01*
X111682810Y-107374543D01*
X111791777Y-107376575D01*
X111901393Y-107375408D01*
X112006547Y-107371042D01*
X112102127Y-107363478D01*
X112183022Y-107352714D01*
X112244122Y-107338752D01*
X112288643Y-107319267D01*
X112326347Y-107284263D01*
X112343785Y-107236545D01*
X112341324Y-107174943D01*
X112319327Y-107098290D01*
X112298226Y-107052489D01*
X112255426Y-106996783D01*
X112197268Y-106955999D01*
X112121211Y-106928535D01*
X112024714Y-106912792D01*
X111988972Y-106909557D01*
X111913586Y-106904816D01*
X111840817Y-106903909D01*
X111761523Y-106906858D01*
X111666564Y-106913687D01*
X111558944Y-106924483D01*
X111472618Y-106938393D01*
X111406413Y-106957110D01*
X111357835Y-106982436D01*
X111324390Y-107016174D01*
X111303585Y-107060127D01*
X111292924Y-107116095D01*
X111289915Y-107185882D01*
X111232218Y-107185882D01*
X111237006Y-107174905D01*
X111243254Y-107133745D01*
X111244692Y-107121764D01*
X111264761Y-107044242D01*
X111300645Y-106979795D01*
X111349783Y-106933245D01*
X111375458Y-106918709D01*
X111417807Y-106902316D01*
X111470969Y-106889710D01*
X111537787Y-106880532D01*
X111621105Y-106874420D01*
X111723769Y-106871014D01*
X111848620Y-106869952D01*
X111913858Y-106869999D01*
X111989612Y-106870413D01*
X112046823Y-106871537D01*
X112089374Y-106873708D01*
X112121150Y-106877263D01*
X112146033Y-106882537D01*
X112167907Y-106889868D01*
X112190656Y-106899592D01*
X112214716Y-106912000D01*
X112261720Y-106943239D01*
X112299001Y-106976331D01*
X112317933Y-107000968D01*
X112345703Y-107048036D01*
X112370371Y-107100797D01*
X112388034Y-107150593D01*
X112394789Y-107188767D01*
X112395517Y-107195290D01*
X112404599Y-107206575D01*
X112428272Y-107214255D01*
X112471791Y-107220497D01*
X112479132Y-107221243D01*
X112532675Y-107223863D01*
X112596733Y-107223646D01*
X112659015Y-107220586D01*
X112769238Y-107211964D01*
X112769445Y-107210852D01*
X112821293Y-107210852D01*
X112827020Y-107261727D01*
X112852115Y-107299521D01*
X112898253Y-107327161D01*
X112967109Y-107347574D01*
X112970010Y-107348203D01*
X113043343Y-107359965D01*
X113133809Y-107368342D01*
X113236150Y-107373397D01*
X113345104Y-107375193D01*
X113455413Y-107373793D01*
X113561816Y-107369261D01*
X113659054Y-107361660D01*
X113741865Y-107351053D01*
X113804991Y-107337503D01*
X113808826Y-107336343D01*
X113849151Y-107315797D01*
X113874412Y-107282349D01*
X113886148Y-107232689D01*
X113885900Y-107163505D01*
X113883987Y-107142526D01*
X113868362Y-107070147D01*
X113838246Y-107014703D01*
X113791324Y-106973996D01*
X113725279Y-106945827D01*
X113637795Y-106927998D01*
X113614174Y-106925061D01*
X113536370Y-106917837D01*
X113447852Y-106912377D01*
X113355753Y-106908898D01*
X113267205Y-106907616D01*
X113189340Y-106908750D01*
X113129293Y-106912515D01*
X113084296Y-106918986D01*
X112995391Y-106945273D01*
X112925242Y-106987898D01*
X112873299Y-107047263D01*
X112839011Y-107123767D01*
X112833260Y-107143969D01*
X112821293Y-107210852D01*
X112769445Y-107210852D01*
X112777711Y-107166413D01*
X112797299Y-107094326D01*
X112840017Y-107012684D01*
X112902019Y-106947047D01*
X112983611Y-106897012D01*
X112992448Y-106893030D01*
X113012984Y-106885159D01*
X113035825Y-106879335D01*
X113064771Y-106875253D01*
X113103623Y-106872609D01*
X113156182Y-106871098D01*
X113226250Y-106870417D01*
X113317627Y-106870259D01*
X113370965Y-106870403D01*
X113483988Y-106872072D01*
X113576186Y-106875959D01*
X113650557Y-106882493D01*
X113710101Y-106892103D01*
X113757816Y-106905222D01*
X113796701Y-106922277D01*
X113829755Y-106943699D01*
X113832073Y-106945493D01*
X113881807Y-106999843D01*
X113913913Y-107068809D01*
X113925891Y-107147097D01*
X113927933Y-107176486D01*
X113937593Y-107199022D01*
X113959585Y-107213484D01*
X113984062Y-107222402D01*
X113998026Y-107223096D01*
X113999035Y-107220017D01*
X113999487Y-107196896D01*
X113997253Y-107155933D01*
X113992853Y-107102202D01*
X113986809Y-107040773D01*
X113979641Y-106976719D01*
X113971869Y-106915112D01*
X113964015Y-106861024D01*
X113956598Y-106819527D01*
X113922033Y-106683523D01*
X114043943Y-106683523D01*
X114045307Y-106698531D01*
X114055305Y-106735991D01*
X114069278Y-106807993D01*
X114082450Y-106898385D01*
X114094269Y-107003223D01*
X114104181Y-107118559D01*
X114119715Y-107329701D01*
X114158117Y-107345754D01*
X114190086Y-107363160D01*
X114214439Y-107383413D01*
X114236123Y-107403028D01*
X114267587Y-107423237D01*
X114287951Y-107432349D01*
X114304518Y-107432200D01*
X114323671Y-107419488D01*
X114352823Y-107391449D01*
X114371541Y-107370900D01*
X114407942Y-107323072D01*
X114437489Y-107275097D01*
X114447037Y-107256179D01*
X114460269Y-107223972D01*
X114467845Y-107190816D01*
X114471262Y-107148664D01*
X114472017Y-107089473D01*
X114471695Y-107048883D01*
X114469432Y-107002537D01*
X114463634Y-106968097D01*
X114452722Y-106937589D01*
X114435118Y-106903043D01*
X114413137Y-106867653D01*
X114353901Y-106798023D01*
X114283078Y-106740273D01*
X114207997Y-106700924D01*
X114179491Y-106691558D01*
X114129611Y-106679753D01*
X114088480Y-106675138D01*
X114088163Y-106675138D01*
X114056362Y-106676736D01*
X114043943Y-106683523D01*
X113922033Y-106683523D01*
X113920993Y-106679431D01*
X113871094Y-106545680D01*
X113806596Y-106425284D01*
X113724673Y-106313034D01*
X113622499Y-106203719D01*
X113535853Y-106127289D01*
X113390323Y-106024838D01*
X113230318Y-105939485D01*
X113059753Y-105873215D01*
X112882543Y-105828018D01*
X112861241Y-105824401D01*
X112806368Y-105817256D01*
X112741440Y-105810813D01*
X112672290Y-105805438D01*
X112604750Y-105801500D01*
X112544654Y-105799368D01*
X112497834Y-105799408D01*
X112470123Y-105801990D01*
X112464086Y-105803223D01*
X112435185Y-105808004D01*
X112391163Y-105814591D01*
X112338873Y-105821941D01*
X112232268Y-105842104D01*
X112092014Y-105882850D01*
X111950937Y-105937967D01*
X111816948Y-106004288D01*
X111697953Y-106078645D01*
X111688230Y-106085707D01*
X111620389Y-106141791D01*
X111547485Y-106211760D01*
X111475927Y-106288775D01*
X111412127Y-106365995D01*
X111362494Y-106436581D01*
X111351139Y-106455392D01*
X111287955Y-106585526D01*
X111238766Y-106736349D01*
X111203617Y-106907688D01*
X111182555Y-107099373D01*
X111173592Y-107228552D01*
X111064468Y-107228552D01*
X111065285Y-107191046D01*
X111071762Y-107085968D01*
X111082580Y-106975435D01*
X111096687Y-106869627D01*
X111113033Y-106778722D01*
X111135177Y-106675138D01*
X111083841Y-106675148D01*
X111062281Y-106676819D01*
X111003779Y-106692101D01*
X110939677Y-106720175D01*
X110878025Y-106757157D01*
X110826871Y-106799162D01*
X110813423Y-106812966D01*
X110769004Y-106867476D01*
X110739810Y-106923941D01*
X110722777Y-106989834D01*
X110714844Y-107072628D01*
X110713579Y-107102846D01*
X110713188Y-107151739D01*
X110603859Y-107151739D01*
X110600008Y-107067630D01*
X110614695Y-106964651D01*
G37*
G36*
X113597446Y-104910822D02*
G01*
X113595943Y-104925723D01*
X113592166Y-104927687D01*
X113587572Y-104917352D01*
X113588479Y-104910706D01*
X113595943Y-104908982D01*
X113597446Y-104910822D01*
G37*
G36*
X112693840Y-106252522D02*
G01*
X112826449Y-106256820D01*
X112951681Y-106264145D01*
X113063667Y-106274330D01*
X113156538Y-106287207D01*
X113211988Y-106301362D01*
X113256059Y-106326478D01*
X113279399Y-106362407D01*
X113283710Y-106410801D01*
X113280224Y-106435659D01*
X113270147Y-106451686D01*
X113248571Y-106455415D01*
X113247408Y-106455409D01*
X113222696Y-106448462D01*
X113212840Y-106424026D01*
X113207607Y-106401404D01*
X113196928Y-106378533D01*
X113187793Y-106371304D01*
X113152227Y-106357972D01*
X113096211Y-106346300D01*
X113022829Y-106336416D01*
X112935163Y-106328445D01*
X112836295Y-106322514D01*
X112729308Y-106318750D01*
X112617283Y-106317278D01*
X112503304Y-106318225D01*
X112390452Y-106321718D01*
X112281810Y-106327882D01*
X112180460Y-106336846D01*
X112115119Y-106344964D01*
X112058648Y-106355602D01*
X112020860Y-106368621D01*
X111998283Y-106385278D01*
X111987442Y-106406833D01*
X111987365Y-106407139D01*
X111975125Y-106430522D01*
X111951760Y-106434258D01*
X111940349Y-106431534D01*
X111927293Y-106418097D01*
X111923954Y-106387714D01*
X111924260Y-106378716D01*
X111930856Y-106350852D01*
X111947909Y-106328176D01*
X111977861Y-106309816D01*
X112023155Y-106294899D01*
X112086233Y-106282552D01*
X112169538Y-106271902D01*
X112275511Y-106262076D01*
X112310437Y-106259468D01*
X112429965Y-106253679D01*
X112559722Y-106251420D01*
X112693840Y-106252522D01*
G37*
G36*
X111856281Y-107133239D02*
G01*
X111886751Y-107145358D01*
X111887066Y-107145490D01*
X111925585Y-107171210D01*
X111956644Y-107208136D01*
X111970144Y-107228657D01*
X111992339Y-107247724D01*
X112021691Y-107252696D01*
X112052657Y-107246898D01*
X112089139Y-107225742D01*
X112101236Y-107215137D01*
X112119974Y-107206480D01*
X112137031Y-107214724D01*
X112142486Y-107219588D01*
X112154679Y-107240487D01*
X112147229Y-107264417D01*
X112119086Y-107296143D01*
X112081938Y-107331732D01*
X111783223Y-107324985D01*
X111695563Y-107322645D01*
X111598413Y-107318804D01*
X111525450Y-107314154D01*
X111476147Y-107308660D01*
X111449980Y-107302285D01*
X111429057Y-107288365D01*
X111415849Y-107259809D01*
X111425578Y-107223969D01*
X111458141Y-107182385D01*
X111481242Y-107160398D01*
X111505787Y-107143430D01*
X111523963Y-107143451D01*
X111541313Y-107158897D01*
X111547808Y-107168797D01*
X111546714Y-107185505D01*
X111528107Y-107209119D01*
X111498964Y-107240140D01*
X111541958Y-107240279D01*
X111585672Y-107242592D01*
X111630765Y-107247993D01*
X111639326Y-107249351D01*
X111666020Y-107250350D01*
X111682322Y-107239144D01*
X111698113Y-107210188D01*
X111702906Y-107200172D01*
X111715484Y-107174852D01*
X111721356Y-107164618D01*
X111723508Y-107163953D01*
X111742151Y-107157462D01*
X111773287Y-107146335D01*
X111776052Y-107145339D01*
X111811613Y-107133138D01*
X111834795Y-107129135D01*
X111856281Y-107133239D01*
G37*
G36*
X124372842Y-105206131D02*
G01*
X123920840Y-105206131D01*
X123920840Y-104716463D01*
X124372842Y-104716463D01*
X124372842Y-105206131D01*
G37*
G36*
X113419946Y-107146740D02*
G01*
X113463696Y-107175456D01*
X113491861Y-107217478D01*
X113505961Y-107254926D01*
X113587572Y-107246295D01*
X113628048Y-107241449D01*
X113660138Y-107236463D01*
X113674338Y-107232701D01*
X113672611Y-107223831D01*
X113658644Y-107204701D01*
X113645005Y-107186888D01*
X113639600Y-107162852D01*
X113657538Y-107147362D01*
X113680399Y-107145537D01*
X113714783Y-107162809D01*
X113749922Y-107201247D01*
X113756129Y-107210295D01*
X113773314Y-107246446D01*
X113769468Y-107274083D01*
X113744319Y-107297925D01*
X113731942Y-107304135D01*
X113712070Y-107309624D01*
X113682587Y-107313985D01*
X113640393Y-107317465D01*
X113582388Y-107320316D01*
X113505472Y-107322785D01*
X113406546Y-107325124D01*
X113100359Y-107331626D01*
X113067742Y-107299010D01*
X113043849Y-107269697D01*
X113036539Y-107240675D01*
X113052184Y-107216502D01*
X113056335Y-107213496D01*
X113074923Y-107211426D01*
X113101248Y-107227520D01*
X113119659Y-107240024D01*
X113161920Y-107253321D01*
X113199015Y-107243360D01*
X113227890Y-107210552D01*
X113229336Y-107207964D01*
X113256869Y-107173591D01*
X113290384Y-107148154D01*
X113313875Y-107138918D01*
X113367657Y-107133752D01*
X113419946Y-107146740D01*
G37*
G36*
X121334384Y-105055464D02*
G01*
X121033049Y-105055464D01*
X121033049Y-106248247D01*
X121334384Y-106248247D01*
X121334384Y-106587249D01*
X120254602Y-106587249D01*
X120254602Y-106248247D01*
X120555936Y-106248247D01*
X120555936Y-105055464D01*
X120254602Y-105055464D01*
X120254602Y-104716463D01*
X121334384Y-104716463D01*
X121334384Y-105055464D01*
G37*
G36*
X112909569Y-105563966D02*
G01*
X112903292Y-105570244D01*
X112897014Y-105563966D01*
X112903292Y-105557689D01*
X112909569Y-105563966D01*
G37*
G36*
X128553860Y-107491253D02*
G01*
X128553860Y-107604488D01*
X129178502Y-107601231D01*
X129803143Y-107597975D01*
X129810865Y-107491253D01*
X129985200Y-107491253D01*
X129985200Y-108282256D01*
X128378082Y-108282256D01*
X128378082Y-108131823D01*
X128553860Y-108131823D01*
X129178502Y-108128567D01*
X129803143Y-108125311D01*
X129806618Y-107940116D01*
X129810092Y-107754920D01*
X128553860Y-107754920D01*
X128553860Y-108131823D01*
X128378082Y-108131823D01*
X128378082Y-107491253D01*
X128553860Y-107491253D01*
G37*
G36*
X124879847Y-109413434D02*
G01*
X124896118Y-109426038D01*
X124921567Y-109450534D01*
X124950782Y-109481117D01*
X124978350Y-109511984D01*
X124998861Y-109537332D01*
X125006900Y-109551358D01*
X124998939Y-109561805D01*
X124974265Y-109584816D01*
X124936533Y-109617025D01*
X124889472Y-109655441D01*
X124836813Y-109697074D01*
X124782287Y-109738933D01*
X124729623Y-109778028D01*
X124682552Y-109811370D01*
X124596760Y-109870118D01*
X124541301Y-109811421D01*
X124514809Y-109782083D01*
X124493867Y-109756078D01*
X124485842Y-109742094D01*
X124486184Y-109741047D01*
X124498774Y-109727171D01*
X124526818Y-109701721D01*
X124566634Y-109667932D01*
X124614537Y-109629038D01*
X124667707Y-109586228D01*
X124722776Y-109540979D01*
X124771037Y-109500441D01*
X124806010Y-109470000D01*
X124838593Y-109441624D01*
X124864522Y-109420930D01*
X124877702Y-109412824D01*
X124879847Y-109413434D01*
G37*
G36*
X111588855Y-104834424D02*
G01*
X111589345Y-104836717D01*
X111595518Y-104850260D01*
X111606013Y-104840702D01*
X111606776Y-104839614D01*
X111615255Y-104829567D01*
X111613478Y-104840922D01*
X111609168Y-104849259D01*
X111588935Y-104861559D01*
X111575368Y-104858023D01*
X111576553Y-104837545D01*
X111579723Y-104826529D01*
X111584438Y-104818940D01*
X111588855Y-104834424D01*
G37*
G36*
X113199315Y-107537290D02*
G01*
X113268578Y-107554754D01*
X113321044Y-107571889D01*
X113401399Y-107595229D01*
X113487256Y-107617608D01*
X113571296Y-107637241D01*
X113646203Y-107652344D01*
X113704659Y-107661132D01*
X113712321Y-107661962D01*
X113755773Y-107668292D01*
X113776541Y-107675331D01*
X113776766Y-107683750D01*
X113758686Y-107689429D01*
X113717859Y-107693839D01*
X113656834Y-107696714D01*
X113578068Y-107697880D01*
X113574109Y-107697889D01*
X113462931Y-107695553D01*
X113369062Y-107687246D01*
X113285359Y-107671651D01*
X113204679Y-107647448D01*
X113119876Y-107613320D01*
X113117798Y-107612395D01*
X113067838Y-107586911D01*
X113040725Y-107565532D01*
X113036973Y-107548879D01*
X113057098Y-107537574D01*
X113066063Y-107535498D01*
X113128197Y-107530578D01*
X113199315Y-107537290D01*
G37*
G36*
X118606558Y-107516728D02*
G01*
X118674187Y-107517301D01*
X118751067Y-107518387D01*
X118768033Y-107518674D01*
X118851225Y-107520319D01*
X118914077Y-107522284D01*
X118960648Y-107525004D01*
X118994996Y-107528917D01*
X119021181Y-107534459D01*
X119043262Y-107542067D01*
X119065299Y-107552177D01*
X119104269Y-107575363D01*
X119160772Y-107630733D01*
X119200749Y-107704698D01*
X119200980Y-107705313D01*
X119205886Y-107725606D01*
X119210018Y-107758914D01*
X119213465Y-107807252D01*
X119216315Y-107872637D01*
X119218659Y-107957083D01*
X119220583Y-108062609D01*
X119222178Y-108191228D01*
X119226764Y-108633813D01*
X120304824Y-108633813D01*
X120304824Y-108809592D01*
X119225042Y-108809592D01*
X119225042Y-108982641D01*
X119633099Y-109282065D01*
X120041156Y-109581488D01*
X120041156Y-109776374D01*
X118132703Y-109776374D01*
X118132703Y-109600595D01*
X118923707Y-109600595D01*
X118955024Y-109600588D01*
X119091874Y-109600380D01*
X119220556Y-109599903D01*
X119338950Y-109599184D01*
X119444939Y-109598247D01*
X119536406Y-109597117D01*
X119611233Y-109595820D01*
X119667302Y-109594382D01*
X119702496Y-109592826D01*
X119714696Y-109591178D01*
X119707879Y-109584358D01*
X119682941Y-109564090D01*
X119641908Y-109532302D01*
X119587097Y-109490747D01*
X119520821Y-109441176D01*
X119445396Y-109385343D01*
X119363138Y-109325002D01*
X119011596Y-109068242D01*
X119011596Y-108809592D01*
X117869036Y-108809592D01*
X117869036Y-108633813D01*
X119011596Y-108633813D01*
X119011596Y-108231410D01*
X119011594Y-108209928D01*
X119011409Y-108094660D01*
X119010627Y-108001441D01*
X119008833Y-107927646D01*
X119005613Y-107870652D01*
X119000553Y-107827831D01*
X118993237Y-107796560D01*
X118983252Y-107774214D01*
X118970184Y-107758167D01*
X118953616Y-107745794D01*
X118933137Y-107734470D01*
X118921234Y-107729004D01*
X118899906Y-107722737D01*
X118871378Y-107719048D01*
X118831183Y-107717679D01*
X118774856Y-107718371D01*
X118697931Y-107720865D01*
X118661086Y-107722361D01*
X118596030Y-107725622D01*
X118541510Y-107729154D01*
X118502379Y-107732619D01*
X118483493Y-107735683D01*
X118477331Y-107737295D01*
X118471220Y-107733316D01*
X118469659Y-107717466D01*
X118472483Y-107685440D01*
X118479527Y-107632937D01*
X118482793Y-107609932D01*
X118489297Y-107564351D01*
X118493977Y-107531876D01*
X118495989Y-107518387D01*
X118496689Y-107518095D01*
X118514059Y-107517125D01*
X118551932Y-107516670D01*
X118606558Y-107516728D01*
G37*
G36*
X112597499Y-106636945D02*
G01*
X112607561Y-106656376D01*
X112603436Y-106680160D01*
X112586263Y-106696274D01*
X112570941Y-106703411D01*
X112543260Y-106722084D01*
X112538277Y-106726550D01*
X112529257Y-106739980D01*
X112530466Y-106759002D01*
X112541710Y-106792370D01*
X112545072Y-106802827D01*
X112554268Y-106850691D01*
X112560100Y-106911589D01*
X112562188Y-106976362D01*
X112560154Y-107035850D01*
X112553622Y-107080891D01*
X112542489Y-107105619D01*
X112523036Y-107112149D01*
X112514256Y-107107820D01*
X112507108Y-107094875D01*
X112501903Y-107069335D01*
X112497825Y-107027029D01*
X112494061Y-106963786D01*
X112490571Y-106913028D01*
X112484456Y-106855052D01*
X112477182Y-106808259D01*
X112469670Y-106779607D01*
X112465357Y-106768009D01*
X112462231Y-106723208D01*
X112483372Y-106684607D01*
X112528850Y-106652050D01*
X112540056Y-106646683D01*
X112571702Y-106635478D01*
X112592158Y-106633989D01*
X112597499Y-106636945D01*
G37*
G36*
X112801980Y-105559568D02*
G01*
X112805724Y-105565274D01*
X112801282Y-105567762D01*
X112781659Y-105566265D01*
X112775848Y-105561746D01*
X112789245Y-105558680D01*
X112801980Y-105559568D01*
G37*
G36*
X112306900Y-105538855D02*
G01*
X112300622Y-105545133D01*
X112294345Y-105538855D01*
X112300622Y-105532577D01*
X112306900Y-105538855D01*
G37*
G36*
X112141052Y-107536967D02*
G01*
X112161805Y-107546788D01*
X112162106Y-107561402D01*
X112139343Y-107581097D01*
X112092948Y-107606692D01*
X112042059Y-107629031D01*
X111943518Y-107661752D01*
X111836943Y-107686454D01*
X111732844Y-107700404D01*
X111730504Y-107700580D01*
X111678420Y-107702791D01*
X111619945Y-107702730D01*
X111560328Y-107700734D01*
X111504820Y-107697137D01*
X111458671Y-107692275D01*
X111427132Y-107686485D01*
X111415452Y-107680102D01*
X111418241Y-107677577D01*
X111439822Y-107670902D01*
X111478105Y-107663290D01*
X111527513Y-107655945D01*
X111536365Y-107654722D01*
X111594608Y-107644124D01*
X111666751Y-107627930D01*
X111744468Y-107608116D01*
X111819431Y-107586659D01*
X111894544Y-107564727D01*
X111978195Y-107543960D01*
X112044911Y-107532759D01*
X112098070Y-107530602D01*
X112141052Y-107536967D01*
G37*
G36*
X128566416Y-105729750D02*
G01*
X128652168Y-105769275D01*
X128692396Y-105785808D01*
X128774984Y-105807076D01*
X128851406Y-105810100D01*
X128918422Y-105795372D01*
X128972793Y-105763386D01*
X129011278Y-105714634D01*
X129011794Y-105713632D01*
X129018395Y-105699611D01*
X129023783Y-105684068D01*
X129028109Y-105664384D01*
X129031522Y-105637935D01*
X129034171Y-105602103D01*
X129036207Y-105554265D01*
X129037779Y-105491801D01*
X129039036Y-105412088D01*
X129040128Y-105312508D01*
X129041205Y-105190437D01*
X129045159Y-104716463D01*
X129495531Y-104716463D01*
X129495531Y-105731620D01*
X129567726Y-105767041D01*
X129615815Y-105787465D01*
X129669034Y-105800553D01*
X129734088Y-105806269D01*
X129741752Y-105806541D01*
X129815203Y-105803626D01*
X129870189Y-105788553D01*
X129910832Y-105759496D01*
X129941255Y-105714634D01*
X129947237Y-105701628D01*
X129952635Y-105685881D01*
X129956989Y-105665985D01*
X129960442Y-105639319D01*
X129963142Y-105603264D01*
X129965234Y-105555199D01*
X129966863Y-105492504D01*
X129968176Y-105412559D01*
X129969319Y-105312743D01*
X129970437Y-105190437D01*
X129974508Y-104716463D01*
X130427298Y-104716463D01*
X130421242Y-105246937D01*
X130420782Y-105286749D01*
X130419118Y-105417517D01*
X130417294Y-105526488D01*
X130415050Y-105616266D01*
X130412131Y-105689455D01*
X130408278Y-105748659D01*
X130403234Y-105796481D01*
X130396742Y-105835525D01*
X130388544Y-105868395D01*
X130378383Y-105897694D01*
X130366002Y-105926027D01*
X130351142Y-105955996D01*
X130318447Y-106007923D01*
X130254095Y-106073545D01*
X130174464Y-106123343D01*
X130083218Y-106155715D01*
X129984020Y-106169059D01*
X129880532Y-106161774D01*
X129845500Y-106153786D01*
X129768326Y-106126953D01*
X129683855Y-106087856D01*
X129599135Y-106039930D01*
X129521209Y-105986610D01*
X129440164Y-105924997D01*
X129406863Y-105977507D01*
X129383907Y-106009565D01*
X129316462Y-106074936D01*
X129233803Y-106124453D01*
X129140104Y-106156484D01*
X129039540Y-106169396D01*
X128936283Y-106161556D01*
X128926828Y-106159688D01*
X128854348Y-106138147D01*
X128773957Y-106104201D01*
X128694666Y-106062071D01*
X128625488Y-106015979D01*
X128566416Y-105970873D01*
X128566416Y-106122691D01*
X128114414Y-106122691D01*
X128114414Y-104716463D01*
X128566416Y-104716463D01*
X128566416Y-105729750D01*
G37*
G36*
X126256674Y-105263145D02*
G01*
X126289332Y-105131302D01*
X126341709Y-105013898D01*
X126412979Y-104911913D01*
X126502315Y-104826325D01*
X126608891Y-104758114D01*
X126731882Y-104708259D01*
X126870462Y-104677739D01*
X126872131Y-104677508D01*
X126938722Y-104672594D01*
X127020153Y-104672729D01*
X127107058Y-104677416D01*
X127190069Y-104686157D01*
X127259821Y-104698453D01*
X127358646Y-104728900D01*
X127471323Y-104785767D01*
X127568801Y-104861951D01*
X127649884Y-104956260D01*
X127713374Y-105067502D01*
X127758071Y-105194483D01*
X127765477Y-105229489D01*
X127774902Y-105308214D01*
X127778849Y-105397885D01*
X127777322Y-105489712D01*
X127770325Y-105574904D01*
X127757862Y-105644671D01*
X127724881Y-105745328D01*
X127665602Y-105860288D01*
X127588052Y-105958301D01*
X127493008Y-106038603D01*
X127381246Y-106100423D01*
X127253543Y-106142996D01*
X127215039Y-106150640D01*
X127131167Y-106160262D01*
X127036842Y-106164357D01*
X126940799Y-106162918D01*
X126851774Y-106155937D01*
X126778502Y-106143405D01*
X126720296Y-106126899D01*
X126598737Y-106075421D01*
X126493744Y-106005661D01*
X126406094Y-105918675D01*
X126336566Y-105815518D01*
X126285940Y-105697246D01*
X126254993Y-105564914D01*
X126244504Y-105419577D01*
X126714491Y-105419577D01*
X126714880Y-105463885D01*
X126719231Y-105552777D01*
X126729397Y-105623600D01*
X126746607Y-105681064D01*
X126772088Y-105729881D01*
X126807068Y-105774762D01*
X126834752Y-105802598D01*
X126883541Y-105836090D01*
X126940137Y-105853754D01*
X127012256Y-105858747D01*
X127060399Y-105856080D01*
X127135995Y-105837618D01*
X127197389Y-105800158D01*
X127246938Y-105742006D01*
X127287001Y-105661468D01*
X127288691Y-105657104D01*
X127300202Y-105623231D01*
X127307969Y-105588636D01*
X127312726Y-105547224D01*
X127315209Y-105492903D01*
X127316150Y-105419577D01*
X127316201Y-105392587D01*
X127315030Y-105319826D01*
X127311435Y-105264942D01*
X127304920Y-105222459D01*
X127294986Y-105186900D01*
X127289114Y-105171264D01*
X127250884Y-105100456D01*
X127200261Y-105042671D01*
X127142242Y-105003896D01*
X127118756Y-104994570D01*
X127043034Y-104979593D01*
X126965502Y-104983690D01*
X126891954Y-105005394D01*
X126828183Y-105043236D01*
X126779980Y-105095747D01*
X126764937Y-105120210D01*
X126743808Y-105162929D01*
X126729308Y-105208746D01*
X126720326Y-105263140D01*
X126715757Y-105331591D01*
X126714491Y-105419577D01*
X126244504Y-105419577D01*
X126244561Y-105408449D01*
X126256674Y-105263145D01*
G37*
G36*
X126656023Y-107712012D02*
G01*
X126678810Y-107732412D01*
X126708710Y-107761836D01*
X126764686Y-107818974D01*
X126733297Y-107843221D01*
X126709871Y-107860802D01*
X126667538Y-107891212D01*
X126618705Y-107925227D01*
X126567871Y-107959827D01*
X126519535Y-107991993D01*
X126478196Y-108018706D01*
X126448355Y-108036948D01*
X126434509Y-108043699D01*
X126425219Y-108038979D01*
X126402768Y-108019836D01*
X126374715Y-107990998D01*
X126327102Y-107938296D01*
X126362497Y-107912525D01*
X126383260Y-107897235D01*
X126420624Y-107869485D01*
X126467557Y-107834482D01*
X126518510Y-107796359D01*
X126518933Y-107796042D01*
X126566163Y-107761003D01*
X126605843Y-107732226D01*
X126633817Y-107712679D01*
X126645932Y-107705330D01*
X126656023Y-107712012D01*
G37*
G36*
X112840883Y-105558595D02*
G01*
X112842606Y-105566059D01*
X112840766Y-105567562D01*
X112825865Y-105566059D01*
X112823901Y-105562282D01*
X112834236Y-105557689D01*
X112840883Y-105558595D01*
G37*
G36*
X127072979Y-107528921D02*
G01*
X127149815Y-107529103D01*
X127206693Y-107529976D01*
X127248108Y-107532074D01*
X127278553Y-107535936D01*
X127302521Y-107542097D01*
X127324508Y-107551095D01*
X127349005Y-107563466D01*
X127383717Y-107583351D01*
X127415028Y-107608031D01*
X127437715Y-107637994D01*
X127453268Y-107677202D01*
X127463183Y-107729615D01*
X127468951Y-107799192D01*
X127472066Y-107889893D01*
X127476331Y-108081366D01*
X127875857Y-108081366D01*
X127875857Y-108232034D01*
X127474078Y-108232034D01*
X127474078Y-108382701D01*
X127298299Y-108382701D01*
X127298299Y-108232034D01*
X126030182Y-108232034D01*
X126030182Y-108081366D01*
X127298299Y-108081366D01*
X127298299Y-107765544D01*
X127260520Y-107727765D01*
X127222740Y-107689986D01*
X127015099Y-107694203D01*
X126947712Y-107695495D01*
X126890173Y-107696136D01*
X126851302Y-107695519D01*
X126827644Y-107693285D01*
X126815748Y-107689078D01*
X126812158Y-107682538D01*
X126813421Y-107673309D01*
X126815406Y-107664036D01*
X126821553Y-107629833D01*
X126827988Y-107588559D01*
X126836593Y-107528919D01*
X127059734Y-107528919D01*
X127072979Y-107528921D01*
G37*
G36*
X113647668Y-104760155D02*
G01*
X113646165Y-104775056D01*
X113642389Y-104777020D01*
X113637795Y-104766685D01*
X113638701Y-104760038D01*
X113646165Y-104758315D01*
X113647668Y-104760155D01*
G37*
G36*
X118044814Y-106122691D02*
G01*
X117592812Y-106122691D01*
X117592812Y-104716463D01*
X118044814Y-104716463D01*
X118044814Y-106122691D01*
G37*
G36*
X112156233Y-105639300D02*
G01*
X112149955Y-105645578D01*
X112143677Y-105639300D01*
X112149955Y-105633022D01*
X112156233Y-105639300D01*
G37*
G36*
X112275880Y-105633928D02*
G01*
X112277604Y-105641393D01*
X112275764Y-105642895D01*
X112260863Y-105641393D01*
X112258899Y-105637616D01*
X112269233Y-105633022D01*
X112275880Y-105633928D01*
G37*
G36*
X121478461Y-108719347D02*
G01*
X121502588Y-108647274D01*
X121533933Y-108564465D01*
X121568943Y-108479634D01*
X121604065Y-108401493D01*
X121635747Y-108338756D01*
X121661855Y-108293884D01*
X121713172Y-108213550D01*
X121773213Y-108126745D01*
X121837004Y-108040832D01*
X121863418Y-108006576D01*
X121758985Y-107938729D01*
X121720908Y-107914761D01*
X121611826Y-107852193D01*
X121491271Y-107790164D01*
X121368501Y-107733292D01*
X121252773Y-107686195D01*
X121211780Y-107670802D01*
X121167163Y-107653730D01*
X121136058Y-107641440D01*
X121123489Y-107635886D01*
X121123574Y-107634555D01*
X121132559Y-107618776D01*
X121152474Y-107589447D01*
X121179989Y-107551541D01*
X121240217Y-107470710D01*
X121337999Y-107512098D01*
X121413233Y-107545391D01*
X121564154Y-107619632D01*
X121714021Y-107702273D01*
X121850990Y-107786967D01*
X121865046Y-107796234D01*
X121915615Y-107829277D01*
X121957258Y-107856027D01*
X121985982Y-107873940D01*
X121997797Y-107880477D01*
X121999588Y-107879753D01*
X122016705Y-107868859D01*
X122047270Y-107847600D01*
X122086185Y-107819494D01*
X122112586Y-107800394D01*
X122263070Y-107701215D01*
X122425980Y-107610173D01*
X122607650Y-107523673D01*
X122674500Y-107494109D01*
X122749734Y-107584262D01*
X122824968Y-107674414D01*
X122704318Y-107715616D01*
X122684006Y-107722713D01*
X122613933Y-107748944D01*
X122542439Y-107777822D01*
X122482217Y-107804278D01*
X122447779Y-107821219D01*
X122391578Y-107851284D01*
X122332198Y-107885232D01*
X122274728Y-107919963D01*
X122224253Y-107952375D01*
X122185863Y-107979367D01*
X122164645Y-107997838D01*
X122162213Y-108007989D01*
X122170937Y-108028474D01*
X122194179Y-108060597D01*
X122233746Y-108107223D01*
X122253686Y-108130295D01*
X122328723Y-108225143D01*
X122399931Y-108327198D01*
X122465406Y-108432810D01*
X122523245Y-108538331D01*
X122571543Y-108640110D01*
X122608399Y-108734498D01*
X122631908Y-108817846D01*
X122640168Y-108886503D01*
X122640168Y-108960259D01*
X122112832Y-108960259D01*
X122112832Y-109336927D01*
X122778279Y-109336927D01*
X122778279Y-109512706D01*
X122112832Y-109512706D01*
X122112832Y-109914485D01*
X121924498Y-109914485D01*
X121924498Y-109512706D01*
X121284162Y-109512706D01*
X121284162Y-109336927D01*
X121924498Y-109336927D01*
X121924498Y-108960259D01*
X121284162Y-108960259D01*
X121284162Y-108797036D01*
X121456677Y-108797036D01*
X121636920Y-108797036D01*
X122428414Y-108797036D01*
X122420064Y-108768786D01*
X122416264Y-108756693D01*
X122393094Y-108696229D01*
X122360536Y-108624058D01*
X122322245Y-108547568D01*
X122281878Y-108474146D01*
X122243090Y-108411180D01*
X122228696Y-108390150D01*
X122182797Y-108328077D01*
X122132857Y-108266011D01*
X122087388Y-108214695D01*
X122004789Y-108128076D01*
X121941657Y-108208305D01*
X121938436Y-108212406D01*
X121843695Y-108342615D01*
X121767363Y-108469556D01*
X121705404Y-108600740D01*
X121653778Y-108743675D01*
X121636920Y-108797036D01*
X121456677Y-108797036D01*
X121473210Y-108737397D01*
X121478461Y-108719347D01*
G37*
G36*
X116532763Y-104695181D02*
G01*
X116694769Y-104730514D01*
X116752547Y-104749260D01*
X116834391Y-104784148D01*
X116905254Y-104827646D01*
X116973972Y-104884632D01*
X117012356Y-104922964D01*
X117067900Y-104994940D01*
X117109415Y-105076792D01*
X117141085Y-105175815D01*
X117144542Y-105189762D01*
X117149525Y-105212711D01*
X117153672Y-105237571D01*
X117157058Y-105266661D01*
X117159759Y-105302302D01*
X117161852Y-105346813D01*
X117163414Y-105402515D01*
X117164520Y-105471727D01*
X117165248Y-105556771D01*
X117165673Y-105659966D01*
X117165872Y-105783631D01*
X117165921Y-105930088D01*
X117165921Y-106587249D01*
X116689851Y-106587249D01*
X116686191Y-105924940D01*
X116682530Y-105262632D01*
X116649116Y-105191352D01*
X116617709Y-105138145D01*
X116565884Y-105086613D01*
X116499140Y-105052451D01*
X116415702Y-105034819D01*
X116313791Y-105032877D01*
X116268680Y-105036555D01*
X116181453Y-105055023D01*
X116112865Y-105088928D01*
X116060962Y-105139931D01*
X116023789Y-105209689D01*
X115999393Y-105299864D01*
X115996033Y-105330396D01*
X115992974Y-105385824D01*
X115990418Y-105464024D01*
X115988387Y-105563799D01*
X115986907Y-105683952D01*
X115986001Y-105823287D01*
X115985694Y-105980607D01*
X115985694Y-106587249D01*
X115508581Y-106587249D01*
X115509019Y-105956329D01*
X115509186Y-105841310D01*
X115509713Y-105703343D01*
X115510629Y-105586932D01*
X115511986Y-105490022D01*
X115513835Y-105410554D01*
X115516228Y-105346473D01*
X115519214Y-105295722D01*
X115522846Y-105256243D01*
X115527175Y-105225979D01*
X115527366Y-105224912D01*
X115560993Y-105102073D01*
X115614720Y-104993907D01*
X115687880Y-104900975D01*
X115779803Y-104823841D01*
X115889822Y-104763065D01*
X116017268Y-104719210D01*
X116161473Y-104692836D01*
X116174301Y-104691414D01*
X116359255Y-104682146D01*
X116532763Y-104695181D01*
G37*
G36*
X111588548Y-104885711D02*
G01*
X111587045Y-104900612D01*
X111583269Y-104902576D01*
X111578675Y-104892241D01*
X111579581Y-104885594D01*
X111587045Y-104883871D01*
X111588548Y-104885711D01*
G37*
G36*
X112394789Y-105563966D02*
G01*
X112388512Y-105570244D01*
X112382234Y-105563966D01*
X112388512Y-105557689D01*
X112394789Y-105563966D01*
G37*
G36*
X112815772Y-105483261D02*
G01*
X112817495Y-105490725D01*
X112815655Y-105492228D01*
X112800754Y-105490725D01*
X112798790Y-105486949D01*
X112809125Y-105482355D01*
X112815772Y-105483261D01*
G37*
G36*
X111541008Y-104760407D02*
G01*
X111534730Y-104766685D01*
X111528452Y-104760407D01*
X111534730Y-104754130D01*
X111541008Y-104760407D01*
G37*
G36*
X126394295Y-108332478D02*
G01*
X126394295Y-108533368D01*
X126846297Y-108533368D01*
X126846297Y-108370145D01*
X127020877Y-108370145D01*
X127024615Y-108448618D01*
X127028353Y-108527090D01*
X127257493Y-108530513D01*
X127486633Y-108533935D01*
X127486633Y-108382701D01*
X127662412Y-108382701D01*
X127662412Y-109311816D01*
X127022076Y-109311816D01*
X127022076Y-109475039D01*
X127813079Y-109475039D01*
X127813079Y-109625706D01*
X127022076Y-109625706D01*
X127022076Y-109914485D01*
X126846297Y-109914485D01*
X126846297Y-109625706D01*
X126092960Y-109625706D01*
X126092960Y-109475039D01*
X126846297Y-109475039D01*
X126846297Y-109311816D01*
X126218517Y-109311816D01*
X126218517Y-109161149D01*
X126394295Y-109161149D01*
X126846297Y-109161149D01*
X127022076Y-109161149D01*
X127486633Y-109161149D01*
X127486633Y-108985370D01*
X127022076Y-108985370D01*
X127022076Y-109161149D01*
X126846297Y-109161149D01*
X126846297Y-108985370D01*
X126394295Y-108985370D01*
X126394295Y-109161149D01*
X126218517Y-109161149D01*
X126218517Y-108847259D01*
X126394295Y-108847259D01*
X126846297Y-108847259D01*
X126846297Y-108671480D01*
X127020928Y-108671480D01*
X127024641Y-108756230D01*
X127028353Y-108840981D01*
X127486633Y-108847825D01*
X127486633Y-108671480D01*
X127020928Y-108671480D01*
X126846297Y-108671480D01*
X126394295Y-108671480D01*
X126394295Y-108847259D01*
X126218517Y-108847259D01*
X126218517Y-108332478D01*
X126394295Y-108332478D01*
G37*
G36*
X124225216Y-108241450D02*
G01*
X124228452Y-109004204D01*
X124312572Y-108843981D01*
X124392232Y-108700391D01*
X124538043Y-108472615D01*
X124697650Y-108263366D01*
X124869552Y-108074717D01*
X124906178Y-108039134D01*
X124958104Y-107991222D01*
X125013139Y-107942635D01*
X125067701Y-107896337D01*
X125118210Y-107855292D01*
X125161082Y-107822463D01*
X125192738Y-107800816D01*
X125209594Y-107793314D01*
X125213762Y-107795707D01*
X125231799Y-107813222D01*
X125259138Y-107843963D01*
X125291697Y-107883448D01*
X125363048Y-107972857D01*
X125291697Y-108016803D01*
X125157317Y-108107058D01*
X124981887Y-108248411D01*
X124815273Y-108410107D01*
X124660006Y-108589635D01*
X124518617Y-108784480D01*
X124515921Y-108788558D01*
X124479062Y-108845846D01*
X124441277Y-108907010D01*
X124404971Y-108967874D01*
X124372549Y-109024263D01*
X124346413Y-109072003D01*
X124328968Y-109106919D01*
X124322619Y-109124836D01*
X124322748Y-109125108D01*
X124337316Y-109127678D01*
X124374346Y-109130003D01*
X124431434Y-109132029D01*
X124506177Y-109133700D01*
X124596169Y-109134962D01*
X124699008Y-109135760D01*
X124812288Y-109136038D01*
X125301957Y-109136038D01*
X125301957Y-109311816D01*
X124222175Y-109311816D01*
X124222175Y-109914485D01*
X124033840Y-109914485D01*
X124033840Y-109311816D01*
X122966613Y-109311816D01*
X122966613Y-109136038D01*
X123451348Y-109136038D01*
X123467179Y-109136037D01*
X123587493Y-109135966D01*
X123685241Y-109135702D01*
X123762700Y-109135141D01*
X123822144Y-109134177D01*
X123865851Y-109132706D01*
X123896095Y-109130622D01*
X123915154Y-109127821D01*
X123925303Y-109124198D01*
X123928818Y-109119648D01*
X123927976Y-109114065D01*
X123923589Y-109103642D01*
X123903232Y-109064568D01*
X123871894Y-109011013D01*
X123832276Y-108947183D01*
X123787078Y-108877287D01*
X123739002Y-108805530D01*
X123690747Y-108736120D01*
X123645015Y-108673264D01*
X123604813Y-108621497D01*
X123525373Y-108526524D01*
X123435011Y-108425583D01*
X123338802Y-108323974D01*
X123241819Y-108227000D01*
X123149137Y-108139961D01*
X123065830Y-108068158D01*
X123023242Y-108033571D01*
X122977856Y-107996640D01*
X122941345Y-107966854D01*
X122919026Y-107948544D01*
X122887476Y-107922445D01*
X122953302Y-107838683D01*
X122965054Y-107823866D01*
X122994010Y-107788628D01*
X123015655Y-107764114D01*
X123026001Y-107754920D01*
X123038822Y-107760546D01*
X123068235Y-107782029D01*
X123110007Y-107817148D01*
X123161450Y-107863306D01*
X123219880Y-107917908D01*
X123282610Y-107978358D01*
X123346955Y-108042062D01*
X123410229Y-108106423D01*
X123469747Y-108168846D01*
X123522821Y-108226737D01*
X123566767Y-108277498D01*
X123646231Y-108377901D01*
X123762115Y-108540812D01*
X123870848Y-108712939D01*
X123966278Y-108884925D01*
X124027563Y-109004204D01*
X124030799Y-108241450D01*
X124034035Y-107478697D01*
X124221980Y-107478697D01*
X124225216Y-108241450D01*
G37*
G36*
X118057370Y-106675138D02*
G01*
X117580257Y-106675138D01*
X117580257Y-106336136D01*
X118057370Y-106336136D01*
X118057370Y-106675138D01*
G37*
G36*
X113007332Y-105651603D02*
G01*
X113005829Y-105666504D01*
X113002053Y-105668468D01*
X112997459Y-105658133D01*
X112998365Y-105651487D01*
X113005829Y-105649763D01*
X113007332Y-105651603D01*
G37*
G36*
X128265081Y-109462483D02*
G01*
X130110756Y-109462483D01*
X130110756Y-109161149D01*
X130286534Y-109161149D01*
X130286534Y-109625706D01*
X129238590Y-109625706D01*
X129288588Y-109659031D01*
X129304889Y-109669936D01*
X129331020Y-109687622D01*
X129343498Y-109696378D01*
X129339645Y-109706328D01*
X129322997Y-109731417D01*
X129296719Y-109767058D01*
X129264212Y-109808781D01*
X129228880Y-109852117D01*
X129194125Y-109892596D01*
X129148134Y-109944421D01*
X129092693Y-109911571D01*
X129054781Y-109889187D01*
X129020792Y-109866942D01*
X129005212Y-109848600D01*
X129006598Y-109828425D01*
X129023510Y-109800680D01*
X129054504Y-109759629D01*
X129069516Y-109740248D01*
X129093220Y-109710728D01*
X129111819Y-109686695D01*
X129123495Y-109667593D01*
X129126431Y-109652865D01*
X129118807Y-109641954D01*
X129098807Y-109634304D01*
X129064612Y-109629357D01*
X129014404Y-109626559D01*
X128946364Y-109625351D01*
X128858676Y-109625177D01*
X128749521Y-109625481D01*
X128617080Y-109625706D01*
X128089303Y-109625706D01*
X128089303Y-109161149D01*
X128265081Y-109161149D01*
X128265081Y-109462483D01*
G37*
G36*
X127514294Y-109654995D02*
G01*
X127531632Y-109672807D01*
X127551196Y-109701467D01*
X127568554Y-109733326D01*
X127579273Y-109760732D01*
X127578923Y-109776034D01*
X127565387Y-109784252D01*
X127533571Y-109800172D01*
X127489817Y-109820639D01*
X127439897Y-109843103D01*
X127389582Y-109865015D01*
X127344644Y-109883823D01*
X127310856Y-109896978D01*
X127293988Y-109901930D01*
X127286974Y-109898707D01*
X127268265Y-109879439D01*
X127246760Y-109848568D01*
X127214338Y-109795207D01*
X127353625Y-109724777D01*
X127356815Y-109723166D01*
X127411019Y-109696231D01*
X127457413Y-109673975D01*
X127491157Y-109658668D01*
X127507413Y-109652582D01*
X127514294Y-109654995D01*
G37*
G36*
X121638234Y-105587359D02*
G01*
X121644954Y-105485796D01*
X121656567Y-105393956D01*
X121672830Y-105319337D01*
X121676221Y-105307965D01*
X121730841Y-105169819D01*
X121805186Y-105046118D01*
X121897582Y-104938275D01*
X122006353Y-104847704D01*
X122129824Y-104775819D01*
X122266320Y-104724033D01*
X122414167Y-104693761D01*
X122501156Y-104684612D01*
X122580260Y-104681082D01*
X122658213Y-104683777D01*
X122746890Y-104692657D01*
X122822668Y-104704305D01*
X122972410Y-104743485D01*
X123106361Y-104801918D01*
X123224009Y-104879159D01*
X123324844Y-104974761D01*
X123408353Y-105088280D01*
X123474026Y-105219270D01*
X123521351Y-105367285D01*
X123525593Y-105385954D01*
X123541326Y-105489070D01*
X123548692Y-105604983D01*
X123547702Y-105724661D01*
X123538366Y-105839073D01*
X123520695Y-105939189D01*
X123514689Y-105962777D01*
X123464771Y-106106209D01*
X123396118Y-106233988D01*
X123309655Y-106345092D01*
X123206307Y-106438495D01*
X123086998Y-106513175D01*
X122952653Y-106568108D01*
X122873476Y-106589620D01*
X122729224Y-106613283D01*
X122580721Y-106619918D01*
X122432875Y-106609970D01*
X122290596Y-106583888D01*
X122158792Y-106542120D01*
X122042372Y-106485112D01*
X122028951Y-106476830D01*
X121922205Y-106394779D01*
X121829824Y-106293603D01*
X121753318Y-106175582D01*
X121694198Y-106042998D01*
X121653972Y-105898132D01*
X121649881Y-105875383D01*
X121640453Y-105789652D01*
X121637064Y-105701832D01*
X122129054Y-105701832D01*
X122130935Y-105731942D01*
X122149313Y-105868734D01*
X122182733Y-105985842D01*
X122231071Y-106083106D01*
X122294203Y-106160364D01*
X122372003Y-106217459D01*
X122464347Y-106254228D01*
X122571112Y-106270513D01*
X122603050Y-106271805D01*
X122655030Y-106270610D01*
X122698913Y-106263083D01*
X122745871Y-106247769D01*
X122747482Y-106247158D01*
X122834775Y-106201295D01*
X122908596Y-106135185D01*
X122969517Y-106048179D01*
X123018110Y-105939631D01*
X123021773Y-105928462D01*
X123035509Y-105867132D01*
X123045642Y-105789706D01*
X123051804Y-105703341D01*
X123053624Y-105615194D01*
X123050734Y-105532421D01*
X123042762Y-105462178D01*
X123040813Y-105451423D01*
X123010539Y-105343834D01*
X122963857Y-105247381D01*
X122903124Y-105165311D01*
X122830694Y-105100870D01*
X122748923Y-105057303D01*
X122689705Y-105040335D01*
X122594771Y-105030830D01*
X122499213Y-105040005D01*
X122409658Y-105067006D01*
X122332732Y-105110978D01*
X122295894Y-105142860D01*
X122231629Y-105222363D01*
X122182141Y-105319957D01*
X122148103Y-105433697D01*
X122130183Y-105561637D01*
X122129054Y-105701832D01*
X121637064Y-105701832D01*
X121636652Y-105691144D01*
X121638234Y-105587359D01*
G37*
G36*
X115659248Y-108043699D02*
G01*
X115659248Y-108219478D01*
X116358612Y-108219478D01*
X116366192Y-108021727D01*
X116367760Y-107986229D01*
X116372043Y-107916209D01*
X116377338Y-107854279D01*
X116383118Y-107806112D01*
X116388858Y-107777379D01*
X116412190Y-107725182D01*
X116461903Y-107664829D01*
X116530496Y-107620079D01*
X116616830Y-107591861D01*
X116626047Y-107590565D01*
X116662265Y-107588110D01*
X116718400Y-107586076D01*
X116790935Y-107584527D01*
X116876351Y-107583529D01*
X116971130Y-107583146D01*
X117071754Y-107583444D01*
X117104720Y-107583661D01*
X117218090Y-107584612D01*
X117310001Y-107586106D01*
X117383360Y-107588637D01*
X117441071Y-107592698D01*
X117486041Y-107598784D01*
X117521175Y-107607389D01*
X117549379Y-107619005D01*
X117573559Y-107634128D01*
X117596619Y-107653250D01*
X117621467Y-107676865D01*
X117647521Y-107707279D01*
X117673845Y-107753100D01*
X117696674Y-107813134D01*
X117717346Y-107891014D01*
X117737203Y-107990368D01*
X117740754Y-108010154D01*
X117750070Y-108061287D01*
X117757802Y-108102695D01*
X117762557Y-108126877D01*
X117763242Y-108130701D01*
X117761374Y-108144253D01*
X117748639Y-108156241D01*
X117720652Y-108169625D01*
X117673028Y-108187369D01*
X117659431Y-108192142D01*
X117617139Y-108206220D01*
X117586732Y-108215157D01*
X117574051Y-108217192D01*
X117571149Y-108205181D01*
X117565513Y-108173041D01*
X117558054Y-108125895D01*
X117549609Y-108068811D01*
X117535812Y-107986897D01*
X117516743Y-107910822D01*
X117493507Y-107854477D01*
X117464868Y-107814985D01*
X117429589Y-107789468D01*
X117429442Y-107789394D01*
X117413993Y-107782913D01*
X117394687Y-107777837D01*
X117368486Y-107774002D01*
X117332355Y-107771244D01*
X117283258Y-107769397D01*
X117218158Y-107768297D01*
X117134021Y-107767780D01*
X117027810Y-107767681D01*
X116961492Y-107767746D01*
X116862932Y-107768217D01*
X116785091Y-107769548D01*
X116725168Y-107772216D01*
X116680361Y-107776698D01*
X116647871Y-107783470D01*
X116624895Y-107793009D01*
X116608635Y-107805789D01*
X116596288Y-107822289D01*
X116585054Y-107842984D01*
X116576378Y-107863589D01*
X116569967Y-107890701D01*
X116566451Y-107927352D01*
X116565359Y-107978719D01*
X116566221Y-108049977D01*
X116569530Y-108213200D01*
X117024671Y-108216496D01*
X117479812Y-108219791D01*
X117479812Y-109588040D01*
X116563252Y-109588040D01*
X116563252Y-109901930D01*
X116362362Y-109901930D01*
X116362362Y-109588040D01*
X115458358Y-109588040D01*
X115458358Y-109412261D01*
X115659248Y-109412261D01*
X116362362Y-109412261D01*
X116362362Y-108985370D01*
X116562645Y-108985370D01*
X116566087Y-109195677D01*
X116569530Y-109405983D01*
X116924226Y-109409318D01*
X117278922Y-109412652D01*
X117278922Y-108985370D01*
X116562645Y-108985370D01*
X116362362Y-108985370D01*
X115659248Y-108985370D01*
X115659248Y-109412261D01*
X115458358Y-109412261D01*
X115458358Y-108809592D01*
X115659248Y-108809592D01*
X116362362Y-108809592D01*
X116563252Y-108809592D01*
X117278922Y-108809592D01*
X117278922Y-108395257D01*
X116563252Y-108395257D01*
X116563252Y-108809592D01*
X116362362Y-108809592D01*
X116362362Y-108395257D01*
X115659248Y-108395257D01*
X115659248Y-108809592D01*
X115458358Y-108809592D01*
X115458358Y-108043699D01*
X115659248Y-108043699D01*
G37*
G36*
X113612684Y-104860852D02*
G01*
X113606406Y-104867130D01*
X113600128Y-104860852D01*
X113606406Y-104854574D01*
X113612684Y-104860852D01*
G37*
G36*
X125629293Y-104675146D02*
G01*
X125757653Y-104690711D01*
X125879044Y-104717239D01*
X125985206Y-104753687D01*
X126042738Y-104778348D01*
X126042738Y-104967129D01*
X126042704Y-105019152D01*
X126042263Y-105076517D01*
X126040853Y-105115068D01*
X126037911Y-105138544D01*
X126032871Y-105150684D01*
X126025169Y-105155226D01*
X126014241Y-105155909D01*
X126012715Y-105155838D01*
X125987597Y-105147219D01*
X125951132Y-105127027D01*
X125910657Y-105099275D01*
X125899455Y-105091079D01*
X125814199Y-105042318D01*
X125721413Y-105009643D01*
X125625508Y-104993120D01*
X125530896Y-104992819D01*
X125441987Y-105008805D01*
X125363193Y-105041146D01*
X125298926Y-105089911D01*
X125293989Y-105095033D01*
X125253591Y-105143505D01*
X125225334Y-105193922D01*
X125207400Y-105251955D01*
X125197973Y-105323278D01*
X125195234Y-105413563D01*
X125195378Y-105462028D01*
X125196640Y-105513092D01*
X125200212Y-105550557D01*
X125207275Y-105581141D01*
X125219012Y-105611560D01*
X125236607Y-105648534D01*
X125268809Y-105704788D01*
X125324134Y-105769012D01*
X125391449Y-105813038D01*
X125473285Y-105838359D01*
X125572174Y-105846468D01*
X125633966Y-105842143D01*
X125724572Y-105822512D01*
X125812011Y-105789639D01*
X125889111Y-105746396D01*
X125948701Y-105695657D01*
X125972109Y-105679366D01*
X126007017Y-105670689D01*
X126042738Y-105670689D01*
X126042738Y-106058109D01*
X125970543Y-106085285D01*
X125933673Y-106098820D01*
X125836699Y-106129845D01*
X125747545Y-106149806D01*
X125656304Y-106160571D01*
X125553069Y-106164009D01*
X125499024Y-106163508D01*
X125386758Y-106156400D01*
X125288344Y-106139802D01*
X125196681Y-106112262D01*
X125104671Y-106072329D01*
X125018002Y-106022439D01*
X124920799Y-105943020D01*
X124843320Y-105848166D01*
X124785490Y-105737757D01*
X124747236Y-105611674D01*
X124728483Y-105469799D01*
X124726922Y-105378554D01*
X124741704Y-105239205D01*
X124777461Y-105113167D01*
X124833542Y-105001207D01*
X124909300Y-104904094D01*
X125004085Y-104822593D01*
X125117250Y-104757475D01*
X125248146Y-104709505D01*
X125396124Y-104679453D01*
X125502221Y-104671582D01*
X125629293Y-104675146D01*
G37*
G36*
X112784013Y-105488633D02*
G01*
X112777736Y-105494911D01*
X112771458Y-105488633D01*
X112777736Y-105482355D01*
X112784013Y-105488633D01*
G37*
G36*
X112269233Y-105563966D02*
G01*
X112262956Y-105570244D01*
X112256678Y-105563966D01*
X112262956Y-105557689D01*
X112269233Y-105563966D01*
G37*
G36*
X128292380Y-108965302D02*
G01*
X128219154Y-108907493D01*
X128091616Y-108812647D01*
X128150530Y-108754619D01*
X128180687Y-108726224D01*
X128206169Y-108704789D01*
X128219763Y-108696591D01*
X128225115Y-108698590D01*
X128248051Y-108713238D01*
X128283973Y-108739422D01*
X128328835Y-108773943D01*
X128378593Y-108813603D01*
X128429200Y-108855204D01*
X128476612Y-108895546D01*
X128516784Y-108931432D01*
X128592447Y-109001482D01*
X128695571Y-108901183D01*
X128725713Y-108872863D01*
X128783305Y-108822558D01*
X128841318Y-108775776D01*
X128890883Y-108739846D01*
X128983071Y-108678809D01*
X128915994Y-108655868D01*
X128874689Y-108642488D01*
X128771892Y-108613514D01*
X128651934Y-108584333D01*
X128520159Y-108556055D01*
X128381911Y-108529793D01*
X128242532Y-108506656D01*
X128107366Y-108487755D01*
X127930818Y-108465683D01*
X127981810Y-108381140D01*
X128000023Y-108351865D01*
X128023545Y-108319360D01*
X128041701Y-108303755D01*
X128057914Y-108301470D01*
X128073912Y-108304213D01*
X128111486Y-108310153D01*
X128162651Y-108317964D01*
X128221136Y-108326678D01*
X128416671Y-108359361D01*
X128738945Y-108431194D01*
X129047527Y-108523245D01*
X129195915Y-108573514D01*
X129331638Y-108528428D01*
X129385268Y-108511183D01*
X129613947Y-108449378D01*
X129860732Y-108400739D01*
X130127487Y-108364883D01*
X130183176Y-108358717D01*
X130231217Y-108354428D01*
X130264442Y-108355765D01*
X130288439Y-108365138D01*
X130308795Y-108384958D01*
X130331097Y-108417634D01*
X130360934Y-108465577D01*
X130409121Y-108542176D01*
X130206577Y-108549651D01*
X130126130Y-108553412D01*
X129854405Y-108578758D01*
X129596833Y-108623218D01*
X129589153Y-108624870D01*
X129517912Y-108640307D01*
X129469910Y-108652439D01*
X129444069Y-108663628D01*
X129439313Y-108676236D01*
X129454566Y-108692627D01*
X129488752Y-108715161D01*
X129540793Y-108746201D01*
X129622369Y-108797917D01*
X129708116Y-108858225D01*
X129789197Y-108920817D01*
X129859710Y-108981130D01*
X129913754Y-109034601D01*
X129934975Y-109059292D01*
X129951575Y-109086281D01*
X129958622Y-109116629D01*
X129960089Y-109161185D01*
X129960089Y-109236482D01*
X129395086Y-109236482D01*
X129350075Y-109236494D01*
X129218129Y-109236723D01*
X129108966Y-109237320D01*
X129020801Y-109238386D01*
X128951849Y-109240020D01*
X128900328Y-109242320D01*
X128864452Y-109245387D01*
X128842438Y-109249319D01*
X128832501Y-109254217D01*
X128832857Y-109260179D01*
X128841722Y-109267305D01*
X128847514Y-109272203D01*
X128866944Y-109293085D01*
X128891629Y-109322816D01*
X128929898Y-109371134D01*
X128844167Y-109409000D01*
X128758435Y-109446867D01*
X128694961Y-109363647D01*
X128668236Y-109330429D01*
X128608176Y-109262990D01*
X128535638Y-109188038D01*
X128455544Y-109110294D01*
X128404015Y-109063067D01*
X128769353Y-109063067D01*
X128780692Y-109072664D01*
X128807355Y-109079156D01*
X128850973Y-109083137D01*
X128913177Y-109085199D01*
X128995597Y-109085937D01*
X129099864Y-109085945D01*
X129227607Y-109085815D01*
X129701347Y-109085815D01*
X129658078Y-109040823D01*
X129649638Y-109032432D01*
X129602364Y-108992452D01*
X129539224Y-108946608D01*
X129465818Y-108898605D01*
X129387748Y-108852148D01*
X129310614Y-108810944D01*
X129287656Y-108799681D01*
X129243083Y-108779009D01*
X129208804Y-108764710D01*
X129190821Y-108759369D01*
X129170344Y-108765319D01*
X129133007Y-108783568D01*
X129084592Y-108811229D01*
X129029806Y-108845361D01*
X128973356Y-108883020D01*
X128919948Y-108921268D01*
X128874290Y-108957161D01*
X128844641Y-108981753D01*
X128810984Y-109009708D01*
X128786130Y-109032183D01*
X128771710Y-109049771D01*
X128769353Y-109063067D01*
X128404015Y-109063067D01*
X128372818Y-109034475D01*
X128292380Y-108965302D01*
G37*
G36*
X112429774Y-105450714D02*
G01*
X112428271Y-105465614D01*
X112424495Y-105467578D01*
X112419901Y-105457244D01*
X112420807Y-105450597D01*
X112428271Y-105448873D01*
X112429774Y-105450714D01*
G37*
G36*
X118923707Y-105730038D02*
G01*
X119002179Y-105765908D01*
X119002690Y-105766142D01*
X119058589Y-105788008D01*
X119113810Y-105800315D01*
X119181097Y-105805912D01*
X119228827Y-105806536D01*
X119290323Y-105800004D01*
X119336093Y-105782021D01*
X119371228Y-105750181D01*
X119400820Y-105702078D01*
X119432209Y-105639300D01*
X119436413Y-105177881D01*
X119440616Y-104716463D01*
X119892401Y-104716463D01*
X119887196Y-105246937D01*
X119886609Y-105305442D01*
X119885115Y-105434605D01*
X119883356Y-105542241D01*
X119881058Y-105630907D01*
X119877948Y-105703161D01*
X119873752Y-105761560D01*
X119868196Y-105808661D01*
X119861007Y-105847021D01*
X119851912Y-105879198D01*
X119840636Y-105907748D01*
X119826905Y-105935230D01*
X119810447Y-105964200D01*
X119759105Y-106033878D01*
X119689532Y-106091933D01*
X119602994Y-106133838D01*
X119497391Y-106160913D01*
X119478735Y-106163830D01*
X119361064Y-106167612D01*
X119242593Y-106146383D01*
X119123565Y-106100208D01*
X119004229Y-106029154D01*
X118923707Y-105972865D01*
X118923707Y-106122691D01*
X118471705Y-106122691D01*
X118471705Y-104716463D01*
X118923707Y-104716463D01*
X118923707Y-105730038D01*
G37*
G36*
X125854404Y-109048148D02*
G01*
X126092960Y-109048148D01*
X126092960Y-109223927D01*
X125854404Y-109223927D01*
X125854404Y-109914485D01*
X125678625Y-109914485D01*
X125678625Y-109223927D01*
X125427513Y-109223927D01*
X125427513Y-109048148D01*
X125678625Y-109048148D01*
X125678625Y-107491253D01*
X125854404Y-107491253D01*
X125854404Y-109048148D01*
G37*
G36*
X112884458Y-105526300D02*
G01*
X112878180Y-105532577D01*
X112871903Y-105526300D01*
X112878180Y-105520022D01*
X112884458Y-105526300D01*
G37*
G36*
X112972348Y-105563966D02*
G01*
X112966070Y-105570244D01*
X112959792Y-105563966D01*
X112966070Y-105557689D01*
X112972348Y-105563966D01*
G37*
G36*
X112880174Y-105545459D02*
G01*
X112884458Y-105557689D01*
X112883947Y-105561130D01*
X112871162Y-105570244D01*
X112866620Y-105569258D01*
X112865625Y-105557689D01*
X112868202Y-105553931D01*
X112878921Y-105545133D01*
X112880174Y-105545459D01*
G37*
G36*
X112691662Y-105545724D02*
G01*
X112702402Y-105557689D01*
X112703407Y-105564339D01*
X112689846Y-105570244D01*
X112680272Y-105568326D01*
X112677291Y-105557689D01*
X112679864Y-105553890D01*
X112689846Y-105545133D01*
X112691662Y-105545724D01*
G37*
G36*
X120611412Y-107528962D02*
G01*
X120685857Y-107530757D01*
X120741237Y-107535985D01*
X120782530Y-107545730D01*
X120814715Y-107561080D01*
X120842769Y-107583117D01*
X120856559Y-107596147D01*
X120871901Y-107612447D01*
X120884261Y-107630090D01*
X120894008Y-107651718D01*
X120901510Y-107679971D01*
X120907138Y-107717489D01*
X120911258Y-107766914D01*
X120914241Y-107830885D01*
X120916454Y-107912043D01*
X120918267Y-108013029D01*
X120920049Y-108136484D01*
X120926327Y-108587103D01*
X121061300Y-108629691D01*
X121196272Y-108672280D01*
X121196272Y-108857780D01*
X121093582Y-108826244D01*
X121078875Y-108821705D01*
X121028628Y-108805890D01*
X120986692Y-108792245D01*
X120960931Y-108783316D01*
X120940078Y-108775892D01*
X120925509Y-108771925D01*
X120925395Y-108771977D01*
X120923706Y-108785380D01*
X120922238Y-108819788D01*
X120921081Y-108871345D01*
X120920322Y-108936195D01*
X120920049Y-109010481D01*
X120920049Y-109249038D01*
X121208828Y-109249038D01*
X121208828Y-109412261D01*
X120920049Y-109412261D01*
X120920049Y-109901930D01*
X120731715Y-109901930D01*
X120731715Y-109412261D01*
X120405269Y-109412261D01*
X120405269Y-109249038D01*
X120731715Y-109249038D01*
X120731715Y-108712577D01*
X120571631Y-108666262D01*
X120560173Y-108662945D01*
X120500371Y-108645565D01*
X120449451Y-108630657D01*
X120412496Y-108619715D01*
X120394587Y-108614233D01*
X120389638Y-108611254D01*
X120383660Y-108596825D01*
X120382771Y-108567190D01*
X120386578Y-108517582D01*
X120387109Y-108512263D01*
X120392202Y-108468039D01*
X120397124Y-108435349D01*
X120400879Y-108420934D01*
X120404375Y-108420969D01*
X120426741Y-108426139D01*
X120465191Y-108436858D01*
X120514506Y-108451523D01*
X120569466Y-108468533D01*
X120624851Y-108486286D01*
X120675443Y-108503183D01*
X120716020Y-108517620D01*
X120716976Y-108517808D01*
X120721431Y-108512438D01*
X120724951Y-108494799D01*
X120727628Y-108462751D01*
X120729552Y-108414155D01*
X120730814Y-108346871D01*
X120731505Y-108258758D01*
X120731715Y-108147676D01*
X120731715Y-107771853D01*
X120701069Y-107743063D01*
X120699235Y-107741353D01*
X120683690Y-107728907D01*
X120666025Y-107721347D01*
X120640505Y-107717814D01*
X120601391Y-107717449D01*
X120542945Y-107719393D01*
X120415466Y-107724514D01*
X120424157Y-107643362D01*
X120428998Y-107603241D01*
X120434635Y-107566147D01*
X120439235Y-107545565D01*
X120440107Y-107543902D01*
X120452377Y-107536823D01*
X120479971Y-107532199D01*
X120526139Y-107529681D01*
X120594129Y-107528919D01*
X120611412Y-107528962D01*
G37*
G36*
X112746347Y-105488633D02*
G01*
X112740069Y-105494911D01*
X112733791Y-105488633D01*
X112740069Y-105482355D01*
X112746347Y-105488633D01*
G37*
G36*
X112436798Y-105487445D02*
G01*
X112436094Y-105507466D01*
X112431309Y-105522225D01*
X112424714Y-105532577D01*
X112421926Y-105527904D01*
X112419901Y-105507466D01*
X112422031Y-105492881D01*
X112431281Y-105482355D01*
X112436798Y-105487445D01*
G37*
G36*
X113010014Y-105626744D02*
G01*
X113003737Y-105633022D01*
X112997459Y-105626744D01*
X113003737Y-105620467D01*
X113010014Y-105626744D01*
G37*
G36*
X112751757Y-105559568D02*
G01*
X112755502Y-105565274D01*
X112751060Y-105567762D01*
X112731437Y-105566265D01*
X112725625Y-105561746D01*
X112739022Y-105558680D01*
X112751757Y-105559568D01*
G37*
G36*
X112608235Y-106063876D02*
G01*
X112640360Y-106064300D01*
X112702084Y-106065448D01*
X112744191Y-106067269D01*
X112770569Y-106070388D01*
X112785108Y-106075430D01*
X112791695Y-106083022D01*
X112794218Y-106093787D01*
X112794971Y-106100336D01*
X112793502Y-106109150D01*
X112785346Y-106115248D01*
X112766817Y-106119264D01*
X112734233Y-106121834D01*
X112683909Y-106123593D01*
X112612161Y-106125176D01*
X112582738Y-106125716D01*
X112519065Y-106126455D01*
X112465886Y-106126486D01*
X112428069Y-106125824D01*
X112410484Y-106124487D01*
X112402235Y-106118717D01*
X112394789Y-106097283D01*
X112397063Y-106084598D01*
X112410484Y-106068061D01*
X112414531Y-106067165D01*
X112440464Y-106065229D01*
X112484682Y-106063966D01*
X112542251Y-106063480D01*
X112608235Y-106063876D01*
G37*
G36*
X174234345Y-98206461D02*
G01*
X174228068Y-98212739D01*
X174221790Y-98206461D01*
X174228068Y-98200183D01*
X174234345Y-98206461D01*
G37*
G36*
X173455898Y-98972353D02*
G01*
X173449620Y-98978631D01*
X173443342Y-98972353D01*
X173449620Y-98966076D01*
X173455898Y-98972353D01*
G37*
G36*
X174133901Y-100278137D02*
G01*
X174127623Y-100284415D01*
X174121345Y-100278137D01*
X174127623Y-100271859D01*
X174133901Y-100278137D01*
G37*
G36*
X173430786Y-99575023D02*
G01*
X173424509Y-99581300D01*
X173418231Y-99575023D01*
X173424509Y-99568745D01*
X173430786Y-99575023D01*
G37*
G36*
X169827326Y-114936812D02*
G01*
X169525992Y-114936812D01*
X169525992Y-116782487D01*
X169827326Y-116782487D01*
X169827326Y-116958265D01*
X169362769Y-116958265D01*
X169362769Y-115910321D01*
X169329444Y-115960319D01*
X169318539Y-115976620D01*
X169300853Y-116002751D01*
X169292097Y-116015229D01*
X169282147Y-116011376D01*
X169257058Y-115994728D01*
X169221417Y-115968450D01*
X169179694Y-115935943D01*
X169136358Y-115900611D01*
X169095879Y-115865856D01*
X169044054Y-115819865D01*
X169076904Y-115764424D01*
X169099288Y-115726512D01*
X169121533Y-115692523D01*
X169139875Y-115676943D01*
X169160050Y-115678329D01*
X169187795Y-115695241D01*
X169228846Y-115726235D01*
X169248227Y-115741247D01*
X169277747Y-115764951D01*
X169301780Y-115783550D01*
X169320882Y-115795226D01*
X169335610Y-115798162D01*
X169346521Y-115790538D01*
X169354171Y-115770538D01*
X169359118Y-115736343D01*
X169361916Y-115686135D01*
X169363124Y-115618095D01*
X169363298Y-115530407D01*
X169362994Y-115421252D01*
X169362769Y-115288811D01*
X169362769Y-114761034D01*
X169827326Y-114761034D01*
X169827326Y-114936812D01*
G37*
G36*
X174272012Y-104716545D02*
G01*
X172865784Y-104716545D01*
X172865784Y-104264543D01*
X174272012Y-104264543D01*
X174272012Y-104716545D01*
G37*
G36*
X170354662Y-105683327D02*
G01*
X170757065Y-105683327D01*
X170778547Y-105683325D01*
X170893815Y-105683140D01*
X170987034Y-105682358D01*
X171060829Y-105680564D01*
X171117823Y-105677344D01*
X171160644Y-105672284D01*
X171191915Y-105664968D01*
X171214261Y-105654983D01*
X171230308Y-105641915D01*
X171242681Y-105625347D01*
X171254005Y-105604868D01*
X171259471Y-105592965D01*
X171265738Y-105571637D01*
X171269427Y-105543109D01*
X171270796Y-105502914D01*
X171270104Y-105446587D01*
X171267610Y-105369662D01*
X171266114Y-105332817D01*
X171262853Y-105267761D01*
X171259321Y-105213241D01*
X171255856Y-105174110D01*
X171252792Y-105155224D01*
X171251180Y-105149062D01*
X171255159Y-105142951D01*
X171271009Y-105141390D01*
X171303035Y-105144214D01*
X171355538Y-105151258D01*
X171378543Y-105154524D01*
X171424124Y-105161028D01*
X171456599Y-105165708D01*
X171470088Y-105167720D01*
X171470380Y-105168420D01*
X171471350Y-105185790D01*
X171471805Y-105223663D01*
X171471747Y-105278289D01*
X171471174Y-105345918D01*
X171470088Y-105422798D01*
X171469801Y-105439764D01*
X171468156Y-105522956D01*
X171466191Y-105585808D01*
X171463471Y-105632379D01*
X171459558Y-105666727D01*
X171454016Y-105692912D01*
X171446408Y-105714993D01*
X171436298Y-105737030D01*
X171413112Y-105776000D01*
X171357742Y-105832503D01*
X171283777Y-105872480D01*
X171283162Y-105872711D01*
X171262869Y-105877617D01*
X171229561Y-105881749D01*
X171181223Y-105885196D01*
X171115838Y-105888046D01*
X171031392Y-105890390D01*
X170925866Y-105892314D01*
X170797247Y-105893909D01*
X170354662Y-105898495D01*
X170354662Y-106976555D01*
X170178883Y-106976555D01*
X170178883Y-105896773D01*
X170005834Y-105896773D01*
X169706410Y-106304830D01*
X169406987Y-106712887D01*
X169212101Y-106712887D01*
X169212101Y-104804434D01*
X169387880Y-104804434D01*
X169387880Y-105595438D01*
X169387887Y-105626755D01*
X169388095Y-105763605D01*
X169388572Y-105892287D01*
X169389291Y-106010681D01*
X169390228Y-106116670D01*
X169391358Y-106208137D01*
X169392655Y-106282964D01*
X169394093Y-106339033D01*
X169395649Y-106374227D01*
X169397297Y-106386427D01*
X169404117Y-106379610D01*
X169424385Y-106354672D01*
X169456173Y-106313639D01*
X169497728Y-106258828D01*
X169547299Y-106192552D01*
X169603132Y-106117127D01*
X169663473Y-106034869D01*
X169920233Y-105683327D01*
X170178883Y-105683327D01*
X170178883Y-104540767D01*
X170354662Y-104540767D01*
X170354662Y-105683327D01*
G37*
G36*
X171771973Y-99723915D02*
G01*
X171774979Y-99728066D01*
X171777049Y-99746654D01*
X171760955Y-99772979D01*
X171748451Y-99791390D01*
X171735154Y-99833651D01*
X171745115Y-99870746D01*
X171777923Y-99899621D01*
X171780511Y-99901067D01*
X171814884Y-99928600D01*
X171840321Y-99962115D01*
X171849557Y-99985606D01*
X171854723Y-100039388D01*
X171841735Y-100091677D01*
X171813019Y-100135427D01*
X171770997Y-100163592D01*
X171733549Y-100177692D01*
X171742180Y-100259303D01*
X171747026Y-100299779D01*
X171752012Y-100331869D01*
X171755774Y-100346069D01*
X171764644Y-100344342D01*
X171783774Y-100330375D01*
X171801587Y-100316736D01*
X171825623Y-100311331D01*
X171841113Y-100329269D01*
X171842938Y-100352130D01*
X171825666Y-100386514D01*
X171787228Y-100421653D01*
X171778180Y-100427860D01*
X171742029Y-100445045D01*
X171714392Y-100441199D01*
X171690550Y-100416050D01*
X171684340Y-100403673D01*
X171678851Y-100383801D01*
X171674490Y-100354318D01*
X171671010Y-100312124D01*
X171668159Y-100254119D01*
X171665690Y-100177203D01*
X171663351Y-100078277D01*
X171656849Y-99772090D01*
X171689465Y-99739473D01*
X171718778Y-99715580D01*
X171747800Y-99708270D01*
X171771973Y-99723915D01*
G37*
G36*
X171764506Y-98097309D02*
G01*
X171806090Y-98129872D01*
X171828077Y-98152973D01*
X171845045Y-98177518D01*
X171845024Y-98195694D01*
X171829578Y-98213044D01*
X171819678Y-98219539D01*
X171802970Y-98218445D01*
X171779356Y-98199838D01*
X171748335Y-98170695D01*
X171748196Y-98213689D01*
X171745883Y-98257403D01*
X171740482Y-98302496D01*
X171739124Y-98311057D01*
X171738125Y-98337751D01*
X171749331Y-98354053D01*
X171778287Y-98369844D01*
X171788303Y-98374637D01*
X171813623Y-98387215D01*
X171823857Y-98393087D01*
X171824522Y-98395239D01*
X171831013Y-98413882D01*
X171842140Y-98445018D01*
X171843136Y-98447783D01*
X171855337Y-98483344D01*
X171859340Y-98506526D01*
X171855236Y-98528012D01*
X171843117Y-98558482D01*
X171842985Y-98558797D01*
X171817265Y-98597316D01*
X171780339Y-98628375D01*
X171759818Y-98641875D01*
X171740751Y-98664070D01*
X171735779Y-98693422D01*
X171741577Y-98724388D01*
X171762733Y-98760870D01*
X171773338Y-98772967D01*
X171781995Y-98791705D01*
X171773751Y-98808762D01*
X171768887Y-98814217D01*
X171747988Y-98826410D01*
X171724058Y-98818960D01*
X171692332Y-98790817D01*
X171656743Y-98753669D01*
X171663490Y-98454954D01*
X171665830Y-98367294D01*
X171669671Y-98270144D01*
X171674321Y-98197181D01*
X171679815Y-98147878D01*
X171686190Y-98121711D01*
X171700110Y-98100788D01*
X171728666Y-98087580D01*
X171764506Y-98097309D01*
G37*
G36*
X170023173Y-114964111D02*
G01*
X170080982Y-114890885D01*
X170175828Y-114763347D01*
X170233856Y-114822261D01*
X170262251Y-114852418D01*
X170283686Y-114877900D01*
X170291884Y-114891494D01*
X170289885Y-114896846D01*
X170275237Y-114919782D01*
X170249053Y-114955704D01*
X170214532Y-115000566D01*
X170174872Y-115050324D01*
X170133271Y-115100931D01*
X170092929Y-115148343D01*
X170057043Y-115188515D01*
X169986993Y-115264178D01*
X170087292Y-115367302D01*
X170115612Y-115397444D01*
X170165917Y-115455036D01*
X170212699Y-115513049D01*
X170248629Y-115562614D01*
X170309666Y-115654802D01*
X170332607Y-115587725D01*
X170345987Y-115546420D01*
X170374961Y-115443623D01*
X170404142Y-115323665D01*
X170432420Y-115191890D01*
X170458682Y-115053642D01*
X170481819Y-114914263D01*
X170500720Y-114779097D01*
X170522792Y-114602549D01*
X170607335Y-114653541D01*
X170636610Y-114671754D01*
X170669115Y-114695276D01*
X170684720Y-114713432D01*
X170687005Y-114729645D01*
X170684262Y-114745643D01*
X170678322Y-114783217D01*
X170670511Y-114834382D01*
X170661797Y-114892867D01*
X170629114Y-115088402D01*
X170557281Y-115410676D01*
X170465230Y-115719258D01*
X170414961Y-115867646D01*
X170460047Y-116003369D01*
X170477292Y-116056999D01*
X170539097Y-116285678D01*
X170587736Y-116532463D01*
X170623592Y-116799218D01*
X170629758Y-116854907D01*
X170634047Y-116902948D01*
X170632710Y-116936173D01*
X170623337Y-116960170D01*
X170603517Y-116980526D01*
X170570841Y-117002828D01*
X170522898Y-117032665D01*
X170446299Y-117080852D01*
X170438824Y-116878308D01*
X170435063Y-116797861D01*
X170409717Y-116526136D01*
X170365257Y-116268564D01*
X170363605Y-116260884D01*
X170348168Y-116189643D01*
X170336036Y-116141641D01*
X170324847Y-116115800D01*
X170312239Y-116111044D01*
X170295848Y-116126297D01*
X170273314Y-116160483D01*
X170242274Y-116212524D01*
X170190558Y-116294100D01*
X170130250Y-116379847D01*
X170067658Y-116460928D01*
X170007345Y-116531441D01*
X169953874Y-116585485D01*
X169929183Y-116606706D01*
X169902194Y-116623306D01*
X169871846Y-116630353D01*
X169827290Y-116631820D01*
X169751993Y-116631820D01*
X169751993Y-116066817D01*
X169751981Y-116021806D01*
X169751752Y-115889860D01*
X169751155Y-115780697D01*
X169751045Y-115771595D01*
X169902530Y-115771595D01*
X169902660Y-115899338D01*
X169902660Y-116373078D01*
X169947652Y-116329809D01*
X169956043Y-116321369D01*
X169996023Y-116274095D01*
X170041867Y-116210955D01*
X170089870Y-116137549D01*
X170136327Y-116059479D01*
X170177531Y-115982345D01*
X170188794Y-115959387D01*
X170209466Y-115914814D01*
X170223765Y-115880535D01*
X170229106Y-115862552D01*
X170223156Y-115842075D01*
X170204907Y-115804738D01*
X170177246Y-115756323D01*
X170143114Y-115701537D01*
X170105455Y-115645087D01*
X170067207Y-115591679D01*
X170031314Y-115546021D01*
X170006722Y-115516372D01*
X169978767Y-115482715D01*
X169956292Y-115457861D01*
X169938704Y-115443441D01*
X169925408Y-115441084D01*
X169915811Y-115452423D01*
X169909319Y-115479086D01*
X169905338Y-115522704D01*
X169903276Y-115584908D01*
X169902538Y-115667328D01*
X169902530Y-115771595D01*
X169751045Y-115771595D01*
X169750089Y-115692532D01*
X169748455Y-115623580D01*
X169746155Y-115572059D01*
X169743088Y-115536183D01*
X169739156Y-115514169D01*
X169734258Y-115504232D01*
X169728296Y-115504588D01*
X169721170Y-115513453D01*
X169716272Y-115519245D01*
X169695390Y-115538675D01*
X169665659Y-115563360D01*
X169617341Y-115601629D01*
X169579475Y-115515898D01*
X169541608Y-115430166D01*
X169624828Y-115366692D01*
X169658046Y-115339967D01*
X169725485Y-115279907D01*
X169800437Y-115207369D01*
X169878181Y-115127275D01*
X169925408Y-115075746D01*
X169954000Y-115044549D01*
X170023173Y-114964111D01*
G37*
G36*
X173495594Y-99093762D02*
G01*
X173506120Y-99103012D01*
X173501030Y-99108529D01*
X173481009Y-99107825D01*
X173466250Y-99103040D01*
X173455898Y-99096445D01*
X173460571Y-99093657D01*
X173481009Y-99091632D01*
X173495594Y-99093762D01*
G37*
G36*
X171310898Y-98089972D02*
G01*
X171317573Y-98111553D01*
X171325185Y-98149836D01*
X171332530Y-98199244D01*
X171333753Y-98208096D01*
X171344351Y-98266339D01*
X171360545Y-98338482D01*
X171380359Y-98416199D01*
X171401816Y-98491162D01*
X171423748Y-98566275D01*
X171444515Y-98649926D01*
X171455716Y-98716642D01*
X171457873Y-98769801D01*
X171451508Y-98812783D01*
X171441687Y-98833536D01*
X171427073Y-98833837D01*
X171407378Y-98811074D01*
X171381783Y-98764679D01*
X171359444Y-98713790D01*
X171326723Y-98615249D01*
X171302021Y-98508674D01*
X171288071Y-98404575D01*
X171287895Y-98402235D01*
X171285684Y-98350151D01*
X171285745Y-98291676D01*
X171287741Y-98232059D01*
X171291338Y-98176551D01*
X171296200Y-98130402D01*
X171301990Y-98098863D01*
X171308373Y-98087183D01*
X171310898Y-98089972D01*
G37*
G36*
X173468453Y-99549911D02*
G01*
X173462175Y-99556189D01*
X173455898Y-99549911D01*
X173462175Y-99543634D01*
X173468453Y-99549911D01*
G37*
G36*
X173032146Y-102180750D02*
G01*
X173147165Y-102180917D01*
X173285132Y-102181444D01*
X173401543Y-102182360D01*
X173498453Y-102183717D01*
X173577921Y-102185566D01*
X173642002Y-102187959D01*
X173692753Y-102190945D01*
X173732232Y-102194577D01*
X173762496Y-102198906D01*
X173763563Y-102199097D01*
X173886402Y-102232724D01*
X173994568Y-102286451D01*
X174087500Y-102359611D01*
X174164634Y-102451534D01*
X174225410Y-102561553D01*
X174269265Y-102688999D01*
X174295639Y-102833204D01*
X174297061Y-102846032D01*
X174306329Y-103030986D01*
X174293294Y-103204494D01*
X174257961Y-103366500D01*
X174239215Y-103424278D01*
X174204327Y-103506122D01*
X174160829Y-103576985D01*
X174103843Y-103645703D01*
X174065511Y-103684087D01*
X173993535Y-103739631D01*
X173911683Y-103781146D01*
X173812660Y-103812816D01*
X173798713Y-103816273D01*
X173775764Y-103821256D01*
X173750904Y-103825403D01*
X173721814Y-103828789D01*
X173686173Y-103831490D01*
X173641662Y-103833583D01*
X173585960Y-103835145D01*
X173516748Y-103836251D01*
X173431704Y-103836979D01*
X173328509Y-103837404D01*
X173204844Y-103837603D01*
X173058387Y-103837652D01*
X172401226Y-103837652D01*
X172401226Y-103361582D01*
X173063535Y-103357922D01*
X173725843Y-103354261D01*
X173797123Y-103320847D01*
X173850330Y-103289440D01*
X173901862Y-103237615D01*
X173936024Y-103170871D01*
X173953656Y-103087433D01*
X173955598Y-102985522D01*
X173951920Y-102940411D01*
X173933452Y-102853184D01*
X173899547Y-102784596D01*
X173848544Y-102732693D01*
X173778786Y-102695520D01*
X173688611Y-102671124D01*
X173658079Y-102667764D01*
X173602651Y-102664705D01*
X173524451Y-102662149D01*
X173424676Y-102660118D01*
X173304523Y-102658638D01*
X173165188Y-102657732D01*
X173007868Y-102657425D01*
X172401226Y-102657425D01*
X172401226Y-102180312D01*
X173032146Y-102180750D01*
G37*
G36*
X170944776Y-102330979D02*
G01*
X170768997Y-102330979D01*
X170768997Y-103030343D01*
X170966748Y-103037923D01*
X171002246Y-103039491D01*
X171072266Y-103043774D01*
X171134196Y-103049069D01*
X171182363Y-103054849D01*
X171211096Y-103060589D01*
X171263293Y-103083921D01*
X171323646Y-103133634D01*
X171368396Y-103202227D01*
X171396614Y-103288561D01*
X171397910Y-103297778D01*
X171400365Y-103333996D01*
X171402399Y-103390131D01*
X171403948Y-103462666D01*
X171404946Y-103548082D01*
X171405329Y-103642861D01*
X171405031Y-103743485D01*
X171404814Y-103776451D01*
X171403863Y-103889821D01*
X171402369Y-103981732D01*
X171399838Y-104055091D01*
X171395777Y-104112802D01*
X171389691Y-104157772D01*
X171381086Y-104192906D01*
X171369470Y-104221110D01*
X171354347Y-104245290D01*
X171335225Y-104268350D01*
X171311610Y-104293198D01*
X171281196Y-104319252D01*
X171235375Y-104345576D01*
X171175341Y-104368405D01*
X171097461Y-104389077D01*
X170998107Y-104408934D01*
X170978321Y-104412485D01*
X170927188Y-104421801D01*
X170885780Y-104429533D01*
X170861598Y-104434288D01*
X170857774Y-104434973D01*
X170844222Y-104433105D01*
X170832234Y-104420370D01*
X170818850Y-104392383D01*
X170801106Y-104344759D01*
X170796333Y-104331162D01*
X170782255Y-104288870D01*
X170773318Y-104258463D01*
X170771283Y-104245782D01*
X170783294Y-104242880D01*
X170815434Y-104237244D01*
X170862580Y-104229785D01*
X170919664Y-104221340D01*
X171001578Y-104207543D01*
X171077653Y-104188474D01*
X171133998Y-104165238D01*
X171173490Y-104136599D01*
X171199007Y-104101320D01*
X171199081Y-104101173D01*
X171205562Y-104085724D01*
X171210638Y-104066418D01*
X171214473Y-104040217D01*
X171217231Y-104004086D01*
X171219078Y-103954989D01*
X171220178Y-103889889D01*
X171220695Y-103805752D01*
X171220794Y-103699541D01*
X171220729Y-103633223D01*
X171220258Y-103534663D01*
X171218927Y-103456822D01*
X171216259Y-103396899D01*
X171211777Y-103352092D01*
X171205005Y-103319602D01*
X171195466Y-103296626D01*
X171182686Y-103280366D01*
X171166186Y-103268019D01*
X171145491Y-103256785D01*
X171124886Y-103248109D01*
X171097774Y-103241698D01*
X171061123Y-103238182D01*
X171009756Y-103237090D01*
X170938498Y-103237952D01*
X170775275Y-103241261D01*
X170771979Y-103696402D01*
X170768684Y-104151543D01*
X169400435Y-104151543D01*
X169400435Y-103950653D01*
X169575823Y-103950653D01*
X170003105Y-103950653D01*
X170178883Y-103950653D01*
X170593218Y-103950653D01*
X170593218Y-103234983D01*
X170178883Y-103234983D01*
X170178883Y-103950653D01*
X170003105Y-103950653D01*
X170003105Y-103234376D01*
X169792798Y-103237818D01*
X169582492Y-103241261D01*
X169579157Y-103595957D01*
X169575823Y-103950653D01*
X169400435Y-103950653D01*
X169400435Y-103234983D01*
X169086545Y-103234983D01*
X169086545Y-103034093D01*
X169400435Y-103034093D01*
X169576214Y-103034093D01*
X170003105Y-103034093D01*
X170178883Y-103034093D01*
X170593218Y-103034093D01*
X170593218Y-102330979D01*
X170178883Y-102330979D01*
X170178883Y-103034093D01*
X170003105Y-103034093D01*
X170003105Y-102330979D01*
X169576214Y-102330979D01*
X169576214Y-103034093D01*
X169400435Y-103034093D01*
X169400435Y-102130089D01*
X170944776Y-102130089D01*
X170944776Y-102330979D01*
G37*
G36*
X173749270Y-111413435D02*
G01*
X173875308Y-111449192D01*
X173987268Y-111505273D01*
X174084381Y-111581031D01*
X174165882Y-111675816D01*
X174231000Y-111788981D01*
X174278970Y-111919877D01*
X174309022Y-112067855D01*
X174316893Y-112173952D01*
X174313329Y-112301024D01*
X174297764Y-112429384D01*
X174271236Y-112550775D01*
X174234788Y-112656937D01*
X174210127Y-112714469D01*
X174021346Y-112714469D01*
X173969323Y-112714435D01*
X173911958Y-112713994D01*
X173873407Y-112712584D01*
X173849931Y-112709642D01*
X173837791Y-112704602D01*
X173833249Y-112696900D01*
X173832566Y-112685972D01*
X173832637Y-112684446D01*
X173841256Y-112659328D01*
X173861448Y-112622863D01*
X173889200Y-112582388D01*
X173897396Y-112571186D01*
X173946157Y-112485930D01*
X173978832Y-112393144D01*
X173995355Y-112297239D01*
X173995656Y-112202627D01*
X173979670Y-112113718D01*
X173947329Y-112034924D01*
X173898564Y-111970657D01*
X173893442Y-111965720D01*
X173844970Y-111925322D01*
X173794553Y-111897065D01*
X173736520Y-111879131D01*
X173665197Y-111869704D01*
X173574912Y-111866965D01*
X173526447Y-111867109D01*
X173475383Y-111868371D01*
X173437918Y-111871943D01*
X173407334Y-111879006D01*
X173376915Y-111890743D01*
X173339941Y-111908338D01*
X173283687Y-111940540D01*
X173219463Y-111995865D01*
X173175437Y-112063180D01*
X173150116Y-112145016D01*
X173142007Y-112243905D01*
X173146332Y-112305697D01*
X173165963Y-112396303D01*
X173198836Y-112483742D01*
X173242079Y-112560842D01*
X173292818Y-112620432D01*
X173309109Y-112643840D01*
X173317786Y-112678748D01*
X173317786Y-112714469D01*
X172930366Y-112714469D01*
X172903190Y-112642274D01*
X172889655Y-112605404D01*
X172858630Y-112508430D01*
X172838669Y-112419276D01*
X172827904Y-112328035D01*
X172824466Y-112224800D01*
X172824967Y-112170755D01*
X172832075Y-112058489D01*
X172848673Y-111960075D01*
X172876213Y-111868412D01*
X172916146Y-111776402D01*
X172966036Y-111689733D01*
X173045455Y-111592530D01*
X173140309Y-111515051D01*
X173250718Y-111457221D01*
X173376801Y-111418967D01*
X173518676Y-111400214D01*
X173609921Y-111398653D01*
X173749270Y-111413435D01*
G37*
G36*
X173336988Y-99670096D02*
G01*
X173338712Y-99677560D01*
X173336872Y-99679063D01*
X173321971Y-99677560D01*
X173320007Y-99673784D01*
X173330342Y-99669190D01*
X173336988Y-99670096D01*
G37*
G36*
X173430786Y-99505967D02*
G01*
X173429880Y-99512614D01*
X173422416Y-99514337D01*
X173420913Y-99512497D01*
X173422416Y-99497596D01*
X173426193Y-99495632D01*
X173430786Y-99505967D01*
G37*
G36*
X173355453Y-98821686D02*
G01*
X173349175Y-98827964D01*
X173342897Y-98821686D01*
X173349175Y-98815408D01*
X173355453Y-98821686D01*
G37*
G36*
X173506120Y-99449467D02*
G01*
X173499842Y-99455744D01*
X173493564Y-99449467D01*
X173499842Y-99443189D01*
X173506120Y-99449467D01*
G37*
G36*
X169247428Y-111157915D02*
G01*
X169261304Y-111170505D01*
X169286754Y-111198549D01*
X169320543Y-111238365D01*
X169359437Y-111286268D01*
X169402247Y-111339438D01*
X169447496Y-111394507D01*
X169488034Y-111442768D01*
X169518475Y-111477741D01*
X169546851Y-111510324D01*
X169567545Y-111536253D01*
X169575651Y-111549433D01*
X169575041Y-111551578D01*
X169562437Y-111567849D01*
X169537941Y-111593298D01*
X169507358Y-111622513D01*
X169476491Y-111650081D01*
X169451143Y-111670592D01*
X169437117Y-111678631D01*
X169426670Y-111670670D01*
X169403659Y-111645996D01*
X169371450Y-111608264D01*
X169333034Y-111561203D01*
X169291401Y-111508544D01*
X169249542Y-111454018D01*
X169210447Y-111401354D01*
X169177105Y-111354283D01*
X169118357Y-111268491D01*
X169177054Y-111213032D01*
X169206392Y-111186540D01*
X169232397Y-111165598D01*
X169246381Y-111157573D01*
X169247428Y-111157915D01*
G37*
G36*
X173429795Y-99460976D02*
G01*
X173428907Y-99473711D01*
X173423201Y-99477455D01*
X173420713Y-99473013D01*
X173422210Y-99453390D01*
X173426729Y-99447579D01*
X173429795Y-99460976D01*
G37*
G36*
X173430786Y-99637801D02*
G01*
X173424509Y-99644079D01*
X173418231Y-99637801D01*
X173424509Y-99631523D01*
X173430786Y-99637801D01*
G37*
G36*
X173401116Y-108309965D02*
G01*
X173502679Y-108316685D01*
X173594519Y-108328298D01*
X173669138Y-108344561D01*
X173680510Y-108347952D01*
X173818656Y-108402572D01*
X173942357Y-108476917D01*
X174050200Y-108569313D01*
X174140771Y-108678084D01*
X174212656Y-108801555D01*
X174264442Y-108938051D01*
X174294714Y-109085898D01*
X174303863Y-109172887D01*
X174307393Y-109251991D01*
X174304698Y-109329944D01*
X174295818Y-109418621D01*
X174284170Y-109494399D01*
X174244990Y-109644141D01*
X174186557Y-109778092D01*
X174109316Y-109895740D01*
X174013714Y-109996575D01*
X173900195Y-110080084D01*
X173769205Y-110145757D01*
X173621190Y-110193082D01*
X173602521Y-110197324D01*
X173499405Y-110213057D01*
X173383492Y-110220423D01*
X173263814Y-110219433D01*
X173149402Y-110210097D01*
X173049286Y-110192426D01*
X173025698Y-110186420D01*
X172882266Y-110136502D01*
X172754487Y-110067849D01*
X172643383Y-109981386D01*
X172549980Y-109878038D01*
X172475300Y-109758729D01*
X172420367Y-109624384D01*
X172398855Y-109545207D01*
X172375192Y-109400955D01*
X172369555Y-109274781D01*
X172716670Y-109274781D01*
X172717865Y-109326761D01*
X172725392Y-109370644D01*
X172740706Y-109417602D01*
X172741317Y-109419213D01*
X172787180Y-109506506D01*
X172853290Y-109580327D01*
X172940296Y-109641248D01*
X173048844Y-109689841D01*
X173060013Y-109693504D01*
X173121343Y-109707240D01*
X173198769Y-109717373D01*
X173285134Y-109723535D01*
X173373281Y-109725355D01*
X173456054Y-109722465D01*
X173526297Y-109714493D01*
X173537052Y-109712544D01*
X173644641Y-109682270D01*
X173741094Y-109635588D01*
X173823164Y-109574855D01*
X173887605Y-109502425D01*
X173931172Y-109420654D01*
X173948140Y-109361436D01*
X173957645Y-109266502D01*
X173948470Y-109170944D01*
X173921469Y-109081389D01*
X173877497Y-109004463D01*
X173845615Y-108967625D01*
X173766112Y-108903360D01*
X173668518Y-108853872D01*
X173554778Y-108819834D01*
X173426838Y-108801914D01*
X173286643Y-108800785D01*
X173256533Y-108802666D01*
X173119741Y-108821044D01*
X173002633Y-108854464D01*
X172905369Y-108902802D01*
X172828111Y-108965934D01*
X172771016Y-109043734D01*
X172734247Y-109136078D01*
X172717962Y-109242843D01*
X172716670Y-109274781D01*
X172369555Y-109274781D01*
X172368557Y-109252452D01*
X172378505Y-109104606D01*
X172404587Y-108962327D01*
X172446355Y-108830523D01*
X172503363Y-108714103D01*
X172511645Y-108700682D01*
X172593696Y-108593936D01*
X172694872Y-108501555D01*
X172812893Y-108425049D01*
X172945477Y-108365929D01*
X173090343Y-108325703D01*
X173113092Y-108321612D01*
X173198823Y-108312184D01*
X173286643Y-108308795D01*
X173297331Y-108308383D01*
X173401116Y-108309965D01*
G37*
G36*
X170470893Y-107058309D02*
G01*
X170476212Y-107058840D01*
X170520436Y-107063933D01*
X170553126Y-107068855D01*
X170567541Y-107072610D01*
X170567506Y-107076106D01*
X170562336Y-107098472D01*
X170551617Y-107136922D01*
X170536952Y-107186237D01*
X170519942Y-107241197D01*
X170502189Y-107296582D01*
X170485292Y-107347174D01*
X170470855Y-107387751D01*
X170470667Y-107388707D01*
X170476037Y-107393162D01*
X170493676Y-107396682D01*
X170525724Y-107399359D01*
X170574320Y-107401283D01*
X170641604Y-107402545D01*
X170729717Y-107403236D01*
X170840799Y-107403446D01*
X171216622Y-107403446D01*
X171245412Y-107372800D01*
X171247122Y-107370966D01*
X171259568Y-107355421D01*
X171267128Y-107337756D01*
X171270661Y-107312236D01*
X171271026Y-107273122D01*
X171269082Y-107214676D01*
X171263961Y-107087197D01*
X171345113Y-107095888D01*
X171385234Y-107100729D01*
X171422328Y-107106366D01*
X171442910Y-107110966D01*
X171444573Y-107111838D01*
X171451652Y-107124108D01*
X171456276Y-107151702D01*
X171458794Y-107197870D01*
X171459556Y-107265860D01*
X171459513Y-107283143D01*
X171457718Y-107357588D01*
X171452490Y-107412968D01*
X171442745Y-107454261D01*
X171427395Y-107486446D01*
X171405358Y-107514500D01*
X171392328Y-107528290D01*
X171376028Y-107543632D01*
X171358385Y-107555992D01*
X171336757Y-107565739D01*
X171308504Y-107573241D01*
X171270986Y-107578869D01*
X171221561Y-107582989D01*
X171157590Y-107585972D01*
X171076432Y-107588185D01*
X170975446Y-107589998D01*
X170851991Y-107591780D01*
X170401372Y-107598058D01*
X170358784Y-107733031D01*
X170316195Y-107868003D01*
X170130695Y-107868003D01*
X170162231Y-107765313D01*
X170166770Y-107750606D01*
X170182585Y-107700359D01*
X170196230Y-107658423D01*
X170205159Y-107632662D01*
X170212583Y-107611809D01*
X170216550Y-107597240D01*
X170216498Y-107597126D01*
X170203095Y-107595437D01*
X170168687Y-107593969D01*
X170117130Y-107592812D01*
X170052280Y-107592053D01*
X169977994Y-107591780D01*
X169739437Y-107591780D01*
X169739437Y-107880559D01*
X169576214Y-107880559D01*
X169576214Y-107591780D01*
X169086545Y-107591780D01*
X169086545Y-107403446D01*
X169576214Y-107403446D01*
X169576214Y-107077000D01*
X169739437Y-107077000D01*
X169739437Y-107403446D01*
X170275898Y-107403446D01*
X170322213Y-107243362D01*
X170325530Y-107231904D01*
X170342910Y-107172102D01*
X170357818Y-107121182D01*
X170368760Y-107084227D01*
X170374242Y-107066318D01*
X170377221Y-107061369D01*
X170391650Y-107055391D01*
X170421285Y-107054502D01*
X170470893Y-107058309D01*
G37*
G36*
X174102881Y-98251312D02*
G01*
X174104604Y-98258776D01*
X174102764Y-98260279D01*
X174087863Y-98258776D01*
X174085899Y-98255000D01*
X174096234Y-98250406D01*
X174102881Y-98251312D01*
G37*
G36*
X170655997Y-113066026D02*
G01*
X170455107Y-113066026D01*
X170455107Y-113518028D01*
X170618330Y-113518028D01*
X170618330Y-113692608D01*
X170539857Y-113696346D01*
X170461385Y-113700084D01*
X170457962Y-113929224D01*
X170454540Y-114158364D01*
X170605774Y-114158364D01*
X170605774Y-114334143D01*
X169676659Y-114334143D01*
X169676659Y-114158364D01*
X169827326Y-114158364D01*
X170003105Y-114158364D01*
X170140650Y-114158364D01*
X170316995Y-114158364D01*
X170316995Y-113692659D01*
X170232245Y-113696372D01*
X170147494Y-113700084D01*
X170140650Y-114158364D01*
X170003105Y-114158364D01*
X170003105Y-113693807D01*
X169827326Y-113693807D01*
X169827326Y-114158364D01*
X169676659Y-114158364D01*
X169676659Y-113693807D01*
X169513436Y-113693807D01*
X169513436Y-114484810D01*
X169362769Y-114484810D01*
X169362769Y-113693807D01*
X169073990Y-113693807D01*
X169073990Y-113518028D01*
X169362769Y-113518028D01*
X169362769Y-112764691D01*
X169513436Y-112764691D01*
X169513436Y-113518028D01*
X169676659Y-113518028D01*
X169827326Y-113518028D01*
X170003105Y-113518028D01*
X170141216Y-113518028D01*
X170316995Y-113518028D01*
X170316995Y-113066026D01*
X170141216Y-113066026D01*
X170141216Y-113518028D01*
X170003105Y-113518028D01*
X170003105Y-113066026D01*
X169827326Y-113066026D01*
X169827326Y-113518028D01*
X169676659Y-113518028D01*
X169676659Y-112890248D01*
X170655997Y-112890248D01*
X170655997Y-113066026D01*
G37*
G36*
X172609759Y-98595991D02*
G01*
X172637623Y-98602587D01*
X172660299Y-98619640D01*
X172678659Y-98649592D01*
X172693576Y-98694886D01*
X172705923Y-98757964D01*
X172716573Y-98841269D01*
X172726399Y-98947242D01*
X172729007Y-98982168D01*
X172734796Y-99101696D01*
X172737055Y-99231453D01*
X172735953Y-99365571D01*
X172731655Y-99498180D01*
X172724330Y-99623412D01*
X172714145Y-99735398D01*
X172701268Y-99828269D01*
X172687113Y-99883719D01*
X172661997Y-99927790D01*
X172626068Y-99951130D01*
X172577674Y-99955441D01*
X172552816Y-99951955D01*
X172536789Y-99941878D01*
X172533060Y-99920302D01*
X172533066Y-99919139D01*
X172540013Y-99894427D01*
X172564449Y-99884571D01*
X172587071Y-99879338D01*
X172609942Y-99868659D01*
X172617171Y-99859524D01*
X172630503Y-99823958D01*
X172642175Y-99767942D01*
X172652059Y-99694560D01*
X172660030Y-99606894D01*
X172665961Y-99508026D01*
X172669725Y-99401039D01*
X172671197Y-99289014D01*
X172670250Y-99175035D01*
X172666757Y-99062183D01*
X172660593Y-98953541D01*
X172651629Y-98852191D01*
X172643511Y-98786850D01*
X172632873Y-98730379D01*
X172619854Y-98692591D01*
X172603197Y-98670014D01*
X172581642Y-98659173D01*
X172581336Y-98659096D01*
X172557953Y-98646856D01*
X172554217Y-98623491D01*
X172556941Y-98612080D01*
X172570378Y-98599024D01*
X172600761Y-98595685D01*
X172609759Y-98595991D01*
G37*
G36*
X172740228Y-107227667D02*
G01*
X173933011Y-107227667D01*
X173933011Y-106926333D01*
X174272012Y-106926333D01*
X174272012Y-108006115D01*
X173933011Y-108006115D01*
X173933011Y-107704780D01*
X172740228Y-107704780D01*
X172740228Y-108006115D01*
X172401226Y-108006115D01*
X172401226Y-106926333D01*
X172740228Y-106926333D01*
X172740228Y-107227667D01*
G37*
G36*
X171450901Y-99728829D02*
G01*
X171452977Y-99737794D01*
X171457897Y-99799928D01*
X171451185Y-99871046D01*
X171433721Y-99940309D01*
X171416586Y-99992775D01*
X171393246Y-100073130D01*
X171370867Y-100158987D01*
X171351234Y-100243027D01*
X171336131Y-100317934D01*
X171327343Y-100376390D01*
X171326513Y-100384052D01*
X171320183Y-100427504D01*
X171313144Y-100448272D01*
X171304725Y-100448497D01*
X171299046Y-100430417D01*
X171294636Y-100389590D01*
X171291761Y-100328565D01*
X171290595Y-100249799D01*
X171290586Y-100245840D01*
X171292922Y-100134662D01*
X171301229Y-100040793D01*
X171316824Y-99957090D01*
X171341027Y-99876410D01*
X171375155Y-99791607D01*
X171376080Y-99789529D01*
X171401564Y-99739569D01*
X171422943Y-99712456D01*
X171439596Y-99708704D01*
X171450901Y-99728829D01*
G37*
G36*
X169263698Y-114025356D02*
G01*
X169265309Y-114028546D01*
X169292244Y-114082750D01*
X169314500Y-114129144D01*
X169329807Y-114162888D01*
X169335893Y-114179144D01*
X169333480Y-114186025D01*
X169315668Y-114203363D01*
X169287008Y-114222927D01*
X169255149Y-114240285D01*
X169227743Y-114251004D01*
X169212441Y-114250654D01*
X169204223Y-114237118D01*
X169188303Y-114205302D01*
X169167836Y-114161548D01*
X169145372Y-114111628D01*
X169123460Y-114061313D01*
X169104652Y-114016375D01*
X169091497Y-113982587D01*
X169086545Y-113965719D01*
X169089768Y-113958705D01*
X169109036Y-113939996D01*
X169139907Y-113918491D01*
X169193268Y-113886069D01*
X169263698Y-114025356D01*
G37*
G36*
X173430786Y-99060243D02*
G01*
X173424509Y-99066520D01*
X173418231Y-99060243D01*
X173424509Y-99053965D01*
X173430786Y-99060243D01*
G37*
G36*
X172303868Y-99155103D02*
G01*
X172336425Y-99200581D01*
X172341792Y-99211787D01*
X172352997Y-99243433D01*
X172354486Y-99263889D01*
X172351530Y-99269230D01*
X172332099Y-99279292D01*
X172308315Y-99275167D01*
X172292201Y-99257994D01*
X172285064Y-99242672D01*
X172266391Y-99214991D01*
X172261925Y-99210008D01*
X172248495Y-99200988D01*
X172229473Y-99202197D01*
X172196105Y-99213441D01*
X172185648Y-99216803D01*
X172137784Y-99225999D01*
X172076886Y-99231831D01*
X172012113Y-99233919D01*
X171952625Y-99231885D01*
X171907584Y-99225353D01*
X171882856Y-99214220D01*
X171876326Y-99194767D01*
X171880655Y-99185987D01*
X171893600Y-99178839D01*
X171919140Y-99173634D01*
X171961446Y-99169556D01*
X172024689Y-99165792D01*
X172075447Y-99162302D01*
X172133423Y-99156187D01*
X172180216Y-99148913D01*
X172208868Y-99141401D01*
X172220466Y-99137088D01*
X172265267Y-99133962D01*
X172303868Y-99155103D01*
G37*
G36*
X174077769Y-100260210D02*
G01*
X174079493Y-100267674D01*
X174077653Y-100269177D01*
X174062752Y-100267674D01*
X174060788Y-100263897D01*
X174071123Y-100259303D01*
X174077769Y-100260210D01*
G37*
G36*
X173434544Y-99539933D02*
G01*
X173443342Y-99550652D01*
X173443016Y-99551905D01*
X173430786Y-99556189D01*
X173427345Y-99555678D01*
X173418231Y-99542893D01*
X173419217Y-99538351D01*
X173430786Y-99537356D01*
X173434544Y-99539933D01*
G37*
G36*
X170251078Y-108144941D02*
G01*
X170269128Y-108150192D01*
X170341201Y-108174319D01*
X170424010Y-108205664D01*
X170508841Y-108240674D01*
X170586982Y-108275796D01*
X170649719Y-108307478D01*
X170694591Y-108333586D01*
X170774925Y-108384903D01*
X170861730Y-108444944D01*
X170947643Y-108508735D01*
X170981899Y-108535149D01*
X171049746Y-108430716D01*
X171073714Y-108392639D01*
X171136282Y-108283557D01*
X171198311Y-108163002D01*
X171255183Y-108040232D01*
X171302280Y-107924504D01*
X171317673Y-107883511D01*
X171334745Y-107838894D01*
X171347035Y-107807789D01*
X171352589Y-107795220D01*
X171353920Y-107795305D01*
X171369699Y-107804290D01*
X171399028Y-107824205D01*
X171436934Y-107851720D01*
X171517765Y-107911948D01*
X171476377Y-108009730D01*
X171443084Y-108084964D01*
X171368843Y-108235885D01*
X171286202Y-108385752D01*
X171201508Y-108522721D01*
X171192241Y-108536777D01*
X171159198Y-108587346D01*
X171132448Y-108628989D01*
X171114535Y-108657713D01*
X171107998Y-108669528D01*
X171108722Y-108671319D01*
X171119616Y-108688436D01*
X171140875Y-108719001D01*
X171168981Y-108757916D01*
X171188081Y-108784317D01*
X171287260Y-108934801D01*
X171378302Y-109097711D01*
X171464802Y-109279381D01*
X171494366Y-109346231D01*
X171404213Y-109421465D01*
X171314061Y-109496699D01*
X171272859Y-109376049D01*
X171265762Y-109355737D01*
X171239531Y-109285664D01*
X171210653Y-109214170D01*
X171184197Y-109153948D01*
X171167256Y-109119510D01*
X171137191Y-109063309D01*
X171103243Y-109003929D01*
X171068512Y-108946459D01*
X171036100Y-108895984D01*
X171009108Y-108857594D01*
X170990637Y-108836376D01*
X170980486Y-108833944D01*
X170960001Y-108842668D01*
X170927878Y-108865910D01*
X170881252Y-108905477D01*
X170858180Y-108925417D01*
X170763332Y-109000454D01*
X170661277Y-109071662D01*
X170555665Y-109137137D01*
X170450144Y-109194976D01*
X170348365Y-109243274D01*
X170253977Y-109280130D01*
X170170629Y-109303639D01*
X170101972Y-109311899D01*
X170028216Y-109311899D01*
X170028216Y-108784563D01*
X169651548Y-108784563D01*
X169651548Y-109450010D01*
X169475769Y-109450010D01*
X169475769Y-108784563D01*
X169073990Y-108784563D01*
X169073990Y-108596229D01*
X169475769Y-108596229D01*
X169475769Y-107955893D01*
X169651548Y-107955893D01*
X169651548Y-108596229D01*
X170028216Y-108596229D01*
X170028216Y-108308651D01*
X170191439Y-108308651D01*
X170191439Y-109100145D01*
X170219689Y-109091795D01*
X170231782Y-109087995D01*
X170292246Y-109064825D01*
X170364417Y-109032267D01*
X170440907Y-108993976D01*
X170514329Y-108953609D01*
X170577295Y-108914821D01*
X170598325Y-108900427D01*
X170660398Y-108854528D01*
X170722464Y-108804588D01*
X170773780Y-108759119D01*
X170860399Y-108676520D01*
X170780170Y-108613388D01*
X170776069Y-108610167D01*
X170645860Y-108515426D01*
X170518919Y-108439094D01*
X170387735Y-108377135D01*
X170244800Y-108325509D01*
X170191439Y-108308651D01*
X170028216Y-108308651D01*
X170028216Y-107955893D01*
X170191439Y-107955893D01*
X170191439Y-108128408D01*
X170251078Y-108144941D01*
G37*
G36*
X173506120Y-99411800D02*
G01*
X173499842Y-99418078D01*
X173493564Y-99411800D01*
X173499842Y-99405522D01*
X173506120Y-99411800D01*
G37*
G36*
X173725330Y-112928405D02*
G01*
X173857173Y-112961063D01*
X173974577Y-113013440D01*
X174076562Y-113084710D01*
X174162150Y-113174046D01*
X174230361Y-113280622D01*
X174280216Y-113403613D01*
X174310736Y-113542193D01*
X174310967Y-113543862D01*
X174315881Y-113610453D01*
X174315746Y-113691884D01*
X174311059Y-113778789D01*
X174302318Y-113861800D01*
X174290022Y-113931552D01*
X174259575Y-114030377D01*
X174202708Y-114143054D01*
X174126524Y-114240532D01*
X174032215Y-114321615D01*
X173920973Y-114385105D01*
X173793992Y-114429802D01*
X173758986Y-114437208D01*
X173680261Y-114446633D01*
X173590590Y-114450580D01*
X173498763Y-114449053D01*
X173413571Y-114442056D01*
X173343804Y-114429593D01*
X173243147Y-114396612D01*
X173128187Y-114337333D01*
X173030174Y-114259783D01*
X172949872Y-114164739D01*
X172888052Y-114052977D01*
X172845479Y-113925274D01*
X172837835Y-113886770D01*
X172828213Y-113802898D01*
X172824118Y-113708573D01*
X172824486Y-113683987D01*
X173129728Y-113683987D01*
X173132395Y-113732130D01*
X173150857Y-113807726D01*
X173188317Y-113869120D01*
X173246469Y-113918669D01*
X173327007Y-113958732D01*
X173331371Y-113960422D01*
X173365244Y-113971933D01*
X173399839Y-113979700D01*
X173441251Y-113984457D01*
X173495572Y-113986940D01*
X173568898Y-113987881D01*
X173595888Y-113987932D01*
X173668649Y-113986761D01*
X173723533Y-113983166D01*
X173766016Y-113976651D01*
X173801575Y-113966717D01*
X173817211Y-113960845D01*
X173888019Y-113922615D01*
X173945804Y-113871992D01*
X173984579Y-113813973D01*
X173993905Y-113790487D01*
X174008882Y-113714765D01*
X174004785Y-113637233D01*
X173983081Y-113563685D01*
X173945239Y-113499914D01*
X173892728Y-113451711D01*
X173868265Y-113436668D01*
X173825546Y-113415539D01*
X173779729Y-113401039D01*
X173725335Y-113392057D01*
X173656884Y-113387488D01*
X173568898Y-113386222D01*
X173524590Y-113386611D01*
X173435698Y-113390962D01*
X173364875Y-113401128D01*
X173307411Y-113418338D01*
X173258594Y-113443819D01*
X173213713Y-113478799D01*
X173185877Y-113506483D01*
X173152385Y-113555272D01*
X173134721Y-113611868D01*
X173129728Y-113683987D01*
X172824486Y-113683987D01*
X172825557Y-113612530D01*
X172832538Y-113523505D01*
X172845070Y-113450233D01*
X172861576Y-113392027D01*
X172913054Y-113270468D01*
X172982814Y-113165475D01*
X173069800Y-113077825D01*
X173172957Y-113008297D01*
X173291229Y-112957671D01*
X173423561Y-112926724D01*
X173568898Y-112916235D01*
X173580026Y-112916292D01*
X173725330Y-112928405D01*
G37*
G36*
X174272012Y-115238147D02*
G01*
X173258725Y-115238147D01*
X173219200Y-115323899D01*
X173202667Y-115364127D01*
X173181399Y-115446715D01*
X173178375Y-115523137D01*
X173193103Y-115590153D01*
X173225089Y-115644524D01*
X173273841Y-115683009D01*
X173274843Y-115683525D01*
X173288864Y-115690126D01*
X173304407Y-115695514D01*
X173324091Y-115699840D01*
X173350540Y-115703253D01*
X173386372Y-115705902D01*
X173434210Y-115707938D01*
X173496674Y-115709510D01*
X173576387Y-115710767D01*
X173675967Y-115711859D01*
X173798038Y-115712936D01*
X174272012Y-115716890D01*
X174272012Y-116167262D01*
X173256855Y-116167262D01*
X173221434Y-116239457D01*
X173201010Y-116287546D01*
X173187922Y-116340765D01*
X173182206Y-116405819D01*
X173181934Y-116413483D01*
X173184849Y-116486934D01*
X173199922Y-116541920D01*
X173228979Y-116582563D01*
X173273841Y-116612986D01*
X173286847Y-116618968D01*
X173302594Y-116624366D01*
X173322490Y-116628720D01*
X173349156Y-116632173D01*
X173385211Y-116634873D01*
X173433276Y-116636965D01*
X173495971Y-116638594D01*
X173575916Y-116639907D01*
X173675732Y-116641050D01*
X173798038Y-116642168D01*
X174272012Y-116646239D01*
X174272012Y-117099029D01*
X173741538Y-117092973D01*
X173701726Y-117092513D01*
X173570958Y-117090849D01*
X173461987Y-117089025D01*
X173372209Y-117086781D01*
X173299020Y-117083862D01*
X173239816Y-117080009D01*
X173191994Y-117074965D01*
X173152950Y-117068473D01*
X173120080Y-117060275D01*
X173090781Y-117050114D01*
X173062448Y-117037733D01*
X173032479Y-117022873D01*
X172980552Y-116990178D01*
X172914930Y-116925826D01*
X172865132Y-116846195D01*
X172832760Y-116754949D01*
X172819416Y-116655751D01*
X172826701Y-116552263D01*
X172834689Y-116517231D01*
X172861522Y-116440057D01*
X172900619Y-116355586D01*
X172948545Y-116270866D01*
X173001865Y-116192940D01*
X173063478Y-116111895D01*
X173010968Y-116078594D01*
X172978910Y-116055638D01*
X172913539Y-115988193D01*
X172864022Y-115905534D01*
X172831991Y-115811835D01*
X172819079Y-115711271D01*
X172826919Y-115608014D01*
X172828787Y-115598559D01*
X172850328Y-115526079D01*
X172884274Y-115445688D01*
X172926404Y-115366397D01*
X172972496Y-115297219D01*
X173017602Y-115238147D01*
X172865784Y-115238147D01*
X172865784Y-114786145D01*
X174272012Y-114786145D01*
X174272012Y-115238147D01*
G37*
G36*
X171075950Y-113034228D02*
G01*
X171091240Y-113054991D01*
X171118990Y-113092355D01*
X171153993Y-113139288D01*
X171192116Y-113190241D01*
X171192433Y-113190664D01*
X171227472Y-113237894D01*
X171256249Y-113277574D01*
X171275796Y-113305548D01*
X171283145Y-113317663D01*
X171276463Y-113327754D01*
X171256063Y-113350541D01*
X171226639Y-113380441D01*
X171169501Y-113436417D01*
X171145254Y-113405028D01*
X171127673Y-113381602D01*
X171097263Y-113339269D01*
X171063248Y-113290436D01*
X171028648Y-113239602D01*
X170996482Y-113191266D01*
X170969769Y-113149927D01*
X170951527Y-113120086D01*
X170944776Y-113106240D01*
X170949496Y-113096950D01*
X170968639Y-113074499D01*
X170997477Y-113046446D01*
X171050179Y-112998833D01*
X171075950Y-113034228D01*
G37*
G36*
X173506120Y-99480856D02*
G01*
X173505214Y-99487503D01*
X173497750Y-99489226D01*
X173496247Y-99487386D01*
X173497750Y-99472485D01*
X173501526Y-99470521D01*
X173506120Y-99480856D01*
G37*
G36*
X174150930Y-98248284D02*
G01*
X174161946Y-98251454D01*
X174169535Y-98256169D01*
X174154051Y-98260586D01*
X174151758Y-98261076D01*
X174138215Y-98267249D01*
X174147773Y-98277744D01*
X174148861Y-98278507D01*
X174158908Y-98286986D01*
X174147553Y-98285209D01*
X174139216Y-98280899D01*
X174126916Y-98260666D01*
X174130452Y-98247099D01*
X174150930Y-98248284D01*
G37*
G36*
X173437724Y-98343830D02*
G01*
X173537901Y-98294820D01*
X173654552Y-98243910D01*
X173785083Y-98192240D01*
X173926897Y-98140948D01*
X174077400Y-98091172D01*
X174103790Y-98082833D01*
X174164626Y-98063580D01*
X174215668Y-98047389D01*
X174252197Y-98035757D01*
X174269495Y-98030182D01*
X174278866Y-98033226D01*
X174282808Y-98053276D01*
X174282051Y-98094234D01*
X174278290Y-98163753D01*
X174190401Y-98194397D01*
X174186418Y-98195787D01*
X174141146Y-98211874D01*
X174104355Y-98225417D01*
X174083678Y-98233611D01*
X174066983Y-98239293D01*
X174035143Y-98245653D01*
X174015218Y-98249251D01*
X173998873Y-98255692D01*
X173998120Y-98260425D01*
X174011501Y-98269654D01*
X174036482Y-98277751D01*
X174064479Y-98282271D01*
X174086909Y-98280769D01*
X174103558Y-98278122D01*
X174102444Y-98288183D01*
X174101178Y-98293103D01*
X174111012Y-98298558D01*
X174139090Y-98300288D01*
X174188761Y-98298700D01*
X174284568Y-98293862D01*
X174284568Y-100246748D01*
X174258716Y-100246748D01*
X174244189Y-100244789D01*
X174238677Y-100237331D01*
X174238676Y-100232016D01*
X174222707Y-100226204D01*
X174191435Y-100224788D01*
X174150833Y-100227523D01*
X174106877Y-100234163D01*
X174065542Y-100244460D01*
X173991504Y-100267909D01*
X174031667Y-100281910D01*
X174033161Y-100282420D01*
X174066804Y-100289555D01*
X174092369Y-100288029D01*
X174103187Y-100285528D01*
X174105214Y-100292597D01*
X174104907Y-100294212D01*
X174116887Y-100304920D01*
X174147183Y-100319495D01*
X174191005Y-100335537D01*
X174284490Y-100366026D01*
X174284529Y-100413956D01*
X174283381Y-100440464D01*
X174277061Y-100455508D01*
X174262596Y-100455539D01*
X174259270Y-100454597D01*
X174233632Y-100447530D01*
X174190312Y-100435715D01*
X174134435Y-100420549D01*
X174071123Y-100403425D01*
X173911496Y-100358520D01*
X173761493Y-100311896D01*
X173632967Y-100266538D01*
X173524103Y-100221754D01*
X173433083Y-100176849D01*
X173358090Y-100131130D01*
X173321335Y-100099960D01*
X173274278Y-100045138D01*
X173233005Y-99981668D01*
X173203943Y-99918417D01*
X173188092Y-99872587D01*
X173138978Y-99968639D01*
X173113655Y-100017384D01*
X173060500Y-100113010D01*
X173009407Y-100193513D01*
X172956088Y-100264851D01*
X172896256Y-100332978D01*
X172825620Y-100403851D01*
X172779726Y-100447064D01*
X172723558Y-100496453D01*
X172672411Y-100535820D01*
X172619427Y-100570319D01*
X172557747Y-100605103D01*
X172506697Y-100632678D01*
X172467853Y-100654962D01*
X172444095Y-100671709D01*
X172431701Y-100686216D01*
X172426949Y-100701780D01*
X172426120Y-100721698D01*
X172423887Y-100753360D01*
X172417239Y-100802046D01*
X172407753Y-100853457D01*
X172391108Y-100914816D01*
X172346316Y-101011002D01*
X172280954Y-101093241D01*
X172194059Y-101162930D01*
X172108617Y-101211486D01*
X172016896Y-101244940D01*
X171923900Y-101257609D01*
X171824019Y-101250825D01*
X171766919Y-101237753D01*
X171694898Y-101211987D01*
X171624799Y-101178512D01*
X171564272Y-101141052D01*
X171520965Y-101103330D01*
X171512675Y-101094024D01*
X171490325Y-101072810D01*
X171472698Y-101067235D01*
X171451697Y-101073854D01*
X171417803Y-101083713D01*
X171377824Y-101087974D01*
X171358643Y-101089480D01*
X171314593Y-101098080D01*
X171268554Y-101111763D01*
X171257711Y-101115574D01*
X171148456Y-101147728D01*
X171020656Y-101176075D01*
X170880051Y-101199882D01*
X170732385Y-101218414D01*
X170583399Y-101230936D01*
X170438837Y-101236716D01*
X170304439Y-101235019D01*
X170281681Y-101233864D01*
X170130280Y-101219234D01*
X169983343Y-101193467D01*
X169845842Y-101157818D01*
X169722750Y-101113544D01*
X169619041Y-101061899D01*
X169594231Y-101046042D01*
X169524508Y-100992365D01*
X169488887Y-100959682D01*
X171556126Y-100959682D01*
X171556275Y-100976249D01*
X171568987Y-100995402D01*
X171597026Y-101024554D01*
X171617575Y-101043272D01*
X171665403Y-101079673D01*
X171713378Y-101109220D01*
X171732296Y-101118768D01*
X171764503Y-101132000D01*
X171797659Y-101139576D01*
X171839811Y-101142993D01*
X171899002Y-101143748D01*
X171939592Y-101143426D01*
X171985938Y-101141163D01*
X172020378Y-101135365D01*
X172050886Y-101124453D01*
X172085432Y-101106849D01*
X172120822Y-101084868D01*
X172190452Y-101025632D01*
X172248202Y-100954809D01*
X172287551Y-100879728D01*
X172296917Y-100851222D01*
X172308722Y-100801342D01*
X172313337Y-100760211D01*
X172313337Y-100759894D01*
X172311739Y-100728093D01*
X172304952Y-100715674D01*
X172289944Y-100717038D01*
X172252484Y-100727036D01*
X172180482Y-100741009D01*
X172090090Y-100754181D01*
X171985252Y-100766000D01*
X171869916Y-100775912D01*
X171658774Y-100791446D01*
X171642721Y-100829848D01*
X171625315Y-100861817D01*
X171605062Y-100886170D01*
X171585447Y-100907854D01*
X171565238Y-100939318D01*
X171556126Y-100959682D01*
X169488887Y-100959682D01*
X169451305Y-100925199D01*
X169380678Y-100850762D01*
X169318685Y-100775274D01*
X169271382Y-100704952D01*
X169244853Y-100661844D01*
X169205769Y-100609900D01*
X169171898Y-100580098D01*
X169157657Y-100571310D01*
X169081976Y-100511418D01*
X169007354Y-100431924D01*
X168936876Y-100337340D01*
X168873626Y-100232180D01*
X168820689Y-100120959D01*
X168813685Y-100100985D01*
X170595171Y-100100985D01*
X170600055Y-100107537D01*
X170613873Y-100108636D01*
X170641332Y-100115083D01*
X170683677Y-100132639D01*
X170734589Y-100158069D01*
X170787993Y-100188140D01*
X170837812Y-100219614D01*
X170877970Y-100249258D01*
X170880202Y-100251129D01*
X170921314Y-100289874D01*
X170966576Y-100338643D01*
X171006591Y-100387344D01*
X171014902Y-100398157D01*
X171073324Y-100463969D01*
X171138082Y-100517909D01*
X171213868Y-100562829D01*
X171305375Y-100601581D01*
X171417296Y-100637019D01*
X171427834Y-100639927D01*
X171501984Y-100657641D01*
X171569757Y-100669386D01*
X171622621Y-100673639D01*
X171652758Y-100673188D01*
X171684279Y-100669514D01*
X171703542Y-100659935D01*
X171718357Y-100641858D01*
X171718730Y-100641287D01*
X171731736Y-100618290D01*
X171734341Y-100606957D01*
X171732168Y-100605770D01*
X171713311Y-100596691D01*
X171682985Y-100582712D01*
X171671634Y-100577112D01*
X171639391Y-100553079D01*
X171616140Y-100518188D01*
X171599432Y-100467705D01*
X171586818Y-100396897D01*
X171578253Y-100325677D01*
X171568698Y-100205321D01*
X171564306Y-100082261D01*
X171564606Y-100016835D01*
X171613282Y-100016835D01*
X171614682Y-100127144D01*
X171619214Y-100233547D01*
X171626815Y-100330785D01*
X171637422Y-100413596D01*
X171650972Y-100476722D01*
X171652132Y-100480557D01*
X171672678Y-100520882D01*
X171706126Y-100546143D01*
X171755786Y-100557879D01*
X171824970Y-100557631D01*
X171845949Y-100555718D01*
X171918328Y-100540093D01*
X171973772Y-100509977D01*
X172014479Y-100463055D01*
X172042648Y-100397010D01*
X172060477Y-100309526D01*
X172063414Y-100285905D01*
X172070638Y-100208101D01*
X172076098Y-100119583D01*
X172079577Y-100027484D01*
X172080859Y-99938936D01*
X172079725Y-99861071D01*
X172075960Y-99801024D01*
X172069489Y-99756027D01*
X172043202Y-99667122D01*
X172000577Y-99596973D01*
X171941212Y-99545030D01*
X171864708Y-99510742D01*
X171844506Y-99504991D01*
X171777623Y-99493024D01*
X171726748Y-99498751D01*
X171688954Y-99523846D01*
X171661314Y-99569984D01*
X171640901Y-99638840D01*
X171640272Y-99641741D01*
X171628510Y-99715074D01*
X171620133Y-99805540D01*
X171615078Y-99907881D01*
X171613282Y-100016835D01*
X171564606Y-100016835D01*
X171564864Y-99960432D01*
X171570163Y-99843768D01*
X171579990Y-99736205D01*
X171594135Y-99641676D01*
X171612386Y-99564118D01*
X171634533Y-99507464D01*
X171634733Y-99507095D01*
X171657317Y-99482101D01*
X171689706Y-99462124D01*
X171729501Y-99445519D01*
X171721965Y-99066515D01*
X171685300Y-99047554D01*
X171671392Y-99039187D01*
X171645231Y-99014215D01*
X171623885Y-98977680D01*
X171606551Y-98926875D01*
X171592421Y-98859093D01*
X171580692Y-98771626D01*
X171570558Y-98661767D01*
X171570056Y-98655206D01*
X171565602Y-98565694D01*
X171564443Y-98467505D01*
X171564517Y-98463508D01*
X171611900Y-98463508D01*
X171613067Y-98573124D01*
X171617433Y-98678278D01*
X171624997Y-98773858D01*
X171635761Y-98854753D01*
X171649723Y-98915853D01*
X171669208Y-98960374D01*
X171704212Y-98998078D01*
X171751930Y-99015516D01*
X171813532Y-99013055D01*
X171890185Y-98991058D01*
X171935986Y-98969957D01*
X171991692Y-98927157D01*
X172032476Y-98868999D01*
X172059940Y-98792942D01*
X172075683Y-98696445D01*
X172078918Y-98660703D01*
X172083659Y-98585317D01*
X172084566Y-98512548D01*
X172081617Y-98433254D01*
X172074788Y-98338295D01*
X172063992Y-98230675D01*
X172050082Y-98144349D01*
X172031365Y-98078144D01*
X172006039Y-98029566D01*
X171972301Y-97996121D01*
X171928348Y-97975316D01*
X171872380Y-97964655D01*
X171802593Y-97961646D01*
X171753509Y-97962622D01*
X171710094Y-97968135D01*
X171681939Y-97981015D01*
X171663620Y-98004038D01*
X171649715Y-98039985D01*
X171639221Y-98082644D01*
X171627592Y-98158998D01*
X171619163Y-98251334D01*
X171613932Y-98354541D01*
X171611900Y-98463508D01*
X171564517Y-98463508D01*
X171566318Y-98366260D01*
X171570971Y-98267581D01*
X171578142Y-98177089D01*
X171587574Y-98100405D01*
X171599007Y-98043151D01*
X171603835Y-98028011D01*
X171630015Y-97978581D01*
X171666059Y-97939650D01*
X171705766Y-97918459D01*
X171705933Y-97918417D01*
X171730597Y-97907753D01*
X171732224Y-97891958D01*
X171711147Y-97867893D01*
X171710599Y-97867401D01*
X171698732Y-97859106D01*
X171682250Y-97853452D01*
X171657059Y-97850130D01*
X171619064Y-97848831D01*
X171564171Y-97849246D01*
X171488285Y-97851065D01*
X171453175Y-97852065D01*
X171386575Y-97854445D01*
X171337875Y-97857503D01*
X171302020Y-97862012D01*
X171273958Y-97868746D01*
X171248635Y-97878478D01*
X171220999Y-97891982D01*
X171145484Y-97933489D01*
X171036822Y-98006847D01*
X170950104Y-98086292D01*
X170883421Y-98174068D01*
X170834864Y-98272417D01*
X170802523Y-98383582D01*
X170802402Y-98384158D01*
X170793439Y-98430111D01*
X170790565Y-98457812D01*
X170793825Y-98473316D01*
X170803265Y-98482685D01*
X170832060Y-98502911D01*
X170859386Y-98529174D01*
X170874380Y-98559526D01*
X170883070Y-98603061D01*
X170883695Y-98607636D01*
X170889264Y-98670445D01*
X170892436Y-98751250D01*
X170893295Y-98843641D01*
X170891924Y-98941207D01*
X170888407Y-99037538D01*
X170882828Y-99126223D01*
X170875270Y-99200850D01*
X170857864Y-99310219D01*
X170825450Y-99460876D01*
X170783838Y-99615581D01*
X170735219Y-99767046D01*
X170681785Y-99907981D01*
X170625725Y-100031098D01*
X170615187Y-100051986D01*
X170599966Y-100084095D01*
X170595171Y-100100985D01*
X168813685Y-100100985D01*
X168781149Y-100008191D01*
X168763701Y-99934420D01*
X168745978Y-99825563D01*
X168732634Y-99702077D01*
X168723913Y-99569576D01*
X168720056Y-99433674D01*
X168721309Y-99299984D01*
X168727913Y-99174119D01*
X168740114Y-99061693D01*
X168752552Y-98984110D01*
X168807091Y-98743197D01*
X168884427Y-98512473D01*
X168984969Y-98290844D01*
X169109128Y-98077217D01*
X169109574Y-98076529D01*
X169161097Y-98000096D01*
X169211866Y-97932037D01*
X169266059Y-97867678D01*
X169287204Y-97845323D01*
X171759923Y-97845323D01*
X171774237Y-97876739D01*
X171775942Y-97880316D01*
X171789860Y-97898394D01*
X171802593Y-97903949D01*
X171813570Y-97908737D01*
X171854730Y-97914985D01*
X171866711Y-97916423D01*
X171944233Y-97936492D01*
X172008680Y-97972376D01*
X172055230Y-98021514D01*
X172069766Y-98047189D01*
X172086159Y-98089538D01*
X172098765Y-98142700D01*
X172107943Y-98209518D01*
X172114055Y-98292836D01*
X172117461Y-98395500D01*
X172118523Y-98520351D01*
X172118476Y-98585589D01*
X172118062Y-98661343D01*
X172116938Y-98718554D01*
X172114767Y-98761105D01*
X172111212Y-98792881D01*
X172105938Y-98817764D01*
X172098607Y-98839638D01*
X172088883Y-98862387D01*
X172076475Y-98886447D01*
X172045236Y-98933451D01*
X172012144Y-98970732D01*
X171987507Y-98989664D01*
X171940439Y-99017434D01*
X171887678Y-99042102D01*
X171837882Y-99059765D01*
X171799708Y-99066520D01*
X171793185Y-99067248D01*
X171781900Y-99076330D01*
X171774220Y-99100003D01*
X171767978Y-99143522D01*
X171767232Y-99150863D01*
X171764612Y-99204406D01*
X171764829Y-99268464D01*
X171767889Y-99330746D01*
X171776511Y-99440969D01*
X171777623Y-99441176D01*
X171822062Y-99449442D01*
X171894149Y-99469030D01*
X171975791Y-99511748D01*
X172041428Y-99573750D01*
X172091463Y-99655342D01*
X172095445Y-99664179D01*
X172103316Y-99684715D01*
X172109140Y-99707556D01*
X172113222Y-99736502D01*
X172115866Y-99775354D01*
X172117377Y-99827913D01*
X172118058Y-99897981D01*
X172118216Y-99989358D01*
X172118072Y-100042696D01*
X172116403Y-100155719D01*
X172112516Y-100247917D01*
X172105982Y-100322288D01*
X172096372Y-100381832D01*
X172083253Y-100429547D01*
X172066198Y-100468432D01*
X172044776Y-100501486D01*
X172042982Y-100503804D01*
X171988632Y-100553538D01*
X171919666Y-100585644D01*
X171841378Y-100597622D01*
X171811989Y-100599664D01*
X171789453Y-100609324D01*
X171774991Y-100631316D01*
X171766073Y-100655793D01*
X171765379Y-100669757D01*
X171768458Y-100670766D01*
X171791579Y-100671218D01*
X171832542Y-100668984D01*
X171886273Y-100664584D01*
X171947702Y-100658540D01*
X172011756Y-100651372D01*
X172073363Y-100643600D01*
X172127451Y-100635746D01*
X172168948Y-100628329D01*
X172304952Y-100593764D01*
X172309044Y-100592724D01*
X172442795Y-100542825D01*
X172563191Y-100478327D01*
X172675441Y-100396404D01*
X172784756Y-100294230D01*
X172861186Y-100207584D01*
X172963637Y-100062054D01*
X173048990Y-99902049D01*
X173114975Y-99732217D01*
X173287792Y-99732217D01*
X173293330Y-99739545D01*
X173309334Y-99739049D01*
X173313150Y-99738479D01*
X173344529Y-99729092D01*
X173380481Y-99713247D01*
X173384927Y-99710929D01*
X173408909Y-99696903D01*
X173412866Y-99688542D01*
X173399314Y-99681620D01*
X173386902Y-99676148D01*
X173389256Y-99670587D01*
X173414043Y-99663922D01*
X173415172Y-99663665D01*
X173444593Y-99652132D01*
X173460732Y-99637034D01*
X173462429Y-99629422D01*
X173455337Y-99620357D01*
X173431483Y-99617158D01*
X173386842Y-99618835D01*
X173384953Y-99618953D01*
X173361995Y-99618239D01*
X173356828Y-99613559D01*
X173362840Y-99610816D01*
X173388645Y-99606055D01*
X173425884Y-99602944D01*
X173448200Y-99601660D01*
X173474681Y-99597091D01*
X173486719Y-99586336D01*
X173491280Y-99565393D01*
X173497383Y-99543123D01*
X173506781Y-99537764D01*
X173515463Y-99536571D01*
X173532014Y-99519891D01*
X173549442Y-99492377D01*
X173563227Y-99461521D01*
X173568851Y-99434818D01*
X173571714Y-99417642D01*
X173583156Y-99402862D01*
X173585068Y-99399557D01*
X173572366Y-99391439D01*
X173547110Y-99381696D01*
X173516544Y-99372657D01*
X173487910Y-99366648D01*
X173468453Y-99365999D01*
X173459988Y-99366826D01*
X173458847Y-99360868D01*
X173458951Y-99360759D01*
X173455687Y-99349174D01*
X173435439Y-99334563D01*
X173424637Y-99329039D01*
X173401320Y-99319321D01*
X173393589Y-99323559D01*
X173396758Y-99342744D01*
X173398693Y-99357820D01*
X173393370Y-99367855D01*
X173390257Y-99370041D01*
X173382214Y-99389437D01*
X173375239Y-99422375D01*
X173373606Y-99433141D01*
X173366798Y-99476158D01*
X173361013Y-99510265D01*
X173360162Y-99515397D01*
X173361545Y-99537879D01*
X173377180Y-99544885D01*
X173378443Y-99544967D01*
X173385427Y-99548221D01*
X173368008Y-99554868D01*
X173348029Y-99564813D01*
X173336619Y-99588144D01*
X173334991Y-99602704D01*
X173326580Y-99620093D01*
X173322611Y-99625230D01*
X173311457Y-99649450D01*
X173299295Y-99684799D01*
X173291615Y-99711088D01*
X173287792Y-99732217D01*
X173114975Y-99732217D01*
X173115260Y-99731484D01*
X173160457Y-99554274D01*
X173164074Y-99532972D01*
X173171219Y-99478099D01*
X173177662Y-99413171D01*
X173183037Y-99344021D01*
X173186975Y-99276481D01*
X173187557Y-99260086D01*
X173286397Y-99260086D01*
X173286400Y-99270057D01*
X173286606Y-99343898D01*
X173287101Y-99407606D01*
X173287831Y-99457435D01*
X173288745Y-99489642D01*
X173289789Y-99500482D01*
X173290348Y-99499327D01*
X173295048Y-99481157D01*
X173302636Y-99445984D01*
X173311761Y-99399979D01*
X173312437Y-99396408D01*
X173321335Y-99341387D01*
X173327397Y-99289168D01*
X173329343Y-99250611D01*
X173328833Y-99244191D01*
X173399397Y-99244191D01*
X173401320Y-99245260D01*
X173430786Y-99261634D01*
X173455910Y-99273445D01*
X173477870Y-99279521D01*
X173488218Y-99271975D01*
X173493564Y-99248577D01*
X173493176Y-99237446D01*
X173487106Y-99221138D01*
X173469430Y-99219434D01*
X173434743Y-99230689D01*
X173399397Y-99244191D01*
X173328833Y-99244191D01*
X173326961Y-99220635D01*
X173320051Y-99170868D01*
X173310390Y-99115269D01*
X173300295Y-99066520D01*
X173368008Y-99066520D01*
X173371922Y-99082395D01*
X173392379Y-99091632D01*
X173406751Y-99093470D01*
X173423785Y-99103016D01*
X173422685Y-99108657D01*
X173405693Y-99107830D01*
X173405592Y-99107804D01*
X173385875Y-99108306D01*
X173380564Y-99127834D01*
X173384095Y-99143807D01*
X173399397Y-99154410D01*
X173408118Y-99152624D01*
X173418423Y-99138715D01*
X173420523Y-99131289D01*
X173430162Y-99141274D01*
X173432065Y-99144098D01*
X173446521Y-99153058D01*
X173469430Y-99145638D01*
X173470776Y-99145202D01*
X173493475Y-99135167D01*
X173526932Y-99123332D01*
X173538699Y-99119061D01*
X173559168Y-99098265D01*
X173559382Y-99063382D01*
X173554182Y-99052921D01*
X173539457Y-99045735D01*
X173510246Y-99042293D01*
X173461255Y-99041409D01*
X173445736Y-99041442D01*
X173403889Y-99042500D01*
X173380470Y-99046093D01*
X173370253Y-99053631D01*
X173368008Y-99066520D01*
X173300295Y-99066520D01*
X173299755Y-99063910D01*
X173289918Y-99026861D01*
X173289756Y-99026632D01*
X173288691Y-99038529D01*
X173287769Y-99071420D01*
X173287043Y-99121709D01*
X173286567Y-99185796D01*
X173286397Y-99260086D01*
X173187557Y-99260086D01*
X173189107Y-99216385D01*
X173189067Y-99169565D01*
X173186485Y-99141854D01*
X173185252Y-99135817D01*
X173180471Y-99106916D01*
X173173884Y-99062894D01*
X173166534Y-99010604D01*
X173146371Y-98903999D01*
X173136359Y-98869537D01*
X173305909Y-98869537D01*
X173316869Y-98900329D01*
X173323189Y-98913297D01*
X173335830Y-98945462D01*
X173339492Y-98953901D01*
X173355139Y-98964164D01*
X173386969Y-98963678D01*
X173388756Y-98963477D01*
X173419552Y-98963823D01*
X173430786Y-98972700D01*
X173421133Y-98981325D01*
X173393120Y-98981309D01*
X173376226Y-98979529D01*
X173359435Y-98984093D01*
X173355453Y-99002317D01*
X173355455Y-99002940D01*
X173362460Y-99023191D01*
X173386842Y-99028854D01*
X173407542Y-99024953D01*
X173418423Y-99013159D01*
X173420295Y-99004468D01*
X173429084Y-99013974D01*
X173429286Y-99014283D01*
X173450597Y-99025173D01*
X173461255Y-99025532D01*
X173490879Y-99026529D01*
X173494389Y-99026252D01*
X173524355Y-99022253D01*
X173534526Y-99014794D01*
X173529817Y-99000604D01*
X173517512Y-98987614D01*
X173489802Y-98977175D01*
X173486144Y-98976961D01*
X173472893Y-98974576D01*
X173483730Y-98970057D01*
X173488474Y-98968666D01*
X173498572Y-98959588D01*
X173490126Y-98940124D01*
X173476981Y-98926414D01*
X173451775Y-98918136D01*
X173408933Y-98915853D01*
X173378846Y-98915447D01*
X173354691Y-98912079D01*
X173344800Y-98902745D01*
X173342897Y-98884464D01*
X173341751Y-98878096D01*
X173355453Y-98878096D01*
X173358475Y-98893032D01*
X173372987Y-98900491D01*
X173405675Y-98901149D01*
X173422587Y-98900015D01*
X173449868Y-98893457D01*
X173452978Y-98882006D01*
X173431612Y-98866072D01*
X173425033Y-98862769D01*
X173390244Y-98852992D01*
X173365117Y-98858407D01*
X173355453Y-98878096D01*
X173341751Y-98878096D01*
X173339211Y-98863990D01*
X173324064Y-98853075D01*
X173314322Y-98854598D01*
X173305909Y-98869537D01*
X173136359Y-98869537D01*
X173120634Y-98815408D01*
X173280119Y-98815408D01*
X173280388Y-98821216D01*
X173286463Y-98833586D01*
X173289756Y-98834570D01*
X173305243Y-98839197D01*
X173324064Y-98839858D01*
X173342897Y-98840519D01*
X173365479Y-98840279D01*
X173390244Y-98839171D01*
X173394373Y-98838986D01*
X173405675Y-98836949D01*
X173405510Y-98836511D01*
X173393782Y-98827290D01*
X173369210Y-98811838D01*
X173351010Y-98802190D01*
X173314333Y-98790897D01*
X173289349Y-98795357D01*
X173280119Y-98815408D01*
X173120634Y-98815408D01*
X173105625Y-98763745D01*
X173050508Y-98622668D01*
X172984187Y-98488679D01*
X172909830Y-98369684D01*
X172902768Y-98359961D01*
X172846684Y-98292120D01*
X172776715Y-98219216D01*
X172699700Y-98147658D01*
X172622480Y-98083858D01*
X172551894Y-98034225D01*
X172533083Y-98022870D01*
X172402949Y-97959686D01*
X172252126Y-97910497D01*
X172080787Y-97875348D01*
X171889102Y-97854286D01*
X171759923Y-97845323D01*
X169287204Y-97845323D01*
X169327856Y-97802344D01*
X169401435Y-97731360D01*
X169490975Y-97650052D01*
X169495669Y-97645872D01*
X169558178Y-97589217D01*
X171539948Y-97589217D01*
X171552893Y-97616478D01*
X171584073Y-97654341D01*
X171606789Y-97680323D01*
X171619064Y-97696415D01*
X171627391Y-97707331D01*
X171635334Y-97722790D01*
X171635419Y-97723399D01*
X171649120Y-97729821D01*
X171683268Y-97734082D01*
X171733598Y-97735626D01*
X171759923Y-97736199D01*
X171797429Y-97737016D01*
X171902507Y-97743493D01*
X172013040Y-97754311D01*
X172118848Y-97768418D01*
X172209753Y-97784764D01*
X172313337Y-97806908D01*
X172313327Y-97755572D01*
X172311656Y-97734012D01*
X172296374Y-97675510D01*
X172268300Y-97611408D01*
X172231318Y-97549756D01*
X172189313Y-97498602D01*
X172175509Y-97485154D01*
X172120999Y-97440735D01*
X172064534Y-97411541D01*
X171998641Y-97394508D01*
X171915847Y-97386575D01*
X171885629Y-97385310D01*
X171836736Y-97384919D01*
X171800390Y-97388582D01*
X171768154Y-97397502D01*
X171731592Y-97412885D01*
X171685963Y-97437899D01*
X171636918Y-97472073D01*
X171592413Y-97509495D01*
X171558344Y-97545186D01*
X171540607Y-97574168D01*
X171539948Y-97589217D01*
X169558178Y-97589217D01*
X169580283Y-97569182D01*
X169647557Y-97505057D01*
X169699911Y-97450851D01*
X169739764Y-97403919D01*
X169769536Y-97361614D01*
X169791646Y-97321291D01*
X169800565Y-97303964D01*
X169823626Y-97267487D01*
X169844866Y-97243097D01*
X169883090Y-97224433D01*
X169928647Y-97224619D01*
X169972203Y-97244198D01*
X170006955Y-97281555D01*
X170023994Y-97308897D01*
X170037684Y-97330163D01*
X170043608Y-97334627D01*
X170061726Y-97338036D01*
X170094361Y-97337983D01*
X170144956Y-97334414D01*
X170216955Y-97327274D01*
X170218813Y-97327076D01*
X170299251Y-97320104D01*
X170392990Y-97314336D01*
X170488534Y-97310366D01*
X170574385Y-97308788D01*
X170614641Y-97308438D01*
X170708012Y-97305288D01*
X170783700Y-97299107D01*
X170838053Y-97290153D01*
X170873005Y-97282349D01*
X170914762Y-97274665D01*
X170942602Y-97271515D01*
X170945804Y-97271616D01*
X170977454Y-97283630D01*
X171009838Y-97310056D01*
X171035059Y-97342971D01*
X171045220Y-97374454D01*
X171045429Y-97379933D01*
X171048680Y-97390554D01*
X171058662Y-97399824D01*
X171078916Y-97409177D01*
X171112979Y-97420048D01*
X171164392Y-97433871D01*
X171236693Y-97452082D01*
X171275392Y-97461749D01*
X171337602Y-97477457D01*
X171388893Y-97490621D01*
X171424777Y-97500085D01*
X171440768Y-97504691D01*
X171449931Y-97501809D01*
X171471197Y-97484001D01*
X171497252Y-97454852D01*
X171549141Y-97401002D01*
X171635370Y-97340669D01*
X171738210Y-97295165D01*
X171817373Y-97276477D01*
X171836736Y-97275590D01*
X171920845Y-97271739D01*
X172023824Y-97286426D01*
X172117996Y-97319995D01*
X172197910Y-97366035D01*
X172283333Y-97437382D01*
X172347889Y-97522341D01*
X172392315Y-97621936D01*
X172417347Y-97737195D01*
X172422189Y-97773890D01*
X172429191Y-97815623D01*
X172436867Y-97840843D01*
X172447064Y-97854781D01*
X172461625Y-97862664D01*
X172469225Y-97865718D01*
X172517050Y-97889266D01*
X172576545Y-97923616D01*
X172641149Y-97964638D01*
X172704298Y-98008198D01*
X172759431Y-98050166D01*
X172786095Y-98072311D01*
X172857104Y-98137249D01*
X172920552Y-98206126D01*
X172980365Y-98283897D01*
X173040470Y-98375513D01*
X173104793Y-98485930D01*
X173176623Y-98614732D01*
X173210303Y-98545893D01*
X173226179Y-98517539D01*
X173259066Y-98471233D01*
X173292557Y-98435476D01*
X173297175Y-98431599D01*
X173314333Y-98419535D01*
X173356617Y-98389803D01*
X173437724Y-98343830D01*
G37*
G36*
X172903877Y-99068794D02*
G01*
X172920414Y-99082215D01*
X172921310Y-99086262D01*
X172923246Y-99112195D01*
X172924509Y-99156413D01*
X172924995Y-99213982D01*
X172924599Y-99279966D01*
X172924175Y-99312091D01*
X172923027Y-99373815D01*
X172921206Y-99415922D01*
X172918087Y-99442300D01*
X172913045Y-99456839D01*
X172905453Y-99463426D01*
X172894688Y-99465949D01*
X172888139Y-99466702D01*
X172879325Y-99465233D01*
X172873227Y-99457077D01*
X172869211Y-99438548D01*
X172866641Y-99405964D01*
X172864882Y-99355640D01*
X172863299Y-99283892D01*
X172862759Y-99254469D01*
X172862020Y-99190796D01*
X172861989Y-99137617D01*
X172862651Y-99099800D01*
X172863988Y-99082215D01*
X172869758Y-99073966D01*
X172891192Y-99066520D01*
X172903877Y-99068794D01*
G37*
G36*
X173368008Y-99675468D02*
G01*
X173361731Y-99681745D01*
X173355453Y-99675468D01*
X173361731Y-99669190D01*
X173368008Y-99675468D01*
G37*
G36*
X174272012Y-105595438D02*
G01*
X173258437Y-105595438D01*
X173222567Y-105673910D01*
X173222333Y-105674421D01*
X173200467Y-105730320D01*
X173188160Y-105785541D01*
X173182563Y-105852828D01*
X173181939Y-105900558D01*
X173188471Y-105962054D01*
X173206454Y-106007824D01*
X173238294Y-106042959D01*
X173286397Y-106072551D01*
X173349175Y-106103940D01*
X173810594Y-106108144D01*
X174272012Y-106112347D01*
X174272012Y-106564132D01*
X173741538Y-106558927D01*
X173683033Y-106558340D01*
X173553870Y-106556846D01*
X173446234Y-106555087D01*
X173357568Y-106552789D01*
X173285314Y-106549679D01*
X173226915Y-106545483D01*
X173179814Y-106539927D01*
X173141454Y-106532738D01*
X173109277Y-106523643D01*
X173080727Y-106512367D01*
X173053245Y-106498636D01*
X173024275Y-106482178D01*
X172954597Y-106430836D01*
X172896542Y-106361263D01*
X172854637Y-106274725D01*
X172827562Y-106169122D01*
X172824645Y-106150466D01*
X172820863Y-106032795D01*
X172842092Y-105914324D01*
X172888267Y-105795296D01*
X172959321Y-105675960D01*
X173015610Y-105595438D01*
X172865784Y-105595438D01*
X172865784Y-105143436D01*
X174272012Y-105143436D01*
X174272012Y-105595438D01*
G37*
G36*
X172652339Y-104729101D02*
G01*
X172313337Y-104729101D01*
X172313337Y-104251988D01*
X172652339Y-104251988D01*
X172652339Y-104729101D01*
G37*
G36*
X171149792Y-109625033D02*
G01*
X171164609Y-109636785D01*
X171199847Y-109665741D01*
X171224361Y-109687386D01*
X171233555Y-109697732D01*
X171227929Y-109710553D01*
X171206446Y-109739966D01*
X171171327Y-109781738D01*
X171125169Y-109833181D01*
X171070567Y-109891611D01*
X171010117Y-109954341D01*
X170946413Y-110018686D01*
X170882052Y-110081960D01*
X170819629Y-110141478D01*
X170761738Y-110194552D01*
X170710977Y-110238498D01*
X170610574Y-110317962D01*
X170447663Y-110433846D01*
X170275536Y-110542579D01*
X170103550Y-110638009D01*
X169984271Y-110699294D01*
X170747025Y-110702530D01*
X171509778Y-110705766D01*
X171509778Y-110893711D01*
X170747025Y-110896947D01*
X169984271Y-110900183D01*
X170144494Y-110984303D01*
X170288084Y-111063963D01*
X170515860Y-111209774D01*
X170725109Y-111369381D01*
X170913758Y-111541283D01*
X170949341Y-111577909D01*
X170997253Y-111629835D01*
X171045840Y-111684870D01*
X171092138Y-111739432D01*
X171133183Y-111789941D01*
X171166012Y-111832813D01*
X171187659Y-111864469D01*
X171195161Y-111881325D01*
X171192768Y-111885493D01*
X171175253Y-111903530D01*
X171144512Y-111930869D01*
X171105027Y-111963428D01*
X171015618Y-112034779D01*
X170971672Y-111963428D01*
X170881417Y-111829048D01*
X170740064Y-111653618D01*
X170578368Y-111487004D01*
X170398840Y-111331737D01*
X170203995Y-111190348D01*
X170199917Y-111187652D01*
X170142629Y-111150793D01*
X170081465Y-111113008D01*
X170020601Y-111076702D01*
X169964212Y-111044280D01*
X169916472Y-111018144D01*
X169881556Y-111000699D01*
X169863639Y-110994350D01*
X169863367Y-110994479D01*
X169860797Y-111009047D01*
X169858472Y-111046077D01*
X169856446Y-111103165D01*
X169854775Y-111177908D01*
X169853513Y-111267900D01*
X169852715Y-111370739D01*
X169852437Y-111484019D01*
X169852437Y-111973688D01*
X169676659Y-111973688D01*
X169676659Y-110893906D01*
X169073990Y-110893906D01*
X169073990Y-110705571D01*
X169676659Y-110705571D01*
X169676659Y-109638344D01*
X169852437Y-109638344D01*
X169852437Y-110123079D01*
X169852438Y-110138910D01*
X169852509Y-110259224D01*
X169852773Y-110356972D01*
X169853334Y-110434431D01*
X169854298Y-110493875D01*
X169855769Y-110537582D01*
X169857853Y-110567826D01*
X169860654Y-110586885D01*
X169864277Y-110597034D01*
X169868827Y-110600549D01*
X169874410Y-110599707D01*
X169884833Y-110595320D01*
X169923907Y-110574963D01*
X169977462Y-110543625D01*
X170041292Y-110504007D01*
X170111188Y-110458809D01*
X170182945Y-110410733D01*
X170252355Y-110362478D01*
X170315211Y-110316746D01*
X170366978Y-110276544D01*
X170461951Y-110197104D01*
X170562892Y-110106742D01*
X170664501Y-110010533D01*
X170761475Y-109913550D01*
X170848514Y-109820868D01*
X170920317Y-109737561D01*
X170954904Y-109694973D01*
X170991835Y-109649587D01*
X171021621Y-109613076D01*
X171039931Y-109590757D01*
X171066030Y-109559207D01*
X171149792Y-109625033D01*
G37*
G36*
X174228437Y-100310432D02*
G01*
X174230160Y-100317896D01*
X174228320Y-100319399D01*
X174213419Y-100317896D01*
X174211455Y-100314120D01*
X174221790Y-100309526D01*
X174228437Y-100310432D01*
G37*
G36*
X174272012Y-111044573D02*
G01*
X173782344Y-111044573D01*
X173782344Y-110592571D01*
X174272012Y-110592571D01*
X174272012Y-111044573D01*
G37*
G36*
X171497222Y-115225591D02*
G01*
X171383987Y-115225591D01*
X171387244Y-115850233D01*
X171390500Y-116474874D01*
X171497222Y-116482596D01*
X171497222Y-116656931D01*
X170706219Y-116656931D01*
X170706219Y-115225591D01*
X170856652Y-115225591D01*
X170859908Y-115850233D01*
X170863164Y-116474874D01*
X171048359Y-116478349D01*
X171233555Y-116481823D01*
X171233555Y-115225591D01*
X170856652Y-115225591D01*
X170706219Y-115225591D01*
X170706219Y-115049813D01*
X171497222Y-115049813D01*
X171497222Y-115225591D01*
G37*
G36*
X170907109Y-113970030D02*
G01*
X171222931Y-113970030D01*
X171260710Y-113932251D01*
X171298489Y-113894471D01*
X171294272Y-113686830D01*
X171292980Y-113619443D01*
X171292339Y-113561904D01*
X171292956Y-113523033D01*
X171295190Y-113499375D01*
X171299397Y-113487479D01*
X171305937Y-113483889D01*
X171315166Y-113485152D01*
X171324439Y-113487137D01*
X171358642Y-113493284D01*
X171399916Y-113499719D01*
X171459556Y-113508324D01*
X171459556Y-113731465D01*
X171459554Y-113744710D01*
X171459372Y-113821546D01*
X171458499Y-113878424D01*
X171456401Y-113919839D01*
X171452539Y-113950284D01*
X171446378Y-113974252D01*
X171437380Y-113996239D01*
X171425009Y-114020736D01*
X171405124Y-114055448D01*
X171380444Y-114086759D01*
X171350481Y-114109446D01*
X171311273Y-114124999D01*
X171258860Y-114134914D01*
X171189283Y-114140682D01*
X171098582Y-114143797D01*
X170907109Y-114148062D01*
X170907109Y-114547588D01*
X170756441Y-114547588D01*
X170756441Y-114145809D01*
X170605774Y-114145809D01*
X170605774Y-113970030D01*
X170756441Y-113970030D01*
X170756441Y-112701913D01*
X170907109Y-112701913D01*
X170907109Y-113970030D01*
G37*
G36*
X173537878Y-99092538D02*
G01*
X173539602Y-99100002D01*
X173537761Y-99101505D01*
X173522861Y-99100002D01*
X173520897Y-99096226D01*
X173531231Y-99091632D01*
X173537878Y-99092538D01*
G37*
G36*
X173355453Y-98940964D02*
G01*
X173354547Y-98947611D01*
X173347082Y-98949335D01*
X173345580Y-98947495D01*
X173347082Y-98932594D01*
X173350859Y-98930630D01*
X173355453Y-98940964D01*
G37*
G36*
X173434585Y-99351595D02*
G01*
X173443342Y-99361577D01*
X173442751Y-99363393D01*
X173430786Y-99374133D01*
X173424136Y-99375138D01*
X173418231Y-99361577D01*
X173420149Y-99352003D01*
X173430786Y-99349022D01*
X173434585Y-99351595D01*
G37*
G36*
X169940327Y-112350356D02*
G01*
X171497222Y-112350356D01*
X171497222Y-112526135D01*
X169940327Y-112526135D01*
X169940327Y-112764691D01*
X169764548Y-112764691D01*
X169764548Y-112526135D01*
X169073990Y-112526135D01*
X169073990Y-112350356D01*
X169764548Y-112350356D01*
X169764548Y-112099244D01*
X169940327Y-112099244D01*
X169940327Y-112350356D01*
G37*
G36*
X173429795Y-99410753D02*
G01*
X173428907Y-99423488D01*
X173423201Y-99427233D01*
X173420713Y-99422791D01*
X173422210Y-99403168D01*
X173426729Y-99397356D01*
X173429795Y-99410753D01*
G37*
G36*
X173430786Y-98934687D02*
G01*
X173424509Y-98940964D01*
X173418231Y-98934687D01*
X173424509Y-98928409D01*
X173430786Y-98934687D01*
G37*
%TD*%
%LPC*%
D14*
%TO.C,J6*%
X106940000Y-115940000D03*
D15*
X109480000Y-115940000D03*
X112020000Y-115940000D03*
X114560000Y-115940000D03*
%TD*%
D16*
%TO.C,HOLE2*%
X104170000Y-115860000D03*
%TD*%
D17*
%TO.C,J7*%
X133240000Y-102320000D03*
D18*
X135780000Y-102320000D03*
X133240000Y-104860000D03*
X135780000Y-104860000D03*
X133240000Y-107400000D03*
X135780000Y-107400000D03*
X133240000Y-109940000D03*
X135780000Y-109940000D03*
X133240000Y-112480000D03*
X135780000Y-112480000D03*
%TD*%
D19*
%TO.C,HOLE8*%
X178414000Y-94810000D03*
%TD*%
%TO.C,HOLE7*%
X178434000Y-119950000D03*
%TD*%
D17*
%TO.C,J2*%
X181808500Y-95792000D03*
D18*
X184348500Y-95792000D03*
X181808500Y-98332000D03*
X184348500Y-98332000D03*
X181808500Y-100872000D03*
X184348500Y-100872000D03*
X181808500Y-103412000D03*
X184348500Y-103412000D03*
X181808500Y-105952000D03*
X184348500Y-105952000D03*
X181808500Y-108492000D03*
X184348500Y-108492000D03*
X181808500Y-111032000D03*
X184348500Y-111032000D03*
X181808500Y-113572000D03*
X184348500Y-113572000D03*
X181808500Y-116112000D03*
X184348500Y-116112000D03*
X181808500Y-118652000D03*
X184348500Y-118652000D03*
%TD*%
D14*
%TO.C,J4*%
X164415000Y-119864000D03*
D15*
X166955000Y-119864000D03*
%TD*%
D16*
%TO.C,HOLE1*%
X104170000Y-98860000D03*
%TD*%
D20*
%TO.C,J5*%
X162901500Y-112450000D03*
D18*
X160361500Y-112450000D03*
X162901500Y-109910000D03*
X160361500Y-109910000D03*
X162901500Y-107370000D03*
X160361500Y-107370000D03*
X162901500Y-104830000D03*
X160361500Y-104830000D03*
X162901500Y-102290000D03*
X160361500Y-102290000D03*
%TD*%
D19*
%TO.C,HOLE6*%
X160554000Y-119920000D03*
%TD*%
D21*
%TO.C,USB1*%
X108489000Y-110340000D03*
X108489000Y-104560000D03*
D22*
X108989000Y-103125000D03*
X108989000Y-111775000D03*
D23*
X104789000Y-103125000D03*
X104789000Y-111775000D03*
%TD*%
D14*
%TO.C,J1*%
X164405000Y-94894000D03*
D15*
X166945000Y-94894000D03*
X169485000Y-94894000D03*
X172025000Y-94894000D03*
X174565000Y-94894000D03*
%TD*%
D19*
%TO.C,HOLE4*%
X134710000Y-99260000D03*
%TD*%
%TO.C,HOLE5*%
X160514000Y-94810000D03*
%TD*%
%TO.C,HOLE3*%
X134670000Y-115510000D03*
%TD*%
D14*
%TO.C,J3*%
X171975000Y-119864000D03*
D15*
X174515000Y-119864000D03*
%TD*%
M02*
