%TF.GenerationSoftware,KiCad,Pcbnew,8.0.6*%
%TF.CreationDate,2024-11-28T18:01:06+08:00*%
%TF.ProjectId,UINIO-DAPLink,55494e49-4f2d-4444-9150-4c696e6b2e6b,Version 5.0.0*%
%TF.SameCoordinates,PX6192070PY5393438*%
%TF.FileFunction,Profile,NP*%
%FSLAX46Y46*%
G04 Gerber Fmt 4.6, Leading zero omitted, Abs format (unit mm)*
G04 Created by KiCad (PCBNEW 8.0.6) date 2024-11-28 18:01:06*
%MOMM*%
%LPD*%
G01*
G04 APERTURE LIST*
%TA.AperFunction,Profile*%
%ADD10C,0.100000*%
%TD*%
G04 APERTURE END LIST*
D10*
X44000000Y-30000000D02*
X0Y-30000000D01*
X51050000Y-3000000D02*
G75*
G02*
X54050000Y0I3000000J0D01*
G01*
X89050000Y0D02*
G75*
G02*
X92050000Y-3000000I0J-3000000D01*
G01*
X89050000Y-30000000D02*
X54050000Y-30000000D01*
X-3000000Y-27000000D02*
X-3000000Y-3000000D01*
X0Y0D02*
X44000000Y0D01*
X44000000Y0D02*
G75*
G02*
X47000000Y-3000000I0J-3000000D01*
G01*
X0Y-30000000D02*
G75*
G02*
X-3000000Y-27000000I0J3000000D01*
G01*
X92050000Y-3000000D02*
X92050000Y-27000000D01*
X-3000000Y-3000000D02*
G75*
G02*
X0Y0I3000000J0D01*
G01*
X54050000Y-30000000D02*
G75*
G02*
X51050000Y-27000000I0J3000000D01*
G01*
X47000000Y-3000000D02*
X47000000Y-11000000D01*
X54050000Y0D02*
X89050000Y0D01*
X47000000Y-11000000D02*
X51050000Y-11000000D01*
X47000000Y-19000000D02*
X51050000Y-19000000D01*
X47000000Y-27000000D02*
X47000000Y-19000000D01*
X51050000Y-3000000D02*
X51050000Y-11000000D01*
X92050000Y-27000000D02*
G75*
G02*
X89050000Y-30000000I-3000000J0D01*
G01*
X47000000Y-27000000D02*
G75*
G02*
X44000000Y-30000000I-3000000J0D01*
G01*
X51050000Y-27000000D02*
X51050000Y-19000000D01*
M02*
