%TF.GenerationSoftware,KiCad,Pcbnew,8.0.6*%
%TF.CreationDate,2024-11-27T14:42:17+08:00*%
%TF.ProjectId,UINIO-DAPLink,55494e49-4f2d-4444-9150-4c696e6b2e6b,Version 5.0.0*%
%TF.SameCoordinates,PX6192070PY5393438*%
%TF.FileFunction,Legend,Bot*%
%TF.FilePolarity,Positive*%
%FSLAX46Y46*%
G04 Gerber Fmt 4.6, Leading zero omitted, Abs format (unit mm)*
G04 Created by KiCad (PCBNEW 8.0.6) date 2024-11-27 14:42:17*
%MOMM*%
%LPD*%
G01*
G04 APERTURE LIST*
G04 Aperture macros list*
%AMRoundRect*
0 Rectangle with rounded corners*
0 $1 Rounding radius*
0 $2 $3 $4 $5 $6 $7 $8 $9 X,Y pos of 4 corners*
0 Add a 4 corners polygon primitive as box body*
4,1,4,$2,$3,$4,$5,$6,$7,$8,$9,$2,$3,0*
0 Add four circle primitives for the rounded corners*
1,1,$1+$1,$2,$3*
1,1,$1+$1,$4,$5*
1,1,$1+$1,$6,$7*
1,1,$1+$1,$8,$9*
0 Add four rect primitives between the rounded corners*
20,1,$1+$1,$2,$3,$4,$5,0*
20,1,$1+$1,$4,$5,$6,$7,0*
20,1,$1+$1,$6,$7,$8,$9,0*
20,1,$1+$1,$8,$9,$2,$3,0*%
G04 Aperture macros list end*
%ADD10C,0.100000*%
%ADD11C,0.300000*%
%ADD12C,0.150000*%
%ADD13C,0.250000*%
%ADD14R,1.700000X1.700000*%
%ADD15O,1.700000X1.700000*%
%ADD16C,2.200000*%
%ADD17RoundRect,0.250000X-0.600000X-0.600000X0.600000X-0.600000X0.600000X0.600000X-0.600000X0.600000X0*%
%ADD18C,1.700000*%
%ADD19C,0.650000*%
%ADD20O,2.100000X1.000000*%
%ADD21O,1.900000X1.000000*%
G04 APERTURE END LIST*
D10*
X84995000Y-12075001D02*
X90195000Y-12075001D01*
X84995000Y-20745001D02*
X90195000Y-20745001D01*
X47000000Y-11100000D02*
X51050000Y-11100000D01*
X51050000Y-18900000D01*
X47000000Y-18900000D01*
X47000000Y-11100000D01*
X84995000Y-26525001D02*
X90195000Y-26525001D01*
X84995000Y-9185001D02*
X90195000Y-9185001D01*
X84995000Y-3405001D02*
X90195000Y-3405001D01*
X84995000Y-17855001D02*
X90195000Y-17855001D01*
X84995000Y-23635001D02*
X90195000Y-23635001D01*
X84995000Y-534001D02*
X90195000Y-534001D01*
X90195000Y-29434001D01*
X84995000Y-29434001D01*
X84995000Y-534001D01*
X84995000Y-14965001D02*
X90195000Y-14965001D01*
X90230000Y-9230000D02*
X94790000Y-9230000D01*
X94790000Y-20770000D01*
X90230000Y-20770000D01*
X90230000Y-9230000D01*
G36*
X90230000Y-9230000D02*
G01*
X94790000Y-9230000D01*
X94790000Y-20770000D01*
X90230000Y-20770000D01*
X90230000Y-9230000D01*
G37*
X84995000Y-6295001D02*
X90195000Y-6295001D01*
X87595000Y-539001D02*
X87595000Y-29429001D01*
G36*
X85958557Y-8432125D02*
G01*
X85960334Y-8395018D01*
X85965426Y-8359639D01*
X85973479Y-8326223D01*
X85987170Y-8287574D01*
X86004240Y-8252825D01*
X86023999Y-8222436D01*
X86045752Y-8196870D01*
X86374356Y-8196870D01*
X86374356Y-8454693D01*
X86255703Y-8454693D01*
X86255703Y-8326294D01*
X86111576Y-8326294D01*
X86093937Y-8357586D01*
X86085706Y-8390777D01*
X86083878Y-8416396D01*
X86086376Y-8454780D01*
X86093758Y-8489431D01*
X86110916Y-8529810D01*
X86136078Y-8563513D01*
X86168856Y-8590520D01*
X86208861Y-8610808D01*
X86243374Y-8621602D01*
X86281568Y-8628594D01*
X86323282Y-8631776D01*
X86337940Y-8631989D01*
X86380279Y-8629806D01*
X86419193Y-8623416D01*
X86454520Y-8613056D01*
X86486100Y-8598963D01*
X86522096Y-8574778D01*
X86550759Y-8544943D01*
X86571707Y-8510020D01*
X86584556Y-8470574D01*
X86588924Y-8427167D01*
X86586251Y-8392687D01*
X86577041Y-8357951D01*
X86559904Y-8323992D01*
X86537374Y-8294406D01*
X86527887Y-8284065D01*
X86620382Y-8207641D01*
X86646821Y-8236836D01*
X86667181Y-8265482D01*
X86684988Y-8298213D01*
X86699276Y-8335175D01*
X86709079Y-8376519D01*
X86713042Y-8412849D01*
X86713561Y-8432125D01*
X86711926Y-8467842D01*
X86707061Y-8502494D01*
X86699025Y-8535911D01*
X86681157Y-8583344D01*
X86656490Y-8627036D01*
X86625225Y-8666407D01*
X86587565Y-8700882D01*
X86559003Y-8720859D01*
X86527748Y-8738232D01*
X86493859Y-8752830D01*
X86457395Y-8764482D01*
X86418417Y-8773016D01*
X86376983Y-8778262D01*
X86333153Y-8780049D01*
X86288853Y-8778305D01*
X86247206Y-8773177D01*
X86208240Y-8764819D01*
X86171984Y-8753383D01*
X86138466Y-8739024D01*
X86107714Y-8721896D01*
X86079756Y-8702152D01*
X86043121Y-8667968D01*
X86012933Y-8628764D01*
X85989287Y-8585058D01*
X85972279Y-8537371D01*
X85964675Y-8503623D01*
X85960091Y-8468490D01*
X85958557Y-8432125D01*
G37*
G36*
X85969500Y-8041458D02*
G01*
X85969500Y-7904169D01*
X86258781Y-7904169D01*
X86297851Y-7904902D01*
X86337645Y-7906876D01*
X86377687Y-7909755D01*
X86417499Y-7913202D01*
X86456603Y-7916881D01*
X86494523Y-7920455D01*
X86509252Y-7921779D01*
X86509252Y-7916992D01*
X86354695Y-7843475D01*
X85969500Y-7633695D01*
X85969500Y-7486661D01*
X86691677Y-7486661D01*
X86691677Y-7623950D01*
X86402225Y-7623950D01*
X86363603Y-7623150D01*
X86323608Y-7621005D01*
X86283047Y-7617899D01*
X86242725Y-7614216D01*
X86203449Y-7610338D01*
X86166024Y-7606650D01*
X86151754Y-7605314D01*
X86151754Y-7610272D01*
X86307336Y-7682763D01*
X86691677Y-7893398D01*
X86691677Y-8041458D01*
X85969500Y-8041458D01*
G37*
G36*
X86377047Y-6751547D02*
G01*
X86418147Y-6756283D01*
X86456300Y-6764080D01*
X86491522Y-6774862D01*
X86523829Y-6788550D01*
X86566863Y-6814360D01*
X86603435Y-6846271D01*
X86633601Y-6884020D01*
X86657417Y-6927344D01*
X86674941Y-6975980D01*
X86683156Y-7011226D01*
X86688615Y-7048637D01*
X86691337Y-7088137D01*
X86691677Y-7108646D01*
X86691677Y-7307655D01*
X85969500Y-7307655D01*
X85969500Y-7117537D01*
X86086101Y-7117537D01*
X86086101Y-7162502D01*
X86574904Y-7162502D01*
X86574904Y-7117537D01*
X86573128Y-7080872D01*
X86567654Y-7047059D01*
X86554229Y-7006696D01*
X86533330Y-6972085D01*
X86504441Y-6943619D01*
X86467048Y-6921687D01*
X86433113Y-6909762D01*
X86393887Y-6901897D01*
X86349154Y-6898257D01*
X86332982Y-6898011D01*
X86286439Y-6900206D01*
X86245187Y-6906681D01*
X86209069Y-6917271D01*
X86177931Y-6931812D01*
X86143889Y-6957060D01*
X86118054Y-6988647D01*
X86100056Y-7026182D01*
X86089528Y-7069276D01*
X86086312Y-7105008D01*
X86086101Y-7117537D01*
X85969500Y-7117537D01*
X85969500Y-7100782D01*
X85970922Y-7061651D01*
X85975188Y-7024397D01*
X85982298Y-6989109D01*
X85992249Y-6955876D01*
X86012503Y-6910077D01*
X86039146Y-6869405D01*
X86072174Y-6834163D01*
X86111585Y-6804651D01*
X86157374Y-6781172D01*
X86191443Y-6769021D01*
X86228344Y-6759774D01*
X86268076Y-6753521D01*
X86310639Y-6750351D01*
X86332982Y-6749951D01*
X86377047Y-6751547D01*
G37*
G36*
X85958557Y-25742126D02*
G01*
X85960334Y-25705019D01*
X85965426Y-25669640D01*
X85973479Y-25636224D01*
X85987170Y-25597575D01*
X86004240Y-25562826D01*
X86023999Y-25532437D01*
X86045752Y-25506871D01*
X86374356Y-25506871D01*
X86374356Y-25764694D01*
X86255703Y-25764694D01*
X86255703Y-25636295D01*
X86111576Y-25636295D01*
X86093937Y-25667587D01*
X86085706Y-25700778D01*
X86083878Y-25726397D01*
X86086376Y-25764781D01*
X86093758Y-25799432D01*
X86110916Y-25839811D01*
X86136078Y-25873514D01*
X86168856Y-25900521D01*
X86208861Y-25920809D01*
X86243374Y-25931603D01*
X86281568Y-25938595D01*
X86323282Y-25941777D01*
X86337940Y-25941990D01*
X86380279Y-25939807D01*
X86419193Y-25933417D01*
X86454520Y-25923057D01*
X86486100Y-25908964D01*
X86522096Y-25884779D01*
X86550759Y-25854944D01*
X86571707Y-25820021D01*
X86584556Y-25780575D01*
X86588924Y-25737168D01*
X86586251Y-25702688D01*
X86577041Y-25667952D01*
X86559904Y-25633993D01*
X86537374Y-25604407D01*
X86527887Y-25594066D01*
X86620382Y-25517642D01*
X86646821Y-25546837D01*
X86667181Y-25575483D01*
X86684988Y-25608214D01*
X86699276Y-25645176D01*
X86709079Y-25686520D01*
X86713042Y-25722850D01*
X86713561Y-25742126D01*
X86711926Y-25777843D01*
X86707061Y-25812495D01*
X86699025Y-25845912D01*
X86681157Y-25893345D01*
X86656490Y-25937037D01*
X86625225Y-25976408D01*
X86587565Y-26010883D01*
X86559003Y-26030860D01*
X86527748Y-26048233D01*
X86493859Y-26062831D01*
X86457395Y-26074483D01*
X86418417Y-26083017D01*
X86376983Y-26088263D01*
X86333153Y-26090050D01*
X86288853Y-26088306D01*
X86247206Y-26083178D01*
X86208240Y-26074820D01*
X86171984Y-26063384D01*
X86138466Y-26049025D01*
X86107714Y-26031897D01*
X86079756Y-26012153D01*
X86043121Y-25977969D01*
X86012933Y-25938765D01*
X85989287Y-25895059D01*
X85972279Y-25847372D01*
X85964675Y-25813624D01*
X85960091Y-25778491D01*
X85958557Y-25742126D01*
G37*
G36*
X85969500Y-25351459D02*
G01*
X85969500Y-25214170D01*
X86258781Y-25214170D01*
X86297851Y-25214903D01*
X86337645Y-25216877D01*
X86377687Y-25219756D01*
X86417499Y-25223203D01*
X86456603Y-25226882D01*
X86494523Y-25230456D01*
X86509252Y-25231780D01*
X86509252Y-25226993D01*
X86354695Y-25153476D01*
X85969500Y-24943696D01*
X85969500Y-24796662D01*
X86691677Y-24796662D01*
X86691677Y-24933951D01*
X86402225Y-24933951D01*
X86363603Y-24933151D01*
X86323608Y-24931006D01*
X86283047Y-24927900D01*
X86242725Y-24924217D01*
X86203449Y-24920339D01*
X86166024Y-24916651D01*
X86151754Y-24915315D01*
X86151754Y-24920273D01*
X86307336Y-24992764D01*
X86691677Y-25203399D01*
X86691677Y-25351459D01*
X85969500Y-25351459D01*
G37*
G36*
X86377047Y-24061548D02*
G01*
X86418147Y-24066284D01*
X86456300Y-24074081D01*
X86491522Y-24084863D01*
X86523829Y-24098551D01*
X86566863Y-24124361D01*
X86603435Y-24156272D01*
X86633601Y-24194021D01*
X86657417Y-24237345D01*
X86674941Y-24285981D01*
X86683156Y-24321227D01*
X86688615Y-24358638D01*
X86691337Y-24398138D01*
X86691677Y-24418647D01*
X86691677Y-24617656D01*
X85969500Y-24617656D01*
X85969500Y-24427538D01*
X86086101Y-24427538D01*
X86086101Y-24472503D01*
X86574904Y-24472503D01*
X86574904Y-24427538D01*
X86573128Y-24390873D01*
X86567654Y-24357060D01*
X86554229Y-24316697D01*
X86533330Y-24282086D01*
X86504441Y-24253620D01*
X86467048Y-24231688D01*
X86433113Y-24219763D01*
X86393887Y-24211898D01*
X86349154Y-24208258D01*
X86332982Y-24208012D01*
X86286439Y-24210207D01*
X86245187Y-24216682D01*
X86209069Y-24227272D01*
X86177931Y-24241813D01*
X86143889Y-24267061D01*
X86118054Y-24298648D01*
X86100056Y-24336183D01*
X86089528Y-24379277D01*
X86086312Y-24415009D01*
X86086101Y-24427538D01*
X85969500Y-24427538D01*
X85969500Y-24410783D01*
X85970922Y-24371652D01*
X85975188Y-24334398D01*
X85982298Y-24299110D01*
X85992249Y-24265877D01*
X86012503Y-24220078D01*
X86039146Y-24179406D01*
X86072174Y-24144164D01*
X86111585Y-24114652D01*
X86157374Y-24091173D01*
X86191443Y-24079022D01*
X86228344Y-24069775D01*
X86268076Y-24063522D01*
X86310639Y-24060352D01*
X86332982Y-24059952D01*
X86377047Y-24061548D01*
G37*
G36*
X85958557Y-14182125D02*
G01*
X85960334Y-14145018D01*
X85965426Y-14109639D01*
X85973479Y-14076223D01*
X85987170Y-14037574D01*
X86004240Y-14002825D01*
X86023999Y-13972436D01*
X86045752Y-13946870D01*
X86374356Y-13946870D01*
X86374356Y-14204693D01*
X86255703Y-14204693D01*
X86255703Y-14076294D01*
X86111576Y-14076294D01*
X86093937Y-14107586D01*
X86085706Y-14140777D01*
X86083878Y-14166396D01*
X86086376Y-14204780D01*
X86093758Y-14239431D01*
X86110916Y-14279810D01*
X86136078Y-14313513D01*
X86168856Y-14340520D01*
X86208861Y-14360808D01*
X86243374Y-14371602D01*
X86281568Y-14378594D01*
X86323282Y-14381776D01*
X86337940Y-14381989D01*
X86380279Y-14379806D01*
X86419193Y-14373416D01*
X86454520Y-14363056D01*
X86486100Y-14348963D01*
X86522096Y-14324778D01*
X86550759Y-14294943D01*
X86571707Y-14260020D01*
X86584556Y-14220574D01*
X86588924Y-14177167D01*
X86586251Y-14142687D01*
X86577041Y-14107951D01*
X86559904Y-14073992D01*
X86537374Y-14044406D01*
X86527887Y-14034065D01*
X86620382Y-13957641D01*
X86646821Y-13986836D01*
X86667181Y-14015482D01*
X86684988Y-14048213D01*
X86699276Y-14085175D01*
X86709079Y-14126519D01*
X86713042Y-14162849D01*
X86713561Y-14182125D01*
X86711926Y-14217842D01*
X86707061Y-14252494D01*
X86699025Y-14285911D01*
X86681157Y-14333344D01*
X86656490Y-14377036D01*
X86625225Y-14416407D01*
X86587565Y-14450882D01*
X86559003Y-14470859D01*
X86527748Y-14488232D01*
X86493859Y-14502830D01*
X86457395Y-14514482D01*
X86418417Y-14523016D01*
X86376983Y-14528262D01*
X86333153Y-14530049D01*
X86288853Y-14528305D01*
X86247206Y-14523177D01*
X86208240Y-14514819D01*
X86171984Y-14503383D01*
X86138466Y-14489024D01*
X86107714Y-14471896D01*
X86079756Y-14452152D01*
X86043121Y-14417968D01*
X86012933Y-14378764D01*
X85989287Y-14335058D01*
X85972279Y-14287371D01*
X85964675Y-14253623D01*
X85960091Y-14218490D01*
X85958557Y-14182125D01*
G37*
G36*
X85969500Y-13791458D02*
G01*
X85969500Y-13654169D01*
X86258781Y-13654169D01*
X86297851Y-13654902D01*
X86337645Y-13656876D01*
X86377687Y-13659755D01*
X86417499Y-13663202D01*
X86456603Y-13666881D01*
X86494523Y-13670455D01*
X86509252Y-13671779D01*
X86509252Y-13666992D01*
X86354695Y-13593475D01*
X85969500Y-13383695D01*
X85969500Y-13236661D01*
X86691677Y-13236661D01*
X86691677Y-13373950D01*
X86402225Y-13373950D01*
X86363603Y-13373150D01*
X86323608Y-13371005D01*
X86283047Y-13367899D01*
X86242725Y-13364216D01*
X86203449Y-13360338D01*
X86166024Y-13356650D01*
X86151754Y-13355314D01*
X86151754Y-13360272D01*
X86307336Y-13432763D01*
X86691677Y-13643398D01*
X86691677Y-13791458D01*
X85969500Y-13791458D01*
G37*
G36*
X86377047Y-12501547D02*
G01*
X86418147Y-12506283D01*
X86456300Y-12514080D01*
X86491522Y-12524862D01*
X86523829Y-12538550D01*
X86566863Y-12564360D01*
X86603435Y-12596271D01*
X86633601Y-12634020D01*
X86657417Y-12677344D01*
X86674941Y-12725980D01*
X86683156Y-12761226D01*
X86688615Y-12798637D01*
X86691337Y-12838137D01*
X86691677Y-12858646D01*
X86691677Y-13057655D01*
X85969500Y-13057655D01*
X85969500Y-12867537D01*
X86086101Y-12867537D01*
X86086101Y-12912502D01*
X86574904Y-12912502D01*
X86574904Y-12867537D01*
X86573128Y-12830872D01*
X86567654Y-12797059D01*
X86554229Y-12756696D01*
X86533330Y-12722085D01*
X86504441Y-12693619D01*
X86467048Y-12671687D01*
X86433113Y-12659762D01*
X86393887Y-12651897D01*
X86349154Y-12648257D01*
X86332982Y-12648011D01*
X86286439Y-12650206D01*
X86245187Y-12656681D01*
X86209069Y-12667271D01*
X86177931Y-12681812D01*
X86143889Y-12707060D01*
X86118054Y-12738647D01*
X86100056Y-12776182D01*
X86089528Y-12819276D01*
X86086312Y-12855008D01*
X86086101Y-12867537D01*
X85969500Y-12867537D01*
X85969500Y-12850782D01*
X85970922Y-12811651D01*
X85975188Y-12774397D01*
X85982298Y-12739109D01*
X85992249Y-12705876D01*
X86012503Y-12660077D01*
X86039146Y-12619405D01*
X86072174Y-12584163D01*
X86111585Y-12554651D01*
X86157374Y-12531172D01*
X86191443Y-12519021D01*
X86228344Y-12509774D01*
X86268076Y-12503521D01*
X86310639Y-12500351D01*
X86332982Y-12499951D01*
X86377047Y-12501547D01*
G37*
G36*
X88539500Y-14230679D02*
G01*
X88539500Y-14085697D01*
X89140117Y-14085697D01*
X89140117Y-13879849D01*
X89261677Y-13879849D01*
X89261677Y-14434647D01*
X89140117Y-14434647D01*
X89140117Y-14230679D01*
X88539500Y-14230679D01*
G37*
G36*
X88528557Y-13496876D02*
G01*
X88530287Y-13462337D01*
X88537259Y-13421390D01*
X88549475Y-13382940D01*
X88566829Y-13347010D01*
X88589217Y-13313623D01*
X88616532Y-13282804D01*
X88635243Y-13265554D01*
X88725857Y-13341977D01*
X88700048Y-13369008D01*
X88678972Y-13398956D01*
X88663683Y-13432187D01*
X88655232Y-13469066D01*
X88653878Y-13491918D01*
X88658295Y-13532981D01*
X88671288Y-13569862D01*
X88692476Y-13602163D01*
X88721476Y-13629485D01*
X88757905Y-13651429D01*
X88789872Y-13664119D01*
X88825641Y-13673391D01*
X88865051Y-13679078D01*
X88907940Y-13681011D01*
X88950319Y-13678888D01*
X88989257Y-13672698D01*
X89024595Y-13662713D01*
X89056175Y-13649202D01*
X89092160Y-13626172D01*
X89120804Y-13597997D01*
X89141731Y-13565318D01*
X89154563Y-13528775D01*
X89158924Y-13489012D01*
X89155428Y-13454731D01*
X89143716Y-13419382D01*
X89125157Y-13387425D01*
X89101191Y-13358138D01*
X89097887Y-13354629D01*
X89190382Y-13279231D01*
X89217202Y-13308421D01*
X89237636Y-13336792D01*
X89255372Y-13368649D01*
X89269514Y-13403811D01*
X89279167Y-13442099D01*
X89283433Y-13483334D01*
X89283561Y-13491918D01*
X89279893Y-13542588D01*
X89269024Y-13591091D01*
X89251153Y-13636813D01*
X89226481Y-13679138D01*
X89195208Y-13717451D01*
X89157534Y-13751137D01*
X89128962Y-13770719D01*
X89097693Y-13787789D01*
X89063787Y-13802165D01*
X89027304Y-13813663D01*
X88988302Y-13822101D01*
X88946842Y-13827298D01*
X88902982Y-13829071D01*
X88858712Y-13827354D01*
X88817091Y-13822314D01*
X88778148Y-13814120D01*
X88741912Y-13802939D01*
X88708410Y-13788939D01*
X88677672Y-13772288D01*
X88636808Y-13742708D01*
X88602323Y-13708106D01*
X88574312Y-13669049D01*
X88552873Y-13626103D01*
X88538100Y-13579835D01*
X88530091Y-13530811D01*
X88528557Y-13496876D01*
G37*
G36*
X88539500Y-13149294D02*
G01*
X88539500Y-13004141D01*
X88742099Y-13004141D01*
X88864001Y-12909081D01*
X88539500Y-12721014D01*
X88539500Y-12562183D01*
X88977012Y-12822913D01*
X89261677Y-12601335D01*
X89261677Y-12761192D01*
X88947776Y-13001234D01*
X88947776Y-13004141D01*
X89261677Y-13004141D01*
X89261677Y-13149294D01*
X88539500Y-13149294D01*
G37*
G36*
X85958557Y-2685391D02*
G01*
X85960527Y-2647180D01*
X85966364Y-2610568D01*
X85975959Y-2576026D01*
X85989203Y-2544026D01*
X86012349Y-2506129D01*
X86041530Y-2474707D01*
X86076487Y-2450879D01*
X86116961Y-2435762D01*
X86162696Y-2430474D01*
X86203560Y-2434902D01*
X86239515Y-2447511D01*
X86270437Y-2467292D01*
X86296199Y-2493236D01*
X86316677Y-2524332D01*
X86331746Y-2559572D01*
X86336230Y-2574602D01*
X86341188Y-2574602D01*
X86357053Y-2541533D01*
X86376286Y-2513236D01*
X86403827Y-2486061D01*
X86436255Y-2466838D01*
X86473590Y-2456155D01*
X86501216Y-2454068D01*
X86544350Y-2458427D01*
X86582331Y-2471112D01*
X86614974Y-2491539D01*
X86642095Y-2519122D01*
X86663511Y-2553278D01*
X86679036Y-2593419D01*
X86686703Y-2627103D01*
X86690875Y-2663577D01*
X86691677Y-2689323D01*
X86689145Y-2728127D01*
X86681794Y-2764853D01*
X86669986Y-2799698D01*
X86654085Y-2832863D01*
X86634456Y-2864547D01*
X86611463Y-2894950D01*
X86601405Y-2906797D01*
X86513013Y-2833280D01*
X86537141Y-2805038D01*
X86556195Y-2776404D01*
X86571040Y-2742317D01*
X86577695Y-2705793D01*
X86577982Y-2696162D01*
X86573422Y-2659532D01*
X86557590Y-2627657D01*
X86527348Y-2605545D01*
X86490445Y-2599051D01*
X86453104Y-2605749D01*
X86422331Y-2627797D01*
X86402474Y-2661136D01*
X86391346Y-2700510D01*
X86386439Y-2740366D01*
X86385299Y-2775492D01*
X86281349Y-2775492D01*
X86280257Y-2734100D01*
X86277035Y-2698448D01*
X86269557Y-2659211D01*
X86255357Y-2622286D01*
X86231676Y-2593530D01*
X86195675Y-2577743D01*
X86171415Y-2575628D01*
X86135543Y-2582519D01*
X86104228Y-2605824D01*
X86085985Y-2637862D01*
X86077638Y-2672657D01*
X86076014Y-2699068D01*
X86079256Y-2734681D01*
X86088393Y-2767734D01*
X86105320Y-2803204D01*
X86127657Y-2835507D01*
X86150044Y-2860806D01*
X86059430Y-2928339D01*
X86033527Y-2902486D01*
X86010427Y-2872521D01*
X85990781Y-2838191D01*
X85975237Y-2799242D01*
X85966192Y-2764584D01*
X85960522Y-2726678D01*
X85958557Y-2685391D01*
G37*
G36*
X85958557Y-2217959D02*
G01*
X85965797Y-2181927D01*
X85985699Y-2153332D01*
X86015539Y-2134483D01*
X86052591Y-2127686D01*
X86090004Y-2134483D01*
X86119803Y-2153332D01*
X86139505Y-2181927D01*
X86146624Y-2217959D01*
X86139505Y-2253371D01*
X86119803Y-2281602D01*
X86090004Y-2300281D01*
X86052591Y-2307034D01*
X86015539Y-2300281D01*
X85985699Y-2281602D01*
X85965797Y-2253371D01*
X85958557Y-2217959D01*
G37*
G36*
X85958557Y-1790192D02*
G01*
X85960527Y-1751981D01*
X85966364Y-1715369D01*
X85975959Y-1680827D01*
X85989203Y-1648827D01*
X86012349Y-1610930D01*
X86041530Y-1579508D01*
X86076487Y-1555680D01*
X86116961Y-1540563D01*
X86162696Y-1535275D01*
X86203560Y-1539703D01*
X86239515Y-1552312D01*
X86270437Y-1572093D01*
X86296199Y-1598037D01*
X86316677Y-1629133D01*
X86331746Y-1664373D01*
X86336230Y-1679403D01*
X86341188Y-1679403D01*
X86357053Y-1646334D01*
X86376286Y-1618037D01*
X86403827Y-1590862D01*
X86436255Y-1571639D01*
X86473590Y-1560956D01*
X86501216Y-1558869D01*
X86544350Y-1563228D01*
X86582331Y-1575913D01*
X86614974Y-1596340D01*
X86642095Y-1623923D01*
X86663511Y-1658079D01*
X86679036Y-1698221D01*
X86686703Y-1731904D01*
X86690875Y-1768379D01*
X86691677Y-1794124D01*
X86689145Y-1832929D01*
X86681794Y-1869654D01*
X86669986Y-1904499D01*
X86654085Y-1937664D01*
X86634456Y-1969348D01*
X86611463Y-1999751D01*
X86601405Y-2011598D01*
X86513013Y-1938081D01*
X86537141Y-1909839D01*
X86556195Y-1881205D01*
X86571040Y-1847118D01*
X86577695Y-1810595D01*
X86577982Y-1800963D01*
X86573422Y-1764334D01*
X86557590Y-1732458D01*
X86527348Y-1710346D01*
X86490445Y-1703852D01*
X86453104Y-1710550D01*
X86422331Y-1732599D01*
X86402474Y-1765937D01*
X86391346Y-1805311D01*
X86386439Y-1845167D01*
X86385299Y-1880293D01*
X86281349Y-1880293D01*
X86280257Y-1838901D01*
X86277035Y-1803249D01*
X86269557Y-1764012D01*
X86255357Y-1727087D01*
X86231676Y-1698332D01*
X86195675Y-1682544D01*
X86171415Y-1680429D01*
X86135543Y-1687320D01*
X86104228Y-1710626D01*
X86085985Y-1742663D01*
X86077638Y-1777458D01*
X86076014Y-1803869D01*
X86079256Y-1839483D01*
X86088393Y-1872535D01*
X86105320Y-1908005D01*
X86127657Y-1940308D01*
X86150044Y-1965607D01*
X86059430Y-2033140D01*
X86033527Y-2007287D01*
X86010427Y-1977323D01*
X85990781Y-1942993D01*
X85975237Y-1904043D01*
X85966192Y-1869386D01*
X85960522Y-1831479D01*
X85958557Y-1790192D01*
G37*
G36*
X85969500Y-1264972D02*
G01*
X85969500Y-1091437D01*
X86691677Y-869860D01*
X86691677Y-1016894D01*
X86339821Y-1111099D01*
X86303100Y-1121165D01*
X86267072Y-1130586D01*
X86231376Y-1139696D01*
X86195651Y-1148828D01*
X86159539Y-1158312D01*
X86122678Y-1168484D01*
X86107643Y-1172819D01*
X86107643Y-1177606D01*
X86144906Y-1187736D01*
X86181283Y-1197178D01*
X86217145Y-1206243D01*
X86252858Y-1215246D01*
X86288789Y-1224500D01*
X86325308Y-1234317D01*
X86340162Y-1238472D01*
X86691677Y-1334557D01*
X86691677Y-1486378D01*
X85969500Y-1264972D01*
G37*
G36*
X88539500Y-8349374D02*
G01*
X88539500Y-8204392D01*
X89140117Y-8204392D01*
X89140117Y-7998544D01*
X89261677Y-7998544D01*
X89261677Y-8553342D01*
X89140117Y-8553342D01*
X89140117Y-8349374D01*
X88539500Y-8349374D01*
G37*
G36*
X88947047Y-7325321D02*
G01*
X88988147Y-7330057D01*
X89026300Y-7337855D01*
X89061522Y-7348636D01*
X89093829Y-7362324D01*
X89136863Y-7388135D01*
X89173435Y-7420046D01*
X89203601Y-7457795D01*
X89227417Y-7501119D01*
X89244941Y-7549755D01*
X89253156Y-7585000D01*
X89258615Y-7622412D01*
X89261337Y-7661912D01*
X89261677Y-7682420D01*
X89261677Y-7881430D01*
X88539500Y-7881430D01*
X88539500Y-7691311D01*
X88656101Y-7691311D01*
X88656101Y-7736276D01*
X89144904Y-7736276D01*
X89144904Y-7691311D01*
X89143128Y-7654646D01*
X89137654Y-7620833D01*
X89124229Y-7580470D01*
X89103330Y-7545860D01*
X89074441Y-7517393D01*
X89037048Y-7495462D01*
X89003113Y-7483536D01*
X88963887Y-7475671D01*
X88919154Y-7472031D01*
X88902982Y-7471785D01*
X88856439Y-7473980D01*
X88815187Y-7480455D01*
X88779069Y-7491046D01*
X88747931Y-7505586D01*
X88713889Y-7530834D01*
X88688054Y-7562421D01*
X88670056Y-7599957D01*
X88659528Y-7643050D01*
X88656312Y-7678783D01*
X88656101Y-7691311D01*
X88539500Y-7691311D01*
X88539500Y-7674556D01*
X88540922Y-7635425D01*
X88545188Y-7598171D01*
X88552298Y-7562883D01*
X88562249Y-7529651D01*
X88582503Y-7483851D01*
X88609146Y-7443179D01*
X88642174Y-7407937D01*
X88681585Y-7378425D01*
X88727374Y-7354947D01*
X88761443Y-7342795D01*
X88798344Y-7333548D01*
X88838076Y-7327295D01*
X88880639Y-7324126D01*
X88902982Y-7323725D01*
X88947047Y-7325321D01*
G37*
G36*
X88539500Y-7181820D02*
G01*
X88539500Y-7036667D01*
X89261677Y-7036667D01*
X89261677Y-7181820D01*
X88539500Y-7181820D01*
G37*
G36*
X85958557Y-11302125D02*
G01*
X85960334Y-11265018D01*
X85965426Y-11229639D01*
X85973479Y-11196223D01*
X85987170Y-11157574D01*
X86004240Y-11122825D01*
X86023999Y-11092436D01*
X86045752Y-11066870D01*
X86374356Y-11066870D01*
X86374356Y-11324693D01*
X86255703Y-11324693D01*
X86255703Y-11196294D01*
X86111576Y-11196294D01*
X86093937Y-11227586D01*
X86085706Y-11260777D01*
X86083878Y-11286396D01*
X86086376Y-11324780D01*
X86093758Y-11359431D01*
X86110916Y-11399810D01*
X86136078Y-11433513D01*
X86168856Y-11460520D01*
X86208861Y-11480808D01*
X86243374Y-11491602D01*
X86281568Y-11498594D01*
X86323282Y-11501776D01*
X86337940Y-11501989D01*
X86380279Y-11499806D01*
X86419193Y-11493416D01*
X86454520Y-11483056D01*
X86486100Y-11468963D01*
X86522096Y-11444778D01*
X86550759Y-11414943D01*
X86571707Y-11380020D01*
X86584556Y-11340574D01*
X86588924Y-11297167D01*
X86586251Y-11262687D01*
X86577041Y-11227951D01*
X86559904Y-11193992D01*
X86537374Y-11164406D01*
X86527887Y-11154065D01*
X86620382Y-11077641D01*
X86646821Y-11106836D01*
X86667181Y-11135482D01*
X86684988Y-11168213D01*
X86699276Y-11205175D01*
X86709079Y-11246519D01*
X86713042Y-11282849D01*
X86713561Y-11302125D01*
X86711926Y-11337842D01*
X86707061Y-11372494D01*
X86699025Y-11405911D01*
X86681157Y-11453344D01*
X86656490Y-11497036D01*
X86625225Y-11536407D01*
X86587565Y-11570882D01*
X86559003Y-11590859D01*
X86527748Y-11608232D01*
X86493859Y-11622830D01*
X86457395Y-11634482D01*
X86418417Y-11643016D01*
X86376983Y-11648262D01*
X86333153Y-11650049D01*
X86288853Y-11648305D01*
X86247206Y-11643177D01*
X86208240Y-11634819D01*
X86171984Y-11623383D01*
X86138466Y-11609024D01*
X86107714Y-11591896D01*
X86079756Y-11572152D01*
X86043121Y-11537968D01*
X86012933Y-11498764D01*
X85989287Y-11455058D01*
X85972279Y-11407371D01*
X85964675Y-11373623D01*
X85960091Y-11338490D01*
X85958557Y-11302125D01*
G37*
G36*
X85969500Y-10911458D02*
G01*
X85969500Y-10774169D01*
X86258781Y-10774169D01*
X86297851Y-10774902D01*
X86337645Y-10776876D01*
X86377687Y-10779755D01*
X86417499Y-10783202D01*
X86456603Y-10786881D01*
X86494523Y-10790455D01*
X86509252Y-10791779D01*
X86509252Y-10786992D01*
X86354695Y-10713475D01*
X85969500Y-10503695D01*
X85969500Y-10356661D01*
X86691677Y-10356661D01*
X86691677Y-10493950D01*
X86402225Y-10493950D01*
X86363603Y-10493150D01*
X86323608Y-10491005D01*
X86283047Y-10487899D01*
X86242725Y-10484216D01*
X86203449Y-10480338D01*
X86166024Y-10476650D01*
X86151754Y-10475314D01*
X86151754Y-10480272D01*
X86307336Y-10552763D01*
X86691677Y-10763398D01*
X86691677Y-10911458D01*
X85969500Y-10911458D01*
G37*
G36*
X86377047Y-9621547D02*
G01*
X86418147Y-9626283D01*
X86456300Y-9634080D01*
X86491522Y-9644862D01*
X86523829Y-9658550D01*
X86566863Y-9684360D01*
X86603435Y-9716271D01*
X86633601Y-9754020D01*
X86657417Y-9797344D01*
X86674941Y-9845980D01*
X86683156Y-9881226D01*
X86688615Y-9918637D01*
X86691337Y-9958137D01*
X86691677Y-9978646D01*
X86691677Y-10177655D01*
X85969500Y-10177655D01*
X85969500Y-9987537D01*
X86086101Y-9987537D01*
X86086101Y-10032502D01*
X86574904Y-10032502D01*
X86574904Y-9987537D01*
X86573128Y-9950872D01*
X86567654Y-9917059D01*
X86554229Y-9876696D01*
X86533330Y-9842085D01*
X86504441Y-9813619D01*
X86467048Y-9791687D01*
X86433113Y-9779762D01*
X86393887Y-9771897D01*
X86349154Y-9768257D01*
X86332982Y-9768011D01*
X86286439Y-9770206D01*
X86245187Y-9776681D01*
X86209069Y-9787271D01*
X86177931Y-9801812D01*
X86143889Y-9827060D01*
X86118054Y-9858647D01*
X86100056Y-9896182D01*
X86089528Y-9939276D01*
X86086312Y-9975008D01*
X86086101Y-9987537D01*
X85969500Y-9987537D01*
X85969500Y-9970782D01*
X85970922Y-9931651D01*
X85975188Y-9894397D01*
X85982298Y-9859109D01*
X85992249Y-9825876D01*
X86012503Y-9780077D01*
X86039146Y-9739405D01*
X86072174Y-9704163D01*
X86111585Y-9674651D01*
X86157374Y-9651172D01*
X86191443Y-9639021D01*
X86228344Y-9629774D01*
X86268076Y-9623521D01*
X86310639Y-9620351D01*
X86332982Y-9619951D01*
X86377047Y-9621547D01*
G37*
G36*
X85958557Y-5546125D02*
G01*
X85960334Y-5509018D01*
X85965426Y-5473639D01*
X85973479Y-5440223D01*
X85987170Y-5401574D01*
X86004240Y-5366825D01*
X86023999Y-5336436D01*
X86045752Y-5310870D01*
X86374356Y-5310870D01*
X86374356Y-5568693D01*
X86255703Y-5568693D01*
X86255703Y-5440294D01*
X86111576Y-5440294D01*
X86093937Y-5471586D01*
X86085706Y-5504777D01*
X86083878Y-5530396D01*
X86086376Y-5568780D01*
X86093758Y-5603431D01*
X86110916Y-5643810D01*
X86136078Y-5677513D01*
X86168856Y-5704520D01*
X86208861Y-5724808D01*
X86243374Y-5735602D01*
X86281568Y-5742594D01*
X86323282Y-5745776D01*
X86337940Y-5745989D01*
X86380279Y-5743806D01*
X86419193Y-5737416D01*
X86454520Y-5727056D01*
X86486100Y-5712963D01*
X86522096Y-5688778D01*
X86550759Y-5658943D01*
X86571707Y-5624020D01*
X86584556Y-5584574D01*
X86588924Y-5541167D01*
X86586251Y-5506687D01*
X86577041Y-5471951D01*
X86559904Y-5437992D01*
X86537374Y-5408406D01*
X86527887Y-5398065D01*
X86620382Y-5321641D01*
X86646821Y-5350836D01*
X86667181Y-5379482D01*
X86684988Y-5412213D01*
X86699276Y-5449175D01*
X86709079Y-5490519D01*
X86713042Y-5526849D01*
X86713561Y-5546125D01*
X86711926Y-5581842D01*
X86707061Y-5616494D01*
X86699025Y-5649911D01*
X86681157Y-5697344D01*
X86656490Y-5741036D01*
X86625225Y-5780407D01*
X86587565Y-5814882D01*
X86559003Y-5834859D01*
X86527748Y-5852232D01*
X86493859Y-5866830D01*
X86457395Y-5878482D01*
X86418417Y-5887016D01*
X86376983Y-5892262D01*
X86333153Y-5894049D01*
X86288853Y-5892305D01*
X86247206Y-5887177D01*
X86208240Y-5878819D01*
X86171984Y-5867383D01*
X86138466Y-5853024D01*
X86107714Y-5835896D01*
X86079756Y-5816152D01*
X86043121Y-5781968D01*
X86012933Y-5742764D01*
X85989287Y-5699058D01*
X85972279Y-5651371D01*
X85964675Y-5617623D01*
X85960091Y-5582490D01*
X85958557Y-5546125D01*
G37*
G36*
X85969500Y-5155458D02*
G01*
X85969500Y-5018169D01*
X86258781Y-5018169D01*
X86297851Y-5018902D01*
X86337645Y-5020876D01*
X86377687Y-5023755D01*
X86417499Y-5027202D01*
X86456603Y-5030881D01*
X86494523Y-5034455D01*
X86509252Y-5035779D01*
X86509252Y-5030992D01*
X86354695Y-4957475D01*
X85969500Y-4747695D01*
X85969500Y-4600661D01*
X86691677Y-4600661D01*
X86691677Y-4737950D01*
X86402225Y-4737950D01*
X86363603Y-4737150D01*
X86323608Y-4735005D01*
X86283047Y-4731899D01*
X86242725Y-4728216D01*
X86203449Y-4724338D01*
X86166024Y-4720650D01*
X86151754Y-4719314D01*
X86151754Y-4724272D01*
X86307336Y-4796763D01*
X86691677Y-5007398D01*
X86691677Y-5155458D01*
X85969500Y-5155458D01*
G37*
G36*
X86377047Y-3865547D02*
G01*
X86418147Y-3870283D01*
X86456300Y-3878080D01*
X86491522Y-3888862D01*
X86523829Y-3902550D01*
X86566863Y-3928360D01*
X86603435Y-3960271D01*
X86633601Y-3998020D01*
X86657417Y-4041344D01*
X86674941Y-4089980D01*
X86683156Y-4125226D01*
X86688615Y-4162637D01*
X86691337Y-4202137D01*
X86691677Y-4222646D01*
X86691677Y-4421655D01*
X85969500Y-4421655D01*
X85969500Y-4231537D01*
X86086101Y-4231537D01*
X86086101Y-4276502D01*
X86574904Y-4276502D01*
X86574904Y-4231537D01*
X86573128Y-4194872D01*
X86567654Y-4161059D01*
X86554229Y-4120696D01*
X86533330Y-4086085D01*
X86504441Y-4057619D01*
X86467048Y-4035687D01*
X86433113Y-4023762D01*
X86393887Y-4015897D01*
X86349154Y-4012257D01*
X86332982Y-4012011D01*
X86286439Y-4014206D01*
X86245187Y-4020681D01*
X86209069Y-4031271D01*
X86177931Y-4045812D01*
X86143889Y-4071060D01*
X86118054Y-4102647D01*
X86100056Y-4140182D01*
X86089528Y-4183276D01*
X86086312Y-4219008D01*
X86086101Y-4231537D01*
X85969500Y-4231537D01*
X85969500Y-4214782D01*
X85970922Y-4175651D01*
X85975188Y-4138397D01*
X85982298Y-4103109D01*
X85992249Y-4069876D01*
X86012503Y-4024077D01*
X86039146Y-3983405D01*
X86072174Y-3948163D01*
X86111585Y-3918651D01*
X86157374Y-3895172D01*
X86191443Y-3883021D01*
X86228344Y-3873774D01*
X86268076Y-3867521D01*
X86310639Y-3864351D01*
X86332982Y-3863951D01*
X86377047Y-3865547D01*
G37*
G36*
X88581000Y-23444120D02*
G01*
X88581000Y-23320582D01*
X88901055Y-23320582D01*
X88921147Y-23299177D01*
X88940018Y-23273449D01*
X88951470Y-23243538D01*
X88953372Y-23223129D01*
X88948351Y-23193282D01*
X88928917Y-23170663D01*
X88897064Y-23159707D01*
X88862848Y-23156803D01*
X88856212Y-23156744D01*
X88581000Y-23156744D01*
X88581000Y-23033206D01*
X88871160Y-23033206D01*
X88902959Y-23034372D01*
X88932168Y-23037919D01*
X88966881Y-23046468D01*
X88996502Y-23059532D01*
X89020753Y-23077276D01*
X89043091Y-23106283D01*
X89054242Y-23135150D01*
X89059118Y-23169227D01*
X89059325Y-23178579D01*
X89055949Y-23212895D01*
X89046535Y-23244200D01*
X89032156Y-23272855D01*
X89013884Y-23299218D01*
X88992791Y-23323650D01*
X88985319Y-23331426D01*
X88985319Y-23334064D01*
X89049946Y-23343296D01*
X89049946Y-23444120D01*
X88581000Y-23444120D01*
G37*
G36*
X88571621Y-22710219D02*
G01*
X88573842Y-22671398D01*
X88580272Y-22635805D01*
X88590560Y-22603569D01*
X88604356Y-22574819D01*
X88621309Y-22549684D01*
X88648218Y-22522016D01*
X88679284Y-22501309D01*
X88713676Y-22487869D01*
X88750564Y-22482002D01*
X88760078Y-22481754D01*
X88792008Y-22484030D01*
X88826822Y-22492987D01*
X88856508Y-22508233D01*
X88881639Y-22529233D01*
X88902789Y-22555448D01*
X88920530Y-22586344D01*
X88929778Y-22606904D01*
X88964363Y-22688384D01*
X88975915Y-22716941D01*
X88989812Y-22745979D01*
X89008849Y-22770875D01*
X89038083Y-22784454D01*
X89046136Y-22784957D01*
X89076899Y-22777104D01*
X89098567Y-22754824D01*
X89109416Y-22724457D01*
X89111935Y-22696004D01*
X89109325Y-22663708D01*
X89101663Y-22633791D01*
X89089197Y-22605728D01*
X89072174Y-22578994D01*
X89060497Y-22564113D01*
X89138899Y-22501098D01*
X89161256Y-22526245D01*
X89180151Y-22554090D01*
X89195450Y-22584134D01*
X89207020Y-22615878D01*
X89214726Y-22648820D01*
X89218433Y-22682463D01*
X89218766Y-22696004D01*
X89216748Y-22730396D01*
X89210872Y-22762589D01*
X89201409Y-22792325D01*
X89188627Y-22819345D01*
X89166889Y-22850701D01*
X89140370Y-22876156D01*
X89109709Y-22895098D01*
X89075544Y-22906912D01*
X89038515Y-22910987D01*
X89006247Y-22908156D01*
X88977571Y-22900156D01*
X88946495Y-22884012D01*
X88920381Y-22862387D01*
X88898866Y-22836724D01*
X88881589Y-22808465D01*
X88870574Y-22784957D01*
X88835256Y-22701866D01*
X88822619Y-22672627D01*
X88808196Y-22644301D01*
X88788955Y-22621104D01*
X88759165Y-22608954D01*
X88750846Y-22608516D01*
X88721079Y-22614909D01*
X88698456Y-22633832D01*
X88685385Y-22660365D01*
X88679763Y-22690313D01*
X88679039Y-22707728D01*
X88681881Y-22738731D01*
X88690028Y-22769915D01*
X88702912Y-22800530D01*
X88719966Y-22829830D01*
X88740621Y-22857066D01*
X88748208Y-22865557D01*
X88662332Y-22937072D01*
X88641773Y-22913355D01*
X88623676Y-22887777D01*
X88608128Y-22860606D01*
X88595214Y-22832108D01*
X88585021Y-22802553D01*
X88577634Y-22772208D01*
X88573138Y-22741340D01*
X88571621Y-22710219D01*
G37*
G36*
X88834670Y-22040065D02*
G01*
X88849928Y-22008422D01*
X88869666Y-21980879D01*
X88893985Y-21957955D01*
X88922984Y-21940165D01*
X88956765Y-21928027D01*
X88987300Y-21922732D01*
X89012284Y-21921510D01*
X89049589Y-21924171D01*
X89082121Y-21931903D01*
X89110120Y-21944328D01*
X89140817Y-21967544D01*
X89164457Y-21997537D01*
X89177899Y-22023942D01*
X89187934Y-22053278D01*
X89194803Y-22085169D01*
X89198747Y-22119237D01*
X89200009Y-22155104D01*
X89200009Y-22371845D01*
X88581000Y-22371845D01*
X88581000Y-22247428D01*
X88815473Y-22247428D01*
X88815473Y-22166827D01*
X88913658Y-22166827D01*
X88913658Y-22247428D01*
X89100797Y-22247428D01*
X89100797Y-22166827D01*
X89099083Y-22132070D01*
X89093609Y-22102679D01*
X89081380Y-22074797D01*
X89058222Y-22052920D01*
X89029772Y-22043724D01*
X89012284Y-22042557D01*
X88978857Y-22047193D01*
X88952291Y-22060857D01*
X88932615Y-22083175D01*
X88919857Y-22113778D01*
X88914531Y-22145341D01*
X88913658Y-22166827D01*
X88815473Y-22166827D01*
X88815473Y-22160966D01*
X88581000Y-22033324D01*
X88581000Y-21894692D01*
X88834670Y-22040065D01*
G37*
G36*
X88571621Y-21626953D02*
G01*
X88573842Y-21588132D01*
X88580272Y-21552540D01*
X88590560Y-21520304D01*
X88604356Y-21491553D01*
X88621309Y-21466418D01*
X88648218Y-21438750D01*
X88679284Y-21418043D01*
X88713676Y-21404603D01*
X88750564Y-21398736D01*
X88760078Y-21398488D01*
X88792008Y-21400764D01*
X88826822Y-21409721D01*
X88856508Y-21424967D01*
X88881639Y-21445967D01*
X88902789Y-21472182D01*
X88920530Y-21503078D01*
X88929778Y-21523638D01*
X88964363Y-21605118D01*
X88975915Y-21633675D01*
X88989812Y-21662713D01*
X89008849Y-21687609D01*
X89038083Y-21701188D01*
X89046136Y-21701691D01*
X89076899Y-21693839D01*
X89098567Y-21671558D01*
X89109416Y-21641191D01*
X89111935Y-21612738D01*
X89109325Y-21580443D01*
X89101663Y-21550525D01*
X89089197Y-21522462D01*
X89072174Y-21495729D01*
X89060497Y-21480847D01*
X89138899Y-21417832D01*
X89161256Y-21442979D01*
X89180151Y-21470824D01*
X89195450Y-21500868D01*
X89207020Y-21532612D01*
X89214726Y-21565555D01*
X89218433Y-21599197D01*
X89218766Y-21612738D01*
X89216748Y-21647130D01*
X89210872Y-21679323D01*
X89201409Y-21709059D01*
X89188627Y-21736080D01*
X89166889Y-21767435D01*
X89140370Y-21792891D01*
X89109709Y-21811832D01*
X89075544Y-21823646D01*
X89038515Y-21827721D01*
X89006247Y-21824890D01*
X88977571Y-21816890D01*
X88946495Y-21800746D01*
X88920381Y-21779121D01*
X88898866Y-21753458D01*
X88881589Y-21725199D01*
X88870574Y-21701691D01*
X88835256Y-21618600D01*
X88822619Y-21589361D01*
X88808196Y-21561035D01*
X88788955Y-21537838D01*
X88759165Y-21525689D01*
X88750846Y-21525250D01*
X88721079Y-21531643D01*
X88698456Y-21550566D01*
X88685385Y-21577099D01*
X88679763Y-21607048D01*
X88679039Y-21624462D01*
X88681881Y-21655466D01*
X88690028Y-21686649D01*
X88702912Y-21717264D01*
X88719966Y-21746564D01*
X88740621Y-21773800D01*
X88748208Y-21782292D01*
X88662332Y-21853806D01*
X88641773Y-21830089D01*
X88623676Y-21804512D01*
X88608128Y-21777340D01*
X88595214Y-21748842D01*
X88585021Y-21719287D01*
X88577634Y-21688942D01*
X88573138Y-21658075D01*
X88571621Y-21626953D01*
G37*
G36*
X88581000Y-21184385D02*
G01*
X88581000Y-21060114D01*
X89095815Y-21060114D01*
X89095815Y-20883673D01*
X89200009Y-20883673D01*
X89200009Y-21359214D01*
X89095815Y-21359214D01*
X89095815Y-21184385D01*
X88581000Y-21184385D01*
G37*
D11*
G36*
X23110921Y-17345338D02*
G01*
X23227195Y-17551949D01*
X23232588Y-17632578D01*
X23232588Y-19659305D01*
X23175630Y-19882042D01*
X22986896Y-19994922D01*
X22887473Y-20003321D01*
X21811461Y-20003321D01*
X21588012Y-19946545D01*
X21471738Y-19739934D01*
X21466346Y-19659305D01*
X21466346Y-17632578D01*
X21523303Y-17409841D01*
X21712038Y-17296961D01*
X21811461Y-17288562D01*
X22887473Y-17288562D01*
X23110921Y-17345338D01*
G37*
G36*
X32184330Y-17359548D02*
G01*
X32205582Y-17474309D01*
X32205582Y-18740464D01*
X32102722Y-18937824D01*
X31987961Y-18959183D01*
X31228488Y-18959183D01*
X31031128Y-18855804D01*
X31009769Y-18740464D01*
X31009769Y-17474309D01*
X31113148Y-17277940D01*
X31228488Y-17256688D01*
X31987961Y-17256688D01*
X32184330Y-17359548D01*
G37*
G36*
X39717794Y-21460631D02*
G01*
X6540753Y-21460631D01*
X6540753Y-20960631D01*
X11983373Y-20960631D01*
X13161600Y-20960631D01*
X13161600Y-20003321D01*
X11983373Y-20003321D01*
X11983373Y-20960631D01*
X6540753Y-20960631D01*
X6540753Y-17632578D01*
X7040753Y-17632578D01*
X7040753Y-20896884D01*
X8249755Y-20896884D01*
X8249755Y-17632578D01*
X8306712Y-17409841D01*
X8495447Y-17296961D01*
X8594870Y-17288562D01*
X9544486Y-17288562D01*
X9767935Y-17345338D01*
X9884209Y-17551949D01*
X9889601Y-17632578D01*
X9889601Y-20896884D01*
X11098603Y-20896884D01*
X11098603Y-19820872D01*
X13712246Y-19820872D01*
X14757483Y-19820872D01*
X14815735Y-19527414D01*
X15017797Y-19643695D01*
X15236550Y-19738646D01*
X15391660Y-19790097D01*
X15616957Y-19847027D01*
X15845031Y-19880236D01*
X15931314Y-19883520D01*
X16215979Y-19883520D01*
X16452456Y-19862133D01*
X16682579Y-19788202D01*
X16878355Y-19661463D01*
X16930390Y-19613143D01*
X17072971Y-19427671D01*
X17162745Y-19207853D01*
X17198390Y-18980650D01*
X17200767Y-18898733D01*
X17200767Y-17351210D01*
X17551377Y-17351210D01*
X18120707Y-17351210D01*
X18120707Y-19940673D01*
X17551377Y-19940673D01*
X17551377Y-20896884D01*
X19900139Y-20896884D01*
X19900139Y-19940673D01*
X19330808Y-19940673D01*
X19330808Y-17632578D01*
X20256245Y-17632578D01*
X20256245Y-19659305D01*
X20267180Y-19900702D01*
X20307579Y-20149709D01*
X20377746Y-20363583D01*
X20494387Y-20564992D01*
X20567288Y-20648489D01*
X20746234Y-20785051D01*
X20970930Y-20882595D01*
X21205068Y-20935940D01*
X21433636Y-20957888D01*
X21557570Y-20960631D01*
X23140264Y-20960631D01*
X23382034Y-20949657D01*
X23631379Y-20909115D01*
X23845487Y-20838700D01*
X24047033Y-20721647D01*
X24130547Y-20648489D01*
X24266628Y-20470023D01*
X24363829Y-20245671D01*
X24416986Y-20011721D01*
X24438856Y-19783230D01*
X24441590Y-19659305D01*
X24441590Y-17632578D01*
X24431734Y-17414958D01*
X24792201Y-17414958D01*
X26002302Y-17414958D01*
X26002302Y-17316039D01*
X26367201Y-17316039D01*
X26367201Y-18772337D01*
X26384649Y-19003765D01*
X26445990Y-19232755D01*
X26551496Y-19428534D01*
X26646370Y-19540603D01*
X26820540Y-19676085D01*
X27027747Y-19767227D01*
X27267991Y-19814029D01*
X27415735Y-19820872D01*
X29476534Y-19820872D01*
X29476534Y-18895436D01*
X27764148Y-18895436D01*
X27566787Y-18792576D01*
X27545428Y-18677815D01*
X27545428Y-17443534D01*
X27570509Y-17379787D01*
X29831541Y-17379787D01*
X29831541Y-17474309D01*
X29831541Y-18836085D01*
X29848989Y-19067512D01*
X29910330Y-19296503D01*
X30015837Y-19492282D01*
X30110711Y-19604351D01*
X30284880Y-19739301D01*
X30492087Y-19830085D01*
X30732331Y-19876704D01*
X30880076Y-19883520D01*
X32336374Y-19883520D01*
X32567801Y-19866072D01*
X32736536Y-19820872D01*
X33860815Y-19820872D01*
X34906053Y-19820872D01*
X34964305Y-19527414D01*
X35166366Y-19643695D01*
X35385120Y-19738646D01*
X35540229Y-19790097D01*
X35765526Y-19847027D01*
X35993601Y-19880236D01*
X36079884Y-19883520D01*
X36143631Y-19883520D01*
X36362990Y-19866007D01*
X36583290Y-19803101D01*
X36792371Y-19677646D01*
X36943771Y-19517522D01*
X37136975Y-19631055D01*
X37347842Y-19723808D01*
X37554866Y-19790097D01*
X37782676Y-19843286D01*
X38011347Y-19876130D01*
X38169259Y-19883520D01*
X38233007Y-19883520D01*
X38469039Y-19862133D01*
X38699076Y-19788202D01*
X38895195Y-19661463D01*
X38947417Y-19613143D01*
X39089998Y-19427671D01*
X39179772Y-19207853D01*
X39215417Y-18980650D01*
X39217794Y-18898733D01*
X39217794Y-16395000D01*
X38039566Y-16395000D01*
X38039566Y-18709689D01*
X37985711Y-18842679D01*
X37852721Y-18895436D01*
X37820847Y-18895436D01*
X37592098Y-18878898D01*
X37373138Y-18839850D01*
X37154050Y-18785068D01*
X37128418Y-18777833D01*
X37128418Y-16395000D01*
X35950191Y-16395000D01*
X35950191Y-18709689D01*
X35897434Y-18842679D01*
X35763345Y-18895436D01*
X35731471Y-18895436D01*
X35502723Y-18878898D01*
X35283763Y-18839850D01*
X35064674Y-18785068D01*
X35039043Y-18777833D01*
X35039043Y-16395000D01*
X33860815Y-16395000D01*
X33860815Y-19820872D01*
X32736536Y-19820872D01*
X32796792Y-19804731D01*
X32992571Y-19699225D01*
X33104640Y-19604351D01*
X33239590Y-19430712D01*
X33330374Y-19223863D01*
X33376993Y-18983802D01*
X33383809Y-18836085D01*
X33383809Y-17379787D01*
X33366361Y-17148290D01*
X33305020Y-16919059D01*
X33199514Y-16722864D01*
X33104640Y-16610422D01*
X32931001Y-16475472D01*
X32724152Y-16384687D01*
X32484091Y-16338068D01*
X32336374Y-16331252D01*
X30880076Y-16331252D01*
X30648579Y-16348700D01*
X30419348Y-16410041D01*
X30223153Y-16515548D01*
X30110711Y-16610422D01*
X29975761Y-16784591D01*
X29884976Y-16991798D01*
X29838357Y-17232042D01*
X29831541Y-17379787D01*
X27570509Y-17379787D01*
X27598185Y-17309445D01*
X27732274Y-17256688D01*
X27966728Y-17260127D01*
X28194753Y-17268247D01*
X28452454Y-17281143D01*
X28679984Y-17294899D01*
X28926507Y-17311712D01*
X29192024Y-17331581D01*
X29476534Y-17354508D01*
X29476534Y-16462044D01*
X29251118Y-16438670D01*
X29031131Y-16417595D01*
X28746260Y-16393072D01*
X28471040Y-16372636D01*
X28205472Y-16356287D01*
X27949555Y-16344025D01*
X27703290Y-16335850D01*
X27466676Y-16331763D01*
X27351988Y-16331252D01*
X27115955Y-16352639D01*
X26885919Y-16426571D01*
X26689799Y-16553310D01*
X26637577Y-16601629D01*
X26494996Y-16787573D01*
X26405222Y-17007435D01*
X26369577Y-17234309D01*
X26367201Y-17316039D01*
X26002302Y-17316039D01*
X26002302Y-16395000D01*
X24792201Y-16395000D01*
X24792201Y-17414958D01*
X24431734Y-17414958D01*
X24430655Y-17391143D01*
X24390256Y-17141993D01*
X24320089Y-16927871D01*
X24203448Y-16726050D01*
X24130547Y-16642295D01*
X23952013Y-16506214D01*
X23727454Y-16409013D01*
X23493211Y-16355856D01*
X23264385Y-16333986D01*
X23140264Y-16331252D01*
X21557570Y-16331252D01*
X21316135Y-16342187D01*
X21066985Y-16382586D01*
X20852863Y-16452753D01*
X20651042Y-16569395D01*
X20567288Y-16642295D01*
X20431206Y-16821241D01*
X20334005Y-17045937D01*
X20280849Y-17280075D01*
X20258978Y-17508643D01*
X20256245Y-17632578D01*
X19330808Y-17632578D01*
X19330808Y-17351210D01*
X19900139Y-17351210D01*
X19900139Y-16395000D01*
X17551377Y-16395000D01*
X17551377Y-17351210D01*
X17200767Y-17351210D01*
X17200767Y-16395000D01*
X16022539Y-16395000D01*
X16022539Y-18709689D01*
X15969783Y-18842679D01*
X15836792Y-18895436D01*
X15614776Y-18895436D01*
X15380425Y-18881539D01*
X15154081Y-18844788D01*
X14939542Y-18792074D01*
X14890473Y-18777833D01*
X14890473Y-16395000D01*
X13712246Y-16395000D01*
X13712246Y-19820872D01*
X11098603Y-19820872D01*
X11098603Y-18769040D01*
X11508565Y-18769040D01*
X11508565Y-19694476D01*
X13161600Y-19694476D01*
X13161600Y-16395000D01*
X11983373Y-16395000D01*
X11983373Y-18769040D01*
X11508565Y-18769040D01*
X11098603Y-18769040D01*
X11098603Y-17632578D01*
X11087668Y-17391143D01*
X11047269Y-17141993D01*
X10977102Y-16927871D01*
X10860461Y-16726050D01*
X10787560Y-16642295D01*
X10609026Y-16506214D01*
X10384468Y-16409013D01*
X10150225Y-16355856D01*
X9921399Y-16333986D01*
X9797277Y-16331252D01*
X8342079Y-16331252D01*
X8100308Y-16342187D01*
X7850963Y-16382586D01*
X7636856Y-16452753D01*
X7435310Y-16569395D01*
X7351796Y-16642295D01*
X7215714Y-16821241D01*
X7118513Y-17045937D01*
X7065357Y-17280075D01*
X7043486Y-17508643D01*
X7040753Y-17632578D01*
X6540753Y-17632578D01*
X6540753Y-15831252D01*
X39717794Y-15831252D01*
X39717794Y-21460631D01*
G37*
D12*
G36*
X88737240Y-16367200D02*
G01*
X88404581Y-16530598D01*
X88404581Y-16806104D01*
X88900638Y-16526446D01*
X89405000Y-16813676D01*
X89405000Y-16535483D01*
X89066235Y-16367200D01*
X89405000Y-16198916D01*
X89405000Y-15921212D01*
X88900638Y-16207709D01*
X88404581Y-15928784D01*
X88404581Y-16203557D01*
X88737240Y-16367200D01*
G37*
D10*
G36*
X88528557Y-2685391D02*
G01*
X88530527Y-2647180D01*
X88536364Y-2610568D01*
X88545959Y-2576026D01*
X88559203Y-2544026D01*
X88582349Y-2506129D01*
X88611530Y-2474707D01*
X88646487Y-2450879D01*
X88686961Y-2435762D01*
X88732696Y-2430474D01*
X88773560Y-2434902D01*
X88809515Y-2447511D01*
X88840437Y-2467292D01*
X88866199Y-2493236D01*
X88886677Y-2524332D01*
X88901746Y-2559572D01*
X88906230Y-2574602D01*
X88911188Y-2574602D01*
X88927053Y-2541533D01*
X88946286Y-2513236D01*
X88973827Y-2486061D01*
X89006255Y-2466838D01*
X89043590Y-2456155D01*
X89071216Y-2454068D01*
X89114350Y-2458427D01*
X89152331Y-2471112D01*
X89184974Y-2491539D01*
X89212095Y-2519122D01*
X89233511Y-2553278D01*
X89249036Y-2593419D01*
X89256703Y-2627103D01*
X89260875Y-2663577D01*
X89261677Y-2689323D01*
X89259145Y-2728127D01*
X89251794Y-2764853D01*
X89239986Y-2799698D01*
X89224085Y-2832863D01*
X89204456Y-2864547D01*
X89181463Y-2894950D01*
X89171405Y-2906797D01*
X89083013Y-2833280D01*
X89107141Y-2805038D01*
X89126195Y-2776404D01*
X89141040Y-2742317D01*
X89147695Y-2705793D01*
X89147982Y-2696162D01*
X89143422Y-2659532D01*
X89127590Y-2627657D01*
X89097348Y-2605545D01*
X89060445Y-2599051D01*
X89023104Y-2605749D01*
X88992331Y-2627797D01*
X88972474Y-2661136D01*
X88961346Y-2700510D01*
X88956439Y-2740366D01*
X88955299Y-2775492D01*
X88851349Y-2775492D01*
X88850257Y-2734100D01*
X88847035Y-2698448D01*
X88839557Y-2659211D01*
X88825357Y-2622286D01*
X88801676Y-2593530D01*
X88765675Y-2577743D01*
X88741415Y-2575628D01*
X88705543Y-2582519D01*
X88674228Y-2605824D01*
X88655985Y-2637862D01*
X88647638Y-2672657D01*
X88646014Y-2699068D01*
X88649256Y-2734681D01*
X88658393Y-2767734D01*
X88675320Y-2803204D01*
X88697657Y-2835507D01*
X88720044Y-2860806D01*
X88629430Y-2928339D01*
X88603527Y-2902486D01*
X88580427Y-2872521D01*
X88560781Y-2838191D01*
X88545237Y-2799242D01*
X88536192Y-2764584D01*
X88530522Y-2726678D01*
X88528557Y-2685391D01*
G37*
G36*
X88528557Y-2217959D02*
G01*
X88535797Y-2181927D01*
X88555699Y-2153332D01*
X88585539Y-2134483D01*
X88622591Y-2127686D01*
X88660004Y-2134483D01*
X88689803Y-2153332D01*
X88709505Y-2181927D01*
X88716624Y-2217959D01*
X88709505Y-2253371D01*
X88689803Y-2281602D01*
X88660004Y-2300281D01*
X88622591Y-2307034D01*
X88585539Y-2300281D01*
X88555699Y-2281602D01*
X88535797Y-2253371D01*
X88528557Y-2217959D01*
G37*
G36*
X88528557Y-1790192D02*
G01*
X88530527Y-1751981D01*
X88536364Y-1715369D01*
X88545959Y-1680827D01*
X88559203Y-1648827D01*
X88582349Y-1610930D01*
X88611530Y-1579508D01*
X88646487Y-1555680D01*
X88686961Y-1540563D01*
X88732696Y-1535275D01*
X88773560Y-1539703D01*
X88809515Y-1552312D01*
X88840437Y-1572093D01*
X88866199Y-1598037D01*
X88886677Y-1629133D01*
X88901746Y-1664373D01*
X88906230Y-1679403D01*
X88911188Y-1679403D01*
X88927053Y-1646334D01*
X88946286Y-1618037D01*
X88973827Y-1590862D01*
X89006255Y-1571639D01*
X89043590Y-1560956D01*
X89071216Y-1558869D01*
X89114350Y-1563228D01*
X89152331Y-1575913D01*
X89184974Y-1596340D01*
X89212095Y-1623923D01*
X89233511Y-1658079D01*
X89249036Y-1698221D01*
X89256703Y-1731904D01*
X89260875Y-1768379D01*
X89261677Y-1794124D01*
X89259145Y-1832929D01*
X89251794Y-1869654D01*
X89239986Y-1904499D01*
X89224085Y-1937664D01*
X89204456Y-1969348D01*
X89181463Y-1999751D01*
X89171405Y-2011598D01*
X89083013Y-1938081D01*
X89107141Y-1909839D01*
X89126195Y-1881205D01*
X89141040Y-1847118D01*
X89147695Y-1810595D01*
X89147982Y-1800963D01*
X89143422Y-1764334D01*
X89127590Y-1732458D01*
X89097348Y-1710346D01*
X89060445Y-1703852D01*
X89023104Y-1710550D01*
X88992331Y-1732599D01*
X88972474Y-1765937D01*
X88961346Y-1805311D01*
X88956439Y-1845167D01*
X88955299Y-1880293D01*
X88851349Y-1880293D01*
X88850257Y-1838901D01*
X88847035Y-1803249D01*
X88839557Y-1764012D01*
X88825357Y-1727087D01*
X88801676Y-1698332D01*
X88765675Y-1682544D01*
X88741415Y-1680429D01*
X88705543Y-1687320D01*
X88674228Y-1710626D01*
X88655985Y-1742663D01*
X88647638Y-1777458D01*
X88646014Y-1803869D01*
X88649256Y-1839483D01*
X88658393Y-1872535D01*
X88675320Y-1908005D01*
X88697657Y-1940308D01*
X88720044Y-1965607D01*
X88629430Y-2033140D01*
X88603527Y-2007287D01*
X88580427Y-1977323D01*
X88560781Y-1942993D01*
X88545237Y-1904043D01*
X88536192Y-1869386D01*
X88530522Y-1831479D01*
X88528557Y-1790192D01*
G37*
G36*
X88539500Y-1264972D02*
G01*
X88539500Y-1091437D01*
X89261677Y-869860D01*
X89261677Y-1016894D01*
X88909821Y-1111099D01*
X88873100Y-1121165D01*
X88837072Y-1130586D01*
X88801376Y-1139696D01*
X88765651Y-1148828D01*
X88729539Y-1158312D01*
X88692678Y-1168484D01*
X88677643Y-1172819D01*
X88677643Y-1177606D01*
X88714906Y-1187736D01*
X88751283Y-1197178D01*
X88787145Y-1206243D01*
X88822858Y-1215246D01*
X88858789Y-1224500D01*
X88895308Y-1234317D01*
X88910162Y-1238472D01*
X89261677Y-1334557D01*
X89261677Y-1486378D01*
X88539500Y-1264972D01*
G37*
D13*
G36*
X56598688Y-14040531D02*
G01*
X57155366Y-14040531D01*
X57155366Y-12461843D01*
X57150190Y-12346371D01*
X57131067Y-12227411D01*
X57091959Y-12112237D01*
X57034448Y-12019228D01*
X57008136Y-11990064D01*
X56911511Y-11918893D01*
X56801928Y-11875184D01*
X56687751Y-11852036D01*
X56576296Y-11843409D01*
X56536357Y-11842834D01*
X55824926Y-11842834D01*
X55709271Y-11848010D01*
X55590146Y-11867133D01*
X55474846Y-11906241D01*
X55381778Y-11963752D01*
X55352609Y-11990064D01*
X55281699Y-12086907D01*
X55238149Y-12196540D01*
X55215085Y-12310651D01*
X55206490Y-12421967D01*
X55205917Y-12461843D01*
X55205917Y-14040531D01*
X55762595Y-14040531D01*
X55762595Y-12461843D01*
X55784564Y-12356300D01*
X55876071Y-12285334D01*
X55948513Y-12276463D01*
X56412770Y-12276463D01*
X56518620Y-12298368D01*
X56589791Y-12389610D01*
X56598688Y-12461843D01*
X56598688Y-14040531D01*
G37*
G36*
X58535240Y-11874000D02*
G01*
X57421346Y-11874000D01*
X57421346Y-12307091D01*
X57699685Y-12307091D01*
X57699685Y-13607440D01*
X57421346Y-13607440D01*
X57421346Y-14040531D01*
X58535240Y-14040531D01*
X58535240Y-13607440D01*
X58256901Y-13607440D01*
X58256901Y-12307091D01*
X58535240Y-12307091D01*
X58535240Y-11874000D01*
G37*
G36*
X60693712Y-11874000D02*
G01*
X60105868Y-11874000D01*
X59362735Y-13173811D01*
X59362735Y-11874000D01*
X58806057Y-11874000D01*
X58806057Y-14040531D01*
X59393900Y-14040531D01*
X60136496Y-12740720D01*
X60136496Y-14040531D01*
X60693712Y-14040531D01*
X60693712Y-11874000D01*
G37*
G36*
X62075198Y-11874000D02*
G01*
X60961304Y-11874000D01*
X60961304Y-12307091D01*
X61239644Y-12307091D01*
X61239644Y-13607440D01*
X60961304Y-13607440D01*
X60961304Y-14040531D01*
X62075198Y-14040531D01*
X62075198Y-13607440D01*
X61796859Y-13607440D01*
X61796859Y-12307091D01*
X62075198Y-12307091D01*
X62075198Y-11874000D01*
G37*
G36*
X63716394Y-11843409D02*
G01*
X63827848Y-11852036D01*
X63942026Y-11875184D01*
X64051608Y-11918893D01*
X64148234Y-11990064D01*
X64174546Y-12019228D01*
X64232057Y-12112237D01*
X64271165Y-12227411D01*
X64290288Y-12346371D01*
X64295464Y-12461843D01*
X64295464Y-13452688D01*
X64294888Y-13492564D01*
X64286262Y-13603880D01*
X64263113Y-13717991D01*
X64219405Y-13827624D01*
X64148234Y-13924467D01*
X64119161Y-13950779D01*
X64026303Y-14008290D01*
X63911146Y-14047398D01*
X63792091Y-14066521D01*
X63676454Y-14071697D01*
X62902693Y-14071697D01*
X62862817Y-14071122D01*
X62751501Y-14062495D01*
X62637390Y-14039346D01*
X62527757Y-13995638D01*
X62430914Y-13924467D01*
X62404602Y-13895303D01*
X62347091Y-13802294D01*
X62307983Y-13687120D01*
X62288860Y-13568160D01*
X62283684Y-13452688D01*
X62283684Y-12461843D01*
X62840900Y-12461843D01*
X62840900Y-13452688D01*
X62849796Y-13524921D01*
X62920968Y-13616163D01*
X63026817Y-13638068D01*
X63552868Y-13638068D01*
X63625310Y-13629197D01*
X63716816Y-13558231D01*
X63738785Y-13452688D01*
X63738785Y-12461843D01*
X63729889Y-12389610D01*
X63658717Y-12298368D01*
X63552868Y-12276463D01*
X63026817Y-12276463D01*
X62954375Y-12285334D01*
X62862868Y-12356300D01*
X62840900Y-12461843D01*
X62283684Y-12461843D01*
X62284259Y-12421967D01*
X62292886Y-12310651D01*
X62316034Y-12196540D01*
X62359743Y-12086907D01*
X62430914Y-11990064D01*
X62460078Y-11963752D01*
X62553087Y-11906241D01*
X62668261Y-11867133D01*
X62787221Y-11848010D01*
X62902693Y-11842834D01*
X63676454Y-11842834D01*
X63716394Y-11843409D01*
G37*
G36*
X64501263Y-12740720D02*
G01*
X64501263Y-13173811D01*
X65769909Y-13173811D01*
X65769909Y-12740720D01*
X64501263Y-12740720D01*
G37*
G36*
X67352773Y-11878420D02*
G01*
X67468132Y-11895397D01*
X67587723Y-11931295D01*
X67691167Y-11984523D01*
X67778464Y-12055081D01*
X67840004Y-12128918D01*
X67895708Y-12230056D01*
X67934081Y-12347341D01*
X67953180Y-12460722D01*
X67959546Y-12585967D01*
X67959546Y-13328563D01*
X67955125Y-13433758D01*
X67938149Y-13549117D01*
X67902251Y-13668709D01*
X67849022Y-13772153D01*
X67778464Y-13859450D01*
X67704627Y-13920989D01*
X67603490Y-13976693D01*
X67486205Y-14015067D01*
X67372823Y-14034165D01*
X67247578Y-14040531D01*
X66040725Y-14040531D01*
X66040725Y-13607440D01*
X66597404Y-13607440D01*
X67123991Y-13607440D01*
X67232446Y-13594095D01*
X67332745Y-13537721D01*
X67389011Y-13437227D01*
X67402330Y-13328563D01*
X67402330Y-12585967D01*
X67389011Y-12477304D01*
X67332745Y-12376810D01*
X67232446Y-12320436D01*
X67123991Y-12307091D01*
X66597404Y-12307091D01*
X66597404Y-13607440D01*
X66040725Y-13607440D01*
X66040725Y-11874000D01*
X67247578Y-11874000D01*
X67352773Y-11878420D01*
G37*
G36*
X68690321Y-12260880D02*
G01*
X69464082Y-12260880D01*
X69603251Y-11874000D01*
X70206678Y-11874000D01*
X69386706Y-14040531D01*
X68767697Y-14040531D01*
X68246128Y-12663344D01*
X68829490Y-12663344D01*
X69077201Y-13390357D01*
X69324912Y-12663344D01*
X68829490Y-12663344D01*
X68246128Y-12663344D01*
X67947187Y-11874000D01*
X68551151Y-11874000D01*
X68690321Y-12260880D01*
G37*
G36*
X70906824Y-12493009D02*
G01*
X71649958Y-12493009D01*
X71689897Y-12493582D01*
X71801352Y-12502177D01*
X71915529Y-12525241D01*
X72025111Y-12568790D01*
X72121737Y-12639701D01*
X72148049Y-12668870D01*
X72205560Y-12761938D01*
X72244668Y-12877238D01*
X72263791Y-12996363D01*
X72268967Y-13112018D01*
X72268967Y-13421522D01*
X72268392Y-13461461D01*
X72259765Y-13572916D01*
X72236616Y-13687093D01*
X72192908Y-13796676D01*
X72121737Y-13893302D01*
X72092664Y-13919613D01*
X71999806Y-13977125D01*
X71884649Y-14016233D01*
X71765594Y-14035355D01*
X71649958Y-14040531D01*
X70350146Y-14040531D01*
X70350146Y-13607440D01*
X70906824Y-13607440D01*
X71525833Y-13607440D01*
X71598276Y-13598543D01*
X71689782Y-13527372D01*
X71711751Y-13421522D01*
X71711751Y-13112018D01*
X71702855Y-13039575D01*
X71631683Y-12948069D01*
X71525833Y-12926100D01*
X70906824Y-12926100D01*
X70906824Y-13607440D01*
X70350146Y-13607440D01*
X70350146Y-11874000D01*
X70906824Y-11874000D01*
X70906824Y-12493009D01*
G37*
G36*
X73092700Y-12307091D02*
G01*
X74222714Y-12307091D01*
X74222714Y-11874000D01*
X72536022Y-11874000D01*
X72536022Y-14040531D01*
X73092700Y-14040531D01*
X73092700Y-12307091D01*
G37*
G36*
X75079225Y-13452688D02*
G01*
X75079225Y-11874000D01*
X74537592Y-11874000D01*
X74537592Y-13034642D01*
X74305464Y-13034642D01*
X74305464Y-13452688D01*
X75079225Y-13452688D01*
G37*
G36*
X74537592Y-14071697D02*
G01*
X75079225Y-14071697D01*
X75079225Y-13638068D01*
X74537592Y-13638068D01*
X74537592Y-14071697D01*
G37*
G36*
X76295750Y-13096435D02*
G01*
X76177934Y-13089133D01*
X76061904Y-13069823D01*
X75950208Y-13042124D01*
X75924452Y-13034642D01*
X75924452Y-11874000D01*
X75382819Y-11874000D01*
X75382819Y-13514481D01*
X75862658Y-13514481D01*
X75893286Y-13359729D01*
X75994287Y-13419453D01*
X76097066Y-13467114D01*
X76192044Y-13499973D01*
X76300174Y-13527478D01*
X76409327Y-13543522D01*
X76450502Y-13545109D01*
X76589672Y-13545109D01*
X76701523Y-13535078D01*
X76810249Y-13500403D01*
X76902604Y-13440961D01*
X76927117Y-13418298D01*
X76993990Y-13330855D01*
X77036096Y-13227041D01*
X77052814Y-13119610D01*
X77053928Y-13080852D01*
X77053928Y-11874000D01*
X76512295Y-11874000D01*
X76512295Y-12988431D01*
X76481130Y-13065270D01*
X76404291Y-13096435D01*
X76295750Y-13096435D01*
G37*
G36*
X77863154Y-12524174D02*
G01*
X77863154Y-11874000D01*
X77321521Y-11874000D01*
X77321521Y-14040531D01*
X77863154Y-14040531D01*
X77863154Y-12941683D01*
X78110865Y-12941683D01*
X78450997Y-13514481D01*
X79023796Y-13514481D01*
X78559539Y-12725137D01*
X79023796Y-11874000D01*
X78450997Y-11874000D01*
X78095282Y-12524174D01*
X77863154Y-12524174D01*
G37*
D10*
G36*
X88539500Y-11431719D02*
G01*
X88539500Y-11286737D01*
X89140117Y-11286737D01*
X89140117Y-11080889D01*
X89261677Y-11080889D01*
X89261677Y-11635687D01*
X89140117Y-11635687D01*
X89140117Y-11431719D01*
X88539500Y-11431719D01*
G37*
G36*
X88539500Y-10963775D02*
G01*
X88539500Y-10833324D01*
X88840578Y-10833324D01*
X88881992Y-10834458D01*
X88919700Y-10836826D01*
X88958782Y-10840078D01*
X88997801Y-10843831D01*
X89035321Y-10847701D01*
X89069907Y-10851305D01*
X89076345Y-10851960D01*
X89076345Y-10848028D01*
X88908111Y-10790240D01*
X88605152Y-10677571D01*
X88605152Y-10594308D01*
X88908111Y-10482494D01*
X89076345Y-10423680D01*
X89076345Y-10418893D01*
X89035327Y-10423470D01*
X88997836Y-10427402D01*
X88958889Y-10431096D01*
X88919942Y-10434226D01*
X88882451Y-10436468D01*
X88847871Y-10437497D01*
X88841433Y-10437529D01*
X88539500Y-10437529D01*
X88539500Y-10305198D01*
X89261677Y-10305198D01*
X89261677Y-10465910D01*
X88923669Y-10586444D01*
X88889860Y-10597760D01*
X88855409Y-10608499D01*
X88820767Y-10619238D01*
X88786380Y-10630554D01*
X88786380Y-10635341D01*
X88820767Y-10646249D01*
X88855409Y-10657076D01*
X88889860Y-10668063D01*
X88923669Y-10679451D01*
X89261677Y-10803063D01*
X89261677Y-10963775D01*
X88539500Y-10963775D01*
G37*
G36*
X88528557Y-9910770D02*
G01*
X88531149Y-9865480D01*
X88538651Y-9823955D01*
X88550654Y-9786346D01*
X88566749Y-9752804D01*
X88586527Y-9723479D01*
X88617921Y-9691200D01*
X88654164Y-9667042D01*
X88694289Y-9651362D01*
X88737325Y-9644517D01*
X88748425Y-9644228D01*
X88785676Y-9646884D01*
X88826293Y-9657333D01*
X88860926Y-9675120D01*
X88890246Y-9699620D01*
X88914920Y-9730205D01*
X88935619Y-9766249D01*
X88946408Y-9790237D01*
X88986757Y-9885296D01*
X89000235Y-9918613D01*
X89016447Y-9952491D01*
X89038658Y-9981536D01*
X89072764Y-9997378D01*
X89082158Y-9997965D01*
X89118049Y-9988803D01*
X89143328Y-9962809D01*
X89155986Y-9927381D01*
X89158924Y-9894186D01*
X89155880Y-9856508D01*
X89146940Y-9821605D01*
X89132396Y-9788865D01*
X89112536Y-9757675D01*
X89098913Y-9740313D01*
X89190382Y-9666796D01*
X89216465Y-9696134D01*
X89238509Y-9728620D01*
X89256359Y-9763671D01*
X89269857Y-9800705D01*
X89278847Y-9839139D01*
X89283172Y-9878388D01*
X89283561Y-9894186D01*
X89281206Y-9934310D01*
X89274351Y-9971868D01*
X89263310Y-10006561D01*
X89248399Y-10038085D01*
X89223038Y-10074666D01*
X89192099Y-10104364D01*
X89156327Y-10126462D01*
X89116468Y-10140246D01*
X89073268Y-10144999D01*
X89035621Y-10141697D01*
X89002166Y-10132364D01*
X88965911Y-10113529D01*
X88935445Y-10088300D01*
X88910344Y-10058360D01*
X88890187Y-10025390D01*
X88877336Y-9997965D01*
X88836132Y-9901025D01*
X88821389Y-9866913D01*
X88804562Y-9833866D01*
X88782115Y-9806803D01*
X88747359Y-9792628D01*
X88737654Y-9792117D01*
X88702925Y-9799576D01*
X88676532Y-9821652D01*
X88661283Y-9852608D01*
X88654724Y-9887547D01*
X88653878Y-9907864D01*
X88657194Y-9944035D01*
X88666699Y-9980416D01*
X88681731Y-10016134D01*
X88701627Y-10050317D01*
X88725725Y-10082092D01*
X88734576Y-10091999D01*
X88634388Y-10175432D01*
X88610402Y-10147763D01*
X88589289Y-10117922D01*
X88571150Y-10086222D01*
X88556084Y-10052975D01*
X88544191Y-10018493D01*
X88535573Y-9983091D01*
X88530328Y-9947079D01*
X88528557Y-9910770D01*
G37*
G36*
X88539500Y-20048797D02*
G01*
X88539500Y-19903815D01*
X89140117Y-19903815D01*
X89140117Y-19697967D01*
X89261677Y-19697967D01*
X89261677Y-20252765D01*
X89140117Y-20252765D01*
X89140117Y-20048797D01*
X88539500Y-20048797D01*
G37*
G36*
X88947047Y-19024744D02*
G01*
X88988147Y-19029480D01*
X89026300Y-19037278D01*
X89061522Y-19048059D01*
X89093829Y-19061747D01*
X89136863Y-19087558D01*
X89173435Y-19119469D01*
X89203601Y-19157218D01*
X89227417Y-19200542D01*
X89244941Y-19249178D01*
X89253156Y-19284423D01*
X89258615Y-19321835D01*
X89261337Y-19361335D01*
X89261677Y-19381843D01*
X89261677Y-19580853D01*
X88539500Y-19580853D01*
X88539500Y-19390734D01*
X88656101Y-19390734D01*
X88656101Y-19435699D01*
X89144904Y-19435699D01*
X89144904Y-19390734D01*
X89143128Y-19354069D01*
X89137654Y-19320256D01*
X89124229Y-19279893D01*
X89103330Y-19245283D01*
X89074441Y-19216816D01*
X89037048Y-19194885D01*
X89003113Y-19182959D01*
X88963887Y-19175094D01*
X88919154Y-19171454D01*
X88902982Y-19171208D01*
X88856439Y-19173403D01*
X88815187Y-19179878D01*
X88779069Y-19190469D01*
X88747931Y-19205009D01*
X88713889Y-19230257D01*
X88688054Y-19261844D01*
X88670056Y-19299380D01*
X88659528Y-19342473D01*
X88656312Y-19378206D01*
X88656101Y-19390734D01*
X88539500Y-19390734D01*
X88539500Y-19373979D01*
X88540922Y-19334848D01*
X88545188Y-19297594D01*
X88552298Y-19262306D01*
X88562249Y-19229074D01*
X88582503Y-19183274D01*
X88609146Y-19142602D01*
X88642174Y-19107360D01*
X88681585Y-19077848D01*
X88727374Y-19054370D01*
X88761443Y-19042218D01*
X88798344Y-19032971D01*
X88838076Y-19026718D01*
X88880639Y-19023549D01*
X88902982Y-19023148D01*
X88947047Y-19024744D01*
G37*
G36*
X88952110Y-18270191D02*
G01*
X88992900Y-18274719D01*
X89031275Y-18282137D01*
X89067177Y-18292337D01*
X89100546Y-18305214D01*
X89131324Y-18320662D01*
X89172502Y-18348421D01*
X89207517Y-18381367D01*
X89236168Y-18419140D01*
X89258257Y-18461384D01*
X89273584Y-18507738D01*
X89281950Y-18557846D01*
X89283561Y-18593159D01*
X89281961Y-18628442D01*
X89273648Y-18678511D01*
X89258402Y-18724835D01*
X89236407Y-18767055D01*
X89207848Y-18804810D01*
X89172909Y-18837743D01*
X89131775Y-18865494D01*
X89101001Y-18880938D01*
X89067610Y-18893812D01*
X89031656Y-18904011D01*
X88993194Y-18911428D01*
X88952279Y-18915956D01*
X88908966Y-18917489D01*
X88865756Y-18915956D01*
X88824782Y-18911428D01*
X88786120Y-18904011D01*
X88749846Y-18893812D01*
X88716037Y-18880938D01*
X88684768Y-18865494D01*
X88642795Y-18837743D01*
X88606966Y-18804810D01*
X88577538Y-18767055D01*
X88554769Y-18724835D01*
X88538915Y-18678511D01*
X88530234Y-18628442D01*
X88528557Y-18593159D01*
X88653878Y-18593159D01*
X88658458Y-18631658D01*
X88671857Y-18666142D01*
X88693567Y-18696266D01*
X88723079Y-18721686D01*
X88759883Y-18742056D01*
X88803472Y-18757034D01*
X88840309Y-18764520D01*
X88880462Y-18768633D01*
X88908966Y-18769429D01*
X88951280Y-18767645D01*
X88990124Y-18762392D01*
X89025348Y-18753814D01*
X89066421Y-18737456D01*
X89100429Y-18715791D01*
X89127015Y-18689162D01*
X89145819Y-18657916D01*
X89156483Y-18622396D01*
X89158924Y-18593159D01*
X89154600Y-18554604D01*
X89141867Y-18520077D01*
X89121084Y-18489923D01*
X89092609Y-18464483D01*
X89056801Y-18444099D01*
X89014019Y-18429116D01*
X88977571Y-18421628D01*
X88937553Y-18417514D01*
X88908966Y-18416718D01*
X88866722Y-18418501D01*
X88827651Y-18423756D01*
X88791966Y-18432337D01*
X88750026Y-18448702D01*
X88714997Y-18470382D01*
X88687388Y-18497033D01*
X88667708Y-18528312D01*
X88656466Y-18563878D01*
X88653878Y-18593159D01*
X88528557Y-18593159D01*
X88530234Y-18557846D01*
X88538915Y-18507738D01*
X88554769Y-18461384D01*
X88577538Y-18419140D01*
X88606966Y-18381367D01*
X88642795Y-18348421D01*
X88684768Y-18320662D01*
X88716037Y-18305214D01*
X88749846Y-18292337D01*
X88786120Y-18282137D01*
X88824782Y-18274719D01*
X88865756Y-18270191D01*
X88908966Y-18268658D01*
X88952110Y-18270191D01*
G37*
D12*
G36*
X88737240Y-27967199D02*
G01*
X88404581Y-28130597D01*
X88404581Y-28406103D01*
X88900638Y-28126445D01*
X89405000Y-28413675D01*
X89405000Y-28135482D01*
X89066235Y-27967199D01*
X89405000Y-27798915D01*
X89405000Y-27521211D01*
X88900638Y-27807708D01*
X88404581Y-27528783D01*
X88404581Y-27803556D01*
X88737240Y-27967199D01*
G37*
D13*
G36*
X8808827Y-13876773D02*
G01*
X9567934Y-13876773D01*
X9567934Y-11724017D01*
X9560875Y-11566554D01*
X9534799Y-11404337D01*
X9481470Y-11247281D01*
X9403045Y-11120450D01*
X9367166Y-11080681D01*
X9235404Y-10983630D01*
X9085973Y-10924027D01*
X8930277Y-10892461D01*
X8778293Y-10880697D01*
X8723830Y-10879913D01*
X7753698Y-10879913D01*
X7595987Y-10886971D01*
X7433543Y-10913048D01*
X7276316Y-10966377D01*
X7149405Y-11044801D01*
X7109629Y-11080681D01*
X7012933Y-11212739D01*
X6953548Y-11362239D01*
X6922097Y-11517845D01*
X6910376Y-11669640D01*
X6909595Y-11724017D01*
X6909595Y-13876773D01*
X7668701Y-13876773D01*
X7668701Y-11724017D01*
X7698659Y-11580093D01*
X7823440Y-11483322D01*
X7922225Y-11471225D01*
X8555303Y-11471225D01*
X8699643Y-11501096D01*
X8796695Y-11625517D01*
X8808827Y-11724017D01*
X8808827Y-13876773D01*
G37*
G36*
X11449581Y-10922412D02*
G01*
X9930634Y-10922412D01*
X9930634Y-11512991D01*
X10310188Y-11512991D01*
X10310188Y-13286194D01*
X9930634Y-13286194D01*
X9930634Y-13876773D01*
X11449581Y-13876773D01*
X11449581Y-13286194D01*
X11070027Y-13286194D01*
X11070027Y-11512991D01*
X11449581Y-11512991D01*
X11449581Y-10922412D01*
G37*
G36*
X14392951Y-10922412D02*
G01*
X13591346Y-10922412D01*
X12577983Y-12694882D01*
X12577983Y-10922412D01*
X11818876Y-10922412D01*
X11818876Y-13876773D01*
X12620481Y-13876773D01*
X13633112Y-12104303D01*
X13633112Y-13876773D01*
X14392951Y-13876773D01*
X14392951Y-10922412D01*
G37*
G36*
X16276796Y-10922412D02*
G01*
X14757850Y-10922412D01*
X14757850Y-11512991D01*
X15137403Y-11512991D01*
X15137403Y-13286194D01*
X14757850Y-13286194D01*
X14757850Y-13876773D01*
X16276796Y-13876773D01*
X16276796Y-13286194D01*
X15897243Y-13286194D01*
X15897243Y-11512991D01*
X16276796Y-11512991D01*
X16276796Y-10922412D01*
G37*
G36*
X18514790Y-10880697D02*
G01*
X18666774Y-10892461D01*
X18822470Y-10924027D01*
X18971901Y-10983630D01*
X19103663Y-11080681D01*
X19139542Y-11120450D01*
X19217967Y-11247281D01*
X19271296Y-11404337D01*
X19297372Y-11566554D01*
X19304431Y-11724017D01*
X19304431Y-13075168D01*
X19303646Y-13129544D01*
X19291883Y-13281339D01*
X19260317Y-13436946D01*
X19200714Y-13586445D01*
X19103663Y-13718504D01*
X19064018Y-13754383D01*
X18937394Y-13832808D01*
X18780361Y-13886137D01*
X18618013Y-13912213D01*
X18460327Y-13919271D01*
X17405198Y-13919271D01*
X17350822Y-13918487D01*
X17199027Y-13906723D01*
X17043421Y-13875157D01*
X16893921Y-13815554D01*
X16761863Y-13718504D01*
X16725983Y-13678734D01*
X16647558Y-13551904D01*
X16594229Y-13394848D01*
X16568153Y-13232630D01*
X16561095Y-13075168D01*
X16561095Y-11724017D01*
X17320934Y-11724017D01*
X17320934Y-13075168D01*
X17333066Y-13173668D01*
X17430118Y-13298088D01*
X17574458Y-13327959D01*
X18291800Y-13327959D01*
X18390585Y-13315863D01*
X18515366Y-13219091D01*
X18545324Y-13075168D01*
X18545324Y-11724017D01*
X18533192Y-11625517D01*
X18436140Y-11501096D01*
X18291800Y-11471225D01*
X17574458Y-11471225D01*
X17475673Y-11483322D01*
X17350892Y-11580093D01*
X17320934Y-11724017D01*
X16561095Y-11724017D01*
X16561879Y-11669640D01*
X16573643Y-11517845D01*
X16605209Y-11362239D01*
X16664812Y-11212739D01*
X16761863Y-11080681D01*
X16801632Y-11044801D01*
X16928462Y-10966377D01*
X17085518Y-10913048D01*
X17247736Y-10886971D01*
X17405198Y-10879913D01*
X18460327Y-10879913D01*
X18514790Y-10880697D01*
G37*
G36*
X19585066Y-12104303D02*
G01*
X19585066Y-12694882D01*
X21315038Y-12694882D01*
X21315038Y-12104303D01*
X19585066Y-12104303D01*
G37*
G36*
X23473489Y-10928440D02*
G01*
X23630796Y-10951590D01*
X23793876Y-11000542D01*
X23934936Y-11073125D01*
X24053977Y-11169341D01*
X24137894Y-11270028D01*
X24213854Y-11407943D01*
X24266182Y-11567877D01*
X24292225Y-11722488D01*
X24300907Y-11893277D01*
X24300907Y-12905908D01*
X24294878Y-13049355D01*
X24271728Y-13206663D01*
X24222776Y-13369742D01*
X24150193Y-13510802D01*
X24053977Y-13629843D01*
X23953290Y-13713761D01*
X23815375Y-13789721D01*
X23655441Y-13842049D01*
X23500830Y-13868092D01*
X23330041Y-13876773D01*
X21684333Y-13876773D01*
X21684333Y-13286194D01*
X22443440Y-13286194D01*
X23161514Y-13286194D01*
X23309406Y-13267996D01*
X23446179Y-13191122D01*
X23522905Y-13054086D01*
X23541067Y-12905908D01*
X23541067Y-11893277D01*
X23522905Y-11745099D01*
X23446179Y-11608062D01*
X23309406Y-11531188D01*
X23161514Y-11512991D01*
X22443440Y-11512991D01*
X22443440Y-13286194D01*
X21684333Y-13286194D01*
X21684333Y-10922412D01*
X23330041Y-10922412D01*
X23473489Y-10928440D01*
G37*
G36*
X25297417Y-11449976D02*
G01*
X26352546Y-11449976D01*
X26542323Y-10922412D01*
X27365177Y-10922412D01*
X26247034Y-13876773D01*
X25402930Y-13876773D01*
X24691700Y-11998790D01*
X25487194Y-11998790D01*
X25824982Y-12990171D01*
X26162770Y-11998790D01*
X25487194Y-11998790D01*
X24691700Y-11998790D01*
X24284054Y-10922412D01*
X25107641Y-10922412D01*
X25297417Y-11449976D01*
G37*
G36*
X28319923Y-11766515D02*
G01*
X29333286Y-11766515D01*
X29387748Y-11767296D01*
X29539732Y-11779017D01*
X29695429Y-11810468D01*
X29844859Y-11869853D01*
X29976622Y-11966550D01*
X30012501Y-12006325D01*
X30090926Y-12133236D01*
X30144255Y-12290464D01*
X30170331Y-12452907D01*
X30177389Y-12610618D01*
X30177389Y-13032670D01*
X30176605Y-13087132D01*
X30164841Y-13239116D01*
X30133275Y-13394812D01*
X30073673Y-13544243D01*
X29976622Y-13676005D01*
X29936977Y-13711885D01*
X29810353Y-13790310D01*
X29653320Y-13843638D01*
X29490972Y-13869715D01*
X29333286Y-13876773D01*
X27560816Y-13876773D01*
X27560816Y-13286194D01*
X28319923Y-13286194D01*
X29164026Y-13286194D01*
X29262811Y-13274062D01*
X29387592Y-13177010D01*
X29417550Y-13032670D01*
X29417550Y-12610618D01*
X29405418Y-12511833D01*
X29308366Y-12387051D01*
X29164026Y-12357094D01*
X28319923Y-12357094D01*
X28319923Y-13286194D01*
X27560816Y-13286194D01*
X27560816Y-10922412D01*
X28319923Y-10922412D01*
X28319923Y-11766515D01*
G37*
G36*
X31300662Y-11512991D02*
G01*
X32841590Y-11512991D01*
X32841590Y-10922412D01*
X30541555Y-10922412D01*
X30541555Y-13876773D01*
X31300662Y-13876773D01*
X31300662Y-11512991D01*
G37*
G36*
X34009560Y-13075168D02*
G01*
X34009560Y-10922412D01*
X33270969Y-10922412D01*
X33270969Y-12505105D01*
X32954431Y-12505105D01*
X32954431Y-13075168D01*
X34009560Y-13075168D01*
G37*
G36*
X33270969Y-13919271D02*
G01*
X34009560Y-13919271D01*
X34009560Y-13327959D01*
X33270969Y-13327959D01*
X33270969Y-13919271D01*
G37*
G36*
X35668457Y-12589369D02*
G01*
X35507800Y-12579412D01*
X35349576Y-12553080D01*
X35197264Y-12515309D01*
X35162142Y-12505105D01*
X35162142Y-10922412D01*
X34423551Y-10922412D01*
X34423551Y-13159432D01*
X35077878Y-13159432D01*
X35119643Y-12948406D01*
X35257372Y-13029848D01*
X35397525Y-13094840D01*
X35527040Y-13139648D01*
X35674491Y-13177155D01*
X35823335Y-13199033D01*
X35879483Y-13201197D01*
X36069260Y-13201197D01*
X36221785Y-13187519D01*
X36370048Y-13140235D01*
X36495985Y-13059177D01*
X36529413Y-13028273D01*
X36620603Y-12909033D01*
X36678020Y-12767468D01*
X36700817Y-12620971D01*
X36702337Y-12568120D01*
X36702337Y-10922412D01*
X35963747Y-10922412D01*
X35963747Y-12442090D01*
X35921248Y-12546871D01*
X35816468Y-12589369D01*
X35668457Y-12589369D01*
G37*
G36*
X37805826Y-11809013D02*
G01*
X37805826Y-10922412D01*
X37067236Y-10922412D01*
X37067236Y-13876773D01*
X37805826Y-13876773D01*
X37805826Y-12378343D01*
X38143614Y-12378343D01*
X38607431Y-13159432D01*
X39388520Y-13159432D01*
X38755442Y-12083054D01*
X39388520Y-10922412D01*
X38607431Y-10922412D01*
X38122365Y-11809013D01*
X37805826Y-11809013D01*
G37*
D11*
G36*
X67093666Y-16867913D02*
G01*
X67178934Y-17019428D01*
X67182889Y-17078556D01*
X67182889Y-18564823D01*
X67141120Y-18728163D01*
X67002714Y-18810942D01*
X66929804Y-18817101D01*
X66140729Y-18817101D01*
X65976866Y-18775465D01*
X65891599Y-18623950D01*
X65887644Y-18564823D01*
X65887644Y-17078556D01*
X65929413Y-16915216D01*
X66067819Y-16832437D01*
X66140729Y-16826278D01*
X66929804Y-16826278D01*
X67093666Y-16867913D01*
G37*
G36*
X73747499Y-16878334D02*
G01*
X73763084Y-16962492D01*
X73763084Y-17891005D01*
X73687654Y-18035736D01*
X73603496Y-18051400D01*
X73046549Y-18051400D01*
X72901818Y-17975588D01*
X72886154Y-17891005D01*
X72886154Y-16962492D01*
X72961966Y-16818488D01*
X73046549Y-16802904D01*
X73603496Y-16802904D01*
X73747499Y-16878334D01*
G37*
G36*
X79272040Y-19885795D02*
G01*
X54942209Y-19885795D01*
X54942209Y-19519128D01*
X58933464Y-19519128D01*
X59797498Y-19519128D01*
X59797498Y-18817101D01*
X58933464Y-18817101D01*
X58933464Y-19519128D01*
X54942209Y-19519128D01*
X54942209Y-17078556D01*
X55308876Y-17078556D01*
X55308876Y-19472380D01*
X56195478Y-19472380D01*
X56195478Y-17078556D01*
X56237246Y-16915216D01*
X56375652Y-16832437D01*
X56448562Y-16826278D01*
X57144947Y-16826278D01*
X57308809Y-16867913D01*
X57394077Y-17019428D01*
X57398032Y-17078556D01*
X57398032Y-19472380D01*
X58284633Y-19472380D01*
X58284633Y-18683305D01*
X60201304Y-18683305D01*
X60967812Y-18683305D01*
X61010530Y-18468102D01*
X61158708Y-18553375D01*
X61319128Y-18623006D01*
X61432875Y-18660737D01*
X61598092Y-18702485D01*
X61765347Y-18726838D01*
X61828621Y-18729247D01*
X62037376Y-18729247D01*
X62210792Y-18713563D01*
X62379548Y-18659347D01*
X62523117Y-18566405D01*
X62561277Y-18530971D01*
X62665836Y-18394958D01*
X62731670Y-18233758D01*
X62757810Y-18067142D01*
X62759553Y-18007070D01*
X62759553Y-16872220D01*
X63016667Y-16872220D01*
X63434176Y-16872220D01*
X63434176Y-18771159D01*
X63016667Y-18771159D01*
X63016667Y-19472380D01*
X64739092Y-19472380D01*
X64739092Y-18771159D01*
X64321584Y-18771159D01*
X64321584Y-17078556D01*
X65000237Y-17078556D01*
X65000237Y-18564823D01*
X65008256Y-18741847D01*
X65037882Y-18924452D01*
X65089338Y-19081293D01*
X65174875Y-19228993D01*
X65228335Y-19290224D01*
X65359562Y-19390370D01*
X65524339Y-19461902D01*
X65696040Y-19501022D01*
X65863657Y-19517116D01*
X65954542Y-19519128D01*
X67115184Y-19519128D01*
X67292483Y-19511081D01*
X67475336Y-19481350D01*
X67632348Y-19429713D01*
X67780148Y-19343873D01*
X67841392Y-19290224D01*
X67941185Y-19159349D01*
X68012465Y-18994824D01*
X68051447Y-18823261D01*
X68067485Y-18655701D01*
X68069490Y-18564823D01*
X68069490Y-17078556D01*
X68062262Y-16918968D01*
X68326605Y-16918968D01*
X69214012Y-16918968D01*
X69214012Y-16846428D01*
X69481605Y-16846428D01*
X69481605Y-17914380D01*
X69494400Y-18084093D01*
X69539383Y-18252019D01*
X69616755Y-18395591D01*
X69686329Y-18477774D01*
X69814053Y-18577128D01*
X69966005Y-18643965D01*
X70142184Y-18678287D01*
X70250530Y-18683305D01*
X71761782Y-18683305D01*
X71761782Y-18004652D01*
X70506032Y-18004652D01*
X70361302Y-17929221D01*
X70345638Y-17845063D01*
X70345638Y-16939924D01*
X70364031Y-16893176D01*
X72022121Y-16893176D01*
X72022121Y-16962492D01*
X72022121Y-17961128D01*
X72034916Y-18130841D01*
X72079900Y-18298767D01*
X72157271Y-18442339D01*
X72226845Y-18524523D01*
X72354570Y-18623486D01*
X72506521Y-18690061D01*
X72682700Y-18724249D01*
X72791046Y-18729247D01*
X73858998Y-18729247D01*
X74028712Y-18716452D01*
X74152450Y-18683305D01*
X74976922Y-18683305D01*
X75743429Y-18683305D01*
X75786147Y-18468102D01*
X75934326Y-18553375D01*
X76094745Y-18623006D01*
X76208492Y-18660737D01*
X76373710Y-18702485D01*
X76540965Y-18726838D01*
X76604239Y-18729247D01*
X76650987Y-18729247D01*
X76811850Y-18716404D01*
X76973403Y-18670273D01*
X77126729Y-18578273D01*
X77237756Y-18460848D01*
X77379439Y-18544106D01*
X77534075Y-18612125D01*
X77685893Y-18660737D01*
X77852953Y-18699742D01*
X78020645Y-18723828D01*
X78136448Y-18729247D01*
X78183196Y-18729247D01*
X78356286Y-18713563D01*
X78524980Y-18659347D01*
X78668800Y-18566405D01*
X78707096Y-18530971D01*
X78811656Y-18394958D01*
X78877490Y-18233758D01*
X78903630Y-18067142D01*
X78905373Y-18007070D01*
X78905373Y-16170999D01*
X78041339Y-16170999D01*
X78041339Y-17868437D01*
X78001845Y-17965964D01*
X77904319Y-18004652D01*
X77880945Y-18004652D01*
X77713196Y-17992524D01*
X77552625Y-17963889D01*
X77391960Y-17923715D01*
X77373164Y-17918410D01*
X77373164Y-16170999D01*
X76509131Y-16170999D01*
X76509131Y-17868437D01*
X76470443Y-17965964D01*
X76372110Y-18004652D01*
X76348736Y-18004652D01*
X76180987Y-17992524D01*
X76020417Y-17963889D01*
X75859752Y-17923715D01*
X75840956Y-17918410D01*
X75840956Y-16170999D01*
X74976922Y-16170999D01*
X74976922Y-18683305D01*
X74152450Y-18683305D01*
X74196638Y-18671468D01*
X74340209Y-18594097D01*
X74422393Y-18524523D01*
X74521357Y-18397188D01*
X74587932Y-18245498D01*
X74622119Y-18069454D01*
X74627117Y-17961128D01*
X74627117Y-16893176D01*
X74614322Y-16723412D01*
X74569339Y-16555308D01*
X74491967Y-16411432D01*
X74422393Y-16328975D01*
X74295058Y-16230011D01*
X74143369Y-16163436D01*
X73967324Y-16129249D01*
X73858998Y-16124250D01*
X72791046Y-16124250D01*
X72621282Y-16137046D01*
X72453179Y-16182029D01*
X72309303Y-16259400D01*
X72226845Y-16328975D01*
X72127882Y-16456699D01*
X72061306Y-16608651D01*
X72027119Y-16784830D01*
X72022121Y-16893176D01*
X70364031Y-16893176D01*
X70384326Y-16841592D01*
X70482658Y-16802904D01*
X70654592Y-16805425D01*
X70821809Y-16811380D01*
X71010791Y-16820837D01*
X71177646Y-16830925D01*
X71358429Y-16843254D01*
X71553141Y-16857825D01*
X71761782Y-16874638D01*
X71761782Y-16220165D01*
X71596477Y-16203024D01*
X71435154Y-16187569D01*
X71226248Y-16169585D01*
X71024420Y-16154598D01*
X70829670Y-16142609D01*
X70641998Y-16133617D01*
X70461403Y-16127622D01*
X70287886Y-16124625D01*
X70203782Y-16124250D01*
X70030691Y-16139934D01*
X69861998Y-16194151D01*
X69718177Y-16287093D01*
X69679881Y-16322527D01*
X69575321Y-16458886D01*
X69509487Y-16620118D01*
X69483347Y-16786492D01*
X69481605Y-16846428D01*
X69214012Y-16846428D01*
X69214012Y-16170999D01*
X68326605Y-16170999D01*
X68326605Y-16918968D01*
X68062262Y-16918968D01*
X68061471Y-16901503D01*
X68031845Y-16718794D01*
X67980389Y-16561771D01*
X67894852Y-16413769D01*
X67841392Y-16352349D01*
X67710467Y-16252556D01*
X67545791Y-16181275D01*
X67374012Y-16142293D01*
X67206207Y-16126255D01*
X67115184Y-16124250D01*
X65954542Y-16124250D01*
X65777490Y-16132270D01*
X65594780Y-16161896D01*
X65437757Y-16213351D01*
X65289755Y-16298888D01*
X65228335Y-16352349D01*
X65128542Y-16483576D01*
X65057261Y-16648353D01*
X65018280Y-16820054D01*
X65002242Y-16987671D01*
X65000237Y-17078556D01*
X64321584Y-17078556D01*
X64321584Y-16872220D01*
X64739092Y-16872220D01*
X64739092Y-16170999D01*
X63016667Y-16170999D01*
X63016667Y-16872220D01*
X62759553Y-16872220D01*
X62759553Y-16170999D01*
X61895519Y-16170999D01*
X61895519Y-17868437D01*
X61856831Y-17965964D01*
X61759305Y-18004652D01*
X61596493Y-18004652D01*
X61424636Y-17994461D01*
X61258650Y-17967510D01*
X61101322Y-17928853D01*
X61065338Y-17918410D01*
X61065338Y-16170999D01*
X60201304Y-16170999D01*
X60201304Y-18683305D01*
X58284633Y-18683305D01*
X58284633Y-17911962D01*
X58585272Y-17911962D01*
X58585272Y-18590615D01*
X59797498Y-18590615D01*
X59797498Y-16170999D01*
X58933464Y-16170999D01*
X58933464Y-17911962D01*
X58585272Y-17911962D01*
X58284633Y-17911962D01*
X58284633Y-17078556D01*
X58276614Y-16901503D01*
X58246988Y-16718794D01*
X58195532Y-16561771D01*
X58109995Y-16413769D01*
X58056535Y-16352349D01*
X57925610Y-16252556D01*
X57760934Y-16181275D01*
X57589155Y-16142293D01*
X57421350Y-16126255D01*
X57330327Y-16124250D01*
X56263182Y-16124250D01*
X56085883Y-16132270D01*
X55903030Y-16161896D01*
X55746018Y-16213351D01*
X55598218Y-16298888D01*
X55536974Y-16352349D01*
X55437181Y-16483576D01*
X55365901Y-16648353D01*
X55326919Y-16820054D01*
X55310881Y-16987671D01*
X55308876Y-17078556D01*
X54942209Y-17078556D01*
X54942209Y-15757583D01*
X79272040Y-15757583D01*
X79272040Y-19885795D01*
G37*
D10*
G36*
X85958557Y-28632125D02*
G01*
X85960334Y-28595018D01*
X85965426Y-28559639D01*
X85973479Y-28526223D01*
X85987170Y-28487574D01*
X86004240Y-28452825D01*
X86023999Y-28422436D01*
X86045752Y-28396870D01*
X86374356Y-28396870D01*
X86374356Y-28654693D01*
X86255703Y-28654693D01*
X86255703Y-28526294D01*
X86111576Y-28526294D01*
X86093937Y-28557586D01*
X86085706Y-28590777D01*
X86083878Y-28616396D01*
X86086376Y-28654780D01*
X86093758Y-28689431D01*
X86110916Y-28729810D01*
X86136078Y-28763513D01*
X86168856Y-28790520D01*
X86208861Y-28810808D01*
X86243374Y-28821602D01*
X86281568Y-28828594D01*
X86323282Y-28831776D01*
X86337940Y-28831989D01*
X86380279Y-28829806D01*
X86419193Y-28823416D01*
X86454520Y-28813056D01*
X86486100Y-28798963D01*
X86522096Y-28774778D01*
X86550759Y-28744943D01*
X86571707Y-28710020D01*
X86584556Y-28670574D01*
X86588924Y-28627167D01*
X86586251Y-28592687D01*
X86577041Y-28557951D01*
X86559904Y-28523992D01*
X86537374Y-28494406D01*
X86527887Y-28484065D01*
X86620382Y-28407641D01*
X86646821Y-28436836D01*
X86667181Y-28465482D01*
X86684988Y-28498213D01*
X86699276Y-28535175D01*
X86709079Y-28576519D01*
X86713042Y-28612849D01*
X86713561Y-28632125D01*
X86711926Y-28667842D01*
X86707061Y-28702494D01*
X86699025Y-28735911D01*
X86681157Y-28783344D01*
X86656490Y-28827036D01*
X86625225Y-28866407D01*
X86587565Y-28900882D01*
X86559003Y-28920859D01*
X86527748Y-28938232D01*
X86493859Y-28952830D01*
X86457395Y-28964482D01*
X86418417Y-28973016D01*
X86376983Y-28978262D01*
X86333153Y-28980049D01*
X86288853Y-28978305D01*
X86247206Y-28973177D01*
X86208240Y-28964819D01*
X86171984Y-28953383D01*
X86138466Y-28939024D01*
X86107714Y-28921896D01*
X86079756Y-28902152D01*
X86043121Y-28867968D01*
X86012933Y-28828764D01*
X85989287Y-28785058D01*
X85972279Y-28737371D01*
X85964675Y-28703623D01*
X85960091Y-28668490D01*
X85958557Y-28632125D01*
G37*
G36*
X85969500Y-28241458D02*
G01*
X85969500Y-28104169D01*
X86258781Y-28104169D01*
X86297851Y-28104902D01*
X86337645Y-28106876D01*
X86377687Y-28109755D01*
X86417499Y-28113202D01*
X86456603Y-28116881D01*
X86494523Y-28120455D01*
X86509252Y-28121779D01*
X86509252Y-28116992D01*
X86354695Y-28043475D01*
X85969500Y-27833695D01*
X85969500Y-27686661D01*
X86691677Y-27686661D01*
X86691677Y-27823950D01*
X86402225Y-27823950D01*
X86363603Y-27823150D01*
X86323608Y-27821005D01*
X86283047Y-27817899D01*
X86242725Y-27814216D01*
X86203449Y-27810338D01*
X86166024Y-27806650D01*
X86151754Y-27805314D01*
X86151754Y-27810272D01*
X86307336Y-27882763D01*
X86691677Y-28093398D01*
X86691677Y-28241458D01*
X85969500Y-28241458D01*
G37*
G36*
X86377047Y-26951547D02*
G01*
X86418147Y-26956283D01*
X86456300Y-26964080D01*
X86491522Y-26974862D01*
X86523829Y-26988550D01*
X86566863Y-27014360D01*
X86603435Y-27046271D01*
X86633601Y-27084020D01*
X86657417Y-27127344D01*
X86674941Y-27175980D01*
X86683156Y-27211226D01*
X86688615Y-27248637D01*
X86691337Y-27288137D01*
X86691677Y-27308646D01*
X86691677Y-27507655D01*
X85969500Y-27507655D01*
X85969500Y-27317537D01*
X86086101Y-27317537D01*
X86086101Y-27362502D01*
X86574904Y-27362502D01*
X86574904Y-27317537D01*
X86573128Y-27280872D01*
X86567654Y-27247059D01*
X86554229Y-27206696D01*
X86533330Y-27172085D01*
X86504441Y-27143619D01*
X86467048Y-27121687D01*
X86433113Y-27109762D01*
X86393887Y-27101897D01*
X86349154Y-27098257D01*
X86332982Y-27098011D01*
X86286439Y-27100206D01*
X86245187Y-27106681D01*
X86209069Y-27117271D01*
X86177931Y-27131812D01*
X86143889Y-27157060D01*
X86118054Y-27188647D01*
X86100056Y-27226182D01*
X86089528Y-27269276D01*
X86086312Y-27305008D01*
X86086101Y-27317537D01*
X85969500Y-27317537D01*
X85969500Y-27300782D01*
X85970922Y-27261651D01*
X85975188Y-27224397D01*
X85982298Y-27189109D01*
X85992249Y-27155876D01*
X86012503Y-27110077D01*
X86039146Y-27069405D01*
X86072174Y-27034163D01*
X86111585Y-27004651D01*
X86157374Y-26981172D01*
X86191443Y-26969021D01*
X86228344Y-26959774D01*
X86268076Y-26953521D01*
X86310639Y-26950351D01*
X86332982Y-26949951D01*
X86377047Y-26951547D01*
G37*
G36*
X85958557Y-22852125D02*
G01*
X85960334Y-22815018D01*
X85965426Y-22779639D01*
X85973479Y-22746223D01*
X85987170Y-22707574D01*
X86004240Y-22672825D01*
X86023999Y-22642436D01*
X86045752Y-22616870D01*
X86374356Y-22616870D01*
X86374356Y-22874693D01*
X86255703Y-22874693D01*
X86255703Y-22746294D01*
X86111576Y-22746294D01*
X86093937Y-22777586D01*
X86085706Y-22810777D01*
X86083878Y-22836396D01*
X86086376Y-22874780D01*
X86093758Y-22909431D01*
X86110916Y-22949810D01*
X86136078Y-22983513D01*
X86168856Y-23010520D01*
X86208861Y-23030808D01*
X86243374Y-23041602D01*
X86281568Y-23048594D01*
X86323282Y-23051776D01*
X86337940Y-23051989D01*
X86380279Y-23049806D01*
X86419193Y-23043416D01*
X86454520Y-23033056D01*
X86486100Y-23018963D01*
X86522096Y-22994778D01*
X86550759Y-22964943D01*
X86571707Y-22930020D01*
X86584556Y-22890574D01*
X86588924Y-22847167D01*
X86586251Y-22812687D01*
X86577041Y-22777951D01*
X86559904Y-22743992D01*
X86537374Y-22714406D01*
X86527887Y-22704065D01*
X86620382Y-22627641D01*
X86646821Y-22656836D01*
X86667181Y-22685482D01*
X86684988Y-22718213D01*
X86699276Y-22755175D01*
X86709079Y-22796519D01*
X86713042Y-22832849D01*
X86713561Y-22852125D01*
X86711926Y-22887842D01*
X86707061Y-22922494D01*
X86699025Y-22955911D01*
X86681157Y-23003344D01*
X86656490Y-23047036D01*
X86625225Y-23086407D01*
X86587565Y-23120882D01*
X86559003Y-23140859D01*
X86527748Y-23158232D01*
X86493859Y-23172830D01*
X86457395Y-23184482D01*
X86418417Y-23193016D01*
X86376983Y-23198262D01*
X86333153Y-23200049D01*
X86288853Y-23198305D01*
X86247206Y-23193177D01*
X86208240Y-23184819D01*
X86171984Y-23173383D01*
X86138466Y-23159024D01*
X86107714Y-23141896D01*
X86079756Y-23122152D01*
X86043121Y-23087968D01*
X86012933Y-23048764D01*
X85989287Y-23005058D01*
X85972279Y-22957371D01*
X85964675Y-22923623D01*
X85960091Y-22888490D01*
X85958557Y-22852125D01*
G37*
G36*
X85969500Y-22461458D02*
G01*
X85969500Y-22324169D01*
X86258781Y-22324169D01*
X86297851Y-22324902D01*
X86337645Y-22326876D01*
X86377687Y-22329755D01*
X86417499Y-22333202D01*
X86456603Y-22336881D01*
X86494523Y-22340455D01*
X86509252Y-22341779D01*
X86509252Y-22336992D01*
X86354695Y-22263475D01*
X85969500Y-22053695D01*
X85969500Y-21906661D01*
X86691677Y-21906661D01*
X86691677Y-22043950D01*
X86402225Y-22043950D01*
X86363603Y-22043150D01*
X86323608Y-22041005D01*
X86283047Y-22037899D01*
X86242725Y-22034216D01*
X86203449Y-22030338D01*
X86166024Y-22026650D01*
X86151754Y-22025314D01*
X86151754Y-22030272D01*
X86307336Y-22102763D01*
X86691677Y-22313398D01*
X86691677Y-22461458D01*
X85969500Y-22461458D01*
G37*
G36*
X86377047Y-21171547D02*
G01*
X86418147Y-21176283D01*
X86456300Y-21184080D01*
X86491522Y-21194862D01*
X86523829Y-21208550D01*
X86566863Y-21234360D01*
X86603435Y-21266271D01*
X86633601Y-21304020D01*
X86657417Y-21347344D01*
X86674941Y-21395980D01*
X86683156Y-21431226D01*
X86688615Y-21468637D01*
X86691337Y-21508137D01*
X86691677Y-21528646D01*
X86691677Y-21727655D01*
X85969500Y-21727655D01*
X85969500Y-21537537D01*
X86086101Y-21537537D01*
X86086101Y-21582502D01*
X86574904Y-21582502D01*
X86574904Y-21537537D01*
X86573128Y-21500872D01*
X86567654Y-21467059D01*
X86554229Y-21426696D01*
X86533330Y-21392085D01*
X86504441Y-21363619D01*
X86467048Y-21341687D01*
X86433113Y-21329762D01*
X86393887Y-21321897D01*
X86349154Y-21318257D01*
X86332982Y-21318011D01*
X86286439Y-21320206D01*
X86245187Y-21326681D01*
X86209069Y-21337271D01*
X86177931Y-21351812D01*
X86143889Y-21377060D01*
X86118054Y-21408647D01*
X86100056Y-21446182D01*
X86089528Y-21489276D01*
X86086312Y-21525008D01*
X86086101Y-21537537D01*
X85969500Y-21537537D01*
X85969500Y-21520782D01*
X85970922Y-21481651D01*
X85975188Y-21444397D01*
X85982298Y-21409109D01*
X85992249Y-21375876D01*
X86012503Y-21330077D01*
X86039146Y-21289405D01*
X86072174Y-21254163D01*
X86111585Y-21224651D01*
X86157374Y-21201172D01*
X86191443Y-21189021D01*
X86228344Y-21179774D01*
X86268076Y-21173521D01*
X86310639Y-21170351D01*
X86332982Y-21169951D01*
X86377047Y-21171547D01*
G37*
G36*
X85958557Y-17072125D02*
G01*
X85960334Y-17035018D01*
X85965426Y-16999639D01*
X85973479Y-16966223D01*
X85987170Y-16927574D01*
X86004240Y-16892825D01*
X86023999Y-16862436D01*
X86045752Y-16836870D01*
X86374356Y-16836870D01*
X86374356Y-17094693D01*
X86255703Y-17094693D01*
X86255703Y-16966294D01*
X86111576Y-16966294D01*
X86093937Y-16997586D01*
X86085706Y-17030777D01*
X86083878Y-17056396D01*
X86086376Y-17094780D01*
X86093758Y-17129431D01*
X86110916Y-17169810D01*
X86136078Y-17203513D01*
X86168856Y-17230520D01*
X86208861Y-17250808D01*
X86243374Y-17261602D01*
X86281568Y-17268594D01*
X86323282Y-17271776D01*
X86337940Y-17271989D01*
X86380279Y-17269806D01*
X86419193Y-17263416D01*
X86454520Y-17253056D01*
X86486100Y-17238963D01*
X86522096Y-17214778D01*
X86550759Y-17184943D01*
X86571707Y-17150020D01*
X86584556Y-17110574D01*
X86588924Y-17067167D01*
X86586251Y-17032687D01*
X86577041Y-16997951D01*
X86559904Y-16963992D01*
X86537374Y-16934406D01*
X86527887Y-16924065D01*
X86620382Y-16847641D01*
X86646821Y-16876836D01*
X86667181Y-16905482D01*
X86684988Y-16938213D01*
X86699276Y-16975175D01*
X86709079Y-17016519D01*
X86713042Y-17052849D01*
X86713561Y-17072125D01*
X86711926Y-17107842D01*
X86707061Y-17142494D01*
X86699025Y-17175911D01*
X86681157Y-17223344D01*
X86656490Y-17267036D01*
X86625225Y-17306407D01*
X86587565Y-17340882D01*
X86559003Y-17360859D01*
X86527748Y-17378232D01*
X86493859Y-17392830D01*
X86457395Y-17404482D01*
X86418417Y-17413016D01*
X86376983Y-17418262D01*
X86333153Y-17420049D01*
X86288853Y-17418305D01*
X86247206Y-17413177D01*
X86208240Y-17404819D01*
X86171984Y-17393383D01*
X86138466Y-17379024D01*
X86107714Y-17361896D01*
X86079756Y-17342152D01*
X86043121Y-17307968D01*
X86012933Y-17268764D01*
X85989287Y-17225058D01*
X85972279Y-17177371D01*
X85964675Y-17143623D01*
X85960091Y-17108490D01*
X85958557Y-17072125D01*
G37*
G36*
X85969500Y-16681458D02*
G01*
X85969500Y-16544169D01*
X86258781Y-16544169D01*
X86297851Y-16544902D01*
X86337645Y-16546876D01*
X86377687Y-16549755D01*
X86417499Y-16553202D01*
X86456603Y-16556881D01*
X86494523Y-16560455D01*
X86509252Y-16561779D01*
X86509252Y-16556992D01*
X86354695Y-16483475D01*
X85969500Y-16273695D01*
X85969500Y-16126661D01*
X86691677Y-16126661D01*
X86691677Y-16263950D01*
X86402225Y-16263950D01*
X86363603Y-16263150D01*
X86323608Y-16261005D01*
X86283047Y-16257899D01*
X86242725Y-16254216D01*
X86203449Y-16250338D01*
X86166024Y-16246650D01*
X86151754Y-16245314D01*
X86151754Y-16250272D01*
X86307336Y-16322763D01*
X86691677Y-16533398D01*
X86691677Y-16681458D01*
X85969500Y-16681458D01*
G37*
G36*
X86377047Y-15391547D02*
G01*
X86418147Y-15396283D01*
X86456300Y-15404080D01*
X86491522Y-15414862D01*
X86523829Y-15428550D01*
X86566863Y-15454360D01*
X86603435Y-15486271D01*
X86633601Y-15524020D01*
X86657417Y-15567344D01*
X86674941Y-15615980D01*
X86683156Y-15651226D01*
X86688615Y-15688637D01*
X86691337Y-15728137D01*
X86691677Y-15748646D01*
X86691677Y-15947655D01*
X85969500Y-15947655D01*
X85969500Y-15757537D01*
X86086101Y-15757537D01*
X86086101Y-15802502D01*
X86574904Y-15802502D01*
X86574904Y-15757537D01*
X86573128Y-15720872D01*
X86567654Y-15687059D01*
X86554229Y-15646696D01*
X86533330Y-15612085D01*
X86504441Y-15583619D01*
X86467048Y-15561687D01*
X86433113Y-15549762D01*
X86393887Y-15541897D01*
X86349154Y-15538257D01*
X86332982Y-15538011D01*
X86286439Y-15540206D01*
X86245187Y-15546681D01*
X86209069Y-15557271D01*
X86177931Y-15571812D01*
X86143889Y-15597060D01*
X86118054Y-15628647D01*
X86100056Y-15666182D01*
X86089528Y-15709276D01*
X86086312Y-15745008D01*
X86086101Y-15757537D01*
X85969500Y-15757537D01*
X85969500Y-15740782D01*
X85970922Y-15701651D01*
X85975188Y-15664397D01*
X85982298Y-15629109D01*
X85992249Y-15595876D01*
X86012503Y-15550077D01*
X86039146Y-15509405D01*
X86072174Y-15474163D01*
X86111585Y-15444651D01*
X86157374Y-15421172D01*
X86191443Y-15409021D01*
X86228344Y-15399774D01*
X86268076Y-15393521D01*
X86310639Y-15390351D01*
X86332982Y-15389951D01*
X86377047Y-15391547D01*
G37*
D13*
G36*
X15589057Y-7707960D02*
G01*
X16019462Y-8948616D01*
X16513175Y-8948616D01*
X15842288Y-7176000D01*
X15335826Y-7176000D01*
X14664501Y-8948616D01*
X15158653Y-8948616D01*
X15589057Y-7707960D01*
G37*
G36*
X16933876Y-7150700D02*
G01*
X17036175Y-7152293D01*
X17141303Y-7155481D01*
X17249261Y-7160262D01*
X17360050Y-7166637D01*
X17473668Y-7174605D01*
X17590117Y-7184167D01*
X17679311Y-7192385D01*
X17770097Y-7201498D01*
X17770097Y-7518037D01*
X17652838Y-7509073D01*
X17542860Y-7501303D01*
X17440163Y-7494730D01*
X17344748Y-7489351D01*
X17235719Y-7484308D01*
X17138067Y-7481133D01*
X17035903Y-7479789D01*
X16972595Y-7504848D01*
X16947096Y-7568595D01*
X16947096Y-7669712D01*
X17821095Y-7669712D01*
X17821095Y-8138365D01*
X17820148Y-8173249D01*
X17805948Y-8269185D01*
X17770185Y-8360444D01*
X17713384Y-8435560D01*
X17677717Y-8466590D01*
X17594341Y-8512872D01*
X17505573Y-8536539D01*
X17415750Y-8543271D01*
X16909288Y-8543271D01*
X16863091Y-8541588D01*
X16768543Y-8525494D01*
X16687001Y-8492361D01*
X16611653Y-8435560D01*
X16580623Y-8400020D01*
X16534341Y-8316832D01*
X16510674Y-8228161D01*
X16503942Y-8138365D01*
X16503942Y-8125616D01*
X16947096Y-8125616D01*
X16966535Y-8194738D01*
X17048653Y-8226732D01*
X17276385Y-8226732D01*
X17342138Y-8210044D01*
X17377941Y-8125616D01*
X17377941Y-7986251D01*
X16947096Y-7986251D01*
X16947096Y-8125616D01*
X16503942Y-8125616D01*
X16503942Y-7530347D01*
X16504854Y-7498711D01*
X16518533Y-7410944D01*
X16552982Y-7325988D01*
X16607697Y-7254255D01*
X16627828Y-7235713D01*
X16703528Y-7187078D01*
X16792452Y-7158708D01*
X16883789Y-7150501D01*
X16933876Y-7150700D01*
G37*
G36*
X18812477Y-8151115D02*
G01*
X18721909Y-8145098D01*
X18629741Y-8127050D01*
X18535973Y-8096968D01*
X18483189Y-8075057D01*
X18483189Y-7176000D01*
X18040034Y-7176000D01*
X18040034Y-8518212D01*
X18432630Y-8518212D01*
X18457690Y-8353348D01*
X18540158Y-8417892D01*
X18624017Y-8469082D01*
X18709267Y-8506918D01*
X18795908Y-8531401D01*
X18883940Y-8542529D01*
X18913593Y-8543271D01*
X19027459Y-8543271D01*
X19027459Y-8151115D01*
X18812477Y-8151115D01*
G37*
G36*
X19148360Y-7530347D02*
G01*
X19242810Y-7523590D01*
X19333435Y-7517498D01*
X19448317Y-7510409D01*
X19556400Y-7504501D01*
X19657681Y-7499775D01*
X19752162Y-7496230D01*
X19860699Y-7493461D01*
X19958611Y-7492538D01*
X20021919Y-7517598D01*
X20047418Y-7581345D01*
X20047418Y-7669712D01*
X19502707Y-7669712D01*
X19411370Y-7677919D01*
X19322446Y-7706289D01*
X19246746Y-7754924D01*
X19226615Y-7773466D01*
X19171901Y-7845199D01*
X19137451Y-7930156D01*
X19123773Y-8017923D01*
X19122861Y-8049558D01*
X19122861Y-8138365D01*
X19131068Y-8229668D01*
X19159438Y-8318471D01*
X19208073Y-8393965D01*
X19226615Y-8414018D01*
X19298348Y-8468964D01*
X19383304Y-8503559D01*
X19471071Y-8517296D01*
X19502707Y-8518212D01*
X20363956Y-8518212D01*
X20363956Y-8188923D01*
X19654822Y-8188923D01*
X19591074Y-8163424D01*
X19566015Y-8100117D01*
X19591074Y-8036809D01*
X19654822Y-8011750D01*
X20110725Y-8011750D01*
X20202028Y-8003508D01*
X20290831Y-7975017D01*
X20366325Y-7926176D01*
X20386378Y-7907556D01*
X20441324Y-7836055D01*
X20475919Y-7751244D01*
X20489656Y-7663535D01*
X20490572Y-7631903D01*
X20490572Y-7530347D01*
X20482330Y-7439010D01*
X20453839Y-7350086D01*
X20404998Y-7274386D01*
X20386378Y-7254255D01*
X20314877Y-7199541D01*
X20230066Y-7165091D01*
X20142357Y-7151412D01*
X20110725Y-7150501D01*
X19997594Y-7151297D01*
X19882416Y-7153688D01*
X19765191Y-7157672D01*
X19675929Y-7161706D01*
X19585515Y-7166637D01*
X19493950Y-7172464D01*
X19401233Y-7179187D01*
X19307365Y-7186807D01*
X19212346Y-7195323D01*
X19148360Y-7201498D01*
X19148360Y-7530347D01*
G37*
G36*
X21192672Y-8467653D02*
G01*
X21192672Y-7176000D01*
X20749518Y-7176000D01*
X20749518Y-8125616D01*
X20559595Y-8125616D01*
X20559595Y-8467653D01*
X21192672Y-8467653D01*
G37*
G36*
X20749518Y-8974115D02*
G01*
X21192672Y-8974115D01*
X21192672Y-8619328D01*
X20749518Y-8619328D01*
X20749518Y-8974115D01*
G37*
G36*
X22438317Y-7151447D02*
G01*
X22534252Y-7165647D01*
X22625511Y-7201411D01*
X22700628Y-7258212D01*
X22731658Y-7293878D01*
X22777940Y-7377255D01*
X22801607Y-7466023D01*
X22808339Y-7555846D01*
X22808339Y-8138365D01*
X22807392Y-8173249D01*
X22793192Y-8269185D01*
X22757428Y-8360444D01*
X22700628Y-8435560D01*
X22665087Y-8466590D01*
X22581900Y-8512872D01*
X22493229Y-8536539D01*
X22403433Y-8543271D01*
X21820914Y-8543271D01*
X21774717Y-8541588D01*
X21680169Y-8525494D01*
X21598627Y-8492361D01*
X21523279Y-8435560D01*
X21492249Y-8400020D01*
X21445967Y-8316832D01*
X21422300Y-8228161D01*
X21415568Y-8138365D01*
X21415568Y-7593655D01*
X21858722Y-7593655D01*
X21858722Y-8100117D01*
X21878161Y-8169540D01*
X21960279Y-8201673D01*
X22264068Y-8201673D01*
X22333191Y-8182234D01*
X22365184Y-8100117D01*
X22365184Y-7593655D01*
X22348496Y-7528186D01*
X22264068Y-7492538D01*
X21960279Y-7492538D01*
X21894525Y-7509226D01*
X21858722Y-7593655D01*
X21415568Y-7593655D01*
X21415568Y-7555846D01*
X21417251Y-7509650D01*
X21433345Y-7415102D01*
X21466479Y-7333560D01*
X21523279Y-7258212D01*
X21558946Y-7227182D01*
X21642323Y-7180899D01*
X21731090Y-7157232D01*
X21820914Y-7150501D01*
X22403433Y-7150501D01*
X22438317Y-7151447D01*
G37*
G36*
X23774221Y-8176174D02*
G01*
X23677827Y-8170200D01*
X23582893Y-8154400D01*
X23491506Y-8131738D01*
X23470432Y-8125616D01*
X23470432Y-7176000D01*
X23027278Y-7176000D01*
X23027278Y-8518212D01*
X23419874Y-8518212D01*
X23444933Y-8391596D01*
X23527570Y-8440462D01*
X23611662Y-8479457D01*
X23689371Y-8506341D01*
X23777842Y-8528845D01*
X23867148Y-8541973D01*
X23900837Y-8543271D01*
X24014703Y-8543271D01*
X24106218Y-8535064D01*
X24195176Y-8506693D01*
X24270738Y-8458059D01*
X24290795Y-8439517D01*
X24345509Y-8367973D01*
X24379959Y-8283033D01*
X24393637Y-8195135D01*
X24394549Y-8163424D01*
X24394549Y-7176000D01*
X23951395Y-7176000D01*
X23951395Y-8087807D01*
X23925896Y-8150675D01*
X23863028Y-8176174D01*
X23774221Y-8176174D01*
G37*
G36*
X26230474Y-7150501D02*
G01*
X26123319Y-7151297D01*
X26013321Y-7153688D01*
X25900478Y-7157672D01*
X25784792Y-7163250D01*
X25696161Y-7168479D01*
X25605930Y-7174605D01*
X25514100Y-7181627D01*
X25420669Y-7189546D01*
X25325639Y-7198361D01*
X25293607Y-7201498D01*
X25293607Y-7543096D01*
X25396051Y-7536340D01*
X25493510Y-7530247D01*
X25585984Y-7524820D01*
X25701530Y-7518617D01*
X25808214Y-7513595D01*
X25906037Y-7509755D01*
X25994998Y-7507097D01*
X26093738Y-7505435D01*
X26129357Y-7505288D01*
X26215043Y-7533090D01*
X26221681Y-7539140D01*
X26255672Y-7621152D01*
X26255973Y-7631903D01*
X26255973Y-7758519D01*
X26237999Y-7844873D01*
X26163130Y-7902936D01*
X26103859Y-7910193D01*
X25369665Y-7910193D01*
X25369665Y-8948616D01*
X26585261Y-8948616D01*
X26585261Y-8594269D01*
X25825568Y-8594269D01*
X25825568Y-8264981D01*
X26230474Y-8264981D01*
X26318985Y-8261008D01*
X26410528Y-8246333D01*
X26499692Y-8216321D01*
X26580295Y-8165676D01*
X26595373Y-8151994D01*
X26651691Y-8079366D01*
X26689577Y-7988099D01*
X26707781Y-7891323D01*
X26711877Y-7809077D01*
X26711877Y-7631903D01*
X26707781Y-7543392D01*
X26692649Y-7451849D01*
X26661703Y-7362686D01*
X26609481Y-7282083D01*
X26595373Y-7267004D01*
X26519407Y-7210687D01*
X26434364Y-7176100D01*
X26346428Y-7157782D01*
X26245870Y-7150614D01*
X26230474Y-7150501D01*
G37*
G36*
X26829699Y-7555846D02*
G01*
X27285603Y-7555846D01*
X27285603Y-7176000D01*
X26829699Y-7176000D01*
X26829699Y-7555846D01*
G37*
G36*
X28480241Y-7150971D02*
G01*
X28571432Y-7158029D01*
X28664850Y-7176969D01*
X28754508Y-7212731D01*
X28833565Y-7270961D01*
X28855093Y-7294823D01*
X28902148Y-7370921D01*
X28934145Y-7465155D01*
X28949791Y-7562485D01*
X28954026Y-7656963D01*
X28954026Y-8467653D01*
X28953555Y-8500279D01*
X28946497Y-8591356D01*
X28927558Y-8684720D01*
X28891796Y-8774420D01*
X28833565Y-8853655D01*
X28809779Y-8875182D01*
X28733804Y-8922237D01*
X28639584Y-8954235D01*
X28542175Y-8969880D01*
X28447564Y-8974115D01*
X27966161Y-8974115D01*
X27933536Y-8973645D01*
X27842459Y-8966587D01*
X27749095Y-8947647D01*
X27659395Y-8911885D01*
X27580160Y-8853655D01*
X27558632Y-8829793D01*
X27511577Y-8753695D01*
X27479580Y-8659461D01*
X27463934Y-8562131D01*
X27459699Y-8467653D01*
X27459699Y-7656963D01*
X27915603Y-7656963D01*
X27915603Y-8467653D01*
X27922882Y-8526753D01*
X27981113Y-8601406D01*
X28067718Y-8619328D01*
X28346008Y-8619328D01*
X28405279Y-8612070D01*
X28480148Y-8554007D01*
X28498122Y-8467653D01*
X28498122Y-7656963D01*
X28490843Y-7597863D01*
X28432612Y-7523210D01*
X28346008Y-7505288D01*
X28067718Y-7505288D01*
X28008446Y-7512546D01*
X27933578Y-7570609D01*
X27915603Y-7656963D01*
X27459699Y-7656963D01*
X27460170Y-7624337D01*
X27467228Y-7533260D01*
X27486168Y-7439896D01*
X27521930Y-7350196D01*
X27580160Y-7270961D01*
X27604021Y-7249433D01*
X27680120Y-7202379D01*
X27774353Y-7170381D01*
X27871684Y-7154735D01*
X27966161Y-7150501D01*
X28447564Y-7150501D01*
X28480241Y-7150971D01*
G37*
G36*
X29122847Y-7555846D02*
G01*
X29578750Y-7555846D01*
X29578750Y-7176000D01*
X29122847Y-7176000D01*
X29122847Y-7555846D01*
G37*
G36*
X30773389Y-7150971D02*
G01*
X30864579Y-7158029D01*
X30957997Y-7176969D01*
X31047655Y-7212731D01*
X31126713Y-7270961D01*
X31148240Y-7294823D01*
X31195295Y-7370921D01*
X31227293Y-7465155D01*
X31242938Y-7562485D01*
X31247173Y-7656963D01*
X31247173Y-8467653D01*
X31246703Y-8500279D01*
X31239644Y-8591356D01*
X31220705Y-8684720D01*
X31184943Y-8774420D01*
X31126713Y-8853655D01*
X31102926Y-8875182D01*
X31026951Y-8922237D01*
X30932731Y-8954235D01*
X30835323Y-8969880D01*
X30740711Y-8974115D01*
X30259309Y-8974115D01*
X30226683Y-8973645D01*
X30135606Y-8966587D01*
X30042242Y-8947647D01*
X29952542Y-8911885D01*
X29873307Y-8853655D01*
X29851780Y-8829793D01*
X29804725Y-8753695D01*
X29772727Y-8659461D01*
X29757082Y-8562131D01*
X29752847Y-8467653D01*
X29752847Y-7656963D01*
X30208750Y-7656963D01*
X30208750Y-8467653D01*
X30216029Y-8526753D01*
X30274261Y-8601406D01*
X30360865Y-8619328D01*
X30639155Y-8619328D01*
X30698426Y-8612070D01*
X30773295Y-8554007D01*
X30791270Y-8467653D01*
X30791270Y-7656963D01*
X30783991Y-7597863D01*
X30725759Y-7523210D01*
X30639155Y-7505288D01*
X30360865Y-7505288D01*
X30301594Y-7512546D01*
X30226725Y-7570609D01*
X30208750Y-7656963D01*
X29752847Y-7656963D01*
X29753317Y-7624337D01*
X29760375Y-7533260D01*
X29779315Y-7439896D01*
X29815077Y-7350196D01*
X29873307Y-7270961D01*
X29897169Y-7249433D01*
X29973267Y-7202379D01*
X30067501Y-7170381D01*
X30164831Y-7154735D01*
X30259309Y-7150501D01*
X30740711Y-7150501D01*
X30773389Y-7150971D01*
G37*
G36*
X60819214Y-9078300D02*
G01*
X61177885Y-10112180D01*
X61589312Y-10112180D01*
X61030240Y-8635000D01*
X60608189Y-8635000D01*
X60048750Y-10112180D01*
X60460544Y-10112180D01*
X60819214Y-9078300D01*
G37*
G36*
X61939897Y-8613916D02*
G01*
X62025145Y-8615244D01*
X62112752Y-8617901D01*
X62202718Y-8621885D01*
X62295041Y-8627197D01*
X62389724Y-8633837D01*
X62486764Y-8641806D01*
X62561093Y-8648654D01*
X62636748Y-8656249D01*
X62636748Y-8920031D01*
X62539031Y-8912561D01*
X62447383Y-8906086D01*
X62361803Y-8900608D01*
X62282290Y-8896126D01*
X62191433Y-8891924D01*
X62110056Y-8889278D01*
X62024919Y-8888157D01*
X61972163Y-8909040D01*
X61950914Y-8962163D01*
X61950914Y-9046427D01*
X62679246Y-9046427D01*
X62679246Y-9436971D01*
X62678457Y-9466041D01*
X62666623Y-9545987D01*
X62636821Y-9622036D01*
X62589487Y-9684633D01*
X62559764Y-9710492D01*
X62490284Y-9749060D01*
X62416311Y-9768782D01*
X62341458Y-9774392D01*
X61919406Y-9774392D01*
X61880909Y-9772990D01*
X61802119Y-9759579D01*
X61734168Y-9731967D01*
X61671378Y-9684633D01*
X61645519Y-9655016D01*
X61606951Y-9585693D01*
X61587228Y-9511801D01*
X61581618Y-9436971D01*
X61581618Y-9426346D01*
X61950914Y-9426346D01*
X61967112Y-9483949D01*
X62035544Y-9510610D01*
X62225321Y-9510610D01*
X62280115Y-9496703D01*
X62309951Y-9426346D01*
X62309951Y-9310209D01*
X61950914Y-9310209D01*
X61950914Y-9426346D01*
X61581618Y-9426346D01*
X61581618Y-8930289D01*
X61582378Y-8903926D01*
X61593777Y-8830787D01*
X61622485Y-8759990D01*
X61668080Y-8700212D01*
X61684857Y-8684761D01*
X61747940Y-8644232D01*
X61822043Y-8620590D01*
X61898157Y-8613750D01*
X61939897Y-8613916D01*
G37*
G36*
X63505397Y-9447595D02*
G01*
X63429924Y-9442582D01*
X63353117Y-9427541D01*
X63274977Y-9402474D01*
X63230990Y-9384214D01*
X63230990Y-8635000D01*
X62861695Y-8635000D01*
X62861695Y-9753510D01*
X63188859Y-9753510D01*
X63209741Y-9616123D01*
X63278465Y-9669910D01*
X63348347Y-9712568D01*
X63419389Y-9744099D01*
X63491590Y-9764501D01*
X63564950Y-9773774D01*
X63589661Y-9774392D01*
X63684549Y-9774392D01*
X63684549Y-9447595D01*
X63505397Y-9447595D01*
G37*
G36*
X63785300Y-8930289D02*
G01*
X63864008Y-8924658D01*
X63939529Y-8919582D01*
X64035264Y-8913674D01*
X64125333Y-8908751D01*
X64209734Y-8904812D01*
X64288468Y-8901859D01*
X64378916Y-8899551D01*
X64460509Y-8898782D01*
X64513265Y-8919665D01*
X64534515Y-8972787D01*
X64534515Y-9046427D01*
X64080589Y-9046427D01*
X64004475Y-9053266D01*
X63930372Y-9076908D01*
X63867289Y-9117437D01*
X63850512Y-9132889D01*
X63804917Y-9192666D01*
X63776209Y-9263463D01*
X63764810Y-9336602D01*
X63764050Y-9362965D01*
X63764050Y-9436971D01*
X63770890Y-9513056D01*
X63794532Y-9587059D01*
X63835061Y-9649971D01*
X63850512Y-9666681D01*
X63910290Y-9712470D01*
X63981087Y-9741299D01*
X64054226Y-9752746D01*
X64080589Y-9753510D01*
X64798297Y-9753510D01*
X64798297Y-9479103D01*
X64207351Y-9479103D01*
X64154228Y-9457854D01*
X64133346Y-9405097D01*
X64154228Y-9352341D01*
X64207351Y-9331458D01*
X64587271Y-9331458D01*
X64663356Y-9324590D01*
X64737359Y-9300848D01*
X64800271Y-9260147D01*
X64816981Y-9244630D01*
X64862770Y-9185045D01*
X64891599Y-9114370D01*
X64903047Y-9041279D01*
X64903810Y-9014919D01*
X64903810Y-8930289D01*
X64896941Y-8854175D01*
X64873199Y-8780072D01*
X64832499Y-8716989D01*
X64816981Y-8700212D01*
X64757397Y-8654617D01*
X64686722Y-8625909D01*
X64613631Y-8614510D01*
X64587271Y-8613750D01*
X64492995Y-8614414D01*
X64397013Y-8616407D01*
X64299326Y-8619727D01*
X64224941Y-8623088D01*
X64149596Y-8627197D01*
X64073292Y-8632053D01*
X63996028Y-8637656D01*
X63917804Y-8644005D01*
X63838621Y-8651102D01*
X63785300Y-8656249D01*
X63785300Y-8930289D01*
G37*
G36*
X65488893Y-9711378D02*
G01*
X65488893Y-8635000D01*
X65119598Y-8635000D01*
X65119598Y-9426346D01*
X64961329Y-9426346D01*
X64961329Y-9711378D01*
X65488893Y-9711378D01*
G37*
G36*
X65119598Y-10133429D02*
G01*
X65488893Y-10133429D01*
X65488893Y-9837773D01*
X65119598Y-9837773D01*
X65119598Y-10133429D01*
G37*
G36*
X66526931Y-8614539D02*
G01*
X66606877Y-8626373D01*
X66682926Y-8656176D01*
X66745523Y-8703510D01*
X66771381Y-8733232D01*
X66809950Y-8802712D01*
X66829672Y-8876685D01*
X66835282Y-8951538D01*
X66835282Y-9436971D01*
X66834493Y-9466041D01*
X66822660Y-9545987D01*
X66792857Y-9622036D01*
X66745523Y-9684633D01*
X66715906Y-9710492D01*
X66646583Y-9749060D01*
X66572691Y-9768782D01*
X66497861Y-9774392D01*
X66012428Y-9774392D01*
X65973931Y-9772990D01*
X65895141Y-9759579D01*
X65827189Y-9731967D01*
X65764399Y-9684633D01*
X65738541Y-9655016D01*
X65699973Y-9585693D01*
X65680250Y-9511801D01*
X65674640Y-9436971D01*
X65674640Y-8983046D01*
X66043935Y-8983046D01*
X66043935Y-9405097D01*
X66060134Y-9462950D01*
X66128565Y-9489727D01*
X66381723Y-9489727D01*
X66439325Y-9473529D01*
X66465987Y-9405097D01*
X66465987Y-8983046D01*
X66452080Y-8928488D01*
X66381723Y-8898782D01*
X66128565Y-8898782D01*
X66073771Y-8912689D01*
X66043935Y-8983046D01*
X65674640Y-8983046D01*
X65674640Y-8951538D01*
X65676043Y-8913041D01*
X65689454Y-8834251D01*
X65717065Y-8766300D01*
X65764399Y-8703510D01*
X65794122Y-8677651D01*
X65863602Y-8639083D01*
X65937575Y-8619360D01*
X66012428Y-8613750D01*
X66497861Y-8613750D01*
X66526931Y-8614539D01*
G37*
G36*
X67640184Y-9468478D02*
G01*
X67559856Y-9463500D01*
X67480744Y-9450334D01*
X67404588Y-9431448D01*
X67387027Y-9426346D01*
X67387027Y-8635000D01*
X67017732Y-8635000D01*
X67017732Y-9753510D01*
X67344895Y-9753510D01*
X67365778Y-9647997D01*
X67434642Y-9688718D01*
X67504718Y-9721214D01*
X67569476Y-9743618D01*
X67643201Y-9762371D01*
X67717623Y-9773310D01*
X67745697Y-9774392D01*
X67840586Y-9774392D01*
X67916848Y-9767553D01*
X67990980Y-9743911D01*
X68053949Y-9703382D01*
X68070662Y-9687930D01*
X68116258Y-9628310D01*
X68144966Y-9557528D01*
X68156364Y-9484279D01*
X68157124Y-9457854D01*
X68157124Y-8635000D01*
X67787829Y-8635000D01*
X67787829Y-9394839D01*
X67766580Y-9447229D01*
X67714190Y-9468478D01*
X67640184Y-9468478D01*
G37*
G36*
X69687062Y-8613750D02*
G01*
X69597766Y-8614414D01*
X69506101Y-8616407D01*
X69412065Y-8619727D01*
X69315660Y-8624375D01*
X69241801Y-8628733D01*
X69166608Y-8633837D01*
X69090083Y-8639689D01*
X69012224Y-8646288D01*
X68933033Y-8653634D01*
X68906339Y-8656249D01*
X68906339Y-8940914D01*
X68991709Y-8935283D01*
X69072925Y-8930206D01*
X69149987Y-8925683D01*
X69246275Y-8920514D01*
X69335178Y-8916329D01*
X69416697Y-8913129D01*
X69490832Y-8910914D01*
X69573115Y-8909529D01*
X69602798Y-8909406D01*
X69674202Y-8932575D01*
X69679734Y-8937616D01*
X69708060Y-9005960D01*
X69708311Y-9014919D01*
X69708311Y-9120432D01*
X69693332Y-9192394D01*
X69630941Y-9240780D01*
X69581549Y-9246828D01*
X68969720Y-9246828D01*
X68969720Y-10112180D01*
X69982718Y-10112180D01*
X69982718Y-9816891D01*
X69349640Y-9816891D01*
X69349640Y-9542484D01*
X69687062Y-9542484D01*
X69760821Y-9539174D01*
X69837106Y-9526944D01*
X69911410Y-9501934D01*
X69978579Y-9459730D01*
X69991144Y-9448328D01*
X70038075Y-9387805D01*
X70069648Y-9311749D01*
X70084817Y-9231103D01*
X70088230Y-9162564D01*
X70088230Y-9014919D01*
X70084817Y-8941160D01*
X70072207Y-8864874D01*
X70046419Y-8790571D01*
X70002901Y-8723402D01*
X69991144Y-8710837D01*
X69927839Y-8663905D01*
X69856970Y-8635083D01*
X69783690Y-8619818D01*
X69699892Y-8613845D01*
X69687062Y-8613750D01*
G37*
G36*
X70186416Y-8951538D02*
G01*
X70566336Y-8951538D01*
X70566336Y-8635000D01*
X70186416Y-8635000D01*
X70186416Y-8951538D01*
G37*
G36*
X71561868Y-8614142D02*
G01*
X71637860Y-8620024D01*
X71715708Y-8635807D01*
X71790423Y-8665609D01*
X71856304Y-8714134D01*
X71874244Y-8734019D01*
X71913457Y-8797434D01*
X71940121Y-8875962D01*
X71953159Y-8957071D01*
X71956688Y-9035802D01*
X71956688Y-9711378D01*
X71956296Y-9738566D01*
X71950414Y-9814463D01*
X71934631Y-9892267D01*
X71904830Y-9967016D01*
X71856304Y-10033046D01*
X71836482Y-10050985D01*
X71773170Y-10090198D01*
X71694653Y-10116862D01*
X71613479Y-10129900D01*
X71534637Y-10133429D01*
X71133468Y-10133429D01*
X71106280Y-10133037D01*
X71030382Y-10127155D01*
X70952579Y-10111372D01*
X70877829Y-10081571D01*
X70811800Y-10033046D01*
X70793860Y-10013161D01*
X70754648Y-9949746D01*
X70727983Y-9871218D01*
X70714945Y-9790109D01*
X70711416Y-9711378D01*
X70711416Y-9035802D01*
X71091336Y-9035802D01*
X71091336Y-9711378D01*
X71097402Y-9760628D01*
X71145928Y-9822838D01*
X71218098Y-9837773D01*
X71450006Y-9837773D01*
X71499399Y-9831725D01*
X71561790Y-9783339D01*
X71576769Y-9711378D01*
X71576769Y-9035802D01*
X71570703Y-8986552D01*
X71522177Y-8924342D01*
X71450006Y-8909406D01*
X71218098Y-8909406D01*
X71168705Y-8915455D01*
X71106315Y-8963840D01*
X71091336Y-9035802D01*
X70711416Y-9035802D01*
X70711808Y-9008614D01*
X70717690Y-8932716D01*
X70733473Y-8854913D01*
X70763275Y-8780163D01*
X70811800Y-8714134D01*
X70831684Y-8696194D01*
X70895100Y-8656982D01*
X70973628Y-8630318D01*
X71054737Y-8617279D01*
X71133468Y-8613750D01*
X71534637Y-8613750D01*
X71561868Y-8614142D01*
G37*
G36*
X72097372Y-8951538D02*
G01*
X72477292Y-8951538D01*
X72477292Y-8635000D01*
X72097372Y-8635000D01*
X72097372Y-8951538D01*
G37*
G36*
X73472824Y-8614142D02*
G01*
X73548816Y-8620024D01*
X73626664Y-8635807D01*
X73701379Y-8665609D01*
X73767260Y-8714134D01*
X73785200Y-8734019D01*
X73824413Y-8797434D01*
X73851077Y-8875962D01*
X73864115Y-8957071D01*
X73867644Y-9035802D01*
X73867644Y-9711378D01*
X73867252Y-9738566D01*
X73861370Y-9814463D01*
X73845587Y-9892267D01*
X73815786Y-9967016D01*
X73767260Y-10033046D01*
X73747438Y-10050985D01*
X73684126Y-10090198D01*
X73605609Y-10116862D01*
X73524435Y-10129900D01*
X73445593Y-10133429D01*
X73044424Y-10133429D01*
X73017236Y-10133037D01*
X72941338Y-10127155D01*
X72863535Y-10111372D01*
X72788785Y-10081571D01*
X72722756Y-10033046D01*
X72704816Y-10013161D01*
X72665604Y-9949746D01*
X72638939Y-9871218D01*
X72625901Y-9790109D01*
X72622372Y-9711378D01*
X72622372Y-9035802D01*
X73002292Y-9035802D01*
X73002292Y-9711378D01*
X73008358Y-9760628D01*
X73056884Y-9822838D01*
X73129054Y-9837773D01*
X73360963Y-9837773D01*
X73410355Y-9831725D01*
X73472746Y-9783339D01*
X73487725Y-9711378D01*
X73487725Y-9035802D01*
X73481659Y-8986552D01*
X73433133Y-8924342D01*
X73360963Y-8909406D01*
X73129054Y-8909406D01*
X73079661Y-8915455D01*
X73017271Y-8963840D01*
X73002292Y-9035802D01*
X72622372Y-9035802D01*
X72622764Y-9008614D01*
X72628646Y-8932716D01*
X72644429Y-8854913D01*
X72674231Y-8780163D01*
X72722756Y-8714134D01*
X72742641Y-8696194D01*
X72806056Y-8656982D01*
X72884584Y-8630318D01*
X72965693Y-8617279D01*
X73044424Y-8613750D01*
X73445593Y-8613750D01*
X73472824Y-8614142D01*
G37*
D12*
G36*
X88737240Y-4947200D02*
G01*
X88404581Y-5110598D01*
X88404581Y-5386104D01*
X88900638Y-5106446D01*
X89405000Y-5393676D01*
X89405000Y-5115483D01*
X89066235Y-4947200D01*
X89405000Y-4778916D01*
X89405000Y-4501212D01*
X88900638Y-4787709D01*
X88404581Y-4508784D01*
X88404581Y-4783557D01*
X88737240Y-4947200D01*
G37*
G36*
X88737240Y-25077200D02*
G01*
X88404581Y-25240598D01*
X88404581Y-25516104D01*
X88900638Y-25236446D01*
X89405000Y-25523676D01*
X89405000Y-25245483D01*
X89066235Y-25077200D01*
X89405000Y-24908916D01*
X89405000Y-24631212D01*
X88900638Y-24917709D01*
X88404581Y-24638784D01*
X88404581Y-24913557D01*
X88737240Y-25077200D01*
G37*
D10*
G36*
X85958557Y-19972125D02*
G01*
X85960334Y-19935018D01*
X85965426Y-19899639D01*
X85973479Y-19866223D01*
X85987170Y-19827574D01*
X86004240Y-19792825D01*
X86023999Y-19762436D01*
X86045752Y-19736870D01*
X86374356Y-19736870D01*
X86374356Y-19994693D01*
X86255703Y-19994693D01*
X86255703Y-19866294D01*
X86111576Y-19866294D01*
X86093937Y-19897586D01*
X86085706Y-19930777D01*
X86083878Y-19956396D01*
X86086376Y-19994780D01*
X86093758Y-20029431D01*
X86110916Y-20069810D01*
X86136078Y-20103513D01*
X86168856Y-20130520D01*
X86208861Y-20150808D01*
X86243374Y-20161602D01*
X86281568Y-20168594D01*
X86323282Y-20171776D01*
X86337940Y-20171989D01*
X86380279Y-20169806D01*
X86419193Y-20163416D01*
X86454520Y-20153056D01*
X86486100Y-20138963D01*
X86522096Y-20114778D01*
X86550759Y-20084943D01*
X86571707Y-20050020D01*
X86584556Y-20010574D01*
X86588924Y-19967167D01*
X86586251Y-19932687D01*
X86577041Y-19897951D01*
X86559904Y-19863992D01*
X86537374Y-19834406D01*
X86527887Y-19824065D01*
X86620382Y-19747641D01*
X86646821Y-19776836D01*
X86667181Y-19805482D01*
X86684988Y-19838213D01*
X86699276Y-19875175D01*
X86709079Y-19916519D01*
X86713042Y-19952849D01*
X86713561Y-19972125D01*
X86711926Y-20007842D01*
X86707061Y-20042494D01*
X86699025Y-20075911D01*
X86681157Y-20123344D01*
X86656490Y-20167036D01*
X86625225Y-20206407D01*
X86587565Y-20240882D01*
X86559003Y-20260859D01*
X86527748Y-20278232D01*
X86493859Y-20292830D01*
X86457395Y-20304482D01*
X86418417Y-20313016D01*
X86376983Y-20318262D01*
X86333153Y-20320049D01*
X86288853Y-20318305D01*
X86247206Y-20313177D01*
X86208240Y-20304819D01*
X86171984Y-20293383D01*
X86138466Y-20279024D01*
X86107714Y-20261896D01*
X86079756Y-20242152D01*
X86043121Y-20207968D01*
X86012933Y-20168764D01*
X85989287Y-20125058D01*
X85972279Y-20077371D01*
X85964675Y-20043623D01*
X85960091Y-20008490D01*
X85958557Y-19972125D01*
G37*
G36*
X85969500Y-19581458D02*
G01*
X85969500Y-19444169D01*
X86258781Y-19444169D01*
X86297851Y-19444902D01*
X86337645Y-19446876D01*
X86377687Y-19449755D01*
X86417499Y-19453202D01*
X86456603Y-19456881D01*
X86494523Y-19460455D01*
X86509252Y-19461779D01*
X86509252Y-19456992D01*
X86354695Y-19383475D01*
X85969500Y-19173695D01*
X85969500Y-19026661D01*
X86691677Y-19026661D01*
X86691677Y-19163950D01*
X86402225Y-19163950D01*
X86363603Y-19163150D01*
X86323608Y-19161005D01*
X86283047Y-19157899D01*
X86242725Y-19154216D01*
X86203449Y-19150338D01*
X86166024Y-19146650D01*
X86151754Y-19145314D01*
X86151754Y-19150272D01*
X86307336Y-19222763D01*
X86691677Y-19433398D01*
X86691677Y-19581458D01*
X85969500Y-19581458D01*
G37*
G36*
X86377047Y-18291547D02*
G01*
X86418147Y-18296283D01*
X86456300Y-18304080D01*
X86491522Y-18314862D01*
X86523829Y-18328550D01*
X86566863Y-18354360D01*
X86603435Y-18386271D01*
X86633601Y-18424020D01*
X86657417Y-18467344D01*
X86674941Y-18515980D01*
X86683156Y-18551226D01*
X86688615Y-18588637D01*
X86691337Y-18628137D01*
X86691677Y-18648646D01*
X86691677Y-18847655D01*
X85969500Y-18847655D01*
X85969500Y-18657537D01*
X86086101Y-18657537D01*
X86086101Y-18702502D01*
X86574904Y-18702502D01*
X86574904Y-18657537D01*
X86573128Y-18620872D01*
X86567654Y-18587059D01*
X86554229Y-18546696D01*
X86533330Y-18512085D01*
X86504441Y-18483619D01*
X86467048Y-18461687D01*
X86433113Y-18449762D01*
X86393887Y-18441897D01*
X86349154Y-18438257D01*
X86332982Y-18438011D01*
X86286439Y-18440206D01*
X86245187Y-18446681D01*
X86209069Y-18457271D01*
X86177931Y-18471812D01*
X86143889Y-18497060D01*
X86118054Y-18528647D01*
X86100056Y-18566182D01*
X86089528Y-18609276D01*
X86086312Y-18645008D01*
X86086101Y-18657537D01*
X85969500Y-18657537D01*
X85969500Y-18640782D01*
X85970922Y-18601651D01*
X85975188Y-18564397D01*
X85982298Y-18529109D01*
X85992249Y-18495876D01*
X86012503Y-18450077D01*
X86039146Y-18409405D01*
X86072174Y-18374163D01*
X86111585Y-18344651D01*
X86157374Y-18321172D01*
X86191443Y-18309021D01*
X86228344Y-18299774D01*
X86268076Y-18293521D01*
X86310639Y-18290351D01*
X86332982Y-18289951D01*
X86377047Y-18291547D01*
G37*
%TO.C,HOLE\u002A\u002A*%
X2240000Y-3215000D02*
G75*
G02*
X-1360000Y-3215000I-1800000J0D01*
G01*
X-1360000Y-3215000D02*
G75*
G02*
X2240000Y-3215000I1800000J0D01*
G01*
X61590000Y-3215000D02*
G75*
G02*
X57990000Y-3215000I-1800000J0D01*
G01*
X57990000Y-3215000D02*
G75*
G02*
X61590000Y-3215000I1800000J0D01*
G01*
X79530000Y-26715000D02*
G75*
G02*
X75930000Y-26715000I-1800000J0D01*
G01*
X75930000Y-26715000D02*
G75*
G02*
X79530000Y-26715000I1800000J0D01*
G01*
X61590000Y-26715000D02*
G75*
G02*
X57990000Y-26715000I-1800000J0D01*
G01*
X57990000Y-26715000D02*
G75*
G02*
X61590000Y-26715000I1800000J0D01*
G01*
X2240000Y-26715000D02*
G75*
G02*
X-1360000Y-26715000I-1800000J0D01*
G01*
X-1360000Y-26715000D02*
G75*
G02*
X2240000Y-26715000I1800000J0D01*
G01*
X39185000Y-3215000D02*
G75*
G02*
X35585000Y-3215000I-1800000J0D01*
G01*
X35585000Y-3215000D02*
G75*
G02*
X39185000Y-3215000I1800000J0D01*
G01*
X39185000Y-26715000D02*
G75*
G02*
X35585000Y-26715000I-1800000J0D01*
G01*
X35585000Y-26715000D02*
G75*
G02*
X39185000Y-26715000I1800000J0D01*
G01*
X79530000Y-3215000D02*
G75*
G02*
X75930000Y-3215000I-1800000J0D01*
G01*
X75930000Y-3215000D02*
G75*
G02*
X79530000Y-3215000I1800000J0D01*
G01*
%TD*%
%LPC*%
D14*
%TO.C,J6*%
X14480000Y-3190000D03*
D15*
X17020000Y-3190000D03*
X19560000Y-3190000D03*
X22100000Y-3190000D03*
X24640000Y-3190000D03*
%TD*%
D14*
%TO.C,J7*%
X45225000Y-27675000D03*
D15*
X45225000Y-25135000D03*
X45225000Y-22595000D03*
X45225000Y-20055000D03*
X45225000Y-17515000D03*
X45225000Y-14975000D03*
X45225000Y-12435000D03*
X45225000Y-9895000D03*
X45225000Y-7355000D03*
X45225000Y-4815000D03*
X45225000Y-2275000D03*
%TD*%
D16*
%TO.C,HOLE\u002A\u002A*%
X440000Y-3215000D03*
%TD*%
%TO.C,HOLE\u002A\u002A*%
X59790000Y-3215000D03*
%TD*%
D17*
%TO.C,J2*%
X81393500Y-3570000D03*
D18*
X83933500Y-3570000D03*
X81393500Y-6110000D03*
X83933500Y-6110000D03*
X81393500Y-8650000D03*
X83933500Y-8650000D03*
X81393500Y-11190000D03*
X83933500Y-11190000D03*
X81393500Y-13730000D03*
X83933500Y-13730000D03*
X81393500Y-16270000D03*
X83933500Y-16270000D03*
X81393500Y-18810000D03*
X83933500Y-18810000D03*
X81393500Y-21350000D03*
X83933500Y-21350000D03*
X81393500Y-23890000D03*
X83933500Y-23890000D03*
X81393500Y-26430000D03*
X83933500Y-26430000D03*
%TD*%
D16*
%TO.C,HOLE\u002A\u002A*%
X77730000Y-26715000D03*
%TD*%
%TO.C,HOLE\u002A\u002A*%
X59790000Y-26715000D03*
%TD*%
%TO.C,HOLE\u002A\u002A*%
X440000Y-26715000D03*
%TD*%
%TO.C,HOLE\u002A\u002A*%
X37385000Y-3215000D03*
%TD*%
D14*
%TO.C,J4*%
X71160000Y-1775000D03*
D15*
X73700000Y-1775000D03*
%TD*%
D19*
%TO.C,USB1*%
X2377000Y-12110000D03*
X2377000Y-17890000D03*
D20*
X2877000Y-10675000D03*
X2877000Y-19325000D03*
D21*
X-1323000Y-10675000D03*
X-1323000Y-19325000D03*
%TD*%
D14*
%TO.C,J1*%
X73710000Y-28225000D03*
D15*
X71170000Y-28225000D03*
X68630000Y-28225000D03*
X66090000Y-28225000D03*
X63550000Y-28225000D03*
%TD*%
D14*
%TO.C,J5*%
X52825000Y-27675000D03*
D15*
X52825000Y-25135000D03*
X52825000Y-22595000D03*
X52825000Y-20055000D03*
X52825000Y-17515000D03*
X52825000Y-14975000D03*
X52825000Y-12435000D03*
X52825000Y-9895000D03*
X52825000Y-7355000D03*
X52825000Y-4815000D03*
X52825000Y-2275000D03*
%TD*%
D16*
%TO.C,HOLE\u002A\u002A*%
X37385000Y-26715000D03*
%TD*%
%TO.C,HOLE\u002A\u002A*%
X77730000Y-3215000D03*
%TD*%
D14*
%TO.C,J3*%
X63560000Y-1775000D03*
D15*
X66100000Y-1775000D03*
%TD*%
%LPD*%
M02*
