%TF.GenerationSoftware,KiCad,Pcbnew,7.0.9*%
%TF.CreationDate,2024-01-11T16:53:17+08:00*%
%TF.ProjectId,UINIO-DAP-Link,55494e49-4f2d-4444-9150-2d4c696e6b2e,Version 3.3.1*%
%TF.SameCoordinates,PX6318a70PY5c9a0e0*%
%TF.FileFunction,Soldermask,Bot*%
%TF.FilePolarity,Negative*%
%FSLAX46Y46*%
G04 Gerber Fmt 4.6, Leading zero omitted, Abs format (unit mm)*
G04 Created by KiCad (PCBNEW 7.0.9) date 2024-01-11 16:53:17*
%MOMM*%
%LPD*%
G01*
G04 APERTURE LIST*
G04 Aperture macros list*
%AMRoundRect*
0 Rectangle with rounded corners*
0 $1 Rounding radius*
0 $2 $3 $4 $5 $6 $7 $8 $9 X,Y pos of 4 corners*
0 Add a 4 corners polygon primitive as box body*
4,1,4,$2,$3,$4,$5,$6,$7,$8,$9,$2,$3,0*
0 Add four circle primitives for the rounded corners*
1,1,$1+$1,$2,$3*
1,1,$1+$1,$4,$5*
1,1,$1+$1,$6,$7*
1,1,$1+$1,$8,$9*
0 Add four rect primitives between the rounded corners*
20,1,$1+$1,$2,$3,$4,$5,0*
20,1,$1+$1,$4,$5,$6,$7,0*
20,1,$1+$1,$6,$7,$8,$9,0*
20,1,$1+$1,$8,$9,$2,$3,0*%
G04 Aperture macros list end*
%ADD10R,1.700000X1.700000*%
%ADD11O,1.700000X1.700000*%
%ADD12C,1.200000*%
%ADD13RoundRect,0.250000X-0.600000X-0.600000X0.600000X-0.600000X0.600000X0.600000X-0.600000X0.600000X0*%
%ADD14C,1.700000*%
%ADD15C,2.200000*%
%ADD16RoundRect,0.250000X0.600000X0.600000X-0.600000X0.600000X-0.600000X-0.600000X0.600000X-0.600000X0*%
%ADD17C,0.650000*%
%ADD18O,2.100000X1.000000*%
%ADD19O,1.900000X1.000000*%
G04 APERTURE END LIST*
D10*
%TO.C,J6*%
X3040000Y-19150000D03*
D11*
X5580000Y-19150000D03*
X8120000Y-19150000D03*
X10660000Y-19150000D03*
%TD*%
D12*
%TO.C,HOLE2*%
X260000Y-18550000D03*
%TD*%
D13*
%TO.C,J7*%
X29330000Y-5220000D03*
D14*
X31870000Y-5220000D03*
X29330000Y-7760000D03*
X31870000Y-7760000D03*
X29330000Y-10300000D03*
X31870000Y-10300000D03*
X29330000Y-12840000D03*
X31870000Y-12840000D03*
X29330000Y-15380000D03*
X31870000Y-15380000D03*
%TD*%
D15*
%TO.C,HOLE8*%
X74504000Y2290000D03*
%TD*%
%TO.C,HOLE7*%
X74524000Y-22850000D03*
%TD*%
D13*
%TO.C,J2*%
X77898500Y1130000D03*
D14*
X80438500Y1130000D03*
X77898500Y-1410000D03*
X80438500Y-1410000D03*
X77898500Y-3950000D03*
X80438500Y-3950000D03*
X77898500Y-6490000D03*
X80438500Y-6490000D03*
X77898500Y-9030000D03*
X80438500Y-9030000D03*
X77898500Y-11570000D03*
X80438500Y-11570000D03*
X77898500Y-14110000D03*
X80438500Y-14110000D03*
X77898500Y-16650000D03*
X80438500Y-16650000D03*
X77898500Y-19190000D03*
X80438500Y-19190000D03*
X77898500Y-21730000D03*
X80438500Y-21730000D03*
%TD*%
D10*
%TO.C,J4*%
X60505000Y-22764000D03*
D11*
X63045000Y-22764000D03*
%TD*%
D12*
%TO.C,HOLE1*%
X260000Y-2050000D03*
%TD*%
D16*
%TO.C,J5*%
X58991500Y-15380000D03*
D14*
X56451500Y-15380000D03*
X58991500Y-12840000D03*
X56451500Y-12840000D03*
X58991500Y-10300000D03*
X56451500Y-10300000D03*
X58991500Y-7760000D03*
X56451500Y-7760000D03*
X58991500Y-5220000D03*
X56451500Y-5220000D03*
%TD*%
D15*
%TO.C,HOLE6*%
X56644000Y-22820000D03*
%TD*%
D17*
%TO.C,USB1*%
X4379000Y-7450000D03*
X4379000Y-13230000D03*
D18*
X4879000Y-6015000D03*
X4879000Y-14665000D03*
D19*
X679000Y-6015000D03*
X679000Y-14665000D03*
%TD*%
D10*
%TO.C,J1*%
X60495000Y2206000D03*
D11*
X63035000Y2206000D03*
X65575000Y2206000D03*
X68115000Y2206000D03*
X70655000Y2206000D03*
%TD*%
D15*
%TO.C,HOLE4*%
X30800000Y-2050000D03*
%TD*%
%TO.C,HOLE5*%
X56604000Y2290000D03*
%TD*%
%TO.C,HOLE3*%
X30760000Y-18550000D03*
%TD*%
D10*
%TO.C,J3*%
X68065000Y-22764000D03*
D11*
X70605000Y-22764000D03*
%TD*%
M02*
