M48
; DRILL file {KiCad 7.0.9} date Thu Jan 11 16:53:22 2024
; FORMAT={-:-/ absolute / metric / decimal}
; #@! TF.CreationDate,2024-01-11T16:53:22+08:00
; #@! TF.GenerationSoftware,Kicad,Pcbnew,7.0.9
; #@! TF.FileFunction,MixedPlating,1,2
FMAT,2
METRIC
; #@! TA.AperFunction,Plated,PTH,ViaDrill
T1C0.300
; #@! TA.AperFunction,Plated,PTH,ViaDrill
T2C0.400
; #@! TA.AperFunction,Plated,PTH,ComponentDrill
T3C0.600
; #@! TA.AperFunction,Plated,PTH,ComponentDrill
T4C1.000
; #@! TA.AperFunction,Plated,PTH,ComponentDrill
T5C1.200
; #@! TA.AperFunction,Plated,PTH,ComponentDrill
T6C2.200
; #@! TA.AperFunction,NonPlated,NPTH,ComponentDrill
T7C0.650
%
G90
G05
T1
X9.96Y-16.04
X11.5Y-1.08
X11.5Y-3.29
X11.607Y-11.997
X11.98Y-15.29
X12.22Y-6.01
X12.89Y-16.69
X12.92Y-10.17
X15.41Y-9.53
X16.34Y-10.24
X17.43Y-16.25
X17.905Y-13.245
X17.91Y-8.9
X17.91Y-11.58
X18.29Y-6.62
X18.59Y-4.06
X19.48Y-10.24
X20.15Y-8.29
X20.3Y-9.4
X21.105Y-15.585
X22.42Y-14.27
X22.43Y-17.04
X25.23Y-2.51
X25.23Y-13.59
X25.24Y-6.51
X25.25Y-9.03
X30.55Y-9.02
X55.04Y-8.99
X55.04Y-11.55
X60.49Y-2.68
X60.58Y-8.39
X62.82Y-10.62
X62.82Y-12.92
X62.87Y-8.39
X63.49Y-11.57
X64.13Y-8.39
X64.13Y-9.71
X64.13Y-13.32
X64.33Y-14.85
X65.57Y-16.86
X69.34Y-14.07
X69.51Y-1.81
X69.834Y-2.674
X69.84Y-0.98
X71.82Y-2.74
X73.64Y-9.01
X73.64Y-10.41
X76.1Y-11.75
T2
X5.77Y-2.23
X7.09Y-12.75
X7.12Y-7.93
X8.69Y-6.01
X9.76Y-4.81
X12.21Y-4.8
X17.9Y-10.18
X22.42Y-19.51
T4
X3.04Y-19.15
X5.58Y-19.15
X8.12Y-19.15
X10.66Y-19.15
X29.33Y-5.22
X29.33Y-7.76
X29.33Y-10.3
X29.33Y-12.84
X29.33Y-15.38
X31.87Y-5.22
X31.87Y-7.76
X31.87Y-10.3
X31.87Y-12.84
X31.87Y-15.38
X56.451Y-5.22
X56.451Y-7.76
X56.451Y-10.3
X56.451Y-12.84
X56.451Y-15.38
X58.991Y-5.22
X58.991Y-7.76
X58.991Y-10.3
X58.991Y-12.84
X58.991Y-15.38
X60.495Y2.206
X60.505Y-22.764
X63.035Y2.206
X63.045Y-22.764
X65.575Y2.206
X68.065Y-22.764
X68.115Y2.206
X70.605Y-22.764
X70.655Y2.206
X77.898Y1.13
X77.898Y-1.41
X77.898Y-3.95
X77.898Y-6.49
X77.898Y-9.03
X77.898Y-11.57
X77.898Y-14.11
X77.898Y-16.65
X77.898Y-19.19
X77.898Y-21.73
X80.438Y1.13
X80.438Y-1.41
X80.438Y-3.95
X80.438Y-6.49
X80.438Y-9.03
X80.438Y-11.57
X80.438Y-14.11
X80.438Y-16.65
X80.438Y-19.19
X80.438Y-21.73
T5
X0.26Y-2.05
X0.26Y-18.55
T6
X30.76Y-18.55
X30.8Y-2.05
X56.604Y2.29
X56.644Y-22.82
X74.504Y2.29
X74.524Y-22.85
T7
X4.379Y-7.45
X4.379Y-13.23
T3
G00X1.129Y-6.015
M15
G01X0.229Y-6.015
M16
G05
G00X1.129Y-14.665
M15
G01X0.229Y-14.665
M16
G05
G00X5.479Y-6.015
M15
G01X4.279Y-6.015
M16
G05
G00X5.479Y-14.665
M15
G01X4.279Y-14.665
M16
G05
T0
M30
