%TF.GenerationSoftware,KiCad,Pcbnew,8.0.6*%
%TF.CreationDate,2024-11-27T14:42:17+08:00*%
%TF.ProjectId,UINIO-DAPLink,55494e49-4f2d-4444-9150-4c696e6b2e6b,Version 5.0.0*%
%TF.SameCoordinates,PX6192070PY5393438*%
%TF.FileFunction,Paste,Top*%
%TF.FilePolarity,Positive*%
%FSLAX46Y46*%
G04 Gerber Fmt 4.6, Leading zero omitted, Abs format (unit mm)*
G04 Created by KiCad (PCBNEW 8.0.6) date 2024-11-27 14:42:17*
%MOMM*%
%LPD*%
G01*
G04 APERTURE LIST*
G04 Aperture macros list*
%AMRoundRect*
0 Rectangle with rounded corners*
0 $1 Rounding radius*
0 $2 $3 $4 $5 $6 $7 $8 $9 X,Y pos of 4 corners*
0 Add a 4 corners polygon primitive as box body*
4,1,4,$2,$3,$4,$5,$6,$7,$8,$9,$2,$3,0*
0 Add four circle primitives for the rounded corners*
1,1,$1+$1,$2,$3*
1,1,$1+$1,$4,$5*
1,1,$1+$1,$6,$7*
1,1,$1+$1,$8,$9*
0 Add four rect primitives between the rounded corners*
20,1,$1+$1,$2,$3,$4,$5,0*
20,1,$1+$1,$4,$5,$6,$7,0*
20,1,$1+$1,$6,$7,$8,$9,0*
20,1,$1+$1,$8,$9,$2,$3,0*%
%AMHorizOval*
0 Thick line with rounded ends*
0 $1 width*
0 $2 $3 position (X,Y) of the first rounded end (center of the circle)*
0 $4 $5 position (X,Y) of the second rounded end (center of the circle)*
0 Add line between two ends*
20,1,$1,$2,$3,$4,$5,0*
0 Add two circle primitives to create the rounded ends*
1,1,$1,$2,$3*
1,1,$1,$4,$5*%
%AMRotRect*
0 Rectangle, with rotation*
0 The origin of the aperture is its center*
0 $1 length*
0 $2 width*
0 $3 Rotation angle, in degrees counterclockwise*
0 Add horizontal line*
21,1,$1,$2,0,0,$3*%
G04 Aperture macros list end*
%ADD10C,0.120000*%
%ADD11RoundRect,0.218750X-0.218750X-0.256250X0.218750X-0.256250X0.218750X0.256250X-0.218750X0.256250X0*%
%ADD12RoundRect,0.140000X0.021213X-0.219203X0.219203X-0.021213X-0.021213X0.219203X-0.219203X0.021213X0*%
%ADD13RoundRect,0.135000X0.185000X-0.135000X0.185000X0.135000X-0.185000X0.135000X-0.185000X-0.135000X0*%
%ADD14RoundRect,0.225000X-0.250000X0.225000X-0.250000X-0.225000X0.250000X-0.225000X0.250000X0.225000X0*%
%ADD15RoundRect,0.135000X0.135000X0.185000X-0.135000X0.185000X-0.135000X-0.185000X0.135000X-0.185000X0*%
%ADD16RoundRect,0.140000X0.140000X0.170000X-0.140000X0.170000X-0.140000X-0.170000X0.140000X-0.170000X0*%
%ADD17RoundRect,0.140000X0.170000X-0.140000X0.170000X0.140000X-0.170000X0.140000X-0.170000X-0.140000X0*%
%ADD18RoundRect,0.140000X-0.170000X0.140000X-0.170000X-0.140000X0.170000X-0.140000X0.170000X0.140000X0*%
%ADD19RoundRect,0.200000X0.200000X0.275000X-0.200000X0.275000X-0.200000X-0.275000X0.200000X-0.275000X0*%
%ADD20RotRect,1.400000X1.200000X45.000000*%
%ADD21RoundRect,0.218750X0.218750X0.256250X-0.218750X0.256250X-0.218750X-0.256250X0.218750X-0.256250X0*%
%ADD22RoundRect,0.218750X0.256250X-0.218750X0.256250X0.218750X-0.256250X0.218750X-0.256250X-0.218750X0*%
%ADD23RoundRect,0.135000X-0.135000X-0.185000X0.135000X-0.185000X0.135000X0.185000X-0.135000X0.185000X0*%
%ADD24RoundRect,0.140000X-0.140000X-0.170000X0.140000X-0.170000X0.140000X0.170000X-0.140000X0.170000X0*%
%ADD25RoundRect,0.135000X-0.185000X0.135000X-0.185000X-0.135000X0.185000X-0.135000X0.185000X0.135000X0*%
%ADD26R,1.200000X1.200000*%
%ADD27R,1.000000X0.600000*%
%ADD28RoundRect,0.218750X-0.256250X0.218750X-0.256250X-0.218750X0.256250X-0.218750X0.256250X0.218750X0*%
%ADD29HorizOval,0.270000X-0.434871X-0.434871X0.434871X0.434871X0*%
%ADD30HorizOval,0.270000X0.434871X-0.434871X-0.434871X0.434871X0*%
%ADD31R,1.150000X0.600000*%
%ADD32R,1.150000X0.300000*%
%ADD33RoundRect,0.250000X0.375000X0.625000X-0.375000X0.625000X-0.375000X-0.625000X0.375000X-0.625000X0*%
%ADD34RoundRect,0.150000X0.200000X-0.150000X0.200000X0.150000X-0.200000X0.150000X-0.200000X-0.150000X0*%
%ADD35RoundRect,0.150000X-0.200000X0.150000X-0.200000X-0.150000X0.200000X-0.150000X0.200000X0.150000X0*%
G04 APERTURE END LIST*
D10*
%TO.C,USB1*%
X4214000Y-12100000D02*
X3064000Y-12100000D01*
X3064000Y-11500000D01*
X4214000Y-11500000D01*
X4214000Y-12100000D01*
G36*
X4214000Y-12100000D02*
G01*
X3064000Y-12100000D01*
X3064000Y-11500000D01*
X4214000Y-11500000D01*
X4214000Y-12100000D01*
G37*
X4214000Y-12900000D02*
X3064000Y-12900000D01*
X3064000Y-12300000D01*
X4214000Y-12300000D01*
X4214000Y-12900000D01*
G36*
X4214000Y-12900000D02*
G01*
X3064000Y-12900000D01*
X3064000Y-12300000D01*
X4214000Y-12300000D01*
X4214000Y-12900000D01*
G37*
X4214000Y-13400000D02*
X3064000Y-13400000D01*
X3064000Y-13100000D01*
X4214000Y-13100000D01*
X4214000Y-13400000D01*
G36*
X4214000Y-13400000D02*
G01*
X3064000Y-13400000D01*
X3064000Y-13100000D01*
X4214000Y-13100000D01*
X4214000Y-13400000D01*
G37*
X4214000Y-13900000D02*
X3064000Y-13900000D01*
X3064000Y-13600000D01*
X4214000Y-13600000D01*
X4214000Y-13900000D01*
G36*
X4214000Y-13900000D02*
G01*
X3064000Y-13900000D01*
X3064000Y-13600000D01*
X4214000Y-13600000D01*
X4214000Y-13900000D01*
G37*
X4214000Y-14400000D02*
X3064000Y-14400000D01*
X3064000Y-14100000D01*
X4214000Y-14100000D01*
X4214000Y-14400000D01*
G36*
X4214000Y-14400000D02*
G01*
X3064000Y-14400000D01*
X3064000Y-14100000D01*
X4214000Y-14100000D01*
X4214000Y-14400000D01*
G37*
X4214000Y-14900000D02*
X3064000Y-14900000D01*
X3064000Y-14600000D01*
X4214000Y-14600000D01*
X4214000Y-14900000D01*
G36*
X4214000Y-14900000D02*
G01*
X3064000Y-14900000D01*
X3064000Y-14600000D01*
X4214000Y-14600000D01*
X4214000Y-14900000D01*
G37*
X4214000Y-15400000D02*
X3064000Y-15400000D01*
X3064000Y-15100000D01*
X4214000Y-15100000D01*
X4214000Y-15400000D01*
G36*
X4214000Y-15400000D02*
G01*
X3064000Y-15400000D01*
X3064000Y-15100000D01*
X4214000Y-15100000D01*
X4214000Y-15400000D01*
G37*
X4214000Y-15900000D02*
X3064000Y-15900000D01*
X3064000Y-15600000D01*
X4214000Y-15600000D01*
X4214000Y-15900000D01*
G36*
X4214000Y-15900000D02*
G01*
X3064000Y-15900000D01*
X3064000Y-15600000D01*
X4214000Y-15600000D01*
X4214000Y-15900000D01*
G37*
X4214000Y-16400000D02*
X3064000Y-16400000D01*
X3064000Y-16100000D01*
X4214000Y-16100000D01*
X4214000Y-16400000D01*
G36*
X4214000Y-16400000D02*
G01*
X3064000Y-16400000D01*
X3064000Y-16100000D01*
X4214000Y-16100000D01*
X4214000Y-16400000D01*
G37*
X4214000Y-16900000D02*
X3064000Y-16900000D01*
X3064000Y-16600000D01*
X4214000Y-16600000D01*
X4214000Y-16900000D01*
G36*
X4214000Y-16900000D02*
G01*
X3064000Y-16900000D01*
X3064000Y-16600000D01*
X4214000Y-16600000D01*
X4214000Y-16900000D01*
G37*
X4214000Y-17700000D02*
X3064000Y-17700000D01*
X3064000Y-17100000D01*
X4214000Y-17100000D01*
X4214000Y-17700000D01*
G36*
X4214000Y-17700000D02*
G01*
X3064000Y-17700000D01*
X3064000Y-17100000D01*
X4214000Y-17100000D01*
X4214000Y-17700000D01*
G37*
X4214000Y-18500000D02*
X3064000Y-18500000D01*
X3064000Y-17900000D01*
X4214000Y-17900000D01*
X4214000Y-18500000D01*
G36*
X4214000Y-18500000D02*
G01*
X3064000Y-18500000D01*
X3064000Y-17900000D01*
X4214000Y-17900000D01*
X4214000Y-18500000D01*
G37*
X-776000Y-10185000D02*
X-682000Y-10213000D01*
X-596000Y-10259000D01*
X-520000Y-10321000D01*
X-458000Y-10397000D01*
X-411000Y-10484000D01*
X-383000Y-10577000D01*
X-373000Y-10675000D01*
X-383000Y-10773000D01*
X-411000Y-10866000D01*
X-458000Y-10953000D01*
X-520000Y-11029000D01*
X-596000Y-11091000D01*
X-682000Y-11137000D01*
X-776000Y-11165000D01*
X-873000Y-11175000D01*
X-1773000Y-11175000D01*
X-1871000Y-11165000D01*
X-1965000Y-11137000D01*
X-2051000Y-11091000D01*
X-2127000Y-11029000D01*
X-2189000Y-10953000D01*
X-2235000Y-10866000D01*
X-2264000Y-10773000D01*
X-2273000Y-10675000D01*
X-2264000Y-10577000D01*
X-2235000Y-10484000D01*
X-2189000Y-10397000D01*
X-2127000Y-10321000D01*
X-2051000Y-10259000D01*
X-1965000Y-10213000D01*
X-1871000Y-10185000D01*
X-1773000Y-10175000D01*
X-873000Y-10175000D01*
X-776000Y-10185000D01*
G36*
X-776000Y-10185000D02*
G01*
X-682000Y-10213000D01*
X-596000Y-10259000D01*
X-520000Y-10321000D01*
X-458000Y-10397000D01*
X-411000Y-10484000D01*
X-383000Y-10577000D01*
X-373000Y-10675000D01*
X-383000Y-10773000D01*
X-411000Y-10866000D01*
X-458000Y-10953000D01*
X-520000Y-11029000D01*
X-596000Y-11091000D01*
X-682000Y-11137000D01*
X-776000Y-11165000D01*
X-873000Y-11175000D01*
X-1773000Y-11175000D01*
X-1871000Y-11165000D01*
X-1965000Y-11137000D01*
X-2051000Y-11091000D01*
X-2127000Y-11029000D01*
X-2189000Y-10953000D01*
X-2235000Y-10866000D01*
X-2264000Y-10773000D01*
X-2273000Y-10675000D01*
X-2264000Y-10577000D01*
X-2235000Y-10484000D01*
X-2189000Y-10397000D01*
X-2127000Y-10321000D01*
X-2051000Y-10259000D01*
X-1965000Y-10213000D01*
X-1871000Y-10185000D01*
X-1773000Y-10175000D01*
X-873000Y-10175000D01*
X-776000Y-10185000D01*
G37*
X-776000Y-18835000D02*
X-682000Y-18863000D01*
X-596000Y-18909000D01*
X-520000Y-18971000D01*
X-458000Y-19047000D01*
X-411000Y-19134000D01*
X-383000Y-19227000D01*
X-373000Y-19325000D01*
X-383000Y-19423000D01*
X-411000Y-19516000D01*
X-458000Y-19603000D01*
X-520000Y-19679000D01*
X-596000Y-19741000D01*
X-682000Y-19787000D01*
X-776000Y-19815000D01*
X-873000Y-19825000D01*
X-1773000Y-19825000D01*
X-1871000Y-19815000D01*
X-1965000Y-19787000D01*
X-2051000Y-19741000D01*
X-2127000Y-19679000D01*
X-2189000Y-19603000D01*
X-2235000Y-19516000D01*
X-2264000Y-19423000D01*
X-2273000Y-19325000D01*
X-2264000Y-19227000D01*
X-2235000Y-19134000D01*
X-2189000Y-19047000D01*
X-2127000Y-18971000D01*
X-2051000Y-18909000D01*
X-1965000Y-18863000D01*
X-1871000Y-18835000D01*
X-1773000Y-18825000D01*
X-873000Y-18825000D01*
X-776000Y-18835000D01*
G36*
X-776000Y-18835000D02*
G01*
X-682000Y-18863000D01*
X-596000Y-18909000D01*
X-520000Y-18971000D01*
X-458000Y-19047000D01*
X-411000Y-19134000D01*
X-383000Y-19227000D01*
X-373000Y-19325000D01*
X-383000Y-19423000D01*
X-411000Y-19516000D01*
X-458000Y-19603000D01*
X-520000Y-19679000D01*
X-596000Y-19741000D01*
X-682000Y-19787000D01*
X-776000Y-19815000D01*
X-873000Y-19825000D01*
X-1773000Y-19825000D01*
X-1871000Y-19815000D01*
X-1965000Y-19787000D01*
X-2051000Y-19741000D01*
X-2127000Y-19679000D01*
X-2189000Y-19603000D01*
X-2235000Y-19516000D01*
X-2264000Y-19423000D01*
X-2273000Y-19325000D01*
X-2264000Y-19227000D01*
X-2235000Y-19134000D01*
X-2189000Y-19047000D01*
X-2127000Y-18971000D01*
X-2051000Y-18909000D01*
X-1965000Y-18863000D01*
X-1871000Y-18835000D01*
X-1773000Y-18825000D01*
X-873000Y-18825000D01*
X-776000Y-18835000D01*
G37*
X3524000Y-10185000D02*
X3618000Y-10213000D01*
X3704000Y-10259000D01*
X3780000Y-10321000D01*
X3842000Y-10397000D01*
X3889000Y-10484000D01*
X3917000Y-10577000D01*
X3927000Y-10675000D01*
X3917000Y-10773000D01*
X3889000Y-10866000D01*
X3842000Y-10953000D01*
X3780000Y-11029000D01*
X3704000Y-11091000D01*
X3618000Y-11137000D01*
X3524000Y-11165000D01*
X3427000Y-11175000D01*
X2327000Y-11175000D01*
X2229000Y-11165000D01*
X2135000Y-11137000D01*
X2049000Y-11091000D01*
X1973000Y-11029000D01*
X1911000Y-10953000D01*
X1865000Y-10866000D01*
X1836000Y-10773000D01*
X1827000Y-10675000D01*
X1836000Y-10577000D01*
X1865000Y-10484000D01*
X1911000Y-10397000D01*
X1973000Y-10321000D01*
X2049000Y-10259000D01*
X2135000Y-10213000D01*
X2229000Y-10185000D01*
X2327000Y-10175000D01*
X3427000Y-10175000D01*
X3524000Y-10185000D01*
G36*
X3524000Y-10185000D02*
G01*
X3618000Y-10213000D01*
X3704000Y-10259000D01*
X3780000Y-10321000D01*
X3842000Y-10397000D01*
X3889000Y-10484000D01*
X3917000Y-10577000D01*
X3927000Y-10675000D01*
X3917000Y-10773000D01*
X3889000Y-10866000D01*
X3842000Y-10953000D01*
X3780000Y-11029000D01*
X3704000Y-11091000D01*
X3618000Y-11137000D01*
X3524000Y-11165000D01*
X3427000Y-11175000D01*
X2327000Y-11175000D01*
X2229000Y-11165000D01*
X2135000Y-11137000D01*
X2049000Y-11091000D01*
X1973000Y-11029000D01*
X1911000Y-10953000D01*
X1865000Y-10866000D01*
X1836000Y-10773000D01*
X1827000Y-10675000D01*
X1836000Y-10577000D01*
X1865000Y-10484000D01*
X1911000Y-10397000D01*
X1973000Y-10321000D01*
X2049000Y-10259000D01*
X2135000Y-10213000D01*
X2229000Y-10185000D01*
X2327000Y-10175000D01*
X3427000Y-10175000D01*
X3524000Y-10185000D01*
G37*
X3524000Y-18835000D02*
X3618000Y-18863000D01*
X3704000Y-18909000D01*
X3780000Y-18971000D01*
X3842000Y-19047000D01*
X3889000Y-19134000D01*
X3917000Y-19227000D01*
X3927000Y-19325000D01*
X3917000Y-19423000D01*
X3889000Y-19516000D01*
X3842000Y-19603000D01*
X3780000Y-19679000D01*
X3704000Y-19741000D01*
X3618000Y-19787000D01*
X3524000Y-19815000D01*
X3427000Y-19825000D01*
X2327000Y-19825000D01*
X2229000Y-19815000D01*
X2135000Y-19787000D01*
X2049000Y-19741000D01*
X1973000Y-19679000D01*
X1911000Y-19603000D01*
X1865000Y-19516000D01*
X1836000Y-19423000D01*
X1827000Y-19325000D01*
X1836000Y-19227000D01*
X1865000Y-19134000D01*
X1911000Y-19047000D01*
X1973000Y-18971000D01*
X2049000Y-18909000D01*
X2135000Y-18863000D01*
X2229000Y-18835000D01*
X2327000Y-18825000D01*
X3427000Y-18825000D01*
X3524000Y-18835000D01*
G36*
X3524000Y-18835000D02*
G01*
X3618000Y-18863000D01*
X3704000Y-18909000D01*
X3780000Y-18971000D01*
X3842000Y-19047000D01*
X3889000Y-19134000D01*
X3917000Y-19227000D01*
X3927000Y-19325000D01*
X3917000Y-19423000D01*
X3889000Y-19516000D01*
X3842000Y-19603000D01*
X3780000Y-19679000D01*
X3704000Y-19741000D01*
X3618000Y-19787000D01*
X3524000Y-19815000D01*
X3427000Y-19825000D01*
X2327000Y-19825000D01*
X2229000Y-19815000D01*
X2135000Y-19787000D01*
X2049000Y-19741000D01*
X1973000Y-19679000D01*
X1911000Y-19603000D01*
X1865000Y-19516000D01*
X1836000Y-19423000D01*
X1827000Y-19325000D01*
X1836000Y-19227000D01*
X1865000Y-19134000D01*
X1911000Y-19047000D01*
X1973000Y-18971000D01*
X2049000Y-18909000D01*
X2135000Y-18863000D01*
X2229000Y-18835000D01*
X2327000Y-18825000D01*
X3427000Y-18825000D01*
X3524000Y-18835000D01*
G37*
%TD*%
D11*
%TO.C,D1*%
X71220000Y-8635000D03*
X72795000Y-8635000D03*
%TD*%
D12*
%TO.C,C3*%
X16980589Y-23814411D03*
X17659411Y-23135589D03*
%TD*%
D13*
%TO.C,R11*%
X31765000Y-26849000D03*
X31765000Y-25829000D03*
%TD*%
D14*
%TO.C,C2*%
X10020000Y-3071000D03*
X10020000Y-4621000D03*
%TD*%
D15*
%TO.C,R2*%
X69250000Y-22575000D03*
X68230000Y-22575000D03*
%TD*%
D11*
%TO.C,D3*%
X71220000Y-20055000D03*
X72795000Y-20055000D03*
%TD*%
D16*
%TO.C,C9*%
X13900000Y-16760000D03*
X14860000Y-16760000D03*
%TD*%
D17*
%TO.C,C5*%
X22530000Y-26180000D03*
X22530000Y-25220000D03*
%TD*%
D18*
%TO.C,C10*%
X26200000Y-25220000D03*
X26200000Y-26180000D03*
%TD*%
D19*
%TO.C,R16*%
X8370000Y-11625000D03*
X6720000Y-11625000D03*
%TD*%
D20*
%TO.C,Y1*%
X16233223Y-22710635D03*
X17788858Y-21155000D03*
X16586777Y-19952919D03*
X15031142Y-21508554D03*
%TD*%
D21*
%TO.C,D9*%
X14052500Y-9640000D03*
X15627500Y-9640000D03*
%TD*%
D16*
%TO.C,C7*%
X13904411Y-15083889D03*
X14864411Y-15083889D03*
%TD*%
D22*
%TO.C,D4*%
X30305000Y-26849000D03*
X30305000Y-25274000D03*
%TD*%
D23*
%TO.C,R4*%
X14905589Y-11701667D03*
X13885589Y-11701667D03*
%TD*%
D24*
%TO.C,C8*%
X31955000Y-15296000D03*
X32915000Y-15296000D03*
%TD*%
D15*
%TO.C,R3*%
X69262500Y-20055000D03*
X68242500Y-20055000D03*
%TD*%
D25*
%TO.C,R12*%
X31765000Y-3084000D03*
X31765000Y-4104000D03*
%TD*%
D26*
%TO.C,D6*%
X9087500Y-21785000D03*
X6287500Y-21785000D03*
%TD*%
D27*
%TO.C,U1*%
X6090000Y-2965000D03*
X6090000Y-3915000D03*
X6090000Y-4865000D03*
X8690000Y-4865000D03*
X8690000Y-2965000D03*
%TD*%
D28*
%TO.C,D5*%
X30305000Y-3084000D03*
X30305000Y-4659000D03*
%TD*%
D14*
%TO.C,C1*%
X4760000Y-3071000D03*
X4760000Y-4621000D03*
%TD*%
D13*
%TO.C,R6*%
X24365000Y-26230000D03*
X24365000Y-25210000D03*
%TD*%
D29*
%TO.C,U2*%
X18145577Y-16051249D03*
X18499130Y-16404803D03*
X18852683Y-16758356D03*
X19206237Y-17111909D03*
X19559790Y-17465463D03*
X19913343Y-17819016D03*
X20266897Y-18172570D03*
X20620450Y-18526123D03*
X20974004Y-18879676D03*
X21327557Y-19233230D03*
X21681110Y-19586783D03*
X22034664Y-19940336D03*
D30*
X24155984Y-19940336D03*
X24509538Y-19586783D03*
X24863091Y-19233230D03*
X25216644Y-18879676D03*
X25570198Y-18526123D03*
X25923751Y-18172570D03*
X26277305Y-17819016D03*
X26630858Y-17465463D03*
X26984411Y-17111909D03*
X27337965Y-16758356D03*
X27691518Y-16404803D03*
X28045071Y-16051249D03*
D29*
X28045071Y-13929929D03*
X27691518Y-13576375D03*
X27337965Y-13222822D03*
X26984411Y-12869269D03*
X26630858Y-12515715D03*
X26277305Y-12162162D03*
X25923751Y-11808608D03*
X25570198Y-11455055D03*
X25216644Y-11101502D03*
X24863091Y-10747948D03*
X24509538Y-10394395D03*
X24155984Y-10040842D03*
D30*
X22034664Y-10040842D03*
X21681110Y-10394395D03*
X21327557Y-10747948D03*
X20974004Y-11101502D03*
X20620450Y-11455055D03*
X20266897Y-11808608D03*
X19913343Y-12162162D03*
X19559790Y-12515715D03*
X19206237Y-12869269D03*
X18852683Y-13222822D03*
X18499130Y-13576375D03*
X18145577Y-13929929D03*
%TD*%
D16*
%TO.C,C6*%
X23594411Y-8260000D03*
X22634411Y-8260000D03*
%TD*%
D31*
%TO.C,USB1*%
X3639000Y-11800000D03*
X3639000Y-12600000D03*
D32*
X3639000Y-13750000D03*
X3639000Y-14750000D03*
X3639000Y-15250000D03*
X3639000Y-16250000D03*
D31*
X3639000Y-18200000D03*
X3639000Y-17400000D03*
D32*
X3639000Y-16750000D03*
X3639000Y-15750000D03*
X3639000Y-14250000D03*
X3639000Y-13250000D03*
%TD*%
D33*
%TO.C,F1*%
X9110000Y-8560000D03*
X6310000Y-8560000D03*
%TD*%
D15*
%TO.C,R15*%
X8605000Y-16620000D03*
X7585000Y-16620000D03*
%TD*%
%TO.C,R13*%
X8605000Y-15155000D03*
X7585000Y-15155000D03*
%TD*%
%TO.C,R7*%
X32965000Y-17596000D03*
X31945000Y-17596000D03*
%TD*%
D19*
%TO.C,R17*%
X8370000Y-18375000D03*
X6720000Y-18375000D03*
%TD*%
D34*
%TO.C,D8*%
X10920000Y-12325000D03*
X10920000Y-13725000D03*
%TD*%
D15*
%TO.C,R14*%
X8605000Y-13705000D03*
X7585000Y-13705000D03*
%TD*%
D11*
%TO.C,D2*%
X71220000Y-22575000D03*
X72795000Y-22575000D03*
%TD*%
D35*
%TO.C,D7*%
X10920000Y-16575000D03*
X10920000Y-15175000D03*
%TD*%
D12*
%TO.C,C4*%
X13940589Y-20744411D03*
X14619411Y-20065589D03*
%TD*%
D23*
%TO.C,R8*%
X31945000Y-19056000D03*
X32965000Y-19056000D03*
%TD*%
D15*
%TO.C,R9*%
X32925000Y-11106000D03*
X31905000Y-11106000D03*
%TD*%
D23*
%TO.C,R1*%
X68242500Y-8635000D03*
X69262500Y-8635000D03*
%TD*%
D15*
%TO.C,R10*%
X13890000Y-13397778D03*
X14910000Y-13397778D03*
%TD*%
M02*
