%TF.GenerationSoftware,KiCad,Pcbnew,7.0.6*%
%TF.CreationDate,2023-07-08T14:00:45+08:00*%
%TF.ProjectId,UINIO-DAP-Link,55494e49-4f2d-4444-9150-2d4c696e6b2e,Version 3.3.0*%
%TF.SameCoordinates,Original*%
%TF.FileFunction,Paste,Top*%
%TF.FilePolarity,Positive*%
%FSLAX46Y46*%
G04 Gerber Fmt 4.6, Leading zero omitted, Abs format (unit mm)*
G04 Created by KiCad (PCBNEW 7.0.6) date 2023-07-08 14:00:45*
%MOMM*%
%LPD*%
G01*
G04 APERTURE LIST*
G04 Aperture macros list*
%AMRoundRect*
0 Rectangle with rounded corners*
0 $1 Rounding radius*
0 $2 $3 $4 $5 $6 $7 $8 $9 X,Y pos of 4 corners*
0 Add a 4 corners polygon primitive as box body*
4,1,4,$2,$3,$4,$5,$6,$7,$8,$9,$2,$3,0*
0 Add four circle primitives for the rounded corners*
1,1,$1+$1,$2,$3*
1,1,$1+$1,$4,$5*
1,1,$1+$1,$6,$7*
1,1,$1+$1,$8,$9*
0 Add four rect primitives between the rounded corners*
20,1,$1+$1,$2,$3,$4,$5,0*
20,1,$1+$1,$4,$5,$6,$7,0*
20,1,$1+$1,$6,$7,$8,$9,0*
20,1,$1+$1,$8,$9,$2,$3,0*%
%AMHorizOval*
0 Thick line with rounded ends*
0 $1 width*
0 $2 $3 position (X,Y) of the first rounded end (center of the circle)*
0 $4 $5 position (X,Y) of the second rounded end (center of the circle)*
0 Add line between two ends*
20,1,$1,$2,$3,$4,$5,0*
0 Add two circle primitives to create the rounded ends*
1,1,$1,$2,$3*
1,1,$1,$4,$5*%
G04 Aperture macros list end*
%ADD10C,0.120000*%
%ADD11RoundRect,0.218750X0.218750X0.256250X-0.218750X0.256250X-0.218750X-0.256250X0.218750X-0.256250X0*%
%ADD12RoundRect,0.225000X-0.250000X0.225000X-0.250000X-0.225000X0.250000X-0.225000X0.250000X0.225000X0*%
%ADD13RoundRect,0.200000X-0.275000X0.200000X-0.275000X-0.200000X0.275000X-0.200000X0.275000X0.200000X0*%
%ADD14RoundRect,0.225000X-0.225000X-0.250000X0.225000X-0.250000X0.225000X0.250000X-0.225000X0.250000X0*%
%ADD15RoundRect,0.200000X-0.200000X-0.275000X0.200000X-0.275000X0.200000X0.275000X-0.200000X0.275000X0*%
%ADD16RoundRect,0.200000X0.200000X0.275000X-0.200000X0.275000X-0.200000X-0.275000X0.200000X-0.275000X0*%
%ADD17R,1.200000X1.400000*%
%ADD18RoundRect,0.218750X0.256250X-0.218750X0.256250X0.218750X-0.256250X0.218750X-0.256250X-0.218750X0*%
%ADD19RoundRect,0.200000X0.275000X-0.200000X0.275000X0.200000X-0.275000X0.200000X-0.275000X-0.200000X0*%
%ADD20R,1.000000X0.600000*%
%ADD21RoundRect,0.218750X-0.256250X0.218750X-0.256250X-0.218750X0.256250X-0.218750X0.256250X0.218750X0*%
%ADD22RoundRect,0.225000X0.225000X0.250000X-0.225000X0.250000X-0.225000X-0.250000X0.225000X-0.250000X0*%
%ADD23HorizOval,0.270000X-0.434871X0.434871X0.434871X-0.434871X0*%
%ADD24HorizOval,0.270000X0.434871X0.434871X-0.434871X-0.434871X0*%
%ADD25R,1.150000X0.600000*%
%ADD26R,1.150000X0.300000*%
%ADD27RoundRect,0.225000X0.250000X-0.225000X0.250000X0.225000X-0.250000X0.225000X-0.250000X-0.225000X0*%
G04 APERTURE END LIST*
%TO.C,USB1*%
D10*
X110126000Y-104540000D02*
X108976000Y-104540000D01*
X108976000Y-103940000D01*
X110126000Y-103940000D01*
X110126000Y-104540000D01*
G36*
X110126000Y-104540000D02*
G01*
X108976000Y-104540000D01*
X108976000Y-103940000D01*
X110126000Y-103940000D01*
X110126000Y-104540000D01*
G37*
X110126000Y-105340000D02*
X108976000Y-105340000D01*
X108976000Y-104740000D01*
X110126000Y-104740000D01*
X110126000Y-105340000D01*
G36*
X110126000Y-105340000D02*
G01*
X108976000Y-105340000D01*
X108976000Y-104740000D01*
X110126000Y-104740000D01*
X110126000Y-105340000D01*
G37*
X110126000Y-105840000D02*
X108976000Y-105840000D01*
X108976000Y-105540000D01*
X110126000Y-105540000D01*
X110126000Y-105840000D01*
G36*
X110126000Y-105840000D02*
G01*
X108976000Y-105840000D01*
X108976000Y-105540000D01*
X110126000Y-105540000D01*
X110126000Y-105840000D01*
G37*
X110126000Y-106340000D02*
X108976000Y-106340000D01*
X108976000Y-106040000D01*
X110126000Y-106040000D01*
X110126000Y-106340000D01*
G36*
X110126000Y-106340000D02*
G01*
X108976000Y-106340000D01*
X108976000Y-106040000D01*
X110126000Y-106040000D01*
X110126000Y-106340000D01*
G37*
X110126000Y-106840000D02*
X108976000Y-106840000D01*
X108976000Y-106540000D01*
X110126000Y-106540000D01*
X110126000Y-106840000D01*
G36*
X110126000Y-106840000D02*
G01*
X108976000Y-106840000D01*
X108976000Y-106540000D01*
X110126000Y-106540000D01*
X110126000Y-106840000D01*
G37*
X110126000Y-107340000D02*
X108976000Y-107340000D01*
X108976000Y-107040000D01*
X110126000Y-107040000D01*
X110126000Y-107340000D01*
G36*
X110126000Y-107340000D02*
G01*
X108976000Y-107340000D01*
X108976000Y-107040000D01*
X110126000Y-107040000D01*
X110126000Y-107340000D01*
G37*
X110126000Y-107840000D02*
X108976000Y-107840000D01*
X108976000Y-107540000D01*
X110126000Y-107540000D01*
X110126000Y-107840000D01*
G36*
X110126000Y-107840000D02*
G01*
X108976000Y-107840000D01*
X108976000Y-107540000D01*
X110126000Y-107540000D01*
X110126000Y-107840000D01*
G37*
X110126000Y-108340000D02*
X108976000Y-108340000D01*
X108976000Y-108040000D01*
X110126000Y-108040000D01*
X110126000Y-108340000D01*
G36*
X110126000Y-108340000D02*
G01*
X108976000Y-108340000D01*
X108976000Y-108040000D01*
X110126000Y-108040000D01*
X110126000Y-108340000D01*
G37*
X110126000Y-108840000D02*
X108976000Y-108840000D01*
X108976000Y-108540000D01*
X110126000Y-108540000D01*
X110126000Y-108840000D01*
G36*
X110126000Y-108840000D02*
G01*
X108976000Y-108840000D01*
X108976000Y-108540000D01*
X110126000Y-108540000D01*
X110126000Y-108840000D01*
G37*
X110126000Y-109340000D02*
X108976000Y-109340000D01*
X108976000Y-109040000D01*
X110126000Y-109040000D01*
X110126000Y-109340000D01*
G36*
X110126000Y-109340000D02*
G01*
X108976000Y-109340000D01*
X108976000Y-109040000D01*
X110126000Y-109040000D01*
X110126000Y-109340000D01*
G37*
X110126000Y-110140000D02*
X108976000Y-110140000D01*
X108976000Y-109540000D01*
X110126000Y-109540000D01*
X110126000Y-110140000D01*
G36*
X110126000Y-110140000D02*
G01*
X108976000Y-110140000D01*
X108976000Y-109540000D01*
X110126000Y-109540000D01*
X110126000Y-110140000D01*
G37*
X110126000Y-110940000D02*
X108976000Y-110940000D01*
X108976000Y-110340000D01*
X110126000Y-110340000D01*
X110126000Y-110940000D01*
G36*
X110126000Y-110940000D02*
G01*
X108976000Y-110940000D01*
X108976000Y-110340000D01*
X110126000Y-110340000D01*
X110126000Y-110940000D01*
G37*
X109436000Y-102625000D02*
X109530000Y-102653000D01*
X109616000Y-102699000D01*
X109692000Y-102761000D01*
X109754000Y-102837000D01*
X109801000Y-102924000D01*
X109829000Y-103017000D01*
X109839000Y-103115000D01*
X109829000Y-103213000D01*
X109801000Y-103306000D01*
X109754000Y-103393000D01*
X109692000Y-103469000D01*
X109616000Y-103531000D01*
X109530000Y-103577000D01*
X109436000Y-103605000D01*
X109339000Y-103615000D01*
X108239000Y-103615000D01*
X108141000Y-103605000D01*
X108047000Y-103577000D01*
X107961000Y-103531000D01*
X107885000Y-103469000D01*
X107823000Y-103393000D01*
X107777000Y-103306000D01*
X107748000Y-103213000D01*
X107739000Y-103115000D01*
X107748000Y-103017000D01*
X107777000Y-102924000D01*
X107823000Y-102837000D01*
X107885000Y-102761000D01*
X107961000Y-102699000D01*
X108047000Y-102653000D01*
X108141000Y-102625000D01*
X108239000Y-102615000D01*
X109339000Y-102615000D01*
X109436000Y-102625000D01*
G36*
X109436000Y-102625000D02*
G01*
X109530000Y-102653000D01*
X109616000Y-102699000D01*
X109692000Y-102761000D01*
X109754000Y-102837000D01*
X109801000Y-102924000D01*
X109829000Y-103017000D01*
X109839000Y-103115000D01*
X109829000Y-103213000D01*
X109801000Y-103306000D01*
X109754000Y-103393000D01*
X109692000Y-103469000D01*
X109616000Y-103531000D01*
X109530000Y-103577000D01*
X109436000Y-103605000D01*
X109339000Y-103615000D01*
X108239000Y-103615000D01*
X108141000Y-103605000D01*
X108047000Y-103577000D01*
X107961000Y-103531000D01*
X107885000Y-103469000D01*
X107823000Y-103393000D01*
X107777000Y-103306000D01*
X107748000Y-103213000D01*
X107739000Y-103115000D01*
X107748000Y-103017000D01*
X107777000Y-102924000D01*
X107823000Y-102837000D01*
X107885000Y-102761000D01*
X107961000Y-102699000D01*
X108047000Y-102653000D01*
X108141000Y-102625000D01*
X108239000Y-102615000D01*
X109339000Y-102615000D01*
X109436000Y-102625000D01*
G37*
X105136000Y-102625000D02*
X105230000Y-102653000D01*
X105316000Y-102699000D01*
X105392000Y-102761000D01*
X105454000Y-102837000D01*
X105501000Y-102924000D01*
X105529000Y-103017000D01*
X105539000Y-103115000D01*
X105529000Y-103213000D01*
X105501000Y-103306000D01*
X105454000Y-103393000D01*
X105392000Y-103469000D01*
X105316000Y-103531000D01*
X105230000Y-103577000D01*
X105136000Y-103605000D01*
X105039000Y-103615000D01*
X104139000Y-103615000D01*
X104041000Y-103605000D01*
X103947000Y-103577000D01*
X103861000Y-103531000D01*
X103785000Y-103469000D01*
X103723000Y-103393000D01*
X103677000Y-103306000D01*
X103648000Y-103213000D01*
X103639000Y-103115000D01*
X103648000Y-103017000D01*
X103677000Y-102924000D01*
X103723000Y-102837000D01*
X103785000Y-102761000D01*
X103861000Y-102699000D01*
X103947000Y-102653000D01*
X104041000Y-102625000D01*
X104139000Y-102615000D01*
X105039000Y-102615000D01*
X105136000Y-102625000D01*
G36*
X105136000Y-102625000D02*
G01*
X105230000Y-102653000D01*
X105316000Y-102699000D01*
X105392000Y-102761000D01*
X105454000Y-102837000D01*
X105501000Y-102924000D01*
X105529000Y-103017000D01*
X105539000Y-103115000D01*
X105529000Y-103213000D01*
X105501000Y-103306000D01*
X105454000Y-103393000D01*
X105392000Y-103469000D01*
X105316000Y-103531000D01*
X105230000Y-103577000D01*
X105136000Y-103605000D01*
X105039000Y-103615000D01*
X104139000Y-103615000D01*
X104041000Y-103605000D01*
X103947000Y-103577000D01*
X103861000Y-103531000D01*
X103785000Y-103469000D01*
X103723000Y-103393000D01*
X103677000Y-103306000D01*
X103648000Y-103213000D01*
X103639000Y-103115000D01*
X103648000Y-103017000D01*
X103677000Y-102924000D01*
X103723000Y-102837000D01*
X103785000Y-102761000D01*
X103861000Y-102699000D01*
X103947000Y-102653000D01*
X104041000Y-102625000D01*
X104139000Y-102615000D01*
X105039000Y-102615000D01*
X105136000Y-102625000D01*
G37*
X109436000Y-111275000D02*
X109530000Y-111303000D01*
X109616000Y-111349000D01*
X109692000Y-111411000D01*
X109754000Y-111487000D01*
X109801000Y-111574000D01*
X109829000Y-111667000D01*
X109839000Y-111765000D01*
X109829000Y-111863000D01*
X109801000Y-111956000D01*
X109754000Y-112043000D01*
X109692000Y-112119000D01*
X109616000Y-112181000D01*
X109530000Y-112227000D01*
X109436000Y-112255000D01*
X109339000Y-112265000D01*
X108239000Y-112265000D01*
X108141000Y-112255000D01*
X108047000Y-112227000D01*
X107961000Y-112181000D01*
X107885000Y-112119000D01*
X107823000Y-112043000D01*
X107777000Y-111956000D01*
X107748000Y-111863000D01*
X107739000Y-111765000D01*
X107748000Y-111667000D01*
X107777000Y-111574000D01*
X107823000Y-111487000D01*
X107885000Y-111411000D01*
X107961000Y-111349000D01*
X108047000Y-111303000D01*
X108141000Y-111275000D01*
X108239000Y-111265000D01*
X109339000Y-111265000D01*
X109436000Y-111275000D01*
G36*
X109436000Y-111275000D02*
G01*
X109530000Y-111303000D01*
X109616000Y-111349000D01*
X109692000Y-111411000D01*
X109754000Y-111487000D01*
X109801000Y-111574000D01*
X109829000Y-111667000D01*
X109839000Y-111765000D01*
X109829000Y-111863000D01*
X109801000Y-111956000D01*
X109754000Y-112043000D01*
X109692000Y-112119000D01*
X109616000Y-112181000D01*
X109530000Y-112227000D01*
X109436000Y-112255000D01*
X109339000Y-112265000D01*
X108239000Y-112265000D01*
X108141000Y-112255000D01*
X108047000Y-112227000D01*
X107961000Y-112181000D01*
X107885000Y-112119000D01*
X107823000Y-112043000D01*
X107777000Y-111956000D01*
X107748000Y-111863000D01*
X107739000Y-111765000D01*
X107748000Y-111667000D01*
X107777000Y-111574000D01*
X107823000Y-111487000D01*
X107885000Y-111411000D01*
X107961000Y-111349000D01*
X108047000Y-111303000D01*
X108141000Y-111275000D01*
X108239000Y-111265000D01*
X109339000Y-111265000D01*
X109436000Y-111275000D01*
G37*
X105136000Y-111275000D02*
X105230000Y-111303000D01*
X105316000Y-111349000D01*
X105392000Y-111411000D01*
X105454000Y-111487000D01*
X105501000Y-111574000D01*
X105529000Y-111667000D01*
X105539000Y-111765000D01*
X105529000Y-111863000D01*
X105501000Y-111956000D01*
X105454000Y-112043000D01*
X105392000Y-112119000D01*
X105316000Y-112181000D01*
X105230000Y-112227000D01*
X105136000Y-112255000D01*
X105039000Y-112265000D01*
X104139000Y-112265000D01*
X104041000Y-112255000D01*
X103947000Y-112227000D01*
X103861000Y-112181000D01*
X103785000Y-112119000D01*
X103723000Y-112043000D01*
X103677000Y-111956000D01*
X103648000Y-111863000D01*
X103639000Y-111765000D01*
X103648000Y-111667000D01*
X103677000Y-111574000D01*
X103723000Y-111487000D01*
X103785000Y-111411000D01*
X103861000Y-111349000D01*
X103947000Y-111303000D01*
X104041000Y-111275000D01*
X104139000Y-111265000D01*
X105039000Y-111265000D01*
X105136000Y-111275000D01*
G36*
X105136000Y-111275000D02*
G01*
X105230000Y-111303000D01*
X105316000Y-111349000D01*
X105392000Y-111411000D01*
X105454000Y-111487000D01*
X105501000Y-111574000D01*
X105529000Y-111667000D01*
X105539000Y-111765000D01*
X105529000Y-111863000D01*
X105501000Y-111956000D01*
X105454000Y-112043000D01*
X105392000Y-112119000D01*
X105316000Y-112181000D01*
X105230000Y-112227000D01*
X105136000Y-112255000D01*
X105039000Y-112265000D01*
X104139000Y-112265000D01*
X104041000Y-112255000D01*
X103947000Y-112227000D01*
X103861000Y-112181000D01*
X103785000Y-112119000D01*
X103723000Y-112043000D01*
X103677000Y-111956000D01*
X103648000Y-111863000D01*
X103639000Y-111765000D01*
X103648000Y-111667000D01*
X103677000Y-111574000D01*
X103723000Y-111487000D01*
X103785000Y-111411000D01*
X103861000Y-111349000D01*
X103947000Y-111303000D01*
X104041000Y-111275000D01*
X104139000Y-111265000D01*
X105039000Y-111265000D01*
X105136000Y-111275000D01*
G37*
%TD*%
D11*
%TO.C,D1*%
X171057500Y-112710000D03*
X169482500Y-112710000D03*
%TD*%
D12*
%TO.C,C3*%
X130850000Y-114195000D03*
X130850000Y-115745000D03*
%TD*%
D13*
%TO.C,R11*%
X119960000Y-114965000D03*
X119960000Y-116615000D03*
%TD*%
D14*
%TO.C,C2*%
X111025000Y-98534000D03*
X112575000Y-98534000D03*
%TD*%
D15*
%TO.C,R2*%
X173094000Y-104550000D03*
X174744000Y-104550000D03*
%TD*%
D11*
%TO.C,D3*%
X171047500Y-102330000D03*
X169472500Y-102330000D03*
%TD*%
D12*
%TO.C,C5*%
X123340000Y-115015000D03*
X123340000Y-116565000D03*
%TD*%
D16*
%TO.C,R16*%
X114375000Y-104400000D03*
X112725000Y-104400000D03*
%TD*%
D17*
%TO.C,Y1*%
X127570000Y-112320000D03*
X127570000Y-114520000D03*
X129270000Y-114520000D03*
X129270000Y-112320000D03*
%TD*%
D18*
%TO.C,D4*%
X118230000Y-116577500D03*
X118230000Y-115002500D03*
%TD*%
D15*
%TO.C,R3*%
X173094000Y-102340000D03*
X174744000Y-102340000D03*
%TD*%
D19*
%TO.C,R12*%
X119960000Y-99875000D03*
X119960000Y-98225000D03*
%TD*%
D20*
%TO.C,U1*%
X107070000Y-98574000D03*
X107070000Y-99524000D03*
X107070000Y-100474000D03*
X109670000Y-100474000D03*
X109670000Y-98574000D03*
%TD*%
D21*
%TO.C,D5*%
X118230000Y-98262500D03*
X118230000Y-99837500D03*
%TD*%
D22*
%TO.C,C1*%
X112575000Y-100464000D03*
X111025000Y-100464000D03*
%TD*%
D13*
%TO.C,R6*%
X125030000Y-114965000D03*
X125030000Y-116615000D03*
%TD*%
D23*
%TO.C,U2*%
X122880660Y-112229747D03*
X123234214Y-111876194D03*
X123587767Y-111522641D03*
X123941320Y-111169087D03*
X124294874Y-110815534D03*
X124648427Y-110461981D03*
X125001981Y-110108427D03*
X125355534Y-109754874D03*
X125709087Y-109401320D03*
X126062641Y-109047767D03*
X126416194Y-108694214D03*
X126769747Y-108340660D03*
D24*
X126769747Y-106219340D03*
X126416194Y-105865786D03*
X126062641Y-105512233D03*
X125709087Y-105158680D03*
X125355534Y-104805126D03*
X125001981Y-104451573D03*
X124648427Y-104098019D03*
X124294874Y-103744466D03*
X123941320Y-103390913D03*
X123587767Y-103037359D03*
X123234214Y-102683806D03*
X122880660Y-102330253D03*
D23*
X120759340Y-102330253D03*
X120405786Y-102683806D03*
X120052233Y-103037359D03*
X119698680Y-103390913D03*
X119345126Y-103744466D03*
X118991573Y-104098019D03*
X118638019Y-104451573D03*
X118284466Y-104805126D03*
X117930913Y-105158680D03*
X117577359Y-105512233D03*
X117223806Y-105865786D03*
X116870253Y-106219340D03*
D24*
X116870253Y-108340660D03*
X117223806Y-108694214D03*
X117577359Y-109047767D03*
X117930913Y-109401320D03*
X118284466Y-109754874D03*
X118638019Y-110108427D03*
X118991573Y-110461981D03*
X119345126Y-110815534D03*
X119698680Y-111169087D03*
X120052233Y-111522641D03*
X120405786Y-111876194D03*
X120759340Y-112229747D03*
%TD*%
D25*
%TO.C,USB1*%
X109551000Y-104240000D03*
X109551000Y-105040000D03*
D26*
X109551000Y-106190000D03*
X109551000Y-107190000D03*
X109551000Y-107690000D03*
X109551000Y-108690000D03*
D25*
X109551000Y-110640000D03*
X109551000Y-109840000D03*
D26*
X109551000Y-109190000D03*
X109551000Y-108190000D03*
X109551000Y-106690000D03*
X109551000Y-105690000D03*
%TD*%
D16*
%TO.C,R5*%
X171105000Y-107770000D03*
X169455000Y-107770000D03*
%TD*%
%TO.C,R15*%
X114375000Y-108780000D03*
X112725000Y-108780000D03*
%TD*%
%TO.C,R13*%
X114375000Y-107320000D03*
X112725000Y-107320000D03*
%TD*%
D19*
%TO.C,R7*%
X125030000Y-99875000D03*
X125030000Y-98225000D03*
%TD*%
D16*
%TO.C,R17*%
X114375000Y-110240000D03*
X112725000Y-110240000D03*
%TD*%
%TO.C,R14*%
X114375000Y-105860000D03*
X112725000Y-105860000D03*
%TD*%
D11*
%TO.C,D2*%
X171047500Y-104510000D03*
X169472500Y-104510000D03*
%TD*%
D27*
%TO.C,C4*%
X130850000Y-112785000D03*
X130850000Y-111235000D03*
%TD*%
D19*
%TO.C,R8*%
X123340000Y-99875000D03*
X123340000Y-98225000D03*
%TD*%
D13*
%TO.C,R9*%
X121650000Y-98225000D03*
X121650000Y-99875000D03*
%TD*%
D16*
%TO.C,R1*%
X174805000Y-112710000D03*
X173155000Y-112710000D03*
%TD*%
%TO.C,R4*%
X171105000Y-109550000D03*
X169455000Y-109550000D03*
%TD*%
D13*
%TO.C,R10*%
X121650000Y-114965000D03*
X121650000Y-116615000D03*
%TD*%
M02*
