M48
; DRILL file {KiCad (6.0.11)} date Mon Feb  6 14:01:44 2023
; FORMAT={-:-/ absolute / metric / decimal}
; #@! TF.CreationDate,2023-02-06T14:01:44+08:00
; #@! TF.GenerationSoftware,Kicad,Pcbnew,(6.0.11)
; #@! TF.FileFunction,MixedPlating,1,2
FMAT,2
METRIC
; #@! TA.AperFunction,Plated,PTH,ViaDrill
T1C0.300
; #@! TA.AperFunction,Plated,PTH,ViaDrill
T2C0.400
; #@! TA.AperFunction,Plated,PTH,ViaDrill
T3C0.500
; #@! TA.AperFunction,Plated,PTH,ComponentDrill
T4C0.600
; #@! TA.AperFunction,Plated,PTH,ComponentDrill
T5C1.000
; #@! TA.AperFunction,Plated,PTH,ComponentDrill
T6C1.200
; #@! TA.AperFunction,Plated,PTH,ComponentDrill
T7C2.200
; #@! TA.AperFunction,NonPlated,NPTH,ComponentDrill
T8C0.650
%
G90
G05
T1
X113.82Y-112.91
X115.41Y-98.18
X115.41Y-100.39
X115.517Y-109.097
X115.89Y-112.23
X116.13Y-103.11
X116.81Y-114.0
X116.83Y-107.27
X119.32Y-106.63
X120.25Y-107.34
X121.34Y-113.35
X121.82Y-106.0
X121.82Y-108.68
X122.2Y-103.72
X122.5Y-101.16
X123.39Y-107.34
X124.06Y-105.39
X124.21Y-106.5
X125.015Y-112.685
X126.33Y-111.37
X126.34Y-114.14
X129.14Y-99.61
X129.14Y-110.69
X129.15Y-103.61
X129.16Y-106.13
X134.46Y-106.12
X158.95Y-106.09
X158.95Y-108.65
X164.4Y-99.78
X167.4Y-108.67
X168.04Y-105.62
X173.41Y-98.08
X173.42Y-98.91
X173.43Y-99.774
X175.73Y-99.84
X177.55Y-106.11
T2
X109.67Y-99.42
X111.0Y-109.85
X111.03Y-105.03
X112.6Y-103.11
X113.67Y-101.91
X116.12Y-101.9
X121.815Y-110.345
X126.33Y-116.61
X164.49Y-105.49
X166.73Y-107.72
X166.74Y-110.02
X166.78Y-105.49
X168.04Y-106.81
X168.04Y-110.42
X168.24Y-111.95
X169.48Y-113.96
X174.79Y-111.17
X177.55Y-107.51
X180.1Y-108.734
T3
X121.81Y-107.28
T5
X106.79Y-116.25
X109.33Y-116.25
X111.87Y-116.25
X114.41Y-116.25
X133.24Y-102.32
X133.24Y-104.86
X133.24Y-107.4
X133.24Y-109.94
X133.24Y-112.48
X135.78Y-102.32
X135.78Y-104.86
X135.78Y-107.4
X135.78Y-109.94
X135.78Y-112.48
X160.362Y-102.29
X160.362Y-104.83
X160.362Y-107.37
X160.362Y-109.91
X160.362Y-112.45
X162.901Y-102.29
X162.901Y-104.83
X162.901Y-107.37
X162.901Y-109.91
X162.901Y-112.45
X164.405Y-94.894
X164.415Y-119.864
X166.945Y-94.894
X166.955Y-119.864
X169.485Y-94.894
X171.975Y-119.864
X172.025Y-94.894
X174.515Y-119.864
X174.565Y-94.894
X181.808Y-95.792
X181.808Y-98.332
X181.808Y-100.872
X181.808Y-103.412
X181.808Y-105.952
X181.808Y-108.492
X181.808Y-111.032
X181.808Y-113.572
X181.808Y-116.112
X181.808Y-118.652
X184.349Y-95.792
X184.349Y-98.332
X184.349Y-100.872
X184.349Y-103.412
X184.349Y-105.952
X184.349Y-108.492
X184.349Y-111.032
X184.349Y-113.572
X184.349Y-116.112
X184.349Y-118.652
T6
X104.17Y-98.86
X104.17Y-115.86
T7
X134.67Y-115.51
X134.71Y-99.26
X160.514Y-94.81
X160.554Y-119.92
X178.414Y-94.81
X178.434Y-119.95
T8
X108.489Y-104.56
X108.489Y-110.34
T4
G00X105.239Y-103.125
M15
G01X104.339Y-103.125
M16
G05
G00X105.239Y-111.775
M15
G01X104.339Y-111.775
M16
G05
G00X109.589Y-103.125
M15
G01X108.389Y-103.125
M16
G05
G00X109.589Y-111.775
M15
G01X108.389Y-111.775
M16
G05
T0
M30
