%TF.GenerationSoftware,KiCad,Pcbnew,(6.0.11)*%
%TF.CreationDate,2023-02-06T14:01:38+08:00*%
%TF.ProjectId,UINIO-DAP-Link,55494e49-4f2d-4444-9150-2d4c696e6b2e,Version 3.2.0*%
%TF.SameCoordinates,Original*%
%TF.FileFunction,Legend,Bot*%
%TF.FilePolarity,Positive*%
%FSLAX46Y46*%
G04 Gerber Fmt 4.6, Leading zero omitted, Abs format (unit mm)*
G04 Created by KiCad (PCBNEW (6.0.11)) date 2023-02-06 14:01:38*
%MOMM*%
%LPD*%
G01*
G04 APERTURE LIST*
G04 Aperture macros list*
%AMRoundRect*
0 Rectangle with rounded corners*
0 $1 Rounding radius*
0 $2 $3 $4 $5 $6 $7 $8 $9 X,Y pos of 4 corners*
0 Add a 4 corners polygon primitive as box body*
4,1,4,$2,$3,$4,$5,$6,$7,$8,$9,$2,$3,0*
0 Add four circle primitives for the rounded corners*
1,1,$1+$1,$2,$3*
1,1,$1+$1,$4,$5*
1,1,$1+$1,$6,$7*
1,1,$1+$1,$8,$9*
0 Add four rect primitives between the rounded corners*
20,1,$1+$1,$2,$3,$4,$5,0*
20,1,$1+$1,$4,$5,$6,$7,0*
20,1,$1+$1,$6,$7,$8,$9,0*
20,1,$1+$1,$8,$9,$2,$3,0*%
G04 Aperture macros list end*
%ADD10C,0.100000*%
%ADD11C,0.150000*%
%ADD12C,0.200000*%
%ADD13R,1.700000X1.700000*%
%ADD14O,1.700000X1.700000*%
%ADD15C,1.200000*%
%ADD16RoundRect,0.250000X-0.600000X-0.600000X0.600000X-0.600000X0.600000X0.600000X-0.600000X0.600000X0*%
%ADD17C,1.700000*%
%ADD18C,2.200000*%
%ADD19RoundRect,0.250000X0.600000X0.600000X-0.600000X0.600000X-0.600000X-0.600000X0.600000X-0.600000X0*%
%ADD20C,0.650000*%
%ADD21O,2.100000X1.000000*%
%ADD22O,1.900000X1.000000*%
G04 APERTURE END LIST*
D10*
X186320000Y-104974517D02*
X191520000Y-104974517D01*
X186320000Y-112674517D02*
X191520000Y-112674517D01*
X153205000Y-104796668D02*
X158255000Y-104796668D01*
X137905000Y-109343332D02*
X142955000Y-109343332D01*
X137900000Y-97810000D02*
X142960000Y-97810000D01*
X142960000Y-97810000D02*
X142960000Y-117010000D01*
X142960000Y-117010000D02*
X137900000Y-117010000D01*
X137900000Y-117010000D02*
X137900000Y-97810000D01*
X153200000Y-100986668D02*
X158235000Y-100986668D01*
X153200000Y-97786668D02*
X158260000Y-97786668D01*
X158260000Y-97786668D02*
X158260000Y-116986668D01*
X158260000Y-116986668D02*
X153200000Y-116986668D01*
X153200000Y-116986668D02*
X153200000Y-97786668D01*
X186320000Y-119274517D02*
X191520000Y-119274517D01*
X155740000Y-97776668D02*
X155740000Y-116976668D01*
X186320000Y-101974517D02*
X191520000Y-101974517D01*
X186320000Y-96674517D02*
X191520000Y-96674517D01*
X137905000Y-104820000D02*
X142955000Y-104820000D01*
X186320000Y-110174517D02*
X191520000Y-110174517D01*
X186320000Y-116724517D02*
X191520000Y-116724517D01*
X142955000Y-105340000D02*
X144425000Y-105340000D01*
X144425000Y-105340000D02*
X144425000Y-109460000D01*
X144425000Y-109460000D02*
X142955000Y-109460000D01*
X142955000Y-109460000D02*
X142955000Y-105340000D01*
G36*
X142955000Y-105340000D02*
G01*
X144425000Y-105340000D01*
X144425000Y-109460000D01*
X142955000Y-109460000D01*
X142955000Y-105340000D01*
G37*
X186320000Y-92874517D02*
X191520000Y-92874517D01*
X191520000Y-92874517D02*
X191520000Y-121774517D01*
X191520000Y-121774517D02*
X186320000Y-121774517D01*
X186320000Y-121774517D02*
X186320000Y-92874517D01*
X186320000Y-107674517D02*
X191520000Y-107674517D01*
X191560000Y-105150000D02*
X193090000Y-105150000D01*
X193090000Y-105150000D02*
X193090000Y-109270000D01*
X193090000Y-109270000D02*
X191560000Y-109270000D01*
X191560000Y-109270000D02*
X191560000Y-105150000D01*
G36*
X191560000Y-105150000D02*
G01*
X193090000Y-105150000D01*
X193090000Y-109270000D01*
X191560000Y-109270000D01*
X191560000Y-105150000D01*
G37*
X186320000Y-99274517D02*
X191520000Y-99274517D01*
X137885000Y-101010000D02*
X142935000Y-101010000D01*
X151720000Y-105316668D02*
X153200000Y-105316668D01*
X153200000Y-105316668D02*
X153200000Y-109426668D01*
X153200000Y-109426668D02*
X151720000Y-109426668D01*
X151720000Y-109426668D02*
X151720000Y-105316668D01*
G36*
X151720000Y-105316668D02*
G01*
X153200000Y-105316668D01*
X153200000Y-109426668D01*
X151720000Y-109426668D01*
X151720000Y-105316668D01*
G37*
X153195000Y-113836668D02*
X158245000Y-113836668D01*
X153205000Y-109320000D02*
X158255000Y-109320000D01*
X140440000Y-97800000D02*
X140440000Y-117000000D01*
X137895000Y-113860000D02*
X142945000Y-113860000D01*
X188920000Y-92874517D02*
X188920000Y-121774517D01*
D11*
X189727142Y-117824517D02*
X190627142Y-118424517D01*
X189727142Y-118424517D02*
X190627142Y-117824517D01*
D10*
X187970000Y-101233333D02*
X188003333Y-101300000D01*
X188003333Y-101400000D01*
X187970000Y-101500000D01*
X187903333Y-101566666D01*
X187836666Y-101600000D01*
X187703333Y-101633333D01*
X187603333Y-101633333D01*
X187470000Y-101600000D01*
X187403333Y-101566666D01*
X187336666Y-101500000D01*
X187303333Y-101400000D01*
X187303333Y-101333333D01*
X187336666Y-101233333D01*
X187370000Y-101200000D01*
X187603333Y-101200000D01*
X187603333Y-101333333D01*
X187303333Y-100900000D02*
X188003333Y-100900000D01*
X187303333Y-100500000D01*
X188003333Y-100500000D01*
X187303333Y-100166666D02*
X188003333Y-100166666D01*
X188003333Y-100000000D01*
X187970000Y-99900000D01*
X187903333Y-99833333D01*
X187836666Y-99800000D01*
X187703333Y-99766666D01*
X187603333Y-99766666D01*
X187470000Y-99800000D01*
X187403333Y-99833333D01*
X187336666Y-99900000D01*
X187303333Y-100000000D01*
X187303333Y-100166666D01*
X187970000Y-118483333D02*
X188003333Y-118550000D01*
X188003333Y-118650000D01*
X187970000Y-118750000D01*
X187903333Y-118816666D01*
X187836666Y-118850000D01*
X187703333Y-118883333D01*
X187603333Y-118883333D01*
X187470000Y-118850000D01*
X187403333Y-118816666D01*
X187336666Y-118750000D01*
X187303333Y-118650000D01*
X187303333Y-118583333D01*
X187336666Y-118483333D01*
X187370000Y-118450000D01*
X187603333Y-118450000D01*
X187603333Y-118583333D01*
X187303333Y-118150000D02*
X188003333Y-118150000D01*
X187303333Y-117750000D01*
X188003333Y-117750000D01*
X187303333Y-117416666D02*
X188003333Y-117416666D01*
X188003333Y-117250000D01*
X187970000Y-117150000D01*
X187903333Y-117083333D01*
X187836666Y-117050000D01*
X187703333Y-117016666D01*
X187603333Y-117016666D01*
X187470000Y-117050000D01*
X187403333Y-117083333D01*
X187336666Y-117150000D01*
X187303333Y-117250000D01*
X187303333Y-117416666D01*
D11*
X157373809Y-105444761D02*
X157411904Y-105559047D01*
X157411904Y-105749523D01*
X157373809Y-105825714D01*
X157335714Y-105863809D01*
X157259523Y-105901904D01*
X157183333Y-105901904D01*
X157107142Y-105863809D01*
X157069047Y-105825714D01*
X157030952Y-105749523D01*
X156992857Y-105597142D01*
X156954761Y-105520952D01*
X156916666Y-105482857D01*
X156840476Y-105444761D01*
X156764285Y-105444761D01*
X156688095Y-105482857D01*
X156650000Y-105520952D01*
X156611904Y-105597142D01*
X156611904Y-105787619D01*
X156650000Y-105901904D01*
X156611904Y-106168571D02*
X157411904Y-106359047D01*
X156840476Y-106511428D01*
X157411904Y-106663809D01*
X156611904Y-106854285D01*
X157411904Y-107159047D02*
X156611904Y-107159047D01*
X156611904Y-107349523D01*
X156650000Y-107463809D01*
X156726190Y-107540000D01*
X156802380Y-107578095D01*
X156954761Y-107616190D01*
X157069047Y-107616190D01*
X157221428Y-107578095D01*
X157297619Y-107540000D01*
X157373809Y-107463809D01*
X157411904Y-107349523D01*
X157411904Y-107159047D01*
X157411904Y-107959047D02*
X156611904Y-107959047D01*
X156611904Y-108492380D02*
X156611904Y-108644761D01*
X156650000Y-108720952D01*
X156726190Y-108797142D01*
X156878571Y-108835238D01*
X157145238Y-108835238D01*
X157297619Y-108797142D01*
X157373809Y-108720952D01*
X157411904Y-108644761D01*
X157411904Y-108492380D01*
X157373809Y-108416190D01*
X157297619Y-108340000D01*
X157145238Y-108301904D01*
X156878571Y-108301904D01*
X156726190Y-108340000D01*
X156650000Y-108416190D01*
X156611904Y-108492380D01*
X139622857Y-99581428D02*
X139622857Y-100010000D01*
X139194285Y-100052857D01*
X139237142Y-100010000D01*
X139280000Y-99924285D01*
X139280000Y-99710000D01*
X139237142Y-99624285D01*
X139194285Y-99581428D01*
X139108571Y-99538571D01*
X138894285Y-99538571D01*
X138808571Y-99581428D01*
X138765714Y-99624285D01*
X138722857Y-99710000D01*
X138722857Y-99924285D01*
X138765714Y-100010000D01*
X138808571Y-100052857D01*
X139622857Y-99281428D02*
X138722857Y-98981428D01*
X139622857Y-98681428D01*
D10*
X187970000Y-106883333D02*
X188003333Y-106950000D01*
X188003333Y-107050000D01*
X187970000Y-107150000D01*
X187903333Y-107216666D01*
X187836666Y-107250000D01*
X187703333Y-107283333D01*
X187603333Y-107283333D01*
X187470000Y-107250000D01*
X187403333Y-107216666D01*
X187336666Y-107150000D01*
X187303333Y-107050000D01*
X187303333Y-106983333D01*
X187336666Y-106883333D01*
X187370000Y-106850000D01*
X187603333Y-106850000D01*
X187603333Y-106983333D01*
X187303333Y-106550000D02*
X188003333Y-106550000D01*
X187303333Y-106150000D01*
X188003333Y-106150000D01*
X187303333Y-105816666D02*
X188003333Y-105816666D01*
X188003333Y-105650000D01*
X187970000Y-105550000D01*
X187903333Y-105483333D01*
X187836666Y-105450000D01*
X187703333Y-105416666D01*
X187603333Y-105416666D01*
X187470000Y-105450000D01*
X187403333Y-105483333D01*
X187336666Y-105550000D01*
X187303333Y-105650000D01*
X187303333Y-105816666D01*
D11*
X154937142Y-111366668D02*
X154508571Y-111066668D01*
X154937142Y-110852382D02*
X154037142Y-110852382D01*
X154037142Y-111195239D01*
X154080000Y-111280953D01*
X154122857Y-111323810D01*
X154208571Y-111366668D01*
X154337142Y-111366668D01*
X154422857Y-111323810D01*
X154465714Y-111280953D01*
X154508571Y-111195239D01*
X154508571Y-110852382D01*
X154037142Y-111666668D02*
X154937142Y-112266668D01*
X154037142Y-112266668D02*
X154937142Y-111666668D01*
D10*
X190708095Y-107414989D02*
X190708095Y-106957846D01*
X189908095Y-107186418D02*
X190708095Y-107186418D01*
X189984285Y-106234037D02*
X189946190Y-106272132D01*
X189908095Y-106386418D01*
X189908095Y-106462608D01*
X189946190Y-106576894D01*
X190022380Y-106653084D01*
X190098571Y-106691179D01*
X190250952Y-106729275D01*
X190365238Y-106729275D01*
X190517619Y-106691179D01*
X190593809Y-106653084D01*
X190670000Y-106576894D01*
X190708095Y-106462608D01*
X190708095Y-106386418D01*
X190670000Y-106272132D01*
X190631904Y-106234037D01*
X189908095Y-105891179D02*
X190708095Y-105891179D01*
X189908095Y-105434037D02*
X190365238Y-105776894D01*
X190708095Y-105434037D02*
X190250952Y-105891179D01*
X188058095Y-95980952D02*
X188058095Y-95485714D01*
X187753333Y-95752380D01*
X187753333Y-95638095D01*
X187715238Y-95561904D01*
X187677142Y-95523809D01*
X187600952Y-95485714D01*
X187410476Y-95485714D01*
X187334285Y-95523809D01*
X187296190Y-95561904D01*
X187258095Y-95638095D01*
X187258095Y-95866666D01*
X187296190Y-95942857D01*
X187334285Y-95980952D01*
X187334285Y-95142857D02*
X187296190Y-95104761D01*
X187258095Y-95142857D01*
X187296190Y-95180952D01*
X187334285Y-95142857D01*
X187258095Y-95142857D01*
X188058095Y-94838095D02*
X188058095Y-94342857D01*
X187753333Y-94609523D01*
X187753333Y-94495238D01*
X187715238Y-94419047D01*
X187677142Y-94380952D01*
X187600952Y-94342857D01*
X187410476Y-94342857D01*
X187334285Y-94380952D01*
X187296190Y-94419047D01*
X187258095Y-94495238D01*
X187258095Y-94723809D01*
X187296190Y-94800000D01*
X187334285Y-94838095D01*
X188058095Y-94114285D02*
X187258095Y-93847619D01*
X188058095Y-93580952D01*
D11*
X138826190Y-108795238D02*
X138788095Y-108680952D01*
X138788095Y-108490476D01*
X138826190Y-108414285D01*
X138864285Y-108376190D01*
X138940476Y-108338095D01*
X139016666Y-108338095D01*
X139092857Y-108376190D01*
X139130952Y-108414285D01*
X139169047Y-108490476D01*
X139207142Y-108642857D01*
X139245238Y-108719047D01*
X139283333Y-108757142D01*
X139359523Y-108795238D01*
X139435714Y-108795238D01*
X139511904Y-108757142D01*
X139550000Y-108719047D01*
X139588095Y-108642857D01*
X139588095Y-108452380D01*
X139550000Y-108338095D01*
X139588095Y-108071428D02*
X138788095Y-107880952D01*
X139359523Y-107728571D01*
X138788095Y-107576190D01*
X139588095Y-107385714D01*
X138788095Y-107080952D02*
X139588095Y-107080952D01*
X139588095Y-106890476D01*
X139550000Y-106776190D01*
X139473809Y-106700000D01*
X139397619Y-106661904D01*
X139245238Y-106623809D01*
X139130952Y-106623809D01*
X138978571Y-106661904D01*
X138902380Y-106700000D01*
X138826190Y-106776190D01*
X138788095Y-106890476D01*
X138788095Y-107080952D01*
X138788095Y-106280952D02*
X139588095Y-106280952D01*
X139588095Y-105747619D02*
X139588095Y-105595238D01*
X139550000Y-105519047D01*
X139473809Y-105442857D01*
X139321428Y-105404761D01*
X139054761Y-105404761D01*
X138902380Y-105442857D01*
X138826190Y-105519047D01*
X138788095Y-105595238D01*
X138788095Y-105747619D01*
X138826190Y-105823809D01*
X138902380Y-105900000D01*
X139054761Y-105938095D01*
X139321428Y-105938095D01*
X139473809Y-105900000D01*
X139550000Y-105823809D01*
X139588095Y-105747619D01*
D10*
X190708095Y-101493564D02*
X190708095Y-101036421D01*
X189908095Y-101264993D02*
X190708095Y-101264993D01*
X189908095Y-100769755D02*
X190708095Y-100769755D01*
X190708095Y-100579278D01*
X190670000Y-100464993D01*
X190593809Y-100388802D01*
X190517619Y-100350707D01*
X190365238Y-100312612D01*
X190250952Y-100312612D01*
X190098571Y-100350707D01*
X190022380Y-100388802D01*
X189946190Y-100464993D01*
X189908095Y-100579278D01*
X189908095Y-100769755D01*
X189908095Y-99969755D02*
X190708095Y-99969755D01*
X187970000Y-104083333D02*
X188003333Y-104150000D01*
X188003333Y-104250000D01*
X187970000Y-104350000D01*
X187903333Y-104416666D01*
X187836666Y-104450000D01*
X187703333Y-104483333D01*
X187603333Y-104483333D01*
X187470000Y-104450000D01*
X187403333Y-104416666D01*
X187336666Y-104350000D01*
X187303333Y-104250000D01*
X187303333Y-104183333D01*
X187336666Y-104083333D01*
X187370000Y-104050000D01*
X187603333Y-104050000D01*
X187603333Y-104183333D01*
X187303333Y-103750000D02*
X188003333Y-103750000D01*
X187303333Y-103350000D01*
X188003333Y-103350000D01*
X187303333Y-103016666D02*
X188003333Y-103016666D01*
X188003333Y-102850000D01*
X187970000Y-102750000D01*
X187903333Y-102683333D01*
X187836666Y-102650000D01*
X187703333Y-102616666D01*
X187603333Y-102616666D01*
X187470000Y-102650000D01*
X187403333Y-102683333D01*
X187336666Y-102750000D01*
X187303333Y-102850000D01*
X187303333Y-103016666D01*
D11*
X139590000Y-116145714D02*
X139632857Y-116231428D01*
X139632857Y-116360000D01*
X139590000Y-116488571D01*
X139504285Y-116574285D01*
X139418571Y-116617142D01*
X139247142Y-116660000D01*
X139118571Y-116660000D01*
X138947142Y-116617142D01*
X138861428Y-116574285D01*
X138775714Y-116488571D01*
X138732857Y-116360000D01*
X138732857Y-116274285D01*
X138775714Y-116145714D01*
X138818571Y-116102857D01*
X139118571Y-116102857D01*
X139118571Y-116274285D01*
X138732857Y-115717142D02*
X139632857Y-115717142D01*
X138732857Y-115202857D01*
X139632857Y-115202857D01*
X138732857Y-114774285D02*
X139632857Y-114774285D01*
X139632857Y-114560000D01*
X139590000Y-114431428D01*
X139504285Y-114345714D01*
X139418571Y-114302857D01*
X139247142Y-114260000D01*
X139118571Y-114260000D01*
X138947142Y-114302857D01*
X138861428Y-114345714D01*
X138775714Y-114431428D01*
X138732857Y-114560000D01*
X138732857Y-114774285D01*
X154368571Y-105438095D02*
X154901904Y-105438095D01*
X154444761Y-105438095D02*
X154406666Y-105476190D01*
X154368571Y-105552380D01*
X154368571Y-105666666D01*
X154406666Y-105742857D01*
X154482857Y-105780952D01*
X154901904Y-105780952D01*
X154101904Y-106047619D02*
X154101904Y-106504761D01*
X154901904Y-106276190D02*
X154101904Y-106276190D01*
X154901904Y-107228571D02*
X154520952Y-106961904D01*
X154901904Y-106771428D02*
X154101904Y-106771428D01*
X154101904Y-107076190D01*
X154140000Y-107152380D01*
X154178095Y-107190476D01*
X154254285Y-107228571D01*
X154368571Y-107228571D01*
X154444761Y-107190476D01*
X154482857Y-107152380D01*
X154520952Y-107076190D01*
X154520952Y-106771428D01*
X154863809Y-107533333D02*
X154901904Y-107647619D01*
X154901904Y-107838095D01*
X154863809Y-107914285D01*
X154825714Y-107952380D01*
X154749523Y-107990476D01*
X154673333Y-107990476D01*
X154597142Y-107952380D01*
X154559047Y-107914285D01*
X154520952Y-107838095D01*
X154482857Y-107685714D01*
X154444761Y-107609523D01*
X154406666Y-107571428D01*
X154330476Y-107533333D01*
X154254285Y-107533333D01*
X154178095Y-107571428D01*
X154140000Y-107609523D01*
X154101904Y-107685714D01*
X154101904Y-107876190D01*
X154140000Y-107990476D01*
X154101904Y-108219047D02*
X154101904Y-108676190D01*
X154901904Y-108447619D02*
X154101904Y-108447619D01*
D10*
X187970000Y-98533333D02*
X188003333Y-98600000D01*
X188003333Y-98700000D01*
X187970000Y-98800000D01*
X187903333Y-98866666D01*
X187836666Y-98900000D01*
X187703333Y-98933333D01*
X187603333Y-98933333D01*
X187470000Y-98900000D01*
X187403333Y-98866666D01*
X187336666Y-98800000D01*
X187303333Y-98700000D01*
X187303333Y-98633333D01*
X187336666Y-98533333D01*
X187370000Y-98500000D01*
X187603333Y-98500000D01*
X187603333Y-98633333D01*
X187303333Y-98200000D02*
X188003333Y-98200000D01*
X187303333Y-97800000D01*
X188003333Y-97800000D01*
X187303333Y-97466666D02*
X188003333Y-97466666D01*
X188003333Y-97300000D01*
X187970000Y-97200000D01*
X187903333Y-97133333D01*
X187836666Y-97100000D01*
X187703333Y-97066666D01*
X187603333Y-97066666D01*
X187470000Y-97100000D01*
X187403333Y-97133333D01*
X187336666Y-97200000D01*
X187303333Y-97300000D01*
X187303333Y-97466666D01*
D11*
X156547142Y-99288571D02*
X156547142Y-98860000D01*
X156975714Y-98817142D01*
X156932857Y-98860000D01*
X156890000Y-98945714D01*
X156890000Y-99160000D01*
X156932857Y-99245714D01*
X156975714Y-99288571D01*
X157061428Y-99331428D01*
X157275714Y-99331428D01*
X157361428Y-99288571D01*
X157404285Y-99245714D01*
X157447142Y-99160000D01*
X157447142Y-98945714D01*
X157404285Y-98860000D01*
X157361428Y-98817142D01*
X156547142Y-99588571D02*
X157447142Y-99888571D01*
X156547142Y-100188571D01*
X139622857Y-104248571D02*
X139622857Y-103691428D01*
X139280000Y-103991428D01*
X139280000Y-103862857D01*
X139237142Y-103777142D01*
X139194285Y-103734285D01*
X139108571Y-103691428D01*
X138894285Y-103691428D01*
X138808571Y-103734285D01*
X138765714Y-103777142D01*
X138722857Y-103862857D01*
X138722857Y-104120000D01*
X138765714Y-104205714D01*
X138808571Y-104248571D01*
X138808571Y-103305714D02*
X138765714Y-103262857D01*
X138722857Y-103305714D01*
X138765714Y-103348571D01*
X138808571Y-103305714D01*
X138722857Y-103305714D01*
X139622857Y-102962857D02*
X139622857Y-102405714D01*
X139280000Y-102705714D01*
X139280000Y-102577142D01*
X139237142Y-102491428D01*
X139194285Y-102448571D01*
X139108571Y-102405714D01*
X138894285Y-102405714D01*
X138808571Y-102448571D01*
X138765714Y-102491428D01*
X138722857Y-102577142D01*
X138722857Y-102834285D01*
X138765714Y-102920000D01*
X138808571Y-102962857D01*
X139622857Y-102148571D02*
X138722857Y-101848571D01*
X139622857Y-101548571D01*
X189777142Y-108626894D02*
X190677142Y-109226894D01*
X189777142Y-109226894D02*
X190677142Y-108626894D01*
D12*
X106262380Y-101493809D02*
X107071904Y-101493809D01*
X107167142Y-101541428D01*
X107214761Y-101589047D01*
X107262380Y-101684285D01*
X107262380Y-101874761D01*
X107214761Y-101970000D01*
X107167142Y-102017619D01*
X107071904Y-102065238D01*
X106262380Y-102065238D01*
X107262380Y-102541428D02*
X106262380Y-102541428D01*
X107262380Y-103017619D02*
X106262380Y-103017619D01*
X107262380Y-103589047D01*
X106262380Y-103589047D01*
X107262380Y-104065238D02*
X106262380Y-104065238D01*
X106262380Y-104731904D02*
X106262380Y-104922380D01*
X106310000Y-105017619D01*
X106405238Y-105112857D01*
X106595714Y-105160476D01*
X106929047Y-105160476D01*
X107119523Y-105112857D01*
X107214761Y-105017619D01*
X107262380Y-104922380D01*
X107262380Y-104731904D01*
X107214761Y-104636666D01*
X107119523Y-104541428D01*
X106929047Y-104493809D01*
X106595714Y-104493809D01*
X106405238Y-104541428D01*
X106310000Y-104636666D01*
X106262380Y-104731904D01*
X106881428Y-105589047D02*
X106881428Y-106350952D01*
X107262380Y-106827142D02*
X106262380Y-106827142D01*
X106262380Y-107065238D01*
X106310000Y-107208095D01*
X106405238Y-107303333D01*
X106500476Y-107350952D01*
X106690952Y-107398571D01*
X106833809Y-107398571D01*
X107024285Y-107350952D01*
X107119523Y-107303333D01*
X107214761Y-107208095D01*
X107262380Y-107065238D01*
X107262380Y-106827142D01*
X106976666Y-107779523D02*
X106976666Y-108255714D01*
X107262380Y-107684285D02*
X106262380Y-108017619D01*
X107262380Y-108350952D01*
X107262380Y-108684285D02*
X106262380Y-108684285D01*
X106262380Y-109065238D01*
X106310000Y-109160476D01*
X106357619Y-109208095D01*
X106452857Y-109255714D01*
X106595714Y-109255714D01*
X106690952Y-109208095D01*
X106738571Y-109160476D01*
X106786190Y-109065238D01*
X106786190Y-108684285D01*
X106881428Y-109684285D02*
X106881428Y-110446190D01*
X107262380Y-111398571D02*
X107262380Y-110922380D01*
X106262380Y-110922380D01*
X107262380Y-111731904D02*
X106595714Y-111731904D01*
X106262380Y-111731904D02*
X106310000Y-111684285D01*
X106357619Y-111731904D01*
X106310000Y-111779523D01*
X106262380Y-111731904D01*
X106357619Y-111731904D01*
X106595714Y-112208095D02*
X107262380Y-112208095D01*
X106690952Y-112208095D02*
X106643333Y-112255714D01*
X106595714Y-112350952D01*
X106595714Y-112493809D01*
X106643333Y-112589047D01*
X106738571Y-112636666D01*
X107262380Y-112636666D01*
X107262380Y-113112857D02*
X106262380Y-113112857D01*
X106881428Y-113208095D02*
X107262380Y-113493809D01*
X106595714Y-113493809D02*
X106976666Y-113112857D01*
D10*
X190491428Y-116362612D02*
X189958095Y-116362612D01*
X190415238Y-116362612D02*
X190453333Y-116324517D01*
X190491428Y-116248326D01*
X190491428Y-116134040D01*
X190453333Y-116057850D01*
X190377142Y-116019755D01*
X189958095Y-116019755D01*
X189996190Y-115676897D02*
X189958095Y-115562612D01*
X189958095Y-115372136D01*
X189996190Y-115295945D01*
X190034285Y-115257850D01*
X190110476Y-115219755D01*
X190186666Y-115219755D01*
X190262857Y-115257850D01*
X190300952Y-115295945D01*
X190339047Y-115372136D01*
X190377142Y-115524517D01*
X190415238Y-115600707D01*
X190453333Y-115638802D01*
X190529523Y-115676897D01*
X190605714Y-115676897D01*
X190681904Y-115638802D01*
X190720000Y-115600707D01*
X190758095Y-115524517D01*
X190758095Y-115334040D01*
X190720000Y-115219755D01*
X189958095Y-114419755D02*
X190339047Y-114686421D01*
X189958095Y-114876897D02*
X190758095Y-114876897D01*
X190758095Y-114572136D01*
X190720000Y-114495945D01*
X190681904Y-114457850D01*
X190605714Y-114419755D01*
X190491428Y-114419755D01*
X190415238Y-114457850D01*
X190377142Y-114495945D01*
X190339047Y-114572136D01*
X190339047Y-114876897D01*
X189996190Y-114114993D02*
X189958095Y-114000707D01*
X189958095Y-113810231D01*
X189996190Y-113734040D01*
X190034285Y-113695945D01*
X190110476Y-113657850D01*
X190186666Y-113657850D01*
X190262857Y-113695945D01*
X190300952Y-113734040D01*
X190339047Y-113810231D01*
X190377142Y-113962612D01*
X190415238Y-114038802D01*
X190453333Y-114076897D01*
X190529523Y-114114993D01*
X190605714Y-114114993D01*
X190681904Y-114076897D01*
X190720000Y-114038802D01*
X190758095Y-113962612D01*
X190758095Y-113772136D01*
X190720000Y-113657850D01*
X190758095Y-113429278D02*
X190758095Y-112972136D01*
X189958095Y-113200707D02*
X190758095Y-113200707D01*
X190708095Y-95955469D02*
X190708095Y-95460231D01*
X190403333Y-95726897D01*
X190403333Y-95612612D01*
X190365238Y-95536421D01*
X190327142Y-95498326D01*
X190250952Y-95460231D01*
X190060476Y-95460231D01*
X189984285Y-95498326D01*
X189946190Y-95536421D01*
X189908095Y-95612612D01*
X189908095Y-95841183D01*
X189946190Y-95917374D01*
X189984285Y-95955469D01*
X189984285Y-95117374D02*
X189946190Y-95079278D01*
X189908095Y-95117374D01*
X189946190Y-95155469D01*
X189984285Y-95117374D01*
X189908095Y-95117374D01*
X190708095Y-94812612D02*
X190708095Y-94317374D01*
X190403333Y-94584040D01*
X190403333Y-94469755D01*
X190365238Y-94393564D01*
X190327142Y-94355469D01*
X190250952Y-94317374D01*
X190060476Y-94317374D01*
X189984285Y-94355469D01*
X189946190Y-94393564D01*
X189908095Y-94469755D01*
X189908095Y-94698326D01*
X189946190Y-94774517D01*
X189984285Y-94812612D01*
X190708095Y-94088802D02*
X189908095Y-93822136D01*
X190708095Y-93555469D01*
D11*
X154007142Y-98465239D02*
X154007142Y-98979525D01*
X154907142Y-98722382D02*
X154007142Y-98722382D01*
X154907142Y-99279525D02*
X154007142Y-99279525D01*
X154007142Y-99493810D01*
X154050000Y-99622382D01*
X154135714Y-99708096D01*
X154221428Y-99750953D01*
X154392857Y-99793810D01*
X154521428Y-99793810D01*
X154692857Y-99750953D01*
X154778571Y-99708096D01*
X154864285Y-99622382D01*
X154907142Y-99493810D01*
X154907142Y-99279525D01*
X154907142Y-100179525D02*
X154007142Y-100179525D01*
X142152857Y-116165714D02*
X142152857Y-115651428D01*
X141252857Y-115908571D02*
X142152857Y-115908571D01*
X142152857Y-115437142D02*
X141252857Y-114837142D01*
X142152857Y-114837142D02*
X141252857Y-115437142D01*
D10*
X104456666Y-104036666D02*
X105156666Y-104270000D01*
X104456666Y-104503333D01*
X105123333Y-105003333D02*
X105156666Y-104936666D01*
X105156666Y-104803333D01*
X105123333Y-104736666D01*
X105056666Y-104703333D01*
X104790000Y-104703333D01*
X104723333Y-104736666D01*
X104690000Y-104803333D01*
X104690000Y-104936666D01*
X104723333Y-105003333D01*
X104790000Y-105036666D01*
X104856666Y-105036666D01*
X104923333Y-104703333D01*
X105156666Y-105336666D02*
X104690000Y-105336666D01*
X104823333Y-105336666D02*
X104756666Y-105370000D01*
X104723333Y-105403333D01*
X104690000Y-105470000D01*
X104690000Y-105536666D01*
X105123333Y-105736666D02*
X105156666Y-105803333D01*
X105156666Y-105936666D01*
X105123333Y-106003333D01*
X105056666Y-106036666D01*
X105023333Y-106036666D01*
X104956666Y-106003333D01*
X104923333Y-105936666D01*
X104923333Y-105836666D01*
X104890000Y-105770000D01*
X104823333Y-105736666D01*
X104790000Y-105736666D01*
X104723333Y-105770000D01*
X104690000Y-105836666D01*
X104690000Y-105936666D01*
X104723333Y-106003333D01*
X105156666Y-106336666D02*
X104690000Y-106336666D01*
X104456666Y-106336666D02*
X104490000Y-106303333D01*
X104523333Y-106336666D01*
X104490000Y-106370000D01*
X104456666Y-106336666D01*
X104523333Y-106336666D01*
X105156666Y-106770000D02*
X105123333Y-106703333D01*
X105090000Y-106670000D01*
X105023333Y-106636666D01*
X104823333Y-106636666D01*
X104756666Y-106670000D01*
X104723333Y-106703333D01*
X104690000Y-106770000D01*
X104690000Y-106870000D01*
X104723333Y-106936666D01*
X104756666Y-106970000D01*
X104823333Y-107003333D01*
X105023333Y-107003333D01*
X105090000Y-106970000D01*
X105123333Y-106936666D01*
X105156666Y-106870000D01*
X105156666Y-106770000D01*
X104690000Y-107303333D02*
X105156666Y-107303333D01*
X104756666Y-107303333D02*
X104723333Y-107336666D01*
X104690000Y-107403333D01*
X104690000Y-107503333D01*
X104723333Y-107570000D01*
X104790000Y-107603333D01*
X105156666Y-107603333D01*
X104456666Y-108403333D02*
X104456666Y-108836666D01*
X104723333Y-108603333D01*
X104723333Y-108703333D01*
X104756666Y-108770000D01*
X104790000Y-108803333D01*
X104856666Y-108836666D01*
X105023333Y-108836666D01*
X105090000Y-108803333D01*
X105123333Y-108770000D01*
X105156666Y-108703333D01*
X105156666Y-108503333D01*
X105123333Y-108436666D01*
X105090000Y-108403333D01*
X105090000Y-109136666D02*
X105123333Y-109170000D01*
X105156666Y-109136666D01*
X105123333Y-109103333D01*
X105090000Y-109136666D01*
X105156666Y-109136666D01*
X104523333Y-109436666D02*
X104490000Y-109470000D01*
X104456666Y-109536666D01*
X104456666Y-109703333D01*
X104490000Y-109770000D01*
X104523333Y-109803333D01*
X104590000Y-109836666D01*
X104656666Y-109836666D01*
X104756666Y-109803333D01*
X105156666Y-109403333D01*
X105156666Y-109836666D01*
X105090000Y-110136666D02*
X105123333Y-110170000D01*
X105156666Y-110136666D01*
X105123333Y-110103333D01*
X105090000Y-110136666D01*
X105156666Y-110136666D01*
X104456666Y-110603333D02*
X104456666Y-110670000D01*
X104490000Y-110736666D01*
X104523333Y-110770000D01*
X104590000Y-110803333D01*
X104723333Y-110836666D01*
X104890000Y-110836666D01*
X105023333Y-110803333D01*
X105090000Y-110770000D01*
X105123333Y-110736666D01*
X105156666Y-110670000D01*
X105156666Y-110603333D01*
X105123333Y-110536666D01*
X105090000Y-110503333D01*
X105023333Y-110470000D01*
X104890000Y-110436666D01*
X104723333Y-110436666D01*
X104590000Y-110470000D01*
X104523333Y-110503333D01*
X104490000Y-110536666D01*
X104456666Y-110603333D01*
D11*
X141282857Y-111720000D02*
X141711428Y-112020000D01*
X141282857Y-112234285D02*
X142182857Y-112234285D01*
X142182857Y-111891428D01*
X142140000Y-111805714D01*
X142097142Y-111762857D01*
X142011428Y-111720000D01*
X141882857Y-111720000D01*
X141797142Y-111762857D01*
X141754285Y-111805714D01*
X141711428Y-111891428D01*
X141711428Y-112234285D01*
X142182857Y-111420000D02*
X141282857Y-110820000D01*
X142182857Y-110820000D02*
X141282857Y-111420000D01*
D10*
X190708095Y-104591183D02*
X190708095Y-104134040D01*
X189908095Y-104362612D02*
X190708095Y-104362612D01*
X189908095Y-103867374D02*
X190708095Y-103867374D01*
X190136666Y-103600707D01*
X190708095Y-103334040D01*
X189908095Y-103334040D01*
X189946190Y-102991183D02*
X189908095Y-102876897D01*
X189908095Y-102686421D01*
X189946190Y-102610231D01*
X189984285Y-102572136D01*
X190060476Y-102534040D01*
X190136666Y-102534040D01*
X190212857Y-102572136D01*
X190250952Y-102610231D01*
X190289047Y-102686421D01*
X190327142Y-102838802D01*
X190365238Y-102914993D01*
X190403333Y-102953088D01*
X190479523Y-102991183D01*
X190555714Y-102991183D01*
X190631904Y-102953088D01*
X190670000Y-102914993D01*
X190708095Y-102838802D01*
X190708095Y-102648326D01*
X190670000Y-102534040D01*
X190708095Y-112472136D02*
X190708095Y-112014993D01*
X189908095Y-112243564D02*
X190708095Y-112243564D01*
X189908095Y-111748326D02*
X190708095Y-111748326D01*
X190708095Y-111557850D01*
X190670000Y-111443564D01*
X190593809Y-111367374D01*
X190517619Y-111329278D01*
X190365238Y-111291183D01*
X190250952Y-111291183D01*
X190098571Y-111329278D01*
X190022380Y-111367374D01*
X189946190Y-111443564D01*
X189908095Y-111557850D01*
X189908095Y-111748326D01*
X190708095Y-110795945D02*
X190708095Y-110643564D01*
X190670000Y-110567374D01*
X190593809Y-110491183D01*
X190441428Y-110453088D01*
X190174761Y-110453088D01*
X190022380Y-110491183D01*
X189946190Y-110567374D01*
X189908095Y-110643564D01*
X189908095Y-110795945D01*
X189946190Y-110872136D01*
X190022380Y-110948326D01*
X190174761Y-110986421D01*
X190441428Y-110986421D01*
X190593809Y-110948326D01*
X190670000Y-110872136D01*
X190708095Y-110795945D01*
D11*
X189777142Y-120324517D02*
X190677142Y-120924517D01*
X189777142Y-120924517D02*
X190677142Y-120324517D01*
X189777142Y-97774517D02*
X190677142Y-98374517D01*
X189777142Y-98374517D02*
X190677142Y-97774517D01*
D10*
X187970000Y-121107850D02*
X188003333Y-121174517D01*
X188003333Y-121274517D01*
X187970000Y-121374517D01*
X187903333Y-121441183D01*
X187836666Y-121474517D01*
X187703333Y-121507850D01*
X187603333Y-121507850D01*
X187470000Y-121474517D01*
X187403333Y-121441183D01*
X187336666Y-121374517D01*
X187303333Y-121274517D01*
X187303333Y-121207850D01*
X187336666Y-121107850D01*
X187370000Y-121074517D01*
X187603333Y-121074517D01*
X187603333Y-121207850D01*
X187303333Y-120774517D02*
X188003333Y-120774517D01*
X187303333Y-120374517D01*
X188003333Y-120374517D01*
X187303333Y-120041183D02*
X188003333Y-120041183D01*
X188003333Y-119874517D01*
X187970000Y-119774517D01*
X187903333Y-119707850D01*
X187836666Y-119674517D01*
X187703333Y-119641183D01*
X187603333Y-119641183D01*
X187470000Y-119674517D01*
X187403333Y-119707850D01*
X187336666Y-119774517D01*
X187303333Y-119874517D01*
X187303333Y-120041183D01*
D11*
X154017142Y-114740953D02*
X154017142Y-115255239D01*
X154917142Y-114998096D02*
X154017142Y-114998096D01*
X154017142Y-115469525D02*
X154917142Y-116069525D01*
X154017142Y-116069525D02*
X154917142Y-115469525D01*
D10*
X187970000Y-115193333D02*
X188003333Y-115260000D01*
X188003333Y-115360000D01*
X187970000Y-115460000D01*
X187903333Y-115526666D01*
X187836666Y-115560000D01*
X187703333Y-115593333D01*
X187603333Y-115593333D01*
X187470000Y-115560000D01*
X187403333Y-115526666D01*
X187336666Y-115460000D01*
X187303333Y-115360000D01*
X187303333Y-115293333D01*
X187336666Y-115193333D01*
X187370000Y-115160000D01*
X187603333Y-115160000D01*
X187603333Y-115293333D01*
X187303333Y-114860000D02*
X188003333Y-114860000D01*
X187303333Y-114460000D01*
X188003333Y-114460000D01*
X187303333Y-114126666D02*
X188003333Y-114126666D01*
X188003333Y-113960000D01*
X187970000Y-113860000D01*
X187903333Y-113793333D01*
X187836666Y-113760000D01*
X187703333Y-113726666D01*
X187603333Y-113726666D01*
X187470000Y-113760000D01*
X187403333Y-113793333D01*
X187336666Y-113860000D01*
X187303333Y-113960000D01*
X187303333Y-114126666D01*
X187970000Y-109483333D02*
X188003333Y-109550000D01*
X188003333Y-109650000D01*
X187970000Y-109750000D01*
X187903333Y-109816666D01*
X187836666Y-109850000D01*
X187703333Y-109883333D01*
X187603333Y-109883333D01*
X187470000Y-109850000D01*
X187403333Y-109816666D01*
X187336666Y-109750000D01*
X187303333Y-109650000D01*
X187303333Y-109583333D01*
X187336666Y-109483333D01*
X187370000Y-109450000D01*
X187603333Y-109450000D01*
X187603333Y-109583333D01*
X187303333Y-109150000D02*
X188003333Y-109150000D01*
X187303333Y-108750000D01*
X188003333Y-108750000D01*
X187303333Y-108416666D02*
X188003333Y-108416666D01*
X188003333Y-108250000D01*
X187970000Y-108150000D01*
X187903333Y-108083333D01*
X187836666Y-108050000D01*
X187703333Y-108016666D01*
X187603333Y-108016666D01*
X187470000Y-108050000D01*
X187403333Y-108083333D01*
X187336666Y-108150000D01*
X187303333Y-108250000D01*
X187303333Y-108416666D01*
D11*
X156537142Y-101631428D02*
X156537142Y-102188571D01*
X156880000Y-101888571D01*
X156880000Y-102017142D01*
X156922857Y-102102857D01*
X156965714Y-102145714D01*
X157051428Y-102188571D01*
X157265714Y-102188571D01*
X157351428Y-102145714D01*
X157394285Y-102102857D01*
X157437142Y-102017142D01*
X157437142Y-101760000D01*
X157394285Y-101674285D01*
X157351428Y-101631428D01*
X157351428Y-102574285D02*
X157394285Y-102617142D01*
X157437142Y-102574285D01*
X157394285Y-102531428D01*
X157351428Y-102574285D01*
X157437142Y-102574285D01*
X156537142Y-102917142D02*
X156537142Y-103474285D01*
X156880000Y-103174285D01*
X156880000Y-103302857D01*
X156922857Y-103388571D01*
X156965714Y-103431428D01*
X157051428Y-103474285D01*
X157265714Y-103474285D01*
X157351428Y-103431428D01*
X157394285Y-103388571D01*
X157437142Y-103302857D01*
X157437142Y-103045714D01*
X157394285Y-102960000D01*
X157351428Y-102917142D01*
X156537142Y-103731428D02*
X157437142Y-104031428D01*
X156537142Y-104331428D01*
X157403809Y-109900476D02*
X157441904Y-110014761D01*
X157441904Y-110205238D01*
X157403809Y-110281428D01*
X157365714Y-110319523D01*
X157289523Y-110357619D01*
X157213333Y-110357619D01*
X157137142Y-110319523D01*
X157099047Y-110281428D01*
X157060952Y-110205238D01*
X157022857Y-110052857D01*
X156984761Y-109976666D01*
X156946666Y-109938571D01*
X156870476Y-109900476D01*
X156794285Y-109900476D01*
X156718095Y-109938571D01*
X156680000Y-109976666D01*
X156641904Y-110052857D01*
X156641904Y-110243333D01*
X156680000Y-110357619D01*
X156641904Y-110624285D02*
X157441904Y-110814761D01*
X156870476Y-110967142D01*
X157441904Y-111119523D01*
X156641904Y-111310000D01*
X157365714Y-112071904D02*
X157403809Y-112033809D01*
X157441904Y-111919523D01*
X157441904Y-111843333D01*
X157403809Y-111729047D01*
X157327619Y-111652857D01*
X157251428Y-111614761D01*
X157099047Y-111576666D01*
X156984761Y-111576666D01*
X156832380Y-111614761D01*
X156756190Y-111652857D01*
X156680000Y-111729047D01*
X156641904Y-111843333D01*
X156641904Y-111919523D01*
X156680000Y-112033809D01*
X156718095Y-112071904D01*
X157441904Y-112795714D02*
X157441904Y-112414761D01*
X156641904Y-112414761D01*
X157441904Y-113062380D02*
X156641904Y-113062380D01*
X157441904Y-113519523D02*
X156984761Y-113176666D01*
X156641904Y-113519523D02*
X157099047Y-113062380D01*
X138856190Y-113479523D02*
X138818095Y-113365238D01*
X138818095Y-113174761D01*
X138856190Y-113098571D01*
X138894285Y-113060476D01*
X138970476Y-113022380D01*
X139046666Y-113022380D01*
X139122857Y-113060476D01*
X139160952Y-113098571D01*
X139199047Y-113174761D01*
X139237142Y-113327142D01*
X139275238Y-113403333D01*
X139313333Y-113441428D01*
X139389523Y-113479523D01*
X139465714Y-113479523D01*
X139541904Y-113441428D01*
X139580000Y-113403333D01*
X139618095Y-113327142D01*
X139618095Y-113136666D01*
X139580000Y-113022380D01*
X139618095Y-112755714D02*
X138818095Y-112565238D01*
X139389523Y-112412857D01*
X138818095Y-112260476D01*
X139618095Y-112070000D01*
X138894285Y-111308095D02*
X138856190Y-111346190D01*
X138818095Y-111460476D01*
X138818095Y-111536666D01*
X138856190Y-111650952D01*
X138932380Y-111727142D01*
X139008571Y-111765238D01*
X139160952Y-111803333D01*
X139275238Y-111803333D01*
X139427619Y-111765238D01*
X139503809Y-111727142D01*
X139580000Y-111650952D01*
X139618095Y-111536666D01*
X139618095Y-111460476D01*
X139580000Y-111346190D01*
X139541904Y-111308095D01*
X138818095Y-110584285D02*
X138818095Y-110965238D01*
X139618095Y-110965238D01*
X138818095Y-110317619D02*
X139618095Y-110317619D01*
X138818095Y-109860476D02*
X139275238Y-110203333D01*
X139618095Y-109860476D02*
X139160952Y-110317619D01*
X142172857Y-104158571D02*
X142172857Y-103644285D01*
X141272857Y-103901428D02*
X142172857Y-103901428D01*
X141272857Y-103344285D02*
X142172857Y-103344285D01*
X142172857Y-103130000D01*
X142130000Y-103001428D01*
X142044285Y-102915714D01*
X141958571Y-102872857D01*
X141787142Y-102830000D01*
X141658571Y-102830000D01*
X141487142Y-102872857D01*
X141401428Y-102915714D01*
X141315714Y-103001428D01*
X141272857Y-103130000D01*
X141272857Y-103344285D01*
X142172857Y-102272857D02*
X142172857Y-102101428D01*
X142130000Y-102015714D01*
X142044285Y-101930000D01*
X141872857Y-101887142D01*
X141572857Y-101887142D01*
X141401428Y-101930000D01*
X141315714Y-102015714D01*
X141272857Y-102101428D01*
X141272857Y-102272857D01*
X141315714Y-102358571D01*
X141401428Y-102444285D01*
X141572857Y-102487142D01*
X141872857Y-102487142D01*
X142044285Y-102444285D01*
X142130000Y-102358571D01*
X142172857Y-102272857D01*
X141871428Y-108641904D02*
X141338095Y-108641904D01*
X141795238Y-108641904D02*
X141833333Y-108603809D01*
X141871428Y-108527619D01*
X141871428Y-108413333D01*
X141833333Y-108337142D01*
X141757142Y-108299047D01*
X141338095Y-108299047D01*
X142138095Y-108032380D02*
X142138095Y-107575238D01*
X141338095Y-107803809D02*
X142138095Y-107803809D01*
X141338095Y-106851428D02*
X141719047Y-107118095D01*
X141338095Y-107308571D02*
X142138095Y-107308571D01*
X142138095Y-107003809D01*
X142100000Y-106927619D01*
X142061904Y-106889523D01*
X141985714Y-106851428D01*
X141871428Y-106851428D01*
X141795238Y-106889523D01*
X141757142Y-106927619D01*
X141719047Y-107003809D01*
X141719047Y-107308571D01*
X141376190Y-106546666D02*
X141338095Y-106432380D01*
X141338095Y-106241904D01*
X141376190Y-106165714D01*
X141414285Y-106127619D01*
X141490476Y-106089523D01*
X141566666Y-106089523D01*
X141642857Y-106127619D01*
X141680952Y-106165714D01*
X141719047Y-106241904D01*
X141757142Y-106394285D01*
X141795238Y-106470476D01*
X141833333Y-106508571D01*
X141909523Y-106546666D01*
X141985714Y-106546666D01*
X142061904Y-106508571D01*
X142100000Y-106470476D01*
X142138095Y-106394285D01*
X142138095Y-106203809D01*
X142100000Y-106089523D01*
X142138095Y-105860952D02*
X142138095Y-105403809D01*
X141338095Y-105632380D02*
X142138095Y-105632380D01*
X154017142Y-101751428D02*
X154017142Y-102265714D01*
X154917142Y-102008571D02*
X154017142Y-102008571D01*
X154917142Y-102565714D02*
X154017142Y-102565714D01*
X154017142Y-102780000D01*
X154060000Y-102908571D01*
X154145714Y-102994285D01*
X154231428Y-103037142D01*
X154402857Y-103080000D01*
X154531428Y-103080000D01*
X154702857Y-103037142D01*
X154788571Y-102994285D01*
X154874285Y-102908571D01*
X154917142Y-102780000D01*
X154917142Y-102565714D01*
X154017142Y-103637142D02*
X154017142Y-103808571D01*
X154060000Y-103894285D01*
X154145714Y-103980000D01*
X154317142Y-104022857D01*
X154617142Y-104022857D01*
X154788571Y-103980000D01*
X154874285Y-103894285D01*
X154917142Y-103808571D01*
X154917142Y-103637142D01*
X154874285Y-103551428D01*
X154788571Y-103465714D01*
X154617142Y-103422857D01*
X154317142Y-103422857D01*
X154145714Y-103465714D01*
X154060000Y-103551428D01*
X154017142Y-103637142D01*
X142152857Y-100331428D02*
X142152857Y-99817142D01*
X141252857Y-100074285D02*
X142152857Y-100074285D01*
X141252857Y-99517142D02*
X142152857Y-99517142D01*
X142152857Y-99302857D01*
X142110000Y-99174285D01*
X142024285Y-99088571D01*
X141938571Y-99045714D01*
X141767142Y-99002857D01*
X141638571Y-99002857D01*
X141467142Y-99045714D01*
X141381428Y-99088571D01*
X141295714Y-99174285D01*
X141252857Y-99302857D01*
X141252857Y-99517142D01*
X141252857Y-98617142D02*
X142152857Y-98617142D01*
D10*
X187970000Y-111983333D02*
X188003333Y-112050000D01*
X188003333Y-112150000D01*
X187970000Y-112250000D01*
X187903333Y-112316666D01*
X187836666Y-112350000D01*
X187703333Y-112383333D01*
X187603333Y-112383333D01*
X187470000Y-112350000D01*
X187403333Y-112316666D01*
X187336666Y-112250000D01*
X187303333Y-112150000D01*
X187303333Y-112083333D01*
X187336666Y-111983333D01*
X187370000Y-111950000D01*
X187603333Y-111950000D01*
X187603333Y-112083333D01*
X187303333Y-111650000D02*
X188003333Y-111650000D01*
X187303333Y-111250000D01*
X188003333Y-111250000D01*
X187303333Y-110916666D02*
X188003333Y-110916666D01*
X188003333Y-110750000D01*
X187970000Y-110650000D01*
X187903333Y-110583333D01*
X187836666Y-110550000D01*
X187703333Y-110516666D01*
X187603333Y-110516666D01*
X187470000Y-110550000D01*
X187403333Y-110583333D01*
X187336666Y-110650000D01*
X187303333Y-110750000D01*
X187303333Y-110916666D01*
D11*
X156590000Y-114814285D02*
X156547142Y-114728571D01*
X156547142Y-114600000D01*
X156590000Y-114471428D01*
X156675714Y-114385714D01*
X156761428Y-114342857D01*
X156932857Y-114300000D01*
X157061428Y-114300000D01*
X157232857Y-114342857D01*
X157318571Y-114385714D01*
X157404285Y-114471428D01*
X157447142Y-114600000D01*
X157447142Y-114685714D01*
X157404285Y-114814285D01*
X157361428Y-114857142D01*
X157061428Y-114857142D01*
X157061428Y-114685714D01*
X157447142Y-115242857D02*
X156547142Y-115242857D01*
X157447142Y-115757142D01*
X156547142Y-115757142D01*
X157447142Y-116185714D02*
X156547142Y-116185714D01*
X156547142Y-116400000D01*
X156590000Y-116528571D01*
X156675714Y-116614285D01*
X156761428Y-116657142D01*
X156932857Y-116700000D01*
X157061428Y-116700000D01*
X157232857Y-116657142D01*
X157318571Y-116614285D01*
X157404285Y-116528571D01*
X157447142Y-116400000D01*
X157447142Y-116185714D01*
D10*
%TO.C,HOLE2*%
X105070000Y-115860000D02*
G75*
G03*
X105070000Y-115860000I-900000J0D01*
G01*
%TO.C,HOLE8*%
X180214000Y-94810000D02*
G75*
G03*
X180214000Y-94810000I-1800000J0D01*
G01*
%TO.C,HOLE7*%
X180234000Y-119950000D02*
G75*
G03*
X180234000Y-119950000I-1800000J0D01*
G01*
%TO.C,HOLE1*%
X105070000Y-98860000D02*
G75*
G03*
X105070000Y-98860000I-900000J0D01*
G01*
%TO.C,HOLE6*%
X162354000Y-119920000D02*
G75*
G03*
X162354000Y-119920000I-1800000J0D01*
G01*
%TO.C,HOLE4*%
X136510000Y-99260000D02*
G75*
G03*
X136510000Y-99260000I-1800000J0D01*
G01*
%TO.C,HOLE5*%
X162314000Y-94810000D02*
G75*
G03*
X162314000Y-94810000I-1800000J0D01*
G01*
%TO.C,HOLE3*%
X136470000Y-115510000D02*
G75*
G03*
X136470000Y-115510000I-1800000J0D01*
G01*
%TO.C,*%
G36*
X129696170Y-109197724D02*
G01*
X129745180Y-109297901D01*
X129796090Y-109414552D01*
X129847760Y-109545083D01*
X129899052Y-109686897D01*
X129948828Y-109837400D01*
X129957167Y-109863790D01*
X129976420Y-109924626D01*
X129992611Y-109975668D01*
X130004243Y-110012197D01*
X130009818Y-110029495D01*
X130006774Y-110038866D01*
X129986724Y-110042808D01*
X129945766Y-110042051D01*
X129876247Y-110038290D01*
X129845603Y-109950401D01*
X129844213Y-109946418D01*
X129828126Y-109901146D01*
X129814583Y-109864355D01*
X129806389Y-109843678D01*
X129800707Y-109826983D01*
X129794347Y-109795143D01*
X129790749Y-109775218D01*
X129784308Y-109758873D01*
X129779575Y-109758120D01*
X129770346Y-109771501D01*
X129762249Y-109796482D01*
X129757729Y-109824479D01*
X129759231Y-109846909D01*
X129761878Y-109863558D01*
X129751817Y-109862444D01*
X129746897Y-109861178D01*
X129741442Y-109871012D01*
X129739712Y-109899090D01*
X129741300Y-109948761D01*
X129746138Y-110044568D01*
X127793252Y-110044568D01*
X127793252Y-110018716D01*
X127795211Y-110004189D01*
X127802669Y-109998677D01*
X127807984Y-109998676D01*
X127813796Y-109982707D01*
X127815212Y-109951435D01*
X127812477Y-109910833D01*
X127805837Y-109866877D01*
X127795540Y-109825542D01*
X127772091Y-109751504D01*
X127758090Y-109791667D01*
X127757580Y-109793161D01*
X127750445Y-109826804D01*
X127751971Y-109852369D01*
X127754472Y-109863187D01*
X127747403Y-109865214D01*
X127745788Y-109864907D01*
X127735080Y-109876887D01*
X127720505Y-109907183D01*
X127704463Y-109951005D01*
X127673974Y-110044490D01*
X127626044Y-110044529D01*
X127599536Y-110043381D01*
X127584492Y-110037061D01*
X127584461Y-110022596D01*
X127585403Y-110019270D01*
X127592470Y-109993632D01*
X127604285Y-109950312D01*
X127619451Y-109894435D01*
X127636575Y-109831123D01*
X127681480Y-109671496D01*
X127728104Y-109521493D01*
X127773462Y-109392967D01*
X127818246Y-109284103D01*
X127863151Y-109193083D01*
X127908870Y-109118090D01*
X127940040Y-109081335D01*
X127972666Y-109053330D01*
X128300455Y-109053330D01*
X128300951Y-109069334D01*
X128301521Y-109073150D01*
X128310908Y-109104529D01*
X128326753Y-109140481D01*
X128329071Y-109144927D01*
X128343097Y-109168909D01*
X128351458Y-109172866D01*
X128358380Y-109159314D01*
X128363852Y-109146902D01*
X128369413Y-109149256D01*
X128376078Y-109174043D01*
X128376335Y-109175172D01*
X128387868Y-109204593D01*
X128402966Y-109220732D01*
X128410578Y-109222429D01*
X128419643Y-109215337D01*
X128422842Y-109191483D01*
X128421165Y-109146842D01*
X128421047Y-109144953D01*
X128421761Y-109121995D01*
X128426441Y-109116828D01*
X128429184Y-109122840D01*
X128433945Y-109148645D01*
X128437056Y-109185884D01*
X128438340Y-109208200D01*
X128442909Y-109234681D01*
X128453664Y-109246719D01*
X128474607Y-109251280D01*
X128496877Y-109257383D01*
X128502236Y-109266781D01*
X128503429Y-109275463D01*
X128520109Y-109292014D01*
X128547623Y-109309442D01*
X128578479Y-109323227D01*
X128605182Y-109328851D01*
X128622358Y-109331714D01*
X128637138Y-109343156D01*
X128640443Y-109345068D01*
X128648561Y-109332366D01*
X128658304Y-109307110D01*
X128667343Y-109276544D01*
X128673352Y-109247910D01*
X128673687Y-109237870D01*
X128760479Y-109237870D01*
X128768025Y-109248218D01*
X128791423Y-109253564D01*
X128802554Y-109253176D01*
X128818862Y-109247106D01*
X128820566Y-109229430D01*
X128809311Y-109194743D01*
X128795809Y-109159397D01*
X128885590Y-109159397D01*
X128887376Y-109168118D01*
X128901285Y-109178423D01*
X128908711Y-109180523D01*
X128898726Y-109190162D01*
X128895902Y-109192065D01*
X128886942Y-109206521D01*
X128894362Y-109229430D01*
X128894798Y-109230776D01*
X128904833Y-109253475D01*
X128916668Y-109286932D01*
X128920939Y-109298699D01*
X128941735Y-109319168D01*
X128976618Y-109319382D01*
X128987079Y-109314182D01*
X128994265Y-109299457D01*
X128997707Y-109270246D01*
X128998591Y-109221255D01*
X128998558Y-109205736D01*
X128997500Y-109163889D01*
X128994885Y-109146842D01*
X129011146Y-109146842D01*
X129015047Y-109167542D01*
X129026841Y-109178423D01*
X129035532Y-109180295D01*
X129026026Y-109189084D01*
X129025717Y-109189286D01*
X129014827Y-109210597D01*
X129014468Y-109221255D01*
X129013471Y-109250879D01*
X129013748Y-109254389D01*
X129017747Y-109284355D01*
X129025206Y-109294526D01*
X129039396Y-109289817D01*
X129052386Y-109277512D01*
X129062825Y-109249802D01*
X129063039Y-109246144D01*
X129065424Y-109232893D01*
X129069943Y-109243730D01*
X129071334Y-109248474D01*
X129080412Y-109258572D01*
X129099876Y-109250126D01*
X129113586Y-109236981D01*
X129121864Y-109211775D01*
X129124147Y-109168933D01*
X129124191Y-109165675D01*
X129138851Y-109165675D01*
X129139985Y-109182587D01*
X129146543Y-109209868D01*
X129157994Y-109212978D01*
X129173928Y-109191612D01*
X129177231Y-109185033D01*
X129187008Y-109150244D01*
X129181593Y-109125117D01*
X129161904Y-109115453D01*
X129146968Y-109118475D01*
X129139509Y-109132987D01*
X129138851Y-109165675D01*
X129124191Y-109165675D01*
X129124553Y-109138846D01*
X129127921Y-109114691D01*
X129137255Y-109104800D01*
X129155536Y-109102897D01*
X129199481Y-109102897D01*
X129199721Y-109125479D01*
X129200829Y-109150244D01*
X129201014Y-109154373D01*
X129203051Y-109165675D01*
X129203489Y-109165510D01*
X129212710Y-109153782D01*
X129228162Y-109129210D01*
X129237810Y-109111010D01*
X129249103Y-109074333D01*
X129244643Y-109049349D01*
X129224592Y-109040119D01*
X129218784Y-109040388D01*
X129206414Y-109046463D01*
X129205430Y-109049756D01*
X129200803Y-109065243D01*
X129200142Y-109084064D01*
X129199481Y-109102897D01*
X129155536Y-109102897D01*
X129176010Y-109099211D01*
X129186925Y-109084064D01*
X129185402Y-109074322D01*
X129170463Y-109065909D01*
X129139671Y-109076869D01*
X129126703Y-109083189D01*
X129094538Y-109095830D01*
X129086099Y-109099492D01*
X129075836Y-109115139D01*
X129076322Y-109146969D01*
X129076523Y-109148756D01*
X129076177Y-109179552D01*
X129067300Y-109190786D01*
X129058675Y-109181133D01*
X129058691Y-109153120D01*
X129060471Y-109136226D01*
X129055907Y-109119435D01*
X129037683Y-109115453D01*
X129037060Y-109115455D01*
X129016809Y-109122460D01*
X129011146Y-109146842D01*
X128994885Y-109146842D01*
X128993907Y-109140470D01*
X128986369Y-109130253D01*
X128973480Y-109128008D01*
X128957605Y-109131922D01*
X128948368Y-109152379D01*
X128946530Y-109166751D01*
X128936984Y-109183785D01*
X128931343Y-109182685D01*
X128932170Y-109165693D01*
X128932196Y-109165592D01*
X128931694Y-109145875D01*
X128912166Y-109140564D01*
X128896193Y-109144095D01*
X128885590Y-109159397D01*
X128795809Y-109159397D01*
X128794740Y-109161320D01*
X128778366Y-109190786D01*
X128766555Y-109215910D01*
X128760479Y-109237870D01*
X128673687Y-109237870D01*
X128674001Y-109228453D01*
X128673174Y-109219988D01*
X128679132Y-109218847D01*
X128679241Y-109218951D01*
X128690826Y-109215687D01*
X128705437Y-109195439D01*
X128710961Y-109184637D01*
X128720679Y-109161320D01*
X128716441Y-109153589D01*
X128697256Y-109156758D01*
X128682180Y-109158693D01*
X128672145Y-109153370D01*
X128669959Y-109150257D01*
X128650563Y-109142214D01*
X128617625Y-109135239D01*
X128606859Y-109133606D01*
X128563842Y-109126798D01*
X128529735Y-109121013D01*
X128524603Y-109120162D01*
X128502121Y-109121545D01*
X128495115Y-109137180D01*
X128495033Y-109138443D01*
X128491779Y-109145427D01*
X128485132Y-109128008D01*
X128475187Y-109108029D01*
X128451856Y-109096619D01*
X128437296Y-109094991D01*
X128419907Y-109086580D01*
X128414770Y-109082611D01*
X128390550Y-109071457D01*
X128355201Y-109059295D01*
X128328912Y-109051615D01*
X128318820Y-109049789D01*
X128539518Y-109049789D01*
X128540673Y-109050348D01*
X128558843Y-109055048D01*
X128594016Y-109062636D01*
X128640021Y-109071761D01*
X128643592Y-109072437D01*
X128698613Y-109081335D01*
X128750832Y-109087397D01*
X128789389Y-109089343D01*
X128819365Y-109086961D01*
X128869132Y-109080051D01*
X128924731Y-109070390D01*
X128976090Y-109059755D01*
X129013139Y-109049918D01*
X129013368Y-109049756D01*
X129001471Y-109048691D01*
X128968580Y-109047769D01*
X128918291Y-109047043D01*
X128854204Y-109046567D01*
X128779914Y-109046397D01*
X128769943Y-109046400D01*
X128696102Y-109046606D01*
X128632394Y-109047101D01*
X128582565Y-109047831D01*
X128550358Y-109048745D01*
X128539518Y-109049789D01*
X128318820Y-109049789D01*
X128307783Y-109047792D01*
X128300455Y-109053330D01*
X127972666Y-109053330D01*
X127994862Y-109034278D01*
X128058332Y-108993005D01*
X128121583Y-108963943D01*
X128167413Y-108948092D01*
X128071361Y-108898978D01*
X128022616Y-108873655D01*
X127926990Y-108820500D01*
X127846487Y-108769407D01*
X127775149Y-108716088D01*
X127707022Y-108656256D01*
X127636149Y-108585620D01*
X127592936Y-108539726D01*
X127543547Y-108483558D01*
X127504180Y-108432411D01*
X127469681Y-108379427D01*
X127434897Y-108317747D01*
X127407322Y-108266697D01*
X127385038Y-108227853D01*
X127368291Y-108204095D01*
X127353784Y-108191701D01*
X127338220Y-108186949D01*
X127318302Y-108186120D01*
X127286640Y-108183887D01*
X127237954Y-108177239D01*
X127186543Y-108167753D01*
X127125184Y-108151108D01*
X127028998Y-108106316D01*
X126946759Y-108040954D01*
X126877070Y-107954059D01*
X126828514Y-107868617D01*
X126795060Y-107776896D01*
X126782391Y-107683900D01*
X126784082Y-107659002D01*
X126896252Y-107659002D01*
X126896574Y-107699592D01*
X126898837Y-107745938D01*
X126904635Y-107780378D01*
X126915547Y-107810886D01*
X126933151Y-107845432D01*
X126955132Y-107880822D01*
X127014368Y-107950452D01*
X127085191Y-108008202D01*
X127160272Y-108047551D01*
X127188778Y-108056917D01*
X127238658Y-108068722D01*
X127279789Y-108073337D01*
X127280106Y-108073337D01*
X127311907Y-108071739D01*
X127324326Y-108064952D01*
X127322962Y-108049944D01*
X127312964Y-108012484D01*
X127298991Y-107940482D01*
X127285819Y-107850090D01*
X127274000Y-107745252D01*
X127264088Y-107629916D01*
X127258325Y-107551579D01*
X127368782Y-107551579D01*
X127371016Y-107592542D01*
X127375416Y-107646273D01*
X127381460Y-107707702D01*
X127388628Y-107771756D01*
X127396400Y-107833363D01*
X127404254Y-107887451D01*
X127411671Y-107928948D01*
X127446236Y-108064952D01*
X127447276Y-108069044D01*
X127497175Y-108202795D01*
X127561673Y-108323191D01*
X127643596Y-108435441D01*
X127745770Y-108544756D01*
X127832416Y-108621186D01*
X127977946Y-108723637D01*
X128137951Y-108808990D01*
X128308516Y-108875260D01*
X128485726Y-108920457D01*
X128507028Y-108924074D01*
X128561901Y-108931219D01*
X128626829Y-108937662D01*
X128695979Y-108943037D01*
X128763519Y-108946975D01*
X128823615Y-108949107D01*
X128870435Y-108949067D01*
X128898146Y-108946485D01*
X128904183Y-108945252D01*
X128933084Y-108940471D01*
X128977106Y-108933884D01*
X129029396Y-108926534D01*
X129136001Y-108906371D01*
X129276255Y-108865625D01*
X129417332Y-108810508D01*
X129551321Y-108744187D01*
X129670316Y-108669830D01*
X129680039Y-108662768D01*
X129747880Y-108606684D01*
X129820784Y-108536715D01*
X129892342Y-108459700D01*
X129956142Y-108382480D01*
X130005775Y-108311894D01*
X130017130Y-108293083D01*
X130080314Y-108162949D01*
X130109540Y-108073337D01*
X130233092Y-108073337D01*
X130284428Y-108073327D01*
X130305988Y-108071656D01*
X130364490Y-108056374D01*
X130428592Y-108028300D01*
X130490244Y-107991318D01*
X130541398Y-107949313D01*
X130554846Y-107935509D01*
X130599265Y-107880999D01*
X130628459Y-107824534D01*
X130645492Y-107758641D01*
X130653425Y-107675847D01*
X130654690Y-107645629D01*
X130655081Y-107596736D01*
X130651418Y-107560390D01*
X130642498Y-107528154D01*
X130627115Y-107491592D01*
X130602101Y-107445963D01*
X130567927Y-107396918D01*
X130530505Y-107352413D01*
X130494814Y-107318344D01*
X130465832Y-107300607D01*
X130450783Y-107299948D01*
X130423522Y-107312893D01*
X130385659Y-107344073D01*
X130359677Y-107366789D01*
X130343585Y-107379064D01*
X130332669Y-107387391D01*
X130317210Y-107395334D01*
X130316601Y-107395419D01*
X130310179Y-107409120D01*
X130305918Y-107443268D01*
X130304374Y-107493598D01*
X130303801Y-107519923D01*
X130302984Y-107557429D01*
X130296507Y-107662507D01*
X130285689Y-107773040D01*
X130271582Y-107878848D01*
X130255236Y-107969753D01*
X130233092Y-108073337D01*
X130109540Y-108073337D01*
X130129503Y-108012126D01*
X130164652Y-107840787D01*
X130185714Y-107649102D01*
X130194677Y-107519923D01*
X130163261Y-107534237D01*
X130159684Y-107535942D01*
X130141606Y-107549860D01*
X130136051Y-107562593D01*
X130131263Y-107573570D01*
X130125015Y-107614730D01*
X130123577Y-107626711D01*
X130103508Y-107704233D01*
X130067624Y-107768680D01*
X130018486Y-107815230D01*
X129992811Y-107829766D01*
X129950462Y-107846159D01*
X129897300Y-107858765D01*
X129830482Y-107867943D01*
X129747164Y-107874055D01*
X129644500Y-107877461D01*
X129519649Y-107878523D01*
X129454411Y-107878476D01*
X129378657Y-107878062D01*
X129321446Y-107876938D01*
X129278895Y-107874767D01*
X129247119Y-107871212D01*
X129222236Y-107865938D01*
X129200362Y-107858607D01*
X129177613Y-107848883D01*
X129153553Y-107836475D01*
X129106549Y-107805236D01*
X129069268Y-107772144D01*
X129050336Y-107747507D01*
X129022566Y-107700439D01*
X128997898Y-107647678D01*
X128980235Y-107597882D01*
X128973480Y-107559708D01*
X128972752Y-107553185D01*
X128963670Y-107541900D01*
X128939997Y-107534220D01*
X128896478Y-107527978D01*
X128889137Y-107527232D01*
X128835594Y-107524612D01*
X128771536Y-107524829D01*
X128709254Y-107527889D01*
X128599031Y-107536511D01*
X128598824Y-107537623D01*
X128590558Y-107582062D01*
X128570970Y-107654149D01*
X128528252Y-107735791D01*
X128466250Y-107801428D01*
X128384658Y-107851463D01*
X128375821Y-107855445D01*
X128355285Y-107863316D01*
X128332444Y-107869140D01*
X128303498Y-107873222D01*
X128264646Y-107875866D01*
X128212087Y-107877377D01*
X128142019Y-107878058D01*
X128050642Y-107878216D01*
X127997304Y-107878072D01*
X127884281Y-107876403D01*
X127792083Y-107872516D01*
X127717712Y-107865982D01*
X127658168Y-107856372D01*
X127610453Y-107843253D01*
X127571568Y-107826198D01*
X127538514Y-107804776D01*
X127536196Y-107802982D01*
X127486462Y-107748632D01*
X127454356Y-107679666D01*
X127442378Y-107601378D01*
X127440336Y-107571989D01*
X127430676Y-107549453D01*
X127408684Y-107534991D01*
X127384207Y-107526073D01*
X127370243Y-107525379D01*
X127369234Y-107528458D01*
X127368782Y-107551579D01*
X127258325Y-107551579D01*
X127255692Y-107515786D01*
X127482121Y-107515786D01*
X127482369Y-107584970D01*
X127484282Y-107605949D01*
X127499907Y-107678328D01*
X127530023Y-107733772D01*
X127576945Y-107774479D01*
X127642990Y-107802648D01*
X127730474Y-107820477D01*
X127754095Y-107823414D01*
X127831899Y-107830638D01*
X127920417Y-107836098D01*
X128012516Y-107839577D01*
X128101064Y-107840859D01*
X128178929Y-107839725D01*
X128238976Y-107835960D01*
X128283973Y-107829489D01*
X128372878Y-107803202D01*
X128443027Y-107760577D01*
X128494970Y-107701212D01*
X128529258Y-107624708D01*
X128535009Y-107604506D01*
X128546976Y-107537623D01*
X128544084Y-107511930D01*
X129024484Y-107511930D01*
X129026945Y-107573532D01*
X129048942Y-107650185D01*
X129070043Y-107695986D01*
X129112843Y-107751692D01*
X129171001Y-107792476D01*
X129247058Y-107819940D01*
X129343555Y-107835683D01*
X129379297Y-107838918D01*
X129454683Y-107843659D01*
X129527452Y-107844566D01*
X129606746Y-107841617D01*
X129701705Y-107834788D01*
X129809325Y-107823992D01*
X129895651Y-107810082D01*
X129961856Y-107791365D01*
X130010434Y-107766039D01*
X130043879Y-107732301D01*
X130064684Y-107688348D01*
X130075345Y-107632380D01*
X130078354Y-107562593D01*
X130077378Y-107513509D01*
X130071865Y-107470094D01*
X130058985Y-107441939D01*
X130035962Y-107423620D01*
X130000015Y-107409715D01*
X129957356Y-107399221D01*
X129881002Y-107387592D01*
X129788666Y-107379163D01*
X129685459Y-107373932D01*
X129576492Y-107371900D01*
X129466876Y-107373067D01*
X129361722Y-107377433D01*
X129266142Y-107384997D01*
X129185247Y-107395761D01*
X129124147Y-107409723D01*
X129079626Y-107429208D01*
X129041922Y-107464212D01*
X129024484Y-107511930D01*
X128544084Y-107511930D01*
X128541249Y-107486748D01*
X128516154Y-107448954D01*
X128470016Y-107421314D01*
X128401160Y-107400901D01*
X128398259Y-107400272D01*
X128324926Y-107388510D01*
X128234460Y-107380133D01*
X128132119Y-107375078D01*
X128023165Y-107373282D01*
X127912856Y-107374682D01*
X127806453Y-107379214D01*
X127709215Y-107386815D01*
X127626404Y-107397422D01*
X127563278Y-107410972D01*
X127559443Y-107412132D01*
X127519118Y-107432678D01*
X127493857Y-107466126D01*
X127482121Y-107515786D01*
X127255692Y-107515786D01*
X127248554Y-107418774D01*
X127210152Y-107402721D01*
X127178183Y-107385315D01*
X127174944Y-107382621D01*
X127366361Y-107382621D01*
X127366812Y-107412758D01*
X127370486Y-107444279D01*
X127380065Y-107463542D01*
X127398142Y-107478357D01*
X127398713Y-107478730D01*
X127421710Y-107491736D01*
X127433043Y-107494341D01*
X127434230Y-107492168D01*
X127443309Y-107473311D01*
X127457288Y-107442985D01*
X127462888Y-107431634D01*
X127486921Y-107399391D01*
X127521812Y-107376140D01*
X127572295Y-107359432D01*
X127643103Y-107346818D01*
X127714323Y-107338253D01*
X127834679Y-107328698D01*
X127957739Y-107324306D01*
X128079568Y-107324864D01*
X128196232Y-107330163D01*
X128303795Y-107339990D01*
X128398324Y-107354135D01*
X128475882Y-107372386D01*
X128532536Y-107394533D01*
X128532905Y-107394733D01*
X128557899Y-107417317D01*
X128577876Y-107449706D01*
X128594481Y-107489501D01*
X128973485Y-107481965D01*
X128992446Y-107445300D01*
X129000813Y-107431392D01*
X129025785Y-107405231D01*
X129062320Y-107383885D01*
X129113125Y-107366551D01*
X129180907Y-107352421D01*
X129268374Y-107340692D01*
X129378233Y-107330558D01*
X129384794Y-107330056D01*
X129474306Y-107325602D01*
X129572495Y-107324443D01*
X129673740Y-107326318D01*
X129772419Y-107330971D01*
X129862911Y-107338142D01*
X129939595Y-107347574D01*
X129996849Y-107359007D01*
X130011989Y-107363835D01*
X130061419Y-107390015D01*
X130100350Y-107426059D01*
X130121541Y-107465766D01*
X130121583Y-107465933D01*
X130132247Y-107490597D01*
X130148042Y-107492224D01*
X130172107Y-107471147D01*
X130172599Y-107470599D01*
X130180894Y-107458732D01*
X130186548Y-107442250D01*
X130189870Y-107417059D01*
X130191169Y-107379064D01*
X130190754Y-107324171D01*
X130188935Y-107248285D01*
X130187935Y-107213175D01*
X130185555Y-107146575D01*
X130182497Y-107097875D01*
X130177988Y-107062020D01*
X130171254Y-107033958D01*
X130161522Y-107008635D01*
X130148018Y-106980999D01*
X130106511Y-106905484D01*
X130033153Y-106796822D01*
X129953708Y-106710104D01*
X129865932Y-106643421D01*
X129767583Y-106594864D01*
X129656418Y-106562523D01*
X129655842Y-106562402D01*
X129609889Y-106553439D01*
X129582188Y-106550565D01*
X129566684Y-106553825D01*
X129557315Y-106563265D01*
X129537089Y-106592060D01*
X129510826Y-106619386D01*
X129480474Y-106634380D01*
X129436939Y-106643070D01*
X129432364Y-106643695D01*
X129369555Y-106649264D01*
X129288750Y-106652436D01*
X129196359Y-106653295D01*
X129098793Y-106651924D01*
X129002462Y-106648407D01*
X128913777Y-106642828D01*
X128839150Y-106635270D01*
X128729781Y-106617864D01*
X128579124Y-106585450D01*
X128424419Y-106543838D01*
X128272954Y-106495219D01*
X128132019Y-106441785D01*
X128008902Y-106385725D01*
X127988014Y-106375187D01*
X127955905Y-106359966D01*
X127939015Y-106355171D01*
X127932463Y-106360055D01*
X127931364Y-106373873D01*
X127924917Y-106401332D01*
X127907361Y-106443677D01*
X127881931Y-106494589D01*
X127851860Y-106547993D01*
X127820386Y-106597812D01*
X127790742Y-106637970D01*
X127788871Y-106640202D01*
X127750126Y-106681314D01*
X127701357Y-106726576D01*
X127652656Y-106766591D01*
X127641843Y-106774902D01*
X127576031Y-106833324D01*
X127522091Y-106898082D01*
X127477171Y-106973868D01*
X127438419Y-107065375D01*
X127402981Y-107177296D01*
X127400073Y-107187834D01*
X127382359Y-107261984D01*
X127370614Y-107329757D01*
X127366361Y-107382621D01*
X127174944Y-107382621D01*
X127153830Y-107365062D01*
X127132146Y-107345447D01*
X127100682Y-107325238D01*
X127080318Y-107316126D01*
X127063751Y-107316275D01*
X127044598Y-107328987D01*
X127015446Y-107357026D01*
X126996728Y-107377575D01*
X126960327Y-107425403D01*
X126930780Y-107473378D01*
X126921232Y-107492296D01*
X126908000Y-107524503D01*
X126900424Y-107557659D01*
X126897007Y-107599811D01*
X126896252Y-107659002D01*
X126784082Y-107659002D01*
X126789175Y-107584019D01*
X126802247Y-107526919D01*
X126828013Y-107454898D01*
X126861488Y-107384799D01*
X126898948Y-107324272D01*
X126936670Y-107280965D01*
X126945976Y-107272675D01*
X126967190Y-107250325D01*
X126972765Y-107232698D01*
X126966146Y-107211697D01*
X126956287Y-107177803D01*
X126952026Y-107137824D01*
X126950520Y-107118643D01*
X126941920Y-107074593D01*
X126928237Y-107028554D01*
X126924426Y-107017711D01*
X126892272Y-106908456D01*
X126863925Y-106780656D01*
X126840118Y-106640051D01*
X126821586Y-106492385D01*
X126809064Y-106343399D01*
X126803284Y-106198837D01*
X126804981Y-106064439D01*
X126806136Y-106041681D01*
X126820766Y-105890280D01*
X126846533Y-105743343D01*
X126882182Y-105605842D01*
X126926456Y-105482750D01*
X126978101Y-105379041D01*
X126993958Y-105354231D01*
X127047635Y-105284508D01*
X127114801Y-105211305D01*
X127189238Y-105140678D01*
X127264726Y-105078685D01*
X127335048Y-105031382D01*
X127378156Y-105004853D01*
X127430100Y-104965769D01*
X127459902Y-104931898D01*
X127468690Y-104917657D01*
X127528582Y-104841976D01*
X127608076Y-104767354D01*
X127702660Y-104696876D01*
X127807820Y-104633626D01*
X127919041Y-104580689D01*
X128031809Y-104541149D01*
X128105580Y-104523701D01*
X128214437Y-104505978D01*
X128337923Y-104492634D01*
X128470424Y-104483913D01*
X128606326Y-104480056D01*
X128740016Y-104481309D01*
X128865881Y-104487913D01*
X128978307Y-104500114D01*
X129055890Y-104512552D01*
X129296803Y-104567091D01*
X129527527Y-104644427D01*
X129749156Y-104744969D01*
X129962783Y-104869128D01*
X129963471Y-104869574D01*
X130039904Y-104921097D01*
X130107963Y-104971866D01*
X130172322Y-105026059D01*
X130237656Y-105087856D01*
X130308640Y-105161435D01*
X130389948Y-105250975D01*
X130394128Y-105255669D01*
X130470818Y-105340283D01*
X130534943Y-105407557D01*
X130589149Y-105459911D01*
X130636081Y-105499764D01*
X130678386Y-105529536D01*
X130718709Y-105551646D01*
X130736036Y-105560565D01*
X130772513Y-105583626D01*
X130796903Y-105604866D01*
X130815567Y-105643090D01*
X130815381Y-105688647D01*
X130795802Y-105732203D01*
X130758445Y-105766955D01*
X130731103Y-105783994D01*
X130709837Y-105797684D01*
X130705373Y-105803608D01*
X130701964Y-105821726D01*
X130702017Y-105854361D01*
X130705586Y-105904956D01*
X130712726Y-105976955D01*
X130712924Y-105978813D01*
X130719896Y-106059251D01*
X130725664Y-106152990D01*
X130729634Y-106248534D01*
X130731212Y-106334385D01*
X130731562Y-106374641D01*
X130734712Y-106468012D01*
X130740893Y-106543700D01*
X130749847Y-106598053D01*
X130757651Y-106633005D01*
X130765335Y-106674762D01*
X130768485Y-106702602D01*
X130768384Y-106705804D01*
X130756370Y-106737454D01*
X130729944Y-106769838D01*
X130697029Y-106795059D01*
X130665546Y-106805220D01*
X130660067Y-106805429D01*
X130649446Y-106808680D01*
X130640176Y-106818662D01*
X130630823Y-106838916D01*
X130619952Y-106872979D01*
X130606129Y-106924392D01*
X130587918Y-106996693D01*
X130578251Y-107035392D01*
X130562543Y-107097602D01*
X130549379Y-107148893D01*
X130539915Y-107184777D01*
X130535309Y-107200768D01*
X130538191Y-107209931D01*
X130555999Y-107231197D01*
X130585148Y-107257252D01*
X130638998Y-107309141D01*
X130699331Y-107395370D01*
X130744835Y-107498210D01*
X130763523Y-107577373D01*
X130764410Y-107596736D01*
X130768261Y-107680845D01*
X130753574Y-107783824D01*
X130720005Y-107877996D01*
X130673965Y-107957910D01*
X130602618Y-108043333D01*
X130517659Y-108107889D01*
X130418064Y-108152315D01*
X130302805Y-108177347D01*
X130266110Y-108182189D01*
X130224377Y-108189191D01*
X130199157Y-108196867D01*
X130185219Y-108207064D01*
X130177336Y-108221625D01*
X130174282Y-108229225D01*
X130150734Y-108277050D01*
X130116384Y-108336545D01*
X130075362Y-108401149D01*
X130031802Y-108464298D01*
X129989834Y-108519431D01*
X129967689Y-108546095D01*
X129902751Y-108617104D01*
X129833874Y-108680552D01*
X129756103Y-108740365D01*
X129664487Y-108800470D01*
X129554070Y-108864793D01*
X129425268Y-108936623D01*
X129494107Y-108970303D01*
X129522461Y-108986179D01*
X129568767Y-109019066D01*
X129604524Y-109052557D01*
X129608401Y-109057175D01*
X129620465Y-109074333D01*
X129650197Y-109116617D01*
X129696170Y-109197724D01*
G37*
G36*
X127780697Y-109831123D02*
G01*
X127779790Y-109837769D01*
X127772326Y-109839493D01*
X127770823Y-109837653D01*
X127772326Y-109822752D01*
X127776103Y-109820788D01*
X127780697Y-109831123D01*
G37*
G36*
X128120861Y-108293066D02*
G01*
X128145573Y-108300013D01*
X128155429Y-108324449D01*
X128160662Y-108347071D01*
X128171341Y-108369942D01*
X128180476Y-108377171D01*
X128216042Y-108390503D01*
X128272058Y-108402175D01*
X128345440Y-108412059D01*
X128433106Y-108420030D01*
X128531974Y-108425961D01*
X128638961Y-108429725D01*
X128750986Y-108431197D01*
X128864965Y-108430250D01*
X128977817Y-108426757D01*
X129086459Y-108420593D01*
X129187809Y-108411629D01*
X129253150Y-108403511D01*
X129309621Y-108392873D01*
X129347409Y-108379854D01*
X129369986Y-108363197D01*
X129380827Y-108341642D01*
X129380904Y-108341336D01*
X129393144Y-108317953D01*
X129416509Y-108314217D01*
X129427920Y-108316941D01*
X129440976Y-108330378D01*
X129444315Y-108360761D01*
X129444009Y-108369759D01*
X129437413Y-108397623D01*
X129420360Y-108420299D01*
X129390408Y-108438659D01*
X129345114Y-108453576D01*
X129282036Y-108465923D01*
X129198731Y-108476573D01*
X129092758Y-108486399D01*
X129057832Y-108489007D01*
X128938304Y-108494796D01*
X128808547Y-108497055D01*
X128674429Y-108495953D01*
X128541820Y-108491655D01*
X128416588Y-108484330D01*
X128304602Y-108474145D01*
X128211731Y-108461268D01*
X128156281Y-108447113D01*
X128112210Y-108421997D01*
X128088870Y-108386068D01*
X128084559Y-108337674D01*
X128088045Y-108312816D01*
X128098122Y-108296789D01*
X128119698Y-108293060D01*
X128120861Y-108293066D01*
G37*
G36*
X129585046Y-107423490D02*
G01*
X129672706Y-107425830D01*
X129769856Y-107429671D01*
X129842819Y-107434321D01*
X129892122Y-107439815D01*
X129918289Y-107446190D01*
X129939212Y-107460110D01*
X129952420Y-107488666D01*
X129942691Y-107524506D01*
X129910128Y-107566090D01*
X129887027Y-107588077D01*
X129862482Y-107605045D01*
X129844306Y-107605024D01*
X129826956Y-107589578D01*
X129820461Y-107579678D01*
X129821555Y-107562970D01*
X129840162Y-107539356D01*
X129869305Y-107508335D01*
X129826311Y-107508196D01*
X129782597Y-107505883D01*
X129737504Y-107500482D01*
X129728943Y-107499124D01*
X129702249Y-107498125D01*
X129685947Y-107509331D01*
X129670156Y-107538287D01*
X129665363Y-107548303D01*
X129652785Y-107573623D01*
X129646913Y-107583857D01*
X129644761Y-107584522D01*
X129626118Y-107591013D01*
X129594982Y-107602140D01*
X129592217Y-107603136D01*
X129556656Y-107615337D01*
X129533474Y-107619340D01*
X129511988Y-107615236D01*
X129481518Y-107603117D01*
X129481203Y-107602985D01*
X129442684Y-107577265D01*
X129411625Y-107540339D01*
X129398125Y-107519818D01*
X129375930Y-107500751D01*
X129346578Y-107495779D01*
X129315612Y-107501577D01*
X129279130Y-107522733D01*
X129267033Y-107533338D01*
X129248295Y-107541995D01*
X129231238Y-107533751D01*
X129225783Y-107528887D01*
X129213590Y-107507988D01*
X129221040Y-107484058D01*
X129249183Y-107452332D01*
X129286331Y-107416743D01*
X129585046Y-107423490D01*
G37*
G36*
X117447429Y-110032012D02*
G01*
X116995427Y-110032012D01*
X116995427Y-109542344D01*
X117447429Y-109542344D01*
X117447429Y-110032012D01*
G37*
G36*
X128300527Y-107449465D02*
G01*
X128324420Y-107478778D01*
X128331730Y-107507800D01*
X128316085Y-107531973D01*
X128311934Y-107534979D01*
X128293346Y-107537049D01*
X128267021Y-107520955D01*
X128248610Y-107508451D01*
X128206349Y-107495154D01*
X128169254Y-107505115D01*
X128140379Y-107537923D01*
X128138933Y-107540511D01*
X128111400Y-107574884D01*
X128077885Y-107600321D01*
X128054394Y-107609557D01*
X128000612Y-107614723D01*
X127948323Y-107601735D01*
X127904573Y-107573019D01*
X127876408Y-107530997D01*
X127862308Y-107493549D01*
X127780697Y-107502180D01*
X127740221Y-107507026D01*
X127708131Y-107512012D01*
X127693931Y-107515774D01*
X127695658Y-107524644D01*
X127709625Y-107543774D01*
X127723264Y-107561587D01*
X127728669Y-107585623D01*
X127710731Y-107601113D01*
X127687870Y-107602938D01*
X127653486Y-107585666D01*
X127618347Y-107547228D01*
X127612140Y-107538180D01*
X127594955Y-107502029D01*
X127598801Y-107474392D01*
X127623950Y-107450550D01*
X127636327Y-107444340D01*
X127656199Y-107438851D01*
X127685682Y-107434490D01*
X127727876Y-107431010D01*
X127785881Y-107428159D01*
X127862797Y-107425690D01*
X127961723Y-107423351D01*
X128267910Y-107416849D01*
X128300527Y-107449465D01*
G37*
G36*
X121113667Y-108500228D02*
G01*
X120812333Y-108500228D01*
X120812333Y-109693011D01*
X121113667Y-109693011D01*
X121113667Y-110032012D01*
X120033885Y-110032012D01*
X120033885Y-109693011D01*
X120335220Y-109693011D01*
X120335220Y-108500228D01*
X120033885Y-108500228D01*
X120033885Y-108161226D01*
X121113667Y-108161226D01*
X121113667Y-108500228D01*
G37*
G36*
X128471255Y-109184509D02*
G01*
X128464977Y-109190786D01*
X128458700Y-109184509D01*
X128464977Y-109178231D01*
X128471255Y-109184509D01*
G37*
G36*
X112814409Y-107257222D02*
G01*
X112814409Y-107143987D01*
X112189767Y-107147244D01*
X111565126Y-107150500D01*
X111557404Y-107257222D01*
X111383069Y-107257222D01*
X111383069Y-106993555D01*
X111558177Y-106993555D01*
X112814409Y-106993555D01*
X112814409Y-106616652D01*
X112189767Y-106619908D01*
X111565126Y-106623164D01*
X111561651Y-106808359D01*
X111558177Y-106993555D01*
X111383069Y-106993555D01*
X111383069Y-106466219D01*
X112990187Y-106466219D01*
X112990187Y-107257222D01*
X112814409Y-107257222D01*
G37*
G36*
X116826968Y-104937054D02*
G01*
X116853460Y-104966392D01*
X116874402Y-104992397D01*
X116882427Y-105006381D01*
X116882085Y-105007428D01*
X116869495Y-105021304D01*
X116841451Y-105046754D01*
X116801635Y-105080543D01*
X116753732Y-105119437D01*
X116700562Y-105162247D01*
X116645493Y-105207496D01*
X116597232Y-105248034D01*
X116562259Y-105278475D01*
X116529676Y-105306851D01*
X116503747Y-105327545D01*
X116490567Y-105335651D01*
X116488422Y-105335041D01*
X116472151Y-105322437D01*
X116446702Y-105297941D01*
X116417487Y-105267358D01*
X116389919Y-105236491D01*
X116369408Y-105211143D01*
X116361369Y-105197117D01*
X116369330Y-105186670D01*
X116394004Y-105163659D01*
X116431736Y-105131450D01*
X116478797Y-105093034D01*
X116531456Y-105051401D01*
X116585982Y-105009542D01*
X116638646Y-104970447D01*
X116685717Y-104937105D01*
X116771509Y-104878357D01*
X116826968Y-104937054D01*
G37*
G36*
X129792901Y-109890452D02*
G01*
X129791716Y-109910930D01*
X129788546Y-109921946D01*
X129783831Y-109929535D01*
X129779414Y-109914051D01*
X129778924Y-109911758D01*
X129772751Y-109898215D01*
X129762256Y-109907773D01*
X129761493Y-109908861D01*
X129753014Y-109918908D01*
X129754791Y-109907553D01*
X129759101Y-109899216D01*
X129779334Y-109886916D01*
X129792901Y-109890452D01*
G37*
G36*
X127905338Y-107052922D02*
G01*
X127999207Y-107061229D01*
X128082910Y-107076824D01*
X128163590Y-107101027D01*
X128248393Y-107135155D01*
X128250471Y-107136080D01*
X128300431Y-107161564D01*
X128327544Y-107182943D01*
X128331296Y-107199596D01*
X128311171Y-107210901D01*
X128302206Y-107212977D01*
X128240072Y-107217897D01*
X128168954Y-107211185D01*
X128099691Y-107193721D01*
X128047225Y-107176586D01*
X127966870Y-107153246D01*
X127881013Y-107130867D01*
X127796973Y-107111234D01*
X127722066Y-107096131D01*
X127663610Y-107087343D01*
X127655948Y-107086513D01*
X127612496Y-107080183D01*
X127591728Y-107073144D01*
X127591503Y-107064725D01*
X127609583Y-107059046D01*
X127650410Y-107054636D01*
X127711435Y-107051761D01*
X127790201Y-107050595D01*
X127794160Y-107050586D01*
X127905338Y-107052922D01*
G37*
G36*
X123235566Y-105147880D02*
G01*
X122444562Y-105147880D01*
X122413245Y-105147887D01*
X122276395Y-105148095D01*
X122147713Y-105148572D01*
X122029319Y-105149291D01*
X121923330Y-105150228D01*
X121831863Y-105151358D01*
X121757036Y-105152655D01*
X121700967Y-105154093D01*
X121665773Y-105155649D01*
X121653573Y-105157297D01*
X121660390Y-105164117D01*
X121685328Y-105184385D01*
X121726361Y-105216173D01*
X121781172Y-105257728D01*
X121847448Y-105307299D01*
X121922873Y-105363132D01*
X122005131Y-105423473D01*
X122356673Y-105680233D01*
X122356673Y-105938883D01*
X123499233Y-105938883D01*
X123499233Y-106114662D01*
X122356673Y-106114662D01*
X122356673Y-106517065D01*
X122356675Y-106538547D01*
X122356860Y-106653815D01*
X122357642Y-106747034D01*
X122359436Y-106820829D01*
X122362656Y-106877823D01*
X122367716Y-106920644D01*
X122375032Y-106951915D01*
X122385017Y-106974261D01*
X122398085Y-106990308D01*
X122414653Y-107002681D01*
X122435132Y-107014005D01*
X122447035Y-107019471D01*
X122468363Y-107025738D01*
X122496891Y-107029427D01*
X122537086Y-107030796D01*
X122593413Y-107030104D01*
X122670338Y-107027610D01*
X122707183Y-107026114D01*
X122772239Y-107022853D01*
X122826759Y-107019321D01*
X122865890Y-107015856D01*
X122884776Y-107012792D01*
X122890938Y-107011180D01*
X122897049Y-107015159D01*
X122898610Y-107031009D01*
X122895786Y-107063035D01*
X122888742Y-107115538D01*
X122885476Y-107138543D01*
X122878972Y-107184124D01*
X122874292Y-107216599D01*
X122872280Y-107230088D01*
X122871580Y-107230380D01*
X122854210Y-107231350D01*
X122816337Y-107231805D01*
X122761711Y-107231747D01*
X122694082Y-107231174D01*
X122617202Y-107230088D01*
X122600236Y-107229801D01*
X122517044Y-107228156D01*
X122454192Y-107226191D01*
X122407621Y-107223471D01*
X122373273Y-107219558D01*
X122347088Y-107214016D01*
X122325007Y-107206408D01*
X122302970Y-107196298D01*
X122264000Y-107173112D01*
X122207497Y-107117742D01*
X122167520Y-107043777D01*
X122167289Y-107043162D01*
X122162383Y-107022869D01*
X122158251Y-106989561D01*
X122154804Y-106941223D01*
X122151954Y-106875838D01*
X122149610Y-106791392D01*
X122147686Y-106685866D01*
X122146091Y-106557247D01*
X122141505Y-106114662D01*
X121063445Y-106114662D01*
X121063445Y-105938883D01*
X122143227Y-105938883D01*
X122143227Y-105765834D01*
X121735170Y-105466410D01*
X121327113Y-105166987D01*
X121327113Y-104972101D01*
X123235566Y-104972101D01*
X123235566Y-105147880D01*
G37*
G36*
X128854013Y-107640655D02*
G01*
X128861161Y-107653600D01*
X128866366Y-107679140D01*
X128870444Y-107721446D01*
X128874208Y-107784689D01*
X128877698Y-107835447D01*
X128883813Y-107893423D01*
X128891087Y-107940216D01*
X128898599Y-107968868D01*
X128902912Y-107980466D01*
X128906038Y-108025267D01*
X128884897Y-108063868D01*
X128839419Y-108096425D01*
X128828213Y-108101792D01*
X128796567Y-108112997D01*
X128776111Y-108114486D01*
X128770770Y-108111530D01*
X128760708Y-108092099D01*
X128764833Y-108068315D01*
X128782006Y-108052201D01*
X128797328Y-108045064D01*
X128825009Y-108026391D01*
X128829992Y-108021925D01*
X128839012Y-108008495D01*
X128837803Y-107989473D01*
X128826559Y-107956105D01*
X128823197Y-107945648D01*
X128814001Y-107897784D01*
X128808169Y-107836886D01*
X128806081Y-107772113D01*
X128808115Y-107712625D01*
X128814647Y-107667584D01*
X128825780Y-107642856D01*
X128845233Y-107636326D01*
X128854013Y-107640655D01*
G37*
G36*
X128586610Y-109182210D02*
G01*
X128592421Y-109186729D01*
X128579024Y-109189795D01*
X128566289Y-109188907D01*
X128562545Y-109183201D01*
X128566987Y-109180713D01*
X128586610Y-109182210D01*
G37*
G36*
X129073924Y-109209620D02*
G01*
X129067647Y-109215898D01*
X129061369Y-109209620D01*
X129067647Y-109203342D01*
X129073924Y-109209620D01*
G37*
G36*
X129748324Y-107045745D02*
G01*
X129807941Y-107047741D01*
X129863449Y-107051338D01*
X129909598Y-107056200D01*
X129941137Y-107061990D01*
X129952817Y-107068373D01*
X129950028Y-107070898D01*
X129928447Y-107077573D01*
X129890164Y-107085185D01*
X129840756Y-107092530D01*
X129831904Y-107093753D01*
X129773661Y-107104351D01*
X129701518Y-107120545D01*
X129623801Y-107140359D01*
X129548838Y-107161816D01*
X129473725Y-107183748D01*
X129390074Y-107204515D01*
X129323358Y-107215716D01*
X129270199Y-107217873D01*
X129227217Y-107211508D01*
X129206464Y-107201687D01*
X129206163Y-107187073D01*
X129228926Y-107167378D01*
X129275321Y-107141783D01*
X129326210Y-107119444D01*
X129424751Y-107086723D01*
X129531326Y-107062021D01*
X129635425Y-107048071D01*
X129637765Y-107047895D01*
X129689849Y-107045684D01*
X129748324Y-107045745D01*
G37*
G36*
X112431986Y-108586919D02*
G01*
X112441441Y-108588787D01*
X112513921Y-108610328D01*
X112594312Y-108644274D01*
X112673603Y-108686404D01*
X112742781Y-108732496D01*
X112801853Y-108777602D01*
X112801853Y-108625784D01*
X113253855Y-108625784D01*
X113253855Y-110032012D01*
X112801853Y-110032012D01*
X112801853Y-109018725D01*
X112716101Y-108979200D01*
X112675873Y-108962667D01*
X112593285Y-108941399D01*
X112516863Y-108938375D01*
X112449847Y-108953103D01*
X112395476Y-108985089D01*
X112356991Y-109033841D01*
X112356475Y-109034843D01*
X112349874Y-109048864D01*
X112344486Y-109064407D01*
X112340160Y-109084091D01*
X112336747Y-109110540D01*
X112334098Y-109146372D01*
X112332062Y-109194210D01*
X112330490Y-109256674D01*
X112329233Y-109336387D01*
X112328141Y-109435967D01*
X112327064Y-109558038D01*
X112323110Y-110032012D01*
X111872738Y-110032012D01*
X111872738Y-109016855D01*
X111800543Y-108981434D01*
X111752454Y-108961010D01*
X111699235Y-108947922D01*
X111634181Y-108942206D01*
X111626517Y-108941934D01*
X111553066Y-108944849D01*
X111498080Y-108959922D01*
X111457437Y-108988979D01*
X111427014Y-109033841D01*
X111421032Y-109046847D01*
X111415634Y-109062594D01*
X111411280Y-109082490D01*
X111407827Y-109109156D01*
X111405127Y-109145211D01*
X111403035Y-109193276D01*
X111401406Y-109255971D01*
X111400093Y-109335916D01*
X111398950Y-109435732D01*
X111397832Y-109558038D01*
X111393761Y-110032012D01*
X110940971Y-110032012D01*
X110947027Y-109501538D01*
X110947487Y-109461726D01*
X110949151Y-109330958D01*
X110950975Y-109221987D01*
X110953219Y-109132209D01*
X110956138Y-109059020D01*
X110959991Y-108999816D01*
X110965035Y-108951994D01*
X110971527Y-108912950D01*
X110979725Y-108880080D01*
X110989886Y-108850781D01*
X111002267Y-108822448D01*
X111017127Y-108792479D01*
X111049822Y-108740552D01*
X111114174Y-108674930D01*
X111193805Y-108625132D01*
X111285051Y-108592760D01*
X111384249Y-108579416D01*
X111487737Y-108586701D01*
X111522769Y-108594689D01*
X111599943Y-108621522D01*
X111684414Y-108660619D01*
X111769134Y-108708545D01*
X111847060Y-108761865D01*
X111928105Y-108823478D01*
X111961406Y-108770968D01*
X111984362Y-108738910D01*
X112051807Y-108673539D01*
X112134466Y-108624022D01*
X112228165Y-108591991D01*
X112328729Y-108579079D01*
X112431986Y-108586919D01*
G37*
G36*
X115111595Y-109485330D02*
G01*
X115078937Y-109617173D01*
X115026560Y-109734577D01*
X114955290Y-109836562D01*
X114865954Y-109922150D01*
X114759378Y-109990361D01*
X114636387Y-110040216D01*
X114497807Y-110070736D01*
X114496138Y-110070967D01*
X114429547Y-110075881D01*
X114348116Y-110075746D01*
X114261211Y-110071059D01*
X114178200Y-110062318D01*
X114108448Y-110050022D01*
X114009623Y-110019575D01*
X113896946Y-109962708D01*
X113799468Y-109886524D01*
X113718385Y-109792215D01*
X113654895Y-109680973D01*
X113610198Y-109553992D01*
X113602792Y-109518986D01*
X113593367Y-109440261D01*
X113589653Y-109355888D01*
X114052068Y-109355888D01*
X114053239Y-109428649D01*
X114056834Y-109483533D01*
X114063349Y-109526016D01*
X114073283Y-109561575D01*
X114079155Y-109577211D01*
X114117385Y-109648019D01*
X114168008Y-109705804D01*
X114226027Y-109744579D01*
X114249513Y-109753905D01*
X114325235Y-109768882D01*
X114402767Y-109764785D01*
X114476315Y-109743081D01*
X114540086Y-109705239D01*
X114588289Y-109652728D01*
X114603332Y-109628265D01*
X114624461Y-109585546D01*
X114638961Y-109539729D01*
X114647943Y-109485335D01*
X114652512Y-109416884D01*
X114653778Y-109328898D01*
X114653389Y-109284590D01*
X114649038Y-109195698D01*
X114638872Y-109124875D01*
X114621662Y-109067411D01*
X114596181Y-109018594D01*
X114561201Y-108973713D01*
X114533517Y-108945877D01*
X114484728Y-108912385D01*
X114428132Y-108894721D01*
X114356013Y-108889728D01*
X114307870Y-108892395D01*
X114232274Y-108910857D01*
X114170880Y-108948317D01*
X114121331Y-109006469D01*
X114081268Y-109087007D01*
X114079578Y-109091371D01*
X114068067Y-109125244D01*
X114060300Y-109159839D01*
X114055543Y-109201251D01*
X114053060Y-109255572D01*
X114052119Y-109328898D01*
X114052068Y-109355888D01*
X113589653Y-109355888D01*
X113589420Y-109350590D01*
X113590947Y-109258763D01*
X113597944Y-109173571D01*
X113610407Y-109103804D01*
X113643388Y-109003147D01*
X113702667Y-108888187D01*
X113780217Y-108790174D01*
X113875261Y-108709872D01*
X113987023Y-108648052D01*
X114114726Y-108605479D01*
X114153230Y-108597835D01*
X114237102Y-108588213D01*
X114331427Y-108584118D01*
X114427470Y-108585557D01*
X114516495Y-108592538D01*
X114589767Y-108605070D01*
X114647973Y-108621576D01*
X114769532Y-108673054D01*
X114874525Y-108742814D01*
X114962175Y-108829800D01*
X115031703Y-108932957D01*
X115082329Y-109051229D01*
X115113276Y-109183561D01*
X115123765Y-109328898D01*
X115123708Y-109340026D01*
X115111595Y-109485330D01*
G37*
G36*
X114943050Y-106709496D02*
G01*
X114965501Y-106728639D01*
X114993554Y-106757477D01*
X115041167Y-106810179D01*
X115005772Y-106835950D01*
X114985009Y-106851240D01*
X114947645Y-106878990D01*
X114900712Y-106913993D01*
X114849759Y-106952116D01*
X114849336Y-106952433D01*
X114802106Y-106987472D01*
X114762426Y-107016249D01*
X114734452Y-107035796D01*
X114722337Y-107043145D01*
X114712246Y-107036463D01*
X114689459Y-107016063D01*
X114659559Y-106986639D01*
X114603583Y-106929501D01*
X114634972Y-106905254D01*
X114658398Y-106887673D01*
X114700731Y-106857263D01*
X114749564Y-106823248D01*
X114800398Y-106788648D01*
X114848734Y-106756482D01*
X114890073Y-106729769D01*
X114919914Y-106711527D01*
X114933760Y-106704776D01*
X114943050Y-106709496D01*
G37*
G36*
X128542404Y-109182416D02*
G01*
X128544368Y-109186193D01*
X128534033Y-109190786D01*
X128527386Y-109189880D01*
X128525663Y-109182416D01*
X128527503Y-109180913D01*
X128542404Y-109182416D01*
G37*
G36*
X114069970Y-106516441D02*
G01*
X115338087Y-106516441D01*
X115338087Y-106667109D01*
X114069970Y-106667109D01*
X114069970Y-106982931D01*
X114107749Y-107020710D01*
X114145529Y-107058489D01*
X114353170Y-107054272D01*
X114420557Y-107052980D01*
X114478096Y-107052339D01*
X114516967Y-107052956D01*
X114540625Y-107055190D01*
X114552521Y-107059397D01*
X114556111Y-107065937D01*
X114554848Y-107075166D01*
X114552863Y-107084439D01*
X114546716Y-107118642D01*
X114540281Y-107159916D01*
X114531676Y-107219556D01*
X114308535Y-107219556D01*
X114295290Y-107219554D01*
X114218454Y-107219372D01*
X114161576Y-107218499D01*
X114120161Y-107216401D01*
X114089716Y-107212539D01*
X114065748Y-107206378D01*
X114043761Y-107197380D01*
X114019264Y-107185009D01*
X113984552Y-107165124D01*
X113953241Y-107140444D01*
X113930554Y-107110481D01*
X113915001Y-107071273D01*
X113905086Y-107018860D01*
X113899318Y-106949283D01*
X113896203Y-106858582D01*
X113891938Y-106667109D01*
X113492412Y-106667109D01*
X113492412Y-106516441D01*
X113894191Y-106516441D01*
X113894191Y-106365774D01*
X114069970Y-106365774D01*
X114069970Y-106516441D01*
G37*
G36*
X127730474Y-109981790D02*
G01*
X127729568Y-109988437D01*
X127722104Y-109990160D01*
X127720601Y-109988320D01*
X127722104Y-109973419D01*
X127725880Y-109971455D01*
X127730474Y-109981790D01*
G37*
G36*
X123775457Y-110032012D02*
G01*
X123323455Y-110032012D01*
X123323455Y-108625784D01*
X123775457Y-108625784D01*
X123775457Y-110032012D01*
G37*
G36*
X129224592Y-109109175D02*
G01*
X129218314Y-109115453D01*
X129212036Y-109109175D01*
X129218314Y-109102897D01*
X129224592Y-109109175D01*
G37*
G36*
X129107406Y-109107082D02*
G01*
X129109370Y-109110859D01*
X129099036Y-109115453D01*
X129092389Y-109114547D01*
X129090665Y-109107082D01*
X129092505Y-109105580D01*
X129107406Y-109107082D01*
G37*
G36*
X119889808Y-106029128D02*
G01*
X119865681Y-106101201D01*
X119834336Y-106184010D01*
X119799326Y-106268841D01*
X119764204Y-106346982D01*
X119732522Y-106409719D01*
X119706414Y-106454591D01*
X119655097Y-106534925D01*
X119595056Y-106621730D01*
X119531265Y-106707643D01*
X119504851Y-106741899D01*
X119609284Y-106809746D01*
X119647361Y-106833714D01*
X119756443Y-106896282D01*
X119876998Y-106958311D01*
X119999768Y-107015183D01*
X120115496Y-107062280D01*
X120156489Y-107077673D01*
X120201106Y-107094745D01*
X120232211Y-107107035D01*
X120244780Y-107112589D01*
X120244695Y-107113920D01*
X120235710Y-107129699D01*
X120215795Y-107159028D01*
X120188280Y-107196934D01*
X120128052Y-107277765D01*
X120030270Y-107236377D01*
X119955036Y-107203084D01*
X119804115Y-107128843D01*
X119654248Y-107046202D01*
X119517279Y-106961508D01*
X119503223Y-106952241D01*
X119452654Y-106919198D01*
X119411011Y-106892448D01*
X119382287Y-106874535D01*
X119370472Y-106867998D01*
X119368681Y-106868722D01*
X119351564Y-106879616D01*
X119320999Y-106900875D01*
X119282084Y-106928981D01*
X119255683Y-106948081D01*
X119105199Y-107047260D01*
X118942289Y-107138302D01*
X118760619Y-107224802D01*
X118693769Y-107254366D01*
X118618535Y-107164213D01*
X118543301Y-107074061D01*
X118663951Y-107032859D01*
X118684263Y-107025762D01*
X118754336Y-106999531D01*
X118825830Y-106970653D01*
X118886052Y-106944197D01*
X118920490Y-106927256D01*
X118976691Y-106897191D01*
X119036071Y-106863243D01*
X119093541Y-106828512D01*
X119144016Y-106796100D01*
X119182406Y-106769108D01*
X119203624Y-106750637D01*
X119206056Y-106740486D01*
X119197332Y-106720001D01*
X119174090Y-106687878D01*
X119134523Y-106641252D01*
X119114583Y-106618180D01*
X119039546Y-106523332D01*
X118968338Y-106421277D01*
X118902863Y-106315665D01*
X118845024Y-106210144D01*
X118796726Y-106108365D01*
X118759870Y-106013977D01*
X118742231Y-105951439D01*
X118939855Y-105951439D01*
X118948205Y-105979689D01*
X118952005Y-105991782D01*
X118975175Y-106052246D01*
X119007733Y-106124417D01*
X119046024Y-106200907D01*
X119086391Y-106274329D01*
X119125179Y-106337295D01*
X119139573Y-106358325D01*
X119185472Y-106420398D01*
X119235412Y-106482464D01*
X119280881Y-106533780D01*
X119363480Y-106620399D01*
X119426612Y-106540170D01*
X119429833Y-106536069D01*
X119524574Y-106405860D01*
X119600906Y-106278919D01*
X119662865Y-106147735D01*
X119714491Y-106004800D01*
X119731349Y-105951439D01*
X118939855Y-105951439D01*
X118742231Y-105951439D01*
X118736361Y-105930629D01*
X118728101Y-105861972D01*
X118728101Y-105788216D01*
X119255437Y-105788216D01*
X119255437Y-105411548D01*
X118589990Y-105411548D01*
X118589990Y-105235769D01*
X119255437Y-105235769D01*
X119255437Y-104833990D01*
X119443771Y-104833990D01*
X119443771Y-105235769D01*
X120084107Y-105235769D01*
X120084107Y-105411548D01*
X119443771Y-105411548D01*
X119443771Y-105788216D01*
X120084107Y-105788216D01*
X120084107Y-105951439D01*
X119911592Y-105951439D01*
X119895059Y-106011078D01*
X119889808Y-106029128D01*
G37*
G36*
X124682078Y-108823535D02*
G01*
X124685739Y-109485843D01*
X124719153Y-109557123D01*
X124750560Y-109610330D01*
X124802385Y-109661862D01*
X124869129Y-109696024D01*
X124952567Y-109713656D01*
X125054478Y-109715598D01*
X125099589Y-109711920D01*
X125186816Y-109693452D01*
X125255404Y-109659547D01*
X125307307Y-109608544D01*
X125344480Y-109538786D01*
X125368876Y-109448611D01*
X125372236Y-109418079D01*
X125375295Y-109362651D01*
X125377851Y-109284451D01*
X125379882Y-109184676D01*
X125381362Y-109064523D01*
X125382268Y-108925188D01*
X125382575Y-108767868D01*
X125382575Y-108161226D01*
X125859688Y-108161226D01*
X125859250Y-108792146D01*
X125859083Y-108907165D01*
X125858556Y-109045132D01*
X125857640Y-109161543D01*
X125856283Y-109258453D01*
X125854434Y-109337921D01*
X125852041Y-109402002D01*
X125849055Y-109452753D01*
X125845423Y-109492232D01*
X125841094Y-109522496D01*
X125840903Y-109523563D01*
X125807276Y-109646402D01*
X125753549Y-109754568D01*
X125680389Y-109847500D01*
X125588466Y-109924634D01*
X125478447Y-109985410D01*
X125351001Y-110029265D01*
X125206796Y-110055639D01*
X125193968Y-110057061D01*
X125009014Y-110066329D01*
X124835506Y-110053294D01*
X124673500Y-110017961D01*
X124615722Y-109999215D01*
X124533878Y-109964327D01*
X124463015Y-109920829D01*
X124394297Y-109863843D01*
X124355913Y-109825511D01*
X124300369Y-109753535D01*
X124258854Y-109671683D01*
X124227184Y-109572660D01*
X124223727Y-109558713D01*
X124218744Y-109535764D01*
X124214597Y-109510904D01*
X124211211Y-109481814D01*
X124208510Y-109446173D01*
X124206417Y-109401662D01*
X124204855Y-109345960D01*
X124203749Y-109276748D01*
X124203021Y-109191704D01*
X124202596Y-109088509D01*
X124202397Y-108964844D01*
X124202348Y-108818387D01*
X124202348Y-108161226D01*
X124678418Y-108161226D01*
X124682078Y-108823535D01*
G37*
G36*
X129789594Y-109856234D02*
G01*
X129788688Y-109862881D01*
X129781224Y-109864604D01*
X129779721Y-109862764D01*
X129781224Y-109847863D01*
X129785000Y-109845899D01*
X129789594Y-109856234D01*
G37*
G36*
X128986035Y-109184509D02*
G01*
X128979757Y-109190786D01*
X128973480Y-109184509D01*
X128979757Y-109178231D01*
X128986035Y-109184509D01*
G37*
G36*
X128567515Y-109257750D02*
G01*
X128569479Y-109261526D01*
X128559144Y-109266120D01*
X128552497Y-109265214D01*
X128550774Y-109257750D01*
X128552614Y-109256247D01*
X128567515Y-109257750D01*
G37*
G36*
X129839817Y-109988068D02*
G01*
X129833539Y-109994345D01*
X129827261Y-109988068D01*
X129833539Y-109981790D01*
X129839817Y-109988068D01*
G37*
G36*
X114973974Y-106415997D02*
G01*
X114973974Y-106215107D01*
X114521972Y-106215107D01*
X114521972Y-106378330D01*
X114347392Y-106378330D01*
X114343654Y-106299857D01*
X114339916Y-106221385D01*
X114110776Y-106217962D01*
X113881636Y-106214540D01*
X113881636Y-106365774D01*
X113705857Y-106365774D01*
X113705857Y-106076995D01*
X113881636Y-106076995D01*
X114973974Y-106076995D01*
X114973974Y-105901216D01*
X114521972Y-105901216D01*
X114521972Y-106076995D01*
X114347341Y-106076995D01*
X114343628Y-105992245D01*
X114339916Y-105907494D01*
X113881636Y-105900650D01*
X113881636Y-106076995D01*
X113705857Y-106076995D01*
X113705857Y-105763105D01*
X113881636Y-105763105D01*
X114973974Y-105763105D01*
X114973974Y-105587326D01*
X114521972Y-105587326D01*
X114521972Y-105763105D01*
X114346193Y-105763105D01*
X114346193Y-105587326D01*
X113881636Y-105587326D01*
X113881636Y-105763105D01*
X113705857Y-105763105D01*
X113705857Y-105436659D01*
X114346193Y-105436659D01*
X114346193Y-105273436D01*
X113555190Y-105273436D01*
X113555190Y-105122769D01*
X114346193Y-105122769D01*
X114346193Y-104833990D01*
X114521972Y-104833990D01*
X114521972Y-105122769D01*
X115275309Y-105122769D01*
X115275309Y-105273436D01*
X114521972Y-105273436D01*
X114521972Y-105436659D01*
X115149752Y-105436659D01*
X115149752Y-106415997D01*
X114973974Y-106415997D01*
G37*
G36*
X117334429Y-105436659D02*
G01*
X118401656Y-105436659D01*
X118401656Y-105612437D01*
X117916921Y-105612437D01*
X117901090Y-105612438D01*
X117780776Y-105612509D01*
X117683028Y-105612773D01*
X117605569Y-105613334D01*
X117546125Y-105614298D01*
X117502418Y-105615769D01*
X117472174Y-105617853D01*
X117453115Y-105620654D01*
X117442966Y-105624277D01*
X117439451Y-105628827D01*
X117440293Y-105634410D01*
X117444680Y-105644833D01*
X117465037Y-105683907D01*
X117496375Y-105737462D01*
X117535993Y-105801292D01*
X117581191Y-105871188D01*
X117629267Y-105942945D01*
X117677522Y-106012355D01*
X117723254Y-106075211D01*
X117763456Y-106126978D01*
X117842896Y-106221951D01*
X117933258Y-106322892D01*
X118029467Y-106424501D01*
X118126450Y-106521475D01*
X118219132Y-106608514D01*
X118302439Y-106680317D01*
X118345027Y-106714904D01*
X118390413Y-106751835D01*
X118426924Y-106781621D01*
X118449243Y-106799931D01*
X118480793Y-106826030D01*
X118414967Y-106909792D01*
X118403215Y-106924609D01*
X118374259Y-106959847D01*
X118352614Y-106984361D01*
X118342268Y-106993555D01*
X118329447Y-106987929D01*
X118300034Y-106966446D01*
X118258262Y-106931327D01*
X118206819Y-106885169D01*
X118148389Y-106830567D01*
X118085659Y-106770117D01*
X118021314Y-106706413D01*
X117958040Y-106642052D01*
X117898522Y-106579629D01*
X117845448Y-106521738D01*
X117801502Y-106470977D01*
X117722038Y-106370574D01*
X117606154Y-106207663D01*
X117497421Y-106035536D01*
X117401991Y-105863550D01*
X117340706Y-105744271D01*
X117337470Y-106507025D01*
X117334234Y-107269778D01*
X117146289Y-107269778D01*
X117143053Y-106507025D01*
X117139817Y-105744271D01*
X117055697Y-105904494D01*
X116976037Y-106048084D01*
X116830226Y-106275860D01*
X116670619Y-106485109D01*
X116498717Y-106673758D01*
X116462091Y-106709341D01*
X116410165Y-106757253D01*
X116355130Y-106805840D01*
X116300568Y-106852138D01*
X116250059Y-106893183D01*
X116207187Y-106926012D01*
X116175531Y-106947659D01*
X116158675Y-106955161D01*
X116154507Y-106952768D01*
X116136470Y-106935253D01*
X116109131Y-106904512D01*
X116076572Y-106865027D01*
X116005221Y-106775618D01*
X116076572Y-106731672D01*
X116210952Y-106641417D01*
X116386382Y-106500064D01*
X116552996Y-106338368D01*
X116708263Y-106158840D01*
X116849652Y-105963995D01*
X116852348Y-105959917D01*
X116889207Y-105902629D01*
X116926992Y-105841465D01*
X116963298Y-105780601D01*
X116995720Y-105724212D01*
X117021856Y-105676472D01*
X117039301Y-105641556D01*
X117045650Y-105623639D01*
X117045521Y-105623367D01*
X117030953Y-105620797D01*
X116993923Y-105618472D01*
X116936835Y-105616446D01*
X116862092Y-105614775D01*
X116772100Y-105613513D01*
X116669261Y-105612715D01*
X116555981Y-105612437D01*
X116066312Y-105612437D01*
X116066312Y-105436659D01*
X117146094Y-105436659D01*
X117146094Y-104833990D01*
X117334429Y-104833990D01*
X117334429Y-105436659D01*
G37*
G36*
X123788012Y-108412339D02*
G01*
X123310899Y-108412339D01*
X123310899Y-108073337D01*
X123788012Y-108073337D01*
X123788012Y-108412339D01*
G37*
G36*
X128370810Y-109090342D02*
G01*
X128369904Y-109096988D01*
X128362440Y-109098712D01*
X128360937Y-109096872D01*
X128362440Y-109081971D01*
X128366216Y-109080007D01*
X128370810Y-109090342D01*
G37*
G36*
X112275576Y-104836904D02*
G01*
X112313488Y-104859288D01*
X112347477Y-104881533D01*
X112363057Y-104899875D01*
X112361671Y-104920050D01*
X112344759Y-104947795D01*
X112313765Y-104988846D01*
X112298753Y-105008227D01*
X112275049Y-105037747D01*
X112256450Y-105061780D01*
X112244774Y-105080882D01*
X112241838Y-105095610D01*
X112249462Y-105106521D01*
X112269462Y-105114171D01*
X112303657Y-105119118D01*
X112353865Y-105121916D01*
X112421905Y-105123124D01*
X112509593Y-105123298D01*
X112618748Y-105122994D01*
X112751189Y-105122769D01*
X113278966Y-105122769D01*
X113278966Y-105587326D01*
X113103188Y-105587326D01*
X113103188Y-105285992D01*
X111257513Y-105285992D01*
X111257513Y-105587326D01*
X111081735Y-105587326D01*
X111081735Y-105122769D01*
X112129679Y-105122769D01*
X112079681Y-105089444D01*
X112063380Y-105078539D01*
X112037249Y-105060853D01*
X112024771Y-105052097D01*
X112028624Y-105042147D01*
X112045272Y-105017058D01*
X112071550Y-104981417D01*
X112104057Y-104939694D01*
X112139389Y-104896358D01*
X112174144Y-104855879D01*
X112220135Y-104804054D01*
X112275576Y-104836904D01*
G37*
G36*
X114081295Y-104849768D02*
G01*
X114100004Y-104869036D01*
X114121509Y-104899907D01*
X114153931Y-104953268D01*
X114014644Y-105023698D01*
X114011454Y-105025309D01*
X113957250Y-105052244D01*
X113910856Y-105074500D01*
X113877112Y-105089807D01*
X113860856Y-105095893D01*
X113853975Y-105093480D01*
X113836637Y-105075668D01*
X113817073Y-105047008D01*
X113799715Y-105015149D01*
X113788996Y-104987743D01*
X113789346Y-104972441D01*
X113802882Y-104964223D01*
X113834698Y-104948303D01*
X113878452Y-104927836D01*
X113928372Y-104905372D01*
X113978687Y-104883460D01*
X114023625Y-104864652D01*
X114057413Y-104851497D01*
X114074281Y-104846545D01*
X114081295Y-104849768D01*
G37*
G36*
X119730035Y-109161116D02*
G01*
X119723315Y-109262679D01*
X119711702Y-109354519D01*
X119695439Y-109429138D01*
X119692048Y-109440510D01*
X119637428Y-109578656D01*
X119563083Y-109702357D01*
X119470687Y-109810200D01*
X119361916Y-109900771D01*
X119238445Y-109972656D01*
X119101949Y-110024442D01*
X118954102Y-110054714D01*
X118867113Y-110063863D01*
X118788009Y-110067393D01*
X118710056Y-110064698D01*
X118621379Y-110055818D01*
X118545601Y-110044170D01*
X118395859Y-110004990D01*
X118261908Y-109946557D01*
X118144260Y-109869316D01*
X118043425Y-109773714D01*
X117959916Y-109660195D01*
X117894243Y-109529205D01*
X117846918Y-109381190D01*
X117842676Y-109362521D01*
X117826943Y-109259405D01*
X117819577Y-109143492D01*
X117819661Y-109133281D01*
X118314645Y-109133281D01*
X118317535Y-109216054D01*
X118325507Y-109286297D01*
X118327456Y-109297052D01*
X118357730Y-109404641D01*
X118404412Y-109501094D01*
X118465145Y-109583164D01*
X118537575Y-109647605D01*
X118619346Y-109691172D01*
X118678564Y-109708140D01*
X118773498Y-109717645D01*
X118869056Y-109708470D01*
X118958611Y-109681469D01*
X119035537Y-109637497D01*
X119072375Y-109605615D01*
X119136640Y-109526112D01*
X119186128Y-109428518D01*
X119220166Y-109314778D01*
X119238086Y-109186838D01*
X119239215Y-109046643D01*
X119237334Y-109016533D01*
X119218956Y-108879741D01*
X119185536Y-108762633D01*
X119137198Y-108665369D01*
X119074066Y-108588111D01*
X118996266Y-108531016D01*
X118903922Y-108494247D01*
X118797157Y-108477962D01*
X118765219Y-108476670D01*
X118713239Y-108477865D01*
X118669356Y-108485392D01*
X118622398Y-108500706D01*
X118620787Y-108501317D01*
X118533494Y-108547180D01*
X118459673Y-108613290D01*
X118398752Y-108700296D01*
X118350159Y-108808844D01*
X118346496Y-108820013D01*
X118332760Y-108881343D01*
X118322627Y-108958769D01*
X118316465Y-109045134D01*
X118314645Y-109133281D01*
X117819661Y-109133281D01*
X117820567Y-109023814D01*
X117829903Y-108909402D01*
X117847574Y-108809286D01*
X117853580Y-108785698D01*
X117903498Y-108642266D01*
X117972151Y-108514487D01*
X118058614Y-108403383D01*
X118161962Y-108309980D01*
X118281271Y-108235300D01*
X118415616Y-108180367D01*
X118494793Y-108158855D01*
X118639045Y-108135192D01*
X118787548Y-108128557D01*
X118935394Y-108138505D01*
X119077673Y-108164587D01*
X119209477Y-108206355D01*
X119325897Y-108263363D01*
X119339318Y-108271645D01*
X119446064Y-108353696D01*
X119538445Y-108454872D01*
X119614951Y-108572893D01*
X119674071Y-108705477D01*
X119714297Y-108850343D01*
X119718388Y-108873092D01*
X119727816Y-108958823D01*
X119731205Y-109046643D01*
X119731617Y-109057331D01*
X119730035Y-109161116D01*
G37*
G36*
X125709021Y-106704776D02*
G01*
X125709021Y-106528997D01*
X125009657Y-106528997D01*
X125002077Y-106726748D01*
X125000509Y-106762246D01*
X124996226Y-106832266D01*
X124990931Y-106894196D01*
X124985151Y-106942363D01*
X124979411Y-106971096D01*
X124956079Y-107023293D01*
X124906366Y-107083646D01*
X124837773Y-107128396D01*
X124751439Y-107156614D01*
X124742222Y-107157910D01*
X124706004Y-107160365D01*
X124649869Y-107162399D01*
X124577334Y-107163948D01*
X124491918Y-107164946D01*
X124397139Y-107165329D01*
X124296515Y-107165031D01*
X124263549Y-107164814D01*
X124150179Y-107163863D01*
X124058268Y-107162369D01*
X123984909Y-107159838D01*
X123927198Y-107155777D01*
X123882228Y-107149691D01*
X123847094Y-107141086D01*
X123818890Y-107129470D01*
X123794710Y-107114347D01*
X123771650Y-107095225D01*
X123746802Y-107071610D01*
X123720748Y-107041196D01*
X123694424Y-106995375D01*
X123671595Y-106935341D01*
X123650923Y-106857461D01*
X123631066Y-106758107D01*
X123627515Y-106738321D01*
X123618199Y-106687188D01*
X123610467Y-106645780D01*
X123605712Y-106621598D01*
X123605027Y-106617774D01*
X123606895Y-106604222D01*
X123619630Y-106592234D01*
X123647617Y-106578850D01*
X123695241Y-106561106D01*
X123708838Y-106556333D01*
X123751130Y-106542255D01*
X123781537Y-106533318D01*
X123794218Y-106531283D01*
X123797120Y-106543294D01*
X123802756Y-106575434D01*
X123810215Y-106622580D01*
X123818660Y-106679664D01*
X123832457Y-106761578D01*
X123851526Y-106837653D01*
X123874762Y-106893998D01*
X123903401Y-106933490D01*
X123938680Y-106959007D01*
X123938827Y-106959081D01*
X123954276Y-106965562D01*
X123973582Y-106970638D01*
X123999783Y-106974473D01*
X124035914Y-106977231D01*
X124085011Y-106979078D01*
X124150111Y-106980178D01*
X124234248Y-106980695D01*
X124340459Y-106980794D01*
X124406777Y-106980729D01*
X124505337Y-106980258D01*
X124583178Y-106978927D01*
X124643101Y-106976259D01*
X124687908Y-106971777D01*
X124720398Y-106965005D01*
X124743374Y-106955466D01*
X124759634Y-106942686D01*
X124771981Y-106926186D01*
X124783215Y-106905491D01*
X124791891Y-106884886D01*
X124798302Y-106857774D01*
X124801818Y-106821123D01*
X124802910Y-106769756D01*
X124802048Y-106698498D01*
X124798739Y-106535275D01*
X124343598Y-106531979D01*
X123888457Y-106528684D01*
X123888457Y-106353218D01*
X124089347Y-106353218D01*
X125709021Y-106353218D01*
X125709021Y-105938883D01*
X125005907Y-105938883D01*
X125005907Y-106353218D01*
X124805017Y-106353218D01*
X124805017Y-105938883D01*
X124089347Y-105938883D01*
X124089347Y-106353218D01*
X123888457Y-106353218D01*
X123888457Y-105763105D01*
X124089347Y-105763105D01*
X125709021Y-105763105D01*
X125709021Y-105336214D01*
X125005907Y-105336214D01*
X125005907Y-105763105D01*
X124805624Y-105763105D01*
X124802182Y-105552798D01*
X124798739Y-105342492D01*
X124444043Y-105339157D01*
X124089347Y-105335823D01*
X124089347Y-105763105D01*
X123888457Y-105763105D01*
X123888457Y-105160435D01*
X124805017Y-105160435D01*
X124805017Y-104846545D01*
X125005907Y-104846545D01*
X125005907Y-105160435D01*
X125909911Y-105160435D01*
X125909911Y-106704776D01*
X125709021Y-106704776D01*
G37*
G36*
X127768141Y-109887623D02*
G01*
X127761863Y-109893901D01*
X127755585Y-109887623D01*
X127761863Y-109881345D01*
X127768141Y-109887623D01*
G37*
G36*
X115869245Y-108584967D02*
G01*
X115981511Y-108592075D01*
X116079925Y-108608673D01*
X116171588Y-108636213D01*
X116263598Y-108676146D01*
X116350267Y-108726036D01*
X116447470Y-108805455D01*
X116524949Y-108900309D01*
X116582779Y-109010718D01*
X116621033Y-109136801D01*
X116639786Y-109278676D01*
X116641347Y-109369921D01*
X116626565Y-109509270D01*
X116590808Y-109635308D01*
X116534727Y-109747268D01*
X116458969Y-109844381D01*
X116364184Y-109925882D01*
X116251019Y-109991000D01*
X116120123Y-110038970D01*
X115972145Y-110069022D01*
X115866048Y-110076893D01*
X115738976Y-110073329D01*
X115610616Y-110057764D01*
X115489225Y-110031236D01*
X115383063Y-109994788D01*
X115325531Y-109970127D01*
X115325531Y-109781346D01*
X115325565Y-109729323D01*
X115326006Y-109671958D01*
X115327416Y-109633407D01*
X115330358Y-109609931D01*
X115335398Y-109597791D01*
X115343100Y-109593249D01*
X115354028Y-109592566D01*
X115355554Y-109592637D01*
X115380672Y-109601256D01*
X115417137Y-109621448D01*
X115457612Y-109649200D01*
X115468814Y-109657396D01*
X115554070Y-109706157D01*
X115646856Y-109738832D01*
X115742761Y-109755355D01*
X115837373Y-109755656D01*
X115926282Y-109739670D01*
X116005076Y-109707329D01*
X116069343Y-109658564D01*
X116074280Y-109653442D01*
X116114678Y-109604970D01*
X116142935Y-109554553D01*
X116160869Y-109496520D01*
X116170296Y-109425197D01*
X116173035Y-109334912D01*
X116172891Y-109286447D01*
X116171629Y-109235383D01*
X116168057Y-109197918D01*
X116160994Y-109167334D01*
X116149257Y-109136915D01*
X116131662Y-109099941D01*
X116099460Y-109043687D01*
X116044135Y-108979463D01*
X115976820Y-108935437D01*
X115894984Y-108910116D01*
X115796095Y-108902007D01*
X115734303Y-108906332D01*
X115643697Y-108925963D01*
X115556258Y-108958836D01*
X115479158Y-109002079D01*
X115419568Y-109052818D01*
X115396160Y-109069109D01*
X115361252Y-109077786D01*
X115325531Y-109077786D01*
X115325531Y-108690366D01*
X115397726Y-108663190D01*
X115434596Y-108649655D01*
X115531570Y-108618630D01*
X115620724Y-108598669D01*
X115711965Y-108587904D01*
X115815200Y-108584466D01*
X115869245Y-108584967D01*
G37*
G36*
X128596811Y-109259842D02*
G01*
X128590533Y-109266120D01*
X128584256Y-109259842D01*
X128590533Y-109253564D01*
X128596811Y-109259842D01*
G37*
G36*
X129111591Y-109184509D02*
G01*
X129105313Y-109190786D01*
X129099036Y-109184509D01*
X129105313Y-109178231D01*
X129111591Y-109184509D01*
G37*
G36*
X113075889Y-105783173D02*
G01*
X113149115Y-105840982D01*
X113276653Y-105935828D01*
X113217739Y-105993856D01*
X113187582Y-106022251D01*
X113162100Y-106043686D01*
X113148506Y-106051884D01*
X113143154Y-106049885D01*
X113120218Y-106035237D01*
X113084296Y-106009053D01*
X113039434Y-105974532D01*
X112989676Y-105934872D01*
X112939069Y-105893271D01*
X112891657Y-105852929D01*
X112851485Y-105817043D01*
X112775822Y-105746993D01*
X112672698Y-105847292D01*
X112642556Y-105875612D01*
X112584964Y-105925917D01*
X112526951Y-105972699D01*
X112477386Y-106008629D01*
X112385198Y-106069666D01*
X112452275Y-106092607D01*
X112493580Y-106105987D01*
X112596377Y-106134961D01*
X112716335Y-106164142D01*
X112848110Y-106192420D01*
X112986358Y-106218682D01*
X113125737Y-106241819D01*
X113260903Y-106260720D01*
X113437451Y-106282792D01*
X113386459Y-106367335D01*
X113368246Y-106396610D01*
X113344724Y-106429115D01*
X113326568Y-106444720D01*
X113310355Y-106447005D01*
X113294357Y-106444262D01*
X113256783Y-106438322D01*
X113205618Y-106430511D01*
X113147133Y-106421797D01*
X112951598Y-106389114D01*
X112629324Y-106317281D01*
X112320742Y-106225230D01*
X112172354Y-106174961D01*
X112036631Y-106220047D01*
X111983001Y-106237292D01*
X111754322Y-106299097D01*
X111507537Y-106347736D01*
X111240782Y-106383592D01*
X111185093Y-106389758D01*
X111137052Y-106394047D01*
X111103827Y-106392710D01*
X111079830Y-106383337D01*
X111059474Y-106363517D01*
X111037172Y-106330841D01*
X111007335Y-106282898D01*
X110959148Y-106206299D01*
X111161692Y-106198824D01*
X111242139Y-106195063D01*
X111513864Y-106169717D01*
X111771436Y-106125257D01*
X111779116Y-106123605D01*
X111850357Y-106108168D01*
X111898359Y-106096036D01*
X111924200Y-106084847D01*
X111928956Y-106072239D01*
X111913703Y-106055848D01*
X111879517Y-106033314D01*
X111827476Y-106002274D01*
X111745900Y-105950558D01*
X111660153Y-105890250D01*
X111579072Y-105827658D01*
X111508559Y-105767345D01*
X111454515Y-105713874D01*
X111433294Y-105689183D01*
X111416981Y-105662660D01*
X111666922Y-105662660D01*
X111710191Y-105707652D01*
X111718631Y-105716043D01*
X111765905Y-105756023D01*
X111829045Y-105801867D01*
X111902451Y-105849870D01*
X111980521Y-105896327D01*
X112057655Y-105937531D01*
X112080613Y-105948794D01*
X112125186Y-105969466D01*
X112159465Y-105983765D01*
X112177448Y-105989106D01*
X112197925Y-105983156D01*
X112235262Y-105964907D01*
X112283677Y-105937246D01*
X112338463Y-105903114D01*
X112394913Y-105865455D01*
X112448321Y-105827207D01*
X112493979Y-105791314D01*
X112523628Y-105766722D01*
X112557285Y-105738767D01*
X112582139Y-105716292D01*
X112596559Y-105698704D01*
X112598916Y-105685408D01*
X112587577Y-105675811D01*
X112560914Y-105669319D01*
X112517296Y-105665338D01*
X112455092Y-105663276D01*
X112372672Y-105662538D01*
X112268405Y-105662530D01*
X112140662Y-105662660D01*
X111666922Y-105662660D01*
X111416981Y-105662660D01*
X111416694Y-105662194D01*
X111409647Y-105631846D01*
X111408180Y-105587290D01*
X111408180Y-105511993D01*
X111973183Y-105511993D01*
X112018194Y-105511981D01*
X112150140Y-105511752D01*
X112259303Y-105511155D01*
X112347468Y-105510089D01*
X112416420Y-105508455D01*
X112467941Y-105506155D01*
X112503817Y-105503088D01*
X112525831Y-105499156D01*
X112535768Y-105494258D01*
X112535412Y-105488296D01*
X112526547Y-105481170D01*
X112520755Y-105476272D01*
X112501325Y-105455390D01*
X112476640Y-105425659D01*
X112438371Y-105377341D01*
X112524102Y-105339475D01*
X112609834Y-105301608D01*
X112673308Y-105384828D01*
X112700033Y-105418046D01*
X112760093Y-105485485D01*
X112832631Y-105560437D01*
X112912725Y-105638181D01*
X112964254Y-105685408D01*
X112995451Y-105714000D01*
X113075889Y-105783173D01*
G37*
G36*
X128948368Y-109291231D02*
G01*
X128947462Y-109297878D01*
X128939998Y-109299602D01*
X128938495Y-109297761D01*
X128939998Y-109282861D01*
X128943774Y-109280897D01*
X128948368Y-109291231D01*
G37*
G36*
X122125676Y-108602092D02*
G01*
X122244704Y-108648267D01*
X122364040Y-108719321D01*
X122444562Y-108775610D01*
X122444562Y-108625784D01*
X122896564Y-108625784D01*
X122896564Y-110032012D01*
X122444562Y-110032012D01*
X122444562Y-109018437D01*
X122366090Y-108982567D01*
X122365579Y-108982333D01*
X122309680Y-108960467D01*
X122254459Y-108948160D01*
X122187172Y-108942563D01*
X122139442Y-108941939D01*
X122077946Y-108948471D01*
X122032176Y-108966454D01*
X121997041Y-108998294D01*
X121967449Y-109046397D01*
X121936060Y-109109175D01*
X121931856Y-109570594D01*
X121927653Y-110032012D01*
X121475868Y-110032012D01*
X121481073Y-109501538D01*
X121481660Y-109443033D01*
X121483154Y-109313870D01*
X121484913Y-109206234D01*
X121487211Y-109117568D01*
X121490321Y-109045314D01*
X121494517Y-108986915D01*
X121500073Y-108939814D01*
X121507262Y-108901454D01*
X121516357Y-108869277D01*
X121527633Y-108840727D01*
X121541364Y-108813245D01*
X121557822Y-108784275D01*
X121609164Y-108714597D01*
X121678737Y-108656542D01*
X121765275Y-108614637D01*
X121870878Y-108587562D01*
X121889534Y-108584645D01*
X122007205Y-108580863D01*
X122125676Y-108602092D01*
G37*
G36*
X115689644Y-105524548D02*
G01*
X115940756Y-105524548D01*
X115940756Y-105700327D01*
X115689644Y-105700327D01*
X115689644Y-107257222D01*
X115513865Y-107257222D01*
X115513865Y-105700327D01*
X115275309Y-105700327D01*
X115275309Y-105524548D01*
X115513865Y-105524548D01*
X115513865Y-104833990D01*
X115689644Y-104833990D01*
X115689644Y-105524548D01*
G37*
G36*
X128496366Y-109222175D02*
G01*
X128490089Y-109228453D01*
X128483811Y-109222175D01*
X128490089Y-109215898D01*
X128496366Y-109222175D01*
G37*
G36*
X128408477Y-109184509D02*
G01*
X128402199Y-109190786D01*
X128395921Y-109184509D01*
X128402199Y-109178231D01*
X128408477Y-109184509D01*
G37*
G36*
X128501649Y-109179217D02*
G01*
X128502644Y-109190786D01*
X128500067Y-109194544D01*
X128489348Y-109203342D01*
X128488095Y-109203016D01*
X128483811Y-109190786D01*
X128484322Y-109187345D01*
X128497107Y-109178231D01*
X128501649Y-109179217D01*
G37*
G36*
X128687997Y-109180149D02*
G01*
X128690978Y-109190786D01*
X128688405Y-109194585D01*
X128678423Y-109203342D01*
X128676607Y-109202751D01*
X128665867Y-109190786D01*
X128664862Y-109184136D01*
X128678423Y-109178231D01*
X128687997Y-109180149D01*
G37*
G36*
X120636554Y-105336214D02*
G01*
X120963000Y-105336214D01*
X120963000Y-105499437D01*
X120636554Y-105499437D01*
X120636554Y-106035898D01*
X120796638Y-106082213D01*
X120808096Y-106085530D01*
X120867898Y-106102910D01*
X120918818Y-106117818D01*
X120955773Y-106128760D01*
X120973682Y-106134242D01*
X120978631Y-106137221D01*
X120984609Y-106151650D01*
X120985498Y-106181285D01*
X120981691Y-106230893D01*
X120981160Y-106236212D01*
X120976067Y-106280436D01*
X120971145Y-106313126D01*
X120967390Y-106327541D01*
X120963894Y-106327506D01*
X120941528Y-106322336D01*
X120903078Y-106311617D01*
X120853763Y-106296952D01*
X120798803Y-106279942D01*
X120743418Y-106262189D01*
X120692826Y-106245292D01*
X120652249Y-106230855D01*
X120651293Y-106230667D01*
X120646838Y-106236037D01*
X120643318Y-106253676D01*
X120640641Y-106285724D01*
X120638717Y-106334320D01*
X120637455Y-106401604D01*
X120636764Y-106489717D01*
X120636554Y-106600799D01*
X120636554Y-106976622D01*
X120667200Y-107005412D01*
X120669034Y-107007122D01*
X120684579Y-107019568D01*
X120702244Y-107027128D01*
X120727764Y-107030661D01*
X120766878Y-107031026D01*
X120825324Y-107029082D01*
X120952803Y-107023961D01*
X120944112Y-107105113D01*
X120939271Y-107145234D01*
X120933634Y-107182328D01*
X120929034Y-107202910D01*
X120928162Y-107204573D01*
X120915892Y-107211652D01*
X120888298Y-107216276D01*
X120842130Y-107218794D01*
X120774140Y-107219556D01*
X120756857Y-107219513D01*
X120682412Y-107217718D01*
X120627032Y-107212490D01*
X120585739Y-107202745D01*
X120553554Y-107187395D01*
X120525500Y-107165358D01*
X120511710Y-107152328D01*
X120496368Y-107136028D01*
X120484008Y-107118385D01*
X120474261Y-107096757D01*
X120466759Y-107068504D01*
X120461131Y-107030986D01*
X120457011Y-106981561D01*
X120454028Y-106917590D01*
X120451815Y-106836432D01*
X120450002Y-106735446D01*
X120448220Y-106611991D01*
X120441942Y-106161372D01*
X120306969Y-106118784D01*
X120171997Y-106076195D01*
X120171997Y-105890695D01*
X120274687Y-105922231D01*
X120289394Y-105926770D01*
X120339641Y-105942585D01*
X120381577Y-105956230D01*
X120407338Y-105965159D01*
X120428191Y-105972583D01*
X120442760Y-105976550D01*
X120442874Y-105976498D01*
X120444563Y-105963095D01*
X120446031Y-105928687D01*
X120447188Y-105877130D01*
X120447947Y-105812280D01*
X120448220Y-105737994D01*
X120448220Y-105499437D01*
X120159441Y-105499437D01*
X120159441Y-105336214D01*
X120448220Y-105336214D01*
X120448220Y-104846545D01*
X120636554Y-104846545D01*
X120636554Y-105336214D01*
G37*
G36*
X128634478Y-109259842D02*
G01*
X128628200Y-109266120D01*
X128621922Y-109259842D01*
X128628200Y-109253564D01*
X128634478Y-109259842D01*
G37*
G36*
X128946343Y-109220571D02*
G01*
X128948368Y-109241009D01*
X128946238Y-109255594D01*
X128936988Y-109266120D01*
X128931471Y-109261030D01*
X128932175Y-109241009D01*
X128936960Y-109226250D01*
X128943555Y-109215898D01*
X128946343Y-109220571D01*
G37*
G36*
X128370810Y-109121731D02*
G01*
X128364532Y-109128008D01*
X128358255Y-109121731D01*
X128364532Y-109115453D01*
X128370810Y-109121731D01*
G37*
G36*
X128636832Y-109182210D02*
G01*
X128642644Y-109186729D01*
X128629247Y-109189795D01*
X128616512Y-109188907D01*
X128612767Y-109183201D01*
X128617209Y-109180713D01*
X128636832Y-109182210D01*
G37*
G36*
X128940200Y-108622651D02*
G01*
X128957785Y-108623988D01*
X128966034Y-108629758D01*
X128973480Y-108651192D01*
X128971206Y-108663877D01*
X128957785Y-108680414D01*
X128953738Y-108681310D01*
X128927805Y-108683246D01*
X128883587Y-108684509D01*
X128826018Y-108684995D01*
X128760034Y-108684599D01*
X128727909Y-108684175D01*
X128666185Y-108683027D01*
X128624078Y-108681206D01*
X128597700Y-108678087D01*
X128583161Y-108673045D01*
X128576574Y-108665453D01*
X128574051Y-108654688D01*
X128573298Y-108648139D01*
X128574767Y-108639325D01*
X128582923Y-108633227D01*
X128601452Y-108629211D01*
X128634036Y-108626641D01*
X128684360Y-108624882D01*
X128756108Y-108623299D01*
X128785531Y-108622759D01*
X128849204Y-108622020D01*
X128902383Y-108621989D01*
X128940200Y-108622651D01*
G37*
G36*
X174234345Y-98206461D02*
G01*
X174228068Y-98212739D01*
X174221790Y-98206461D01*
X174228068Y-98200183D01*
X174234345Y-98206461D01*
G37*
G36*
X173455898Y-98972353D02*
G01*
X173449620Y-98978631D01*
X173443342Y-98972353D01*
X173449620Y-98966076D01*
X173455898Y-98972353D01*
G37*
G36*
X174133901Y-100278137D02*
G01*
X174127623Y-100284415D01*
X174121345Y-100278137D01*
X174127623Y-100271859D01*
X174133901Y-100278137D01*
G37*
G36*
X173430786Y-99575023D02*
G01*
X173424509Y-99581300D01*
X173418231Y-99575023D01*
X173424509Y-99568745D01*
X173430786Y-99575023D01*
G37*
G36*
X169827326Y-114936812D02*
G01*
X169525992Y-114936812D01*
X169525992Y-116782487D01*
X169827326Y-116782487D01*
X169827326Y-116958265D01*
X169362769Y-116958265D01*
X169362769Y-115910321D01*
X169329444Y-115960319D01*
X169318539Y-115976620D01*
X169300853Y-116002751D01*
X169292097Y-116015229D01*
X169282147Y-116011376D01*
X169257058Y-115994728D01*
X169221417Y-115968450D01*
X169179694Y-115935943D01*
X169136358Y-115900611D01*
X169095879Y-115865856D01*
X169044054Y-115819865D01*
X169076904Y-115764424D01*
X169099288Y-115726512D01*
X169121533Y-115692523D01*
X169139875Y-115676943D01*
X169160050Y-115678329D01*
X169187795Y-115695241D01*
X169228846Y-115726235D01*
X169248227Y-115741247D01*
X169277747Y-115764951D01*
X169301780Y-115783550D01*
X169320882Y-115795226D01*
X169335610Y-115798162D01*
X169346521Y-115790538D01*
X169354171Y-115770538D01*
X169359118Y-115736343D01*
X169361916Y-115686135D01*
X169363124Y-115618095D01*
X169363298Y-115530407D01*
X169362994Y-115421252D01*
X169362769Y-115288811D01*
X169362769Y-114761034D01*
X169827326Y-114761034D01*
X169827326Y-114936812D01*
G37*
G36*
X174272012Y-104716545D02*
G01*
X172865784Y-104716545D01*
X172865784Y-104264543D01*
X174272012Y-104264543D01*
X174272012Y-104716545D01*
G37*
G36*
X170354662Y-105683327D02*
G01*
X170757065Y-105683327D01*
X170778547Y-105683325D01*
X170893815Y-105683140D01*
X170987034Y-105682358D01*
X171060829Y-105680564D01*
X171117823Y-105677344D01*
X171160644Y-105672284D01*
X171191915Y-105664968D01*
X171214261Y-105654983D01*
X171230308Y-105641915D01*
X171242681Y-105625347D01*
X171254005Y-105604868D01*
X171259471Y-105592965D01*
X171265738Y-105571637D01*
X171269427Y-105543109D01*
X171270796Y-105502914D01*
X171270104Y-105446587D01*
X171267610Y-105369662D01*
X171266114Y-105332817D01*
X171262853Y-105267761D01*
X171259321Y-105213241D01*
X171255856Y-105174110D01*
X171252792Y-105155224D01*
X171251180Y-105149062D01*
X171255159Y-105142951D01*
X171271009Y-105141390D01*
X171303035Y-105144214D01*
X171355538Y-105151258D01*
X171378543Y-105154524D01*
X171424124Y-105161028D01*
X171456599Y-105165708D01*
X171470088Y-105167720D01*
X171470380Y-105168420D01*
X171471350Y-105185790D01*
X171471805Y-105223663D01*
X171471747Y-105278289D01*
X171471174Y-105345918D01*
X171470088Y-105422798D01*
X171469801Y-105439764D01*
X171468156Y-105522956D01*
X171466191Y-105585808D01*
X171463471Y-105632379D01*
X171459558Y-105666727D01*
X171454016Y-105692912D01*
X171446408Y-105714993D01*
X171436298Y-105737030D01*
X171413112Y-105776000D01*
X171357742Y-105832503D01*
X171283777Y-105872480D01*
X171283162Y-105872711D01*
X171262869Y-105877617D01*
X171229561Y-105881749D01*
X171181223Y-105885196D01*
X171115838Y-105888046D01*
X171031392Y-105890390D01*
X170925866Y-105892314D01*
X170797247Y-105893909D01*
X170354662Y-105898495D01*
X170354662Y-106976555D01*
X170178883Y-106976555D01*
X170178883Y-105896773D01*
X170005834Y-105896773D01*
X169706410Y-106304830D01*
X169406987Y-106712887D01*
X169212101Y-106712887D01*
X169212101Y-104804434D01*
X169387880Y-104804434D01*
X169387880Y-105595438D01*
X169387887Y-105626755D01*
X169388095Y-105763605D01*
X169388572Y-105892287D01*
X169389291Y-106010681D01*
X169390228Y-106116670D01*
X169391358Y-106208137D01*
X169392655Y-106282964D01*
X169394093Y-106339033D01*
X169395649Y-106374227D01*
X169397297Y-106386427D01*
X169404117Y-106379610D01*
X169424385Y-106354672D01*
X169456173Y-106313639D01*
X169497728Y-106258828D01*
X169547299Y-106192552D01*
X169603132Y-106117127D01*
X169663473Y-106034869D01*
X169920233Y-105683327D01*
X170178883Y-105683327D01*
X170178883Y-104540767D01*
X170354662Y-104540767D01*
X170354662Y-105683327D01*
G37*
G36*
X171771973Y-99723915D02*
G01*
X171774979Y-99728066D01*
X171777049Y-99746654D01*
X171760955Y-99772979D01*
X171748451Y-99791390D01*
X171735154Y-99833651D01*
X171745115Y-99870746D01*
X171777923Y-99899621D01*
X171780511Y-99901067D01*
X171814884Y-99928600D01*
X171840321Y-99962115D01*
X171849557Y-99985606D01*
X171854723Y-100039388D01*
X171841735Y-100091677D01*
X171813019Y-100135427D01*
X171770997Y-100163592D01*
X171733549Y-100177692D01*
X171742180Y-100259303D01*
X171747026Y-100299779D01*
X171752012Y-100331869D01*
X171755774Y-100346069D01*
X171764644Y-100344342D01*
X171783774Y-100330375D01*
X171801587Y-100316736D01*
X171825623Y-100311331D01*
X171841113Y-100329269D01*
X171842938Y-100352130D01*
X171825666Y-100386514D01*
X171787228Y-100421653D01*
X171778180Y-100427860D01*
X171742029Y-100445045D01*
X171714392Y-100441199D01*
X171690550Y-100416050D01*
X171684340Y-100403673D01*
X171678851Y-100383801D01*
X171674490Y-100354318D01*
X171671010Y-100312124D01*
X171668159Y-100254119D01*
X171665690Y-100177203D01*
X171663351Y-100078277D01*
X171656849Y-99772090D01*
X171689465Y-99739473D01*
X171718778Y-99715580D01*
X171747800Y-99708270D01*
X171771973Y-99723915D01*
G37*
G36*
X171764506Y-98097309D02*
G01*
X171806090Y-98129872D01*
X171828077Y-98152973D01*
X171845045Y-98177518D01*
X171845024Y-98195694D01*
X171829578Y-98213044D01*
X171819678Y-98219539D01*
X171802970Y-98218445D01*
X171779356Y-98199838D01*
X171748335Y-98170695D01*
X171748196Y-98213689D01*
X171745883Y-98257403D01*
X171740482Y-98302496D01*
X171739124Y-98311057D01*
X171738125Y-98337751D01*
X171749331Y-98354053D01*
X171778287Y-98369844D01*
X171788303Y-98374637D01*
X171813623Y-98387215D01*
X171823857Y-98393087D01*
X171824522Y-98395239D01*
X171831013Y-98413882D01*
X171842140Y-98445018D01*
X171843136Y-98447783D01*
X171855337Y-98483344D01*
X171859340Y-98506526D01*
X171855236Y-98528012D01*
X171843117Y-98558482D01*
X171842985Y-98558797D01*
X171817265Y-98597316D01*
X171780339Y-98628375D01*
X171759818Y-98641875D01*
X171740751Y-98664070D01*
X171735779Y-98693422D01*
X171741577Y-98724388D01*
X171762733Y-98760870D01*
X171773338Y-98772967D01*
X171781995Y-98791705D01*
X171773751Y-98808762D01*
X171768887Y-98814217D01*
X171747988Y-98826410D01*
X171724058Y-98818960D01*
X171692332Y-98790817D01*
X171656743Y-98753669D01*
X171663490Y-98454954D01*
X171665830Y-98367294D01*
X171669671Y-98270144D01*
X171674321Y-98197181D01*
X171679815Y-98147878D01*
X171686190Y-98121711D01*
X171700110Y-98100788D01*
X171728666Y-98087580D01*
X171764506Y-98097309D01*
G37*
G36*
X170023173Y-114964111D02*
G01*
X170080982Y-114890885D01*
X170175828Y-114763347D01*
X170233856Y-114822261D01*
X170262251Y-114852418D01*
X170283686Y-114877900D01*
X170291884Y-114891494D01*
X170289885Y-114896846D01*
X170275237Y-114919782D01*
X170249053Y-114955704D01*
X170214532Y-115000566D01*
X170174872Y-115050324D01*
X170133271Y-115100931D01*
X170092929Y-115148343D01*
X170057043Y-115188515D01*
X169986993Y-115264178D01*
X170087292Y-115367302D01*
X170115612Y-115397444D01*
X170165917Y-115455036D01*
X170212699Y-115513049D01*
X170248629Y-115562614D01*
X170309666Y-115654802D01*
X170332607Y-115587725D01*
X170345987Y-115546420D01*
X170374961Y-115443623D01*
X170404142Y-115323665D01*
X170432420Y-115191890D01*
X170458682Y-115053642D01*
X170481819Y-114914263D01*
X170500720Y-114779097D01*
X170522792Y-114602549D01*
X170607335Y-114653541D01*
X170636610Y-114671754D01*
X170669115Y-114695276D01*
X170684720Y-114713432D01*
X170687005Y-114729645D01*
X170684262Y-114745643D01*
X170678322Y-114783217D01*
X170670511Y-114834382D01*
X170661797Y-114892867D01*
X170629114Y-115088402D01*
X170557281Y-115410676D01*
X170465230Y-115719258D01*
X170414961Y-115867646D01*
X170460047Y-116003369D01*
X170477292Y-116056999D01*
X170539097Y-116285678D01*
X170587736Y-116532463D01*
X170623592Y-116799218D01*
X170629758Y-116854907D01*
X170634047Y-116902948D01*
X170632710Y-116936173D01*
X170623337Y-116960170D01*
X170603517Y-116980526D01*
X170570841Y-117002828D01*
X170522898Y-117032665D01*
X170446299Y-117080852D01*
X170438824Y-116878308D01*
X170435063Y-116797861D01*
X170409717Y-116526136D01*
X170365257Y-116268564D01*
X170363605Y-116260884D01*
X170348168Y-116189643D01*
X170336036Y-116141641D01*
X170324847Y-116115800D01*
X170312239Y-116111044D01*
X170295848Y-116126297D01*
X170273314Y-116160483D01*
X170242274Y-116212524D01*
X170190558Y-116294100D01*
X170130250Y-116379847D01*
X170067658Y-116460928D01*
X170007345Y-116531441D01*
X169953874Y-116585485D01*
X169929183Y-116606706D01*
X169902194Y-116623306D01*
X169871846Y-116630353D01*
X169827290Y-116631820D01*
X169751993Y-116631820D01*
X169751993Y-116066817D01*
X169751981Y-116021806D01*
X169751752Y-115889860D01*
X169751155Y-115780697D01*
X169751045Y-115771595D01*
X169902530Y-115771595D01*
X169902660Y-115899338D01*
X169902660Y-116373078D01*
X169947652Y-116329809D01*
X169956043Y-116321369D01*
X169996023Y-116274095D01*
X170041867Y-116210955D01*
X170089870Y-116137549D01*
X170136327Y-116059479D01*
X170177531Y-115982345D01*
X170188794Y-115959387D01*
X170209466Y-115914814D01*
X170223765Y-115880535D01*
X170229106Y-115862552D01*
X170223156Y-115842075D01*
X170204907Y-115804738D01*
X170177246Y-115756323D01*
X170143114Y-115701537D01*
X170105455Y-115645087D01*
X170067207Y-115591679D01*
X170031314Y-115546021D01*
X170006722Y-115516372D01*
X169978767Y-115482715D01*
X169956292Y-115457861D01*
X169938704Y-115443441D01*
X169925408Y-115441084D01*
X169915811Y-115452423D01*
X169909319Y-115479086D01*
X169905338Y-115522704D01*
X169903276Y-115584908D01*
X169902538Y-115667328D01*
X169902530Y-115771595D01*
X169751045Y-115771595D01*
X169750089Y-115692532D01*
X169748455Y-115623580D01*
X169746155Y-115572059D01*
X169743088Y-115536183D01*
X169739156Y-115514169D01*
X169734258Y-115504232D01*
X169728296Y-115504588D01*
X169721170Y-115513453D01*
X169716272Y-115519245D01*
X169695390Y-115538675D01*
X169665659Y-115563360D01*
X169617341Y-115601629D01*
X169579475Y-115515898D01*
X169541608Y-115430166D01*
X169624828Y-115366692D01*
X169658046Y-115339967D01*
X169725485Y-115279907D01*
X169800437Y-115207369D01*
X169878181Y-115127275D01*
X169925408Y-115075746D01*
X169954000Y-115044549D01*
X170023173Y-114964111D01*
G37*
G36*
X173495594Y-99093762D02*
G01*
X173506120Y-99103012D01*
X173501030Y-99108529D01*
X173481009Y-99107825D01*
X173466250Y-99103040D01*
X173455898Y-99096445D01*
X173460571Y-99093657D01*
X173481009Y-99091632D01*
X173495594Y-99093762D01*
G37*
G36*
X171310898Y-98089972D02*
G01*
X171317573Y-98111553D01*
X171325185Y-98149836D01*
X171332530Y-98199244D01*
X171333753Y-98208096D01*
X171344351Y-98266339D01*
X171360545Y-98338482D01*
X171380359Y-98416199D01*
X171401816Y-98491162D01*
X171423748Y-98566275D01*
X171444515Y-98649926D01*
X171455716Y-98716642D01*
X171457873Y-98769801D01*
X171451508Y-98812783D01*
X171441687Y-98833536D01*
X171427073Y-98833837D01*
X171407378Y-98811074D01*
X171381783Y-98764679D01*
X171359444Y-98713790D01*
X171326723Y-98615249D01*
X171302021Y-98508674D01*
X171288071Y-98404575D01*
X171287895Y-98402235D01*
X171285684Y-98350151D01*
X171285745Y-98291676D01*
X171287741Y-98232059D01*
X171291338Y-98176551D01*
X171296200Y-98130402D01*
X171301990Y-98098863D01*
X171308373Y-98087183D01*
X171310898Y-98089972D01*
G37*
G36*
X173468453Y-99549911D02*
G01*
X173462175Y-99556189D01*
X173455898Y-99549911D01*
X173462175Y-99543634D01*
X173468453Y-99549911D01*
G37*
G36*
X173032146Y-102180750D02*
G01*
X173147165Y-102180917D01*
X173285132Y-102181444D01*
X173401543Y-102182360D01*
X173498453Y-102183717D01*
X173577921Y-102185566D01*
X173642002Y-102187959D01*
X173692753Y-102190945D01*
X173732232Y-102194577D01*
X173762496Y-102198906D01*
X173763563Y-102199097D01*
X173886402Y-102232724D01*
X173994568Y-102286451D01*
X174087500Y-102359611D01*
X174164634Y-102451534D01*
X174225410Y-102561553D01*
X174269265Y-102688999D01*
X174295639Y-102833204D01*
X174297061Y-102846032D01*
X174306329Y-103030986D01*
X174293294Y-103204494D01*
X174257961Y-103366500D01*
X174239215Y-103424278D01*
X174204327Y-103506122D01*
X174160829Y-103576985D01*
X174103843Y-103645703D01*
X174065511Y-103684087D01*
X173993535Y-103739631D01*
X173911683Y-103781146D01*
X173812660Y-103812816D01*
X173798713Y-103816273D01*
X173775764Y-103821256D01*
X173750904Y-103825403D01*
X173721814Y-103828789D01*
X173686173Y-103831490D01*
X173641662Y-103833583D01*
X173585960Y-103835145D01*
X173516748Y-103836251D01*
X173431704Y-103836979D01*
X173328509Y-103837404D01*
X173204844Y-103837603D01*
X173058387Y-103837652D01*
X172401226Y-103837652D01*
X172401226Y-103361582D01*
X173063535Y-103357922D01*
X173725843Y-103354261D01*
X173797123Y-103320847D01*
X173850330Y-103289440D01*
X173901862Y-103237615D01*
X173936024Y-103170871D01*
X173953656Y-103087433D01*
X173955598Y-102985522D01*
X173951920Y-102940411D01*
X173933452Y-102853184D01*
X173899547Y-102784596D01*
X173848544Y-102732693D01*
X173778786Y-102695520D01*
X173688611Y-102671124D01*
X173658079Y-102667764D01*
X173602651Y-102664705D01*
X173524451Y-102662149D01*
X173424676Y-102660118D01*
X173304523Y-102658638D01*
X173165188Y-102657732D01*
X173007868Y-102657425D01*
X172401226Y-102657425D01*
X172401226Y-102180312D01*
X173032146Y-102180750D01*
G37*
G36*
X170944776Y-102330979D02*
G01*
X170768997Y-102330979D01*
X170768997Y-103030343D01*
X170966748Y-103037923D01*
X171002246Y-103039491D01*
X171072266Y-103043774D01*
X171134196Y-103049069D01*
X171182363Y-103054849D01*
X171211096Y-103060589D01*
X171263293Y-103083921D01*
X171323646Y-103133634D01*
X171368396Y-103202227D01*
X171396614Y-103288561D01*
X171397910Y-103297778D01*
X171400365Y-103333996D01*
X171402399Y-103390131D01*
X171403948Y-103462666D01*
X171404946Y-103548082D01*
X171405329Y-103642861D01*
X171405031Y-103743485D01*
X171404814Y-103776451D01*
X171403863Y-103889821D01*
X171402369Y-103981732D01*
X171399838Y-104055091D01*
X171395777Y-104112802D01*
X171389691Y-104157772D01*
X171381086Y-104192906D01*
X171369470Y-104221110D01*
X171354347Y-104245290D01*
X171335225Y-104268350D01*
X171311610Y-104293198D01*
X171281196Y-104319252D01*
X171235375Y-104345576D01*
X171175341Y-104368405D01*
X171097461Y-104389077D01*
X170998107Y-104408934D01*
X170978321Y-104412485D01*
X170927188Y-104421801D01*
X170885780Y-104429533D01*
X170861598Y-104434288D01*
X170857774Y-104434973D01*
X170844222Y-104433105D01*
X170832234Y-104420370D01*
X170818850Y-104392383D01*
X170801106Y-104344759D01*
X170796333Y-104331162D01*
X170782255Y-104288870D01*
X170773318Y-104258463D01*
X170771283Y-104245782D01*
X170783294Y-104242880D01*
X170815434Y-104237244D01*
X170862580Y-104229785D01*
X170919664Y-104221340D01*
X171001578Y-104207543D01*
X171077653Y-104188474D01*
X171133998Y-104165238D01*
X171173490Y-104136599D01*
X171199007Y-104101320D01*
X171199081Y-104101173D01*
X171205562Y-104085724D01*
X171210638Y-104066418D01*
X171214473Y-104040217D01*
X171217231Y-104004086D01*
X171219078Y-103954989D01*
X171220178Y-103889889D01*
X171220695Y-103805752D01*
X171220794Y-103699541D01*
X171220729Y-103633223D01*
X171220258Y-103534663D01*
X171218927Y-103456822D01*
X171216259Y-103396899D01*
X171211777Y-103352092D01*
X171205005Y-103319602D01*
X171195466Y-103296626D01*
X171182686Y-103280366D01*
X171166186Y-103268019D01*
X171145491Y-103256785D01*
X171124886Y-103248109D01*
X171097774Y-103241698D01*
X171061123Y-103238182D01*
X171009756Y-103237090D01*
X170938498Y-103237952D01*
X170775275Y-103241261D01*
X170771979Y-103696402D01*
X170768684Y-104151543D01*
X169400435Y-104151543D01*
X169400435Y-103950653D01*
X169575823Y-103950653D01*
X170003105Y-103950653D01*
X170178883Y-103950653D01*
X170593218Y-103950653D01*
X170593218Y-103234983D01*
X170178883Y-103234983D01*
X170178883Y-103950653D01*
X170003105Y-103950653D01*
X170003105Y-103234376D01*
X169792798Y-103237818D01*
X169582492Y-103241261D01*
X169579157Y-103595957D01*
X169575823Y-103950653D01*
X169400435Y-103950653D01*
X169400435Y-103234983D01*
X169086545Y-103234983D01*
X169086545Y-103034093D01*
X169400435Y-103034093D01*
X169576214Y-103034093D01*
X170003105Y-103034093D01*
X170178883Y-103034093D01*
X170593218Y-103034093D01*
X170593218Y-102330979D01*
X170178883Y-102330979D01*
X170178883Y-103034093D01*
X170003105Y-103034093D01*
X170003105Y-102330979D01*
X169576214Y-102330979D01*
X169576214Y-103034093D01*
X169400435Y-103034093D01*
X169400435Y-102130089D01*
X170944776Y-102130089D01*
X170944776Y-102330979D01*
G37*
G36*
X173749270Y-111413435D02*
G01*
X173875308Y-111449192D01*
X173987268Y-111505273D01*
X174084381Y-111581031D01*
X174165882Y-111675816D01*
X174231000Y-111788981D01*
X174278970Y-111919877D01*
X174309022Y-112067855D01*
X174316893Y-112173952D01*
X174313329Y-112301024D01*
X174297764Y-112429384D01*
X174271236Y-112550775D01*
X174234788Y-112656937D01*
X174210127Y-112714469D01*
X174021346Y-112714469D01*
X173969323Y-112714435D01*
X173911958Y-112713994D01*
X173873407Y-112712584D01*
X173849931Y-112709642D01*
X173837791Y-112704602D01*
X173833249Y-112696900D01*
X173832566Y-112685972D01*
X173832637Y-112684446D01*
X173841256Y-112659328D01*
X173861448Y-112622863D01*
X173889200Y-112582388D01*
X173897396Y-112571186D01*
X173946157Y-112485930D01*
X173978832Y-112393144D01*
X173995355Y-112297239D01*
X173995656Y-112202627D01*
X173979670Y-112113718D01*
X173947329Y-112034924D01*
X173898564Y-111970657D01*
X173893442Y-111965720D01*
X173844970Y-111925322D01*
X173794553Y-111897065D01*
X173736520Y-111879131D01*
X173665197Y-111869704D01*
X173574912Y-111866965D01*
X173526447Y-111867109D01*
X173475383Y-111868371D01*
X173437918Y-111871943D01*
X173407334Y-111879006D01*
X173376915Y-111890743D01*
X173339941Y-111908338D01*
X173283687Y-111940540D01*
X173219463Y-111995865D01*
X173175437Y-112063180D01*
X173150116Y-112145016D01*
X173142007Y-112243905D01*
X173146332Y-112305697D01*
X173165963Y-112396303D01*
X173198836Y-112483742D01*
X173242079Y-112560842D01*
X173292818Y-112620432D01*
X173309109Y-112643840D01*
X173317786Y-112678748D01*
X173317786Y-112714469D01*
X172930366Y-112714469D01*
X172903190Y-112642274D01*
X172889655Y-112605404D01*
X172858630Y-112508430D01*
X172838669Y-112419276D01*
X172827904Y-112328035D01*
X172824466Y-112224800D01*
X172824967Y-112170755D01*
X172832075Y-112058489D01*
X172848673Y-111960075D01*
X172876213Y-111868412D01*
X172916146Y-111776402D01*
X172966036Y-111689733D01*
X173045455Y-111592530D01*
X173140309Y-111515051D01*
X173250718Y-111457221D01*
X173376801Y-111418967D01*
X173518676Y-111400214D01*
X173609921Y-111398653D01*
X173749270Y-111413435D01*
G37*
G36*
X173336988Y-99670096D02*
G01*
X173338712Y-99677560D01*
X173336872Y-99679063D01*
X173321971Y-99677560D01*
X173320007Y-99673784D01*
X173330342Y-99669190D01*
X173336988Y-99670096D01*
G37*
G36*
X173430786Y-99505967D02*
G01*
X173429880Y-99512614D01*
X173422416Y-99514337D01*
X173420913Y-99512497D01*
X173422416Y-99497596D01*
X173426193Y-99495632D01*
X173430786Y-99505967D01*
G37*
G36*
X173355453Y-98821686D02*
G01*
X173349175Y-98827964D01*
X173342897Y-98821686D01*
X173349175Y-98815408D01*
X173355453Y-98821686D01*
G37*
G36*
X173506120Y-99449467D02*
G01*
X173499842Y-99455744D01*
X173493564Y-99449467D01*
X173499842Y-99443189D01*
X173506120Y-99449467D01*
G37*
G36*
X169247428Y-111157915D02*
G01*
X169261304Y-111170505D01*
X169286754Y-111198549D01*
X169320543Y-111238365D01*
X169359437Y-111286268D01*
X169402247Y-111339438D01*
X169447496Y-111394507D01*
X169488034Y-111442768D01*
X169518475Y-111477741D01*
X169546851Y-111510324D01*
X169567545Y-111536253D01*
X169575651Y-111549433D01*
X169575041Y-111551578D01*
X169562437Y-111567849D01*
X169537941Y-111593298D01*
X169507358Y-111622513D01*
X169476491Y-111650081D01*
X169451143Y-111670592D01*
X169437117Y-111678631D01*
X169426670Y-111670670D01*
X169403659Y-111645996D01*
X169371450Y-111608264D01*
X169333034Y-111561203D01*
X169291401Y-111508544D01*
X169249542Y-111454018D01*
X169210447Y-111401354D01*
X169177105Y-111354283D01*
X169118357Y-111268491D01*
X169177054Y-111213032D01*
X169206392Y-111186540D01*
X169232397Y-111165598D01*
X169246381Y-111157573D01*
X169247428Y-111157915D01*
G37*
G36*
X173429795Y-99460976D02*
G01*
X173428907Y-99473711D01*
X173423201Y-99477455D01*
X173420713Y-99473013D01*
X173422210Y-99453390D01*
X173426729Y-99447579D01*
X173429795Y-99460976D01*
G37*
G36*
X173430786Y-99637801D02*
G01*
X173424509Y-99644079D01*
X173418231Y-99637801D01*
X173424509Y-99631523D01*
X173430786Y-99637801D01*
G37*
G36*
X173401116Y-108309965D02*
G01*
X173502679Y-108316685D01*
X173594519Y-108328298D01*
X173669138Y-108344561D01*
X173680510Y-108347952D01*
X173818656Y-108402572D01*
X173942357Y-108476917D01*
X174050200Y-108569313D01*
X174140771Y-108678084D01*
X174212656Y-108801555D01*
X174264442Y-108938051D01*
X174294714Y-109085898D01*
X174303863Y-109172887D01*
X174307393Y-109251991D01*
X174304698Y-109329944D01*
X174295818Y-109418621D01*
X174284170Y-109494399D01*
X174244990Y-109644141D01*
X174186557Y-109778092D01*
X174109316Y-109895740D01*
X174013714Y-109996575D01*
X173900195Y-110080084D01*
X173769205Y-110145757D01*
X173621190Y-110193082D01*
X173602521Y-110197324D01*
X173499405Y-110213057D01*
X173383492Y-110220423D01*
X173263814Y-110219433D01*
X173149402Y-110210097D01*
X173049286Y-110192426D01*
X173025698Y-110186420D01*
X172882266Y-110136502D01*
X172754487Y-110067849D01*
X172643383Y-109981386D01*
X172549980Y-109878038D01*
X172475300Y-109758729D01*
X172420367Y-109624384D01*
X172398855Y-109545207D01*
X172375192Y-109400955D01*
X172369555Y-109274781D01*
X172716670Y-109274781D01*
X172717865Y-109326761D01*
X172725392Y-109370644D01*
X172740706Y-109417602D01*
X172741317Y-109419213D01*
X172787180Y-109506506D01*
X172853290Y-109580327D01*
X172940296Y-109641248D01*
X173048844Y-109689841D01*
X173060013Y-109693504D01*
X173121343Y-109707240D01*
X173198769Y-109717373D01*
X173285134Y-109723535D01*
X173373281Y-109725355D01*
X173456054Y-109722465D01*
X173526297Y-109714493D01*
X173537052Y-109712544D01*
X173644641Y-109682270D01*
X173741094Y-109635588D01*
X173823164Y-109574855D01*
X173887605Y-109502425D01*
X173931172Y-109420654D01*
X173948140Y-109361436D01*
X173957645Y-109266502D01*
X173948470Y-109170944D01*
X173921469Y-109081389D01*
X173877497Y-109004463D01*
X173845615Y-108967625D01*
X173766112Y-108903360D01*
X173668518Y-108853872D01*
X173554778Y-108819834D01*
X173426838Y-108801914D01*
X173286643Y-108800785D01*
X173256533Y-108802666D01*
X173119741Y-108821044D01*
X173002633Y-108854464D01*
X172905369Y-108902802D01*
X172828111Y-108965934D01*
X172771016Y-109043734D01*
X172734247Y-109136078D01*
X172717962Y-109242843D01*
X172716670Y-109274781D01*
X172369555Y-109274781D01*
X172368557Y-109252452D01*
X172378505Y-109104606D01*
X172404587Y-108962327D01*
X172446355Y-108830523D01*
X172503363Y-108714103D01*
X172511645Y-108700682D01*
X172593696Y-108593936D01*
X172694872Y-108501555D01*
X172812893Y-108425049D01*
X172945477Y-108365929D01*
X173090343Y-108325703D01*
X173113092Y-108321612D01*
X173198823Y-108312184D01*
X173286643Y-108308795D01*
X173297331Y-108308383D01*
X173401116Y-108309965D01*
G37*
G36*
X170470893Y-107058309D02*
G01*
X170476212Y-107058840D01*
X170520436Y-107063933D01*
X170553126Y-107068855D01*
X170567541Y-107072610D01*
X170567506Y-107076106D01*
X170562336Y-107098472D01*
X170551617Y-107136922D01*
X170536952Y-107186237D01*
X170519942Y-107241197D01*
X170502189Y-107296582D01*
X170485292Y-107347174D01*
X170470855Y-107387751D01*
X170470667Y-107388707D01*
X170476037Y-107393162D01*
X170493676Y-107396682D01*
X170525724Y-107399359D01*
X170574320Y-107401283D01*
X170641604Y-107402545D01*
X170729717Y-107403236D01*
X170840799Y-107403446D01*
X171216622Y-107403446D01*
X171245412Y-107372800D01*
X171247122Y-107370966D01*
X171259568Y-107355421D01*
X171267128Y-107337756D01*
X171270661Y-107312236D01*
X171271026Y-107273122D01*
X171269082Y-107214676D01*
X171263961Y-107087197D01*
X171345113Y-107095888D01*
X171385234Y-107100729D01*
X171422328Y-107106366D01*
X171442910Y-107110966D01*
X171444573Y-107111838D01*
X171451652Y-107124108D01*
X171456276Y-107151702D01*
X171458794Y-107197870D01*
X171459556Y-107265860D01*
X171459513Y-107283143D01*
X171457718Y-107357588D01*
X171452490Y-107412968D01*
X171442745Y-107454261D01*
X171427395Y-107486446D01*
X171405358Y-107514500D01*
X171392328Y-107528290D01*
X171376028Y-107543632D01*
X171358385Y-107555992D01*
X171336757Y-107565739D01*
X171308504Y-107573241D01*
X171270986Y-107578869D01*
X171221561Y-107582989D01*
X171157590Y-107585972D01*
X171076432Y-107588185D01*
X170975446Y-107589998D01*
X170851991Y-107591780D01*
X170401372Y-107598058D01*
X170358784Y-107733031D01*
X170316195Y-107868003D01*
X170130695Y-107868003D01*
X170162231Y-107765313D01*
X170166770Y-107750606D01*
X170182585Y-107700359D01*
X170196230Y-107658423D01*
X170205159Y-107632662D01*
X170212583Y-107611809D01*
X170216550Y-107597240D01*
X170216498Y-107597126D01*
X170203095Y-107595437D01*
X170168687Y-107593969D01*
X170117130Y-107592812D01*
X170052280Y-107592053D01*
X169977994Y-107591780D01*
X169739437Y-107591780D01*
X169739437Y-107880559D01*
X169576214Y-107880559D01*
X169576214Y-107591780D01*
X169086545Y-107591780D01*
X169086545Y-107403446D01*
X169576214Y-107403446D01*
X169576214Y-107077000D01*
X169739437Y-107077000D01*
X169739437Y-107403446D01*
X170275898Y-107403446D01*
X170322213Y-107243362D01*
X170325530Y-107231904D01*
X170342910Y-107172102D01*
X170357818Y-107121182D01*
X170368760Y-107084227D01*
X170374242Y-107066318D01*
X170377221Y-107061369D01*
X170391650Y-107055391D01*
X170421285Y-107054502D01*
X170470893Y-107058309D01*
G37*
G36*
X174102881Y-98251312D02*
G01*
X174104604Y-98258776D01*
X174102764Y-98260279D01*
X174087863Y-98258776D01*
X174085899Y-98255000D01*
X174096234Y-98250406D01*
X174102881Y-98251312D01*
G37*
G36*
X170655997Y-113066026D02*
G01*
X170455107Y-113066026D01*
X170455107Y-113518028D01*
X170618330Y-113518028D01*
X170618330Y-113692608D01*
X170539857Y-113696346D01*
X170461385Y-113700084D01*
X170457962Y-113929224D01*
X170454540Y-114158364D01*
X170605774Y-114158364D01*
X170605774Y-114334143D01*
X169676659Y-114334143D01*
X169676659Y-114158364D01*
X169827326Y-114158364D01*
X170003105Y-114158364D01*
X170140650Y-114158364D01*
X170316995Y-114158364D01*
X170316995Y-113692659D01*
X170232245Y-113696372D01*
X170147494Y-113700084D01*
X170140650Y-114158364D01*
X170003105Y-114158364D01*
X170003105Y-113693807D01*
X169827326Y-113693807D01*
X169827326Y-114158364D01*
X169676659Y-114158364D01*
X169676659Y-113693807D01*
X169513436Y-113693807D01*
X169513436Y-114484810D01*
X169362769Y-114484810D01*
X169362769Y-113693807D01*
X169073990Y-113693807D01*
X169073990Y-113518028D01*
X169362769Y-113518028D01*
X169362769Y-112764691D01*
X169513436Y-112764691D01*
X169513436Y-113518028D01*
X169676659Y-113518028D01*
X169827326Y-113518028D01*
X170003105Y-113518028D01*
X170141216Y-113518028D01*
X170316995Y-113518028D01*
X170316995Y-113066026D01*
X170141216Y-113066026D01*
X170141216Y-113518028D01*
X170003105Y-113518028D01*
X170003105Y-113066026D01*
X169827326Y-113066026D01*
X169827326Y-113518028D01*
X169676659Y-113518028D01*
X169676659Y-112890248D01*
X170655997Y-112890248D01*
X170655997Y-113066026D01*
G37*
G36*
X172609759Y-98595991D02*
G01*
X172637623Y-98602587D01*
X172660299Y-98619640D01*
X172678659Y-98649592D01*
X172693576Y-98694886D01*
X172705923Y-98757964D01*
X172716573Y-98841269D01*
X172726399Y-98947242D01*
X172729007Y-98982168D01*
X172734796Y-99101696D01*
X172737055Y-99231453D01*
X172735953Y-99365571D01*
X172731655Y-99498180D01*
X172724330Y-99623412D01*
X172714145Y-99735398D01*
X172701268Y-99828269D01*
X172687113Y-99883719D01*
X172661997Y-99927790D01*
X172626068Y-99951130D01*
X172577674Y-99955441D01*
X172552816Y-99951955D01*
X172536789Y-99941878D01*
X172533060Y-99920302D01*
X172533066Y-99919139D01*
X172540013Y-99894427D01*
X172564449Y-99884571D01*
X172587071Y-99879338D01*
X172609942Y-99868659D01*
X172617171Y-99859524D01*
X172630503Y-99823958D01*
X172642175Y-99767942D01*
X172652059Y-99694560D01*
X172660030Y-99606894D01*
X172665961Y-99508026D01*
X172669725Y-99401039D01*
X172671197Y-99289014D01*
X172670250Y-99175035D01*
X172666757Y-99062183D01*
X172660593Y-98953541D01*
X172651629Y-98852191D01*
X172643511Y-98786850D01*
X172632873Y-98730379D01*
X172619854Y-98692591D01*
X172603197Y-98670014D01*
X172581642Y-98659173D01*
X172581336Y-98659096D01*
X172557953Y-98646856D01*
X172554217Y-98623491D01*
X172556941Y-98612080D01*
X172570378Y-98599024D01*
X172600761Y-98595685D01*
X172609759Y-98595991D01*
G37*
G36*
X172740228Y-107227667D02*
G01*
X173933011Y-107227667D01*
X173933011Y-106926333D01*
X174272012Y-106926333D01*
X174272012Y-108006115D01*
X173933011Y-108006115D01*
X173933011Y-107704780D01*
X172740228Y-107704780D01*
X172740228Y-108006115D01*
X172401226Y-108006115D01*
X172401226Y-106926333D01*
X172740228Y-106926333D01*
X172740228Y-107227667D01*
G37*
G36*
X171450901Y-99728829D02*
G01*
X171452977Y-99737794D01*
X171457897Y-99799928D01*
X171451185Y-99871046D01*
X171433721Y-99940309D01*
X171416586Y-99992775D01*
X171393246Y-100073130D01*
X171370867Y-100158987D01*
X171351234Y-100243027D01*
X171336131Y-100317934D01*
X171327343Y-100376390D01*
X171326513Y-100384052D01*
X171320183Y-100427504D01*
X171313144Y-100448272D01*
X171304725Y-100448497D01*
X171299046Y-100430417D01*
X171294636Y-100389590D01*
X171291761Y-100328565D01*
X171290595Y-100249799D01*
X171290586Y-100245840D01*
X171292922Y-100134662D01*
X171301229Y-100040793D01*
X171316824Y-99957090D01*
X171341027Y-99876410D01*
X171375155Y-99791607D01*
X171376080Y-99789529D01*
X171401564Y-99739569D01*
X171422943Y-99712456D01*
X171439596Y-99708704D01*
X171450901Y-99728829D01*
G37*
G36*
X169263698Y-114025356D02*
G01*
X169265309Y-114028546D01*
X169292244Y-114082750D01*
X169314500Y-114129144D01*
X169329807Y-114162888D01*
X169335893Y-114179144D01*
X169333480Y-114186025D01*
X169315668Y-114203363D01*
X169287008Y-114222927D01*
X169255149Y-114240285D01*
X169227743Y-114251004D01*
X169212441Y-114250654D01*
X169204223Y-114237118D01*
X169188303Y-114205302D01*
X169167836Y-114161548D01*
X169145372Y-114111628D01*
X169123460Y-114061313D01*
X169104652Y-114016375D01*
X169091497Y-113982587D01*
X169086545Y-113965719D01*
X169089768Y-113958705D01*
X169109036Y-113939996D01*
X169139907Y-113918491D01*
X169193268Y-113886069D01*
X169263698Y-114025356D01*
G37*
G36*
X173430786Y-99060243D02*
G01*
X173424509Y-99066520D01*
X173418231Y-99060243D01*
X173424509Y-99053965D01*
X173430786Y-99060243D01*
G37*
G36*
X172303868Y-99155103D02*
G01*
X172336425Y-99200581D01*
X172341792Y-99211787D01*
X172352997Y-99243433D01*
X172354486Y-99263889D01*
X172351530Y-99269230D01*
X172332099Y-99279292D01*
X172308315Y-99275167D01*
X172292201Y-99257994D01*
X172285064Y-99242672D01*
X172266391Y-99214991D01*
X172261925Y-99210008D01*
X172248495Y-99200988D01*
X172229473Y-99202197D01*
X172196105Y-99213441D01*
X172185648Y-99216803D01*
X172137784Y-99225999D01*
X172076886Y-99231831D01*
X172012113Y-99233919D01*
X171952625Y-99231885D01*
X171907584Y-99225353D01*
X171882856Y-99214220D01*
X171876326Y-99194767D01*
X171880655Y-99185987D01*
X171893600Y-99178839D01*
X171919140Y-99173634D01*
X171961446Y-99169556D01*
X172024689Y-99165792D01*
X172075447Y-99162302D01*
X172133423Y-99156187D01*
X172180216Y-99148913D01*
X172208868Y-99141401D01*
X172220466Y-99137088D01*
X172265267Y-99133962D01*
X172303868Y-99155103D01*
G37*
G36*
X174077769Y-100260210D02*
G01*
X174079493Y-100267674D01*
X174077653Y-100269177D01*
X174062752Y-100267674D01*
X174060788Y-100263897D01*
X174071123Y-100259303D01*
X174077769Y-100260210D01*
G37*
G36*
X173434544Y-99539933D02*
G01*
X173443342Y-99550652D01*
X173443016Y-99551905D01*
X173430786Y-99556189D01*
X173427345Y-99555678D01*
X173418231Y-99542893D01*
X173419217Y-99538351D01*
X173430786Y-99537356D01*
X173434544Y-99539933D01*
G37*
G36*
X170251078Y-108144941D02*
G01*
X170269128Y-108150192D01*
X170341201Y-108174319D01*
X170424010Y-108205664D01*
X170508841Y-108240674D01*
X170586982Y-108275796D01*
X170649719Y-108307478D01*
X170694591Y-108333586D01*
X170774925Y-108384903D01*
X170861730Y-108444944D01*
X170947643Y-108508735D01*
X170981899Y-108535149D01*
X171049746Y-108430716D01*
X171073714Y-108392639D01*
X171136282Y-108283557D01*
X171198311Y-108163002D01*
X171255183Y-108040232D01*
X171302280Y-107924504D01*
X171317673Y-107883511D01*
X171334745Y-107838894D01*
X171347035Y-107807789D01*
X171352589Y-107795220D01*
X171353920Y-107795305D01*
X171369699Y-107804290D01*
X171399028Y-107824205D01*
X171436934Y-107851720D01*
X171517765Y-107911948D01*
X171476377Y-108009730D01*
X171443084Y-108084964D01*
X171368843Y-108235885D01*
X171286202Y-108385752D01*
X171201508Y-108522721D01*
X171192241Y-108536777D01*
X171159198Y-108587346D01*
X171132448Y-108628989D01*
X171114535Y-108657713D01*
X171107998Y-108669528D01*
X171108722Y-108671319D01*
X171119616Y-108688436D01*
X171140875Y-108719001D01*
X171168981Y-108757916D01*
X171188081Y-108784317D01*
X171287260Y-108934801D01*
X171378302Y-109097711D01*
X171464802Y-109279381D01*
X171494366Y-109346231D01*
X171404213Y-109421465D01*
X171314061Y-109496699D01*
X171272859Y-109376049D01*
X171265762Y-109355737D01*
X171239531Y-109285664D01*
X171210653Y-109214170D01*
X171184197Y-109153948D01*
X171167256Y-109119510D01*
X171137191Y-109063309D01*
X171103243Y-109003929D01*
X171068512Y-108946459D01*
X171036100Y-108895984D01*
X171009108Y-108857594D01*
X170990637Y-108836376D01*
X170980486Y-108833944D01*
X170960001Y-108842668D01*
X170927878Y-108865910D01*
X170881252Y-108905477D01*
X170858180Y-108925417D01*
X170763332Y-109000454D01*
X170661277Y-109071662D01*
X170555665Y-109137137D01*
X170450144Y-109194976D01*
X170348365Y-109243274D01*
X170253977Y-109280130D01*
X170170629Y-109303639D01*
X170101972Y-109311899D01*
X170028216Y-109311899D01*
X170028216Y-108784563D01*
X169651548Y-108784563D01*
X169651548Y-109450010D01*
X169475769Y-109450010D01*
X169475769Y-108784563D01*
X169073990Y-108784563D01*
X169073990Y-108596229D01*
X169475769Y-108596229D01*
X169475769Y-107955893D01*
X169651548Y-107955893D01*
X169651548Y-108596229D01*
X170028216Y-108596229D01*
X170028216Y-108308651D01*
X170191439Y-108308651D01*
X170191439Y-109100145D01*
X170219689Y-109091795D01*
X170231782Y-109087995D01*
X170292246Y-109064825D01*
X170364417Y-109032267D01*
X170440907Y-108993976D01*
X170514329Y-108953609D01*
X170577295Y-108914821D01*
X170598325Y-108900427D01*
X170660398Y-108854528D01*
X170722464Y-108804588D01*
X170773780Y-108759119D01*
X170860399Y-108676520D01*
X170780170Y-108613388D01*
X170776069Y-108610167D01*
X170645860Y-108515426D01*
X170518919Y-108439094D01*
X170387735Y-108377135D01*
X170244800Y-108325509D01*
X170191439Y-108308651D01*
X170028216Y-108308651D01*
X170028216Y-107955893D01*
X170191439Y-107955893D01*
X170191439Y-108128408D01*
X170251078Y-108144941D01*
G37*
G36*
X173506120Y-99411800D02*
G01*
X173499842Y-99418078D01*
X173493564Y-99411800D01*
X173499842Y-99405522D01*
X173506120Y-99411800D01*
G37*
G36*
X173725330Y-112928405D02*
G01*
X173857173Y-112961063D01*
X173974577Y-113013440D01*
X174076562Y-113084710D01*
X174162150Y-113174046D01*
X174230361Y-113280622D01*
X174280216Y-113403613D01*
X174310736Y-113542193D01*
X174310967Y-113543862D01*
X174315881Y-113610453D01*
X174315746Y-113691884D01*
X174311059Y-113778789D01*
X174302318Y-113861800D01*
X174290022Y-113931552D01*
X174259575Y-114030377D01*
X174202708Y-114143054D01*
X174126524Y-114240532D01*
X174032215Y-114321615D01*
X173920973Y-114385105D01*
X173793992Y-114429802D01*
X173758986Y-114437208D01*
X173680261Y-114446633D01*
X173590590Y-114450580D01*
X173498763Y-114449053D01*
X173413571Y-114442056D01*
X173343804Y-114429593D01*
X173243147Y-114396612D01*
X173128187Y-114337333D01*
X173030174Y-114259783D01*
X172949872Y-114164739D01*
X172888052Y-114052977D01*
X172845479Y-113925274D01*
X172837835Y-113886770D01*
X172828213Y-113802898D01*
X172824118Y-113708573D01*
X172824486Y-113683987D01*
X173129728Y-113683987D01*
X173132395Y-113732130D01*
X173150857Y-113807726D01*
X173188317Y-113869120D01*
X173246469Y-113918669D01*
X173327007Y-113958732D01*
X173331371Y-113960422D01*
X173365244Y-113971933D01*
X173399839Y-113979700D01*
X173441251Y-113984457D01*
X173495572Y-113986940D01*
X173568898Y-113987881D01*
X173595888Y-113987932D01*
X173668649Y-113986761D01*
X173723533Y-113983166D01*
X173766016Y-113976651D01*
X173801575Y-113966717D01*
X173817211Y-113960845D01*
X173888019Y-113922615D01*
X173945804Y-113871992D01*
X173984579Y-113813973D01*
X173993905Y-113790487D01*
X174008882Y-113714765D01*
X174004785Y-113637233D01*
X173983081Y-113563685D01*
X173945239Y-113499914D01*
X173892728Y-113451711D01*
X173868265Y-113436668D01*
X173825546Y-113415539D01*
X173779729Y-113401039D01*
X173725335Y-113392057D01*
X173656884Y-113387488D01*
X173568898Y-113386222D01*
X173524590Y-113386611D01*
X173435698Y-113390962D01*
X173364875Y-113401128D01*
X173307411Y-113418338D01*
X173258594Y-113443819D01*
X173213713Y-113478799D01*
X173185877Y-113506483D01*
X173152385Y-113555272D01*
X173134721Y-113611868D01*
X173129728Y-113683987D01*
X172824486Y-113683987D01*
X172825557Y-113612530D01*
X172832538Y-113523505D01*
X172845070Y-113450233D01*
X172861576Y-113392027D01*
X172913054Y-113270468D01*
X172982814Y-113165475D01*
X173069800Y-113077825D01*
X173172957Y-113008297D01*
X173291229Y-112957671D01*
X173423561Y-112926724D01*
X173568898Y-112916235D01*
X173580026Y-112916292D01*
X173725330Y-112928405D01*
G37*
G36*
X174272012Y-115238147D02*
G01*
X173258725Y-115238147D01*
X173219200Y-115323899D01*
X173202667Y-115364127D01*
X173181399Y-115446715D01*
X173178375Y-115523137D01*
X173193103Y-115590153D01*
X173225089Y-115644524D01*
X173273841Y-115683009D01*
X173274843Y-115683525D01*
X173288864Y-115690126D01*
X173304407Y-115695514D01*
X173324091Y-115699840D01*
X173350540Y-115703253D01*
X173386372Y-115705902D01*
X173434210Y-115707938D01*
X173496674Y-115709510D01*
X173576387Y-115710767D01*
X173675967Y-115711859D01*
X173798038Y-115712936D01*
X174272012Y-115716890D01*
X174272012Y-116167262D01*
X173256855Y-116167262D01*
X173221434Y-116239457D01*
X173201010Y-116287546D01*
X173187922Y-116340765D01*
X173182206Y-116405819D01*
X173181934Y-116413483D01*
X173184849Y-116486934D01*
X173199922Y-116541920D01*
X173228979Y-116582563D01*
X173273841Y-116612986D01*
X173286847Y-116618968D01*
X173302594Y-116624366D01*
X173322490Y-116628720D01*
X173349156Y-116632173D01*
X173385211Y-116634873D01*
X173433276Y-116636965D01*
X173495971Y-116638594D01*
X173575916Y-116639907D01*
X173675732Y-116641050D01*
X173798038Y-116642168D01*
X174272012Y-116646239D01*
X174272012Y-117099029D01*
X173741538Y-117092973D01*
X173701726Y-117092513D01*
X173570958Y-117090849D01*
X173461987Y-117089025D01*
X173372209Y-117086781D01*
X173299020Y-117083862D01*
X173239816Y-117080009D01*
X173191994Y-117074965D01*
X173152950Y-117068473D01*
X173120080Y-117060275D01*
X173090781Y-117050114D01*
X173062448Y-117037733D01*
X173032479Y-117022873D01*
X172980552Y-116990178D01*
X172914930Y-116925826D01*
X172865132Y-116846195D01*
X172832760Y-116754949D01*
X172819416Y-116655751D01*
X172826701Y-116552263D01*
X172834689Y-116517231D01*
X172861522Y-116440057D01*
X172900619Y-116355586D01*
X172948545Y-116270866D01*
X173001865Y-116192940D01*
X173063478Y-116111895D01*
X173010968Y-116078594D01*
X172978910Y-116055638D01*
X172913539Y-115988193D01*
X172864022Y-115905534D01*
X172831991Y-115811835D01*
X172819079Y-115711271D01*
X172826919Y-115608014D01*
X172828787Y-115598559D01*
X172850328Y-115526079D01*
X172884274Y-115445688D01*
X172926404Y-115366397D01*
X172972496Y-115297219D01*
X173017602Y-115238147D01*
X172865784Y-115238147D01*
X172865784Y-114786145D01*
X174272012Y-114786145D01*
X174272012Y-115238147D01*
G37*
G36*
X171075950Y-113034228D02*
G01*
X171091240Y-113054991D01*
X171118990Y-113092355D01*
X171153993Y-113139288D01*
X171192116Y-113190241D01*
X171192433Y-113190664D01*
X171227472Y-113237894D01*
X171256249Y-113277574D01*
X171275796Y-113305548D01*
X171283145Y-113317663D01*
X171276463Y-113327754D01*
X171256063Y-113350541D01*
X171226639Y-113380441D01*
X171169501Y-113436417D01*
X171145254Y-113405028D01*
X171127673Y-113381602D01*
X171097263Y-113339269D01*
X171063248Y-113290436D01*
X171028648Y-113239602D01*
X170996482Y-113191266D01*
X170969769Y-113149927D01*
X170951527Y-113120086D01*
X170944776Y-113106240D01*
X170949496Y-113096950D01*
X170968639Y-113074499D01*
X170997477Y-113046446D01*
X171050179Y-112998833D01*
X171075950Y-113034228D01*
G37*
G36*
X173506120Y-99480856D02*
G01*
X173505214Y-99487503D01*
X173497750Y-99489226D01*
X173496247Y-99487386D01*
X173497750Y-99472485D01*
X173501526Y-99470521D01*
X173506120Y-99480856D01*
G37*
G36*
X174150930Y-98248284D02*
G01*
X174161946Y-98251454D01*
X174169535Y-98256169D01*
X174154051Y-98260586D01*
X174151758Y-98261076D01*
X174138215Y-98267249D01*
X174147773Y-98277744D01*
X174148861Y-98278507D01*
X174158908Y-98286986D01*
X174147553Y-98285209D01*
X174139216Y-98280899D01*
X174126916Y-98260666D01*
X174130452Y-98247099D01*
X174150930Y-98248284D01*
G37*
G36*
X173437724Y-98343830D02*
G01*
X173537901Y-98294820D01*
X173654552Y-98243910D01*
X173785083Y-98192240D01*
X173926897Y-98140948D01*
X174077400Y-98091172D01*
X174103790Y-98082833D01*
X174164626Y-98063580D01*
X174215668Y-98047389D01*
X174252197Y-98035757D01*
X174269495Y-98030182D01*
X174278866Y-98033226D01*
X174282808Y-98053276D01*
X174282051Y-98094234D01*
X174278290Y-98163753D01*
X174190401Y-98194397D01*
X174186418Y-98195787D01*
X174141146Y-98211874D01*
X174104355Y-98225417D01*
X174083678Y-98233611D01*
X174066983Y-98239293D01*
X174035143Y-98245653D01*
X174015218Y-98249251D01*
X173998873Y-98255692D01*
X173998120Y-98260425D01*
X174011501Y-98269654D01*
X174036482Y-98277751D01*
X174064479Y-98282271D01*
X174086909Y-98280769D01*
X174103558Y-98278122D01*
X174102444Y-98288183D01*
X174101178Y-98293103D01*
X174111012Y-98298558D01*
X174139090Y-98300288D01*
X174188761Y-98298700D01*
X174284568Y-98293862D01*
X174284568Y-100246748D01*
X174258716Y-100246748D01*
X174244189Y-100244789D01*
X174238677Y-100237331D01*
X174238676Y-100232016D01*
X174222707Y-100226204D01*
X174191435Y-100224788D01*
X174150833Y-100227523D01*
X174106877Y-100234163D01*
X174065542Y-100244460D01*
X173991504Y-100267909D01*
X174031667Y-100281910D01*
X174033161Y-100282420D01*
X174066804Y-100289555D01*
X174092369Y-100288029D01*
X174103187Y-100285528D01*
X174105214Y-100292597D01*
X174104907Y-100294212D01*
X174116887Y-100304920D01*
X174147183Y-100319495D01*
X174191005Y-100335537D01*
X174284490Y-100366026D01*
X174284529Y-100413956D01*
X174283381Y-100440464D01*
X174277061Y-100455508D01*
X174262596Y-100455539D01*
X174259270Y-100454597D01*
X174233632Y-100447530D01*
X174190312Y-100435715D01*
X174134435Y-100420549D01*
X174071123Y-100403425D01*
X173911496Y-100358520D01*
X173761493Y-100311896D01*
X173632967Y-100266538D01*
X173524103Y-100221754D01*
X173433083Y-100176849D01*
X173358090Y-100131130D01*
X173321335Y-100099960D01*
X173274278Y-100045138D01*
X173233005Y-99981668D01*
X173203943Y-99918417D01*
X173188092Y-99872587D01*
X173138978Y-99968639D01*
X173113655Y-100017384D01*
X173060500Y-100113010D01*
X173009407Y-100193513D01*
X172956088Y-100264851D01*
X172896256Y-100332978D01*
X172825620Y-100403851D01*
X172779726Y-100447064D01*
X172723558Y-100496453D01*
X172672411Y-100535820D01*
X172619427Y-100570319D01*
X172557747Y-100605103D01*
X172506697Y-100632678D01*
X172467853Y-100654962D01*
X172444095Y-100671709D01*
X172431701Y-100686216D01*
X172426949Y-100701780D01*
X172426120Y-100721698D01*
X172423887Y-100753360D01*
X172417239Y-100802046D01*
X172407753Y-100853457D01*
X172391108Y-100914816D01*
X172346316Y-101011002D01*
X172280954Y-101093241D01*
X172194059Y-101162930D01*
X172108617Y-101211486D01*
X172016896Y-101244940D01*
X171923900Y-101257609D01*
X171824019Y-101250825D01*
X171766919Y-101237753D01*
X171694898Y-101211987D01*
X171624799Y-101178512D01*
X171564272Y-101141052D01*
X171520965Y-101103330D01*
X171512675Y-101094024D01*
X171490325Y-101072810D01*
X171472698Y-101067235D01*
X171451697Y-101073854D01*
X171417803Y-101083713D01*
X171377824Y-101087974D01*
X171358643Y-101089480D01*
X171314593Y-101098080D01*
X171268554Y-101111763D01*
X171257711Y-101115574D01*
X171148456Y-101147728D01*
X171020656Y-101176075D01*
X170880051Y-101199882D01*
X170732385Y-101218414D01*
X170583399Y-101230936D01*
X170438837Y-101236716D01*
X170304439Y-101235019D01*
X170281681Y-101233864D01*
X170130280Y-101219234D01*
X169983343Y-101193467D01*
X169845842Y-101157818D01*
X169722750Y-101113544D01*
X169619041Y-101061899D01*
X169594231Y-101046042D01*
X169524508Y-100992365D01*
X169488887Y-100959682D01*
X171556126Y-100959682D01*
X171556275Y-100976249D01*
X171568987Y-100995402D01*
X171597026Y-101024554D01*
X171617575Y-101043272D01*
X171665403Y-101079673D01*
X171713378Y-101109220D01*
X171732296Y-101118768D01*
X171764503Y-101132000D01*
X171797659Y-101139576D01*
X171839811Y-101142993D01*
X171899002Y-101143748D01*
X171939592Y-101143426D01*
X171985938Y-101141163D01*
X172020378Y-101135365D01*
X172050886Y-101124453D01*
X172085432Y-101106849D01*
X172120822Y-101084868D01*
X172190452Y-101025632D01*
X172248202Y-100954809D01*
X172287551Y-100879728D01*
X172296917Y-100851222D01*
X172308722Y-100801342D01*
X172313337Y-100760211D01*
X172313337Y-100759894D01*
X172311739Y-100728093D01*
X172304952Y-100715674D01*
X172289944Y-100717038D01*
X172252484Y-100727036D01*
X172180482Y-100741009D01*
X172090090Y-100754181D01*
X171985252Y-100766000D01*
X171869916Y-100775912D01*
X171658774Y-100791446D01*
X171642721Y-100829848D01*
X171625315Y-100861817D01*
X171605062Y-100886170D01*
X171585447Y-100907854D01*
X171565238Y-100939318D01*
X171556126Y-100959682D01*
X169488887Y-100959682D01*
X169451305Y-100925199D01*
X169380678Y-100850762D01*
X169318685Y-100775274D01*
X169271382Y-100704952D01*
X169244853Y-100661844D01*
X169205769Y-100609900D01*
X169171898Y-100580098D01*
X169157657Y-100571310D01*
X169081976Y-100511418D01*
X169007354Y-100431924D01*
X168936876Y-100337340D01*
X168873626Y-100232180D01*
X168820689Y-100120959D01*
X168813685Y-100100985D01*
X170595171Y-100100985D01*
X170600055Y-100107537D01*
X170613873Y-100108636D01*
X170641332Y-100115083D01*
X170683677Y-100132639D01*
X170734589Y-100158069D01*
X170787993Y-100188140D01*
X170837812Y-100219614D01*
X170877970Y-100249258D01*
X170880202Y-100251129D01*
X170921314Y-100289874D01*
X170966576Y-100338643D01*
X171006591Y-100387344D01*
X171014902Y-100398157D01*
X171073324Y-100463969D01*
X171138082Y-100517909D01*
X171213868Y-100562829D01*
X171305375Y-100601581D01*
X171417296Y-100637019D01*
X171427834Y-100639927D01*
X171501984Y-100657641D01*
X171569757Y-100669386D01*
X171622621Y-100673639D01*
X171652758Y-100673188D01*
X171684279Y-100669514D01*
X171703542Y-100659935D01*
X171718357Y-100641858D01*
X171718730Y-100641287D01*
X171731736Y-100618290D01*
X171734341Y-100606957D01*
X171732168Y-100605770D01*
X171713311Y-100596691D01*
X171682985Y-100582712D01*
X171671634Y-100577112D01*
X171639391Y-100553079D01*
X171616140Y-100518188D01*
X171599432Y-100467705D01*
X171586818Y-100396897D01*
X171578253Y-100325677D01*
X171568698Y-100205321D01*
X171564306Y-100082261D01*
X171564606Y-100016835D01*
X171613282Y-100016835D01*
X171614682Y-100127144D01*
X171619214Y-100233547D01*
X171626815Y-100330785D01*
X171637422Y-100413596D01*
X171650972Y-100476722D01*
X171652132Y-100480557D01*
X171672678Y-100520882D01*
X171706126Y-100546143D01*
X171755786Y-100557879D01*
X171824970Y-100557631D01*
X171845949Y-100555718D01*
X171918328Y-100540093D01*
X171973772Y-100509977D01*
X172014479Y-100463055D01*
X172042648Y-100397010D01*
X172060477Y-100309526D01*
X172063414Y-100285905D01*
X172070638Y-100208101D01*
X172076098Y-100119583D01*
X172079577Y-100027484D01*
X172080859Y-99938936D01*
X172079725Y-99861071D01*
X172075960Y-99801024D01*
X172069489Y-99756027D01*
X172043202Y-99667122D01*
X172000577Y-99596973D01*
X171941212Y-99545030D01*
X171864708Y-99510742D01*
X171844506Y-99504991D01*
X171777623Y-99493024D01*
X171726748Y-99498751D01*
X171688954Y-99523846D01*
X171661314Y-99569984D01*
X171640901Y-99638840D01*
X171640272Y-99641741D01*
X171628510Y-99715074D01*
X171620133Y-99805540D01*
X171615078Y-99907881D01*
X171613282Y-100016835D01*
X171564606Y-100016835D01*
X171564864Y-99960432D01*
X171570163Y-99843768D01*
X171579990Y-99736205D01*
X171594135Y-99641676D01*
X171612386Y-99564118D01*
X171634533Y-99507464D01*
X171634733Y-99507095D01*
X171657317Y-99482101D01*
X171689706Y-99462124D01*
X171729501Y-99445519D01*
X171721965Y-99066515D01*
X171685300Y-99047554D01*
X171671392Y-99039187D01*
X171645231Y-99014215D01*
X171623885Y-98977680D01*
X171606551Y-98926875D01*
X171592421Y-98859093D01*
X171580692Y-98771626D01*
X171570558Y-98661767D01*
X171570056Y-98655206D01*
X171565602Y-98565694D01*
X171564443Y-98467505D01*
X171564517Y-98463508D01*
X171611900Y-98463508D01*
X171613067Y-98573124D01*
X171617433Y-98678278D01*
X171624997Y-98773858D01*
X171635761Y-98854753D01*
X171649723Y-98915853D01*
X171669208Y-98960374D01*
X171704212Y-98998078D01*
X171751930Y-99015516D01*
X171813532Y-99013055D01*
X171890185Y-98991058D01*
X171935986Y-98969957D01*
X171991692Y-98927157D01*
X172032476Y-98868999D01*
X172059940Y-98792942D01*
X172075683Y-98696445D01*
X172078918Y-98660703D01*
X172083659Y-98585317D01*
X172084566Y-98512548D01*
X172081617Y-98433254D01*
X172074788Y-98338295D01*
X172063992Y-98230675D01*
X172050082Y-98144349D01*
X172031365Y-98078144D01*
X172006039Y-98029566D01*
X171972301Y-97996121D01*
X171928348Y-97975316D01*
X171872380Y-97964655D01*
X171802593Y-97961646D01*
X171753509Y-97962622D01*
X171710094Y-97968135D01*
X171681939Y-97981015D01*
X171663620Y-98004038D01*
X171649715Y-98039985D01*
X171639221Y-98082644D01*
X171627592Y-98158998D01*
X171619163Y-98251334D01*
X171613932Y-98354541D01*
X171611900Y-98463508D01*
X171564517Y-98463508D01*
X171566318Y-98366260D01*
X171570971Y-98267581D01*
X171578142Y-98177089D01*
X171587574Y-98100405D01*
X171599007Y-98043151D01*
X171603835Y-98028011D01*
X171630015Y-97978581D01*
X171666059Y-97939650D01*
X171705766Y-97918459D01*
X171705933Y-97918417D01*
X171730597Y-97907753D01*
X171732224Y-97891958D01*
X171711147Y-97867893D01*
X171710599Y-97867401D01*
X171698732Y-97859106D01*
X171682250Y-97853452D01*
X171657059Y-97850130D01*
X171619064Y-97848831D01*
X171564171Y-97849246D01*
X171488285Y-97851065D01*
X171453175Y-97852065D01*
X171386575Y-97854445D01*
X171337875Y-97857503D01*
X171302020Y-97862012D01*
X171273958Y-97868746D01*
X171248635Y-97878478D01*
X171220999Y-97891982D01*
X171145484Y-97933489D01*
X171036822Y-98006847D01*
X170950104Y-98086292D01*
X170883421Y-98174068D01*
X170834864Y-98272417D01*
X170802523Y-98383582D01*
X170802402Y-98384158D01*
X170793439Y-98430111D01*
X170790565Y-98457812D01*
X170793825Y-98473316D01*
X170803265Y-98482685D01*
X170832060Y-98502911D01*
X170859386Y-98529174D01*
X170874380Y-98559526D01*
X170883070Y-98603061D01*
X170883695Y-98607636D01*
X170889264Y-98670445D01*
X170892436Y-98751250D01*
X170893295Y-98843641D01*
X170891924Y-98941207D01*
X170888407Y-99037538D01*
X170882828Y-99126223D01*
X170875270Y-99200850D01*
X170857864Y-99310219D01*
X170825450Y-99460876D01*
X170783838Y-99615581D01*
X170735219Y-99767046D01*
X170681785Y-99907981D01*
X170625725Y-100031098D01*
X170615187Y-100051986D01*
X170599966Y-100084095D01*
X170595171Y-100100985D01*
X168813685Y-100100985D01*
X168781149Y-100008191D01*
X168763701Y-99934420D01*
X168745978Y-99825563D01*
X168732634Y-99702077D01*
X168723913Y-99569576D01*
X168720056Y-99433674D01*
X168721309Y-99299984D01*
X168727913Y-99174119D01*
X168740114Y-99061693D01*
X168752552Y-98984110D01*
X168807091Y-98743197D01*
X168884427Y-98512473D01*
X168984969Y-98290844D01*
X169109128Y-98077217D01*
X169109574Y-98076529D01*
X169161097Y-98000096D01*
X169211866Y-97932037D01*
X169266059Y-97867678D01*
X169287204Y-97845323D01*
X171759923Y-97845323D01*
X171774237Y-97876739D01*
X171775942Y-97880316D01*
X171789860Y-97898394D01*
X171802593Y-97903949D01*
X171813570Y-97908737D01*
X171854730Y-97914985D01*
X171866711Y-97916423D01*
X171944233Y-97936492D01*
X172008680Y-97972376D01*
X172055230Y-98021514D01*
X172069766Y-98047189D01*
X172086159Y-98089538D01*
X172098765Y-98142700D01*
X172107943Y-98209518D01*
X172114055Y-98292836D01*
X172117461Y-98395500D01*
X172118523Y-98520351D01*
X172118476Y-98585589D01*
X172118062Y-98661343D01*
X172116938Y-98718554D01*
X172114767Y-98761105D01*
X172111212Y-98792881D01*
X172105938Y-98817764D01*
X172098607Y-98839638D01*
X172088883Y-98862387D01*
X172076475Y-98886447D01*
X172045236Y-98933451D01*
X172012144Y-98970732D01*
X171987507Y-98989664D01*
X171940439Y-99017434D01*
X171887678Y-99042102D01*
X171837882Y-99059765D01*
X171799708Y-99066520D01*
X171793185Y-99067248D01*
X171781900Y-99076330D01*
X171774220Y-99100003D01*
X171767978Y-99143522D01*
X171767232Y-99150863D01*
X171764612Y-99204406D01*
X171764829Y-99268464D01*
X171767889Y-99330746D01*
X171776511Y-99440969D01*
X171777623Y-99441176D01*
X171822062Y-99449442D01*
X171894149Y-99469030D01*
X171975791Y-99511748D01*
X172041428Y-99573750D01*
X172091463Y-99655342D01*
X172095445Y-99664179D01*
X172103316Y-99684715D01*
X172109140Y-99707556D01*
X172113222Y-99736502D01*
X172115866Y-99775354D01*
X172117377Y-99827913D01*
X172118058Y-99897981D01*
X172118216Y-99989358D01*
X172118072Y-100042696D01*
X172116403Y-100155719D01*
X172112516Y-100247917D01*
X172105982Y-100322288D01*
X172096372Y-100381832D01*
X172083253Y-100429547D01*
X172066198Y-100468432D01*
X172044776Y-100501486D01*
X172042982Y-100503804D01*
X171988632Y-100553538D01*
X171919666Y-100585644D01*
X171841378Y-100597622D01*
X171811989Y-100599664D01*
X171789453Y-100609324D01*
X171774991Y-100631316D01*
X171766073Y-100655793D01*
X171765379Y-100669757D01*
X171768458Y-100670766D01*
X171791579Y-100671218D01*
X171832542Y-100668984D01*
X171886273Y-100664584D01*
X171947702Y-100658540D01*
X172011756Y-100651372D01*
X172073363Y-100643600D01*
X172127451Y-100635746D01*
X172168948Y-100628329D01*
X172304952Y-100593764D01*
X172309044Y-100592724D01*
X172442795Y-100542825D01*
X172563191Y-100478327D01*
X172675441Y-100396404D01*
X172784756Y-100294230D01*
X172861186Y-100207584D01*
X172963637Y-100062054D01*
X173048990Y-99902049D01*
X173114975Y-99732217D01*
X173287792Y-99732217D01*
X173293330Y-99739545D01*
X173309334Y-99739049D01*
X173313150Y-99738479D01*
X173344529Y-99729092D01*
X173380481Y-99713247D01*
X173384927Y-99710929D01*
X173408909Y-99696903D01*
X173412866Y-99688542D01*
X173399314Y-99681620D01*
X173386902Y-99676148D01*
X173389256Y-99670587D01*
X173414043Y-99663922D01*
X173415172Y-99663665D01*
X173444593Y-99652132D01*
X173460732Y-99637034D01*
X173462429Y-99629422D01*
X173455337Y-99620357D01*
X173431483Y-99617158D01*
X173386842Y-99618835D01*
X173384953Y-99618953D01*
X173361995Y-99618239D01*
X173356828Y-99613559D01*
X173362840Y-99610816D01*
X173388645Y-99606055D01*
X173425884Y-99602944D01*
X173448200Y-99601660D01*
X173474681Y-99597091D01*
X173486719Y-99586336D01*
X173491280Y-99565393D01*
X173497383Y-99543123D01*
X173506781Y-99537764D01*
X173515463Y-99536571D01*
X173532014Y-99519891D01*
X173549442Y-99492377D01*
X173563227Y-99461521D01*
X173568851Y-99434818D01*
X173571714Y-99417642D01*
X173583156Y-99402862D01*
X173585068Y-99399557D01*
X173572366Y-99391439D01*
X173547110Y-99381696D01*
X173516544Y-99372657D01*
X173487910Y-99366648D01*
X173468453Y-99365999D01*
X173459988Y-99366826D01*
X173458847Y-99360868D01*
X173458951Y-99360759D01*
X173455687Y-99349174D01*
X173435439Y-99334563D01*
X173424637Y-99329039D01*
X173401320Y-99319321D01*
X173393589Y-99323559D01*
X173396758Y-99342744D01*
X173398693Y-99357820D01*
X173393370Y-99367855D01*
X173390257Y-99370041D01*
X173382214Y-99389437D01*
X173375239Y-99422375D01*
X173373606Y-99433141D01*
X173366798Y-99476158D01*
X173361013Y-99510265D01*
X173360162Y-99515397D01*
X173361545Y-99537879D01*
X173377180Y-99544885D01*
X173378443Y-99544967D01*
X173385427Y-99548221D01*
X173368008Y-99554868D01*
X173348029Y-99564813D01*
X173336619Y-99588144D01*
X173334991Y-99602704D01*
X173326580Y-99620093D01*
X173322611Y-99625230D01*
X173311457Y-99649450D01*
X173299295Y-99684799D01*
X173291615Y-99711088D01*
X173287792Y-99732217D01*
X173114975Y-99732217D01*
X173115260Y-99731484D01*
X173160457Y-99554274D01*
X173164074Y-99532972D01*
X173171219Y-99478099D01*
X173177662Y-99413171D01*
X173183037Y-99344021D01*
X173186975Y-99276481D01*
X173187557Y-99260086D01*
X173286397Y-99260086D01*
X173286400Y-99270057D01*
X173286606Y-99343898D01*
X173287101Y-99407606D01*
X173287831Y-99457435D01*
X173288745Y-99489642D01*
X173289789Y-99500482D01*
X173290348Y-99499327D01*
X173295048Y-99481157D01*
X173302636Y-99445984D01*
X173311761Y-99399979D01*
X173312437Y-99396408D01*
X173321335Y-99341387D01*
X173327397Y-99289168D01*
X173329343Y-99250611D01*
X173328833Y-99244191D01*
X173399397Y-99244191D01*
X173401320Y-99245260D01*
X173430786Y-99261634D01*
X173455910Y-99273445D01*
X173477870Y-99279521D01*
X173488218Y-99271975D01*
X173493564Y-99248577D01*
X173493176Y-99237446D01*
X173487106Y-99221138D01*
X173469430Y-99219434D01*
X173434743Y-99230689D01*
X173399397Y-99244191D01*
X173328833Y-99244191D01*
X173326961Y-99220635D01*
X173320051Y-99170868D01*
X173310390Y-99115269D01*
X173300295Y-99066520D01*
X173368008Y-99066520D01*
X173371922Y-99082395D01*
X173392379Y-99091632D01*
X173406751Y-99093470D01*
X173423785Y-99103016D01*
X173422685Y-99108657D01*
X173405693Y-99107830D01*
X173405592Y-99107804D01*
X173385875Y-99108306D01*
X173380564Y-99127834D01*
X173384095Y-99143807D01*
X173399397Y-99154410D01*
X173408118Y-99152624D01*
X173418423Y-99138715D01*
X173420523Y-99131289D01*
X173430162Y-99141274D01*
X173432065Y-99144098D01*
X173446521Y-99153058D01*
X173469430Y-99145638D01*
X173470776Y-99145202D01*
X173493475Y-99135167D01*
X173526932Y-99123332D01*
X173538699Y-99119061D01*
X173559168Y-99098265D01*
X173559382Y-99063382D01*
X173554182Y-99052921D01*
X173539457Y-99045735D01*
X173510246Y-99042293D01*
X173461255Y-99041409D01*
X173445736Y-99041442D01*
X173403889Y-99042500D01*
X173380470Y-99046093D01*
X173370253Y-99053631D01*
X173368008Y-99066520D01*
X173300295Y-99066520D01*
X173299755Y-99063910D01*
X173289918Y-99026861D01*
X173289756Y-99026632D01*
X173288691Y-99038529D01*
X173287769Y-99071420D01*
X173287043Y-99121709D01*
X173286567Y-99185796D01*
X173286397Y-99260086D01*
X173187557Y-99260086D01*
X173189107Y-99216385D01*
X173189067Y-99169565D01*
X173186485Y-99141854D01*
X173185252Y-99135817D01*
X173180471Y-99106916D01*
X173173884Y-99062894D01*
X173166534Y-99010604D01*
X173146371Y-98903999D01*
X173136359Y-98869537D01*
X173305909Y-98869537D01*
X173316869Y-98900329D01*
X173323189Y-98913297D01*
X173335830Y-98945462D01*
X173339492Y-98953901D01*
X173355139Y-98964164D01*
X173386969Y-98963678D01*
X173388756Y-98963477D01*
X173419552Y-98963823D01*
X173430786Y-98972700D01*
X173421133Y-98981325D01*
X173393120Y-98981309D01*
X173376226Y-98979529D01*
X173359435Y-98984093D01*
X173355453Y-99002317D01*
X173355455Y-99002940D01*
X173362460Y-99023191D01*
X173386842Y-99028854D01*
X173407542Y-99024953D01*
X173418423Y-99013159D01*
X173420295Y-99004468D01*
X173429084Y-99013974D01*
X173429286Y-99014283D01*
X173450597Y-99025173D01*
X173461255Y-99025532D01*
X173490879Y-99026529D01*
X173494389Y-99026252D01*
X173524355Y-99022253D01*
X173534526Y-99014794D01*
X173529817Y-99000604D01*
X173517512Y-98987614D01*
X173489802Y-98977175D01*
X173486144Y-98976961D01*
X173472893Y-98974576D01*
X173483730Y-98970057D01*
X173488474Y-98968666D01*
X173498572Y-98959588D01*
X173490126Y-98940124D01*
X173476981Y-98926414D01*
X173451775Y-98918136D01*
X173408933Y-98915853D01*
X173378846Y-98915447D01*
X173354691Y-98912079D01*
X173344800Y-98902745D01*
X173342897Y-98884464D01*
X173341751Y-98878096D01*
X173355453Y-98878096D01*
X173358475Y-98893032D01*
X173372987Y-98900491D01*
X173405675Y-98901149D01*
X173422587Y-98900015D01*
X173449868Y-98893457D01*
X173452978Y-98882006D01*
X173431612Y-98866072D01*
X173425033Y-98862769D01*
X173390244Y-98852992D01*
X173365117Y-98858407D01*
X173355453Y-98878096D01*
X173341751Y-98878096D01*
X173339211Y-98863990D01*
X173324064Y-98853075D01*
X173314322Y-98854598D01*
X173305909Y-98869537D01*
X173136359Y-98869537D01*
X173120634Y-98815408D01*
X173280119Y-98815408D01*
X173280388Y-98821216D01*
X173286463Y-98833586D01*
X173289756Y-98834570D01*
X173305243Y-98839197D01*
X173324064Y-98839858D01*
X173342897Y-98840519D01*
X173365479Y-98840279D01*
X173390244Y-98839171D01*
X173394373Y-98838986D01*
X173405675Y-98836949D01*
X173405510Y-98836511D01*
X173393782Y-98827290D01*
X173369210Y-98811838D01*
X173351010Y-98802190D01*
X173314333Y-98790897D01*
X173289349Y-98795357D01*
X173280119Y-98815408D01*
X173120634Y-98815408D01*
X173105625Y-98763745D01*
X173050508Y-98622668D01*
X172984187Y-98488679D01*
X172909830Y-98369684D01*
X172902768Y-98359961D01*
X172846684Y-98292120D01*
X172776715Y-98219216D01*
X172699700Y-98147658D01*
X172622480Y-98083858D01*
X172551894Y-98034225D01*
X172533083Y-98022870D01*
X172402949Y-97959686D01*
X172252126Y-97910497D01*
X172080787Y-97875348D01*
X171889102Y-97854286D01*
X171759923Y-97845323D01*
X169287204Y-97845323D01*
X169327856Y-97802344D01*
X169401435Y-97731360D01*
X169490975Y-97650052D01*
X169495669Y-97645872D01*
X169558178Y-97589217D01*
X171539948Y-97589217D01*
X171552893Y-97616478D01*
X171584073Y-97654341D01*
X171606789Y-97680323D01*
X171619064Y-97696415D01*
X171627391Y-97707331D01*
X171635334Y-97722790D01*
X171635419Y-97723399D01*
X171649120Y-97729821D01*
X171683268Y-97734082D01*
X171733598Y-97735626D01*
X171759923Y-97736199D01*
X171797429Y-97737016D01*
X171902507Y-97743493D01*
X172013040Y-97754311D01*
X172118848Y-97768418D01*
X172209753Y-97784764D01*
X172313337Y-97806908D01*
X172313327Y-97755572D01*
X172311656Y-97734012D01*
X172296374Y-97675510D01*
X172268300Y-97611408D01*
X172231318Y-97549756D01*
X172189313Y-97498602D01*
X172175509Y-97485154D01*
X172120999Y-97440735D01*
X172064534Y-97411541D01*
X171998641Y-97394508D01*
X171915847Y-97386575D01*
X171885629Y-97385310D01*
X171836736Y-97384919D01*
X171800390Y-97388582D01*
X171768154Y-97397502D01*
X171731592Y-97412885D01*
X171685963Y-97437899D01*
X171636918Y-97472073D01*
X171592413Y-97509495D01*
X171558344Y-97545186D01*
X171540607Y-97574168D01*
X171539948Y-97589217D01*
X169558178Y-97589217D01*
X169580283Y-97569182D01*
X169647557Y-97505057D01*
X169699911Y-97450851D01*
X169739764Y-97403919D01*
X169769536Y-97361614D01*
X169791646Y-97321291D01*
X169800565Y-97303964D01*
X169823626Y-97267487D01*
X169844866Y-97243097D01*
X169883090Y-97224433D01*
X169928647Y-97224619D01*
X169972203Y-97244198D01*
X170006955Y-97281555D01*
X170023994Y-97308897D01*
X170037684Y-97330163D01*
X170043608Y-97334627D01*
X170061726Y-97338036D01*
X170094361Y-97337983D01*
X170144956Y-97334414D01*
X170216955Y-97327274D01*
X170218813Y-97327076D01*
X170299251Y-97320104D01*
X170392990Y-97314336D01*
X170488534Y-97310366D01*
X170574385Y-97308788D01*
X170614641Y-97308438D01*
X170708012Y-97305288D01*
X170783700Y-97299107D01*
X170838053Y-97290153D01*
X170873005Y-97282349D01*
X170914762Y-97274665D01*
X170942602Y-97271515D01*
X170945804Y-97271616D01*
X170977454Y-97283630D01*
X171009838Y-97310056D01*
X171035059Y-97342971D01*
X171045220Y-97374454D01*
X171045429Y-97379933D01*
X171048680Y-97390554D01*
X171058662Y-97399824D01*
X171078916Y-97409177D01*
X171112979Y-97420048D01*
X171164392Y-97433871D01*
X171236693Y-97452082D01*
X171275392Y-97461749D01*
X171337602Y-97477457D01*
X171388893Y-97490621D01*
X171424777Y-97500085D01*
X171440768Y-97504691D01*
X171449931Y-97501809D01*
X171471197Y-97484001D01*
X171497252Y-97454852D01*
X171549141Y-97401002D01*
X171635370Y-97340669D01*
X171738210Y-97295165D01*
X171817373Y-97276477D01*
X171836736Y-97275590D01*
X171920845Y-97271739D01*
X172023824Y-97286426D01*
X172117996Y-97319995D01*
X172197910Y-97366035D01*
X172283333Y-97437382D01*
X172347889Y-97522341D01*
X172392315Y-97621936D01*
X172417347Y-97737195D01*
X172422189Y-97773890D01*
X172429191Y-97815623D01*
X172436867Y-97840843D01*
X172447064Y-97854781D01*
X172461625Y-97862664D01*
X172469225Y-97865718D01*
X172517050Y-97889266D01*
X172576545Y-97923616D01*
X172641149Y-97964638D01*
X172704298Y-98008198D01*
X172759431Y-98050166D01*
X172786095Y-98072311D01*
X172857104Y-98137249D01*
X172920552Y-98206126D01*
X172980365Y-98283897D01*
X173040470Y-98375513D01*
X173104793Y-98485930D01*
X173176623Y-98614732D01*
X173210303Y-98545893D01*
X173226179Y-98517539D01*
X173259066Y-98471233D01*
X173292557Y-98435476D01*
X173297175Y-98431599D01*
X173314333Y-98419535D01*
X173356617Y-98389803D01*
X173437724Y-98343830D01*
G37*
G36*
X172903877Y-99068794D02*
G01*
X172920414Y-99082215D01*
X172921310Y-99086262D01*
X172923246Y-99112195D01*
X172924509Y-99156413D01*
X172924995Y-99213982D01*
X172924599Y-99279966D01*
X172924175Y-99312091D01*
X172923027Y-99373815D01*
X172921206Y-99415922D01*
X172918087Y-99442300D01*
X172913045Y-99456839D01*
X172905453Y-99463426D01*
X172894688Y-99465949D01*
X172888139Y-99466702D01*
X172879325Y-99465233D01*
X172873227Y-99457077D01*
X172869211Y-99438548D01*
X172866641Y-99405964D01*
X172864882Y-99355640D01*
X172863299Y-99283892D01*
X172862759Y-99254469D01*
X172862020Y-99190796D01*
X172861989Y-99137617D01*
X172862651Y-99099800D01*
X172863988Y-99082215D01*
X172869758Y-99073966D01*
X172891192Y-99066520D01*
X172903877Y-99068794D01*
G37*
G36*
X173368008Y-99675468D02*
G01*
X173361731Y-99681745D01*
X173355453Y-99675468D01*
X173361731Y-99669190D01*
X173368008Y-99675468D01*
G37*
G36*
X174272012Y-105595438D02*
G01*
X173258437Y-105595438D01*
X173222567Y-105673910D01*
X173222333Y-105674421D01*
X173200467Y-105730320D01*
X173188160Y-105785541D01*
X173182563Y-105852828D01*
X173181939Y-105900558D01*
X173188471Y-105962054D01*
X173206454Y-106007824D01*
X173238294Y-106042959D01*
X173286397Y-106072551D01*
X173349175Y-106103940D01*
X173810594Y-106108144D01*
X174272012Y-106112347D01*
X174272012Y-106564132D01*
X173741538Y-106558927D01*
X173683033Y-106558340D01*
X173553870Y-106556846D01*
X173446234Y-106555087D01*
X173357568Y-106552789D01*
X173285314Y-106549679D01*
X173226915Y-106545483D01*
X173179814Y-106539927D01*
X173141454Y-106532738D01*
X173109277Y-106523643D01*
X173080727Y-106512367D01*
X173053245Y-106498636D01*
X173024275Y-106482178D01*
X172954597Y-106430836D01*
X172896542Y-106361263D01*
X172854637Y-106274725D01*
X172827562Y-106169122D01*
X172824645Y-106150466D01*
X172820863Y-106032795D01*
X172842092Y-105914324D01*
X172888267Y-105795296D01*
X172959321Y-105675960D01*
X173015610Y-105595438D01*
X172865784Y-105595438D01*
X172865784Y-105143436D01*
X174272012Y-105143436D01*
X174272012Y-105595438D01*
G37*
G36*
X172652339Y-104729101D02*
G01*
X172313337Y-104729101D01*
X172313337Y-104251988D01*
X172652339Y-104251988D01*
X172652339Y-104729101D01*
G37*
G36*
X171149792Y-109625033D02*
G01*
X171164609Y-109636785D01*
X171199847Y-109665741D01*
X171224361Y-109687386D01*
X171233555Y-109697732D01*
X171227929Y-109710553D01*
X171206446Y-109739966D01*
X171171327Y-109781738D01*
X171125169Y-109833181D01*
X171070567Y-109891611D01*
X171010117Y-109954341D01*
X170946413Y-110018686D01*
X170882052Y-110081960D01*
X170819629Y-110141478D01*
X170761738Y-110194552D01*
X170710977Y-110238498D01*
X170610574Y-110317962D01*
X170447663Y-110433846D01*
X170275536Y-110542579D01*
X170103550Y-110638009D01*
X169984271Y-110699294D01*
X170747025Y-110702530D01*
X171509778Y-110705766D01*
X171509778Y-110893711D01*
X170747025Y-110896947D01*
X169984271Y-110900183D01*
X170144494Y-110984303D01*
X170288084Y-111063963D01*
X170515860Y-111209774D01*
X170725109Y-111369381D01*
X170913758Y-111541283D01*
X170949341Y-111577909D01*
X170997253Y-111629835D01*
X171045840Y-111684870D01*
X171092138Y-111739432D01*
X171133183Y-111789941D01*
X171166012Y-111832813D01*
X171187659Y-111864469D01*
X171195161Y-111881325D01*
X171192768Y-111885493D01*
X171175253Y-111903530D01*
X171144512Y-111930869D01*
X171105027Y-111963428D01*
X171015618Y-112034779D01*
X170971672Y-111963428D01*
X170881417Y-111829048D01*
X170740064Y-111653618D01*
X170578368Y-111487004D01*
X170398840Y-111331737D01*
X170203995Y-111190348D01*
X170199917Y-111187652D01*
X170142629Y-111150793D01*
X170081465Y-111113008D01*
X170020601Y-111076702D01*
X169964212Y-111044280D01*
X169916472Y-111018144D01*
X169881556Y-111000699D01*
X169863639Y-110994350D01*
X169863367Y-110994479D01*
X169860797Y-111009047D01*
X169858472Y-111046077D01*
X169856446Y-111103165D01*
X169854775Y-111177908D01*
X169853513Y-111267900D01*
X169852715Y-111370739D01*
X169852437Y-111484019D01*
X169852437Y-111973688D01*
X169676659Y-111973688D01*
X169676659Y-110893906D01*
X169073990Y-110893906D01*
X169073990Y-110705571D01*
X169676659Y-110705571D01*
X169676659Y-109638344D01*
X169852437Y-109638344D01*
X169852437Y-110123079D01*
X169852438Y-110138910D01*
X169852509Y-110259224D01*
X169852773Y-110356972D01*
X169853334Y-110434431D01*
X169854298Y-110493875D01*
X169855769Y-110537582D01*
X169857853Y-110567826D01*
X169860654Y-110586885D01*
X169864277Y-110597034D01*
X169868827Y-110600549D01*
X169874410Y-110599707D01*
X169884833Y-110595320D01*
X169923907Y-110574963D01*
X169977462Y-110543625D01*
X170041292Y-110504007D01*
X170111188Y-110458809D01*
X170182945Y-110410733D01*
X170252355Y-110362478D01*
X170315211Y-110316746D01*
X170366978Y-110276544D01*
X170461951Y-110197104D01*
X170562892Y-110106742D01*
X170664501Y-110010533D01*
X170761475Y-109913550D01*
X170848514Y-109820868D01*
X170920317Y-109737561D01*
X170954904Y-109694973D01*
X170991835Y-109649587D01*
X171021621Y-109613076D01*
X171039931Y-109590757D01*
X171066030Y-109559207D01*
X171149792Y-109625033D01*
G37*
G36*
X174228437Y-100310432D02*
G01*
X174230160Y-100317896D01*
X174228320Y-100319399D01*
X174213419Y-100317896D01*
X174211455Y-100314120D01*
X174221790Y-100309526D01*
X174228437Y-100310432D01*
G37*
G36*
X174272012Y-111044573D02*
G01*
X173782344Y-111044573D01*
X173782344Y-110592571D01*
X174272012Y-110592571D01*
X174272012Y-111044573D01*
G37*
G36*
X171497222Y-115225591D02*
G01*
X171383987Y-115225591D01*
X171387244Y-115850233D01*
X171390500Y-116474874D01*
X171497222Y-116482596D01*
X171497222Y-116656931D01*
X170706219Y-116656931D01*
X170706219Y-115225591D01*
X170856652Y-115225591D01*
X170859908Y-115850233D01*
X170863164Y-116474874D01*
X171048359Y-116478349D01*
X171233555Y-116481823D01*
X171233555Y-115225591D01*
X170856652Y-115225591D01*
X170706219Y-115225591D01*
X170706219Y-115049813D01*
X171497222Y-115049813D01*
X171497222Y-115225591D01*
G37*
G36*
X170907109Y-113970030D02*
G01*
X171222931Y-113970030D01*
X171260710Y-113932251D01*
X171298489Y-113894471D01*
X171294272Y-113686830D01*
X171292980Y-113619443D01*
X171292339Y-113561904D01*
X171292956Y-113523033D01*
X171295190Y-113499375D01*
X171299397Y-113487479D01*
X171305937Y-113483889D01*
X171315166Y-113485152D01*
X171324439Y-113487137D01*
X171358642Y-113493284D01*
X171399916Y-113499719D01*
X171459556Y-113508324D01*
X171459556Y-113731465D01*
X171459554Y-113744710D01*
X171459372Y-113821546D01*
X171458499Y-113878424D01*
X171456401Y-113919839D01*
X171452539Y-113950284D01*
X171446378Y-113974252D01*
X171437380Y-113996239D01*
X171425009Y-114020736D01*
X171405124Y-114055448D01*
X171380444Y-114086759D01*
X171350481Y-114109446D01*
X171311273Y-114124999D01*
X171258860Y-114134914D01*
X171189283Y-114140682D01*
X171098582Y-114143797D01*
X170907109Y-114148062D01*
X170907109Y-114547588D01*
X170756441Y-114547588D01*
X170756441Y-114145809D01*
X170605774Y-114145809D01*
X170605774Y-113970030D01*
X170756441Y-113970030D01*
X170756441Y-112701913D01*
X170907109Y-112701913D01*
X170907109Y-113970030D01*
G37*
G36*
X173537878Y-99092538D02*
G01*
X173539602Y-99100002D01*
X173537761Y-99101505D01*
X173522861Y-99100002D01*
X173520897Y-99096226D01*
X173531231Y-99091632D01*
X173537878Y-99092538D01*
G37*
G36*
X173355453Y-98940964D02*
G01*
X173354547Y-98947611D01*
X173347082Y-98949335D01*
X173345580Y-98947495D01*
X173347082Y-98932594D01*
X173350859Y-98930630D01*
X173355453Y-98940964D01*
G37*
G36*
X173434585Y-99351595D02*
G01*
X173443342Y-99361577D01*
X173442751Y-99363393D01*
X173430786Y-99374133D01*
X173424136Y-99375138D01*
X173418231Y-99361577D01*
X173420149Y-99352003D01*
X173430786Y-99349022D01*
X173434585Y-99351595D01*
G37*
G36*
X169940327Y-112350356D02*
G01*
X171497222Y-112350356D01*
X171497222Y-112526135D01*
X169940327Y-112526135D01*
X169940327Y-112764691D01*
X169764548Y-112764691D01*
X169764548Y-112526135D01*
X169073990Y-112526135D01*
X169073990Y-112350356D01*
X169764548Y-112350356D01*
X169764548Y-112099244D01*
X169940327Y-112099244D01*
X169940327Y-112350356D01*
G37*
G36*
X173429795Y-99410753D02*
G01*
X173428907Y-99423488D01*
X173423201Y-99427233D01*
X173420713Y-99422791D01*
X173422210Y-99403168D01*
X173426729Y-99397356D01*
X173429795Y-99410753D01*
G37*
G36*
X173430786Y-98934687D02*
G01*
X173424509Y-98940964D01*
X173418231Y-98934687D01*
X173424509Y-98928409D01*
X173430786Y-98934687D01*
G37*
%TD*%
%LPC*%
D13*
%TO.C,J6*%
X106790000Y-116250000D03*
D14*
X109330000Y-116250000D03*
X111870000Y-116250000D03*
X114410000Y-116250000D03*
%TD*%
D15*
%TO.C,HOLE2*%
X104170000Y-115860000D03*
%TD*%
D16*
%TO.C,J7*%
X133240000Y-102320000D03*
D17*
X135780000Y-102320000D03*
X133240000Y-104860000D03*
X135780000Y-104860000D03*
X133240000Y-107400000D03*
X135780000Y-107400000D03*
X133240000Y-109940000D03*
X135780000Y-109940000D03*
X133240000Y-112480000D03*
X135780000Y-112480000D03*
%TD*%
D18*
%TO.C,HOLE8*%
X178414000Y-94810000D03*
%TD*%
%TO.C,HOLE7*%
X178434000Y-119950000D03*
%TD*%
D17*
%TO.C,J2*%
X184348500Y-118652000D03*
X181808500Y-118652000D03*
X184348500Y-116112000D03*
X181808500Y-116112000D03*
X184348500Y-113572000D03*
X181808500Y-113572000D03*
X184348500Y-111032000D03*
X181808500Y-111032000D03*
X184348500Y-108492000D03*
X181808500Y-108492000D03*
X184348500Y-105952000D03*
X181808500Y-105952000D03*
X184348500Y-103412000D03*
X181808500Y-103412000D03*
X184348500Y-100872000D03*
X181808500Y-100872000D03*
X184348500Y-98332000D03*
X181808500Y-98332000D03*
X184348500Y-95792000D03*
D16*
X181808500Y-95792000D03*
%TD*%
D13*
%TO.C,J4*%
X164415000Y-119864000D03*
D14*
X166955000Y-119864000D03*
%TD*%
D15*
%TO.C,HOLE1*%
X104170000Y-98860000D03*
%TD*%
D19*
%TO.C,J5*%
X162901500Y-112450000D03*
D17*
X160361500Y-112450000D03*
X162901500Y-109910000D03*
X160361500Y-109910000D03*
X162901500Y-107370000D03*
X160361500Y-107370000D03*
X162901500Y-104830000D03*
X160361500Y-104830000D03*
X162901500Y-102290000D03*
X160361500Y-102290000D03*
%TD*%
D18*
%TO.C,HOLE6*%
X160554000Y-119920000D03*
%TD*%
D20*
%TO.C,USB1*%
X108489000Y-110340000D03*
X108489000Y-104560000D03*
D21*
X108989000Y-103125000D03*
X108989000Y-111775000D03*
D22*
X104789000Y-103125000D03*
X104789000Y-111775000D03*
%TD*%
D13*
%TO.C,J1*%
X164405000Y-94894000D03*
D14*
X166945000Y-94894000D03*
X169485000Y-94894000D03*
X172025000Y-94894000D03*
X174565000Y-94894000D03*
%TD*%
D18*
%TO.C,HOLE4*%
X134710000Y-99260000D03*
%TD*%
%TO.C,HOLE5*%
X160514000Y-94810000D03*
%TD*%
%TO.C,HOLE3*%
X134670000Y-115510000D03*
%TD*%
D13*
%TO.C,J3*%
X171975000Y-119864000D03*
D14*
X174515000Y-119864000D03*
%TD*%
M02*
