%TF.GenerationSoftware,KiCad,Pcbnew,(6.0.11)*%
%TF.CreationDate,2023-02-06T14:01:38+08:00*%
%TF.ProjectId,UINIO-DAP-Link,55494e49-4f2d-4444-9150-2d4c696e6b2e,Version 3.2.0*%
%TF.SameCoordinates,Original*%
%TF.FileFunction,Soldermask,Top*%
%TF.FilePolarity,Negative*%
%FSLAX46Y46*%
G04 Gerber Fmt 4.6, Leading zero omitted, Abs format (unit mm)*
G04 Created by KiCad (PCBNEW (6.0.11)) date 2023-02-06 14:01:38*
%MOMM*%
%LPD*%
G01*
G04 APERTURE LIST*
G04 Aperture macros list*
%AMRoundRect*
0 Rectangle with rounded corners*
0 $1 Rounding radius*
0 $2 $3 $4 $5 $6 $7 $8 $9 X,Y pos of 4 corners*
0 Add a 4 corners polygon primitive as box body*
4,1,4,$2,$3,$4,$5,$6,$7,$8,$9,$2,$3,0*
0 Add four circle primitives for the rounded corners*
1,1,$1+$1,$2,$3*
1,1,$1+$1,$4,$5*
1,1,$1+$1,$6,$7*
1,1,$1+$1,$8,$9*
0 Add four rect primitives between the rounded corners*
20,1,$1+$1,$2,$3,$4,$5,0*
20,1,$1+$1,$4,$5,$6,$7,0*
20,1,$1+$1,$6,$7,$8,$9,0*
20,1,$1+$1,$8,$9,$2,$3,0*%
%AMHorizOval*
0 Thick line with rounded ends*
0 $1 width*
0 $2 $3 position (X,Y) of the first rounded end (center of the circle)*
0 $4 $5 position (X,Y) of the second rounded end (center of the circle)*
0 Add line between two ends*
20,1,$1,$2,$3,$4,$5,0*
0 Add two circle primitives to create the rounded ends*
1,1,$1,$2,$3*
1,1,$1,$4,$5*%
G04 Aperture macros list end*
%ADD10HorizOval,0.270000X-0.434871X0.434871X0.434871X-0.434871X0*%
%ADD11HorizOval,0.270000X0.434871X0.434871X-0.434871X-0.434871X0*%
%ADD12RoundRect,0.200000X0.200000X0.275000X-0.200000X0.275000X-0.200000X-0.275000X0.200000X-0.275000X0*%
%ADD13R,1.700000X1.700000*%
%ADD14O,1.700000X1.700000*%
%ADD15C,1.200000*%
%ADD16RoundRect,0.250000X-0.600000X-0.600000X0.600000X-0.600000X0.600000X0.600000X-0.600000X0.600000X0*%
%ADD17C,1.700000*%
%ADD18RoundRect,0.218750X0.218750X0.256250X-0.218750X0.256250X-0.218750X-0.256250X0.218750X-0.256250X0*%
%ADD19RoundRect,0.225000X-0.250000X0.225000X-0.250000X-0.225000X0.250000X-0.225000X0.250000X0.225000X0*%
%ADD20RoundRect,0.200000X-0.275000X0.200000X-0.275000X-0.200000X0.275000X-0.200000X0.275000X0.200000X0*%
%ADD21RoundRect,0.225000X-0.225000X-0.250000X0.225000X-0.250000X0.225000X0.250000X-0.225000X0.250000X0*%
%ADD22RoundRect,0.200000X-0.200000X-0.275000X0.200000X-0.275000X0.200000X0.275000X-0.200000X0.275000X0*%
%ADD23C,2.200000*%
%ADD24R,1.200000X1.400000*%
%ADD25RoundRect,0.218750X0.256250X-0.218750X0.256250X0.218750X-0.256250X0.218750X-0.256250X-0.218750X0*%
%ADD26RoundRect,0.200000X0.275000X-0.200000X0.275000X0.200000X-0.275000X0.200000X-0.275000X-0.200000X0*%
%ADD27R,1.000000X0.600000*%
%ADD28RoundRect,0.218750X-0.256250X0.218750X-0.256250X-0.218750X0.256250X-0.218750X0.256250X0.218750X0*%
%ADD29RoundRect,0.225000X0.225000X0.250000X-0.225000X0.250000X-0.225000X-0.250000X0.225000X-0.250000X0*%
%ADD30RoundRect,0.250000X0.600000X0.600000X-0.600000X0.600000X-0.600000X-0.600000X0.600000X-0.600000X0*%
%ADD31C,0.650000*%
%ADD32O,2.100000X1.000000*%
%ADD33O,1.900000X1.000000*%
%ADD34R,1.150000X0.600000*%
%ADD35R,1.150000X0.300000*%
%ADD36RoundRect,0.225000X0.250000X-0.225000X0.250000X0.225000X-0.250000X0.225000X-0.250000X-0.225000X0*%
G04 APERTURE END LIST*
D10*
%TO.C,U2*%
X122880660Y-112229747D03*
X123234214Y-111876194D03*
X123587767Y-111522641D03*
X123941320Y-111169087D03*
X124294874Y-110815534D03*
X124648427Y-110461981D03*
X125001981Y-110108427D03*
X125355534Y-109754874D03*
X125709087Y-109401320D03*
X126062641Y-109047767D03*
X126416194Y-108694214D03*
X126769747Y-108340660D03*
D11*
X126769747Y-106219340D03*
X126416194Y-105865786D03*
X126062641Y-105512233D03*
X125709087Y-105158680D03*
X125355534Y-104805126D03*
X125001981Y-104451573D03*
X124648427Y-104098019D03*
X124294874Y-103744466D03*
X123941320Y-103390913D03*
X123587767Y-103037359D03*
X123234214Y-102683806D03*
X122880660Y-102330253D03*
D10*
X120759340Y-102330253D03*
X120405786Y-102683806D03*
X120052233Y-103037359D03*
X119698680Y-103390913D03*
X119345126Y-103744466D03*
X118991573Y-104098019D03*
X118638019Y-104451573D03*
X118284466Y-104805126D03*
X117930913Y-105158680D03*
X117577359Y-105512233D03*
X117223806Y-105865786D03*
X116870253Y-106219340D03*
D11*
X116870253Y-108340660D03*
X117223806Y-108694214D03*
X117577359Y-109047767D03*
X117930913Y-109401320D03*
X118284466Y-109754874D03*
X118638019Y-110108427D03*
X118991573Y-110461981D03*
X119345126Y-110815534D03*
X119698680Y-111169087D03*
X120052233Y-111522641D03*
X120405786Y-111876194D03*
X120759340Y-112229747D03*
%TD*%
D12*
%TO.C,R17*%
X114375000Y-110240000D03*
X112725000Y-110240000D03*
%TD*%
%TO.C,R16*%
X112725000Y-104400000D03*
X114375000Y-104400000D03*
%TD*%
D13*
%TO.C,J6*%
X106790000Y-116250000D03*
D14*
X109330000Y-116250000D03*
X111870000Y-116250000D03*
X114410000Y-116250000D03*
%TD*%
D15*
%TO.C,HOLE2*%
X104170000Y-115860000D03*
%TD*%
D16*
%TO.C,J7*%
X133240000Y-102320000D03*
D17*
X135780000Y-102320000D03*
X133240000Y-104860000D03*
X135780000Y-104860000D03*
X133240000Y-107400000D03*
X135780000Y-107400000D03*
X133240000Y-109940000D03*
X135780000Y-109940000D03*
X133240000Y-112480000D03*
X135780000Y-112480000D03*
%TD*%
D18*
%TO.C,D1*%
X171057500Y-112710000D03*
X169482500Y-112710000D03*
%TD*%
D19*
%TO.C,C3*%
X130850000Y-114195000D03*
X130850000Y-115745000D03*
%TD*%
D20*
%TO.C,R11*%
X119960000Y-114965000D03*
X119960000Y-116615000D03*
%TD*%
D21*
%TO.C,C2*%
X111025000Y-98534000D03*
X112575000Y-98534000D03*
%TD*%
D22*
%TO.C,R2*%
X173094000Y-104550000D03*
X174744000Y-104550000D03*
%TD*%
D23*
%TO.C,HOLE8*%
X178414000Y-94810000D03*
%TD*%
D18*
%TO.C,D3*%
X171047500Y-102330000D03*
X169472500Y-102330000D03*
%TD*%
D23*
%TO.C,HOLE7*%
X178434000Y-119950000D03*
%TD*%
D19*
%TO.C,C5*%
X123340000Y-115015000D03*
X123340000Y-116565000D03*
%TD*%
D17*
%TO.C,J2*%
X184348500Y-118652000D03*
X181808500Y-118652000D03*
X184348500Y-116112000D03*
X181808500Y-116112000D03*
X184348500Y-113572000D03*
X181808500Y-113572000D03*
X184348500Y-111032000D03*
X181808500Y-111032000D03*
X184348500Y-108492000D03*
X181808500Y-108492000D03*
X184348500Y-105952000D03*
X181808500Y-105952000D03*
X184348500Y-103412000D03*
X181808500Y-103412000D03*
X184348500Y-100872000D03*
X181808500Y-100872000D03*
X184348500Y-98332000D03*
X181808500Y-98332000D03*
X184348500Y-95792000D03*
D16*
X181808500Y-95792000D03*
%TD*%
D24*
%TO.C,Y1*%
X127570000Y-112320000D03*
X127570000Y-114520000D03*
X129270000Y-114520000D03*
X129270000Y-112320000D03*
%TD*%
D25*
%TO.C,D4*%
X118230000Y-116537500D03*
X118230000Y-114962500D03*
%TD*%
D22*
%TO.C,R3*%
X173094000Y-102340000D03*
X174744000Y-102340000D03*
%TD*%
D26*
%TO.C,R12*%
X119960000Y-99875000D03*
X119960000Y-98225000D03*
%TD*%
D27*
%TO.C,U1*%
X107070000Y-98574000D03*
X107070000Y-99524000D03*
X107070000Y-100474000D03*
X109670000Y-100474000D03*
X109670000Y-98574000D03*
%TD*%
D13*
%TO.C,J4*%
X164415000Y-119864000D03*
D14*
X166955000Y-119864000D03*
%TD*%
D28*
%TO.C,D5*%
X118230000Y-99837500D03*
X118230000Y-98262500D03*
%TD*%
D29*
%TO.C,C1*%
X112575000Y-100464000D03*
X111025000Y-100464000D03*
%TD*%
D15*
%TO.C,HOLE1*%
X104170000Y-98860000D03*
%TD*%
D20*
%TO.C,R6*%
X125030000Y-114965000D03*
X125030000Y-116615000D03*
%TD*%
D30*
%TO.C,J5*%
X162901500Y-112450000D03*
D17*
X160361500Y-112450000D03*
X162901500Y-109910000D03*
X160361500Y-109910000D03*
X162901500Y-107370000D03*
X160361500Y-107370000D03*
X162901500Y-104830000D03*
X160361500Y-104830000D03*
X162901500Y-102290000D03*
X160361500Y-102290000D03*
%TD*%
D23*
%TO.C,HOLE6*%
X160554000Y-119920000D03*
%TD*%
D31*
%TO.C,USB1*%
X108489000Y-110340000D03*
X108489000Y-104560000D03*
D32*
X108989000Y-103125000D03*
X108989000Y-111775000D03*
D33*
X104789000Y-103125000D03*
X104789000Y-111775000D03*
D34*
X109751000Y-104250000D03*
X109751000Y-105050000D03*
D35*
X109751000Y-106200000D03*
X109751000Y-107200000D03*
X109751000Y-107700000D03*
X109751000Y-108700000D03*
D34*
X109751000Y-110650000D03*
X109751000Y-109850000D03*
D35*
X109751000Y-109200000D03*
X109751000Y-108200000D03*
X109751000Y-106700000D03*
X109751000Y-105700000D03*
%TD*%
D13*
%TO.C,J1*%
X164405000Y-94894000D03*
D14*
X166945000Y-94894000D03*
X169485000Y-94894000D03*
X172025000Y-94894000D03*
X174565000Y-94894000D03*
%TD*%
D12*
%TO.C,R5*%
X171105000Y-107770000D03*
X169455000Y-107770000D03*
%TD*%
%TO.C,R15*%
X114375000Y-108780000D03*
X112725000Y-108780000D03*
%TD*%
D23*
%TO.C,HOLE4*%
X134710000Y-99260000D03*
%TD*%
D12*
%TO.C,R13*%
X114375000Y-107320000D03*
X112725000Y-107320000D03*
%TD*%
D26*
%TO.C,R7*%
X125030000Y-99875000D03*
X125030000Y-98225000D03*
%TD*%
D23*
%TO.C,HOLE5*%
X160514000Y-94810000D03*
%TD*%
D12*
%TO.C,R14*%
X114375000Y-105860000D03*
X112725000Y-105860000D03*
%TD*%
D18*
%TO.C,D2*%
X171047500Y-104510000D03*
X169472500Y-104510000D03*
%TD*%
D23*
%TO.C,HOLE3*%
X134670000Y-115510000D03*
%TD*%
D36*
%TO.C,C4*%
X130850000Y-112785000D03*
X130850000Y-111235000D03*
%TD*%
D26*
%TO.C,R8*%
X123340000Y-98225000D03*
X123340000Y-99875000D03*
%TD*%
D20*
%TO.C,R9*%
X121650000Y-99875000D03*
X121650000Y-98225000D03*
%TD*%
D12*
%TO.C,R1*%
X174805000Y-112710000D03*
X173155000Y-112710000D03*
%TD*%
%TO.C,R4*%
X171105000Y-109550000D03*
X169455000Y-109550000D03*
%TD*%
D13*
%TO.C,J3*%
X171975000Y-119864000D03*
D14*
X174515000Y-119864000D03*
%TD*%
D20*
%TO.C,R10*%
X121650000Y-114965000D03*
X121650000Y-116615000D03*
%TD*%
M02*
