M48
; DRILL file {KiCad 8.0.6} date 2024-10-29T14:19:06+0800
; FORMAT={-:-/ absolute / metric / decimal}
; #@! TF.CreationDate,2024-10-29T14:19:06+08:00
; #@! TF.GenerationSoftware,Kicad,Pcbnew,8.0.6
; #@! TF.FileFunction,MixedPlating,1,2
FMAT,2
METRIC
; #@! TA.AperFunction,Plated,PTH,ViaDrill
T1C0.300
; #@! TA.AperFunction,Plated,PTH,ViaDrill
T2C0.400
; #@! TA.AperFunction,Plated,PTH,ViaDrill
T3C0.500
; #@! TA.AperFunction,Plated,PTH,ViaDrill
T4C0.600
; #@! TA.AperFunction,Plated,PTH,ComponentDrill
T5C0.600
; #@! TA.AperFunction,Plated,PTH,ComponentDrill
T6C1.000
; #@! TA.AperFunction,NonPlated,NPTH,ComponentDrill
T7C0.650
; #@! TA.AperFunction,NonPlated,NPTH,ComponentDrill
T8C2.200
%
G90
G05
T1
X-1.63Y-8.125
X-1.6Y-21.865
X-0.73Y-8.125
X-0.7Y-21.865
X0.17Y-8.125
X0.2Y-21.865
X1.07Y-8.125
X1.1Y-21.865
X1.97Y-8.125
X2.0Y-21.865
X2.8Y-14.755
X2.8Y-15.745
X2.87Y-8.125
X2.9Y-21.865
X5.69Y-15.755
X6.16Y-10.275
X7.0Y-10.275
X7.57Y-12.955
X7.84Y-10.275
X13.08Y-18.685
X13.08Y-19.685
X13.08Y-20.685
X13.08Y-21.685
X13.08Y-22.685
X13.08Y-23.685
X13.08Y-24.685
X14.08Y-18.685
X14.08Y-22.685
X14.08Y-23.685
X14.08Y-24.685
X15.08Y-18.685
X15.08Y-23.685
X15.08Y-24.685
X16.08Y-18.685
X16.08Y-24.685
X17.08Y-18.685
X17.08Y-24.685
X18.08Y-24.685
X19.08Y-20.685
X19.08Y-21.685
X19.08Y-22.685
X19.08Y-23.685
X19.08Y-24.685
X19.48Y-11.025
X20.41Y-22.15
X21.1Y-17.305
X21.117Y-22.857
X21.32Y-9.335
X21.824Y-23.564
X22.531Y-24.271
X24.65Y-8.725
X25.58Y-8.765
X25.58Y-10.045
X30.18Y-16.374
X30.19Y-17.595
X30.3Y-23.395
X30.38Y-11.145
X30.38Y-13.325
X37.4Y-6.365
X37.4Y-7.265
X37.4Y-8.165
X37.4Y-9.065
X37.4Y-9.965
X37.4Y-10.865
X37.4Y-13.965
X37.4Y-14.865
X37.4Y-15.765
X37.4Y-16.665
X37.4Y-17.565
X37.4Y-18.465
X37.4Y-22.265
X37.4Y-23.165
X37.4Y-24.065
X42.7Y-11.18
X42.7Y-16.31
X42.7Y-18.91
X57.13Y-10.03
X61.85Y-1.12
X74.379Y-14.975
T2
X11.8Y-0.965
X11.8Y-2.065
X11.8Y-3.165
X11.8Y-4.265
X11.8Y-5.365
X24.358Y-24.472
X31.945Y-16.375
T3
X4.73Y-12.605
X4.73Y-17.405
X9.0Y-23.435
X9.0Y-24.765
X9.8Y-8.575
X9.8Y-9.995
X9.8Y-19.095
X9.8Y-20.305
X10.5Y-23.435
X10.5Y-24.765
X14.86Y-14.975
X72.8Y-21.32
T4
X49.025Y-12.37
X49.025Y-14.11
X49.025Y-15.85
X49.025Y-17.59
T6
X14.48Y-3.19
X17.02Y-3.19
X19.56Y-3.19
X22.1Y-3.19
X24.64Y-3.19
X45.225Y-2.275
X45.225Y-4.815
X45.225Y-7.355
X45.225Y-9.895
X45.225Y-12.435
X45.225Y-14.975
X45.225Y-17.515
X45.225Y-20.055
X45.225Y-22.595
X45.225Y-25.135
X45.225Y-27.675
X52.825Y-2.275
X52.825Y-4.815
X52.825Y-7.355
X52.825Y-9.895
X52.825Y-12.435
X52.825Y-14.975
X52.825Y-17.515
X52.825Y-20.055
X52.825Y-22.595
X52.825Y-25.135
X52.825Y-27.675
X63.55Y-28.225
X63.56Y-1.775
X66.09Y-28.225
X66.1Y-1.775
X68.63Y-28.225
X71.16Y-1.775
X71.17Y-28.225
X73.7Y-1.775
X73.71Y-28.225
X80.703Y-3.57
X80.703Y-6.11
X80.703Y-8.65
X80.703Y-11.19
X80.703Y-13.73
X80.703Y-16.27
X80.703Y-18.81
X80.703Y-21.35
X80.703Y-23.89
X80.703Y-26.43
X83.243Y-3.57
X83.243Y-6.11
X83.243Y-8.65
X83.243Y-11.19
X83.243Y-13.73
X83.243Y-16.27
X83.243Y-18.81
X83.243Y-21.35
X83.243Y-23.89
X83.243Y-26.43
T7
X2.377Y-12.11
X2.377Y-17.89
T8
X0.44Y-3.215
X0.44Y-26.715
X37.385Y-3.215
X37.385Y-26.715
X59.79Y-2.765
X59.79Y-27.165
X77.48Y-2.8
X77.48Y-27.2
T5
G00X-0.873Y-10.675
M15
G01X-1.773Y-10.675
M16
G05
G00X-0.873Y-19.325
M15
G01X-1.773Y-19.325
M16
G05
G00X3.477Y-10.675
M15
G01X2.277Y-10.675
M16
G05
G00X3.477Y-19.325
M15
G01X2.277Y-19.325
M16
G05
M30
